<svg version="1.1" xmlns="http://www.w3.org/2000/svg" viewBox="0 0 77.77777099609375 92.22221374511719" width="77.77777099609375" height="92.22221374511719" filter="invert(93%) hue-rotate(180deg)">
  <!-- svg-source:excalidraw -->
  
  <defs>
    <style class="style-fonts">
      @font-face {
        font-family: "Virgil";
        src: url("https://excalidraw.com/Virgil.woff2");
      }
      @font-face {
        font-family: "Cascadia";
        src: url("https://excalidraw.com/Cascadia.woff2");
      }
    </style>
    
  </defs>
  <rect x="0" y="0" width="77.77777099609375" height="92.22221374511719" fill="#ffffff"/><g transform="translate(34.44444274902344 10) rotate(0 -12.222221374511719 30.833328247070312)" stroke="none"><path fill="#1e1e1e" d="M 1.27,1.27 Q 1.27,1.27 0.19,2.42 -0.88,3.57 -1.92,5.13 -2.97,6.68 -4.73,10.04 -6.49,13.40 -8.69,18.78 -10.88,24.16 -12.78,29.63 -14.69,35.10 -16.63,41.10 -18.56,47.09 -19.87,51.39 -21.18,55.69 -21.61,58.27 -22.04,60.85 -22.13,61.10 -22.23,61.34 -22.40,61.55 -22.57,61.75 -22.80,61.89 -23.02,62.03 -23.28,62.09 -23.54,62.14 -23.80,62.12 -24.07,62.09 -24.31,61.98 -24.55,61.87 -24.74,61.69 -24.94,61.51 -25.06,61.28 -25.19,61.04 -25.23,60.78 -25.28,60.52 -25.23,60.26 -25.19,60.00 -25.07,59.76 -24.95,59.53 -24.76,59.34 -24.57,59.16 -24.33,59.05 -24.09,58.93 -23.82,58.90 -23.56,58.87 -23.30,58.93 -23.04,58.98 -22.81,59.12 -22.59,59.25 -22.41,59.46 -22.24,59.66 -22.14,59.90 -22.04,60.15 -22.03,60.41 -22.01,60.68 -22.08,60.93 -22.15,61.19 -22.30,61.41 -22.44,61.63 -22.65,61.79 -22.86,61.95 -23.11,62.04 -23.36,62.12 -23.63,62.13 -23.89,62.13 -24.14,62.04 -24.40,61.96 -24.61,61.80 -24.82,61.64 -24.97,61.43 -25.12,61.21 -25.19,60.95 -25.27,60.70 -25.25,60.43 -25.24,60.17 -25.24,60.17 -25.24,60.17 -24.56,57.52 -23.87,54.88 -22.59,50.55 -21.31,46.22 -19.41,40.18 -17.51,34.14 -15.64,28.57 -13.77,23.01 -11.60,17.46 -9.43,11.92 -7.69,8.35 -5.95,4.79 -4.77,2.84 -3.58,0.90 -2.43,-0.18 -1.27,-1.27 -1.10,-1.41 -0.93,-1.54 -0.73,-1.63 -0.53,-1.72 -0.32,-1.76 -0.10,-1.80 0.10,-1.79 0.32,-1.77 0.53,-1.71 0.74,-1.64 0.92,-1.53 1.11,-1.42 1.27,-1.26 1.42,-1.11 1.53,-0.92 1.64,-0.74 1.71,-0.53 1.77,-0.32 1.79,-0.10 1.80,0.10 1.76,0.32 1.72,0.53 1.63,0.73 1.54,0.93 1.41,1.10 1.27,1.27 1.27,1.27 L 1.27,1.27 Z"/></g><g transform="translate(44.99998474121094 12.77777099609375) rotate(0 -13.333328247070312 26.388893127441406)" stroke="none"><path fill="#1e1e1e" d="M 1.35,1.16 Q 1.35,1.16 0.44,2.32 -0.46,3.47 -1.67,5.10 -2.88,6.73 -4.84,10.09 -6.80,13.46 -9.42,18.10 -12.04,22.74 -14.27,27.23 -16.50,31.71 -18.57,36.32 -20.64,40.93 -22.00,44.31 -23.35,47.69 -23.73,49.39 -24.10,51.10 -24.16,51.32 -24.22,51.55 -24.34,51.75 -24.47,51.94 -24.65,52.09 -24.83,52.23 -25.05,52.31 -25.27,52.39 -25.50,52.40 -25.74,52.41 -25.96,52.34 -26.18,52.27 -26.37,52.13 -26.56,52.00 -26.70,51.81 -26.83,51.62 -26.90,51.39 -26.97,51.17 -26.96,50.94 -26.96,50.70 -26.87,50.48 -26.79,50.26 -26.65,50.08 -26.50,49.90 -26.30,49.78 -26.11,49.65 -25.88,49.60 -25.65,49.54 -25.42,49.56 -25.19,49.58 -24.97,49.67 -24.76,49.76 -24.59,49.92 -24.41,50.08 -24.30,50.28 -24.18,50.48 -24.14,50.71 -24.10,50.94 -24.13,51.17 -24.16,51.40 -24.27,51.61 -24.37,51.82 -24.54,51.99 -24.70,52.15 -24.91,52.25 -25.12,52.36 -25.35,52.39 -25.58,52.42 -25.81,52.37 -26.04,52.33 -26.24,52.21 -26.45,52.10 -26.60,51.93 -26.76,51.75 -26.85,51.54 -26.94,51.32 -26.96,51.09 -26.98,50.86 -26.98,50.86 -26.98,50.86 -26.47,48.76 -25.96,46.66 -24.61,43.21 -23.26,39.77 -21.21,35.09 -19.16,30.41 -16.95,25.83 -14.75,21.24 -12.20,16.55 -9.65,11.86 -7.71,8.30 -5.77,4.74 -4.57,2.87 -3.36,0.99 -2.36,-0.08 -1.35,-1.16 -1.19,-1.31 -1.04,-1.45 -0.85,-1.55 -0.66,-1.66 -0.45,-1.71 -0.24,-1.77 -0.02,-1.77 0.18,-1.77 0.39,-1.73 0.60,-1.68 0.79,-1.58 0.99,-1.48 1.15,-1.34 1.31,-1.20 1.44,-1.03 1.57,-0.85 1.65,-0.65 1.72,-0.45 1.75,-0.24 1.78,-0.02 1.76,0.18 1.74,0.39 1.67,0.60 1.59,0.80 1.47,0.98 1.35,1.16 1.35,1.16 L 1.35,1.16 Z"/></g><g transform="translate(48.888885498046875 12.222213745117188) rotate(0 -10.833335876464844 31.94445037841797)" stroke="none"><path fill="#1e1e1e" d="M 1.45,1.03 Q 1.45,1.03 0.71,2.19 -0.02,3.35 -0.78,4.94 -1.54,6.52 -3.06,9.92 -4.58,13.33 -6.52,18.26 -8.46,23.20 -10.26,28.16 -12.06,33.12 -13.78,39.03 -15.50,44.93 -16.89,50.00 -18.27,55.07 -18.87,58.97 -19.48,62.87 -19.54,63.11 -19.61,63.36 -19.75,63.57 -19.88,63.79 -20.09,63.95 -20.29,64.11 -20.53,64.19 -20.77,64.28 -21.02,64.28 -21.28,64.29 -21.52,64.21 -21.77,64.13 -21.97,63.98 -22.18,63.83 -22.33,63.62 -22.47,63.41 -22.55,63.17 -22.62,62.92 -22.61,62.67 -22.60,62.41 -22.51,62.17 -22.42,61.93 -22.26,61.74 -22.10,61.54 -21.88,61.40 -21.66,61.27 -21.41,61.21 -21.17,61.15 -20.91,61.17 -20.66,61.19 -20.42,61.30 -20.19,61.40 -20.00,61.57 -19.81,61.74 -19.69,61.97 -19.56,62.19 -19.52,62.44 -19.47,62.69 -19.51,62.95 -19.55,63.20 -19.66,63.43 -19.78,63.66 -19.96,63.84 -20.14,64.01 -20.37,64.13 -20.60,64.24 -20.85,64.27 -21.11,64.30 -21.36,64.25 -21.61,64.20 -21.83,64.07 -22.05,63.95 -22.22,63.75 -22.39,63.56 -22.49,63.33 -22.59,63.09 -22.61,62.84 -22.62,62.58 -22.63,62.58 -22.63,62.58 -21.82,58.46 -21.02,54.33 -19.67,49.22 -18.32,44.12 -16.63,38.11 -14.93,32.11 -13.20,27.08 -11.46,22.06 -9.60,17.02 -7.74,11.99 -6.33,8.47 -4.91,4.95 -4.04,3.03 -3.16,1.12 -2.31,0.04 -1.45,-1.03 -1.30,-1.19 -1.16,-1.35 -0.98,-1.47 -0.80,-1.59 -0.60,-1.66 -0.39,-1.73 -0.18,-1.75 0.02,-1.78 0.24,-1.75 0.45,-1.72 0.65,-1.64 0.85,-1.56 1.02,-1.44 1.20,-1.31 1.34,-1.15 1.48,-0.98 1.58,-0.79 1.67,-0.60 1.72,-0.39 1.77,-0.18 1.76,0.02 1.76,0.24 1.71,0.45 1.65,0.65 1.55,0.84 1.45,1.03 1.45,1.03 L 1.45,1.03 Z"/></g><g transform="translate(60 18.888885498046875) rotate(0 -13.055557250976562 30.833328247070312)" stroke="none"><path fill="#1e1e1e" d="M 1.36,1.09 Q 1.36,1.09 0.05,2.66 -1.24,4.23 -3.03,7.33 -4.82,10.43 -7.20,15.26 -9.58,20.09 -11.72,25.00 -13.85,29.91 -16.04,35.65 -18.23,41.40 -19.96,46.54 -21.69,51.68 -22.84,55.96 -24.00,60.24 -24.11,60.48 -24.23,60.71 -24.41,60.90 -24.59,61.08 -24.83,61.20 -25.06,61.32 -25.32,61.36 -25.58,61.39 -25.83,61.35 -26.09,61.30 -26.32,61.17 -26.55,61.05 -26.72,60.85 -26.90,60.66 -27.00,60.42 -27.11,60.18 -27.13,59.92 -27.16,59.66 -27.09,59.41 -27.03,59.15 -26.89,58.93 -26.76,58.71 -26.55,58.55 -26.35,58.38 -26.11,58.29 -25.86,58.20 -25.60,58.19 -25.34,58.18 -25.09,58.25 -24.84,58.33 -24.63,58.48 -24.41,58.63 -24.26,58.84 -24.10,59.05 -24.03,59.30 -23.95,59.55 -23.95,59.81 -23.96,60.07 -24.04,60.32 -24.13,60.56 -24.30,60.77 -24.46,60.97 -24.68,61.11 -24.90,61.26 -25.15,61.32 -25.40,61.39 -25.66,61.37 -25.92,61.35 -26.16,61.25 -26.40,61.15 -26.60,60.97 -26.80,60.80 -26.93,60.57 -27.06,60.35 -27.11,60.09 -27.16,59.84 -27.13,59.58 -27.09,59.32 -27.09,59.32 -27.09,59.32 -25.70,55.06 -24.31,50.80 -22.59,45.60 -20.87,40.40 -18.69,34.58 -16.52,28.77 -14.40,23.77 -12.29,18.78 -9.92,13.83 -7.56,8.89 -5.71,5.52 -3.86,2.15 -2.61,0.53 -1.36,-1.09 -1.21,-1.23 -1.06,-1.38 -0.88,-1.49 -0.70,-1.59 -0.49,-1.65 -0.29,-1.71 -0.08,-1.73 0.12,-1.74 0.32,-1.70 0.53,-1.66 0.72,-1.57 0.91,-1.48 1.08,-1.35 1.24,-1.22 1.37,-1.05 1.50,-0.88 1.58,-0.69 1.67,-0.50 1.70,-0.29 1.74,-0.08 1.72,0.12 1.71,0.33 1.64,0.53 1.58,0.73 1.47,0.91 1.36,1.09 1.36,1.09 L 1.36,1.09 Z"/></g><g transform="translate(61.66667175292969 27.222213745117188) rotate(0 -11.666671752929688 27.5)" stroke="none"><path fill="#1e1e1e" d="M 1.40,1.10 Q 1.40,1.10 -0.40,3.30 -2.20,5.49 -3.88,8.39 -5.55,11.29 -7.72,15.86 -9.89,20.43 -12.26,25.89 -14.63,31.34 -16.43,36.04 -18.24,40.73 -19.31,44.74 -20.39,48.75 -20.93,51.47 -21.46,54.19 -21.57,54.43 -21.67,54.67 -21.84,54.87 -22.02,55.06 -22.24,55.19 -22.47,55.32 -22.73,55.37 -22.99,55.42 -23.25,55.39 -23.51,55.36 -23.74,55.24 -23.98,55.13 -24.16,54.94 -24.35,54.76 -24.47,54.52 -24.59,54.29 -24.62,54.03 -24.66,53.77 -24.61,53.51 -24.56,53.25 -24.44,53.02 -24.31,52.79 -24.11,52.62 -23.92,52.44 -23.68,52.34 -23.44,52.23 -23.18,52.21 -22.92,52.19 -22.66,52.25 -22.41,52.31 -22.18,52.45 -21.96,52.59 -21.80,52.79 -21.63,53.00 -21.54,53.24 -21.45,53.49 -21.44,53.75 -21.43,54.01 -21.51,54.27 -21.58,54.52 -21.73,54.73 -21.89,54.94 -22.10,55.10 -22.31,55.25 -22.56,55.33 -22.81,55.41 -23.07,55.40 -23.34,55.40 -23.58,55.31 -23.83,55.22 -24.03,55.06 -24.24,54.89 -24.38,54.67 -24.52,54.45 -24.59,54.20 -24.65,53.94 -24.63,53.68 -24.61,53.42 -24.61,53.42 -24.61,53.42 -23.84,50.73 -23.06,48.04 -21.97,43.89 -20.87,39.73 -19.08,34.97 -17.29,30.20 -14.94,24.69 -12.60,19.17 -10.44,14.46 -8.28,9.75 -6.55,6.60 -4.82,3.44 -3.11,1.17 -1.40,-1.10 -1.25,-1.25 -1.10,-1.40 -0.91,-1.52 -0.73,-1.63 -0.52,-1.69 -0.31,-1.75 -0.10,-1.77 0.11,-1.78 0.32,-1.74 0.53,-1.70 0.73,-1.61 0.92,-1.52 1.09,-1.39 1.26,-1.26 1.39,-1.09 1.53,-0.92 1.62,-0.72 1.70,-0.52 1.74,-0.31 1.78,-0.10 1.77,0.10 1.75,0.32 1.69,0.53 1.63,0.73 1.51,0.92 1.40,1.10 1.40,1.10 L 1.40,1.10 Z"/></g><g transform="translate(67.77777099609375 25.555557250976562) rotate(0 -12.5 27.77777862548828)" stroke="none"><path fill="#1e1e1e" d="M 1.52,1.09 Q 1.52,1.09 0.78,2.24 0.03,3.40 -1.44,5.82 -2.93,8.24 -4.87,11.82 -6.81,15.39 -9.40,20.72 -12.00,26.06 -14.23,31.17 -16.45,36.29 -18.37,41.17 -20.28,46.04 -21.25,48.89 -22.22,51.73 -22.47,53.42 -22.71,55.10 -22.80,55.34 -22.90,55.59 -23.06,55.79 -23.23,55.99 -23.45,56.12 -23.67,56.26 -23.92,56.32 -24.17,56.38 -24.43,56.36 -24.69,56.33 -24.92,56.23 -25.16,56.12 -25.35,55.94 -25.54,55.77 -25.67,55.54 -25.79,55.31 -25.84,55.06 -25.88,54.80 -25.85,54.55 -25.81,54.29 -25.69,54.06 -25.57,53.83 -25.39,53.65 -25.20,53.47 -24.97,53.35 -24.73,53.24 -24.48,53.21 -24.22,53.18 -23.96,53.23 -23.71,53.28 -23.49,53.41 -23.26,53.54 -23.09,53.74 -22.92,53.93 -22.82,54.17 -22.72,54.41 -22.70,54.67 -22.69,54.93 -22.75,55.18 -22.82,55.43 -22.96,55.65 -23.10,55.87 -23.31,56.03 -23.51,56.19 -23.75,56.27 -24.00,56.36 -24.26,56.36 -24.52,56.37 -24.76,56.29 -25.01,56.21 -25.22,56.05 -25.43,55.90 -25.58,55.69 -25.73,55.47 -25.80,55.23 -25.87,54.98 -25.86,54.72 -25.85,54.46 -25.85,54.46 -25.85,54.46 -25.38,52.65 -24.91,50.84 -23.95,47.91 -22.99,44.99 -21.11,40.05 -19.23,35.10 -17.04,29.90 -14.86,24.69 -12.33,19.26 -9.80,13.84 -7.94,10.13 -6.09,6.43 -4.66,3.75 -3.23,1.07 -2.37,-0.01 -1.52,-1.09 -1.37,-1.25 -1.22,-1.42 -1.03,-1.55 -0.84,-1.67 -0.63,-1.75 -0.42,-1.83 -0.19,-1.85 0.03,-1.87 0.25,-1.84 0.47,-1.81 0.68,-1.73 0.90,-1.64 1.08,-1.51 1.26,-1.38 1.41,-1.21 1.56,-1.04 1.66,-0.84 1.76,-0.63 1.81,-0.41 1.86,-0.19 1.86,0.03 1.86,0.25 1.80,0.47 1.74,0.69 1.63,0.89 1.52,1.09 1.52,1.09 L 1.52,1.09 Z"/></g></svg>