<svg version="1.1" xmlns="http://www.w3.org/2000/svg" viewBox="0 0 519.9999389648438 138.88890075683594" width="519.9999389648438" height="138.88890075683594" filter="invert(93%) hue-rotate(180deg)">
  <!-- svg-source:excalidraw -->
  
  <defs>
    <style class="style-fonts">
      @font-face {
        font-family: "Virgil";
        src: url("https://excalidraw.com/Virgil.woff2");
      }
      @font-face {
        font-family: "Cascadia";
        src: url("https://excalidraw.com/Cascadia.woff2");
      }
    </style>
    
  </defs>
  <rect x="0" y="0" width="519.9999389648438" height="138.88890075683594" fill="#ffffff"/><g transform="translate(16.111083984375 65.55555725097656) rotate(0 19.72222900390625 21.111106872558594)" stroke="none"><path fill="#1e1e1e" d="M 0.23,0.83 Q 0.23,0.83 -0.86,1.11 -1.97,1.39 -2.31,2.10 -2.65,2.81 -2.42,3.39 -2.19,3.98 -1.11,5.15 -0.02,6.32 1.86,7.99 3.76,9.66 7.28,12.46 10.79,15.25 15.48,18.85 20.17,22.44 25.04,26.37 29.91,30.31 33.42,33.26 36.93,36.21 39.73,38.45 42.52,40.69 42.60,40.77 42.67,40.86 42.72,40.96 42.76,41.06 42.77,41.17 42.78,41.28 42.75,41.39 42.73,41.50 42.67,41.60 42.61,41.69 42.52,41.76 42.43,41.83 42.33,41.87 42.22,41.91 42.11,41.91 42.00,41.92 41.89,41.88 41.79,41.85 41.69,41.79 41.60,41.72 41.54,41.63 41.47,41.54 41.44,41.43 41.40,41.33 41.41,41.21 41.41,41.10 41.45,41.00 41.49,40.89 41.56,40.80 41.63,40.72 41.72,40.66 41.81,40.60 41.92,40.57 42.03,40.54 42.14,40.55 42.25,40.56 42.36,40.60 42.46,40.65 42.54,40.72 42.63,40.79 42.68,40.89 42.74,40.99 42.76,41.10 42.78,41.21 42.77,41.32 42.75,41.43 42.70,41.53 42.65,41.63 42.58,41.71 42.50,41.79 42.40,41.84 42.30,41.89 42.19,41.91 42.07,41.92 41.96,41.90 41.85,41.88 41.76,41.83 41.66,41.77 41.66,41.77 41.66,41.77 38.84,39.53 36.02,37.30 32.51,34.37 29.00,31.43 24.13,27.53 19.26,23.63 14.54,20.06 9.82,16.49 6.25,13.70 2.67,10.92 0.66,9.23 -1.34,7.54 -2.69,6.06 -4.04,4.59 -4.28,3.46 -4.52,2.33 -4.17,1.63 -3.83,0.92 -3.16,0.40 -2.49,-0.11 -1.36,-0.47 -0.23,-0.83 -0.13,-0.85 -0.03,-0.86 0.07,-0.85 0.17,-0.85 0.27,-0.81 0.37,-0.78 0.46,-0.72 0.55,-0.67 0.62,-0.59 0.69,-0.51 0.74,-0.42 0.80,-0.33 0.82,-0.23 0.85,-0.13 0.86,-0.03 0.86,0.07 0.84,0.17 0.82,0.27 0.77,0.37 0.73,0.46 0.66,0.54 0.59,0.62 0.51,0.69 0.43,0.75 0.33,0.79 0.23,0.83 0.23,0.83 L 0.23,0.83 Z"/></g><g transform="translate(57.777740478515625 58.888885498046875) rotate(0 -23.611083984375 21.388885498046875)" stroke="none"><path fill="#1e1e1e" d="M -0.94,-0.18 Q -0.94,-0.18 -0.79,-0.98 -0.64,-1.79 -0.59,-2.32 -0.54,-2.86 -1.92,-1.72 -3.29,-0.58 -4.38,0.53 -5.46,1.65 -6.88,3.53 -8.30,5.41 -10.38,7.99 -12.45,10.57 -14.45,13.09 -16.45,15.61 -19.08,18.61 -21.70,21.61 -24.75,24.65 -27.80,27.69 -30.53,30.26 -33.27,32.82 -35.87,35.19 -38.47,37.56 -40.53,39.51 -42.59,41.47 -43.76,42.91 -44.93,44.35 -45.81,45.72 -46.70,47.08 -46.79,47.18 -46.88,47.27 -47.00,47.33 -47.11,47.39 -47.24,47.40 -47.37,47.42 -47.50,47.40 -47.62,47.38 -47.74,47.31 -47.85,47.25 -47.94,47.15 -48.02,47.06 -48.08,46.94 -48.13,46.82 -48.14,46.69 -48.15,46.56 -48.12,46.44 -48.09,46.31 -48.02,46.20 -47.95,46.09 -47.85,46.01 -47.75,45.93 -47.63,45.88 -47.51,45.84 -47.38,45.83 -47.25,45.83 -47.13,45.87 -47.00,45.90 -46.90,45.98 -46.79,46.05 -46.72,46.16 -46.64,46.26 -46.60,46.39 -46.56,46.51 -46.56,46.64 -46.57,46.77 -46.61,46.89 -46.65,47.01 -46.73,47.11 -46.81,47.21 -46.92,47.28 -47.03,47.36 -47.16,47.39 -47.28,47.42 -47.41,47.41 -47.54,47.40 -47.66,47.35 -47.78,47.30 -47.88,47.21 -47.97,47.13 -48.04,47.02 -48.10,46.90 -48.13,46.78 -48.15,46.65 -48.14,46.52 -48.12,46.39 -48.06,46.28 -48.01,46.16 -48.01,46.16 -48.01,46.16 -46.99,44.83 -45.97,43.50 -44.75,42.00 -43.53,40.49 -41.47,38.51 -39.40,36.54 -36.82,34.17 -34.23,31.80 -31.52,29.24 -28.81,26.68 -25.82,23.66 -22.82,20.64 -20.24,17.65 -17.67,14.66 -15.70,12.11 -13.73,9.56 -11.72,6.97 -9.71,4.38 -8.29,2.38 -6.87,0.37 -5.78,-0.89 -4.69,-2.16 -3.57,-3.22 -2.44,-4.29 -1.56,-4.64 -0.68,-4.99 -0.09,-4.79 0.49,-4.59 0.97,-3.77 1.45,-2.96 1.37,-2.18 1.28,-1.40 1.11,-0.60 0.94,0.18 0.90,0.29 0.87,0.40 0.80,0.50 0.74,0.60 0.66,0.68 0.58,0.76 0.48,0.82 0.38,0.88 0.26,0.91 0.15,0.94 0.04,0.95 -0.07,0.95 -0.18,0.93 -0.30,0.91 -0.40,0.86 -0.51,0.81 -0.60,0.74 -0.69,0.66 -0.76,0.57 -0.83,0.48 -0.87,0.37 -0.92,0.27 -0.94,0.15 -0.96,0.04 -0.95,-0.07 -0.94,-0.18 -0.94,-0.18 L -0.94,-0.18 Z"/></g><g transform="translate(71.66665649414062 85.5555419921875) rotate(0 5.5555419921875 -0.5555496215820312)" stroke="none"><path fill="#1e1e1e" d="M -0.24,-0.97 Q -0.24,-0.97 0.39,-1.16 1.02,-1.35 2.35,-1.37 3.68,-1.40 5.02,-1.39 6.36,-1.38 8.97,-1.70 11.57,-2.02 11.73,-2.01 11.89,-2.00 12.03,-1.94 12.17,-1.88 12.29,-1.77 12.41,-1.67 12.48,-1.53 12.56,-1.39 12.59,-1.24 12.62,-1.09 12.60,-0.93 12.58,-0.78 12.51,-0.64 12.44,-0.50 12.33,-0.38 12.22,-0.27 12.08,-0.20 11.94,-0.13 11.78,-0.11 11.63,-0.09 11.47,-0.12 11.32,-0.15 11.18,-0.23 11.05,-0.31 10.94,-0.42 10.84,-0.54 10.78,-0.68 10.71,-0.83 10.70,-0.98 10.69,-1.14 10.73,-1.29 10.76,-1.44 10.85,-1.57 10.93,-1.71 11.06,-1.80 11.18,-1.90 11.32,-1.96 11.47,-2.01 11.63,-2.01 11.78,-2.02 11.93,-1.97 12.08,-1.93 12.21,-1.84 12.34,-1.74 12.43,-1.62 12.52,-1.49 12.57,-1.34 12.61,-1.19 12.61,-1.03 12.60,-0.88 12.55,-0.73 12.50,-0.58 12.40,-0.46 12.30,-0.34 12.17,-0.26 12.04,-0.17 11.88,-0.13 11.73,-0.10 11.73,-0.10 11.73,-0.10 9.06,0.13 6.39,0.36 5.09,0.42 3.79,0.49 2.66,0.60 1.53,0.71 0.88,0.84 0.24,0.97 0.12,0.98 0.00,1.00 -0.11,0.99 -0.23,0.97 -0.35,0.93 -0.46,0.89 -0.56,0.82 -0.66,0.75 -0.74,0.66 -0.82,0.57 -0.88,0.46 -0.93,0.35 -0.96,0.24 -0.99,0.12 -0.99,0.00 -0.99,-0.11 -0.96,-0.23 -0.94,-0.35 -0.88,-0.46 -0.82,-0.56 -0.74,-0.65 -0.66,-0.74 -0.56,-0.81 -0.46,-0.88 -0.35,-0.93 -0.24,-0.97 -0.24,-0.97 L -0.24,-0.97 Z"/></g><g transform="translate(79.44442749023438 78.33332824707031) rotate(0 -1.111114501953125 8.055557250976562)" stroke="none"><path fill="#1e1e1e" d="M 0.87,0.29 Q 0.87,0.29 0.53,1.24 0.19,2.19 0.05,3.15 -0.09,4.11 -0.33,5.52 -0.57,6.93 -0.84,8.79 -1.11,10.66 -1.20,12.91 -1.30,15.16 -1.34,15.29 -1.37,15.43 -1.44,15.54 -1.51,15.66 -1.62,15.75 -1.72,15.84 -1.85,15.89 -1.98,15.93 -2.12,15.94 -2.25,15.95 -2.38,15.91 -2.52,15.87 -2.63,15.79 -2.74,15.71 -2.82,15.60 -2.90,15.49 -2.95,15.36 -2.99,15.23 -2.99,15.09 -2.98,14.96 -2.94,14.83 -2.89,14.70 -2.81,14.59 -2.72,14.48 -2.61,14.41 -2.50,14.33 -2.36,14.30 -2.23,14.26 -2.09,14.27 -1.96,14.28 -1.83,14.33 -1.70,14.38 -1.60,14.47 -1.50,14.56 -1.43,14.68 -1.36,14.80 -1.33,14.93 -1.30,15.07 -1.32,15.21 -1.34,15.34 -1.40,15.47 -1.45,15.59 -1.55,15.69 -1.65,15.79 -1.77,15.85 -1.89,15.91 -2.03,15.93 -2.16,15.95 -2.30,15.93 -2.43,15.90 -2.55,15.84 -2.67,15.77 -2.76,15.67 -2.86,15.57 -2.91,15.45 -2.97,15.32 -2.98,15.18 -3.00,15.05 -3.00,15.05 -3.00,15.05 -2.79,12.75 -2.58,10.46 -2.35,8.57 -2.11,6.69 -1.92,5.29 -1.72,3.90 -1.60,2.77 -1.47,1.64 -1.17,0.67 -0.87,-0.29 -0.83,-0.39 -0.78,-0.49 -0.71,-0.58 -0.64,-0.66 -0.55,-0.73 -0.46,-0.80 -0.36,-0.84 -0.25,-0.88 -0.14,-0.90 -0.03,-0.92 0.07,-0.91 0.18,-0.90 0.29,-0.87 0.39,-0.83 0.49,-0.77 0.58,-0.71 0.66,-0.63 0.74,-0.55 0.79,-0.46 0.85,-0.36 0.88,-0.25 0.91,-0.14 0.91,-0.03 0.92,0.07 0.90,0.18 0.87,0.29 0.87,0.29 L 0.87,0.29 Z"/></g><g transform="translate(100.5555419921875 58.888885498046875) rotate(0 6.666656494140625 8.611106872558594)" stroke="none"><path fill="#1e1e1e" d="M 0.87,-0.14 Q 0.87,-0.14 1.02,0.81 1.17,1.76 1.53,2.55 1.88,3.34 2.62,4.46 3.36,5.58 4.28,6.52 5.20,7.45 6.42,8.85 7.64,10.25 8.94,11.63 10.23,13.01 11.75,14.49 13.27,15.97 13.35,16.08 13.42,16.19 13.46,16.32 13.50,16.45 13.49,16.58 13.49,16.71 13.44,16.84 13.39,16.96 13.31,17.07 13.22,17.17 13.11,17.24 12.99,17.31 12.86,17.34 12.73,17.37 12.60,17.36 12.47,17.35 12.34,17.29 12.22,17.24 12.12,17.15 12.02,17.06 11.96,16.94 11.89,16.82 11.87,16.69 11.85,16.56 11.87,16.43 11.89,16.29 11.95,16.17 12.01,16.05 12.11,15.96 12.20,15.87 12.32,15.81 12.44,15.75 12.58,15.74 12.71,15.72 12.84,15.75 12.97,15.77 13.09,15.84 13.20,15.91 13.29,16.01 13.38,16.11 13.43,16.23 13.48,16.36 13.49,16.49 13.50,16.63 13.47,16.76 13.43,16.88 13.36,17.00 13.28,17.11 13.18,17.19 13.07,17.27 12.95,17.32 12.82,17.36 12.69,17.36 12.55,17.37 12.43,17.32 12.30,17.28 12.19,17.20 12.08,17.12 12.08,17.12 12.08,17.12 10.64,15.56 9.20,14.00 7.87,12.61 6.54,11.23 5.33,9.88 4.12,8.53 3.07,7.51 2.03,6.49 1.17,5.26 0.30,4.03 -0.11,3.05 -0.53,2.06 -0.70,1.10 -0.87,0.14 -0.88,0.03 -0.88,-0.06 -0.86,-0.17 -0.84,-0.27 -0.80,-0.37 -0.75,-0.47 -0.68,-0.55 -0.62,-0.64 -0.53,-0.70 -0.44,-0.77 -0.35,-0.81 -0.25,-0.85 -0.14,-0.87 -0.03,-0.89 0.06,-0.88 0.17,-0.87 0.27,-0.84 0.37,-0.80 0.46,-0.74 0.56,-0.69 0.63,-0.61 0.71,-0.53 0.76,-0.44 0.81,-0.35 0.84,-0.24 0.87,-0.14 0.87,-0.14 L 0.87,-0.14 Z"/></g><g transform="translate(128.33331298828125 50) rotate(0 -14.72222900390625 36.94445037841797)" stroke="none"><path fill="#1e1e1e" d="M 0.73,0.36 Q 0.73,0.36 0.45,1.02 0.17,1.68 -0.08,2.40 -0.34,3.12 -0.83,4.23 -1.31,5.33 -2.01,6.92 -2.70,8.51 -3.48,10.45 -4.26,12.39 -5.40,15.44 -6.53,18.49 -7.98,22.35 -9.42,26.21 -11.16,30.72 -12.90,35.24 -14.43,39.39 -15.97,43.54 -17.75,48.18 -19.52,52.82 -20.91,56.70 -22.30,60.58 -23.70,63.85 -25.10,67.12 -26.62,70.03 -28.14,72.95 -28.21,73.04 -28.28,73.13 -28.38,73.19 -28.47,73.26 -28.58,73.29 -28.69,73.32 -28.80,73.31 -28.92,73.30 -29.03,73.26 -29.13,73.22 -29.22,73.15 -29.31,73.07 -29.36,72.97 -29.42,72.88 -29.45,72.76 -29.47,72.65 -29.46,72.54 -29.45,72.43 -29.40,72.32 -29.35,72.22 -29.27,72.14 -29.20,72.05 -29.09,72.00 -28.99,71.95 -28.88,71.93 -28.77,71.91 -28.65,71.93 -28.54,71.95 -28.44,72.00 -28.34,72.05 -28.26,72.14 -28.18,72.22 -28.13,72.32 -28.09,72.43 -28.07,72.54 -28.06,72.65 -28.09,72.76 -28.11,72.88 -28.17,72.97 -28.23,73.07 -28.32,73.15 -28.40,73.22 -28.51,73.26 -28.62,73.30 -28.73,73.31 -28.84,73.32 -28.95,73.29 -29.06,73.26 -29.16,73.19 -29.25,73.13 -29.32,73.04 -29.39,72.95 -29.43,72.84 -29.46,72.73 -29.46,72.61 -29.46,72.50 -29.43,72.39 -29.39,72.28 -29.39,72.28 -29.39,72.28 -27.86,69.44 -26.33,66.59 -24.95,63.36 -23.57,60.13 -22.18,56.23 -20.79,52.34 -19.03,47.70 -17.26,43.06 -15.73,38.90 -14.21,34.74 -12.49,30.22 -10.77,25.71 -9.34,21.85 -7.92,17.99 -6.81,14.91 -5.69,11.83 -4.95,9.85 -4.20,7.88 -3.56,6.28 -2.92,4.69 -2.51,3.56 -2.11,2.43 -1.78,1.65 -1.45,0.87 -1.09,0.25 -0.73,-0.36 -0.68,-0.45 -0.62,-0.53 -0.55,-0.60 -0.48,-0.67 -0.39,-0.71 -0.30,-0.76 -0.21,-0.79 -0.11,-0.81 -0.01,-0.82 0.08,-0.82 0.18,-0.80 0.27,-0.77 0.36,-0.73 0.45,-0.68 0.53,-0.62 0.60,-0.56 0.66,-0.47 0.72,-0.39 0.76,-0.30 0.79,-0.21 0.81,-0.11 0.82,-0.01 0.81,0.08 0.80,0.18 0.77,0.27 0.73,0.36 0.73,0.36 L 0.73,0.36 Z"/></g><g transform="translate(69.44442749023438 100.55555725097656) rotate(0 9.166656494140625 -1.111114501953125)" stroke="none"><path fill="#1e1e1e" d="M -0.29,-0.89 Q -0.29,-0.89 0.66,-1.19 1.63,-1.49 3.71,-1.77 5.80,-2.05 8.91,-2.31 12.02,-2.58 14.58,-2.79 17.14,-3.00 17.28,-2.99 17.42,-2.98 17.55,-2.92 17.68,-2.86 17.78,-2.77 17.88,-2.67 17.95,-2.55 18.02,-2.43 18.04,-2.29 18.07,-2.15 18.04,-2.01 18.02,-1.88 17.96,-1.75 17.90,-1.63 17.80,-1.53 17.70,-1.43 17.57,-1.37 17.44,-1.31 17.31,-1.30 17.17,-1.28 17.03,-1.31 16.89,-1.34 16.77,-1.41 16.65,-1.48 16.56,-1.58 16.47,-1.69 16.42,-1.82 16.36,-1.94 16.35,-2.08 16.34,-2.22 16.38,-2.36 16.42,-2.49 16.49,-2.61 16.57,-2.73 16.68,-2.81 16.79,-2.90 16.92,-2.94 17.05,-2.99 17.19,-2.99 17.33,-2.99 17.46,-2.95 17.60,-2.91 17.71,-2.83 17.82,-2.74 17.90,-2.63 17.98,-2.51 18.02,-2.38 18.06,-2.25 18.05,-2.11 18.05,-1.97 18.00,-1.84 17.95,-1.71 17.86,-1.60 17.77,-1.49 17.65,-1.42 17.53,-1.34 17.40,-1.31 17.26,-1.28 17.26,-1.28 17.26,-1.28 14.71,-1.15 12.17,-1.01 9.11,-0.71 6.04,-0.40 4.12,-0.09 2.19,0.21 1.24,0.55 0.29,0.89 0.18,0.92 0.07,0.94 -0.03,0.94 -0.15,0.93 -0.26,0.90 -0.37,0.87 -0.47,0.81 -0.56,0.75 -0.65,0.67 -0.73,0.59 -0.79,0.50 -0.85,0.40 -0.89,0.29 -0.92,0.18 -0.93,0.07 -0.94,-0.03 -0.92,-0.15 -0.91,-0.26 -0.86,-0.36 -0.82,-0.47 -0.75,-0.56 -0.68,-0.65 -0.59,-0.72 -0.50,-0.80 -0.40,-0.85 -0.29,-0.89 -0.29,-0.89 L -0.29,-0.89 Z"/></g><g transform="translate(163.88885498046875 69.44444274902344) rotate(0 6.6666717529296875 1.9444427490234375)" stroke="none"><path fill="#1e1e1e" d="M 0.84,-0.42 Q 0.84,-0.42 1.27,0.53 1.69,1.48 2.38,1.91 3.07,2.34 4.40,2.55 5.72,2.75 7.11,2.87 8.49,2.98 10.90,2.74 13.30,2.50 13.44,2.52 13.58,2.53 13.70,2.59 13.83,2.65 13.93,2.74 14.03,2.84 14.10,2.96 14.16,3.08 14.18,3.22 14.21,3.36 14.19,3.49 14.16,3.63 14.10,3.75 14.04,3.88 13.93,3.97 13.83,4.07 13.71,4.13 13.58,4.18 13.45,4.20 13.31,4.22 13.17,4.19 13.04,4.16 12.92,4.09 12.80,4.01 12.71,3.91 12.62,3.80 12.57,3.68 12.51,3.55 12.51,3.41 12.50,3.27 12.53,3.14 12.57,3.00 12.65,2.89 12.73,2.77 12.84,2.69 12.95,2.60 13.08,2.56 13.21,2.51 13.35,2.51 13.49,2.51 13.62,2.56 13.75,2.60 13.86,2.68 13.97,2.77 14.05,2.88 14.13,3.00 14.16,3.13 14.20,3.26 14.20,3.40 14.19,3.54 14.14,3.67 14.09,3.80 14.00,3.90 13.91,4.01 13.79,4.08 13.67,4.15 13.54,4.18 13.40,4.22 13.40,4.22 13.40,4.22 10.90,4.35 8.39,4.48 6.93,4.39 5.46,4.30 3.83,4.03 2.20,3.75 1.21,3.05 0.21,2.34 -0.31,1.38 -0.84,0.42 -0.88,0.31 -0.92,0.20 -0.93,0.09 -0.94,-0.01 -0.93,-0.13 -0.91,-0.24 -0.87,-0.35 -0.82,-0.45 -0.76,-0.54 -0.69,-0.64 -0.60,-0.71 -0.52,-0.79 -0.42,-0.84 -0.31,-0.89 -0.20,-0.91 -0.09,-0.94 0.01,-0.94 0.13,-0.93 0.24,-0.90 0.35,-0.87 0.45,-0.82 0.55,-0.76 0.63,-0.69 0.72,-0.61 0.78,-0.51 0.84,-0.42 0.84,-0.42 L 0.84,-0.42 Z"/></g><g transform="translate(163.88885498046875 62.22221374511719) rotate(0 8.333343505859375 -2.2222213745117188)" stroke="none"><path fill="#1e1e1e" d="M -0.45,-0.80 Q -0.45,-0.80 0.68,-1.41 1.82,-2.01 3.51,-2.46 5.21,-2.91 7.69,-3.24 10.18,-3.57 12.98,-4.26 15.78,-4.94 15.91,-4.95 16.04,-4.96 16.17,-4.92 16.30,-4.89 16.41,-4.82 16.52,-4.74 16.60,-4.64 16.68,-4.54 16.72,-4.41 16.77,-4.29 16.77,-4.16 16.77,-4.03 16.73,-3.90 16.69,-3.78 16.61,-3.67 16.53,-3.56 16.42,-3.49 16.32,-3.41 16.19,-3.38 16.06,-3.34 15.93,-3.35 15.80,-3.35 15.68,-3.40 15.55,-3.45 15.45,-3.53 15.35,-3.61 15.28,-3.73 15.21,-3.84 15.18,-3.96 15.15,-4.09 15.17,-4.22 15.18,-4.35 15.23,-4.47 15.29,-4.59 15.38,-4.69 15.47,-4.79 15.58,-4.85 15.70,-4.91 15.83,-4.94 15.96,-4.96 16.09,-4.94 16.22,-4.92 16.33,-4.86 16.45,-4.80 16.54,-4.71 16.63,-4.61 16.69,-4.49 16.75,-4.37 16.76,-4.24 16.78,-4.11 16.75,-3.98 16.72,-3.86 16.66,-3.74 16.59,-3.63 16.49,-3.54 16.39,-3.46 16.27,-3.41 16.15,-3.36 16.15,-3.36 16.15,-3.36 13.27,-2.71 10.39,-2.07 8.01,-1.72 5.63,-1.36 4.14,-0.95 2.65,-0.53 1.55,0.13 0.45,0.80 0.35,0.84 0.25,0.88 0.14,0.90 0.03,0.92 -0.07,0.91 -0.18,0.90 -0.29,0.86 -0.39,0.83 -0.49,0.77 -0.58,0.71 -0.66,0.63 -0.74,0.55 -0.79,0.45 -0.85,0.35 -0.88,0.25 -0.91,0.14 -0.91,0.03 -0.91,-0.07 -0.89,-0.18 -0.87,-0.29 -0.82,-0.39 -0.77,-0.49 -0.70,-0.58 -0.63,-0.66 -0.54,-0.73 -0.45,-0.80 -0.45,-0.80 L -0.45,-0.80 Z"/></g><g transform="translate(246.111083984375 53.888885498046875) rotate(0 -21.666671752929688 16.111106872558594)" stroke="none"><path fill="#1e1e1e" d="M -1.09,0.27 Q -1.09,0.27 -1.27,-0.36 -1.44,-0.99 -1.67,-1.53 -1.89,-2.07 -1.84,-3.19 -1.78,-4.32 -1.71,-5.31 -1.63,-6.30 -1.57,-7.36 -1.51,-8.42 -1.52,-9.19 -1.54,-9.97 -2.56,-10.16 -3.58,-10.35 -4.46,-10.39 -5.35,-10.43 -6.28,-10.35 -7.21,-10.26 -8.77,-10.09 -10.34,-9.92 -12.45,-9.70 -14.56,-9.49 -16.38,-9.10 -18.19,-8.71 -20.11,-8.39 -22.04,-8.06 -23.65,-7.78 -25.26,-7.49 -27.21,-7.05 -29.16,-6.62 -30.91,-5.97 -32.65,-5.33 -34.38,-4.72 -36.11,-4.12 -37.29,-3.57 -38.47,-3.01 -39.48,-2.60 -40.49,-2.19 -41.09,-1.95 -41.68,-1.71 -41.98,-1.35 -42.29,-0.99 -42.39,-0.95 -42.49,-0.90 -42.61,-0.88 -42.72,-0.87 -42.83,-0.88 -42.95,-0.89 -43.05,-0.92 -43.16,-0.96 -43.26,-1.02 -43.35,-1.08 -43.43,-1.16 -43.51,-1.24 -43.57,-1.34 -43.62,-1.44 -43.65,-1.55 -43.68,-1.66 -43.69,-1.77 -43.69,-1.89 -43.67,-2.00 -43.65,-2.11 -43.60,-2.21 -43.55,-2.31 -43.48,-2.40 -43.40,-2.49 -43.31,-2.56 -43.22,-2.63 -42.61,-2.67 -41.99,-2.70 -41.30,-2.54 -40.61,-2.38 -39.65,-1.93 -38.70,-1.49 -37.51,-0.78 -36.31,-0.07 -34.84,0.87 -33.38,1.83 -31.66,2.87 -29.94,3.91 -28.29,4.66 -26.64,5.41 -24.64,6.39 -22.64,7.37 -20.51,8.42 -18.38,9.48 -16.55,10.24 -14.71,11.00 -12.80,11.81 -10.89,12.62 -9.16,13.11 -7.43,13.60 -6.34,13.99 -5.25,14.37 -4.27,14.86 -3.29,15.36 -2.77,15.73 -2.26,16.10 -1.97,16.69 -1.68,17.27 -1.90,18.00 -2.13,18.73 -3.01,19.39 -3.90,20.05 -5.41,20.74 -6.93,21.43 -9.00,22.34 -11.07,23.26 -13.10,23.96 -15.12,24.67 -17.25,25.44 -19.38,26.20 -21.56,27.00 -23.74,27.80 -25.61,28.61 -27.48,29.42 -29.55,30.40 -31.62,31.38 -33.25,32.56 -34.89,33.74 -36.04,34.87 -37.20,35.99 -38.21,36.82 -39.21,37.64 -39.06,38.22 -38.90,38.79 -37.96,39.00 -37.02,39.21 -36.09,39.49 -35.16,39.77 -33.69,39.91 -32.23,40.05 -30.63,40.12 -29.03,40.20 -27.07,40.24 -25.11,40.29 -23.16,40.31 -21.21,40.34 -19.11,40.36 -17.00,40.37 -15.11,40.55 -13.23,40.72 -11.47,40.96 -9.71,41.19 -8.46,41.46 -7.22,41.72 -6.33,41.97 -5.45,42.22 -4.54,42.30 -3.62,42.38 -3.53,42.49 -3.44,42.60 -3.32,42.63 -3.20,42.66 -3.09,42.72 -2.98,42.78 -2.89,42.86 -2.79,42.94 -2.72,43.04 -2.65,43.15 -2.61,43.26 -2.57,43.38 -2.55,43.50 -2.54,43.62 -2.55,43.75 -2.57,43.87 -2.62,43.99 -2.66,44.10 -2.73,44.20 -2.80,44.30 -2.90,44.39 -2.99,44.47 -3.10,44.52 -3.21,44.58 -3.33,44.61 -3.45,44.64 -3.57,44.64 -3.70,44.64 -3.95,43.73 -4.20,42.82 -3.88,41.38 -3.56,39.95 -3.44,38.86 -3.31,37.77 -3.07,36.44 -2.83,35.11 -2.50,32.70 -2.18,30.29 -2.12,30.14 -2.06,30.00 -1.95,29.88 -1.85,29.76 -1.71,29.68 -1.58,29.60 -1.42,29.57 -1.27,29.54 -1.11,29.56 -0.95,29.58 -0.81,29.64 -0.67,29.71 -0.55,29.82 -0.44,29.93 -0.37,30.07 -0.30,30.22 -0.27,30.37 -0.25,30.53 -0.28,30.68 -0.31,30.84 -0.38,30.98 -0.46,31.12 -0.58,31.22 -0.69,31.33 -0.84,31.39 -0.98,31.46 -1.14,31.47 -1.30,31.49 -1.45,31.45 -1.60,31.42 -1.74,31.33 -1.87,31.25 -1.97,31.13 -2.07,31.00 -2.13,30.86 -2.19,30.71 -2.19,30.55 -2.20,30.39 -2.15,30.24 -2.11,30.09 -2.02,29.96 -1.93,29.83 -1.80,29.74 -1.67,29.64 -1.52,29.60 -1.37,29.55 -1.21,29.55 -1.06,29.55 -0.91,29.60 -0.76,29.66 -0.63,29.75 -0.51,29.85 -0.42,29.98 -0.34,30.12 -0.30,30.27 -0.26,30.42 -0.27,30.58 -0.28,30.74 -0.28,30.74 -0.28,30.74 -0.68,33.06 -1.07,35.38 -1.22,36.64 -1.37,37.91 -1.41,39.16 -1.44,40.41 -1.61,41.26 -1.78,42.10 -2.22,43.09 -2.66,44.09 -3.05,43.34 -3.44,42.60 -3.32,42.63 -3.20,42.66 -3.09,42.72 -2.98,42.78 -2.89,42.86 -2.79,42.94 -2.72,43.04 -2.65,43.15 -2.61,43.26 -2.57,43.38 -2.55,43.50 -2.54,43.62 -2.55,43.75 -2.57,43.87 -2.62,43.99 -2.66,44.10 -2.73,44.20 -2.80,44.30 -2.90,44.39 -2.99,44.47 -3.10,44.52 -3.21,44.58 -3.33,44.61 -3.45,44.64 -3.57,44.64 -3.70,44.64 -4.27,44.32 -4.83,44.00 -5.37,43.83 -5.91,43.65 -6.70,43.35 -7.50,43.06 -8.69,42.81 -9.89,42.57 -11.62,42.35 -13.35,42.13 -15.18,41.98 -17.00,41.83 -19.11,41.84 -21.22,41.85 -23.17,41.86 -25.13,41.87 -27.10,41.87 -29.08,41.88 -30.71,41.87 -32.35,41.85 -33.99,41.78 -35.63,41.71 -37.18,41.27 -38.74,40.83 -39.36,40.60 -39.99,40.37 -40.57,39.39 -41.15,38.41 -40.62,37.52 -40.08,36.62 -39.11,35.82 -38.14,35.02 -36.92,33.83 -35.69,32.64 -33.95,31.39 -32.22,30.13 -30.13,29.13 -28.05,28.13 -26.15,27.29 -24.25,26.45 -22.07,25.63 -19.89,24.80 -17.77,24.00 -15.65,23.20 -13.71,22.47 -11.76,21.75 -9.73,20.79 -7.71,19.83 -6.36,19.13 -5.00,18.43 -4.40,18.07 -3.80,17.70 -3.85,17.13 -3.91,16.55 -4.80,16.09 -5.69,15.63 -6.74,15.27 -7.80,14.90 -9.61,14.39 -11.42,13.88 -13.32,13.08 -15.23,12.28 -17.12,11.52 -19.01,10.75 -21.14,9.71 -23.26,8.67 -25.26,7.73 -27.25,6.79 -29.00,6.03 -30.74,5.26 -32.50,4.25 -34.26,3.24 -35.72,2.37 -37.17,1.50 -38.34,0.91 -39.50,0.32 -40.35,-0.01 -41.19,-0.36 -41.74,-0.67 -42.29,-0.99 -42.39,-0.95 -42.49,-0.90 -42.61,-0.88 -42.72,-0.87 -42.83,-0.88 -42.95,-0.89 -43.05,-0.92 -43.16,-0.96 -43.26,-1.02 -43.35,-1.08 -43.43,-1.16 -43.51,-1.24 -43.57,-1.34 -43.62,-1.44 -43.65,-1.55 -43.68,-1.66 -43.69,-1.77 -43.69,-1.89 -43.67,-2.00 -43.65,-2.11 -43.60,-2.21 -43.55,-2.31 -43.48,-2.40 -43.40,-2.49 -43.31,-2.56 -43.22,-2.63 -43.29,-2.58 -43.35,-2.53 -42.75,-2.88 -42.14,-3.24 -41.57,-3.34 -41.00,-3.44 -40.03,-3.84 -39.05,-4.24 -37.81,-4.83 -36.57,-5.43 -34.86,-6.04 -33.15,-6.65 -31.31,-7.34 -29.48,-8.03 -27.51,-8.49 -25.54,-8.96 -23.93,-9.28 -22.32,-9.60 -20.44,-9.96 -18.56,-10.32 -16.67,-10.79 -14.78,-11.26 -12.70,-11.56 -10.62,-11.86 -9.09,-12.14 -7.55,-12.42 -6.45,-12.65 -5.34,-12.88 -4.45,-12.92 -3.55,-12.95 -2.60,-12.89 -1.66,-12.82 -0.86,-12.46 -0.05,-12.09 0.20,-11.58 0.45,-11.07 0.43,-10.51 0.41,-9.95 0.39,-9.18 0.36,-8.40 0.40,-7.32 0.44,-6.24 0.46,-5.20 0.49,-4.15 0.42,-3.50 0.35,-2.84 0.58,-2.20 0.81,-1.56 0.95,-0.91 1.09,-0.27 1.11,-0.13 1.13,-0.00 1.11,0.13 1.09,0.26 1.05,0.39 1.00,0.52 0.92,0.63 0.84,0.74 0.74,0.83 0.64,0.92 0.52,0.99 0.40,1.05 0.27,1.08 0.13,1.12 0.00,1.12 -0.13,1.12 -0.26,1.09 -0.39,1.05 -0.51,0.99 -0.63,0.93 -0.74,0.84 -0.84,0.75 -0.92,0.64 -0.99,0.52 -1.04,0.40 -1.09,0.27 -1.09,0.27 L -1.09,0.27 Z"/></g><g transform="translate(205.55551147460938 111.66665649414062) rotate(0 1.66668701171875 7.5)" stroke="none"><path fill="#1e1e1e" d="M 0.52,0.78 Q 0.52,0.78 0.06,1.13 -0.39,1.49 -0.54,2.44 -0.69,3.39 -0.57,4.92 -0.46,6.46 -0.11,7.87 0.22,9.28 0.82,10.64 1.41,12.00 3.11,12.27 4.81,12.55 4.95,12.55 5.09,12.55 5.23,12.59 5.37,12.64 5.48,12.73 5.60,12.81 5.68,12.93 5.76,13.05 5.80,13.19 5.83,13.33 5.83,13.48 5.82,13.62 5.76,13.75 5.71,13.89 5.62,14.00 5.52,14.11 5.40,14.18 5.28,14.25 5.13,14.28 4.99,14.31 4.85,14.30 4.71,14.28 4.58,14.22 4.45,14.16 4.34,14.06 4.24,13.96 4.17,13.83 4.10,13.71 4.08,13.56 4.06,13.42 4.08,13.28 4.11,13.14 4.17,13.01 4.24,12.88 4.35,12.79 4.45,12.69 4.58,12.63 4.71,12.57 4.86,12.55 5.00,12.54 5.14,12.57 5.28,12.60 5.40,12.67 5.53,12.75 5.62,12.86 5.71,12.97 5.77,13.10 5.82,13.24 5.83,13.38 5.83,13.52 5.79,13.66 5.76,13.80 5.67,13.92 5.59,14.04 5.48,14.13 5.36,14.21 5.23,14.26 5.09,14.30 5.09,14.30 5.09,14.30 2.55,13.49 0.01,12.67 -0.68,11.19 -1.37,9.70 -1.80,8.17 -2.24,6.64 -2.44,5.02 -2.65,3.40 -2.59,2.04 -2.52,0.69 -2.02,0.24 -1.52,-0.21 -1.02,-0.49 -0.52,-0.78 -0.42,-0.83 -0.32,-0.88 -0.20,-0.91 -0.09,-0.93 0.01,-0.93 0.12,-0.93 0.23,-0.90 0.34,-0.87 0.44,-0.82 0.54,-0.76 0.63,-0.69 0.71,-0.61 0.77,-0.51 0.84,-0.42 0.88,-0.31 0.91,-0.21 0.93,-0.09 0.94,0.01 0.92,0.12 0.91,0.24 0.87,0.34 0.82,0.45 0.76,0.54 0.69,0.63 0.60,0.71 0.52,0.78 0.52,0.78 L 0.52,0.78 Z"/></g><g transform="translate(206.6666259765625 101.66665649414062) rotate(0 -0.5555572509765625 -0.27777862548828125)" stroke="none"><path fill="#1e1e1e" d="M 1.06,-0.33 Q 1.06,-0.33 1.07,-0.06 1.09,0.20 0.98,0.44 0.87,0.68 0.66,0.84 0.45,1.01 0.19,1.06 -0.06,1.10 -0.32,1.02 -0.57,0.95 -0.76,0.76 -0.95,0.57 -1.02,0.32 -1.10,0.06 -1.06,-0.19 -1.01,-0.45 -0.84,-0.66 -0.68,-0.87 -0.44,-0.98 -0.19,-1.09 0.06,-1.07 0.33,-1.05 0.55,-0.92 0.78,-0.78 0.92,-0.55 L 1.06,-0.33 Z"/></g><g transform="translate(219.99996948242188 123.88890075683594) rotate(0 4.1666717529296875 -1.1111221313476562)" stroke="none"><path fill="#1e1e1e" d="M -0.80,-0.80 Q -0.80,-0.80 -0.33,-1.30 0.14,-1.79 0.96,-2.25 1.78,-2.71 2.51,-2.93 3.25,-3.15 5.50,-3.30 7.75,-3.45 7.95,-3.43 8.15,-3.40 8.33,-3.31 8.51,-3.22 8.66,-3.08 8.80,-2.94 8.89,-2.76 8.99,-2.57 9.01,-2.37 9.04,-2.17 9.01,-1.97 8.97,-1.77 8.87,-1.60 8.77,-1.42 8.62,-1.28 8.47,-1.15 8.28,-1.06 8.10,-0.98 7.89,-0.97 7.69,-0.95 7.49,-1.00 7.30,-1.04 7.13,-1.15 6.95,-1.26 6.83,-1.42 6.70,-1.58 6.63,-1.77 6.56,-1.96 6.55,-2.16 6.54,-2.36 6.60,-2.56 6.66,-2.75 6.78,-2.92 6.90,-3.08 7.06,-3.20 7.22,-3.32 7.42,-3.38 7.61,-3.44 7.81,-3.44 8.02,-3.43 8.21,-3.36 8.40,-3.30 8.56,-3.17 8.72,-3.04 8.83,-2.87 8.94,-2.70 8.99,-2.50 9.04,-2.31 9.02,-2.11 9.01,-1.90 8.93,-1.72 8.85,-1.53 8.71,-1.38 8.58,-1.23 8.40,-1.12 8.23,-1.02 8.03,-0.98 7.83,-0.95 7.83,-0.95 7.83,-0.95 5.34,-0.80 2.86,-0.65 2.31,-0.38 1.77,-0.12 1.29,0.34 0.80,0.80 0.70,0.89 0.59,0.97 0.46,1.03 0.34,1.09 0.20,1.11 0.06,1.14 -0.06,1.13 -0.20,1.12 -0.33,1.08 -0.46,1.04 -0.58,0.97 -0.70,0.90 -0.80,0.80 -0.90,0.70 -0.97,0.58 -1.04,0.46 -1.08,0.33 -1.12,0.20 -1.13,0.06 -1.14,-0.06 -1.11,-0.20 -1.09,-0.34 -1.03,-0.46 -0.97,-0.59 -0.89,-0.70 -0.80,-0.80 -0.80,-0.80 L -0.80,-0.80 Z"/></g><g transform="translate(221.6666259765625 116.66665649414062) rotate(0 1.9444580078125 0.2777862548828125)" stroke="none"><path fill="#1e1e1e" d="M 0.13,-1.05 Q 0.13,-1.05 0.67,-1.00 1.22,-0.94 1.34,-0.91 1.47,-0.88 1.59,-0.82 1.70,-0.76 1.80,-0.67 1.90,-0.58 1.98,-0.47 2.05,-0.36 2.10,-0.24 2.14,-0.12 2.16,0.00 2.17,0.13 2.16,0.27 2.14,0.40 2.09,0.52 2.05,0.64 1.97,0.75 1.90,0.86 1.80,0.94 1.70,1.03 1.58,1.09 1.46,1.15 1.34,1.18 1.21,1.22 1.08,1.21 0.95,1.21 0.78,1.16 0.61,1.11 0.46,1.01 0.32,0.91 0.21,0.77 0.11,0.63 0.05,0.46 0.00,0.29 0.00,0.11 0.01,-0.05 0.07,-0.22 0.12,-0.39 0.23,-0.52 0.34,-0.66 0.49,-0.76 0.64,-0.86 0.81,-0.90 0.98,-0.95 1.16,-0.93 1.33,-0.92 1.50,-0.85 1.66,-0.79 1.79,-0.67 1.92,-0.55 2.01,-0.40 2.10,-0.25 2.14,-0.07 2.17,0.09 2.15,0.26 2.13,0.44 2.05,0.60 1.97,0.76 1.85,0.88 1.73,1.01 1.57,1.09 1.41,1.17 1.24,1.20 1.06,1.22 0.89,1.19 0.72,1.16 0.56,1.07 0.41,0.99 0.29,0.86 0.17,0.73 0.10,0.57 0.02,0.41 0.01,0.23 -0.00,0.05 0.03,-0.11 0.07,-0.28 0.17,-0.43 0.26,-0.58 0.40,-0.69 0.53,-0.80 0.70,-0.87 0.86,-0.93 1.04,-0.94 1.22,-0.94 1.22,-0.94 1.22,-0.94 1.34,-0.91 1.47,-0.88 1.59,-0.82 1.70,-0.76 1.80,-0.67 1.90,-0.58 1.98,-0.47 2.05,-0.36 2.10,-0.24 2.14,-0.12 2.16,0.00 2.17,0.13 2.16,0.27 2.14,0.40 2.09,0.52 2.05,0.64 1.97,0.75 1.90,0.86 1.80,0.94 1.70,1.03 1.58,1.09 1.46,1.15 1.34,1.18 1.21,1.22 1.08,1.21 0.95,1.21 0.40,1.13 -0.13,1.05 -0.25,1.02 -0.38,0.99 -0.49,0.93 -0.60,0.87 -0.70,0.78 -0.80,0.70 -0.87,0.59 -0.94,0.49 -0.99,0.37 -1.03,0.25 -1.05,0.12 -1.06,-0.00 -1.04,-0.13 -1.03,-0.25 -0.98,-0.37 -0.94,-0.49 -0.86,-0.60 -0.79,-0.70 -0.69,-0.79 -0.60,-0.87 -0.48,-0.93 -0.37,-0.99 -0.24,-1.02 -0.12,-1.05 0.00,-1.05 0.13,-1.05 0.13,-1.05 L 0.13,-1.05 Z"/></g><g transform="translate(234.99996948242188 117.77777099609375) rotate(0 2.5 -0.5555572509765625)" stroke="none"><path fill="#1e1e1e" d="M 0,-1.00 Q 0,-1.00 0.94,-0.97 1.89,-0.95 1.73,-1.05 1.56,-1.15 1.67,-1.13 1.77,-1.12 1.87,-1.08 1.97,-1.05 2.06,-0.99 2.15,-0.93 2.22,-0.85 2.29,-0.77 2.34,-0.67 2.39,-0.58 2.41,-0.48 2.44,-0.37 2.44,-0.27 2.44,-0.16 2.41,-0.06 2.39,0.04 2.34,0.13 2.29,0.22 2.22,0.30 2.15,0.38 2.06,0.44 1.97,0.50 1.87,0.54 1.77,0.58 1.67,0.59 1.56,0.60 1.50,0.60 1.43,0.59 1.29,0.55 1.16,0.50 1.04,0.42 0.93,0.33 0.85,0.22 0.77,0.10 0.73,-0.03 0.69,-0.16 0.70,-0.31 0.70,-0.45 0.75,-0.58 0.81,-0.71 0.90,-0.82 0.99,-0.93 1.11,-1.01 1.23,-1.08 1.37,-1.11 1.51,-1.14 1.65,-1.13 1.79,-1.12 1.92,-1.06 2.05,-1.00 2.15,-0.90 2.26,-0.81 2.33,-0.68 2.39,-0.55 2.42,-0.41 2.44,-0.27 2.42,-0.13 2.40,0.00 2.33,0.12 2.27,0.25 2.17,0.35 2.06,0.45 1.93,0.51 1.81,0.57 1.66,0.59 1.52,0.60 1.38,0.57 1.24,0.54 1.12,0.47 1.00,0.40 0.91,0.29 0.81,0.18 0.76,0.05 0.71,-0.07 0.70,-0.21 0.69,-0.35 0.72,-0.49 0.76,-0.63 0.84,-0.75 0.92,-0.87 1.03,-0.95 1.14,-1.04 1.28,-1.09 1.41,-1.13 1.49,-1.14 1.56,-1.15 1.67,-1.13 1.77,-1.12 1.87,-1.08 1.97,-1.05 2.06,-0.99 2.15,-0.93 2.22,-0.85 2.29,-0.77 2.34,-0.67 2.39,-0.58 2.41,-0.48 2.44,-0.37 2.44,-0.27 2.44,-0.16 2.41,-0.06 2.39,0.04 2.34,0.13 2.29,0.22 2.22,0.30 2.15,0.38 2.06,0.44 1.97,0.50 1.87,0.54 1.77,0.58 1.67,0.59 1.56,0.60 1.75,0.78 1.93,0.95 0.96,0.97 0,1.00 -0.11,0.98 -0.23,0.97 -0.35,0.92 -0.46,0.88 -0.56,0.81 -0.66,0.74 -0.74,0.65 -0.82,0.56 -0.87,0.46 -0.93,0.35 -0.96,0.23 -0.99,0.12 -0.99,-0.00 -0.99,-0.12 -0.96,-0.23 -0.93,-0.35 -0.87,-0.46 -0.82,-0.56 -0.74,-0.65 -0.66,-0.74 -0.56,-0.81 -0.46,-0.88 -0.35,-0.92 -0.23,-0.97 -0.11,-0.98 0.00,-1.00 0.00,-1.00 L 0,-1.00 Z"/></g><g transform="translate(248.33331298828125 123.88890075683594) rotate(0 10.833328247070312 -2.5)" stroke="none"><path fill="#1e1e1e" d="M -1.02,0 Q -1.02,0 -1.00,-0.96 -0.98,-1.92 -0.83,-2.75 -0.68,-3.59 -0.42,-4.54 -0.17,-5.49 0.09,-6.39 0.36,-7.29 0.62,-8.04 0.88,-8.78 1.77,-9.52 2.66,-10.26 3.71,-9.05 4.75,-7.85 5.09,-6.06 5.43,-4.28 5.69,-2.61 5.96,-0.94 6.07,0.10 6.18,1.14 6.45,1.58 6.72,2.01 6.72,2.12 6.72,2.24 6.69,2.35 6.67,2.46 6.62,2.56 6.56,2.66 6.49,2.74 6.41,2.83 6.32,2.89 6.23,2.96 6.12,3.00 6.02,3.04 5.91,3.05 5.79,3.07 5.68,3.05 5.57,3.04 5.46,3.00 5.36,2.96 5.26,2.90 5.17,2.84 5.09,2.75 5.02,2.67 4.97,2.57 4.91,2.47 4.89,2.36 4.86,2.25 5.44,1.54 6.02,0.83 6.21,0.23 6.40,-0.36 6.89,-1.60 7.37,-2.84 7.94,-3.90 8.50,-4.96 8.96,-5.68 9.41,-6.39 10.45,-6.50 11.48,-6.62 12.13,-5.59 12.79,-4.57 13.19,-2.78 13.58,-0.98 13.73,0.40 13.87,1.80 13.96,2.69 14.04,3.59 14.29,3.98 14.53,4.36 14.53,4.47 14.52,4.59 14.49,4.69 14.46,4.80 14.40,4.90 14.35,5.00 14.27,5.08 14.19,5.16 14.09,5.22 14.00,5.28 13.89,5.31 13.79,5.35 13.68,5.35 13.56,5.36 13.45,5.34 13.34,5.33 13.24,5.28 13.14,5.24 13.05,5.17 12.96,5.10 12.89,5.02 12.82,4.93 12.77,4.83 12.72,4.73 12.70,4.62 12.68,4.51 13.00,2.83 13.31,1.16 13.75,-0.36 14.19,-1.89 14.72,-3.05 15.24,-4.21 15.80,-5.08 16.36,-5.94 17.12,-6.45 17.87,-6.95 18.79,-6.73 19.71,-6.52 20.25,-5.29 20.80,-4.06 21.26,-2.47 21.73,-0.88 22.09,0.78 22.45,2.45 22.45,2.60 22.45,2.75 22.41,2.89 22.36,3.03 22.27,3.15 22.18,3.28 22.06,3.36 21.94,3.45 21.79,3.49 21.65,3.53 21.50,3.53 21.35,3.52 21.21,3.47 21.07,3.42 20.95,3.32 20.83,3.22 20.75,3.10 20.67,2.97 20.64,2.82 20.60,2.68 20.62,2.53 20.63,2.38 20.69,2.24 20.75,2.10 20.86,1.99 20.96,1.88 21.09,1.81 21.22,1.74 21.37,1.71 21.52,1.68 21.66,1.70 21.81,1.73 21.95,1.79 22.08,1.86 22.19,1.97 22.29,2.08 22.36,2.21 22.42,2.35 22.44,2.50 22.46,2.65 22.43,2.79 22.40,2.94 22.33,3.07 22.25,3.20 22.14,3.30 22.02,3.40 21.89,3.46 21.75,3.52 21.60,3.53 21.45,3.54 21.30,3.50 21.16,3.46 21.03,3.38 20.90,3.30 20.81,3.18 20.72,3.06 20.67,2.92 20.62,2.78 20.62,2.78 20.62,2.78 20.39,1.19 20.15,-0.38 19.65,-1.91 19.14,-3.43 18.38,-4.23 17.62,-5.04 17.13,-4.32 16.63,-3.60 16.18,-2.53 15.73,-1.47 15.36,-0.02 14.99,1.42 14.76,2.89 14.53,4.36 14.53,4.47 14.52,4.59 14.49,4.69 14.46,4.80 14.40,4.90 14.35,5.00 14.27,5.08 14.19,5.16 14.09,5.22 14.00,5.28 13.89,5.31 13.79,5.35 13.68,5.35 13.56,5.36 13.45,5.34 13.34,5.33 13.24,5.28 13.14,5.24 13.05,5.17 12.96,5.10 12.89,5.02 12.82,4.93 12.77,4.83 12.72,4.73 12.70,4.62 12.68,4.51 12.54,4.13 12.41,3.76 12.36,2.87 12.30,1.99 12.12,0.68 11.94,-0.61 11.58,-2.15 11.21,-3.69 10.89,-4.43 10.57,-5.17 10.27,-4.70 9.96,-4.22 9.50,-3.23 9.03,-2.24 8.59,-0.92 8.16,0.40 7.44,1.21 6.72,2.01 6.72,2.12 6.72,2.24 6.69,2.35 6.67,2.46 6.62,2.56 6.56,2.66 6.49,2.74 6.41,2.83 6.32,2.89 6.23,2.96 6.12,3.00 6.02,3.04 5.91,3.05 5.79,3.07 5.68,3.05 5.57,3.04 5.46,3.00 5.36,2.96 5.26,2.90 5.17,2.84 5.09,2.75 5.02,2.67 4.97,2.57 4.91,2.47 4.89,2.36 4.86,2.25 4.70,1.81 4.53,1.38 4.38,0.38 4.23,-0.62 3.89,-2.25 3.54,-3.89 3.19,-5.39 2.84,-6.89 2.80,-7.47 2.76,-8.05 2.48,-7.40 2.20,-6.76 1.96,-5.90 1.72,-5.03 1.52,-4.09 1.32,-3.15 1.15,-2.53 0.98,-1.91 1.00,-0.95 1.02,0 1.01,0.12 0.99,0.24 0.95,0.36 0.91,0.47 0.84,0.58 0.77,0.68 0.67,0.76 0.58,0.84 0.47,0.90 0.36,0.96 0.24,0.99 0.12,1.02 -0.00,1.02 -0.12,1.02 -0.24,0.99 -0.36,0.96 -0.47,0.90 -0.58,0.84 -0.67,0.76 -0.77,0.68 -0.84,0.58 -0.91,0.47 -0.95,0.36 -0.99,0.24 -1.01,0.12 -1.02,-0.00 -1.02,-0.00 L -1.02,0 Z"/></g><g transform="translate(225.5555419921875 10.555549621582031) rotate(0 -0.2777862548828125 12.500007629394531)" stroke="none"><path fill="#1e1e1e" d="M 0.90,0.09 Q 0.90,0.09 0.70,1.68 0.51,3.27 0.42,5.84 0.33,8.40 0.28,11.10 0.24,13.79 0.37,16.51 0.50,19.23 0.64,21.81 0.77,24.39 0.75,24.52 0.74,24.65 0.68,24.77 0.62,24.89 0.53,24.98 0.44,25.08 0.32,25.14 0.20,25.19 0.07,25.21 -0.05,25.23 -0.18,25.21 -0.31,25.18 -0.43,25.12 -0.54,25.06 -0.63,24.96 -0.72,24.86 -0.77,24.74 -0.83,24.62 -0.84,24.49 -0.85,24.36 -0.82,24.23 -0.79,24.10 -0.72,23.99 -0.65,23.88 -0.54,23.79 -0.44,23.71 -0.32,23.66 -0.19,23.62 -0.06,23.61 0.06,23.61 0.19,23.64 0.31,23.68 0.42,23.76 0.53,23.83 0.61,23.94 0.68,24.05 0.72,24.17 0.76,24.30 0.76,24.43 0.76,24.56 0.71,24.69 0.67,24.81 0.59,24.92 0.51,25.02 0.39,25.09 0.28,25.16 0.16,25.20 0.03,25.23 -0.09,25.22 -0.23,25.21 -0.35,25.16 -0.47,25.11 -0.57,25.02 -0.67,24.93 -0.73,24.82 -0.80,24.70 -0.82,24.57 -0.85,24.44 -0.85,24.44 -0.85,24.44 -0.89,21.88 -0.94,19.31 -1.10,16.54 -1.26,13.77 -1.25,11.07 -1.24,8.36 -1.20,5.73 -1.15,3.11 -1.02,1.51 -0.90,-0.09 -0.87,-0.19 -0.85,-0.30 -0.80,-0.40 -0.75,-0.49 -0.68,-0.58 -0.61,-0.66 -0.52,-0.73 -0.43,-0.79 -0.33,-0.83 -0.23,-0.87 -0.12,-0.89 -0.01,-0.90 0.08,-0.89 0.19,-0.88 0.30,-0.84 0.40,-0.81 0.49,-0.75 0.58,-0.69 0.66,-0.61 0.73,-0.53 0.78,-0.43 0.84,-0.33 0.87,-0.23 0.89,-0.12 0.90,-0.01 0.90,0.09 0.90,0.09 L 0.90,0.09 Z"/></g><g transform="translate(232.77774047851562 20.555557250976562) rotate(0 -1.666656494140625 9.444442749023438)" stroke="none"><path fill="#1e1e1e" d="M 0.95,0.27 Q 0.95,0.27 0.59,1.37 0.23,2.48 -0.42,4.25 -1.07,6.01 -1.84,7.88 -2.61,9.75 -3.27,11.19 -3.92,12.63 -4.54,13.74 -5.15,14.84 -5.69,15.73 -6.22,16.62 -6.93,16.50 -7.64,16.38 -7.74,15.21 -7.84,14.03 -7.81,13.35 -7.79,12.66 -7.60,12.03 -7.42,11.40 -6.35,10.75 -5.29,10.09 -4.39,11.15 -3.49,12.22 -3.15,13.28 -2.81,14.34 -2.42,15.35 -2.03,16.36 -1.49,16.81 -0.94,17.26 -0.38,17.41 0.16,17.56 1.58,16.77 3.00,15.98 3.15,15.91 3.31,15.84 3.48,15.82 3.65,15.80 3.82,15.84 3.98,15.88 4.13,15.97 4.28,16.06 4.39,16.19 4.50,16.32 4.56,16.48 4.62,16.64 4.63,16.81 4.63,16.99 4.59,17.15 4.54,17.31 4.44,17.46 4.34,17.60 4.21,17.70 4.07,17.80 3.91,17.85 3.74,17.91 3.57,17.91 3.40,17.90 3.24,17.85 3.08,17.79 2.94,17.69 2.81,17.58 2.71,17.44 2.62,17.30 2.57,17.13 2.53,16.96 2.54,16.79 2.55,16.62 2.62,16.46 2.68,16.31 2.79,16.18 2.91,16.05 3.05,15.96 3.20,15.87 3.37,15.84 3.54,15.80 3.71,15.82 3.88,15.84 4.03,15.92 4.19,15.99 4.31,16.11 4.43,16.23 4.51,16.38 4.59,16.53 4.62,16.70 4.64,16.87 4.61,17.04 4.58,17.21 4.50,17.36 4.42,17.51 4.29,17.63 4.17,17.74 4.17,17.74 4.17,17.74 1.98,18.60 -0.21,19.45 -1.19,19.09 -2.17,18.73 -2.97,17.98 -3.78,17.22 -4.32,16.16 -4.86,15.09 -5.20,14.27 -5.55,13.45 -6.03,12.76 -6.51,12.08 -6.11,12.46 -5.70,12.84 -5.78,13.64 -5.86,14.44 -6.43,14.97 -7.00,15.50 -6.72,14.83 -6.43,14.15 -5.87,13.09 -5.30,12.02 -4.69,10.60 -4.08,9.17 -3.37,7.32 -2.65,5.46 -2.08,3.72 -1.50,1.98 -1.23,0.85 -0.95,-0.27 -0.91,-0.38 -0.86,-0.49 -0.79,-0.59 -0.72,-0.68 -0.62,-0.76 -0.53,-0.83 -0.42,-0.89 -0.31,-0.94 -0.20,-0.96 -0.08,-0.99 0.03,-0.98 0.15,-0.98 0.27,-0.95 0.38,-0.91 0.49,-0.85 0.59,-0.79 0.68,-0.71 0.76,-0.63 0.83,-0.53 0.89,-0.43 0.93,-0.31 0.97,-0.20 0.98,-0.08 0.99,0.03 0.97,0.15 0.95,0.27 0.95,0.27 L 0.95,0.27 Z"/></g><g transform="translate(291.111083984375 62.22221374511719) rotate(0 4.1666412353515625 23.611114501953125)" stroke="none"><path fill="#1e1e1e" d="M 0.74,0.24 Q 0.74,0.24 0.42,1.20 0.09,2.15 -0.03,3.28 -0.17,4.40 -0.07,5.97 0.01,7.54 0.20,10.31 0.40,13.07 0.79,16.47 1.19,19.87 1.36,24.06 1.53,28.25 1.44,32.44 1.35,36.63 0.99,39.55 0.63,42.47 0.31,44.51 0.00,46.56 -0.42,47.41 -0.85,48.27 -0.88,48.35 -0.90,48.44 -0.94,48.51 -0.98,48.58 -1.04,48.65 -1.10,48.71 -1.17,48.75 -1.24,48.80 -1.32,48.83 -1.40,48.85 -1.49,48.86 -1.57,48.87 -1.66,48.86 -1.74,48.84 -1.82,48.81 -1.90,48.78 -1.96,48.73 -2.03,48.68 -2.09,48.61 -2.14,48.55 -2.18,48.47 -2.22,48.40 -2.23,48.31 -2.25,48.23 -2.25,48.14 -2.25,48.06 -2.93,46.13 -3.61,44.20 -3.42,40.38 -3.22,36.57 -2.81,32.89 -2.40,29.22 -1.58,24.92 -0.76,20.62 0.06,17.04 0.89,13.45 2.05,10.14 3.21,6.83 4.20,4.77 5.18,2.71 5.92,1.20 6.65,-0.30 7.60,-0.93 8.54,-1.57 9.07,-1.20 9.59,-0.83 9.66,0.93 9.72,2.70 9.21,5.19 8.70,7.69 8.15,10.00 7.61,12.31 7.05,14.26 6.49,16.22 6.13,17.04 5.76,17.87 5.72,17.96 5.69,18.05 5.63,18.12 5.58,18.20 5.51,18.25 5.43,18.31 5.35,18.35 5.27,18.40 5.18,18.41 5.09,18.43 4.99,18.43 4.90,18.43 4.81,18.40 4.72,18.38 4.64,18.33 4.56,18.29 4.49,18.22 4.42,18.16 4.37,18.08 4.32,18.00 4.29,17.92 4.26,17.83 4.25,17.73 4.25,17.64 4.26,17.55 4.27,17.46 4.56,16.33 4.84,15.21 5.73,14.30 6.61,13.39 7.41,12.93 8.21,12.47 9.31,12.66 10.41,12.86 11.08,13.91 11.75,14.96 11.97,16.77 12.19,18.58 11.77,20.53 11.34,22.48 10.65,23.97 9.95,25.47 8.76,26.50 7.56,27.54 6.14,27.83 4.71,28.12 2.87,27.63 1.03,27.13 0.91,27.07 0.79,27.01 0.70,26.91 0.61,26.82 0.55,26.70 0.49,26.58 0.48,26.44 0.46,26.31 0.49,26.18 0.51,26.05 0.58,25.93 0.65,25.82 0.75,25.73 0.85,25.64 0.98,25.59 1.10,25.54 1.23,25.53 1.37,25.52 1.50,25.56 1.63,25.59 1.74,25.66 1.85,25.74 1.93,25.84 2.01,25.95 2.06,26.08 2.10,26.20 2.10,26.34 2.11,26.47 2.06,26.60 2.02,26.73 1.94,26.83 1.86,26.94 1.75,27.02 1.64,27.09 1.51,27.13 1.39,27.17 1.25,27.16 1.12,27.16 0.99,27.11 0.87,27.06 0.76,26.97 0.66,26.89 0.59,26.77 0.52,26.66 0.49,26.53 0.46,26.40 0.47,26.27 0.49,26.13 0.54,26.01 0.60,25.89 0.69,25.79 0.78,25.69 0.90,25.63 1.01,25.56 1.15,25.54 1.28,25.52 1.41,25.54 1.54,25.56 1.54,25.56 1.54,25.56 3.04,26.15 4.54,26.74 5.63,26.57 6.71,26.40 7.66,25.59 8.62,24.79 9.21,23.47 9.81,22.14 10.17,20.45 10.53,18.76 10.34,17.27 10.15,15.78 9.45,14.94 8.75,14.09 8.25,14.31 7.76,14.53 7.10,15.23 6.43,15.92 6.10,16.90 5.76,17.87 5.72,17.96 5.69,18.05 5.63,18.12 5.58,18.20 5.51,18.25 5.43,18.31 5.35,18.35 5.27,18.40 5.18,18.41 5.09,18.43 4.99,18.43 4.90,18.43 4.81,18.40 4.72,18.38 4.64,18.33 4.56,18.29 4.49,18.22 4.42,18.16 4.37,18.08 4.32,18.00 4.29,17.92 4.26,17.83 4.25,17.73 4.25,17.64 4.26,17.55 4.27,17.46 4.69,16.64 5.10,15.82 5.63,13.90 6.15,11.98 6.66,9.68 7.16,7.38 7.61,5.03 8.06,2.69 7.95,1.49 7.84,0.29 7.12,1.79 6.39,3.29 5.44,5.28 4.49,7.28 3.36,10.52 2.22,13.76 1.41,17.32 0.59,20.88 -0.19,25.13 -0.99,29.37 -1.38,33.01 -1.77,36.65 -1.95,40.28 -2.13,43.92 -1.87,45.38 -1.62,46.84 -1.24,47.56 -0.85,48.27 -0.88,48.35 -0.90,48.44 -0.94,48.51 -0.98,48.58 -1.04,48.65 -1.10,48.71 -1.17,48.75 -1.24,48.80 -1.32,48.83 -1.40,48.85 -1.49,48.86 -1.57,48.87 -1.66,48.86 -1.74,48.84 -1.82,48.81 -1.90,48.78 -1.96,48.73 -2.03,48.68 -2.09,48.61 -2.14,48.55 -2.18,48.47 -2.22,48.40 -2.23,48.31 -2.25,48.23 -2.25,48.14 -2.25,48.06 -1.77,47.20 -1.30,46.33 -0.99,44.32 -0.69,42.31 -0.34,39.45 0.00,36.60 0.09,32.45 0.17,28.31 0.00,24.17 -0.17,20.03 -0.58,16.60 -1.00,13.17 -1.21,10.40 -1.42,7.63 -1.53,5.94 -1.64,4.24 -1.51,2.96 -1.37,1.67 -1.06,0.71 -0.74,-0.24 -0.70,-0.33 -0.66,-0.41 -0.60,-0.49 -0.54,-0.56 -0.46,-0.62 -0.39,-0.68 -0.30,-0.71 -0.21,-0.75 -0.12,-0.76 -0.03,-0.78 0.06,-0.77 0.15,-0.76 0.24,-0.73 0.33,-0.71 0.41,-0.65 0.49,-0.60 0.56,-0.54 0.62,-0.47 0.67,-0.39 0.72,-0.30 0.74,-0.21 0.77,-0.12 0.77,-0.03 0.78,0.06 0.76,0.15 0.74,0.24 0.74,0.24 L 0.74,0.24 Z"/></g><g transform="translate(314.44439697265625 44.44444274902344) rotate(0 -0.27777099609375 11.666664123535156)" stroke="none"><path fill="#1e1e1e" d="M 0.86,0.12 Q 0.86,0.12 0.67,1.23 0.48,2.35 0.23,3.63 -0.01,4.91 -0.28,6.26 -0.56,7.60 -0.83,9.27 -1.11,10.95 -1.39,12.93 -1.67,14.92 -1.63,16.51 -1.59,18.09 -1.28,19.35 -0.96,20.60 -0.61,21.13 -0.25,21.65 1.16,20.73 2.58,19.81 2.64,19.89 2.69,19.97 2.72,20.07 2.76,20.16 2.77,20.26 2.78,20.36 2.76,20.45 2.75,20.55 2.71,20.64 2.68,20.73 2.62,20.81 2.56,20.89 2.49,20.96 2.41,21.02 2.33,21.07 2.24,21.11 2.14,21.13 2.04,21.15 1.95,21.15 1.85,21.15 1.75,21.13 1.66,21.10 1.57,21.05 1.48,21.01 1.41,20.94 1.34,20.87 1.42,20.27 1.49,19.67 1.61,19.61 1.73,19.56 1.86,19.54 1.99,19.52 2.12,19.55 2.25,19.58 2.37,19.64 2.48,19.71 2.57,19.81 2.66,19.91 2.71,20.03 2.76,20.16 2.77,20.29 2.77,20.42 2.74,20.55 2.71,20.68 2.63,20.79 2.56,20.90 2.46,20.98 2.35,21.06 2.23,21.10 2.10,21.15 1.97,21.15 1.84,21.15 1.71,21.11 1.59,21.07 1.48,20.99 1.37,20.91 1.30,20.80 1.22,20.69 1.19,20.57 1.15,20.44 1.15,20.31 1.16,20.18 1.21,20.05 1.26,19.93 1.34,19.83 1.42,19.72 1.54,19.66 1.65,19.59 1.78,19.56 1.91,19.53 2.04,19.54 2.17,19.55 2.29,19.60 2.41,19.66 2.51,19.75 2.61,19.84 2.67,19.95 2.73,20.07 2.76,20.20 2.78,20.33 2.76,20.46 2.74,20.59 2.68,20.71 2.62,20.83 2.60,20.32 2.58,19.81 2.64,19.89 2.69,19.97 2.72,20.07 2.76,20.16 2.77,20.26 2.78,20.36 2.76,20.45 2.75,20.55 2.71,20.64 2.68,20.73 2.62,20.81 2.56,20.89 2.49,20.96 2.41,21.02 2.33,21.07 2.24,21.11 2.14,21.13 2.05,21.15 1.95,21.15 1.85,21.15 1.75,21.13 1.66,21.10 1.57,21.05 1.48,21.01 1.41,20.94 1.34,20.87 0.43,21.86 -0.47,22.85 -1.36,21.92 -2.25,20.99 -2.61,19.56 -2.97,18.14 -3.02,16.43 -3.06,14.73 -2.80,12.73 -2.53,10.72 -2.27,9.02 -2.01,7.32 -1.77,5.98 -1.53,4.64 -1.33,3.38 -1.12,2.12 -0.99,0.99 -0.86,-0.12 -0.83,-0.22 -0.81,-0.32 -0.75,-0.41 -0.70,-0.51 -0.63,-0.58 -0.56,-0.66 -0.47,-0.72 -0.38,-0.78 -0.29,-0.81 -0.19,-0.85 -0.08,-0.86 0.01,-0.87 0.12,-0.85 0.22,-0.84 0.32,-0.80 0.42,-0.76 0.50,-0.70 0.59,-0.64 0.66,-0.56 0.72,-0.48 0.77,-0.38 0.82,-0.29 0.84,-0.18 0.86,-0.08 0.86,0.01 0.86,0.12 0.86,0.12 L 0.86,0.12 Z"/></g><g transform="translate(314.44439697265625 45) rotate(0 -0.27777099609375 2.7777786254882812)" stroke="none"><path fill="#1e1e1e" d="M 1.02,0.10 Q 1.02,0.10 0.94,0.78 0.86,1.45 0.83,1.57 0.80,1.69 0.75,1.80 0.70,1.90 0.62,2.00 0.54,2.09 0.44,2.16 0.34,2.23 0.23,2.28 0.12,2.32 0.00,2.34 -0.11,2.35 -0.23,2.34 -0.35,2.33 -0.46,2.29 -0.58,2.25 -0.68,2.18 -0.78,2.12 -0.86,2.03 -0.94,1.94 -1.00,1.83 -1.06,1.73 -1.09,1.61 -1.12,1.49 -1.13,1.37 -1.13,1.25 -1.09,1.10 -1.04,0.94 -0.95,0.80 -0.86,0.67 -0.74,0.57 -0.61,0.47 -0.45,0.42 -0.30,0.36 -0.14,0.36 0.01,0.36 0.17,0.41 0.32,0.46 0.45,0.56 0.58,0.66 0.67,0.79 0.77,0.92 0.81,1.08 0.85,1.24 0.85,1.40 0.84,1.56 0.78,1.71 0.72,1.86 0.62,1.99 0.51,2.11 0.38,2.20 0.24,2.28 0.08,2.32 -0.07,2.35 -0.23,2.34 -0.39,2.32 -0.54,2.25 -0.69,2.19 -0.80,2.08 -0.92,1.97 -1.00,1.82 -1.08,1.68 -1.11,1.52 -1.13,1.36 -1.11,1.20 -1.08,1.04 -1.01,0.90 -0.93,0.75 -0.82,0.64 -0.70,0.53 -0.55,0.46 -0.41,0.39 -0.25,0.37 -0.08,0.35 0.06,0.38 0.22,0.42 0.36,0.50 0.50,0.58 0.61,0.71 0.71,0.83 0.77,0.98 0.84,1.13 0.85,1.29 0.86,1.45 0.86,1.45 0.86,1.45 0.83,1.57 0.80,1.69 0.75,1.80 0.70,1.90 0.62,2.00 0.54,2.09 0.44,2.16 0.34,2.23 0.23,2.28 0.12,2.32 0.00,2.34 -0.11,2.35 -0.23,2.34 -0.35,2.33 -0.46,2.29 -0.58,2.25 -0.68,2.18 -0.78,2.12 -0.86,2.03 -0.94,1.94 -1.00,1.83 -1.06,1.73 -1.09,1.61 -1.12,1.49 -1.13,1.37 -1.13,1.25 -1.08,0.57 -1.02,-0.10 -1.00,-0.22 -0.97,-0.34 -0.91,-0.45 -0.86,-0.56 -0.78,-0.66 -0.70,-0.75 -0.60,-0.83 -0.49,-0.90 -0.38,-0.95 -0.26,-0.99 -0.14,-1.01 -0.02,-1.03 0.10,-1.02 0.22,-1.00 0.34,-0.96 0.46,-0.92 0.56,-0.85 0.66,-0.78 0.75,-0.69 0.83,-0.60 0.89,-0.49 0.95,-0.38 0.99,-0.26 1.02,-0.14 1.02,-0.02 1.02,0.10 1.02,0.10 L 1.02,0.10 Z"/></g><g transform="translate(336.6666259765625 72.77777099609375) rotate(0 -6.38885498046875 8.055557250976562)" stroke="none"><path fill="#1e1e1e" d="M -0.89,-0.14 Q -0.89,-0.14 -0.72,-1.10 -0.55,-2.06 -0.51,-2.73 -0.48,-3.41 -0.75,-4.01 -1.03,-4.60 -1.40,-5.11 -1.76,-5.63 -3.18,-5.87 -4.59,-6.11 -5.54,-5.89 -6.49,-5.67 -7.32,-5.15 -8.16,-4.64 -9.12,-3.53 -10.09,-2.41 -10.63,-0.75 -11.18,0.91 -11.27,2.53 -11.36,4.15 -10.79,6.21 -10.21,8.26 -9.04,10.22 -7.86,12.18 -6.43,13.80 -5.00,15.42 -3.92,16.42 -2.84,17.43 -2.07,17.99 -1.29,18.55 -0.68,19.39 -0.06,20.22 -1.31,20.79 -2.55,21.36 -3.85,21.51 -5.15,21.66 -6.33,21.87 -7.51,22.09 -8.82,22.33 -10.13,22.57 -11.37,23.22 -12.61,23.88 -12.74,23.93 -12.86,23.98 -13.00,23.98 -13.13,23.99 -13.26,23.95 -13.39,23.91 -13.51,23.84 -13.62,23.76 -13.70,23.65 -13.78,23.54 -13.82,23.41 -13.87,23.29 -13.86,23.15 -13.86,23.01 -13.82,22.89 -13.78,22.76 -13.69,22.65 -13.61,22.54 -13.50,22.47 -13.38,22.39 -13.25,22.36 -13.12,22.32 -12.99,22.33 -12.85,22.34 -12.73,22.39 -12.60,22.44 -12.50,22.53 -12.39,22.62 -12.32,22.73 -12.26,22.85 -12.23,22.98 -12.20,23.12 -12.21,23.25 -12.23,23.39 -12.29,23.51 -12.35,23.63 -12.44,23.73 -12.53,23.83 -12.65,23.89 -12.77,23.95 -12.91,23.97 -13.04,23.99 -13.18,23.97 -13.31,23.95 -13.43,23.88 -13.55,23.82 -13.64,23.72 -13.73,23.62 -13.79,23.50 -13.85,23.37 -13.86,23.24 -13.87,23.10 -13.84,22.97 -13.81,22.84 -13.74,22.72 -13.67,22.61 -13.57,22.52 -13.46,22.43 -13.46,22.43 -13.46,22.43 -11.95,21.76 -10.43,21.09 -9.13,20.81 -7.82,20.52 -6.61,20.25 -5.39,19.98 -3.77,19.83 -2.14,19.67 -2.95,19.04 -3.75,18.41 -4.88,17.37 -6.02,16.32 -7.53,14.60 -9.04,12.89 -10.30,10.77 -11.55,8.65 -12.17,6.37 -12.79,4.09 -12.69,2.27 -12.58,0.45 -11.93,-1.46 -11.27,-3.38 -10.15,-4.69 -9.03,-5.99 -7.98,-6.67 -6.92,-7.34 -5.67,-7.66 -4.42,-7.98 -3.19,-7.88 -1.95,-7.77 -1.10,-7.32 -0.25,-6.87 0.26,-6.08 0.78,-5.28 1.08,-4.30 1.39,-3.32 1.29,-2.54 1.19,-1.77 1.04,-0.81 0.89,0.14 0.86,0.25 0.83,0.35 0.77,0.45 0.72,0.54 0.64,0.62 0.57,0.70 0.47,0.76 0.38,0.82 0.28,0.85 0.17,0.89 0.06,0.89 -0.04,0.90 -0.14,0.88 -0.25,0.87 -0.35,0.82 -0.45,0.78 -0.54,0.71 -0.63,0.65 -0.70,0.56 -0.76,0.48 -0.81,0.38 -0.86,0.28 -0.88,0.17 -0.90,0.06 -0.90,-0.04 -0.89,-0.14 -0.89,-0.14 L -0.89,-0.14 Z"/></g><g transform="translate(343.88885498046875 96.11109924316406) rotate(0 0 8.888900756835938)" stroke="none"><path fill="#1e1e1e" d="M 0.81,0.40 Q 0.81,0.40 0.52,1.06 0.23,1.71 -0.03,2.31 -0.30,2.91 -0.59,3.86 -0.89,4.80 -1.20,6.17 -1.51,7.53 -1.65,9.19 -1.79,10.84 -1.55,12.27 -1.31,13.70 -0.85,14.67 -0.40,15.63 1.36,14.79 3.13,13.95 3.16,14.04 3.20,14.14 3.21,14.24 3.23,14.34 3.21,14.44 3.20,14.55 3.16,14.64 3.13,14.74 3.07,14.82 3.01,14.90 2.94,14.97 2.86,15.04 2.77,15.09 2.68,15.14 2.58,15.16 2.48,15.18 2.38,15.18 2.28,15.19 2.18,15.16 2.08,15.14 1.99,15.09 1.90,15.04 1.82,14.97 1.74,14.91 1.68,14.82 1.63,14.74 1.79,14.18 1.95,13.61 2.07,13.56 2.20,13.51 2.34,13.51 2.48,13.50 2.61,13.54 2.74,13.58 2.85,13.65 2.96,13.73 3.05,13.84 3.13,13.95 3.17,14.08 3.21,14.21 3.21,14.35 3.21,14.49 3.17,14.62 3.12,14.75 3.04,14.85 2.96,14.96 2.84,15.04 2.73,15.12 2.59,15.15 2.46,15.19 2.32,15.18 2.19,15.17 2.06,15.12 1.93,15.07 1.83,14.98 1.73,14.89 1.66,14.77 1.59,14.65 1.56,14.52 1.53,14.38 1.55,14.25 1.56,14.11 1.62,13.99 1.68,13.86 1.77,13.76 1.87,13.66 1.99,13.60 2.11,13.54 2.25,13.52 2.38,13.49 2.52,13.52 2.65,13.54 2.77,13.61 2.90,13.67 2.99,13.77 3.08,13.87 3.14,14.00 3.20,14.12 3.21,14.26 3.22,14.40 3.19,14.53 3.16,14.66 3.09,14.78 3.02,14.90 3.07,14.42 3.13,13.95 3.16,14.04 3.20,14.14 3.21,14.24 3.23,14.34 3.21,14.44 3.20,14.55 3.16,14.64 3.13,14.74 3.07,14.82 3.01,14.90 2.94,14.97 2.86,15.04 2.77,15.09 2.68,15.14 2.58,15.16 2.48,15.18 2.38,15.18 2.28,15.19 2.18,15.16 2.08,15.14 1.99,15.09 1.90,15.04 1.82,14.97 1.74,14.91 1.68,14.82 1.63,14.74 0.13,15.66 -1.35,16.58 -2.08,15.29 -2.81,13.99 -3.10,12.37 -3.40,10.74 -3.30,8.97 -3.20,7.20 -2.95,5.75 -2.70,4.31 -2.43,3.15 -2.15,1.99 -1.83,1.42 -1.51,0.84 -1.16,0.21 -0.81,-0.40 -0.75,-0.49 -0.69,-0.59 -0.61,-0.66 -0.53,-0.74 -0.43,-0.79 -0.34,-0.84 -0.23,-0.87 -0.12,-0.90 -0.01,-0.90 0.09,-0.90 0.19,-0.88 0.30,-0.85 0.40,-0.80 0.50,-0.76 0.58,-0.68 0.67,-0.61 0.73,-0.52 0.79,-0.43 0.84,-0.33 0.88,-0.23 0.89,-0.12 0.91,-0.01 0.90,0.09 0.88,0.20 0.85,0.30 0.81,0.40 0.81,0.40 L 0.81,0.40 Z"/></g><g transform="translate(346.111083984375 85) rotate(0 0.833343505859375 -0.833343505859375)" stroke="none"><path fill="#1e1e1e" d="M -1.18,0.29 Q -1.18,0.29 -1.35,-0.34 -1.52,-0.97 -1.54,-1.12 -1.55,-1.27 -1.54,-1.42 -1.52,-1.57 -1.47,-1.71 -1.41,-1.85 -1.33,-1.97 -1.24,-2.09 -1.13,-2.19 -1.02,-2.29 -0.89,-2.36 -0.76,-2.43 -0.61,-2.47 -0.47,-2.50 -0.32,-2.50 -0.17,-2.50 -0.02,-2.47 0.11,-2.43 0.24,-2.36 0.38,-2.29 0.49,-2.20 0.60,-2.10 0.69,-1.97 0.77,-1.85 0.82,-1.71 0.88,-1.57 0.72,-0.13 0.55,1.31 0.35,1.26 0.15,1.21 -0.01,1.10 -0.18,1.00 -0.32,0.84 -0.45,0.68 -0.52,0.49 -0.59,0.29 -0.60,0.09 -0.61,-0.11 -0.55,-0.30 -0.49,-0.50 -0.37,-0.67 -0.26,-0.84 -0.09,-0.96 0.06,-1.08 0.26,-1.14 0.46,-1.21 0.66,-1.20 0.87,-1.20 1.06,-1.13 1.26,-1.06 1.42,-0.94 1.58,-0.81 1.69,-0.64 1.80,-0.47 1.86,-0.27 1.91,-0.07 1.89,0.13 1.88,0.33 1.80,0.52 1.72,0.71 1.59,0.87 1.45,1.02 1.27,1.12 1.10,1.23 0.89,1.27 0.69,1.31 0.49,1.28 0.28,1.26 0.10,1.17 -0.08,1.08 -0.22,0.94 -0.37,0.79 -0.46,0.61 -0.56,0.43 -0.59,0.22 -0.62,0.02 -0.58,-0.17 -0.55,-0.37 -0.45,-0.55 -0.35,-0.73 -0.20,-0.87 -0.04,-1.01 0.13,-1.10 0.32,-1.18 0.53,-1.20 0.73,-1.22 0.73,-1.22 0.73,-1.22 -0.39,-1.10 -1.52,-0.97 -1.54,-1.12 -1.55,-1.27 -1.54,-1.42 -1.52,-1.57 -1.47,-1.71 -1.41,-1.84 -1.33,-1.97 -1.24,-2.09 -1.13,-2.19 -1.02,-2.29 -0.89,-2.36 -0.76,-2.43 -0.61,-2.47 -0.47,-2.50 -0.32,-2.50 -0.17,-2.50 -0.02,-2.47 0.11,-2.43 0.24,-2.36 0.38,-2.29 0.49,-2.20 0.60,-2.10 0.69,-1.97 0.77,-1.85 0.82,-1.71 0.88,-1.57 1.03,-0.93 1.18,-0.29 1.20,-0.15 1.22,-0.00 1.20,0.14 1.18,0.28 1.13,0.42 1.08,0.56 1.00,0.68 0.91,0.80 0.80,0.90 0.69,1.00 0.56,1.07 0.43,1.14 0.29,1.17 0.15,1.21 0.00,1.21 -0.14,1.21 -0.28,1.17 -0.42,1.14 -0.56,1.07 -0.69,1.00 -0.80,0.91 -0.91,0.81 -0.99,0.69 -1.07,0.57 -1.13,0.43 -1.18,0.29 -1.18,0.29 L -1.18,0.29 Z"/></g><g transform="translate(371.6666259765625 75.5555419921875) rotate(0 3.888885498046875 1.3888931274414062)" stroke="none"><path fill="#1e1e1e" d="M 0.64,-0.86 Q 0.64,-0.86 1.28,-0.38 1.92,0.08 2.48,0.40 3.03,0.72 5.10,0.89 7.16,1.05 7.35,1.08 7.54,1.10 7.71,1.19 7.88,1.27 8.02,1.41 8.15,1.54 8.24,1.71 8.32,1.88 8.35,2.07 8.38,2.26 8.34,2.45 8.30,2.64 8.21,2.81 8.12,2.97 7.97,3.10 7.83,3.23 7.65,3.31 7.48,3.38 7.29,3.40 7.10,3.41 6.91,3.37 6.72,3.32 6.56,3.22 6.40,3.12 6.28,2.97 6.16,2.82 6.09,2.64 6.03,2.46 6.02,2.27 6.02,2.08 6.07,1.89 6.13,1.71 6.24,1.55 6.35,1.40 6.51,1.28 6.66,1.17 6.85,1.12 7.03,1.06 7.22,1.07 7.41,1.07 7.59,1.14 7.77,1.20 7.92,1.32 8.07,1.44 8.18,1.60 8.28,1.76 8.33,1.95 8.37,2.14 8.36,2.33 8.34,2.52 8.27,2.69 8.19,2.87 8.06,3.01 7.93,3.16 7.77,3.25 7.60,3.35 7.41,3.38 7.22,3.42 7.22,3.42 7.22,3.42 4.55,3.03 1.88,2.64 1.25,2.23 0.62,1.82 -0.01,1.34 -0.64,0.86 -0.74,0.77 -0.83,0.68 -0.90,0.57 -0.97,0.46 -1.01,0.34 -1.05,0.21 -1.06,0.08 -1.08,-0.04 -1.05,-0.17 -1.03,-0.29 -0.98,-0.41 -0.93,-0.53 -0.85,-0.64 -0.78,-0.74 -0.67,-0.83 -0.57,-0.91 -0.46,-0.96 -0.34,-1.02 -0.21,-1.05 -0.08,-1.07 0.04,-1.07 0.17,-1.06 0.29,-1.03 0.42,-0.99 0.53,-0.92 0.64,-0.86 0.64,-0.86 L 0.64,-0.86 Z"/></g><g transform="translate(374.44439697265625 66.66665649414062) rotate(0 -0.27777099609375 8.055557250976562)" stroke="none"><path fill="#1e1e1e" d="M 0.93,0 Q 0.93,0 0.89,1.27 0.86,2.55 0.67,4.09 0.48,5.64 0.39,7.68 0.30,9.73 0.53,12.31 0.75,14.89 0.74,15.03 0.73,15.16 0.67,15.29 0.62,15.41 0.53,15.51 0.43,15.61 0.31,15.68 0.20,15.74 0.06,15.77 -0.06,15.79 -0.20,15.77 -0.33,15.75 -0.45,15.69 -0.58,15.63 -0.67,15.53 -0.77,15.43 -0.83,15.31 -0.88,15.19 -0.90,15.05 -0.92,14.92 -0.89,14.78 -0.86,14.65 -0.80,14.53 -0.73,14.42 -0.63,14.33 -0.52,14.24 -0.40,14.18 -0.27,14.13 -0.14,14.12 -0.00,14.11 0.12,14.15 0.25,14.18 0.37,14.25 0.48,14.33 0.57,14.44 0.65,14.54 0.70,14.67 0.74,14.80 0.74,14.94 0.75,15.07 0.70,15.20 0.66,15.33 0.58,15.44 0.50,15.55 0.39,15.63 0.28,15.71 0.15,15.75 0.02,15.79 -0.11,15.78 -0.24,15.78 -0.37,15.73 -0.50,15.68 -0.60,15.59 -0.71,15.51 -0.78,15.39 -0.85,15.27 -0.89,15.14 -0.92,15.01 -0.92,15.01 -0.92,15.01 -1.07,12.34 -1.21,9.68 -1.17,7.57 -1.12,5.47 -0.99,4.01 -0.86,2.55 -0.89,1.27 -0.93,0 -0.92,-0.11 -0.90,-0.22 -0.86,-0.32 -0.82,-0.43 -0.76,-0.52 -0.70,-0.62 -0.61,-0.69 -0.53,-0.77 -0.43,-0.82 -0.33,-0.87 -0.22,-0.90 -0.11,-0.92 0.00,-0.92 0.11,-0.92 0.22,-0.90 0.33,-0.87 0.43,-0.82 0.53,-0.77 0.61,-0.69 0.70,-0.62 0.76,-0.52 0.82,-0.43 0.86,-0.32 0.90,-0.22 0.92,-0.11 0.93,0.00 0.93,0.00 L 0.93,0 Z"/></g><g transform="translate(367.22216796875 92.77777099609375) rotate(0 10.277801513671875 1.111114501953125)" stroke="none"><path fill="#1e1e1e" d="M 0.37,-0.84 Q 0.37,-0.84 1.79,-0.17 3.21,0.49 4.98,0.76 6.76,1.02 9.10,1.00 11.43,0.97 13.82,0.49 16.22,0.01 18.17,-0.34 20.12,-0.70 20.26,-0.70 20.39,-0.70 20.52,-0.65 20.65,-0.61 20.76,-0.52 20.87,-0.44 20.95,-0.33 21.02,-0.21 21.06,-0.08 21.09,0.04 21.08,0.18 21.08,0.32 21.02,0.44 20.97,0.57 20.88,0.67 20.79,0.78 20.67,0.85 20.56,0.92 20.42,0.95 20.29,0.97 20.15,0.96 20.02,0.94 19.89,0.88 19.77,0.83 19.67,0.73 19.57,0.63 19.51,0.51 19.44,0.39 19.42,0.26 19.40,0.12 19.43,-0.00 19.45,-0.14 19.51,-0.26 19.58,-0.38 19.68,-0.47 19.78,-0.57 19.90,-0.62 20.03,-0.68 20.17,-0.69 20.30,-0.71 20.44,-0.68 20.57,-0.65 20.69,-0.57 20.80,-0.50 20.89,-0.40 20.98,-0.29 21.03,-0.16 21.08,-0.04 21.08,0.09 21.09,0.23 21.05,0.36 21.02,0.49 20.94,0.60 20.86,0.72 20.75,0.80 20.64,0.88 20.51,0.92 20.38,0.97 20.38,0.97 20.38,0.97 18.44,1.21 16.51,1.45 13.99,1.97 11.46,2.49 9.00,2.55 6.54,2.61 4.53,2.33 2.53,2.05 1.08,1.45 -0.37,0.84 -0.47,0.78 -0.56,0.73 -0.64,0.65 -0.72,0.57 -0.78,0.47 -0.84,0.38 -0.87,0.27 -0.90,0.17 -0.91,0.05 -0.92,-0.05 -0.90,-0.16 -0.88,-0.27 -0.83,-0.37 -0.79,-0.47 -0.72,-0.56 -0.65,-0.65 -0.56,-0.71 -0.48,-0.78 -0.38,-0.83 -0.27,-0.88 -0.16,-0.90 -0.06,-0.92 0.05,-0.91 0.16,-0.91 0.26,-0.87 0.37,-0.84 0.37,-0.84 L 0.37,-0.84 Z"/></g><g transform="translate(409.44439697265625 72.77777099609375) rotate(0 5.83331298828125 21.111106872558594)" stroke="none"><path fill="#1e1e1e" d="M 0.77,0.12 Q 0.77,0.12 0.62,1.08 0.46,2.04 0.54,3.31 0.62,4.59 0.80,6.44 0.98,8.28 1.22,10.99 1.45,13.71 1.55,16.96 1.65,20.20 1.85,23.16 2.04,26.12 2.29,29.13 2.53,32.14 2.47,34.26 2.41,36.38 2.22,38.12 2.02,39.85 1.03,40.81 0.04,41.77 -0.92,41.27 -1.89,40.76 -2.85,38.98 -3.82,37.19 -4.21,34.95 -4.59,32.71 -4.43,29.65 -4.26,26.59 -3.38,23.02 -2.49,19.46 -0.99,16.00 0.51,12.54 1.80,10.11 3.08,7.68 4.45,5.82 5.82,3.95 7.10,2.95 8.38,1.95 9.55,1.71 10.72,1.46 11.54,2.39 12.36,3.32 12.70,4.94 13.04,6.56 13.16,9.00 13.28,11.43 13.01,13.94 12.73,16.44 12.45,17.99 12.17,19.53 12.12,20.03 12.07,20.53 12.04,20.62 12.01,20.71 11.96,20.80 11.91,20.88 11.84,20.95 11.77,21.01 11.69,21.06 11.61,21.11 11.52,21.14 11.42,21.17 11.33,21.18 11.23,21.19 11.14,21.17 11.04,21.15 10.95,21.11 10.87,21.07 10.79,21.01 10.71,20.95 10.65,20.88 10.59,20.80 10.55,20.71 10.51,20.63 10.50,20.53 10.48,20.44 10.49,20.34 10.49,20.24 10.79,19.56 11.10,18.87 11.74,17.94 12.38,17.00 12.96,16.26 13.54,15.52 14.28,15.09 15.02,14.67 15.70,15.05 16.38,15.42 16.50,16.36 16.62,17.29 16.23,18.81 15.84,20.32 15.15,21.80 14.47,23.28 13.29,24.62 12.10,25.96 10.50,26.41 8.89,26.86 6.94,26.46 4.99,26.05 4.87,25.99 4.74,25.93 4.63,25.84 4.53,25.74 4.46,25.62 4.39,25.49 4.36,25.35 4.34,25.21 4.36,25.07 4.38,24.93 4.45,24.80 4.51,24.68 4.61,24.58 4.71,24.48 4.84,24.42 4.97,24.36 5.11,24.34 5.25,24.32 5.39,24.35 5.53,24.38 5.65,24.45 5.78,24.52 5.87,24.63 5.96,24.73 6.02,24.87 6.07,25.00 6.08,25.14 6.09,25.28 6.06,25.42 6.02,25.56 5.94,25.67 5.86,25.79 5.75,25.88 5.64,25.97 5.51,26.02 5.37,26.06 5.23,26.06 5.09,26.07 4.95,26.02 4.82,25.98 4.70,25.90 4.59,25.81 4.51,25.70 4.43,25.58 4.39,25.44 4.35,25.31 4.35,25.16 4.36,25.02 4.41,24.89 4.46,24.76 4.55,24.65 4.64,24.54 4.76,24.46 4.88,24.39 5.02,24.36 5.16,24.32 5.30,24.34 5.44,24.35 5.44,24.35 5.44,24.35 7.02,24.86 8.60,25.38 9.81,25.10 11.03,24.82 11.96,23.69 12.90,22.56 13.46,21.23 14.01,19.90 14.39,18.22 14.76,16.54 14.20,17.19 13.63,17.84 13.09,18.69 12.54,19.53 12.30,20.03 12.07,20.53 12.04,20.62 12.01,20.71 11.96,20.79 11.91,20.88 11.84,20.95 11.77,21.01 11.69,21.06 11.61,21.11 11.52,21.14 11.42,21.17 11.33,21.18 11.23,21.19 11.14,21.17 11.04,21.15 10.95,21.11 10.87,21.07 10.79,21.01 10.71,20.95 10.65,20.88 10.59,20.80 10.55,20.71 10.51,20.63 10.50,20.53 10.48,20.44 10.49,20.34 10.49,20.24 10.67,19.77 10.85,19.29 11.11,17.80 11.38,16.30 11.64,13.90 11.91,11.50 11.78,9.16 11.66,6.82 11.43,5.48 11.20,4.14 10.67,3.35 10.15,2.57 9.65,2.79 9.15,3.02 8.02,3.89 6.88,4.75 5.57,6.53 4.26,8.31 3.00,10.69 1.75,13.08 0.28,16.43 -1.18,19.79 -2.03,23.23 -2.89,26.67 -3.05,29.58 -3.22,32.49 -2.88,34.52 -2.54,36.56 -1.81,38.07 -1.07,39.58 -0.16,39.59 0.73,39.61 0.90,37.98 1.07,36.34 1.12,34.30 1.18,32.25 0.93,29.23 0.68,26.21 0.47,23.23 0.26,20.25 0.15,17.04 0.04,13.84 -0.21,11.14 -0.46,8.44 -0.67,6.57 -0.89,4.69 -0.99,3.24 -1.10,1.79 -0.94,0.83 -0.77,-0.12 -0.75,-0.22 -0.72,-0.31 -0.67,-0.39 -0.62,-0.47 -0.56,-0.54 -0.49,-0.61 -0.41,-0.66 -0.33,-0.71 -0.24,-0.74 -0.15,-0.77 -0.05,-0.78 0.03,-0.78 0.12,-0.77 0.22,-0.75 0.30,-0.71 0.39,-0.68 0.47,-0.62 0.54,-0.56 0.60,-0.49 0.66,-0.41 0.70,-0.33 0.74,-0.24 0.76,-0.15 0.78,-0.06 0.78,0.03 0.77,0.12 0.77,0.12 L 0.77,0.12 Z"/></g><g transform="translate(437.7777099609375 45) rotate(0 -0.5555419921875 8.611106872558594)" stroke="none"><path fill="#1e1e1e" d="M 0.94,0.15 Q 0.94,0.15 0.77,1.11 0.59,2.06 0.49,3.53 0.39,5.00 0.34,7.07 0.28,9.15 0.09,10.86 -0.09,12.58 -0.01,14.38 0.06,16.19 0.11,16.30 0.16,16.42 0.17,16.54 0.18,16.67 0.15,16.79 0.12,16.91 0.05,17.02 -0.00,17.13 -0.10,17.21 -0.20,17.29 -0.32,17.33 -0.44,17.37 -0.56,17.38 -0.69,17.38 -0.81,17.34 -0.93,17.31 -1.03,17.23 -1.13,17.16 -1.21,17.06 -1.28,16.96 -1.32,16.84 -1.36,16.72 -1.35,16.59 -1.35,16.46 -1.31,16.34 -1.26,16.23 -1.19,16.13 -1.11,16.03 -1.00,15.96 -0.89,15.89 -0.77,15.86 -0.65,15.83 -0.52,15.84 -0.40,15.85 -0.28,15.90 -0.17,15.95 -0.07,16.03 0.01,16.12 0.07,16.23 0.14,16.34 0.16,16.46 0.18,16.59 0.17,16.71 0.15,16.84 0.10,16.95 0.04,17.06 -0.04,17.15 -0.13,17.24 -0.24,17.30 -0.35,17.35 -0.48,17.37 -0.60,17.39 -0.73,17.36 -0.85,17.34 -0.96,17.28 -1.07,17.22 -1.16,17.12 -1.24,17.03 -1.24,17.03 -1.24,17.03 -1.43,14.73 -1.61,12.43 -1.46,10.77 -1.31,9.12 -1.31,7.02 -1.30,4.92 -1.27,3.34 -1.23,1.76 -1.09,0.80 -0.94,-0.15 -0.91,-0.26 -0.88,-0.38 -0.82,-0.48 -0.76,-0.58 -0.68,-0.66 -0.60,-0.74 -0.50,-0.80 -0.40,-0.87 -0.29,-0.90 -0.18,-0.94 -0.07,-0.95 0.04,-0.96 0.15,-0.94 0.27,-0.92 0.37,-0.87 0.48,-0.83 0.57,-0.76 0.66,-0.69 0.74,-0.60 0.81,-0.51 0.86,-0.40 0.91,-0.30 0.93,-0.18 0.95,-0.07 0.95,0.04 0.94,0.15 0.94,0.15 L 0.94,0.15 Z"/></g><g transform="translate(444.99993896484375 47.77777099609375) rotate(0 -4.444427490234375 10.555557250976562)" stroke="none"><path fill="#1e1e1e" d="M 0.92,0.36 Q 0.92,0.36 0.60,1.16 0.28,1.96 -0.37,3.41 -1.03,4.86 -1.81,6.44 -2.59,8.02 -3.56,9.96 -4.54,11.91 -5.64,13.43 -6.74,14.95 -7.73,15.54 -8.72,16.13 -9.41,15.92 -10.10,15.70 -10.42,14.81 -10.73,13.92 -10.47,12.92 -10.20,11.92 -9.71,11.14 -9.22,10.35 -8.57,9.90 -7.92,9.44 -7.17,9.25 -6.42,9.07 -5.27,9.57 -4.12,10.08 -3.18,11.03 -2.24,11.99 -1.52,13.25 -0.80,14.52 0.34,16.84 1.50,19.16 1.60,19.26 1.71,19.36 1.78,19.49 1.86,19.62 1.88,19.76 1.91,19.91 1.89,20.05 1.86,20.20 1.80,20.33 1.73,20.46 1.62,20.57 1.52,20.67 1.39,20.73 1.25,20.80 1.11,20.82 0.96,20.83 0.81,20.80 0.67,20.78 0.54,20.70 0.41,20.63 0.32,20.52 0.22,20.40 0.16,20.27 0.11,20.13 0.10,19.98 0.09,19.84 0.12,19.69 0.16,19.55 0.24,19.43 0.32,19.30 0.44,19.21 0.55,19.12 0.69,19.07 0.83,19.02 0.98,19.02 1.13,19.02 1.27,19.06 1.41,19.11 1.53,19.20 1.65,19.28 1.73,19.40 1.82,19.53 1.86,19.67 1.90,19.81 1.90,19.96 1.89,20.10 1.84,20.24 1.78,20.38 1.69,20.49 1.60,20.61 1.47,20.69 1.35,20.76 1.20,20.80 1.06,20.83 0.91,20.82 0.76,20.81 0.63,20.75 0.49,20.69 0.49,20.69 0.49,20.69 -0.90,18.05 -2.31,15.41 -2.95,14.38 -3.59,13.35 -4.34,12.66 -5.10,11.98 -5.68,11.62 -6.26,11.27 -6.93,11.41 -7.60,11.56 -7.97,12.06 -8.33,12.57 -8.67,13.64 -9.01,14.71 -8.48,14.38 -7.94,14.04 -6.95,12.63 -5.96,11.21 -5.03,9.26 -4.10,7.31 -3.40,5.73 -2.70,4.15 -2.13,2.69 -1.56,1.22 -1.24,0.42 -0.92,-0.36 -0.86,-0.47 -0.80,-0.57 -0.72,-0.66 -0.64,-0.75 -0.54,-0.82 -0.44,-0.88 -0.33,-0.92 -0.22,-0.96 -0.10,-0.98 0.01,-0.99 0.13,-0.97 0.25,-0.96 0.36,-0.91 0.47,-0.87 0.57,-0.80 0.67,-0.73 0.75,-0.64 0.82,-0.55 0.88,-0.44 0.93,-0.33 0.96,-0.21 0.98,-0.10 0.98,0.01 0.98,0.13 0.95,0.25 0.92,0.36 0.92,0.36 L 0.92,0.36 Z"/></g><g transform="translate(453.88885498046875 62.22221374511719) rotate(0 4.166656494140625 0.00000762939453125)" stroke="none"><path fill="#1e1e1e" d="M 1.05,0 Q 1.05,0 0.88,0.16 0.70,0.32 1.71,0.09 2.71,-0.13 5.28,-1.29 7.85,-2.44 8.03,-2.49 8.21,-2.54 8.39,-2.53 8.57,-2.51 8.74,-2.44 8.91,-2.37 9.05,-2.25 9.19,-2.13 9.28,-1.97 9.37,-1.81 9.41,-1.63 9.45,-1.45 9.43,-1.27 9.40,-1.09 9.32,-0.92 9.25,-0.76 9.12,-0.62 8.99,-0.49 8.83,-0.41 8.66,-0.33 8.48,-0.30 8.30,-0.27 8.12,-0.30 7.94,-0.34 7.78,-0.42 7.61,-0.51 7.49,-0.65 7.36,-0.78 7.29,-0.95 7.21,-1.12 7.20,-1.30 7.18,-1.48 7.22,-1.66 7.26,-1.84 7.36,-2.00 7.46,-2.15 7.60,-2.27 7.74,-2.39 7.91,-2.45 8.08,-2.52 8.27,-2.53 8.45,-2.53 8.63,-2.48 8.80,-2.43 8.96,-2.33 9.11,-2.22 9.22,-2.07 9.32,-1.93 9.38,-1.75 9.44,-1.58 9.43,-1.39 9.43,-1.21 9.37,-1.03 9.31,-0.86 9.20,-0.72 9.08,-0.57 8.93,-0.47 8.78,-0.37 8.78,-0.37 8.78,-0.37 5.99,0.78 3.20,1.93 1.92,2.20 0.63,2.46 -0.03,2.02 -0.70,1.59 -0.88,0.79 -1.05,0 -1.04,-0.12 -1.02,-0.25 -0.98,-0.37 -0.93,-0.49 -0.86,-0.59 -0.79,-0.70 -0.69,-0.78 -0.60,-0.87 -0.48,-0.92 -0.37,-0.98 -0.25,-1.01 -0.12,-1.04 0.00,-1.04 0.12,-1.04 0.25,-1.01 0.37,-0.98 0.48,-0.92 0.60,-0.86 0.69,-0.78 0.79,-0.70 0.86,-0.59 0.93,-0.49 0.98,-0.37 1.02,-0.25 1.04,-0.12 1.05,0.00 1.05,0.00 L 1.05,0 Z"/></g><g transform="translate(459.44439697265625 53.888885498046875) rotate(0 -1.388885498046875 6.666664123535156)" stroke="none"><path fill="#1e1e1e" d="M 0.92,0.34 Q 0.92,0.34 0.40,1.60 -0.11,2.86 -0.50,4.16 -0.88,5.45 -1.21,6.95 -1.54,8.44 -1.23,10.56 -0.92,12.68 -0.90,12.82 -0.89,12.96 -0.93,13.10 -0.96,13.24 -1.04,13.36 -1.12,13.47 -1.23,13.56 -1.34,13.65 -1.48,13.70 -1.61,13.75 -1.75,13.75 -1.89,13.75 -2.03,13.71 -2.16,13.67 -2.28,13.58 -2.39,13.50 -2.48,13.38 -2.56,13.27 -2.60,13.13 -2.64,13.00 -2.64,12.85 -2.63,12.71 -2.58,12.58 -2.53,12.45 -2.44,12.34 -2.35,12.23 -2.23,12.15 -2.11,12.07 -1.97,12.04 -1.83,12.01 -1.69,12.02 -1.55,12.03 -1.42,12.09 -1.29,12.15 -1.19,12.24 -1.08,12.34 -1.01,12.46 -0.94,12.59 -0.92,12.73 -0.89,12.87 -0.91,13.01 -0.93,13.15 -1.00,13.27 -1.06,13.40 -1.16,13.50 -1.26,13.60 -1.39,13.66 -1.52,13.73 -1.66,13.74 -1.80,13.76 -1.94,13.73 -2.08,13.71 -2.20,13.64 -2.32,13.56 -2.42,13.46 -2.51,13.35 -2.57,13.22 -2.62,13.09 -2.62,13.09 -2.62,13.09 -2.85,10.61 -3.08,8.14 -2.78,6.58 -2.48,5.02 -2.14,3.63 -1.79,2.24 -1.35,0.94 -0.92,-0.34 -0.86,-0.45 -0.81,-0.55 -0.73,-0.64 -0.65,-0.73 -0.55,-0.80 -0.46,-0.86 -0.34,-0.91 -0.23,-0.95 -0.12,-0.96 -0.00,-0.98 0.11,-0.96 0.23,-0.95 0.34,-0.91 0.45,-0.87 0.55,-0.80 0.64,-0.73 0.72,-0.65 0.80,-0.56 0.86,-0.45 0.91,-0.35 0.94,-0.23 0.97,-0.12 0.97,-0.00 0.97,0.11 0.94,0.23 0.92,0.34 0.92,0.34 L 0.92,0.34 Z"/></g><g transform="translate(466.111083984375 64.44444274902344) rotate(0 6.94439697265625 -11.388893127441406)" stroke="none"><path fill="#1e1e1e" d="M -0.81,-0.48 Q -0.81,-0.48 0.17,-2.06 1.16,-3.64 2.55,-6.05 3.93,-8.46 5.17,-10.75 6.40,-13.05 7.56,-15.45 8.73,-17.85 9.71,-19.98 10.68,-22.12 11.26,-23.49 11.83,-24.87 12.22,-25.68 12.62,-26.48 12.75,-26.66 12.88,-26.83 12.94,-26.91 13.00,-27.00 13.07,-27.07 13.15,-27.13 13.24,-27.18 13.34,-27.23 13.44,-27.25 13.54,-27.27 13.64,-27.27 13.74,-27.27 13.84,-27.25 13.94,-27.22 14.03,-27.17 14.12,-27.12 14.20,-27.05 14.27,-26.99 14.33,-26.90 14.39,-26.82 14.43,-26.72 14.46,-26.62 14.47,-26.52 14.48,-26.42 14.47,-26.32 14.46,-26.21 14.42,-26.12 14.38,-26.02 14.81,-25.23 15.25,-24.44 15.25,-23.15 15.26,-21.85 15.25,-20.04 15.23,-18.22 15.22,-16.02 15.20,-13.81 15.03,-11.09 14.86,-8.38 14.62,-5.47 14.38,-2.56 14.04,0.34 13.71,3.26 13.67,3.38 13.64,3.50 13.56,3.61 13.49,3.71 13.39,3.78 13.29,3.86 13.17,3.90 13.05,3.94 12.92,3.93 12.79,3.93 12.67,3.89 12.56,3.85 12.46,3.77 12.36,3.69 12.29,3.58 12.22,3.48 12.19,3.36 12.15,3.23 12.16,3.11 12.17,2.98 12.22,2.87 12.27,2.75 12.35,2.65 12.44,2.56 12.55,2.50 12.66,2.43 12.78,2.41 12.90,2.38 13.03,2.40 13.16,2.41 13.27,2.47 13.38,2.52 13.47,2.61 13.56,2.70 13.62,2.81 13.68,2.93 13.70,3.05 13.72,3.18 13.69,3.30 13.67,3.43 13.61,3.54 13.55,3.65 13.45,3.73 13.36,3.82 13.25,3.87 13.13,3.92 13.00,3.93 12.88,3.94 12.75,3.91 12.63,3.88 12.52,3.82 12.42,3.75 12.34,3.65 12.26,3.55 12.21,3.44 12.17,3.32 12.16,3.19 12.16,3.06 12.16,3.07 12.16,3.07 12.55,0.19 12.95,-2.67 13.16,-5.57 13.37,-8.46 13.51,-11.14 13.65,-13.81 13.62,-16.01 13.59,-18.21 13.54,-20.00 13.50,-21.79 13.41,-23.49 13.32,-25.19 13.10,-26.01 12.88,-26.83 12.94,-26.91 13.00,-27.00 13.07,-27.07 13.15,-27.13 13.24,-27.18 13.34,-27.23 13.44,-27.25 13.54,-27.27 13.64,-27.27 13.74,-27.27 13.84,-27.25 13.94,-27.22 14.03,-27.17 14.12,-27.12 14.20,-27.05 14.27,-26.99 14.33,-26.90 14.39,-26.82 14.43,-26.72 14.46,-26.62 14.47,-26.52 14.48,-26.42 14.47,-26.32 14.46,-26.21 14.42,-26.12 14.38,-26.02 14.17,-25.88 13.96,-25.73 13.55,-25.03 13.13,-24.34 12.56,-22.93 11.99,-21.53 11.03,-19.37 10.06,-17.21 8.91,-14.77 7.76,-12.33 6.56,-10.00 5.35,-7.66 4.01,-5.20 2.66,-2.74 1.74,-1.12 0.81,0.48 0.74,0.58 0.67,0.67 0.58,0.74 0.49,0.81 0.39,0.86 0.28,0.90 0.17,0.92 0.06,0.94 -0.05,0.94 -0.16,0.93 -0.27,0.90 -0.38,0.86 -0.48,0.81 -0.58,0.75 -0.66,0.67 -0.74,0.58 -0.80,0.49 -0.86,0.39 -0.90,0.28 -0.93,0.17 -0.94,0.06 -0.95,-0.05 -0.92,-0.16 -0.90,-0.28 -0.86,-0.38 -0.81,-0.48 -0.81,-0.48 L -0.81,-0.48 Z"/></g><g transform="translate(502.7777099609375 88.33332824707031) rotate(0 0.277801513671875 9.166664123535156)" stroke="none"><path fill="#1e1e1e" d="M 0.95,0 Q 0.95,0 0.91,1.43 0.87,2.87 0.84,4.44 0.81,6.01 0.79,7.63 0.77,9.26 0.91,11.04 1.05,12.81 1.21,15.32 1.37,17.82 1.36,17.96 1.34,18.09 1.28,18.21 1.22,18.34 1.13,18.43 1.03,18.53 0.91,18.59 0.79,18.65 0.65,18.67 0.52,18.69 0.38,18.67 0.25,18.64 0.13,18.58 0.01,18.51 -0.07,18.41 -0.16,18.31 -0.22,18.19 -0.27,18.06 -0.28,17.93 -0.30,17.79 -0.27,17.66 -0.23,17.53 -0.16,17.41 -0.09,17.30 0.01,17.21 0.11,17.12 0.24,17.08 0.37,17.03 0.50,17.02 0.64,17.02 0.77,17.06 0.90,17.09 1.01,17.17 1.12,17.25 1.20,17.36 1.28,17.47 1.32,17.60 1.36,17.73 1.36,17.87 1.36,18.00 1.31,18.13 1.27,18.26 1.18,18.37 1.10,18.47 0.99,18.55 0.87,18.62 0.74,18.66 0.61,18.69 0.47,18.68 0.34,18.67 0.21,18.62 0.09,18.57 -0.01,18.48 -0.11,18.39 -0.18,18.27 -0.24,18.15 -0.27,18.02 -0.30,17.88 -0.30,17.88 -0.30,17.88 -0.36,15.41 -0.41,12.94 -0.59,11.10 -0.77,9.26 -0.79,7.63 -0.81,6.01 -0.84,4.44 -0.87,2.87 -0.91,1.43 -0.95,0 -0.93,-0.11 -0.92,-0.22 -0.88,-0.33 -0.84,-0.44 -0.77,-0.53 -0.71,-0.63 -0.62,-0.70 -0.54,-0.78 -0.43,-0.83 -0.33,-0.88 -0.22,-0.91 -0.11,-0.94 0.00,-0.94 0.11,-0.94 0.22,-0.91 0.33,-0.88 0.43,-0.83 0.54,-0.78 0.62,-0.70 0.71,-0.63 0.77,-0.53 0.84,-0.44 0.88,-0.33 0.92,-0.22 0.93,-0.11 0.95,0.00 0.95,0.00 L 0.95,0 Z"/></g><g transform="translate(509.99993896484375 95.5555419921875) rotate(0 -3.611114501953125 8.333343505859375)" stroke="none"><path fill="#1e1e1e" d="M 1.02,0 Q 1.02,0 1.03,0.80 1.03,1.61 0.65,2.73 0.27,3.85 -0.23,4.93 -0.74,6.01 -1.46,7.27 -2.17,8.54 -2.99,9.59 -3.81,10.64 -4.48,11.30 -5.16,11.96 -5.55,12.24 -5.95,12.53 -6.04,12.60 -6.13,12.66 -6.24,12.70 -6.34,12.74 -6.45,12.76 -6.56,12.77 -6.67,12.76 -6.78,12.75 -6.89,12.71 -6.99,12.67 -7.09,12.61 -7.18,12.55 -7.26,12.47 -7.33,12.39 -7.38,12.29 -7.44,12.19 -7.47,12.08 -7.49,11.97 -7.50,11.86 -7.50,11.75 -7.47,11.64 -7.45,11.53 -7.40,11.43 -7.35,11.33 -7.27,11.25 -7.20,11.16 -7.46,10.26 -7.72,9.37 -7.13,8.37 -6.54,7.37 -5.89,6.73 -5.23,6.09 -4.35,5.92 -3.46,5.76 -2.61,6.30 -1.77,6.83 -1.25,7.64 -0.74,8.44 -0.38,9.28 -0.03,10.11 0.08,11.39 0.20,12.66 0.08,14.52 -0.04,16.38 -0.08,16.55 -0.12,16.71 -0.21,16.85 -0.30,17.00 -0.43,17.10 -0.56,17.21 -0.72,17.27 -0.88,17.33 -1.05,17.33 -1.21,17.34 -1.38,17.29 -1.54,17.24 -1.67,17.14 -1.81,17.05 -1.91,16.91 -2.01,16.77 -2.06,16.61 -2.11,16.45 -2.11,16.28 -2.10,16.12 -2.05,15.96 -1.99,15.80 -1.88,15.67 -1.78,15.53 -1.64,15.44 -1.50,15.35 -1.33,15.31 -1.17,15.27 -1.00,15.28 -0.83,15.29 -0.68,15.36 -0.52,15.42 -0.40,15.54 -0.27,15.65 -0.19,15.79 -0.10,15.94 -0.07,16.11 -0.04,16.27 -0.06,16.44 -0.08,16.61 -0.15,16.76 -0.23,16.91 -0.35,17.03 -0.47,17.15 -0.62,17.22 -0.77,17.30 -0.93,17.32 -1.10,17.35 -1.27,17.32 -1.43,17.29 -1.58,17.20 -1.73,17.12 -1.84,17.00 -1.95,16.87 -2.02,16.72 -2.09,16.56 -2.10,16.40 -2.12,16.23 -2.12,16.23 -2.12,16.23 -1.92,14.56 -1.73,12.89 -1.88,11.92 -2.04,10.95 -2.34,10.25 -2.64,9.56 -2.91,9.02 -3.19,8.48 -3.66,8.05 -4.12,7.63 -4.55,8.00 -4.97,8.37 -5.41,9.01 -5.84,9.65 -5.97,10.21 -6.10,10.77 -6.03,11.65 -5.95,12.53 -6.04,12.60 -6.13,12.66 -6.24,12.70 -6.34,12.74 -6.45,12.76 -6.56,12.77 -6.67,12.76 -6.78,12.75 -6.89,12.71 -6.99,12.67 -7.09,12.61 -7.18,12.55 -7.26,12.47 -7.33,12.39 -7.38,12.29 -7.44,12.19 -7.47,12.08 -7.49,11.97 -7.50,11.86 -7.50,11.75 -7.47,11.64 -7.45,11.53 -7.40,11.43 -7.35,11.33 -7.27,11.25 -7.20,11.16 -6.73,10.95 -6.26,10.74 -5.65,10.22 -5.03,9.70 -4.32,8.73 -3.61,7.76 -2.98,6.54 -2.35,5.31 -1.95,4.28 -1.54,3.25 -1.29,2.41 -1.03,1.58 -1.03,0.79 -1.02,0 -1.00,-0.12 -0.99,-0.24 -0.94,-0.36 -0.90,-0.47 -0.83,-0.57 -0.76,-0.67 -0.67,-0.76 -0.58,-0.84 -0.47,-0.89 -0.36,-0.95 -0.24,-0.98 -0.12,-1.01 0.00,-1.01 0.12,-1.01 0.24,-0.98 0.36,-0.95 0.47,-0.89 0.58,-0.84 0.67,-0.76 0.76,-0.67 0.83,-0.57 0.90,-0.47 0.94,-0.35 0.99,-0.24 1.00,-0.12 1.02,0.00 1.02,0.00 L 1.02,0 Z"/></g><g transform="translate(493.33331298828125 76.11109924316406) rotate(0 -6.9444580078125 9.72222900390625)" stroke="none"><path fill="#1e1e1e" d="M -0.70,1.05 Q -0.70,1.05 -1.19,0.75 -1.67,0.44 -2.25,0.11 -2.83,-0.20 -3.42,-0.44 -4.01,-0.68 -4.86,-0.49 -5.70,-0.30 -6.18,-0.06 -6.66,0.17 -7.71,1.05 -8.75,1.93 -9.30,2.51 -9.85,3.09 -10.43,3.91 -11.01,4.73 -11.41,5.54 -11.81,6.34 -12.17,7.29 -12.52,8.23 -12.68,9.21 -12.84,10.19 -13.06,11.17 -13.29,12.14 -13.54,13.04 -13.79,13.94 -13.85,14.58 -13.91,15.23 -13.65,15.84 -13.40,16.45 -12.89,16.86 -12.39,17.27 -11.68,18.03 -10.96,18.78 -9.83,19.35 -8.70,19.93 -7.63,20.19 -6.56,20.45 -5.38,20.42 -4.19,20.39 -3.30,19.95 -2.41,19.50 -1.09,18.20 0.22,16.89 0.34,16.81 0.45,16.73 0.58,16.70 0.71,16.66 0.85,16.67 0.99,16.68 1.11,16.73 1.24,16.78 1.35,16.87 1.45,16.96 1.52,17.07 1.59,17.19 1.62,17.33 1.65,17.46 1.63,17.60 1.62,17.73 1.56,17.86 1.50,17.98 1.41,18.08 1.31,18.18 1.19,18.24 1.07,18.30 0.94,18.33 0.80,18.35 0.67,18.33 0.53,18.30 0.41,18.24 0.29,18.17 0.20,18.07 0.10,17.97 0.04,17.85 -0.00,17.73 -0.02,17.59 -0.03,17.45 -0.00,17.32 0.02,17.19 0.09,17.07 0.16,16.95 0.27,16.86 0.37,16.78 0.50,16.73 0.62,16.68 0.76,16.67 0.90,16.66 1.03,16.70 1.16,16.74 1.27,16.81 1.39,16.89 1.47,17.00 1.55,17.11 1.60,17.24 1.64,17.37 1.64,17.51 1.64,17.64 1.59,17.77 1.55,17.90 1.47,18.01 1.38,18.12 1.38,18.12 1.38,18.12 -0.17,19.48 -1.74,20.85 -2.91,21.40 -4.08,21.96 -5.50,22.03 -6.91,22.09 -8.20,21.83 -9.49,21.56 -10.90,20.90 -12.32,20.23 -13.08,19.57 -13.84,18.91 -14.55,18.24 -15.26,17.58 -15.59,16.79 -15.92,16.01 -15.84,15.47 -15.76,14.94 -15.61,14.20 -15.45,13.46 -15.19,12.61 -14.94,11.76 -14.73,10.86 -14.51,9.97 -14.39,8.82 -14.26,7.66 -13.96,6.58 -13.65,5.50 -13.24,4.55 -12.83,3.61 -12.26,2.55 -11.68,1.50 -11.02,0.68 -10.35,-0.13 -9.77,-0.61 -9.18,-1.10 -8.55,-1.70 -7.91,-2.29 -6.52,-2.77 -5.13,-3.25 -4.34,-3.37 -3.55,-3.49 -2.67,-3.12 -1.79,-2.75 -1.01,-2.23 -0.23,-1.71 0.23,-1.38 0.70,-1.05 0.82,-0.95 0.93,-0.85 1.02,-0.73 1.11,-0.61 1.17,-0.46 1.23,-0.32 1.25,-0.17 1.27,-0.02 1.25,0.13 1.24,0.28 1.18,0.42 1.13,0.57 1.05,0.70 0.96,0.82 0.85,0.93 0.74,1.03 0.60,1.11 0.47,1.18 0.32,1.22 0.17,1.26 0.02,1.26 -0.13,1.26 -0.28,1.23 -0.43,1.19 -0.56,1.12 -0.70,1.05 -0.70,1.05 L -0.70,1.05 Z"/></g></svg>