<svg version="1.1" xmlns="http://www.w3.org/2000/svg" viewBox="0 0 27.77777099609375 29.444442749023438" width="27.77777099609375" height="29.444442749023438" filter="invert(93%) hue-rotate(180deg)">
  <!-- svg-source:excalidraw -->
  
  <defs>
    <style class="style-fonts">
      @font-face {
        font-family: "Virgil";
        src: url("https://excalidraw.com/Virgil.woff2");
      }
      @font-face {
        font-family: "Cascadia";
        src: url("https://excalidraw.com/Cascadia.woff2");
      }
    </style>
    
  </defs>
  <rect x="0" y="0" width="27.77777099609375" height="29.444442749023438" fill="#ffffff"/><g transform="translate(10 10) rotate(0 3.888885498046875 4.722221374511719)" stroke="none"><path fill="#1e1e1e" d="M 1.93,-1.40 Q 1.93,-1.40 3.09,0.43 4.26,2.27 5.03,3.34 5.80,4.42 7.77,6.27 9.75,8.13 9.88,8.49 10.00,8.85 10.01,9.23 10.01,9.61 9.89,9.98 9.78,10.34 9.55,10.65 9.32,10.96 9.01,11.18 8.69,11.39 8.33,11.50 7.96,11.61 7.58,11.59 7.19,11.57 6.84,11.44 6.48,11.30 6.18,11.06 5.89,10.81 5.69,10.49 5.49,10.16 5.40,9.79 5.31,9.41 5.35,9.03 5.39,8.65 5.54,8.30 5.70,7.95 5.96,7.67 6.22,7.39 6.56,7.21 6.89,7.03 7.27,6.96 7.65,6.89 8.03,6.95 8.40,7.01 8.74,7.18 9.08,7.36 9.35,7.63 9.62,7.91 9.78,8.25 9.95,8.60 9.99,8.98 10.04,9.36 9.96,9.73 9.88,10.11 9.69,10.44 9.49,10.77 9.21,11.02 8.92,11.27 8.56,11.42 8.21,11.56 7.83,11.59 7.45,11.61 7.08,11.52 6.71,11.42 6.39,11.21 6.07,10.99 5.83,10.69 5.60,10.39 5.60,10.39 5.60,10.39 4.74,9.62 3.88,8.84 3.00,7.85 2.11,6.87 1.48,5.81 0.84,4.75 -0.54,3.07 -1.93,1.40 -2.07,1.15 -2.21,0.90 -2.28,0.62 -2.36,0.34 -2.37,0.05 -2.37,-0.22 -2.31,-0.51 -2.25,-0.79 -2.12,-1.05 -1.99,-1.30 -1.81,-1.52 -1.62,-1.74 -1.39,-1.91 -1.16,-2.08 -0.89,-2.19 -0.62,-2.30 -0.34,-2.34 -0.05,-2.38 0.22,-2.36 0.51,-2.33 0.78,-2.23 1.05,-2.14 1.29,-1.98 1.54,-1.82 1.73,-1.61 1.93,-1.40 1.93,-1.40 L 1.93,-1.40 Z"/></g></svg>