<svg version="1.1" xmlns="http://www.w3.org/2000/svg" viewBox="0 0 246.6666488647461 111.1111068725586" width="246.6666488647461" height="111.1111068725586" filter="invert(93%) hue-rotate(180deg)">
  <!-- svg-source:excalidraw -->
  
  <defs>
    <style class="style-fonts">
      @font-face {
        font-family: "Virgil";
        src: url("https://excalidraw.com/Virgil.woff2");
      }
      @font-face {
        font-family: "Cascadia";
        src: url("https://excalidraw.com/Cascadia.woff2");
      }
    </style>
    
  </defs>
  <rect x="0" y="0" width="246.6666488647461" height="111.1111068725586" fill="#ffffff"/><g transform="translate(27.222206115722656 16.666664123535156) rotate(0 -1.1111030578613281 33.33333206176758)" stroke="none"><path fill="#000000" d="M 0.77,-0.12 Q 0.77,-0.12 0.94,0.83 1.10,1.78 0.99,3.71 0.89,5.64 0.35,9.49 -0.17,13.34 -1.53,18.51 -2.89,23.69 -4.91,29.26 -6.93,34.82 -8.91,39.74 -10.89,44.66 -12.54,48.20 -14.18,51.74 -14.71,53.74 -15.24,55.75 -14.38,57.11 -13.53,58.47 -11.97,59.50 -10.40,60.54 -7.53,61.63 -4.66,62.72 -1.18,63.99 2.29,65.27 5.33,65.96 8.37,66.65 11.13,67.03 13.88,67.40 14.00,67.44 14.11,67.48 14.21,67.55 14.31,67.62 14.38,67.72 14.45,67.82 14.48,67.94 14.51,68.05 14.51,68.17 14.50,68.29 14.46,68.41 14.41,68.52 14.34,68.61 14.26,68.70 14.16,68.77 14.05,68.83 13.94,68.86 13.82,68.89 13.70,68.87 13.58,68.86 13.47,68.81 13.36,68.76 13.27,68.68 13.18,68.60 13.12,68.49 13.07,68.39 13.05,68.27 13.03,68.15 13.04,68.03 13.06,67.91 13.12,67.80 13.17,67.70 13.26,67.61 13.35,67.53 13.46,67.48 13.56,67.42 13.68,67.41 13.80,67.40 13.92,67.42 14.04,67.45 14.14,67.51 14.25,67.57 14.33,67.66 14.41,67.75 14.45,67.86 14.50,67.97 14.51,68.09 14.51,68.21 14.48,68.33 14.45,68.45 14.38,68.55 14.32,68.65 14.22,68.72 14.13,68.80 14.01,68.84 13.90,68.88 13.78,68.88 13.66,68.88 13.66,68.88 13.66,68.88 10.87,68.41 8.08,67.93 4.96,67.22 1.84,66.51 -1.64,65.23 -5.13,63.96 -8.14,62.80 -11.15,61.64 -12.90,60.41 -14.65,59.17 -15.57,57.44 -16.50,55.70 -15.96,53.44 -15.41,51.17 -13.79,47.66 -12.16,44.15 -10.20,39.25 -8.24,34.35 -6.25,28.84 -4.26,23.33 -2.94,18.24 -1.62,13.14 -1.12,9.35 -0.62,5.56 -0.54,3.80 -0.46,2.04 -0.62,1.08 -0.77,0.12 -0.78,0.03 -0.78,-0.06 -0.76,-0.15 -0.74,-0.24 -0.70,-0.33 -0.66,-0.41 -0.60,-0.49 -0.54,-0.56 -0.47,-0.62 -0.39,-0.68 -0.30,-0.71 -0.22,-0.75 -0.12,-0.77 -0.03,-0.78 0.05,-0.78 0.15,-0.77 0.24,-0.74 0.33,-0.71 0.41,-0.66 0.49,-0.61 0.56,-0.54 0.62,-0.47 0.67,-0.39 0.72,-0.31 0.75,-0.22 0.77,-0.12 0.77,-0.12 L 0.77,-0.12 Z"/></g><g transform="translate(73.33332061767578 36.666664123535156) rotate(0 1.9444427490234375 17.222225189208984)" stroke="none"><path fill="#000000" d="M -0.50,0.62 Q -0.50,0.62 -1.29,-0.01 -2.08,-0.66 -3.29,-1.22 -4.50,-1.77 -5.32,-1.98 -6.14,-2.20 -7.32,-2.15 -8.51,-2.11 -9.72,-1.35 -10.93,-0.59 -12.36,1.01 -13.79,2.61 -11.85,14.53 -9.90,26.44 -7.77,31.59 -5.64,36.74 -1.50,37.76 2.63,38.78 6.03,37.69 9.43,36.60 12.09,33.04 14.76,29.47 16.22,24.66 17.68,19.85 17.51,14.83 17.34,9.82 16.17,5.80 15.00,1.79 12.95,-1.45 10.89,-4.69 8.75,-6.17 6.60,-7.64 4.71,-7.04 2.83,-6.44 1.43,-4.21 0.04,-1.97 -0.03,-0.64 -0.11,0.68 -0.17,0.76 -0.23,0.83 -0.31,0.88 -0.38,0.94 -0.47,0.98 -0.56,1.01 -0.65,1.02 -0.75,1.04 -0.84,1.03 -0.94,1.02 -1.03,0.99 -1.12,0.96 -1.19,0.90 -1.27,0.85 -1.34,0.78 -1.40,0.71 -1.45,0.63 -1.50,0.55 -1.52,0.46 -1.54,0.36 -1.55,0.27 -1.55,0.17 -1.53,0.08 -1.51,-0.00 -1.47,-0.09 -1.42,-0.17 -1.09,-0.35 -0.76,-0.53 -0.64,-0.50 -0.51,-0.48 -0.40,-0.42 -0.29,-0.36 -0.20,-0.27 -0.11,-0.18 -0.06,-0.06 -0.01,0.04 0.00,0.17 0.01,0.30 -0.01,0.42 -0.04,0.55 -0.10,0.65 -0.17,0.76 -0.27,0.85 -0.36,0.93 -0.48,0.97 -0.60,1.02 -0.73,1.03 -0.85,1.03 -0.98,1.00 -1.10,0.96 -1.20,0.89 -1.31,0.82 -1.39,0.72 -1.46,0.62 -1.50,0.50 -1.54,0.38 -1.54,0.25 -1.54,0.12 -1.50,0.00 -1.46,-0.11 -1.38,-0.21 -1.30,-0.31 -1.20,-0.38 -1.09,-0.45 -0.97,-0.49 -0.85,-0.52 -0.72,-0.51 -0.59,-0.51 -0.48,-0.46 -0.36,-0.41 -0.26,-0.33 -0.16,-0.25 -0.10,-0.14 -0.03,-0.03 -0.01,0.09 0.01,0.21 0.00,0.34 -0.01,0.46 -0.06,0.58 -0.12,0.70 -0.20,0.79 -0.29,0.88 -0.40,0.94 -0.52,1.00 -0.31,0.84 -0.11,0.68 -0.17,0.76 -0.23,0.83 -0.31,0.88 -0.38,0.94 -0.47,0.98 -0.56,1.01 -0.65,1.02 -0.75,1.04 -0.84,1.03 -0.94,1.02 -1.03,0.99 -1.12,0.96 -1.19,0.90 -1.27,0.85 -1.34,0.78 -1.40,0.71 -1.45,0.63 -1.49,0.55 -1.52,0.46 -1.54,0.36 -1.55,0.27 -1.55,0.17 -1.53,0.08 -1.51,-0.00 -1.47,-0.09 -1.42,-0.17 -1.24,-1.43 -1.05,-2.69 0.61,-5.13 2.29,-7.57 4.61,-8.18 6.94,-8.79 9.46,-7.11 11.98,-5.43 14.12,-2.00 16.27,1.41 17.47,5.59 18.67,9.76 18.81,14.99 18.95,20.22 17.39,25.24 15.83,30.25 12.89,34.03 9.95,37.80 6.18,38.94 2.40,40.08 -2.07,38.83 -6.55,37.58 -8.91,32.12 -11.27,26.67 -13.13,14.38 -14.98,2.09 -13.34,0.13 -11.70,-1.82 -10.18,-2.71 -8.66,-3.59 -7.19,-3.65 -5.72,-3.72 -4.80,-3.43 -3.88,-3.14 -2.49,-2.51 -1.11,-1.89 -0.30,-1.25 0.50,-0.62 0.56,-0.55 0.63,-0.48 0.68,-0.40 0.73,-0.32 0.76,-0.22 0.78,-0.13 0.79,-0.03 0.79,0.05 0.78,0.15 0.76,0.24 0.72,0.33 0.68,0.42 0.62,0.49 0.56,0.57 0.48,0.63 0.40,0.68 0.31,0.72 0.23,0.76 0.13,0.78 0.04,0.79 -0.05,0.79 -0.15,0.78 -0.24,0.75 -0.33,0.72 -0.41,0.67 -0.50,0.62 -0.50,0.62 L -0.50,0.62 Z"/></g><g transform="translate(130.55553436279297 28.888885498046875) rotate(0 -8.611083984375 30.277782440185547)" stroke="none"><path fill="#000000" d="M -0.31,0.71 Q -0.31,0.71 -1.74,0.05 -3.17,-0.59 -4.83,-1.01 -6.50,-1.43 -8.26,-1.46 -10.03,-1.48 -11.83,-0.87 -13.62,-0.27 -15.32,0.75 -17.02,1.77 -18.65,3.75 -20.28,5.73 -22.09,8.94 -23.91,12.16 -25.63,16.54 -27.35,20.92 -28.24,26.09 -29.12,31.26 -29.34,35.83 -29.56,40.41 -28.39,44.99 -27.22,49.58 -25.48,52.76 -23.74,55.94 -20.86,57.86 -17.97,59.77 -14.77,60.11 -11.57,60.45 -9.02,59.52 -6.47,58.59 -4.65,56.37 -2.84,54.15 -2.23,51.38 -1.62,48.61 -2.14,45.91 -2.65,43.21 -4.42,40.69 -6.18,38.16 -8.34,36.30 -10.49,34.44 -12.32,33.51 -14.16,32.58 -15.38,31.84 -16.61,31.10 -16.38,30.56 -16.16,30.01 -15.19,29.94 -14.22,29.87 -11.56,29.87 -8.91,29.86 -5.08,29.70 -1.26,29.55 3.07,29.16 7.40,28.78 9.24,28.62 11.09,28.45 11.20,28.46 11.31,28.47 11.41,28.51 11.51,28.56 11.60,28.63 11.68,28.70 11.73,28.80 11.79,28.89 11.81,29.00 11.83,29.11 11.82,29.21 11.80,29.32 11.75,29.42 11.71,29.52 11.63,29.60 11.55,29.68 11.45,29.73 11.36,29.77 11.25,29.79 11.14,29.81 11.03,29.79 10.92,29.77 10.83,29.71 10.73,29.66 10.66,29.58 10.59,29.50 10.54,29.40 10.50,29.30 10.49,29.19 10.48,29.08 10.50,28.97 10.53,28.87 10.59,28.77 10.65,28.68 10.73,28.61 10.81,28.54 10.92,28.50 11.02,28.46 11.13,28.46 11.24,28.46 11.34,28.49 11.45,28.52 11.54,28.58 11.63,28.65 11.69,28.73 11.76,28.82 11.79,28.93 11.82,29.03 11.82,29.14 11.82,29.25 11.78,29.35 11.75,29.46 11.68,29.54 11.61,29.63 11.52,29.69 11.43,29.75 11.32,29.78 11.21,29.80 11.21,29.80 11.21,29.80 9.37,29.97 7.52,30.14 3.16,30.54 -1.20,30.94 -5.05,31.11 -8.90,31.28 -11.53,31.31 -14.16,31.33 -14.89,30.96 -15.61,30.59 -14.58,31.00 -13.56,31.41 -11.60,32.43 -9.64,33.45 -7.37,35.43 -5.11,37.41 -3.24,40.17 -1.37,42.93 -0.86,45.89 -0.34,48.86 -1.07,51.89 -1.80,54.93 -3.87,57.35 -5.95,59.78 -8.80,60.76 -11.66,61.75 -15.15,61.32 -18.64,60.89 -21.75,58.75 -24.85,56.62 -26.67,53.27 -28.49,49.91 -29.69,45.14 -30.88,40.36 -30.66,35.70 -30.43,31.03 -29.51,25.74 -28.60,20.44 -26.83,15.97 -25.07,11.50 -23.20,8.19 -21.32,4.87 -19.53,2.74 -17.74,0.62 -15.90,-0.47 -14.06,-1.58 -12.05,-2.23 -10.04,-2.88 -8.10,-2.86 -6.16,-2.84 -4.36,-2.40 -2.57,-1.96 -1.12,-1.33 0.31,-0.71 0.39,-0.66 0.47,-0.61 0.54,-0.55 0.61,-0.48 0.66,-0.40 0.71,-0.32 0.73,-0.23 0.76,-0.14 0.77,-0.05 0.77,0.04 0.76,0.13 0.74,0.22 0.70,0.31 0.67,0.40 0.61,0.47 0.55,0.54 0.48,0.60 0.40,0.66 0.32,0.70 0.23,0.74 0.14,0.76 0.05,0.77 -0.04,0.77 -0.13,0.76 -0.22,0.74 -0.31,0.71 -0.31,0.71 L -0.31,0.71 Z"/></g><g transform="translate(156.6666488647461 20.55554962158203) rotate(0 -2.22222900390625 33.888885498046875)" stroke="none"><path fill="#000000" d="M 0.76,0.15 Q 0.76,0.15 0.42,1.74 0.09,3.34 -0.04,5.56 -0.18,7.78 -0.41,11.47 -0.64,15.15 -1.06,20.23 -1.47,25.32 -1.97,31.31 -2.47,37.30 -2.85,42.40 -3.22,47.50 -3.38,52.21 -3.54,56.92 -3.41,61.36 -3.28,65.79 -3.29,65.90 -3.30,66.00 -3.35,66.10 -3.40,66.20 -3.48,66.27 -3.55,66.35 -3.65,66.40 -3.75,66.45 -3.85,66.46 -3.96,66.48 -4.06,66.46 -4.17,66.43 -4.26,66.38 -4.36,66.33 -4.43,66.25 -4.50,66.17 -4.55,66.07 -4.59,65.97 -4.60,65.86 -4.61,65.76 -4.58,65.65 -4.55,65.55 -4.50,65.46 -4.44,65.37 -4.36,65.30 -4.27,65.23 -4.17,65.19 -4.07,65.15 -3.96,65.15 -3.85,65.15 -3.75,65.18 -3.65,65.21 -3.56,65.27 -3.47,65.34 -3.41,65.42 -3.35,65.51 -3.31,65.61 -3.28,65.72 -3.28,65.83 -3.29,65.93 -3.32,66.03 -3.36,66.14 -3.43,66.22 -3.50,66.30 -3.59,66.36 -3.68,66.42 -3.78,66.45 -3.89,66.47 -3.99,66.46 -4.10,66.46 -4.20,66.41 -4.30,66.37 -4.38,66.30 -4.46,66.23 -4.51,66.13 -4.57,66.04 -4.59,65.93 -4.61,65.83 -4.61,65.83 -4.61,65.83 -4.74,61.35 -4.88,56.88 -4.72,52.14 -4.57,47.40 -4.20,42.30 -3.83,37.19 -3.34,31.20 -2.85,25.21 -2.45,20.14 -2.04,15.07 -1.83,11.38 -1.63,7.70 -1.50,5.37 -1.37,3.04 -1.06,1.44 -0.76,-0.15 -0.73,-0.24 -0.70,-0.33 -0.65,-0.41 -0.60,-0.49 -0.53,-0.55 -0.47,-0.62 -0.39,-0.66 -0.30,-0.71 -0.21,-0.74 -0.12,-0.77 -0.03,-0.77 0.05,-0.77 0.15,-0.76 0.24,-0.74 0.32,-0.70 0.41,-0.66 0.48,-0.60 0.56,-0.54 0.61,-0.46 0.67,-0.39 0.71,-0.30 0.74,-0.22 0.76,-0.12 0.78,-0.03 0.77,0.05 0.76,0.15 0.76,0.15 L 0.76,0.15 Z"/></g><g transform="translate(185.55553436279297 17.22222137451172) rotate(0 -5.8333282470703125 34.166664123535156)" stroke="none"><path fill="#000000" d="M 0.77,0.14 Q 0.77,0.14 0.44,1.89 0.10,3.64 -0.68,7.27 -1.47,10.90 -2.45,16.58 -3.42,22.26 -4.48,28.03 -5.54,33.81 -6.63,40.41 -7.72,47.01 -8.50,52.52 -9.28,58.04 -9.78,61.19 -10.27,64.34 -10.31,65.36 -10.35,66.37 -10.38,66.45 -10.40,66.53 -10.44,66.61 -10.48,66.68 -10.54,66.74 -10.60,66.80 -10.67,66.84 -10.73,66.89 -10.81,66.91 -10.89,66.94 -10.97,66.95 -11.06,66.96 -11.14,66.94 -11.22,66.93 -11.30,66.90 -11.37,66.87 -11.44,66.82 -11.51,66.77 -11.56,66.70 -11.61,66.64 -11.65,66.56 -11.68,66.49 -11.70,66.41 -11.72,66.33 -11.72,66.25 -11.71,66.16 -10.86,63.74 -10.00,61.31 -9.94,61.20 -9.87,61.09 -9.78,61.01 -9.69,60.93 -9.57,60.88 -9.45,60.83 -9.33,60.82 -9.20,60.81 -9.08,60.84 -8.96,60.87 -8.85,60.94 -8.75,61.01 -8.67,61.11 -8.59,61.21 -8.55,61.32 -8.51,61.44 -8.51,61.57 -8.50,61.69 -8.54,61.81 -8.58,61.93 -8.65,62.04 -8.73,62.14 -8.83,62.21 -8.93,62.28 -9.05,62.32 -9.17,62.35 -9.30,62.35 -9.42,62.34 -9.54,62.30 -9.66,62.26 -9.76,62.18 -9.85,62.10 -9.92,61.99 -9.99,61.88 -10.02,61.76 -10.05,61.64 -10.04,61.52 -10.02,61.39 -9.97,61.28 -9.92,61.16 -9.84,61.07 -9.75,60.97 -9.64,60.91 -9.53,60.85 -9.41,60.83 -9.29,60.81 -9.16,60.83 -9.04,60.84 -8.93,60.90 -8.81,60.96 -8.73,61.05 -8.64,61.14 -8.58,61.25 -8.53,61.36 -8.51,61.49 -8.50,61.61 -8.52,61.73 -8.55,61.86 -8.55,61.86 -8.55,61.86 -9.45,64.12 -10.35,66.37 -10.38,66.45 -10.40,66.53 -10.44,66.61 -10.48,66.68 -10.54,66.74 -10.60,66.80 -10.66,66.84 -10.73,66.89 -10.81,66.91 -10.89,66.94 -10.97,66.95 -11.06,66.96 -11.14,66.94 -11.22,66.93 -11.30,66.90 -11.37,66.87 -11.44,66.82 -11.51,66.77 -11.56,66.70 -11.61,66.64 -11.65,66.57 -11.68,66.49 -11.70,66.41 -11.72,66.33 -11.72,66.25 -11.71,66.16 -11.66,65.15 -11.60,64.13 -11.11,60.99 -10.62,57.85 -9.84,52.32 -9.07,46.78 -7.98,40.17 -6.90,33.56 -5.86,27.79 -4.82,22.02 -3.86,16.31 -2.89,10.60 -2.14,6.99 -1.38,3.37 -1.07,1.61 -0.77,-0.14 -0.74,-0.23 -0.72,-0.32 -0.67,-0.40 -0.62,-0.48 -0.55,-0.55 -0.48,-0.62 -0.40,-0.67 -0.32,-0.72 -0.23,-0.74 -0.14,-0.77 -0.04,-0.78 0.04,-0.78 0.14,-0.77 0.23,-0.75 0.32,-0.71 0.40,-0.67 0.48,-0.61 0.55,-0.55 0.61,-0.48 0.67,-0.40 0.71,-0.32 0.75,-0.23 0.77,-0.14 0.78,-0.04 0.78,0.04 0.77,0.14 0.77,0.14 L 0.77,0.14 Z"/></g><g transform="translate(201.11107635498047 10) rotate(0 -9.999984741210938 38.88888168334961)" stroke="none"><path fill="#000000" d="M 0.77,0.12 Q 0.77,0.12 0.62,1.08 0.46,2.04 0.22,3.56 -0.02,5.07 -0.29,7.46 -0.56,9.85 -1.32,13.31 -2.08,16.76 -3.22,20.47 -4.35,24.19 -6.11,28.81 -7.88,33.44 -10.08,37.82 -12.27,42.20 -14.01,45.18 -15.75,48.17 -16.85,49.63 -17.94,51.10 -18.17,51.24 -18.39,51.38 -18.46,51.45 -18.52,51.52 -18.60,51.57 -18.68,51.62 -18.77,51.65 -18.85,51.68 -18.95,51.69 -19.04,51.70 -19.13,51.68 -19.22,51.67 -19.31,51.63 -19.40,51.59 -19.47,51.54 -19.55,51.48 -19.61,51.41 -19.67,51.34 -19.71,51.26 -19.75,51.17 -19.77,51.08 -19.79,50.99 -19.78,50.90 -19.78,50.80 -19.75,50.71 -19.73,50.62 -19.68,50.54 -19.64,50.46 -19.11,49.74 -18.58,49.01 -17.17,47.83 -15.76,46.65 -14.05,45.37 -12.34,44.10 -10.42,43.35 -8.49,42.61 -6.84,42.67 -5.20,42.73 -4.10,44.14 -3.01,45.54 -2.89,48.32 -2.77,51.10 -3.38,54.83 -4.00,58.57 -4.74,61.90 -5.48,65.24 -6.44,68.27 -7.40,71.31 -8.04,73.68 -8.69,76.06 -8.73,76.17 -8.78,76.28 -8.85,76.37 -8.93,76.45 -9.03,76.51 -9.13,76.57 -9.25,76.59 -9.36,76.62 -9.48,76.60 -9.59,76.59 -9.70,76.54 -9.81,76.49 -9.89,76.40 -9.97,76.32 -10.02,76.22 -10.08,76.11 -10.09,76.00 -10.11,75.88 -10.09,75.77 -10.07,75.65 -10.01,75.55 -9.96,75.45 -9.87,75.37 -9.78,75.29 -9.68,75.24 -9.57,75.20 -9.45,75.19 -9.34,75.17 -9.22,75.20 -9.11,75.23 -9.01,75.29 -8.91,75.35 -8.84,75.44 -8.76,75.53 -8.72,75.64 -8.68,75.75 -8.68,75.87 -8.67,75.99 -8.71,76.10 -8.74,76.21 -8.81,76.31 -8.87,76.40 -8.97,76.47 -9.06,76.54 -9.17,76.58 -9.29,76.61 -9.40,76.61 -9.52,76.61 -9.63,76.57 -9.74,76.53 -9.83,76.45 -9.92,76.38 -9.99,76.28 -10.05,76.19 -10.08,76.07 -10.11,75.96 -10.10,75.84 -10.09,75.73 -10.09,75.73 -10.09,75.73 -9.38,73.32 -8.66,70.91 -7.72,67.93 -6.77,64.95 -6.04,61.65 -5.31,58.35 -4.70,54.74 -4.10,51.13 -4.13,48.67 -4.15,46.20 -4.90,45.03 -5.65,43.86 -6.85,43.88 -8.04,43.90 -9.78,44.55 -11.52,45.21 -13.19,46.48 -14.85,47.74 -16.12,48.80 -17.39,49.85 -17.89,50.62 -18.39,51.38 -18.46,51.45 -18.52,51.52 -18.60,51.57 -18.68,51.62 -18.77,51.65 -18.85,51.68 -18.95,51.69 -19.04,51.70 -19.13,51.68 -19.22,51.67 -19.31,51.63 -19.40,51.59 -19.47,51.54 -19.55,51.48 -19.61,51.41 -19.67,51.34 -19.71,51.26 -19.75,51.17 -19.77,51.08 -19.79,50.99 -19.78,50.90 -19.78,50.80 -19.75,50.71 -19.73,50.62 -19.68,50.54 -19.64,50.46 -19.29,50.35 -18.94,50.25 -17.93,48.87 -16.91,47.49 -15.20,44.54 -13.49,41.59 -11.32,37.27 -9.16,32.95 -7.42,28.37 -5.68,23.78 -4.57,20.12 -3.47,16.46 -2.74,13.08 -2.01,9.69 -1.76,7.27 -1.52,4.85 -1.31,3.32 -1.10,1.78 -0.94,0.82 -0.77,-0.12 -0.75,-0.22 -0.72,-0.31 -0.67,-0.39 -0.62,-0.47 -0.56,-0.54 -0.49,-0.61 -0.41,-0.66 -0.33,-0.71 -0.24,-0.74 -0.15,-0.77 -0.05,-0.78 0.03,-0.78 0.12,-0.77 0.22,-0.75 0.30,-0.71 0.39,-0.68 0.47,-0.62 0.54,-0.56 0.60,-0.49 0.66,-0.41 0.70,-0.33 0.74,-0.24 0.76,-0.15 0.78,-0.06 0.78,0.03 0.77,0.12 0.77,0.12 L 0.77,0.12 Z"/></g><g transform="translate(211.6666488647461 101.1111068725586) rotate(0 11.666671752929688 -36.666664123535156)" stroke="none"><path fill="#000000" d="M -0.75,0.21 Q -0.75,0.21 -1.05,-0.90 -1.35,-2.03 -1.65,-5.29 -1.94,-8.55 -1.74,-13.78 -1.54,-19.02 -0.97,-24.28 -0.40,-29.55 1.12,-35.81 2.65,-42.07 4.90,-47.95 7.16,-53.83 9.57,-58.73 11.97,-63.64 13.82,-66.55 15.66,-69.46 17.75,-70.60 19.84,-71.73 21.36,-70.54 22.88,-69.35 23.71,-66.00 24.54,-62.66 24.86,-58.53 25.19,-54.41 25.16,-48.97 25.14,-43.54 24.80,-38.03 24.47,-32.52 24.33,-28.75 24.19,-24.99 24.11,-21.35 24.02,-17.70 24.00,-17.60 23.98,-17.49 23.93,-17.40 23.88,-17.31 23.80,-17.23 23.72,-17.16 23.62,-17.12 23.53,-17.08 23.42,-17.07 23.31,-17.06 23.21,-17.09 23.11,-17.11 23.02,-17.17 22.93,-17.22 22.86,-17.31 22.79,-17.39 22.76,-17.49 22.72,-17.59 22.72,-17.70 22.71,-17.80 22.74,-17.90 22.78,-18.01 22.84,-18.09 22.90,-18.18 22.99,-18.24 23.07,-18.30 23.17,-18.33 23.27,-18.37 23.38,-18.36 23.49,-18.36 23.59,-18.33 23.69,-18.29 23.77,-18.22 23.85,-18.16 23.91,-18.07 23.97,-17.98 23.99,-17.87 24.02,-17.77 24.01,-17.66 24.00,-17.56 23.96,-17.46 23.92,-17.36 23.85,-17.28 23.78,-17.20 23.69,-17.15 23.59,-17.10 23.49,-17.08 23.39,-17.06 23.28,-17.07 23.18,-17.09 23.08,-17.13 22.98,-17.18 22.91,-17.25 22.83,-17.33 22.79,-17.42 22.74,-17.52 22.72,-17.63 22.71,-17.73 22.71,-17.73 22.71,-17.73 22.79,-21.38 22.88,-25.04 23.02,-28.82 23.16,-32.60 23.49,-38.07 23.82,-43.55 23.84,-48.92 23.87,-54.30 23.56,-58.33 23.25,-62.36 22.60,-65.42 21.94,-68.48 20.71,-69.58 19.48,-70.68 18.11,-69.69 16.74,-68.71 14.96,-65.88 13.17,-63.05 10.80,-58.20 8.42,-53.34 6.20,-47.55 3.97,-41.75 2.47,-35.57 0.96,-29.40 0.41,-24.18 -0.13,-18.96 -0.32,-13.82 -0.51,-8.68 -0.21,-5.56 0.07,-2.43 0.41,-1.32 0.75,-0.21 0.76,-0.12 0.78,-0.02 0.77,0.06 0.76,0.15 0.73,0.24 0.70,0.33 0.65,0.41 0.60,0.49 0.53,0.56 0.46,0.62 0.38,0.67 0.30,0.71 0.21,0.74 0.12,0.77 0.02,0.77 -0.06,0.77 -0.15,0.75 -0.25,0.73 -0.33,0.69 -0.41,0.65 -0.49,0.59 -0.56,0.53 -0.62,0.46 -0.67,0.38 -0.71,0.30 -0.75,0.21 -0.75,0.21 L -0.75,0.21 Z"/></g><g transform="translate(212.77776336669922 64.99999237060547) rotate(0 11.944442749023438 1.6666641235351562)" stroke="none"><path fill="#000000" d="M 0,-0.93 Q 0,-0.93 0.80,-0.95 1.60,-0.97 3.49,-0.43 5.38,0.10 8.48,0.64 11.58,1.18 14.66,1.59 17.74,1.99 20.32,2.41 22.91,2.84 23.04,2.89 23.17,2.93 23.28,3.02 23.39,3.10 23.46,3.22 23.54,3.33 23.57,3.47 23.61,3.60 23.60,3.74 23.59,3.88 23.54,4.01 23.48,4.13 23.39,4.24 23.30,4.34 23.18,4.41 23.06,4.48 22.93,4.51 22.79,4.54 22.65,4.52 22.51,4.50 22.39,4.44 22.27,4.38 22.17,4.29 22.07,4.19 22.00,4.07 21.94,3.94 21.92,3.81 21.90,3.67 21.92,3.53 21.95,3.40 22.02,3.27 22.08,3.15 22.18,3.06 22.29,2.97 22.41,2.91 22.54,2.85 22.68,2.84 22.82,2.83 22.95,2.86 23.09,2.89 23.20,2.96 23.32,3.04 23.41,3.14 23.50,3.25 23.55,3.38 23.59,3.51 23.60,3.65 23.61,3.79 23.57,3.92 23.53,4.05 23.45,4.17 23.37,4.28 23.26,4.36 23.15,4.44 23.01,4.49 22.88,4.53 22.74,4.53 22.60,4.52 22.60,4.52 22.60,4.52 20.07,4.03 17.54,3.54 14.43,3.18 11.31,2.81 8.11,2.31 4.92,1.81 3.25,1.39 1.58,0.97 0.79,0.95 0,0.93 -0.11,0.92 -0.22,0.91 -0.33,0.87 -0.43,0.83 -0.52,0.76 -0.62,0.70 -0.69,0.61 -0.77,0.53 -0.82,0.43 -0.87,0.33 -0.90,0.22 -0.93,0.11 -0.93,-0.00 -0.93,-0.11 -0.90,-0.22 -0.87,-0.33 -0.82,-0.43 -0.77,-0.53 -0.69,-0.61 -0.62,-0.70 -0.52,-0.76 -0.43,-0.83 -0.32,-0.87 -0.22,-0.91 -0.11,-0.92 0.00,-0.93 0.00,-0.93 L 0,-0.93 Z"/></g></svg>