<svg version="1.1" xmlns="http://www.w3.org/2000/svg" viewBox="0 0 409.3333435058594 116.66667175292969" width="409.3333435058594" height="116.66667175292969" filter="invert(93%) hue-rotate(180deg)" class="excalidraw-svg">
  <!-- svg-source:excalidraw -->
  
  <defs>
    <style class="style-fonts">
      @font-face {
        font-family: "Virgil";
        src: url("https://excalidraw.com/Virgil.woff2");
      }
      @font-face {
        font-family: "Cascadia";
        src: url("https://excalidraw.com/Cascadia.woff2");
      }
      @font-face {
        font-family: "Assistant";
        src: url("https://excalidraw.com/Assistant-Regular.woff2");
      }
    </style>
    
  </defs>
  <rect x="0" y="0" width="409.3333435058594" height="116.66667175292969" fill="#ffffff"/><g transform="translate(76.00003051757812 32) rotate(0 -25.333358764648438 28)" stroke="none"><path fill="#1e1e1e" d="M -0.63,-0.47 Q -0.63,-0.47 -0.06,-1.23 0.50,-2.00 0.89,-3.16 1.29,-4.33 1.29,-5.69 1.29,-7.05 0.39,-8.48 -0.50,-9.91 -2.32,-11.06 -4.15,-12.21 -7.34,-12.70 -10.53,-13.20 -14.91,-12.66 -19.29,-12.12 -24.39,-10.38 -29.48,-8.63 -33.91,-6.00 -38.34,-3.37 -42.09,0.75 -45.84,4.89 -47.79,10.20 -49.73,15.52 -49.81,19.82 -49.88,24.11 -48.06,27.74 -46.24,31.37 -42.88,33.05 -39.53,34.74 -36.46,34.90 -33.39,35.06 -31.02,34.02 -28.66,32.99 -27.70,32.21 -26.74,31.42 -27.80,30.22 -28.85,29.02 -31.10,28.37 -33.34,27.71 -37.52,27.61 -41.70,27.50 -46.09,28.77 -50.49,30.05 -53.84,32.27 -57.19,34.49 -59.51,38.61 -61.84,42.72 -62.45,47.65 -63.06,52.57 -61.66,56.46 -60.26,60.35 -55.36,63.09 -50.47,65.83 -41.57,66.05 -32.67,66.28 -23.15,64.29 -13.64,62.30 -5.38,59.55 2.86,56.79 6.39,55.62 9.91,54.44 10.02,54.43 10.12,54.41 10.23,54.43 10.33,54.44 10.42,54.49 10.52,54.54 10.59,54.62 10.66,54.70 10.71,54.80 10.75,54.89 10.76,55.00 10.77,55.10 10.75,55.21 10.73,55.31 10.67,55.40 10.62,55.49 10.54,55.56 10.46,55.63 10.36,55.67 10.26,55.71 10.15,55.71 10.05,55.72 9.94,55.69 9.84,55.66 9.75,55.60 9.67,55.54 9.60,55.46 9.54,55.37 9.50,55.27 9.47,55.17 9.47,55.06 9.47,54.96 9.51,54.86 9.54,54.76 9.60,54.67 9.67,54.59 9.76,54.53 9.84,54.47 9.95,54.44 10.05,54.41 10.16,54.42 10.26,54.42 10.36,54.46 10.46,54.50 10.54,54.57 10.62,54.64 10.67,54.73 10.73,54.82 10.75,54.93 10.77,55.03 10.76,55.14 10.75,55.24 10.71,55.34 10.66,55.44 10.59,55.51 10.51,55.59 10.42,55.64 10.33,55.69 10.33,55.69 10.33,55.69 6.80,56.86 3.28,58.04 -5.04,60.81 -13.37,63.59 -23.04,65.59 -32.70,67.59 -41.87,67.29 -51.05,66.99 -56.20,63.97 -61.35,60.96 -62.85,56.72 -64.35,52.47 -63.67,47.29 -62.99,42.11 -60.47,37.78 -57.95,33.44 -54.41,31.12 -50.87,28.79 -46.27,27.49 -41.68,26.19 -37.32,26.32 -32.96,26.46 -30.45,27.28 -27.94,28.11 -26.84,29.47 -25.74,30.84 -26.92,32.50 -28.09,34.16 -30.75,35.26 -33.41,36.36 -36.75,36.14 -40.09,35.92 -43.70,34.00 -47.31,32.07 -49.25,28.11 -51.19,24.16 -51.08,19.62 -50.98,15.09 -48.91,9.55 -46.84,4.02 -42.94,-0.24 -39.03,-4.50 -34.48,-7.20 -29.92,-9.90 -24.69,-11.68 -19.46,-13.47 -14.89,-14.01 -10.32,-14.55 -6.88,-13.98 -3.44,-13.40 -1.38,-12.05 0.67,-10.69 1.70,-8.93 2.72,-7.16 2.73,-5.51 2.74,-3.86 2.27,-2.46 1.79,-1.06 1.21,-0.29 0.63,0.47 0.56,0.54 0.50,0.61 0.41,0.66 0.33,0.71 0.24,0.74 0.15,0.77 0.06,0.78 -0.03,0.78 -0.12,0.77 -0.21,0.75 -0.30,0.72 -0.39,0.68 -0.47,0.62 -0.54,0.57 -0.60,0.49 -0.66,0.42 -0.70,0.33 -0.74,0.25 -0.76,0.15 -0.78,0.06 -0.78,-0.03 -0.77,-0.12 -0.75,-0.21 -0.72,-0.30 -0.67,-0.39 -0.63,-0.47 -0.63,-0.47 L -0.63,-0.47 Z"/></g><g transform="translate(110.00003051757812 16.666671752929688) rotate(0 -4 41.99999237060547)" stroke="none"><path fill="#1e1e1e" d="M -0.15,-0.78 Q -0.15,-0.78 0.80,-0.97 1.77,-1.16 2.88,-1.05 4.00,-0.94 5.16,-0.21 6.33,0.51 7.05,2.27 7.77,4.04 7.85,6.76 7.94,9.47 6.99,13.35 6.04,17.23 4.28,21.38 2.53,25.53 -0.52,30.95 -3.58,36.37 -6.41,41.53 -9.23,46.68 -11.96,52.12 -14.69,57.57 -16.02,61.94 -17.36,66.31 -17.35,70.37 -17.35,74.43 -15.68,77.20 -14.02,79.96 -11.72,81.09 -9.43,82.22 -5.88,81.39 -2.34,80.56 1.23,77.78 4.80,75.00 7.55,72.22 10.30,69.44 10.39,69.38 10.47,69.31 10.57,69.28 10.68,69.25 10.78,69.25 10.89,69.25 10.99,69.29 11.09,69.33 11.17,69.39 11.26,69.46 11.31,69.55 11.37,69.64 11.40,69.74 11.42,69.84 11.42,69.95 11.41,70.06 11.37,70.15 11.32,70.25 11.25,70.33 11.18,70.41 11.09,70.46 11.00,70.52 10.89,70.54 10.79,70.56 10.68,70.54 10.58,70.53 10.48,70.48 10.39,70.44 10.31,70.36 10.24,70.29 10.19,70.19 10.14,70.10 10.13,69.99 10.11,69.89 10.13,69.78 10.15,69.68 10.20,69.58 10.25,69.49 10.33,69.42 10.41,69.35 10.51,69.31 10.61,69.26 10.71,69.25 10.82,69.25 10.92,69.27 11.03,69.30 11.12,69.35 11.21,69.41 11.27,69.49 11.34,69.57 11.38,69.67 11.41,69.77 11.42,69.88 11.42,69.99 11.39,70.09 11.36,70.19 11.30,70.28 11.24,70.36 11.24,70.36 11.24,70.36 8.42,73.20 5.60,76.04 1.79,78.94 -2.01,81.83 -5.92,82.63 -9.83,83.42 -12.45,82.07 -15.07,80.71 -16.86,77.62 -18.64,74.53 -18.64,70.23 -18.63,65.93 -17.26,61.45 -15.88,56.97 -13.15,51.50 -10.41,46.04 -7.58,40.87 -4.76,35.70 -1.74,30.35 1.26,25.00 2.98,20.95 4.69,16.90 5.61,13.20 6.52,9.50 6.46,7.02 6.40,4.53 5.90,3.09 5.40,1.64 4.58,1.13 3.75,0.61 2.91,0.50 2.06,0.40 1.10,0.59 0.15,0.78 0.06,0.78 -0.03,0.79 -0.12,0.77 -0.22,0.76 -0.31,0.72 -0.40,0.68 -0.47,0.62 -0.55,0.57 -0.61,0.49 -0.67,0.42 -0.71,0.33 -0.75,0.24 -0.77,0.15 -0.79,0.06 -0.78,-0.03 -0.78,-0.13 -0.75,-0.22 -0.73,-0.31 -0.68,-0.39 -0.63,-0.48 -0.56,-0.54 -0.50,-0.61 -0.41,-0.66 -0.33,-0.72 -0.24,-0.75 -0.15,-0.78 -0.15,-0.78 L -0.15,-0.78 Z"/></g><g transform="translate(82.00003051757812 56) rotate(0 24.33331298828125 1.6666641235351562)" stroke="none"><path fill="#1e1e1e" d="M -0.43,-0.72 Q -0.43,-0.72 0.56,-1.28 1.55,-1.84 4.24,-1.93 6.93,-2.01 12.25,-1.63 17.56,-1.26 24.63,-0.13 31.70,0.98 36.63,2.04 41.55,3.10 43.64,3.55 45.72,4.00 45.82,4.04 45.93,4.08 46.01,4.15 46.10,4.22 46.16,4.32 46.21,4.41 46.24,4.52 46.26,4.63 46.25,4.74 46.24,4.85 46.19,4.95 46.15,5.05 46.07,5.13 46.00,5.21 45.90,5.27 45.80,5.32 45.69,5.34 45.58,5.36 45.47,5.34 45.36,5.32 45.27,5.27 45.17,5.22 45.09,5.14 45.01,5.06 44.97,4.96 44.92,4.86 44.91,4.75 44.89,4.64 44.92,4.53 44.94,4.42 45.00,4.33 45.05,4.23 45.14,4.16 45.22,4.09 45.32,4.04 45.43,4.00 45.54,4.00 45.65,3.99 45.76,4.02 45.86,4.05 45.95,4.11 46.05,4.17 46.11,4.26 46.18,4.35 46.22,4.45 46.25,4.56 46.25,4.67 46.25,4.78 46.22,4.88 46.19,4.99 46.12,5.08 46.05,5.16 45.96,5.23 45.87,5.29 45.76,5.32 45.66,5.35 45.55,5.35 45.44,5.34 45.44,5.34 45.44,5.34 43.35,4.90 41.26,4.46 36.37,3.42 31.48,2.39 24.47,1.29 17.46,0.19 12.21,-0.15 6.96,-0.49 4.61,-0.47 2.27,-0.45 1.35,0.13 0.43,0.72 0.34,0.76 0.24,0.81 0.14,0.82 0.04,0.84 -0.05,0.84 -0.15,0.83 -0.25,0.80 -0.35,0.77 -0.43,0.72 -0.52,0.66 -0.59,0.59 -0.67,0.52 -0.72,0.43 -0.77,0.34 -0.80,0.24 -0.83,0.15 -0.84,0.04 -0.84,-0.05 -0.82,-0.15 -0.80,-0.25 -0.76,-0.34 -0.72,-0.44 -0.66,-0.52 -0.59,-0.60 -0.51,-0.66 -0.43,-0.72 -0.43,-0.72 L -0.43,-0.72 Z"/></g><g transform="translate(137.33334350585938 30) rotate(0 -4 33.00000762939453)" stroke="none"><path fill="#1e1e1e" d="M -0.80,-0.21 Q -0.80,-0.21 -0.20,-2.32 0.39,-4.42 0.85,-5.71 1.31,-7.01 1.68,-7.94 2.06,-8.87 2.10,-8.95 2.14,-9.03 2.20,-9.10 2.25,-9.17 2.33,-9.22 2.40,-9.28 2.48,-9.31 2.57,-9.35 2.66,-9.36 2.75,-9.38 2.84,-9.37 2.93,-9.36 3.01,-9.33 3.10,-9.30 3.17,-9.25 3.25,-9.20 3.31,-9.14 3.38,-9.07 3.42,-8.99 3.47,-8.92 3.49,-8.83 3.51,-8.74 3.52,-8.65 3.52,-8.56 3.50,-8.47 3.48,-8.38 3.37,-6.18 3.25,-3.98 2.33,1.22 1.41,6.43 0.25,13.05 -0.91,19.66 -2.75,28.24 -4.59,36.82 -6.34,43.92 -8.08,51.01 -9.79,57.10 -11.49,63.19 -12.60,66.93 -13.72,70.67 -13.93,71.13 -14.15,71.58 -14.19,71.67 -14.22,71.76 -14.28,71.83 -14.34,71.91 -14.42,71.97 -14.49,72.03 -14.58,72.07 -14.67,72.11 -14.76,72.13 -14.86,72.15 -14.95,72.15 -15.05,72.14 -15.14,72.11 -15.24,72.09 -15.32,72.04 -15.40,71.99 -15.47,71.92 -15.54,71.85 -15.60,71.77 -15.65,71.69 -15.68,71.60 -15.71,71.51 -15.71,71.41 -15.72,71.31 -15.71,71.22 -15.69,71.12 -15.37,69.27 -15.05,67.41 -13.58,63.08 -12.11,58.75 -9.95,53.85 -7.78,48.94 -5.50,45.29 -3.22,41.64 -0.80,39.44 1.62,37.24 3.68,37.34 5.75,37.45 6.62,39.11 7.50,40.77 7.46,43.87 7.42,46.97 6.62,50.59 5.81,54.21 4.89,57.09 3.97,59.98 2.99,62.26 2.00,64.54 1.96,64.62 1.93,64.70 1.87,64.77 1.82,64.84 1.74,64.89 1.67,64.95 1.59,64.98 1.51,65.02 1.42,65.04 1.33,65.05 1.25,65.05 1.16,65.04 1.07,65.01 0.99,64.98 0.91,64.94 0.83,64.89 0.77,64.83 0.71,64.76 0.66,64.69 0.62,64.61 0.59,64.52 0.57,64.44 0.56,64.35 0.56,64.26 0.57,64.17 0.59,64.08 0.61,64.04 0.62,64.00 0.69,63.90 0.75,63.80 0.85,63.73 0.95,63.66 1.06,63.62 1.17,63.58 1.29,63.58 1.41,63.58 1.53,63.62 1.64,63.65 1.74,63.73 1.83,63.80 1.90,63.90 1.97,64.00 2.00,64.11 2.03,64.23 2.03,64.35 2.02,64.47 1.98,64.58 1.93,64.69 1.86,64.78 1.78,64.87 1.68,64.94 1.57,65.00 1.46,65.02 1.34,65.05 1.22,65.04 1.10,65.03 0.99,64.98 0.88,64.93 0.79,64.84 0.71,64.76 0.65,64.66 0.59,64.55 0.57,64.43 0.55,64.31 0.57,64.20 0.59,64.08 0.65,63.97 0.70,63.86 0.79,63.78 0.88,63.70 0.99,63.65 1.09,63.60 1.21,63.58 1.33,63.57 1.45,63.60 1.57,63.62 1.67,63.68 1.77,63.74 1.85,63.83 1.93,63.93 1.97,64.04 2.02,64.15 2.03,64.27 2.03,64.39 2.02,64.46 2.00,64.54 1.96,64.62 1.93,64.70 1.87,64.77 1.82,64.84 1.74,64.89 1.67,64.95 1.59,64.98 1.51,65.02 1.42,65.04 1.33,65.05 1.25,65.05 1.16,65.04 1.07,65.01 0.99,64.98 0.91,64.94 0.83,64.89 0.77,64.83 0.71,64.76 0.66,64.69 0.62,64.61 0.59,64.52 0.57,64.44 0.56,64.35 0.56,64.26 0.57,64.17 0.59,64.08 1.65,61.83 2.72,59.58 3.62,56.75 4.53,53.92 5.32,50.43 6.10,46.93 6.20,44.10 6.30,41.27 5.69,39.82 5.08,38.36 3.66,38.34 2.24,38.32 0.06,40.33 -2.11,42.35 -4.34,45.91 -6.57,49.48 -8.71,54.33 -10.85,59.19 -12.28,63.39 -13.72,67.60 -13.93,69.59 -14.15,71.58 -14.19,71.67 -14.22,71.76 -14.28,71.83 -14.34,71.91 -14.42,71.97 -14.49,72.03 -14.58,72.07 -14.67,72.11 -14.76,72.13 -14.86,72.15 -14.95,72.15 -15.05,72.14 -15.14,72.11 -15.24,72.09 -15.32,72.04 -15.40,71.99 -15.47,71.92 -15.54,71.85 -15.60,71.77 -15.65,71.69 -15.68,71.60 -15.71,71.51 -15.71,71.41 -15.72,71.31 -15.71,71.22 -15.69,71.12 -15.35,70.70 -15.01,70.28 -13.91,66.55 -12.82,62.82 -11.13,56.75 -9.44,50.68 -7.71,43.60 -5.99,36.52 -4.17,27.97 -2.35,19.41 -1.22,12.79 -0.08,6.16 0.79,0.95 1.67,-4.25 1.98,-5.93 2.29,-7.62 2.18,-8.24 2.06,-8.87 2.10,-8.95 2.14,-9.03 2.20,-9.10 2.25,-9.17 2.33,-9.22 2.40,-9.28 2.48,-9.31 2.57,-9.35 2.66,-9.36 2.75,-9.38 2.84,-9.37 2.93,-9.36 3.01,-9.33 3.10,-9.30 3.17,-9.25 3.25,-9.20 3.31,-9.14 3.38,-9.07 3.42,-8.99 3.47,-8.92 3.49,-8.83 3.51,-8.74 3.52,-8.65 3.52,-8.56 3.50,-8.47 3.48,-8.38 3.10,-7.46 2.73,-6.53 2.31,-5.27 1.90,-4.01 1.35,-1.89 0.80,0.21 0.76,0.31 0.72,0.40 0.66,0.48 0.60,0.56 0.53,0.62 0.45,0.69 0.36,0.73 0.27,0.78 0.17,0.80 0.07,0.82 -0.02,0.82 -0.12,0.82 -0.21,0.79 -0.31,0.76 -0.40,0.71 -0.48,0.67 -0.56,0.60 -0.63,0.53 -0.68,0.45 -0.74,0.36 -0.77,0.27 -0.80,0.17 -0.81,0.07 -0.82,-0.02 -0.81,-0.11 -0.80,-0.21 -0.80,-0.21 L -0.80,-0.21 Z"/></g><g transform="translate(158.00003051757812 72.66667175292969) rotate(0 16.33331298828125 8.666664123535156)" stroke="none"><path fill="#1e1e1e" d="M 0.78,0 Q 0.78,0 0.76,1.72 0.74,3.44 1.11,5.65 1.47,7.85 2.36,9.87 3.25,11.90 5.27,13.64 7.29,15.38 9.76,16.11 12.22,16.85 15.26,15.66 18.30,14.48 20.90,11.76 23.50,9.03 24.97,5.64 26.44,2.24 26.50,-0.63 26.56,-3.51 25.31,-5.77 24.06,-8.04 21.90,-9.15 19.75,-10.26 17.39,-10.37 15.03,-10.47 12.38,-9.22 9.74,-7.97 7.49,-5.76 5.24,-3.55 3.35,-0.17 1.45,3.20 0.46,7.08 -0.52,10.96 -0.18,14.83 0.15,18.71 1.39,21.41 2.62,24.12 5.52,25.59 8.42,27.05 11.84,26.74 15.27,26.43 19.73,23.67 24.20,20.91 27.26,18.40 30.33,15.90 31.65,14.82 32.96,13.74 33.06,13.69 33.15,13.64 33.25,13.62 33.36,13.60 33.46,13.61 33.57,13.62 33.66,13.67 33.76,13.72 33.83,13.79 33.91,13.87 33.96,13.96 34.01,14.06 34.02,14.16 34.04,14.27 34.02,14.37 34.00,14.47 33.95,14.57 33.89,14.66 33.82,14.73 33.74,14.80 33.64,14.85 33.54,14.89 33.44,14.90 33.33,14.91 33.23,14.88 33.12,14.86 33.03,14.80 32.94,14.75 32.88,14.66 32.81,14.58 32.77,14.48 32.74,14.38 32.73,14.28 32.73,14.17 32.76,14.07 32.79,13.97 32.85,13.88 32.91,13.79 33.00,13.73 33.08,13.67 33.18,13.63 33.29,13.60 33.39,13.61 33.50,13.61 33.60,13.64 33.70,13.68 33.78,13.74 33.86,13.81 33.92,13.90 33.98,13.99 34.01,14.09 34.03,14.19 34.03,14.30 34.02,14.41 33.98,14.50 33.94,14.60 33.86,14.68 33.79,14.76 33.79,14.76 33.79,14.76 32.48,15.84 31.16,16.91 28.02,19.47 24.88,22.03 20.16,24.88 15.43,27.72 11.68,27.98 7.92,28.24 4.73,26.52 1.55,24.80 0.20,21.82 -1.14,18.84 -1.46,14.75 -1.79,10.65 -0.74,6.61 0.30,2.57 2.31,-0.95 4.32,-4.48 6.74,-6.82 9.16,-9.15 12.10,-10.46 15.03,-11.78 17.67,-11.61 20.32,-11.44 22.73,-10.10 25.13,-8.76 26.50,-6.16 27.87,-3.56 27.77,-0.40 27.67,2.74 26.07,6.34 24.48,9.93 21.65,12.82 18.82,15.72 15.41,16.93 12.00,18.15 9.22,17.30 6.43,16.45 4.21,14.48 1.99,12.51 1.02,10.31 0.05,8.10 -0.34,5.78 -0.74,3.45 -0.76,1.72 -0.78,0 -0.76,-0.09 -0.75,-0.18 -0.72,-0.27 -0.69,-0.36 -0.63,-0.44 -0.58,-0.51 -0.51,-0.58 -0.44,-0.64 -0.36,-0.68 -0.27,-0.73 -0.18,-0.75 -0.09,-0.77 0.00,-0.77 0.09,-0.77 0.18,-0.75 0.27,-0.73 0.36,-0.68 0.44,-0.64 0.51,-0.58 0.58,-0.51 0.63,-0.44 0.69,-0.36 0.72,-0.27 0.75,-0.18 0.76,-0.09 0.78,0.00 0.78,0.00 L 0.78,0 Z"/></g><g transform="translate(190.00003051757812 90) rotate(0 22.666656494140625 -14.333328247070312)" stroke="none"><path fill="#1e1e1e" d="M 0.25,-0.76 Q 0.25,-0.76 0.57,-0.55 0.89,-0.34 1.92,-1.52 2.94,-2.71 5.15,-6.05 7.36,-9.39 9.66,-13.12 11.96,-16.85 14.49,-20.56 17.02,-24.27 19.46,-26.51 21.90,-28.75 23.70,-28.25 25.49,-27.75 26.26,-25.52 27.03,-23.29 27.12,-19.05 27.22,-14.81 27.06,-10.54 26.90,-6.26 27.02,-3.69 27.14,-1.11 27.13,-1.03 27.12,-0.95 27.09,-0.88 27.06,-0.80 27.01,-0.74 26.96,-0.67 26.90,-0.62 26.84,-0.57 26.76,-0.54 26.69,-0.50 26.61,-0.49 26.53,-0.47 26.45,-0.47 26.37,-0.48 26.29,-0.50 26.22,-0.52 26.15,-0.56 26.08,-0.60 26.02,-0.66 25.96,-0.71 25.92,-0.78 25.88,-0.85 25.85,-0.92 25.82,-1.00 25.82,-1.08 25.81,-1.16 27.04,-1.50 28.28,-1.84 30.27,-4.64 32.26,-7.45 35.08,-11.92 37.90,-16.38 40.08,-19.27 42.26,-22.16 43.18,-23.38 44.10,-24.60 44.18,-24.67 44.26,-24.74 44.36,-24.79 44.46,-24.84 44.56,-24.85 44.67,-24.86 44.78,-24.84 44.88,-24.81 44.97,-24.76 45.07,-24.70 45.14,-24.62 45.21,-24.54 45.25,-24.44 45.29,-24.34 45.29,-24.23 45.30,-24.12 45.27,-24.02 45.24,-23.92 45.18,-23.83 45.12,-23.74 45.04,-23.67 44.95,-23.61 44.85,-23.57 44.75,-23.54 44.64,-23.54 44.53,-23.54 44.43,-23.57 44.33,-23.60 44.24,-23.67 44.15,-23.73 44.09,-23.82 44.03,-23.91 44.00,-24.02 43.97,-24.12 43.98,-24.23 43.99,-24.33 44.03,-24.44 44.06,-24.54 44.13,-24.62 44.20,-24.70 44.30,-24.76 44.39,-24.81 44.49,-24.84 44.60,-24.86 44.71,-24.85 44.81,-24.84 44.91,-24.79 45.01,-24.75 45.09,-24.67 45.17,-24.60 45.22,-24.50 45.27,-24.41 45.28,-24.30 45.30,-24.20 45.29,-24.09 45.27,-23.98 45.22,-23.89 45.17,-23.79 45.17,-23.79 45.17,-23.79 44.25,-22.57 43.33,-21.35 41.19,-18.51 39.04,-15.66 36.20,-11.15 33.36,-6.64 31.04,-3.65 28.72,-0.66 27.93,-0.88 27.14,-1.11 27.13,-1.03 27.12,-0.95 27.09,-0.88 27.06,-0.80 27.01,-0.74 26.96,-0.67 26.90,-0.62 26.84,-0.57 26.76,-0.54 26.69,-0.50 26.61,-0.49 26.53,-0.47 26.45,-0.47 26.37,-0.48 26.29,-0.50 26.22,-0.52 26.15,-0.56 26.08,-0.60 26.02,-0.66 25.96,-0.71 25.92,-0.78 25.88,-0.85 25.85,-0.92 25.82,-1.00 25.82,-1.08 25.81,-1.16 25.68,-3.74 25.56,-6.31 25.71,-10.55 25.86,-14.78 25.79,-18.84 25.72,-22.90 25.20,-24.87 24.68,-26.84 23.44,-27.20 22.20,-27.56 20.21,-25.50 18.22,-23.45 15.74,-19.75 13.25,-16.06 10.97,-12.29 8.68,-8.52 6.42,-5.04 4.16,-1.55 2.78,-0.22 1.40,1.11 0.57,0.93 -0.25,0.76 -0.34,0.72 -0.43,0.68 -0.50,0.62 -0.58,0.56 -0.64,0.48 -0.70,0.40 -0.73,0.31 -0.77,0.22 -0.79,0.12 -0.80,0.03 -0.80,-0.06 -0.79,-0.16 -0.76,-0.25 -0.73,-0.34 -0.67,-0.42 -0.62,-0.51 -0.55,-0.57 -0.48,-0.64 -0.40,-0.69 -0.31,-0.74 -0.22,-0.77 -0.13,-0.79 -0.03,-0.80 0.06,-0.80 0.16,-0.78 0.25,-0.76 0.25,-0.76 L 0.25,-0.76 Z"/></g><g transform="translate(247.33334350585938 53.33332824707031) rotate(0 14.666656494140625 16.333335876464844)" stroke="none"><path fill="#1e1e1e" d="M -0.42,-0.71 Q -0.42,-0.71 0.59,-1.28 1.61,-1.84 3.02,-1.71 4.43,-1.57 5.50,-0.61 6.57,0.34 7.02,3.16 7.47,5.99 6.86,10.09 6.24,14.18 5.21,17.84 4.17,21.50 3.15,24.58 2.13,27.67 1.89,29.35 1.65,31.04 1.62,31.12 1.58,31.19 1.53,31.25 1.48,31.31 1.42,31.36 1.35,31.41 1.28,31.44 1.20,31.48 1.12,31.49 1.04,31.50 0.96,31.50 0.88,31.49 0.81,31.46 0.73,31.44 0.66,31.40 0.59,31.35 0.54,31.30 0.48,31.24 0.44,31.17 0.40,31.10 0.37,31.02 0.35,30.94 0.35,30.86 0.34,30.78 0.36,30.70 0.38,30.62 1.15,29.98 1.92,29.33 3.09,27.89 4.25,26.45 6.33,24.08 8.41,21.70 10.46,19.72 12.51,17.73 14.78,16.28 17.05,14.83 19.13,14.40 21.21,13.96 22.62,14.86 24.04,15.77 24.45,18.17 24.86,20.58 24.42,23.74 23.97,26.89 23.78,29.11 23.59,31.32 24.09,32.31 24.59,33.30 24.57,33.37 24.56,33.45 24.52,33.52 24.49,33.60 24.44,33.66 24.39,33.72 24.32,33.77 24.26,33.81 24.19,33.85 24.11,33.88 24.03,33.89 23.95,33.90 23.88,33.90 23.80,33.89 23.72,33.86 23.64,33.84 23.58,33.80 23.51,33.75 23.46,33.69 23.40,33.64 23.36,33.57 23.32,33.50 23.30,33.42 23.28,33.35 23.27,33.27 23.27,33.19 24.59,32.19 25.91,31.20 27.10,30.17 28.29,29.15 28.40,29.09 28.51,29.03 28.63,29.00 28.76,28.98 28.89,29.00 29.01,29.01 29.13,29.07 29.24,29.13 29.33,29.22 29.42,29.31 29.47,29.43 29.53,29.54 29.55,29.67 29.56,29.79 29.54,29.92 29.51,30.04 29.45,30.15 29.39,30.27 29.29,30.35 29.20,30.43 29.08,30.48 28.96,30.53 28.83,30.54 28.71,30.55 28.58,30.52 28.46,30.49 28.35,30.42 28.24,30.35 28.17,30.25 28.09,30.15 28.04,30.03 28.00,29.91 28.00,29.78 27.99,29.66 28.03,29.53 28.07,29.41 28.15,29.31 28.22,29.21 28.33,29.13 28.43,29.06 28.55,29.02 28.67,28.99 28.80,28.99 28.93,28.99 29.05,29.04 29.17,29.08 29.27,29.16 29.37,29.24 29.43,29.35 29.50,29.46 29.53,29.58 29.56,29.71 29.55,29.84 29.54,29.96 29.49,30.08 29.44,30.20 29.35,30.29 29.27,30.39 29.27,30.39 29.27,30.38 27.94,31.35 26.62,32.32 25.61,32.81 24.59,33.30 24.57,33.37 24.56,33.45 24.52,33.52 24.49,33.60 24.44,33.66 24.39,33.72 24.32,33.77 24.26,33.81 24.19,33.85 24.11,33.88 24.03,33.89 23.95,33.90 23.88,33.90 23.80,33.89 23.72,33.86 23.64,33.84 23.58,33.80 23.51,33.75 23.46,33.69 23.40,33.64 23.36,33.57 23.32,33.50 23.30,33.42 23.28,33.35 23.27,33.27 23.27,33.19 22.78,32.25 22.29,31.32 22.47,29.01 22.66,26.70 23.10,23.73 23.54,20.75 23.32,18.66 23.10,16.57 22.14,15.90 21.18,15.23 19.47,15.62 17.76,16.00 15.62,17.37 13.49,18.74 11.49,20.69 9.49,22.64 7.44,25.01 5.40,27.38 4.09,28.99 2.77,30.61 2.21,30.82 1.65,31.04 1.62,31.12 1.58,31.19 1.53,31.25 1.48,31.31 1.42,31.36 1.35,31.41 1.28,31.44 1.20,31.48 1.12,31.49 1.04,31.50 0.96,31.50 0.88,31.49 0.81,31.46 0.73,31.44 0.66,31.40 0.59,31.35 0.54,31.30 0.48,31.24 0.44,31.17 0.40,31.10 0.37,31.02 0.35,30.94 0.35,30.86 0.34,30.78 0.36,30.70 0.38,30.62 0.61,28.93 0.85,27.25 1.85,24.19 2.85,21.13 3.86,17.55 4.87,13.97 5.47,10.07 6.07,6.17 5.78,3.69 5.48,1.21 4.78,0.52 4.09,-0.16 3.15,-0.30 2.21,-0.45 1.32,0.13 0.42,0.71 0.33,0.75 0.24,0.79 0.14,0.81 0.04,0.83 -0.05,0.82 -0.15,0.81 -0.24,0.78 -0.34,0.75 -0.43,0.70 -0.51,0.65 -0.58,0.58 -0.65,0.51 -0.71,0.42 -0.76,0.33 -0.79,0.24 -0.82,0.14 -0.82,0.04 -0.83,-0.05 -0.81,-0.15 -0.79,-0.25 -0.75,-0.34 -0.71,-0.43 -0.65,-0.51 -0.58,-0.59 -0.50,-0.65 -0.42,-0.71 -0.42,-0.71 L -0.42,-0.71 Z"/></g><g transform="translate(296.0000305175781 60) rotate(0 12.999969482421875 17.666671752929688)" stroke="none"><path fill="#1e1e1e" d="M 0.55,0.55 Q 0.55,0.55 -0.22,1.30 -1.00,2.06 -2.08,3.31 -3.16,4.56 -3.97,5.99 -4.79,7.42 -4.92,9.45 -5.06,11.48 -4.41,13.20 -3.76,14.92 -1.87,16.15 0.01,17.39 2.82,17.54 5.63,17.70 8.67,16.47 11.71,15.24 14.14,13.40 16.56,11.57 18.32,9.32 20.09,7.07 20.42,4.70 20.76,2.32 20.20,0.65 19.63,-1.01 18.19,-2.03 16.75,-3.04 14.54,-2.73 12.32,-2.42 10.10,-0.83 7.88,0.75 5.42,4.44 2.96,8.12 0.76,13.13 -1.43,18.13 -2.55,22.52 -3.67,26.91 -3.41,30.55 -3.15,34.19 -1.32,35.81 0.50,37.43 4.26,36.44 8.02,35.44 12.09,32.96 16.17,30.48 20.38,26.77 24.59,23.05 27.69,19.44 30.79,15.84 30.87,15.77 30.95,15.70 31.05,15.66 31.15,15.62 31.25,15.62 31.36,15.61 31.46,15.64 31.56,15.67 31.65,15.73 31.74,15.79 31.80,15.88 31.87,15.96 31.90,16.06 31.93,16.16 31.93,16.27 31.93,16.38 31.90,16.48 31.86,16.58 31.80,16.66 31.73,16.75 31.64,16.80 31.56,16.86 31.45,16.89 31.35,16.92 31.24,16.91 31.14,16.91 31.04,16.87 30.94,16.83 30.86,16.76 30.78,16.69 30.73,16.60 30.67,16.51 30.65,16.40 30.63,16.30 30.64,16.19 30.65,16.09 30.70,15.99 30.74,15.89 30.82,15.82 30.89,15.74 30.98,15.69 31.08,15.64 31.18,15.63 31.29,15.61 31.39,15.63 31.50,15.64 31.59,15.69 31.68,15.75 31.76,15.82 31.83,15.90 31.87,16.00 31.92,16.09 31.93,16.20 31.94,16.31 31.92,16.41 31.89,16.51 31.84,16.60 31.78,16.69 31.78,16.69 31.78,16.69 28.62,20.36 25.46,24.03 21.16,27.82 16.85,31.61 12.60,34.16 8.35,36.71 4.24,37.63 0.14,38.54 -2.10,36.54 -4.34,34.54 -4.64,30.57 -4.95,26.60 -3.79,22.10 -2.64,17.60 -0.38,12.50 1.87,7.39 4.48,3.55 7.10,-0.29 9.60,-2.00 12.10,-3.70 14.70,-3.94 17.29,-4.17 19.04,-2.86 20.80,-1.54 21.43,0.45 22.06,2.46 21.61,5.14 21.16,7.81 19.26,10.22 17.37,12.63 14.79,14.55 12.21,16.47 8.90,17.75 5.59,19.03 2.47,18.78 -0.65,18.54 -2.80,17.02 -4.95,15.51 -5.69,13.47 -6.43,11.42 -6.23,9.10 -6.03,6.79 -5.15,5.21 -4.27,3.63 -3.16,2.32 -2.06,1.00 -1.30,0.22 -0.55,-0.55 -0.47,-0.61 -0.40,-0.66 -0.31,-0.70 -0.23,-0.74 -0.13,-0.76 -0.04,-0.77 0.04,-0.77 0.14,-0.76 0.23,-0.74 0.32,-0.71 0.40,-0.66 0.48,-0.61 0.54,-0.54 0.61,-0.48 0.66,-0.40 0.71,-0.32 0.74,-0.23 0.76,-0.14 0.77,-0.04 0.77,0.04 0.76,0.13 0.74,0.23 0.70,0.31 0.66,0.40 0.61,0.47 0.55,0.55 0.55,0.55 L 0.55,0.55 Z"/></g><g transform="translate(354.6666564941406 10) rotate(0 -7.666656494140625 48.333335876464844)" stroke="none"><path fill="#1e1e1e" d="M 0.77,0.19 Q 0.77,0.19 0.61,0.96 0.45,1.74 0.36,2.94 0.26,4.15 0.01,7.19 -0.23,10.23 -0.72,14.41 -1.22,18.59 -2.59,25.56 -3.96,32.53 -6.66,41.46 -9.36,50.38 -12.62,59.17 -15.88,67.95 -18.03,74.15 -20.18,80.36 -20.70,84.81 -21.22,89.27 -20.38,91.11 -19.54,92.96 -15.92,92.28 -12.30,91.61 -7.36,88.88 -2.43,86.16 0.65,84.23 3.73,82.30 5.05,81.48 6.36,80.65 6.46,80.61 6.56,80.57 6.67,80.56 6.77,80.56 6.88,80.58 6.98,80.61 7.07,80.67 7.16,80.73 7.23,80.81 7.29,80.89 7.33,80.99 7.36,81.10 7.37,81.20 7.37,81.31 7.34,81.41 7.30,81.51 7.24,81.60 7.18,81.68 7.09,81.75 7.00,81.81 6.90,81.84 6.80,81.87 6.69,81.86 6.58,81.86 6.48,81.82 6.38,81.78 6.30,81.72 6.22,81.65 6.16,81.56 6.11,81.47 6.08,81.36 6.06,81.26 6.07,81.15 6.08,81.05 6.12,80.95 6.16,80.85 6.23,80.77 6.31,80.69 6.40,80.64 6.49,80.59 6.60,80.57 6.70,80.55 6.81,80.57 6.91,80.58 7.01,80.63 7.11,80.68 7.18,80.76 7.25,80.83 7.30,80.93 7.35,81.03 7.36,81.13 7.37,81.24 7.35,81.34 7.33,81.45 7.28,81.54 7.23,81.63 7.14,81.70 7.06,81.77 7.06,81.77 7.06,81.77 5.75,82.60 4.43,83.42 1.32,85.37 -1.79,87.32 -6.92,90.12 -12.06,92.91 -15.91,93.49 -19.75,94.07 -21.14,91.66 -22.54,89.25 -22.00,84.58 -21.46,79.92 -19.32,73.69 -17.17,67.47 -13.93,58.72 -10.70,49.98 -8.03,41.12 -5.36,32.26 -4.02,25.34 -2.69,18.42 -2.22,14.27 -1.76,10.11 -1.56,7.08 -1.35,4.05 -1.29,2.68 -1.22,1.32 -1.00,0.56 -0.77,-0.19 -0.74,-0.28 -0.70,-0.37 -0.65,-0.45 -0.59,-0.53 -0.52,-0.59 -0.45,-0.66 -0.36,-0.70 -0.28,-0.74 -0.18,-0.77 -0.09,-0.79 0.00,-0.79 0.09,-0.79 0.19,-0.77 0.28,-0.74 0.37,-0.70 0.45,-0.65 0.52,-0.59 0.60,-0.52 0.65,-0.44 0.71,-0.36 0.74,-0.27 0.77,-0.18 0.78,-0.09 0.80,0.00 0.78,0.09 0.77,0.19 0.77,0.19 L 0.77,0.19 Z"/></g><g transform="translate(333.3333435058594 44.66667175292969) rotate(0 33 -6.6666717529296875)" stroke="none"><path fill="#1e1e1e" d="M -0.11,-0.81 Q -0.11,-0.81 1.22,-0.98 2.57,-1.15 3.74,-1.22 4.91,-1.28 8.42,-2.07 11.92,-2.85 19.37,-4.52 26.82,-6.19 35.18,-7.86 43.53,-9.53 49.95,-10.81 56.37,-12.09 59.10,-12.64 61.83,-13.18 61.94,-13.19 62.05,-13.19 62.15,-13.16 62.26,-13.13 62.35,-13.06 62.43,-13.00 62.50,-12.91 62.56,-12.82 62.60,-12.72 62.63,-12.62 62.63,-12.51 62.62,-12.40 62.59,-12.30 62.55,-12.19 62.48,-12.11 62.42,-12.02 62.32,-11.96 62.23,-11.90 62.13,-11.88 62.02,-11.85 61.91,-11.86 61.80,-11.86 61.70,-11.91 61.60,-11.95 61.52,-12.02 61.44,-12.09 61.38,-12.19 61.33,-12.28 61.31,-12.39 61.29,-12.50 61.30,-12.60 61.32,-12.71 61.36,-12.81 61.41,-12.91 61.49,-12.99 61.56,-13.06 61.66,-13.11 61.76,-13.16 61.87,-13.18 61.97,-13.19 62.08,-13.17 62.19,-13.16 62.28,-13.10 62.38,-13.05 62.45,-12.97 62.53,-12.89 62.57,-12.79 62.61,-12.69 62.62,-12.58 62.63,-12.47 62.61,-12.36 62.58,-12.26 62.52,-12.17 62.47,-12.07 62.38,-12.00 62.30,-11.94 62.20,-11.90 62.09,-11.86 62.09,-11.86 62.09,-11.86 59.37,-11.31 56.64,-10.76 50.22,-9.47 43.80,-8.18 35.47,-6.50 27.13,-4.82 19.68,-3.13 12.23,-1.44 8.63,-0.62 5.02,0.19 3.91,0.29 2.79,0.38 1.45,0.60 0.11,0.81 0.01,0.81 -0.08,0.81 -0.17,0.79 -0.27,0.77 -0.36,0.73 -0.45,0.68 -0.52,0.62 -0.60,0.55 -0.66,0.47 -0.72,0.39 -0.75,0.30 -0.79,0.21 -0.80,0.11 -0.82,0.01 -0.81,-0.08 -0.80,-0.18 -0.77,-0.27 -0.73,-0.36 -0.68,-0.45 -0.62,-0.53 -0.55,-0.60 -0.48,-0.66 -0.39,-0.71 -0.30,-0.76 -0.21,-0.78 -0.11,-0.81 -0.11,-0.81 L -0.11,-0.81 Z"/></g></svg>