<svg version="1.1" xmlns="http://www.w3.org/2000/svg" viewBox="0 0 276.66668701171875 156" width="276.66668701171875" height="156" filter="invert(93%) hue-rotate(180deg)" class="excalidraw-svg">
  <!-- svg-source:excalidraw -->
  
  <defs>
    <style class="style-fonts">
      
    </style>
    
  </defs>
  <rect x="0" y="0" width="276.66668701171875" height="156" fill="#ffffff"></rect><g transform="translate(28.66668701171875 37.33332824707031) rotate(0 2.9999847412109375 28)" stroke="none"><path fill="#1e1e1e" d="M 0.62,0.23 Q 0.62,0.23 0.10,1.78 -0.41,3.34 -1.21,6.07 -2.01,8.81 -3.12,12.85 -4.23,16.89 -4.89,19.75 -5.54,22.60 -7.72,32.45 -9.90,42.30 -11.41,49.73 -12.92,57.16 -14.12,63.02 -15.33,68.87 -16.01,70.78 -16.70,72.70 -16.74,72.80 -16.77,72.91 -16.83,73.00 -16.89,73.10 -16.97,73.18 -17.06,73.25 -17.15,73.31 -17.25,73.37 -17.36,73.40 -17.47,73.43 -17.58,73.43 -17.69,73.44 -17.80,73.41 -17.91,73.39 -18.01,73.34 -18.12,73.29 -18.20,73.22 -18.29,73.15 -18.36,73.06 -18.42,72.97 -18.47,72.87 -18.51,72.76 -18.53,72.65 -18.55,72.54 -18.54,72.43 -18.53,72.31 -18.65,70.76 -18.78,69.20 -17.68,62.25 -16.58,55.30 -13.61,44.10 -10.65,32.89 -6.51,21.97 -2.36,11.05 1.70,2.74 5.78,-5.55 9.28,-10.30 12.79,-15.04 16.13,-16.91 19.48,-18.79 21.29,-17.29 23.10,-15.78 23.13,-11.32 23.16,-6.86 22.00,-1.88 20.83,3.09 18.03,8.56 15.22,14.03 12.22,17.76 9.22,21.49 5.77,22.98 2.32,24.48 -0.46,23.77 -3.25,23.07 -5.13,21.15 -7.00,19.22 -7.06,19.14 -7.13,19.05 -7.16,18.95 -7.19,18.85 -7.19,18.75 -7.19,18.64 -7.15,18.54 -7.12,18.44 -7.06,18.36 -6.99,18.27 -6.90,18.21 -6.81,18.15 -6.71,18.13 -6.61,18.10 -6.50,18.11 -6.40,18.11 -6.30,18.15 -6.20,18.19 -6.12,18.26 -6.04,18.33 -5.98,18.42 -5.93,18.51 -5.91,18.62 -5.89,18.72 -5.90,18.83 -5.91,18.93 -5.96,19.03 -6.00,19.13 -6.08,19.20 -6.15,19.28 -6.24,19.33 -6.34,19.38 -6.44,19.39 -6.55,19.41 -6.65,19.39 -6.76,19.37 -6.85,19.32 -6.94,19.27 -7.02,19.19 -7.09,19.12 -7.13,19.02 -7.18,18.92 -7.19,18.82 -7.20,18.71 -7.17,18.61 -7.15,18.50 -7.09,18.41 -7.04,18.32 -6.96,18.25 -6.88,18.19 -6.78,18.15 -6.68,18.11 -6.57,18.10 -6.47,18.10 -6.36,18.13 -6.26,18.16 -6.17,18.22 -6.09,18.28 -6.09,18.28 -6.09,18.28 -4.40,19.79 -2.70,21.31 -0.51,21.76 1.66,22.22 4.53,21.03 7.40,19.84 10.23,16.37 13.07,12.89 15.87,7.71 18.68,2.54 19.90,-2.18 21.11,-6.92 21.34,-10.89 21.57,-14.86 20.22,-16.05 18.88,-17.25 16.61,-15.54 14.34,-13.83 10.94,-9.26 7.55,-4.68 3.51,3.53 -0.51,11.75 -4.63,22.58 -8.76,33.40 -11.72,44.50 -14.68,55.60 -15.78,62.35 -16.89,69.09 -16.80,70.89 -16.70,72.70 -16.74,72.80 -16.77,72.91 -16.83,73.00 -16.89,73.10 -16.97,73.18 -17.06,73.25 -17.15,73.31 -17.25,73.37 -17.36,73.40 -17.47,73.43 -17.58,73.43 -17.69,73.44 -17.80,73.41 -17.91,73.39 -18.01,73.34 -18.12,73.29 -18.20,73.22 -18.29,73.15 -18.36,73.06 -18.42,72.97 -18.47,72.87 -18.51,72.76 -18.53,72.65 -18.55,72.54 -18.54,72.43 -18.53,72.32 -17.80,70.41 -17.07,68.50 -15.84,62.66 -14.61,56.82 -13.10,49.37 -11.58,41.92 -9.36,32.08 -7.14,22.23 -6.47,19.35 -5.80,16.46 -4.68,12.41 -3.55,8.35 -2.72,5.57 -1.88,2.79 -1.25,1.27 -0.62,-0.23 -0.58,-0.30 -0.55,-0.37 -0.49,-0.43 -0.44,-0.49 -0.37,-0.54 -0.31,-0.59 -0.23,-0.62 -0.16,-0.64 -0.08,-0.65 -0.00,-0.66 0.07,-0.66 0.15,-0.65 0.23,-0.62 0.30,-0.59 0.37,-0.54 0.44,-0.50 0.49,-0.44 0.54,-0.38 0.58,-0.31 0.62,-0.23 0.64,-0.16 0.66,-0.08 0.66,-0.00 0.66,0.07 0.64,0.15 0.62,0.23 0.62,0.23 L 0.62,0.23 Z"></path></g><g transform="translate(42 74.66665649414062) rotate(0 2.333343505859375 8)" stroke="none"><path fill="#1e1e1e" d="M 0,0.65 Q 0,0.65 -1.32,0.72 -2.64,0.79 -3.61,1.34 -4.57,1.89 -5.88,3.41 -7.18,4.92 -8.26,7.23 -9.34,9.53 -9.57,12.69 -9.79,15.86 -9.89,17.32 -10.00,18.78 -7.37,19.86 -4.73,20.95 -1.54,19.61 1.65,18.27 4.87,14.76 8.10,11.26 10.24,7.53 12.37,3.80 12.96,0.67 13.54,-2.46 12.23,-3.67 10.91,-4.89 8.72,-4.22 6.53,-3.55 2.94,-0.82 -0.64,1.91 -0.73,1.96 -0.83,2.01 -0.93,2.03 -1.04,2.05 -1.14,2.03 -1.25,2.02 -1.34,1.97 -1.44,1.92 -1.51,1.84 -1.58,1.77 -1.63,1.67 -1.68,1.58 -1.69,1.47 -1.70,1.37 -1.68,1.26 -1.66,1.16 -1.61,1.07 -1.55,0.97 -1.47,0.90 -1.40,0.83 -1.30,0.79 -1.20,0.75 -1.09,0.74 -0.99,0.74 -0.88,0.76 -0.78,0.79 -0.69,0.85 -0.60,0.91 -0.54,0.99 -0.47,1.07 -0.44,1.17 -0.40,1.27 -0.40,1.38 -0.40,1.49 -0.43,1.59 -0.46,1.69 -0.52,1.77 -0.59,1.86 -0.67,1.92 -0.76,1.98 -0.86,2.01 -0.97,2.04 -1.07,2.04 -1.18,2.03 -1.28,2.00 -1.38,1.96 -1.46,1.89 -1.54,1.82 -1.60,1.73 -1.65,1.64 -1.68,1.54 -1.70,1.44 -1.69,1.33 -1.68,1.23 -1.64,1.13 -1.60,1.03 -1.52,0.95 -1.45,0.87 -1.45,0.87 -1.45,0.87 2.27,-2.15 6.01,-5.18 8.69,-5.91 11.38,-6.64 13.42,-4.84 15.46,-3.03 14.93,0.93 14.39,4.90 12.09,8.86 9.79,12.82 6.17,16.60 2.56,20.37 -1.30,21.73 -5.16,23.08 -8.33,21.50 -11.50,19.91 -11.72,17.78 -11.94,15.65 -11.54,12.18 -11.13,8.70 -9.83,6.21 -8.54,3.71 -6.95,2.06 -5.36,0.40 -4.04,-0.19 -2.72,-0.79 -1.36,-0.72 0,-0.65 0.07,-0.64 0.15,-0.63 0.23,-0.60 0.30,-0.58 0.37,-0.53 0.43,-0.49 0.48,-0.43 0.54,-0.37 0.57,-0.30 0.61,-0.23 0.63,-0.15 0.65,-0.07 0.65,0.00 0.65,0.07 0.63,0.15 0.61,0.23 0.57,0.30 0.54,0.37 0.48,0.43 0.43,0.49 0.37,0.53 0.30,0.58 0.23,0.60 0.15,0.63 0.07,0.64 -0.00,0.65 -0.00,0.65 L 0,0.65 Z"></path></g><g transform="translate(66 74) rotate(0 16.000015258789062 -19.666671752929688)" stroke="none"><path fill="#1e1e1e" d="M -0.25,0.62 Q -0.25,0.62 -1.19,0.29 -2.14,-0.04 -3.32,0.20 -4.50,0.45 -5.51,1.06 -6.52,1.68 -7.83,3.78 -9.13,5.88 -10.45,9.06 -11.77,12.24 -12.32,15.01 -12.88,17.78 -12.40,19.33 -11.91,20.89 -9.39,20.35 -6.87,19.81 -4.01,17.21 -1.16,14.60 2.73,8.75 6.63,2.90 9.81,-4.70 12.99,-12.32 15.11,-19.19 17.23,-26.06 18.70,-34.12 20.16,-42.18 20.59,-47.30 21.01,-52.42 20.44,-55.60 19.87,-58.77 18.83,-59.86 17.78,-60.94 17.78,-61.07 17.77,-61.20 17.79,-61.32 17.82,-61.45 17.87,-61.57 17.92,-61.68 18.00,-61.78 18.08,-61.88 18.19,-61.96 18.29,-62.04 18.40,-62.09 18.52,-62.14 18.65,-62.16 18.77,-62.18 18.90,-62.17 19.03,-62.17 19.15,-62.13 19.27,-62.09 19.38,-62.02 19.49,-61.95 19.58,-61.86 19.67,-61.77 19.73,-61.66 19.80,-61.55 19.83,-61.43 19.87,-61.31 17.97,-59.00 16.06,-56.69 14.26,-52.41 12.45,-48.13 10.71,-41.72 8.97,-35.30 8.04,-28.97 7.11,-22.63 6.90,-15.76 6.70,-8.89 7.57,-3.16 8.44,2.55 9.82,5.75 11.21,8.95 13.98,9.83 16.75,10.71 20.46,8.51 24.17,6.31 28.23,2.01 32.29,-2.29 35.38,-6.23 38.46,-10.16 40.53,-13.35 42.59,-16.53 43.48,-18.09 44.37,-19.66 44.46,-19.76 44.55,-19.87 44.66,-19.95 44.77,-20.04 44.90,-20.09 45.03,-20.14 45.17,-20.17 45.31,-20.19 45.45,-20.17 45.59,-20.16 45.73,-20.11 45.86,-20.07 45.98,-19.99 46.09,-19.91 46.19,-19.81 46.29,-19.71 46.36,-19.59 46.42,-19.46 46.46,-19.33 46.50,-19.19 46.50,-19.05 46.51,-18.91 46.48,-18.77 46.45,-18.64 46.39,-18.51 46.32,-18.38 46.03,-16.93 45.75,-15.47 44.83,-12.42 43.92,-9.38 42.79,-5.60 41.67,-1.83 40.47,2.82 39.26,7.48 38.18,11.04 37.10,14.60 36.06,16.29 35.03,17.97 34.95,18.14 34.87,18.31 34.76,18.46 34.64,18.61 34.49,18.72 34.34,18.84 34.17,18.92 34.00,18.99 33.82,19.02 33.63,19.06 33.44,19.05 33.26,19.03 33.08,18.98 32.90,18.92 32.74,18.82 32.58,18.73 32.44,18.59 32.31,18.46 32.22,18.30 32.12,18.14 32.06,17.96 32.01,17.78 32.00,17.59 31.99,17.40 32.02,17.22 32.06,17.03 31.13,16.77 30.21,16.51 28.99,13.66 27.77,10.81 26.81,8.10 25.85,5.40 25.82,5.29 25.80,5.19 25.81,5.08 25.82,4.98 25.87,4.88 25.91,4.79 25.99,4.71 26.06,4.63 26.15,4.58 26.25,4.53 26.35,4.51 26.46,4.50 26.56,4.51 26.67,4.53 26.76,4.58 26.85,4.63 26.93,4.71 27.00,4.79 27.05,4.88 27.09,4.98 27.10,5.08 27.11,5.19 27.09,5.29 27.07,5.40 27.01,5.49 26.96,5.58 26.88,5.65 26.80,5.72 26.70,5.76 26.60,5.80 26.49,5.80 26.39,5.81 26.28,5.78 26.18,5.75 26.09,5.69 26.01,5.63 25.94,5.55 25.88,5.46 25.84,5.36 25.81,5.26 25.81,5.15 25.81,5.05 25.84,4.95 25.88,4.85 25.94,4.76 26.01,4.68 26.09,4.62 26.18,4.56 26.28,4.53 26.39,4.50 26.49,4.51 26.60,4.51 26.70,4.55 26.80,4.59 26.88,4.66 26.96,4.73 27.01,4.82 27.07,4.91 27.07,4.91 27.07,4.91 28.21,7.46 29.34,10.01 30.69,12.24 32.03,14.46 33.53,16.22 35.03,17.97 34.95,18.14 34.87,18.31 34.76,18.46 34.64,18.61 34.49,18.72 34.34,18.84 34.17,18.92 34.00,18.99 33.82,19.02 33.63,19.06 33.44,19.05 33.26,19.03 33.08,18.98 32.90,18.92 32.74,18.82 32.58,18.73 32.44,18.59 32.31,18.46 32.22,18.30 32.12,18.14 32.06,17.96 32.01,17.78 32.00,17.59 31.99,17.40 32.02,17.22 32.06,17.03 33.12,15.34 34.18,13.66 35.32,10.19 36.45,6.72 37.77,2.04 39.09,-2.63 40.29,-6.38 41.50,-10.13 42.44,-13.08 43.39,-16.03 43.88,-17.84 44.37,-19.66 44.46,-19.76 44.55,-19.87 44.66,-19.95 44.77,-20.04 44.90,-20.09 45.03,-20.14 45.17,-20.17 45.31,-20.19 45.45,-20.17 45.59,-20.16 45.73,-20.11 45.86,-20.07 45.98,-19.99 46.09,-19.91 46.19,-19.81 46.29,-19.71 46.36,-19.59 46.42,-19.46 46.46,-19.33 46.50,-19.19 46.50,-19.05 46.51,-18.91 46.48,-18.77 46.45,-18.64 46.39,-18.51 46.32,-18.38 45.43,-16.82 44.54,-15.26 42.41,-12.00 40.28,-8.74 37.12,-4.72 33.95,-0.70 29.62,3.77 25.28,8.26 20.95,10.51 16.63,12.77 13.12,11.49 9.62,10.22 7.97,6.56 6.31,2.89 5.45,-3.02 4.58,-8.94 4.79,-15.94 5.00,-22.94 5.96,-29.40 6.92,-35.86 8.71,-42.41 10.50,-48.96 12.50,-53.54 14.50,-58.12 16.14,-59.53 17.78,-60.94 17.78,-61.07 17.77,-61.20 17.79,-61.32 17.82,-61.45 17.87,-61.57 17.92,-61.68 18.00,-61.78 18.08,-61.88 18.19,-61.96 18.29,-62.04 18.40,-62.09 18.52,-62.14 18.65,-62.16 18.77,-62.18 18.90,-62.17 19.03,-62.17 19.15,-62.13 19.27,-62.09 19.38,-62.02 19.49,-61.95 19.58,-61.86 19.67,-61.77 19.73,-61.66 19.80,-61.55 19.83,-61.43 19.87,-61.31 20.85,-60.31 21.83,-59.32 22.42,-55.80 23.01,-52.27 22.56,-47.05 22.11,-41.82 20.61,-33.65 19.11,-25.49 16.95,-18.53 14.79,-11.57 11.52,-3.79 8.25,3.98 4.19,10.01 0.12,16.04 -3.13,18.83 -6.39,21.63 -9.23,22.07 -12.07,22.51 -13.39,20.06 -14.71,17.62 -14.09,14.57 -13.47,11.52 -12.02,8.23 -10.57,4.94 -8.98,2.63 -7.39,0.33 -6.09,-0.38 -4.79,-1.10 -3.24,-1.29 -1.68,-1.48 -0.71,-1.05 0.25,-0.62 0.32,-0.58 0.39,-0.54 0.45,-0.49 0.51,-0.43 0.55,-0.36 0.60,-0.30 0.62,-0.22 0.65,-0.14 0.66,-0.06 0.67,0.01 0.66,0.09 0.65,0.17 0.62,0.24 0.59,0.32 0.54,0.38 0.49,0.45 0.43,0.50 0.37,0.56 0.29,0.59 0.22,0.63 0.14,0.65 0.06,0.66 -0.01,0.66 -0.09,0.66 -0.17,0.64 -0.25,0.62 -0.25,0.62 L -0.25,0.62 Z"></path></g><g transform="translate(114 65.33332824707031) rotate(0 -1 35.66667175292969)" stroke="none"><path fill="#1e1e1e" d="M 0.14,0.66 Q 0.14,0.66 -1.49,1.11 -3.13,1.55 -4.24,3.13 -5.34,4.70 -6.22,6.84 -7.09,8.99 -7.08,11.28 -7.07,13.56 -6.40,14.67 -5.73,15.78 -4.24,15.53 -2.74,15.28 -0.11,13.19 2.52,11.09 5.19,8.12 7.87,5.15 9.80,2.91 11.72,0.67 12.74,-0.46 13.75,-1.61 13.84,-1.69 13.92,-1.77 14.03,-1.83 14.13,-1.89 14.25,-1.92 14.36,-1.95 14.48,-1.95 14.60,-1.95 14.72,-1.92 14.83,-1.90 14.94,-1.84 15.05,-1.79 15.14,-1.71 15.23,-1.63 15.30,-1.54 15.37,-1.44 15.41,-1.33 15.45,-1.22 15.47,-1.10 15.48,-0.98 15.47,-0.86 15.46,-0.74 15.42,-0.63 15.38,-0.52 15.31,-0.42 15.25,-0.32 15.84,1.64 16.43,3.62 15.88,8.44 15.33,13.25 14.90,16.58 14.48,19.91 11.45,31.37 8.42,42.84 5.97,50.40 3.52,57.95 1.09,62.81 -1.34,67.66 -4.22,69.54 -7.10,71.41 -9.64,70.34 -12.19,69.28 -14.31,65.33 -16.43,61.38 -17.29,56.36 -18.15,51.33 -17.50,46.95 -16.85,42.57 -14.47,39.08 -12.09,35.59 -8.42,33.44 -4.75,31.29 -3.29,30.38 -1.83,29.47 -1.73,29.43 -1.63,29.39 -1.53,29.38 -1.42,29.37 -1.32,29.40 -1.21,29.42 -1.13,29.48 -1.04,29.54 -0.97,29.62 -0.90,29.70 -0.87,29.80 -0.83,29.90 -0.83,30.01 -0.83,30.12 -0.86,30.22 -0.89,30.32 -0.95,30.40 -1.01,30.49 -1.10,30.55 -1.19,30.61 -1.29,30.65 -1.39,30.68 -1.50,30.67 -1.60,30.67 -1.70,30.63 -1.80,30.60 -1.88,30.53 -1.97,30.46 -2.02,30.37 -2.08,30.28 -2.11,30.18 -2.13,30.08 -2.12,29.97 -2.11,29.86 -2.07,29.77 -2.03,29.67 -1.96,29.59 -1.89,29.51 -1.79,29.46 -1.70,29.41 -1.60,29.39 -1.49,29.37 -1.39,29.38 -1.28,29.40 -1.19,29.45 -1.09,29.49 -1.02,29.57 -0.94,29.64 -0.89,29.74 -0.85,29.83 -0.83,29.94 -0.82,30.04 -0.84,30.15 -0.86,30.25 -0.91,30.35 -0.97,30.44 -1.04,30.51 -1.12,30.58 -1.12,30.58 -1.12,30.58 -2.57,31.52 -4.01,32.45 -7.18,34.64 -10.35,36.83 -12.33,39.94 -14.31,43.05 -14.90,47.00 -15.49,50.94 -14.76,55.57 -14.02,60.20 -12.40,63.65 -10.77,67.10 -9.02,68.10 -7.27,69.10 -5.44,67.72 -3.61,66.34 -1.27,61.74 1.05,57.14 3.51,49.66 5.96,42.18 9.05,30.89 12.15,19.60 12.60,16.28 13.05,12.97 13.67,8.47 14.29,3.98 14.02,1.18 13.75,-1.61 13.84,-1.69 13.92,-1.77 14.03,-1.83 14.13,-1.89 14.25,-1.92 14.36,-1.95 14.48,-1.95 14.60,-1.95 14.72,-1.92 14.83,-1.90 14.94,-1.84 15.05,-1.79 15.14,-1.71 15.23,-1.63 15.30,-1.54 15.37,-1.44 15.41,-1.33 15.45,-1.22 15.47,-1.10 15.48,-0.98 15.47,-0.86 15.46,-0.74 15.42,-0.63 15.38,-0.52 15.31,-0.42 15.25,-0.32 14.23,0.81 13.22,1.96 11.28,4.21 9.33,6.47 6.52,9.56 3.71,12.66 0.65,14.91 -2.41,17.16 -4.41,17.22 -6.40,17.28 -7.64,15.50 -8.87,13.73 -8.83,11.03 -8.79,8.34 -7.78,5.97 -6.78,3.61 -5.27,1.79 -3.76,-0.02 -1.95,-0.34 -0.14,-0.66 -0.06,-0.67 0.01,-0.68 0.09,-0.67 0.17,-0.65 0.25,-0.62 0.33,-0.59 0.39,-0.54 0.46,-0.50 0.51,-0.43 0.57,-0.37 0.60,-0.30 0.64,-0.22 0.66,-0.14 0.67,-0.06 0.67,0.01 0.67,0.09 0.65,0.17 0.63,0.25 0.59,0.32 0.55,0.40 0.49,0.46 0.44,0.52 0.37,0.56 0.30,0.61 0.22,0.63 0.14,0.66 0.14,0.66 L 0.14,0.66 Z"></path></g><g transform="translate(135.3333740234375 85.33332824707031) rotate(0 7.33331298828125 -2.6666641235351562)" stroke="none"><path fill="#1e1e1e" d="M -0.58,-0.34 Q -0.58,-0.34 -0.03,-1.32 0.52,-2.29 1.14,-3.29 1.76,-4.29 2.76,-6.05 3.77,-7.81 4.57,-9.33 5.37,-10.84 6.57,-12.02 7.76,-13.20 9.13,-13.56 10.49,-13.92 12.05,-13.01 13.61,-12.10 14.74,-9.43 15.88,-6.75 16.53,-3.88 17.19,-1.00 16.68,1.83 16.16,4.67 14.64,6.32 13.13,7.97 10.50,8.07 7.88,8.18 5.51,7.07 3.14,5.97 1.38,3.69 -0.38,1.42 -0.47,-2.19 -0.57,-5.81 -0.56,-5.91 -0.55,-6.02 -0.50,-6.12 -0.46,-6.21 -0.38,-6.29 -0.31,-6.37 -0.22,-6.42 -0.12,-6.47 -0.02,-6.48 0.08,-6.50 0.18,-6.48 0.29,-6.47 0.38,-6.42 0.47,-6.37 0.55,-6.29 0.62,-6.21 0.66,-6.12 0.71,-6.02 0.72,-5.92 0.73,-5.81 0.71,-5.71 0.69,-5.60 0.63,-5.51 0.58,-5.42 0.50,-5.35 0.42,-5.28 0.32,-5.24 0.22,-5.20 0.11,-5.20 0.01,-5.19 -0.09,-5.22 -0.19,-5.25 -0.28,-5.31 -0.37,-5.37 -0.43,-5.45 -0.49,-5.54 -0.53,-5.64 -0.56,-5.74 -0.56,-5.84 -0.56,-5.95 -0.53,-6.05 -0.49,-6.15 -0.43,-6.24 -0.37,-6.32 -0.28,-6.38 -0.19,-6.44 -0.09,-6.47 0.01,-6.50 0.11,-6.49 0.22,-6.49 0.32,-6.45 0.41,-6.41 0.50,-6.34 0.58,-6.27 0.63,-6.18 0.69,-6.09 0.71,-5.98 0.73,-5.88 0.73,-5.88 0.73,-5.88 1.00,-2.77 1.28,0.33 2.83,1.95 4.38,3.57 6.20,4.41 8.03,5.26 9.86,5.44 11.68,5.62 12.53,4.74 13.37,3.86 13.91,1.66 14.44,-0.53 13.95,-3.20 13.46,-5.88 12.79,-8.15 12.13,-10.41 11.27,-11.21 10.40,-12.01 9.66,-11.89 8.92,-11.76 7.89,-10.88 6.86,-10.00 6.01,-8.49 5.17,-6.98 4.11,-5.22 3.04,-3.47 2.41,-2.50 1.77,-1.53 1.18,-0.59 0.58,0.34 0.53,0.41 0.48,0.47 0.41,0.52 0.35,0.57 0.27,0.61 0.20,0.64 0.12,0.66 0.04,0.67 -0.03,0.67 -0.12,0.66 -0.19,0.64 -0.27,0.62 -0.34,0.57 -0.41,0.53 -0.47,0.47 -0.53,0.42 -0.57,0.35 -0.61,0.28 -0.64,0.20 -0.66,0.12 -0.67,0.04 -0.67,-0.03 -0.66,-0.11 -0.64,-0.19 -0.61,-0.27 -0.58,-0.34 -0.58,-0.34 L -0.58,-0.34 Z"></path></g><g transform="translate(179.3333740234375 23.333328247070312) rotate(0 -2.000030517578125 36.66667175292969)" stroke="none"><path fill="#1e1e1e" d="M 0.38,0.58 Q 0.38,0.58 -0.05,1.01 -0.49,1.44 -0.56,2.16 -0.62,2.88 -0.66,5.09 -0.69,7.30 -0.66,11.90 -0.64,16.51 -1.18,23.51 -1.72,30.51 -2.69,38.48 -3.67,46.45 -4.27,52.68 -4.87,58.91 -4.75,63.35 -4.63,67.79 -3.83,69.39 -3.03,70.98 -3.04,71.16 -3.06,71.35 -3.12,71.52 -3.18,71.69 -3.28,71.84 -3.38,72.00 -3.51,72.12 -3.65,72.24 -3.80,72.33 -3.96,72.42 -4.14,72.47 -4.32,72.52 -4.50,72.52 -4.68,72.53 -4.86,72.49 -5.03,72.45 -5.20,72.37 -5.36,72.29 -5.50,72.17 -5.64,72.05 -5.75,71.91 -5.86,71.76 -5.92,71.59 -5.99,71.42 -6.02,71.24 -6.05,71.06 -4.01,68.86 -1.97,66.65 -0.03,62.23 1.91,57.81 1.96,57.72 2.01,57.62 2.10,57.56 2.18,57.49 2.27,57.45 2.37,57.41 2.48,57.40 2.59,57.40 2.69,57.42 2.79,57.45 2.88,57.51 2.97,57.57 3.03,57.66 3.10,57.74 3.13,57.84 3.16,57.94 3.16,58.05 3.16,58.15 3.13,58.25 3.10,58.35 3.03,58.44 2.97,58.52 2.88,58.58 2.79,58.64 2.69,58.67 2.59,58.70 2.48,58.70 2.38,58.69 2.28,58.65 2.18,58.61 2.10,58.54 2.02,58.48 1.96,58.38 1.91,58.29 1.88,58.19 1.86,58.09 1.87,57.98 1.88,57.87 1.93,57.78 1.97,57.68 2.04,57.60 2.12,57.53 2.21,57.48 2.31,57.43 2.41,57.41 2.51,57.39 2.62,57.41 2.72,57.43 2.82,57.48 2.91,57.53 2.99,57.60 3.06,57.68 3.10,57.78 3.15,57.87 3.16,57.98 3.17,58.08 3.15,58.19 3.13,58.29 3.13,58.29 3.13,58.29 1.39,63.18 -0.35,68.08 -1.69,69.53 -3.03,70.98 -3.04,71.16 -3.06,71.35 -3.12,71.52 -3.18,71.69 -3.28,71.84 -3.38,71.99 -3.51,72.12 -3.65,72.24 -3.80,72.33 -3.96,72.42 -4.14,72.47 -4.31,72.52 -4.50,72.52 -4.68,72.53 -4.86,72.49 -5.03,72.45 -5.20,72.37 -5.36,72.29 -5.50,72.17 -5.64,72.05 -5.75,71.91 -5.85,71.76 -5.92,71.59 -5.99,71.42 -6.02,71.24 -6.05,71.06 -6.88,69.54 -7.71,68.01 -7.83,63.31 -7.94,58.61 -7.29,52.34 -6.64,46.07 -5.58,38.17 -4.52,30.27 -3.87,23.38 -3.22,16.48 -3.11,11.84 -2.99,7.19 -2.82,4.78 -2.65,2.36 -2.22,1.22 -1.80,0.08 -1.09,-0.24 -0.38,-0.58 -0.31,-0.62 -0.23,-0.65 -0.15,-0.67 -0.07,-0.69 0.01,-0.69 0.09,-0.69 0.17,-0.67 0.25,-0.65 0.33,-0.61 0.40,-0.57 0.46,-0.51 0.53,-0.45 0.57,-0.38 0.62,-0.31 0.65,-0.23 0.68,-0.15 0.69,-0.07 0.70,0.01 0.68,0.09 0.67,0.17 0.64,0.25 0.61,0.33 0.56,0.40 0.51,0.47 0.45,0.52 0.38,0.58 0.38,0.58 L 0.38,0.58 Z"></path></g><g transform="translate(156 52) rotate(0 5.3333740234375 5.3333282470703125)" stroke="none"><path fill="#1e1e1e" d="M 0,0.70 Q 0,0.70 -1.53,0.85 -3.06,1.00 -4.08,1.04 -5.10,1.08 -5.55,1.34 -6.01,1.60 -6.16,1.58 -6.30,1.56 -6.44,1.51 -6.58,1.46 -6.70,1.37 -6.82,1.29 -6.92,1.18 -7.01,1.07 -7.08,0.94 -7.15,0.81 -7.19,0.67 -7.22,0.53 -7.22,0.38 -7.22,0.23 -7.19,0.09 -7.15,-0.04 -7.08,-0.17 -7.01,-0.30 -6.92,-0.41 -6.82,-0.52 -6.70,-0.61 -6.58,-0.69 -6.44,-0.74 -6.30,-0.79 -6.16,-0.81 -6.01,-0.83 -5.17,-0.51 -4.32,-0.19 -2.42,0.48 -0.51,1.16 3.17,2.97 6.86,4.77 11.26,6.96 15.65,9.15 15.74,9.21 15.83,9.27 15.89,9.35 15.96,9.44 15.99,9.54 16.02,9.64 16.02,9.75 16.02,9.85 15.99,9.95 15.95,10.05 15.89,10.14 15.82,10.22 15.73,10.28 15.65,10.34 15.54,10.37 15.44,10.40 15.33,10.39 15.23,10.38 15.13,10.34 15.03,10.30 14.95,10.23 14.87,10.17 14.82,10.07 14.76,9.98 14.74,9.88 14.72,9.77 14.73,9.67 14.74,9.56 14.79,9.47 14.83,9.37 14.91,9.29 14.98,9.22 15.07,9.17 15.17,9.12 15.27,9.10 15.38,9.09 15.48,9.10 15.59,9.12 15.68,9.17 15.77,9.22 15.85,9.30 15.92,9.38 15.96,9.47 16.01,9.57 16.02,9.68 16.03,9.78 16.01,9.89 15.98,9.99 15.93,10.08 15.87,10.17 15.79,10.24 15.71,10.31 15.61,10.35 15.51,10.39 15.40,10.39 15.30,10.40 15.20,10.37 15.09,10.34 15.09,10.34 15.09,10.34 10.62,8.36 6.15,6.38 2.42,4.92 -1.31,3.45 -3.66,2.53 -6.01,1.60 -6.16,1.58 -6.30,1.56 -6.44,1.51 -6.58,1.46 -6.70,1.37 -6.82,1.29 -6.92,1.18 -7.01,1.07 -7.08,0.94 -7.15,0.81 -7.19,0.67 -7.22,0.53 -7.22,0.38 -7.22,0.23 -7.19,0.09 -7.15,-0.04 -7.08,-0.17 -7.01,-0.30 -6.92,-0.41 -6.82,-0.52 -6.70,-0.61 -6.58,-0.69 -6.44,-0.74 -6.30,-0.79 -6.16,-0.81 -6.01,-0.83 -5.59,-0.96 -5.17,-1.08 -4.11,-1.04 -3.06,-1.00 -1.53,-0.85 0,-0.70 0.08,-0.69 0.16,-0.68 0.24,-0.65 0.32,-0.62 0.39,-0.57 0.46,-0.52 0.52,-0.46 0.57,-0.39 0.61,-0.32 0.65,-0.24 0.67,-0.16 0.69,-0.08 0.69,0.00 0.69,0.08 0.67,0.16 0.65,0.24 0.61,0.32 0.57,0.39 0.52,0.46 0.46,0.52 0.39,0.57 0.32,0.62 0.24,0.65 0.16,0.68 0.08,0.69 -0.00,0.70 -0.00,0.70 L 0,0.70 Z"></path></g><g transform="translate(188.66668701171875 72.66665649414062) rotate(0 38.333343505859375 28.333343505859375)" stroke="none"><path fill="#1e1e1e" d="M 0.58,-0.34 Q 0.58,-0.34 1.23,0.49 1.89,1.33 3.67,1.91 5.45,2.50 7.22,2.42 9.00,2.33 10.60,1.61 12.20,0.89 13.57,-0.81 14.95,-2.52 15.72,-4.69 16.50,-6.86 16.45,-8.62 16.41,-10.37 15.52,-11.74 14.64,-13.11 13.59,-13.82 12.54,-14.53 10.90,-13.72 9.26,-12.91 7.49,-10.77 5.72,-8.63 4.24,-4.92 2.75,-1.22 1.95,2.42 1.14,6.08 1.00,9.85 0.87,13.62 1.31,15.61 1.76,17.61 3.16,17.86 4.57,18.12 6.91,16.28 9.25,14.44 11.63,11.63 14.02,8.83 16.38,5.17 18.74,1.51 20.49,-1.93 22.24,-5.39 23.17,-7.46 24.10,-9.54 24.18,-9.67 24.27,-9.80 24.39,-9.90 24.50,-10.01 24.64,-10.08 24.78,-10.16 24.93,-10.20 25.08,-10.24 25.24,-10.24 25.40,-10.24 25.55,-10.20 25.70,-10.17 25.84,-10.10 25.98,-10.03 26.10,-9.92 26.22,-9.82 26.31,-9.69 26.40,-9.56 26.46,-9.42 26.52,-9.27 26.54,-9.11 26.56,-8.96 26.54,-8.80 26.53,-8.65 26.47,-8.50 26.42,-8.35 25.82,-6.00 25.23,-3.64 24.20,0.38 23.17,4.41 22.55,7.61 21.93,10.81 21.71,12.17 21.50,13.54 22.21,13.55 22.92,13.56 24.70,12.06 26.49,10.55 28.87,7.88 31.26,5.20 33.66,2.48 36.05,-0.24 37.41,-2.12 38.77,-4.00 39.54,-4.63 40.31,-5.26 40.43,-5.39 40.55,-5.52 40.70,-5.62 40.85,-5.72 41.01,-5.78 41.18,-5.84 41.36,-5.85 41.53,-5.87 41.71,-5.85 41.89,-5.82 42.05,-5.75 42.21,-5.69 42.36,-5.58 42.50,-5.48 42.62,-5.34 42.73,-5.21 42.81,-5.05 42.89,-4.89 42.93,-4.72 42.96,-4.54 42.96,-4.37 42.95,-4.19 42.91,-4.02 42.86,-3.85 42.78,-3.69 42.69,-3.54 42.22,-0.24 41.76,3.05 40.95,6.15 40.14,9.24 39.65,10.83 39.17,12.41 38.61,12.61 38.05,12.80 39.42,11.33 40.78,9.85 42.11,7.98 43.44,6.10 44.99,3.92 46.55,1.73 48.46,-0.16 50.38,-2.07 51.10,-1.52 51.83,-0.98 52.06,1.15 52.28,3.30 52.10,5.84 51.92,8.37 51.90,9.16 51.87,9.94 53.79,8.23 55.70,6.52 57.60,4.08 59.51,1.64 61.08,-0.56 62.66,-2.78 65.31,-3.92 67.97,-5.07 68.93,-3.73 69.89,-2.39 69.63,1.37 69.36,5.14 66.12,14.98 62.88,24.82 58.82,34.37 54.75,43.92 49.95,52.09 45.16,60.26 41.79,64.27 38.43,68.28 38.31,68.44 38.19,68.60 38.03,68.72 37.87,68.85 37.68,68.93 37.50,69.02 37.30,69.06 37.10,69.09 36.90,69.08 36.70,69.07 36.50,69.01 36.31,68.95 36.14,68.85 35.96,68.75 35.82,68.61 35.67,68.46 35.57,68.29 35.46,68.12 35.40,67.93 35.34,67.73 35.32,67.53 35.31,67.33 35.35,67.13 35.38,66.93 35.46,66.74 35.54,66.56 34.32,65.48 33.10,64.40 36.85,55.92 40.60,47.44 49.38,36.73 58.16,26.03 63.74,19.95 69.32,13.87 71.68,11.30 74.04,8.72 74.13,8.65 74.21,8.59 74.31,8.55 74.41,8.51 74.51,8.51 74.62,8.51 74.72,8.54 74.82,8.57 74.91,8.64 75.00,8.70 75.06,8.78 75.12,8.87 75.15,8.97 75.18,9.07 75.18,9.18 75.17,9.29 75.14,9.39 75.10,9.49 75.03,9.57 74.97,9.65 74.88,9.71 74.79,9.76 74.68,9.79 74.58,9.81 74.47,9.81 74.37,9.80 74.27,9.75 74.17,9.71 74.10,9.64 74.02,9.57 73.96,9.48 73.91,9.38 73.89,9.28 73.87,9.17 73.89,9.07 73.90,8.96 73.95,8.87 74.00,8.77 74.07,8.70 74.15,8.62 74.24,8.58 74.34,8.53 74.45,8.52 74.55,8.50 74.65,8.52 74.76,8.54 74.85,8.60 74.94,8.65 75.01,8.73 75.08,8.81 75.13,8.91 75.17,9.00 75.18,9.11 75.18,9.22 75.16,9.32 75.13,9.42 75.07,9.51 75.02,9.60 75.02,9.60 75.02,9.60 72.69,12.21 70.36,14.82 64.91,20.93 59.46,27.05 51.31,37.83 43.15,48.61 39.53,56.41 35.90,64.20 37.17,66.24 38.43,68.28 38.31,68.44 38.19,68.60 38.03,68.72 37.87,68.85 37.68,68.93 37.50,69.02 37.30,69.06 37.10,69.09 36.90,69.08 36.70,69.07 36.50,69.01 36.31,68.95 36.14,68.85 35.96,68.75 35.82,68.61 35.67,68.46 35.57,68.29 35.46,68.12 35.40,67.93 35.34,67.73 35.32,67.53 35.31,67.33 35.34,67.13 35.38,66.93 35.46,66.74 35.54,66.56 38.94,62.57 42.33,58.58 47.12,50.64 51.90,42.70 55.95,33.28 60.00,23.86 63.23,14.33 66.45,4.79 66.97,1.76 67.48,-1.27 66.68,-2.41 65.88,-3.56 65.28,-2.43 64.68,-1.29 63.11,0.93 61.54,3.17 59.65,5.79 57.76,8.42 55.68,10.56 53.59,12.69 52.12,12.57 50.66,12.44 49.65,10.33 48.64,8.22 48.85,5.76 49.05,3.29 49.13,1.85 49.21,0.41 49.05,1.90 48.89,3.39 47.37,5.57 45.85,7.76 44.44,9.85 43.03,11.95 41.57,13.50 40.11,15.06 38.32,14.27 36.53,13.47 36.75,10.93 36.97,8.39 37.81,5.37 38.66,2.36 39.27,-0.18 39.88,-2.72 40.10,-3.99 40.31,-5.26 40.43,-5.39 40.55,-5.52 40.70,-5.62 40.85,-5.72 41.01,-5.78 41.18,-5.84 41.36,-5.85 41.53,-5.87 41.71,-5.85 41.89,-5.82 42.05,-5.75 42.21,-5.69 42.36,-5.58 42.50,-5.48 42.62,-5.34 42.73,-5.21 42.81,-5.05 42.89,-4.89 42.93,-4.72 42.96,-4.54 42.96,-4.37 42.95,-4.19 42.91,-4.02 42.86,-3.85 42.78,-3.69 42.69,-3.54 41.89,-2.91 41.08,-2.29 39.65,-0.32 38.21,1.64 35.83,4.38 33.45,7.11 30.91,10.06 28.37,13.02 25.78,14.84 23.19,16.66 21.74,16.37 20.28,16.09 19.47,13.15 18.66,10.22 19.35,6.90 20.04,3.58 21.19,-0.50 22.34,-4.58 23.22,-7.06 24.10,-9.54 24.18,-9.67 24.27,-9.80 24.39,-9.90 24.50,-10.01 24.64,-10.08 24.78,-10.16 24.93,-10.20 25.08,-10.24 25.24,-10.24 25.40,-10.24 25.55,-10.20 25.70,-10.17 25.84,-10.10 25.98,-10.03 26.10,-9.92 26.22,-9.82 26.31,-9.69 26.40,-9.56 26.46,-9.42 26.52,-9.27 26.54,-9.12 26.56,-8.96 26.54,-8.80 26.53,-8.65 26.47,-8.50 26.42,-8.35 25.44,-6.30 24.47,-4.25 22.65,-0.69 20.83,2.85 18.39,6.66 15.95,10.47 13.37,13.51 10.78,16.55 7.73,18.54 4.69,20.53 2.44,19.88 0.19,19.23 -0.74,16.39 -1.68,13.54 -1.45,9.54 -1.22,5.53 -0.29,1.71 0.64,-2.10 2.37,-6.05 4.09,-10.01 6.25,-12.36 8.42,-14.72 10.63,-15.47 12.84,-16.23 14.53,-15.20 16.22,-14.17 17.27,-12.35 18.32,-10.53 18.33,-8.39 18.33,-6.25 17.42,-3.76 16.51,-1.28 14.82,0.73 13.13,2.76 11.12,3.61 9.11,4.47 6.92,4.48 4.72,4.48 2.56,3.49 0.40,2.50 -0.08,1.42 -0.58,0.34 -0.61,0.27 -0.64,0.19 -0.66,0.11 -0.67,0.03 -0.67,-0.04 -0.66,-0.12 -0.64,-0.20 -0.61,-0.28 -0.57,-0.35 -0.53,-0.42 -0.47,-0.47 -0.41,-0.53 -0.34,-0.57 -0.27,-0.62 -0.19,-0.64 -0.12,-0.66 -0.03,-0.67 0.04,-0.67 0.12,-0.66 0.20,-0.64 0.27,-0.61 0.35,-0.57 0.41,-0.52 0.48,-0.47 0.53,-0.41 0.58,-0.34 0.58,-0.34 L 0.58,-0.34 Z"></path></g></svg>