<svg xmlns="http://www.w3.org/2000/svg" version="1.1" viewBox="0 0 228.66668701171875 201.3333282470703" width="228.66668701171875" height="201.3333282470703">
  <!-- svg-source:excalidraw -->
  
  <defs>
    <style class="style-fonts">
      
    </style>
    
  </defs>
  <rect x="0" y="0" width="228.66668701171875" height="201.3333282470703" fill="#ffffff"/><g transform="translate(18 20.666671752929688) rotate(0 6.66668701171875 0.3333282470703125)" stroke="none"><path fill="#1971c2" d="M 0.12,-0.64 Q 0.12,-0.64 1.10,-0.54 2.08,-0.44 3.39,-0.38 4.69,-0.31 6.41,-0.26 8.12,-0.22 11.06,-0.10 14.00,0.01 14.10,0.02 14.21,0.04 14.30,0.09 14.40,0.14 14.47,0.22 14.54,0.30 14.59,0.39 14.63,0.49 14.64,0.60 14.65,0.70 14.63,0.81 14.60,0.91 14.55,1.00 14.49,1.09 14.41,1.16 14.33,1.23 14.23,1.27 14.13,1.30 14.03,1.31 13.92,1.31 13.82,1.28 13.71,1.26 13.63,1.20 13.54,1.13 13.48,1.05 13.41,0.96 13.38,0.86 13.35,0.76 13.35,0.66 13.35,0.55 13.38,0.45 13.42,0.35 13.48,0.27 13.55,0.18 13.64,0.12 13.72,0.06 13.83,0.04 13.93,0.01 14.04,0.01 14.14,0.02 14.24,0.06 14.34,0.10 14.42,0.17 14.50,0.24 14.55,0.33 14.61,0.42 14.63,0.53 14.65,0.63 14.64,0.74 14.63,0.84 14.58,0.94 14.54,1.03 14.46,1.11 14.39,1.19 14.29,1.24 14.20,1.29 14.09,1.30 13.99,1.32 13.99,1.32 13.99,1.32 11.04,1.38 8.09,1.45 6.34,1.43 4.59,1.41 3.17,1.31 1.75,1.21 0.81,0.92 -0.12,0.64 -0.20,0.62 -0.27,0.59 -0.34,0.55 -0.41,0.51 -0.46,0.45 -0.52,0.39 -0.56,0.32 -0.60,0.26 -0.62,0.18 -0.64,0.10 -0.65,0.02 -0.65,-0.05 -0.64,-0.12 -0.62,-0.20 -0.59,-0.27 -0.55,-0.34 -0.50,-0.41 -0.45,-0.47 -0.39,-0.52 -0.33,-0.56 -0.25,-0.60 -0.18,-0.63 -0.10,-0.64 -0.02,-0.65 0.05,-0.65 0.12,-0.64 0.12,-0.64 L 0.12,-0.64 Z"/></g><g transform="translate(34 25.333328247070312) rotate(0 9 -4.333320617675781)" stroke="none"><path fill="#1971c2" d="M -0.23,-0.61 Q -0.23,-0.61 1.27,-1.26 2.77,-1.91 4.00,-2.35 5.22,-2.80 6.59,-3.88 7.96,-4.97 9.33,-6.21 10.70,-7.44 12.03,-8.90 13.37,-10.36 14.31,-11.54 15.25,-12.73 15.85,-13.63 16.45,-14.52 16.52,-14.59 16.60,-14.67 16.68,-14.72 16.77,-14.77 16.87,-14.80 16.96,-14.83 17.06,-14.83 17.16,-14.84 17.26,-14.82 17.36,-14.80 17.45,-14.76 17.55,-14.72 17.63,-14.65 17.70,-14.59 17.77,-14.51 17.83,-14.43 17.87,-14.34 17.91,-14.25 17.93,-14.15 17.94,-14.05 17.94,-13.95 17.93,-13.85 17.90,-13.75 17.87,-13.65 17.82,-13.57 17.76,-13.48 17.76,-12.62 17.75,-11.75 17.50,-10.07 17.24,-8.38 16.94,-6.13 16.65,-3.88 16.29,-1.58 15.93,0.71 15.29,3.74 14.64,6.78 14.60,6.88 14.57,6.98 14.50,7.07 14.44,7.15 14.35,7.21 14.26,7.26 14.15,7.29 14.05,7.32 13.94,7.31 13.84,7.30 13.74,7.26 13.64,7.22 13.56,7.15 13.48,7.08 13.43,6.98 13.38,6.89 13.36,6.79 13.34,6.68 13.35,6.58 13.37,6.47 13.41,6.38 13.46,6.28 13.54,6.21 13.61,6.13 13.70,6.08 13.80,6.03 13.91,6.02 14.01,6.01 14.11,6.02 14.22,6.04 14.31,6.10 14.40,6.15 14.48,6.23 14.55,6.31 14.59,6.40 14.63,6.50 14.64,6.61 14.65,6.71 14.62,6.82 14.60,6.92 14.54,7.01 14.49,7.10 14.40,7.17 14.32,7.23 14.22,7.27 14.12,7.31 14.01,7.31 13.91,7.31 13.81,7.28 13.71,7.25 13.62,7.19 13.53,7.13 13.47,7.04 13.41,6.96 13.38,6.85 13.34,6.75 13.35,6.65 13.35,6.54 13.35,6.54 13.35,6.54 13.84,3.51 14.34,0.48 14.62,-1.81 14.91,-4.11 15.21,-6.38 15.52,-8.64 15.79,-10.36 16.06,-12.08 16.24,-12.74 16.42,-13.40 16.43,-13.96 16.45,-14.52 16.52,-14.59 16.60,-14.67 16.68,-14.72 16.77,-14.77 16.87,-14.80 16.96,-14.83 17.06,-14.83 17.16,-14.84 17.26,-14.82 17.36,-14.80 17.45,-14.76 17.55,-14.72 17.63,-14.65 17.70,-14.59 17.77,-14.51 17.83,-14.43 17.87,-14.34 17.91,-14.25 17.93,-14.15 17.94,-14.05 17.94,-13.95 17.93,-13.85 17.90,-13.75 17.87,-13.65 17.82,-13.57 17.76,-13.48 17.16,-12.58 16.56,-11.69 15.58,-10.46 14.60,-9.23 13.22,-7.70 11.83,-6.18 10.41,-4.91 8.99,-3.64 7.40,-2.44 5.81,-1.24 4.58,-0.81 3.35,-0.38 1.79,0.11 0.23,0.61 0.15,0.63 0.07,0.65 -0.00,0.65 -0.08,0.65 -0.15,0.63 -0.23,0.61 -0.30,0.57 -0.37,0.53 -0.43,0.48 -0.49,0.43 -0.53,0.36 -0.58,0.30 -0.61,0.22 -0.63,0.15 -0.64,0.07 -0.65,-0.00 -0.64,-0.08 -0.63,-0.15 -0.60,-0.23 -0.58,-0.30 -0.53,-0.37 -0.48,-0.43 -0.43,-0.48 -0.37,-0.54 -0.30,-0.57 -0.23,-0.61 -0.23,-0.61 L -0.23,-0.61 Z"/></g><g transform="translate(72.66668701171875 72.66667175292969) rotate(0 5.666656494140625 -0.3333282470703125)" stroke="none"><path fill="#1971c2" d="M -0.21,-0.64 Q -0.21,-0.64 0.35,-0.91 0.91,-1.18 2.09,-1.09 3.26,-1.00 4.43,-0.95 5.59,-0.91 7.05,-0.83 8.50,-0.76 10.25,-0.71 12.00,-0.65 12.11,-0.63 12.21,-0.62 12.30,-0.56 12.40,-0.51 12.47,-0.44 12.54,-0.36 12.59,-0.26 12.63,-0.17 12.64,-0.06 12.65,0.04 12.63,0.14 12.60,0.24 12.55,0.33 12.49,0.42 12.41,0.49 12.33,0.56 12.23,0.60 12.13,0.64 12.02,0.64 11.92,0.65 11.82,0.62 11.71,0.59 11.63,0.53 11.54,0.47 11.48,0.38 11.41,0.30 11.38,0.20 11.35,0.10 11.35,-0.00 11.35,-0.11 11.38,-0.21 11.42,-0.31 11.48,-0.39 11.55,-0.48 11.64,-0.53 11.72,-0.59 11.83,-0.62 11.93,-0.65 12.04,-0.64 12.14,-0.64 12.24,-0.59 12.34,-0.55 12.42,-0.49 12.50,-0.42 12.55,-0.32 12.61,-0.23 12.63,-0.13 12.65,-0.02 12.64,0.07 12.63,0.18 12.58,0.27 12.54,0.37 12.46,0.44 12.39,0.52 12.29,0.57 12.20,0.62 12.09,0.64 11.99,0.65 11.99,0.65 11.99,0.65 10.24,0.68 8.48,0.70 7.01,0.73 5.53,0.77 4.30,0.72 3.08,0.67 2.23,0.54 1.38,0.41 0.79,0.53 0.21,0.64 0.13,0.66 0.05,0.67 -0.02,0.67 -0.10,0.67 -0.18,0.64 -0.26,0.62 -0.33,0.58 -0.40,0.54 -0.46,0.48 -0.52,0.42 -0.56,0.35 -0.61,0.29 -0.63,0.21 -0.66,0.13 -0.67,0.05 -0.67,-0.02 -0.66,-0.10 -0.65,-0.18 -0.61,-0.26 -0.58,-0.33 -0.53,-0.40 -0.48,-0.47 -0.42,-0.52 -0.36,-0.57 -0.28,-0.60 -0.21,-0.64 -0.21,-0.64 L -0.21,-0.64 Z"/></g><g transform="translate(90.66668701171875 78.00001525878906) rotate(0 6.666656494140625 -2.66668701171875)" stroke="none"><path fill="#1971c2" d="M 0,-0.67 Q 0,-0.67 0.74,-0.72 1.49,-0.76 2.40,-1.32 3.32,-1.88 4.29,-2.67 5.26,-3.46 6.42,-4.72 7.58,-5.98 8.65,-7.28 9.72,-8.59 10.36,-9.50 10.99,-10.42 11.45,-11.19 11.92,-11.97 12.10,-12.10 12.29,-12.23 12.35,-12.32 12.41,-12.40 12.50,-12.46 12.58,-12.53 12.67,-12.57 12.77,-12.62 12.87,-12.64 12.98,-12.66 13.08,-12.65 13.19,-12.64 13.29,-12.61 13.39,-12.58 13.48,-12.53 13.57,-12.47 13.64,-12.40 13.72,-12.33 13.77,-12.24 13.83,-12.15 13.86,-12.05 13.89,-11.95 13.90,-11.84 13.90,-11.74 13.89,-11.63 13.87,-11.53 13.82,-11.43 13.78,-11.34 13.73,-10.79 13.69,-10.24 13.65,-8.84 13.61,-7.44 13.39,-5.64 13.18,-3.84 13.09,-1.78 13.00,0.27 12.95,1.92 12.90,3.57 12.78,5.45 12.65,7.34 12.63,7.44 12.61,7.55 12.56,7.64 12.51,7.73 12.43,7.81 12.36,7.88 12.26,7.92 12.16,7.96 12.06,7.97 11.95,7.98 11.85,7.96 11.74,7.93 11.65,7.88 11.56,7.82 11.49,7.74 11.43,7.66 11.39,7.56 11.35,7.46 11.35,7.35 11.34,7.25 11.37,7.15 11.40,7.04 11.46,6.96 11.53,6.87 11.61,6.81 11.70,6.74 11.80,6.71 11.90,6.68 12.00,6.68 12.11,6.68 12.21,6.72 12.31,6.75 12.39,6.82 12.48,6.88 12.54,6.97 12.60,7.06 12.62,7.16 12.65,7.27 12.64,7.37 12.63,7.48 12.59,7.58 12.55,7.68 12.48,7.76 12.41,7.84 12.32,7.89 12.23,7.94 12.12,7.96 12.02,7.98 11.92,7.97 11.81,7.96 11.71,7.91 11.62,7.87 11.54,7.79 11.47,7.72 11.42,7.62 11.37,7.53 11.35,7.42 11.34,7.32 11.34,7.32 11.34,7.32 11.27,5.42 11.20,3.53 11.23,1.86 11.25,0.20 11.35,-1.92 11.44,-4.04 11.64,-5.77 11.85,-7.50 11.90,-9.00 11.95,-10.50 12.12,-11.37 12.29,-12.23 12.35,-12.32 12.41,-12.40 12.50,-12.46 12.58,-12.53 12.67,-12.57 12.77,-12.62 12.87,-12.64 12.98,-12.66 13.08,-12.65 13.19,-12.64 13.29,-12.61 13.39,-12.58 13.48,-12.53 13.57,-12.47 13.64,-12.40 13.72,-12.33 13.77,-12.24 13.83,-12.15 13.86,-12.05 13.89,-11.95 13.90,-11.84 13.90,-11.74 13.89,-11.63 13.87,-11.53 13.82,-11.43 13.78,-11.34 13.57,-11.19 13.35,-11.04 12.88,-10.24 12.40,-9.44 11.72,-8.47 11.05,-7.49 9.95,-6.15 8.84,-4.81 7.58,-3.46 6.32,-2.11 5.21,-1.26 4.10,-0.41 2.84,0.17 1.57,0.76 0.78,0.72 0,0.67 -0.08,0.66 -0.16,0.65 -0.23,0.62 -0.31,0.59 -0.38,0.55 -0.44,0.50 -0.50,0.44 -0.55,0.38 -0.59,0.31 -0.63,0.23 -0.65,0.16 -0.67,0.08 -0.67,-0.00 -0.67,-0.08 -0.65,-0.16 -0.63,-0.23 -0.59,-0.31 -0.55,-0.38 -0.50,-0.44 -0.44,-0.50 -0.38,-0.55 -0.31,-0.59 -0.23,-0.62 -0.16,-0.65 -0.08,-0.66 0.00,-0.67 0.00,-0.67 L 0,-0.67 Z"/></g><g transform="translate(113.3333740234375 113.33332824707031) rotate(0 6.6666259765625 1)" stroke="none"><path fill="#1971c2" d="M 0.54,-0.36 Q 0.54,-0.36 0.92,0.10 1.30,0.57 2.42,0.68 3.54,0.79 5.15,0.70 6.76,0.60 8.81,0.44 10.86,0.28 12.73,0.14 14.60,0.01 14.71,0.02 14.81,0.02 14.91,0.06 15.01,0.11 15.09,0.18 15.17,0.25 15.22,0.34 15.28,0.43 15.30,0.53 15.32,0.64 15.30,0.74 15.29,0.85 15.24,0.94 15.20,1.04 15.12,1.12 15.05,1.19 14.95,1.24 14.86,1.29 14.76,1.30 14.65,1.32 14.55,1.30 14.44,1.28 14.35,1.23 14.25,1.18 14.18,1.10 14.11,1.02 14.07,0.92 14.03,0.83 14.02,0.72 14.01,0.61 14.03,0.51 14.06,0.41 14.11,0.32 14.17,0.23 14.25,0.16 14.33,0.09 14.43,0.06 14.53,0.02 14.64,0.01 14.74,0.01 14.85,0.04 14.95,0.07 15.03,0.13 15.12,0.19 15.18,0.28 15.25,0.36 15.28,0.47 15.31,0.57 15.31,0.67 15.31,0.78 15.27,0.88 15.24,0.98 15.17,1.06 15.10,1.15 15.02,1.20 14.93,1.26 14.82,1.29 14.72,1.32 14.72,1.32 14.72,1.32 12.87,1.52 11.02,1.72 8.93,2.02 6.85,2.31 5.04,2.40 3.24,2.48 1.73,2.10 0.23,1.72 -0.15,1.04 -0.54,0.36 -0.58,0.29 -0.62,0.22 -0.63,0.14 -0.65,0.06 -0.65,-0.01 -0.65,-0.09 -0.63,-0.16 -0.61,-0.24 -0.57,-0.31 -0.53,-0.38 -0.48,-0.44 -0.42,-0.50 -0.36,-0.54 -0.29,-0.58 -0.22,-0.61 -0.14,-0.64 -0.06,-0.65 0.01,-0.66 0.08,-0.64 0.16,-0.63 0.24,-0.60 0.31,-0.57 0.38,-0.53 0.44,-0.48 0.49,-0.42 0.54,-0.36 0.54,-0.36 L 0.54,-0.36 Z"/></g><g transform="translate(136 123.33332824707031) rotate(0 4.66668701171875 -5)" stroke="none"><path fill="#1971c2" d="M -0.58,-0.33 Q -0.58,-0.33 0.15,-1.68 0.90,-3.04 1.81,-4.40 2.72,-5.76 3.45,-7.43 4.19,-9.09 4.90,-10.59 5.61,-12.10 6.11,-13.12 6.60,-14.14 6.80,-14.74 7.00,-15.34 7.82,-15.76 8.65,-16.17 9.29,-14.80 9.93,-13.42 9.99,-12.83 10.05,-12.24 9.70,-9.04 9.34,-5.84 8.99,-3.36 8.64,-0.87 8.31,2.58 7.98,6.04 7.96,6.15 7.93,6.25 7.88,6.34 7.82,6.43 7.74,6.50 7.66,6.56 7.56,6.60 7.46,6.64 7.35,6.64 7.25,6.65 7.14,6.62 7.04,6.59 6.95,6.52 6.87,6.46 6.81,6.38 6.74,6.29 6.71,6.19 6.68,6.09 6.68,5.98 6.68,5.88 6.72,5.78 6.75,5.68 6.82,5.59 6.89,5.51 6.97,5.45 7.06,5.39 7.17,5.37 7.27,5.34 7.38,5.35 7.48,5.36 7.58,5.40 7.68,5.44 7.76,5.51 7.84,5.58 7.89,5.67 7.94,5.76 7.96,5.87 7.98,5.97 7.97,6.08 7.96,6.18 7.91,6.28 7.86,6.37 7.79,6.45 7.72,6.53 7.62,6.57 7.53,6.62 7.42,6.64 7.32,6.65 7.21,6.63 7.11,6.61 7.01,6.56 6.92,6.51 6.85,6.43 6.78,6.35 6.74,6.26 6.69,6.16 6.68,6.05 6.67,5.95 6.67,5.95 6.67,5.95 6.85,2.42 7.03,-1.10 7.37,-3.56 7.71,-6.03 8.07,-9.06 8.44,-12.09 8.39,-12.63 8.34,-13.18 8.35,-13.99 8.37,-14.80 8.15,-14.15 7.93,-13.50 7.44,-12.48 6.95,-11.47 6.24,-9.98 5.54,-8.49 4.74,-6.71 3.94,-4.94 3.05,-3.63 2.16,-2.32 1.37,-0.99 0.58,0.33 0.53,0.39 0.48,0.46 0.42,0.51 0.36,0.56 0.28,0.60 0.21,0.63 0.13,0.65 0.05,0.67 -0.02,0.66 -0.10,0.66 -0.18,0.64 -0.26,0.62 -0.33,0.58 -0.40,0.54 -0.46,0.48 -0.51,0.42 -0.56,0.35 -0.60,0.29 -0.63,0.21 -0.65,0.13 -0.66,0.05 -0.67,-0.02 -0.66,-0.10 -0.64,-0.18 -0.61,-0.25 -0.58,-0.33 -0.58,-0.33 L -0.58,-0.33 Z"/></g><g transform="translate(158.66668701171875 173.3333282470703) rotate(0 3.666656494140625 0.6666717529296875)" stroke="none"><path fill="#1971c2" d="M 0.37,-0.56 Q 0.37,-0.56 0.96,-0.21 1.55,0.12 2.23,0.23 2.92,0.33 5.10,0.17 7.28,0.01 7.39,0.02 7.50,0.03 7.59,0.07 7.69,0.11 7.77,0.19 7.85,0.26 7.90,0.35 7.95,0.44 7.97,0.55 7.98,0.65 7.97,0.76 7.95,0.86 7.90,0.96 7.86,1.05 7.78,1.13 7.70,1.20 7.61,1.25 7.51,1.29 7.41,1.30 7.30,1.32 7.20,1.30 7.09,1.27 7.00,1.22 6.91,1.17 6.84,1.09 6.77,1.01 6.73,0.91 6.69,0.81 6.68,0.70 6.67,0.60 6.70,0.50 6.73,0.39 6.79,0.30 6.85,0.22 6.93,0.15 7.01,0.09 7.11,0.05 7.21,0.02 7.32,0.01 7.43,0.01 7.53,0.05 7.63,0.08 7.71,0.14 7.80,0.20 7.86,0.29 7.92,0.38 7.95,0.48 7.98,0.58 7.98,0.69 7.97,0.79 7.93,0.89 7.90,0.99 7.83,1.07 7.76,1.16 7.67,1.21 7.58,1.27 7.48,1.29 7.37,1.32 7.37,1.32 7.37,1.32 5.01,1.58 2.65,1.84 1.69,1.62 0.74,1.41 0.18,0.98 -0.37,0.56 -0.43,0.50 -0.49,0.45 -0.54,0.38 -0.59,0.32 -0.62,0.24 -0.65,0.17 -0.66,0.09 -0.67,0.01 -0.66,-0.07 -0.65,-0.15 -0.63,-0.22 -0.60,-0.30 -0.55,-0.37 -0.51,-0.43 -0.45,-0.49 -0.39,-0.54 -0.32,-0.58 -0.24,-0.62 -0.17,-0.64 -0.09,-0.66 -0.01,-0.67 0.07,-0.67 0.14,-0.65 0.22,-0.63 0.30,-0.59 0.37,-0.56 0.37,-0.56 L 0.37,-0.56 Z"/></g><g transform="translate(171.3333740234375 178.00001525878906) rotate(0 4.666656494140625 1.33331298828125)" stroke="none"><path fill="#1971c2" d="M -0.30,-0.60 Q -0.30,-0.60 0.42,-1.04 1.16,-1.47 2.14,-2.52 3.12,-3.58 4.14,-4.80 5.15,-6.02 5.97,-7.11 6.78,-8.19 7.51,-9.13 8.25,-10.06 8.99,-9.83 9.74,-9.61 9.94,-8.56 10.14,-7.52 10.19,-6.70 10.24,-5.89 10.07,-3.00 9.91,-0.12 9.65,2.82 9.38,5.76 9.23,7.94 9.08,10.12 8.06,11.66 7.04,13.20 6.94,13.25 6.85,13.29 6.74,13.30 6.64,13.32 6.53,13.30 6.43,13.28 6.34,13.22 6.24,13.17 6.17,13.09 6.10,13.01 6.06,12.91 6.02,12.81 6.02,12.71 6.01,12.60 6.03,12.50 6.06,12.40 6.12,12.31 6.18,12.22 6.26,12.15 6.34,12.09 6.44,12.05 6.54,12.02 6.65,12.01 6.76,12.01 6.86,12.04 6.96,12.08 7.05,12.14 7.13,12.20 7.19,12.29 7.25,12.38 7.28,12.48 7.31,12.58 7.31,12.69 7.31,12.79 7.27,12.89 7.23,12.99 7.16,13.07 7.09,13.16 7.00,13.21 6.91,13.27 6.81,13.29 6.71,13.32 6.60,13.31 6.50,13.30 6.40,13.25 6.30,13.21 6.22,13.14 6.15,13.07 6.09,12.97 6.04,12.88 6.02,12.78 6.01,12.67 6.02,12.57 6.04,12.46 6.08,12.37 6.13,12.27 6.21,12.20 6.28,12.12 6.28,12.12 6.28,12.12 6.76,11.07 7.24,10.02 7.32,7.80 7.40,5.58 7.66,2.66 7.93,-0.24 8.11,-3.01 8.30,-5.79 8.26,-6.56 8.22,-7.33 8.52,-8.04 8.81,-8.74 8.46,-7.97 8.11,-7.20 7.27,-6.08 6.43,-4.96 5.37,-3.69 4.30,-2.43 3.10,-1.24 1.90,-0.05 1.10,0.27 0.30,0.60 0.22,0.63 0.14,0.66 0.06,0.67 -0.01,0.68 -0.09,0.66 -0.17,0.65 -0.25,0.62 -0.32,0.59 -0.39,0.54 -0.46,0.50 -0.51,0.43 -0.56,0.37 -0.60,0.30 -0.64,0.22 -0.65,0.14 -0.67,0.06 -0.67,-0.01 -0.67,-0.09 -0.65,-0.17 -0.63,-0.25 -0.59,-0.32 -0.55,-0.39 -0.49,-0.45 -0.44,-0.51 -0.37,-0.56 -0.30,-0.60 -0.30,-0.60 L -0.30,-0.60 Z"/></g><g transform="translate(99.3333740234375 10.666671752929688) rotate(0 -4.333343505859375 12)" stroke="none"><path fill="#1971c2" d="M 0.31,0.57 Q 0.31,0.57 -1.34,1.64 -3.00,2.70 -4.12,3.32 -5.23,3.94 -6.19,4.75 -7.15,5.56 -8.00,6.14 -8.86,6.71 -7.38,6.89 -5.91,7.06 -4.59,7.86 -3.26,8.66 -1.85,10.23 -0.44,11.80 0.56,13.67 1.56,15.55 2.03,17.18 2.50,18.81 2.47,20.31 2.44,21.81 1.47,22.88 0.50,23.95 -1.27,24.18 -3.05,24.41 -4.55,24.20 -6.05,23.98 -8.46,22.97 -10.87,21.95 -10.96,21.90 -11.05,21.85 -11.13,21.78 -11.20,21.70 -11.25,21.61 -11.29,21.51 -11.31,21.40 -11.32,21.30 -11.30,21.19 -11.27,21.09 -11.22,21.00 -11.17,20.91 -11.09,20.84 -11.01,20.77 -10.91,20.73 -10.81,20.69 -10.70,20.68 -10.60,20.67 -10.49,20.70 -10.39,20.73 -10.30,20.79 -10.21,20.85 -10.15,20.93 -10.08,21.02 -10.05,21.12 -10.01,21.22 -10.01,21.32 -10.01,21.43 -10.05,21.53 -10.08,21.63 -10.14,21.72 -10.21,21.80 -10.29,21.86 -10.38,21.92 -10.48,21.95 -10.59,21.98 -10.69,21.98 -10.80,21.97 -10.90,21.93 -11.00,21.89 -11.08,21.83 -11.16,21.76 -11.21,21.67 -11.27,21.58 -11.29,21.47 -11.32,21.37 -11.31,21.26 -11.30,21.16 -11.25,21.06 -11.21,20.96 -11.14,20.89 -11.06,20.81 -10.97,20.76 -10.88,20.71 -10.77,20.69 -10.67,20.67 -10.56,20.69 -10.46,20.70 -10.46,20.70 -10.46,20.70 -8.13,21.24 -5.81,21.77 -4.52,21.84 -3.23,21.92 -2.05,21.93 -0.87,21.94 -0.29,21.59 0.28,21.23 0.30,20.29 0.32,19.35 -0.00,17.94 -0.32,16.53 -1.18,14.86 -2.04,13.18 -3.21,11.81 -4.38,10.44 -5.52,9.74 -6.66,9.03 -7.63,8.65 -8.60,8.27 -9.53,8.06 -10.46,7.86 -10.75,7.12 -11.04,6.39 -10.53,5.70 -10.01,5.00 -9.21,4.49 -8.41,3.97 -7.27,3.13 -6.13,2.28 -5.01,1.70 -3.89,1.12 -2.10,0.27 -0.31,-0.57 -0.24,-0.60 -0.17,-0.63 -0.09,-0.64 -0.01,-0.65 0.06,-0.64 0.14,-0.64 0.21,-0.61 0.29,-0.58 0.35,-0.54 0.42,-0.50 0.47,-0.44 0.53,-0.38 0.56,-0.31 0.60,-0.24 0.62,-0.17 0.64,-0.09 0.65,-0.01 0.65,0.06 0.63,0.14 0.61,0.21 0.58,0.28 0.54,0.36 0.49,0.42 0.44,0.48 0.38,0.52 0.31,0.57 0.31,0.57 L 0.31,0.57 Z"/></g><g transform="translate(132 24.666671752929688) rotate(0 3.333343505859375 -2.6666641235351562)" stroke="none"><path fill="#1971c2" d="M -0.62,-0.20 Q -0.62,-0.20 -0.28,-1.37 0.06,-2.53 0.62,-3.65 1.17,-4.77 1.79,-5.83 2.41,-6.88 3.08,-7.75 3.74,-8.61 4.42,-9.38 5.10,-10.16 5.33,-10.30 5.56,-10.44 5.64,-10.51 5.73,-10.59 5.83,-10.64 5.92,-10.69 6.03,-10.72 6.14,-10.74 6.26,-10.74 6.37,-10.74 6.48,-10.71 6.58,-10.69 6.68,-10.63 6.78,-10.58 6.87,-10.51 6.95,-10.43 7.01,-10.34 7.08,-10.25 7.11,-10.14 7.15,-10.03 7.17,-9.92 7.18,-9.81 7.16,-9.70 7.15,-9.59 7.11,-9.49 7.07,-9.38 7.00,-9.29 6.94,-9.20 6.62,-7.72 6.31,-6.24 5.77,-4.18 5.24,-2.12 4.81,-0.47 4.38,1.16 4.30,2.18 4.22,3.19 5.77,3.26 7.32,3.32 7.31,3.40 7.30,3.48 7.27,3.56 7.25,3.63 7.20,3.69 7.16,3.76 7.10,3.81 7.04,3.87 6.97,3.90 6.90,3.94 6.82,3.96 6.75,3.98 6.67,3.98 6.59,3.98 6.51,3.96 6.43,3.94 6.36,3.91 6.29,3.87 6.23,3.82 6.17,3.77 6.13,3.70 6.08,3.64 6.05,3.56 6.03,3.49 6.02,3.41 6.01,3.33 6.34,3.00 6.67,2.67 6.78,2.69 6.88,2.71 6.98,2.76 7.07,2.81 7.14,2.89 7.21,2.97 7.25,3.07 7.30,3.16 7.31,3.27 7.32,3.38 7.29,3.48 7.27,3.58 7.21,3.67 7.15,3.76 7.07,3.83 6.99,3.90 6.89,3.93 6.79,3.97 6.68,3.98 6.58,3.98 6.48,3.95 6.37,3.92 6.29,3.86 6.20,3.80 6.14,3.71 6.08,3.63 6.04,3.52 6.01,3.42 6.01,3.32 6.02,3.21 6.05,3.11 6.09,3.01 6.15,2.93 6.22,2.84 6.31,2.79 6.40,2.73 6.50,2.70 6.60,2.67 6.71,2.68 6.81,2.69 6.91,2.73 7.01,2.77 7.09,2.84 7.17,2.91 7.22,3.00 7.28,3.10 7.30,3.20 7.32,3.31 7.30,3.41 7.29,3.52 7.24,3.61 7.20,3.71 7.12,3.78 7.05,3.86 6.95,3.91 6.86,3.95 7.09,3.64 7.32,3.32 7.31,3.40 7.30,3.48 7.27,3.56 7.25,3.63 7.20,3.69 7.16,3.76 7.10,3.81 7.04,3.87 6.97,3.90 6.90,3.94 6.82,3.96 6.75,3.98 6.67,3.98 6.59,3.98 6.51,3.96 6.43,3.94 6.36,3.91 6.29,3.87 6.23,3.82 6.17,3.77 6.13,3.70 6.08,3.64 6.05,3.56 6.03,3.49 6.02,3.41 6.01,3.33 4.21,3.51 2.41,3.69 2.31,2.15 2.21,0.62 2.64,-1.04 3.07,-2.70 3.66,-4.80 4.24,-6.90 4.68,-8.14 5.12,-9.37 5.34,-9.91 5.56,-10.44 5.64,-10.51 5.73,-10.59 5.83,-10.64 5.92,-10.69 6.03,-10.72 6.14,-10.74 6.26,-10.74 6.37,-10.74 6.48,-10.71 6.58,-10.69 6.68,-10.63 6.78,-10.58 6.87,-10.51 6.95,-10.43 7.01,-10.34 7.08,-10.25 7.11,-10.14 7.15,-10.03 7.17,-9.92 7.18,-9.81 7.16,-9.70 7.15,-9.59 7.11,-9.49 7.07,-9.38 7.01,-9.29 6.94,-9.20 6.61,-9.10 6.28,-9.00 5.64,-8.31 5.01,-7.62 4.38,-6.85 3.76,-6.07 3.15,-5.07 2.54,-4.07 2.00,-3.07 1.46,-2.06 1.04,-0.92 0.62,0.20 0.59,0.28 0.55,0.35 0.50,0.41 0.45,0.47 0.39,0.52 0.33,0.57 0.25,0.60 0.18,0.63 0.10,0.64 0.02,0.65 -0.05,0.65 -0.13,0.64 -0.20,0.62 -0.28,0.59 -0.35,0.55 -0.41,0.51 -0.47,0.45 -0.52,0.39 -0.56,0.32 -0.60,0.25 -0.62,0.18 -0.65,0.10 -0.65,0.02 -0.65,-0.05 -0.64,-0.13 -0.62,-0.20 -0.62,-0.20 L -0.62,-0.20 Z"/></g><g transform="translate(151.3333740234375 15.333328247070312) rotate(0 2 7.333343505859375)" stroke="none"><path fill="#1971c2" d="M 0.39,0.53 Q 0.39,0.53 -0.29,1.17 -0.99,1.81 -1.55,2.93 -2.11,4.04 -2.72,5.66 -3.33,7.28 -3.76,8.88 -4.20,10.48 -4.03,11.84 -3.86,13.20 -3.05,13.76 -2.24,14.32 -1.42,14.21 -0.59,14.10 0.95,12.86 2.50,11.62 3.93,9.82 5.37,8.02 6.19,6.87 7.02,5.72 7.53,3.84 8.04,1.96 7.66,1.27 7.27,0.58 5.73,0.78 4.18,0.98 2.88,1.88 1.58,2.78 0.25,4.56 -1.06,6.33 -1.53,7.92 -2.01,9.51 -2.35,11.15 -2.68,12.78 -2.72,12.88 -2.75,12.98 -2.82,13.06 -2.89,13.15 -2.98,13.21 -3.06,13.26 -3.17,13.29 -3.27,13.32 -3.38,13.31 -3.48,13.30 -3.58,13.26 -3.68,13.22 -3.76,13.15 -3.84,13.08 -3.89,12.98 -3.94,12.89 -3.96,12.79 -3.98,12.68 -3.97,12.58 -3.96,12.47 -3.91,12.38 -3.86,12.28 -3.79,12.21 -3.72,12.13 -3.62,12.08 -3.53,12.04 -3.42,12.02 -3.32,12.01 -3.21,12.02 -3.11,12.04 -3.01,12.10 -2.92,12.15 -2.85,12.23 -2.78,12.30 -2.73,12.40 -2.69,12.50 -2.68,12.60 -2.67,12.71 -2.70,12.81 -2.72,12.92 -2.78,13.01 -2.84,13.10 -2.92,13.16 -3.00,13.23 -3.10,13.27 -3.20,13.31 -3.31,13.31 -3.41,13.31 -3.51,13.28 -3.62,13.25 -3.70,13.19 -3.79,13.13 -3.85,13.04 -3.91,12.96 -3.95,12.86 -3.98,12.75 -3.98,12.65 -3.97,12.54 -3.97,12.54 -3.97,12.54 -3.70,10.86 -3.42,9.19 -3.07,7.20 -2.72,5.21 -1.19,3.07 0.32,0.93 2.12,-0.15 3.92,-1.25 6.05,-1.23 8.19,-1.21 9.25,0.37 10.31,1.96 9.72,4.55 9.12,7.14 8.24,8.38 7.35,9.63 5.68,11.65 4.01,13.67 1.85,15.11 -0.30,16.55 -1.89,16.45 -3.47,16.34 -4.73,15.10 -5.99,13.86 -6.17,11.89 -6.36,9.92 -5.83,8.19 -5.31,6.46 -4.55,4.76 -3.79,3.06 -2.92,1.77 -2.06,0.48 -1.23,-0.02 -0.39,-0.53 -0.33,-0.57 -0.26,-0.61 -0.18,-0.63 -0.10,-0.65 -0.02,-0.66 0.05,-0.66 0.13,-0.64 0.21,-0.63 0.28,-0.59 0.35,-0.56 0.41,-0.51 0.48,-0.46 0.52,-0.39 0.57,-0.33 0.60,-0.25 0.63,-0.18 0.65,-0.10 0.66,-0.02 0.65,0.05 0.65,0.13 0.62,0.20 0.60,0.28 0.55,0.35 0.51,0.42 0.45,0.47 0.39,0.53 0.39,0.53 L 0.39,0.53 Z"/></g><g transform="translate(186.66668701171875 25.333328247070312) rotate(0 5.666656494140625 -3.3333282470703125)" stroke="none"><path fill="#1971c2" d="M -0.45,-0.51 Q -0.45,-0.51 0.95,-1.99 2.37,-3.47 3.74,-4.96 5.12,-6.45 6.31,-7.69 7.49,-8.92 8.38,-9.82 9.27,-10.73 9.88,-11.33 10.49,-11.94 10.67,-11.98 10.86,-12.02 10.96,-12.10 11.07,-12.18 11.19,-12.24 11.31,-12.29 11.43,-12.32 11.56,-12.34 11.70,-12.34 11.83,-12.33 11.95,-12.29 12.08,-12.25 12.19,-12.18 12.31,-12.12 12.40,-12.02 12.50,-11.93 12.56,-11.82 12.63,-11.71 12.67,-11.58 12.71,-11.46 12.72,-11.32 12.73,-11.19 12.71,-11.06 12.69,-10.93 12.63,-10.81 12.58,-10.69 12.50,-10.59 12.42,-10.48 11.74,-9.44 11.06,-8.40 10.55,-6.87 10.05,-5.35 9.22,-3.11 8.39,-0.86 7.83,0.63 7.27,2.13 7.61,2.51 7.95,2.88 7.91,2.95 7.88,3.02 7.82,3.08 7.77,3.14 7.71,3.19 7.64,3.24 7.57,3.27 7.50,3.30 7.42,3.31 7.34,3.32 7.26,3.31 7.18,3.30 7.11,3.28 7.03,3.25 6.97,3.21 6.90,3.16 6.85,3.10 6.80,3.05 6.76,2.98 6.72,2.91 6.70,2.83 6.68,2.75 6.68,2.67 6.68,2.60 6.69,2.52 6.71,2.44 6.89,2.25 7.07,2.06 7.17,2.03 7.28,2.01 7.38,2.02 7.49,2.02 7.58,2.07 7.68,2.11 7.76,2.18 7.84,2.25 7.89,2.34 7.94,2.44 7.96,2.54 7.98,2.64 7.97,2.75 7.96,2.85 7.91,2.95 7.86,3.05 7.79,3.12 7.71,3.20 7.62,3.24 7.52,3.29 7.42,3.30 7.31,3.32 7.21,3.30 7.10,3.28 7.01,3.23 6.92,3.17 6.85,3.09 6.77,3.01 6.73,2.92 6.69,2.82 6.68,2.71 6.67,2.61 6.70,2.50 6.73,2.40 6.78,2.31 6.84,2.22 6.92,2.16 7.01,2.09 7.11,2.05 7.21,2.02 7.31,2.01 7.42,2.01 7.52,2.04 7.62,2.07 7.71,2.14 7.79,2.20 7.86,2.28 7.92,2.37 7.95,2.47 7.98,2.57 7.98,2.68 7.97,2.79 7.94,2.89 7.90,2.99 7.83,3.07 7.77,3.15 7.86,3.02 7.95,2.88 7.91,2.95 7.88,3.02 7.82,3.08 7.77,3.14 7.71,3.19 7.65,3.24 7.57,3.27 7.50,3.30 7.42,3.31 7.34,3.32 7.26,3.31 7.18,3.30 7.11,3.28 7.03,3.25 6.97,3.21 6.90,3.16 6.85,3.10 6.80,3.05 6.76,2.98 6.72,2.91 6.70,2.83 6.68,2.75 6.68,2.67 6.67,2.60 6.69,2.52 6.71,2.44 5.85,1.90 5.00,1.35 5.52,-0.19 6.05,-1.73 6.88,-3.96 7.71,-6.19 8.40,-7.97 9.08,-9.74 9.97,-10.88 10.86,-12.02 10.96,-12.10 11.06,-12.18 11.18,-12.24 11.30,-12.29 11.43,-12.32 11.56,-12.34 11.70,-12.34 11.83,-12.33 11.95,-12.29 12.08,-12.25 12.19,-12.18 12.31,-12.12 12.40,-12.02 12.50,-11.93 12.56,-11.82 12.63,-11.71 12.67,-11.58 12.71,-11.46 12.72,-11.32 12.73,-11.19 12.71,-11.06 12.69,-10.93 12.63,-10.81 12.58,-10.69 12.50,-10.59 12.42,-10.48 12.12,-10.42 11.83,-10.35 11.30,-9.80 10.78,-9.25 9.90,-8.35 9.02,-7.45 7.84,-6.23 6.67,-5.02 5.22,-3.45 3.76,-1.88 2.10,-0.68 0.45,0.51 0.38,0.56 0.31,0.60 0.23,0.63 0.15,0.66 0.07,0.67 -0.00,0.68 -0.08,0.67 -0.16,0.66 -0.24,0.63 -0.32,0.60 -0.38,0.55 -0.45,0.50 -0.51,0.44 -0.56,0.38 -0.60,0.31 -0.64,0.23 -0.66,0.15 -0.68,0.07 -0.67,-0.00 -0.67,-0.08 -0.65,-0.16 -0.63,-0.24 -0.59,-0.31 -0.56,-0.39 -0.50,-0.45 -0.45,-0.51 -0.45,-0.51 L -0.45,-0.51 Z"/></g><g transform="translate(214.66668701171875 15.333328247070312) rotate(0 -7 13.000015258789062)" stroke="none"><path fill="#1971c2" d="M 0.21,0.64 Q 0.21,0.64 -0.81,1.19 -1.84,1.74 -2.27,2.53 -2.70,3.32 -3.28,4.60 -3.87,5.88 -4.10,7.04 -4.33,8.21 -4.08,8.88 -3.83,9.55 -2.67,9.48 -1.52,9.42 -0.31,9.41 0.89,9.41 2.05,9.71 3.21,10.01 3.90,10.86 4.59,11.72 4.86,12.82 5.12,13.92 4.62,15.59 4.11,17.27 2.82,18.81 1.52,20.36 -0.01,21.73 -1.54,23.10 -3.90,24.24 -6.26,25.37 -9.08,25.89 -11.90,26.40 -14.89,26.86 -17.89,27.31 -17.99,27.31 -18.10,27.31 -18.20,27.28 -18.30,27.24 -18.38,27.18 -18.47,27.12 -18.53,27.03 -18.59,26.94 -18.62,26.84 -18.65,26.74 -18.64,26.63 -18.64,26.52 -18.60,26.43 -18.56,26.33 -18.49,26.24 -18.42,26.16 -18.33,26.11 -18.24,26.05 -18.14,26.03 -18.03,26.01 -17.93,26.02 -17.82,26.03 -17.73,26.07 -17.63,26.12 -17.55,26.19 -17.47,26.26 -17.42,26.36 -17.37,26.45 -17.36,26.55 -17.34,26.66 -17.35,26.76 -17.37,26.87 -17.42,26.96 -17.47,27.06 -17.55,27.13 -17.62,27.20 -17.72,27.25 -17.82,27.29 -17.92,27.31 -18.03,27.32 -18.13,27.30 -18.23,27.27 -18.33,27.22 -18.42,27.16 -18.49,27.08 -18.56,27.00 -18.60,26.90 -18.64,26.81 -18.64,26.70 -18.65,26.59 -18.62,26.49 -18.59,26.39 -18.53,26.30 -18.47,26.21 -18.39,26.15 -18.31,26.08 -18.21,26.05 -18.10,26.01 -18.10,26.01 -18.10,26.01 -15.19,25.47 -12.28,24.92 -9.82,24.08 -7.37,23.25 -5.42,22.10 -3.48,20.95 -2.10,19.66 -0.72,18.37 0.32,17.26 1.37,16.15 1.88,15.18 2.39,14.21 2.26,13.15 2.13,12.09 1.51,12.02 0.89,11.94 -0.29,11.95 -1.49,11.96 -3.26,11.83 -5.04,11.71 -5.65,11.00 -6.27,10.29 -6.54,9.05 -6.82,7.81 -6.47,6.30 -6.13,4.78 -5.37,3.35 -4.62,1.92 -3.68,0.85 -2.75,-0.21 -1.48,-0.43 -0.21,-0.64 -0.13,-0.66 -0.05,-0.67 0.02,-0.67 0.10,-0.67 0.18,-0.64 0.26,-0.62 0.33,-0.58 0.40,-0.54 0.46,-0.48 0.52,-0.42 0.56,-0.35 0.61,-0.29 0.63,-0.21 0.66,-0.13 0.67,-0.05 0.67,0.02 0.66,0.10 0.65,0.18 0.61,0.26 0.58,0.33 0.53,0.40 0.48,0.47 0.42,0.52 0.36,0.57 0.28,0.60 0.21,0.64 0.21,0.64 L 0.21,0.64 Z"/></g><g transform="translate(37.3333740234375 63.33332824707031) rotate(0 -5.333343505859375 9.333343505859375)" stroke="none"><path fill="#1971c2" d="M -0.40,0.53 Q -0.40,0.53 -1.18,0.04 -1.96,-0.43 -2.66,-0.38 -3.36,-0.33 -4.34,0.02 -5.32,0.39 -6.26,1.06 -7.19,1.74 -7.94,2.56 -8.69,3.38 -8.13,3.51 -7.57,3.64 -6.92,3.64 -6.28,3.63 -4.18,4.03 -2.08,4.42 -0.32,5.22 1.44,6.03 2.33,7.34 3.22,8.64 3.19,9.96 3.15,11.29 2.26,12.72 1.38,14.16 -0.43,15.39 -2.26,16.63 -3.81,17.32 -5.37,18.02 -7.24,18.48 -9.11,18.94 -11.35,20.06 -13.59,21.18 -13.69,21.23 -13.78,21.28 -13.88,21.30 -13.99,21.32 -14.09,21.30 -14.20,21.29 -14.29,21.24 -14.39,21.19 -14.46,21.11 -14.53,21.04 -14.58,20.94 -14.63,20.84 -14.64,20.74 -14.65,20.63 -14.63,20.53 -14.61,20.42 -14.55,20.33 -14.50,20.24 -14.42,20.17 -14.34,20.10 -14.24,20.06 -14.14,20.02 -14.04,20.02 -13.93,20.01 -13.83,20.04 -13.73,20.06 -13.64,20.12 -13.55,20.18 -13.48,20.26 -13.42,20.35 -13.38,20.45 -13.35,20.55 -13.35,20.66 -13.35,20.76 -13.38,20.86 -13.41,20.96 -13.48,21.05 -13.54,21.13 -13.63,21.19 -13.71,21.25 -13.82,21.28 -13.92,21.31 -14.02,21.31 -14.13,21.30 -14.23,21.27 -14.33,21.23 -14.41,21.16 -14.49,21.09 -14.55,21.00 -14.60,20.91 -14.63,20.81 -14.65,20.70 -14.64,20.60 -14.63,20.49 -14.59,20.40 -14.54,20.30 -14.47,20.22 -14.40,20.14 -14.40,20.14 -14.40,20.14 -12.01,18.57 -9.62,16.99 -7.93,16.52 -6.24,16.04 -4.83,15.43 -3.42,14.82 -1.88,13.87 -0.33,12.93 0.39,11.96 1.11,10.98 1.26,10.23 1.40,9.49 0.92,8.64 0.44,7.78 -1.02,7.11 -2.48,6.44 -4.38,6.07 -6.27,5.70 -6.91,5.70 -7.55,5.71 -8.82,5.58 -10.09,5.46 -10.55,4.63 -11.01,3.80 -10.59,2.90 -10.16,2.00 -9.24,1.05 -8.32,0.10 -7.13,-0.67 -5.93,-1.46 -4.62,-1.81 -3.30,-2.17 -2.19,-2.01 -1.09,-1.86 -0.34,-1.19 0.40,-0.53 0.45,-0.47 0.51,-0.42 0.55,-0.35 0.60,-0.28 0.62,-0.21 0.65,-0.13 0.66,-0.05 0.66,0.02 0.65,0.10 0.64,0.18 0.61,0.25 0.57,0.33 0.53,0.39 0.48,0.46 0.41,0.51 0.35,0.56 0.28,0.59 0.21,0.63 0.13,0.64 0.05,0.66 -0.02,0.66 -0.10,0.65 -0.18,0.63 -0.26,0.61 -0.33,0.57 -0.40,0.53 -0.40,0.53 L -0.40,0.53 Z"/></g><g transform="translate(14 120.00001525878906) rotate(0 5 0.666656494140625)" stroke="none"><path fill="#1971c2" d="M -0.34,-0.56 Q -0.34,-0.56 0.54,-1.25 1.43,-1.93 2.31,-2.88 3.20,-3.83 4.19,-4.84 5.18,-5.85 6.18,-6.85 7.18,-7.86 8.25,-8.33 9.33,-8.80 9.85,-8.42 10.37,-8.03 10.39,-6.56 10.42,-5.09 9.79,-2.75 9.16,-0.40 8.72,1.67 8.27,3.75 7.88,5.41 7.48,7.08 7.70,8.38 7.91,9.69 7.94,9.79 7.98,9.89 7.98,9.99 7.98,10.10 7.94,10.20 7.91,10.30 7.85,10.39 7.78,10.47 7.69,10.53 7.61,10.59 7.50,10.62 7.40,10.65 7.30,10.64 7.19,10.64 7.09,10.60 6.99,10.56 6.91,10.49 6.83,10.42 6.77,10.33 6.72,10.24 6.70,10.14 6.67,10.03 6.68,9.93 6.70,9.82 6.74,9.72 6.78,9.63 6.86,9.55 6.93,9.47 7.02,9.42 7.12,9.37 7.22,9.36 7.33,9.34 7.43,9.36 7.54,9.37 7.63,9.42 7.72,9.47 7.80,9.55 7.87,9.62 7.92,9.72 7.96,9.82 7.97,9.92 7.98,10.03 7.96,10.13 7.94,10.24 7.88,10.33 7.83,10.42 7.75,10.49 7.67,10.56 7.57,10.60 7.47,10.64 7.37,10.64 7.26,10.65 7.16,10.62 7.05,10.59 6.97,10.53 6.88,10.47 6.81,10.39 6.75,10.30 6.75,10.30 6.75,10.30 6.19,8.49 5.64,6.67 6.01,5.01 6.38,3.35 6.84,1.21 7.29,-0.91 7.89,-3.07 8.48,-5.22 8.51,-5.86 8.53,-6.50 7.54,-5.50 6.54,-4.50 5.55,-3.51 4.56,-2.51 3.47,-1.43 2.39,-0.36 1.37,0.10 0.34,0.56 0.26,0.60 0.19,0.63 0.11,0.64 0.03,0.66 -0.04,0.65 -0.12,0.65 -0.19,0.62 -0.27,0.60 -0.34,0.56 -0.41,0.52 -0.46,0.46 -0.52,0.40 -0.56,0.33 -0.60,0.27 -0.63,0.19 -0.65,0.11 -0.65,0.03 -0.66,-0.04 -0.64,-0.12 -0.63,-0.19 -0.60,-0.27 -0.56,-0.34 -0.51,-0.40 -0.46,-0.47 -0.40,-0.52 -0.34,-0.56 -0.34,-0.56 L -0.34,-0.56 Z"/></g><g transform="translate(38 119.33332824707031) rotate(0 2 4.66668701171875)" stroke="none"><path fill="#1971c2" d="M 0.40,0.53 Q 0.40,0.53 -0.33,1.15 -1.06,1.77 -1.96,2.42 -2.86,3.07 -3.73,4.07 -4.60,5.07 -5.31,6.20 -6.03,7.34 -6.10,8.59 -6.16,9.83 -5.56,10.92 -4.95,12.01 -3.52,12.40 -2.10,12.78 -0.26,12.61 1.58,12.45 2.70,12.24 3.83,12.03 5.84,9.76 7.85,7.49 8.70,5.33 9.56,3.17 9.21,1.34 8.86,-0.48 7.54,-1.52 6.22,-2.55 4.70,-2.81 3.18,-3.07 1.34,-2.33 -0.49,-1.59 -1.86,-0.27 -3.23,1.03 -5.00,3.69 -6.77,6.35 -6.84,6.43 -6.91,6.50 -7.01,6.56 -7.10,6.61 -7.20,6.63 -7.31,6.65 -7.41,6.64 -7.52,6.62 -7.61,6.58 -7.71,6.53 -7.78,6.46 -7.86,6.38 -7.91,6.29 -7.96,6.19 -7.97,6.09 -7.98,5.98 -7.97,5.88 -7.95,5.77 -7.89,5.68 -7.84,5.59 -7.76,5.51 -7.68,5.44 -7.59,5.40 -7.49,5.36 -7.38,5.35 -7.28,5.34 -7.17,5.37 -7.07,5.39 -6.98,5.45 -6.89,5.50 -6.83,5.59 -6.76,5.67 -6.72,5.77 -6.68,5.87 -6.68,5.97 -6.68,6.08 -6.71,6.18 -6.74,6.28 -6.80,6.37 -6.86,6.46 -6.95,6.52 -7.03,6.58 -7.14,6.61 -7.24,6.65 -7.34,6.64 -7.45,6.64 -7.55,6.60 -7.65,6.57 -7.73,6.50 -7.82,6.44 -7.87,6.35 -7.93,6.26 -7.96,6.15 -7.98,6.05 -7.97,5.95 -7.97,5.84 -7.92,5.74 -7.88,5.64 -7.88,5.64 -7.88,5.64 -6.15,2.76 -4.42,-0.11 -2.85,-1.78 -1.29,-3.45 1.06,-4.32 3.42,-5.19 5.47,-4.73 7.52,-4.26 9.19,-2.70 10.85,-1.14 11.23,1.33 11.60,3.81 10.53,6.38 9.47,8.94 6.97,11.49 4.47,14.03 3.09,14.32 1.72,14.60 -0.51,14.70 -2.75,14.79 -4.60,14.00 -6.46,13.20 -7.26,11.50 -8.07,9.81 -7.85,8.11 -7.62,6.42 -6.76,5.14 -5.90,3.87 -4.85,2.80 -3.80,1.73 -2.90,1.12 -2.00,0.52 -1.20,-0.00 -0.40,-0.53 -0.33,-0.57 -0.26,-0.61 -0.18,-0.64 -0.10,-0.66 -0.02,-0.66 0.05,-0.67 0.13,-0.65 0.21,-0.63 0.28,-0.60 0.36,-0.56 0.42,-0.51 0.48,-0.46 0.53,-0.40 0.58,-0.33 0.61,-0.26 0.64,-0.18 0.65,-0.10 0.67,-0.02 0.66,0.05 0.65,0.13 0.63,0.21 0.60,0.28 0.56,0.35 0.52,0.42 0.46,0.48 0.40,0.53 0.40,0.53 L 0.40,0.53 Z"/></g><g transform="translate(10 182.00001525878906) rotate(0 6.333343505859375 -8.666671752929688)" stroke="none"><path fill="#1971c2" d="M -0.55,-0.37 Q -0.55,-0.37 0.10,-1.59 0.76,-2.81 1.83,-4.46 2.90,-6.11 3.94,-7.59 4.99,-9.07 6.20,-10.67 7.42,-12.27 8.50,-13.70 9.59,-15.14 10.27,-15.97 10.94,-16.79 11.21,-16.93 11.47,-17.08 11.56,-17.16 11.65,-17.24 11.75,-17.30 11.86,-17.36 11.97,-17.40 12.09,-17.43 12.21,-17.44 12.33,-17.44 12.45,-17.42 12.57,-17.39 12.68,-17.34 12.79,-17.29 12.88,-17.21 12.97,-17.14 13.05,-17.04 13.12,-16.94 13.17,-16.83 13.22,-16.72 13.24,-16.60 13.25,-16.48 13.25,-16.36 13.24,-16.24 13.20,-16.13 13.16,-16.01 13.09,-15.91 13.03,-15.81 12.64,-13.66 12.25,-11.51 11.69,-9.46 11.12,-7.41 10.21,-4.63 9.30,-1.85 9.26,-1.75 9.22,-1.65 9.15,-1.57 9.08,-1.49 8.99,-1.44 8.90,-1.38 8.80,-1.36 8.69,-1.34 8.59,-1.35 8.48,-1.36 8.39,-1.41 8.29,-1.45 8.21,-1.53 8.14,-1.60 8.09,-1.70 8.04,-1.79 8.02,-1.89 8.01,-2.00 8.02,-2.10 8.04,-2.21 8.09,-2.30 8.14,-2.40 8.22,-2.47 8.30,-2.54 8.39,-2.58 8.49,-2.63 8.60,-2.64 8.70,-2.65 8.81,-2.63 8.91,-2.60 9.00,-2.55 9.09,-2.49 9.16,-2.41 9.23,-2.33 9.27,-2.23 9.30,-2.13 9.31,-2.03 9.31,-1.92 9.28,-1.82 9.26,-1.72 9.20,-1.63 9.14,-1.54 9.05,-1.48 8.97,-1.41 8.86,-1.38 8.76,-1.35 8.66,-1.35 8.55,-1.35 8.45,-1.38 8.35,-1.42 8.27,-1.48 8.18,-1.55 8.12,-1.63 8.06,-1.72 8.04,-1.83 8.01,-1.93 8.01,-2.03 8.02,-2.14 8.02,-2.14 8.02,-2.14 8.60,-5.04 9.19,-7.94 9.74,-9.97 10.30,-12.00 10.70,-13.57 11.10,-15.14 11.29,-16.11 11.47,-17.08 11.56,-17.16 11.65,-17.24 11.75,-17.30 11.86,-17.36 11.97,-17.40 12.09,-17.43 12.21,-17.44 12.33,-17.44 12.45,-17.42 12.57,-17.39 12.68,-17.34 12.79,-17.29 12.88,-17.21 12.97,-17.14 13.05,-17.04 13.12,-16.94 13.17,-16.83 13.22,-16.72 13.24,-16.60 13.25,-16.48 13.25,-16.36 13.24,-16.24 13.20,-16.13 13.16,-16.01 13.09,-15.91 13.03,-15.81 12.74,-15.65 12.45,-15.49 11.81,-14.71 11.18,-13.93 10.09,-12.49 9.00,-11.05 7.80,-9.49 6.60,-7.93 5.56,-6.48 4.52,-5.03 3.41,-3.41 2.30,-1.78 1.42,-0.70 0.55,0.37 0.50,0.43 0.45,0.49 0.38,0.54 0.32,0.58 0.24,0.61 0.17,0.64 0.09,0.65 0.01,0.66 -0.06,0.66 -0.14,0.65 -0.22,0.62 -0.30,0.59 -0.36,0.55 -0.43,0.50 -0.49,0.44 -0.54,0.38 -0.58,0.31 -0.62,0.24 -0.64,0.16 -0.66,0.09 -0.66,0.01 -0.66,-0.07 -0.64,-0.14 -0.62,-0.22 -0.59,-0.29 -0.55,-0.37 -0.55,-0.37 L -0.55,-0.37 Z"/></g><g transform="translate(42.66668701171875 166.6666717529297) rotate(0 -4.333343505859375 9)" stroke="none"><path fill="#1971c2" d="M -0.20,0.62 Q -0.20,0.62 -1.39,0.35 -2.58,0.07 -3.39,-0.03 -4.20,-0.15 -4.98,-0.00 -5.76,0.14 -6.52,0.69 -7.28,1.24 -7.73,2.11 -8.17,2.98 -8.36,4.40 -8.55,5.81 -8.48,7.09 -8.41,8.37 -7.89,8.92 -7.37,9.48 -5.50,9.37 -3.63,9.27 -2.28,8.98 -0.94,8.70 0.13,8.58 1.21,8.46 2.27,9.19 3.33,9.93 3.33,11.05 3.32,12.17 2.66,13.53 1.99,14.89 0.85,16.10 -0.28,17.31 -2.06,18.09 -3.85,18.87 -5.40,19.18 -6.96,19.49 -7.80,19.60 -8.63,19.72 -10.23,19.84 -11.83,19.96 -11.93,19.97 -12.04,19.98 -12.14,19.96 -12.25,19.93 -12.34,19.88 -12.43,19.82 -12.49,19.74 -12.56,19.66 -12.60,19.56 -12.64,19.46 -12.64,19.35 -12.65,19.25 -12.62,19.15 -12.59,19.04 -12.53,18.96 -12.47,18.87 -12.38,18.81 -12.29,18.74 -12.19,18.71 -12.09,18.68 -11.99,18.68 -11.88,18.68 -11.78,18.72 -11.68,18.75 -11.60,18.82 -11.51,18.88 -11.45,18.97 -11.40,19.06 -11.37,19.16 -11.34,19.27 -11.35,19.37 -11.36,19.48 -11.40,19.58 -11.44,19.67 -11.51,19.75 -11.58,19.83 -11.67,19.89 -11.76,19.94 -11.86,19.96 -11.97,19.98 -12.07,19.97 -12.18,19.96 -12.28,19.91 -12.37,19.87 -12.45,19.79 -12.52,19.72 -12.57,19.62 -12.62,19.53 -12.64,19.42 -12.65,19.32 -12.63,19.21 -12.61,19.11 -12.56,19.02 -12.51,18.92 -12.43,18.85 -12.36,18.78 -12.26,18.74 -12.16,18.69 -12.16,18.69 -12.16,18.69 -10.57,17.98 -8.98,17.26 -8.21,17.14 -7.43,17.03 -6.10,16.79 -4.78,16.55 -3.38,16.04 -1.99,15.53 -1.06,14.61 -0.13,13.70 0.45,12.75 1.04,11.80 1.14,11.18 1.23,10.57 0.37,10.70 -0.49,10.82 -1.93,11.13 -3.36,11.43 -5.56,11.59 -7.76,11.75 -8.42,11.27 -9.09,10.80 -9.79,9.75 -10.49,8.69 -10.58,7.09 -10.68,5.48 -10.35,3.72 -10.02,1.95 -9.25,0.76 -8.49,-0.43 -7.29,-1.13 -6.10,-1.84 -4.99,-1.93 -3.88,-2.03 -2.95,-1.82 -2.01,-1.61 -0.90,-1.11 0.20,-0.62 0.27,-0.59 0.35,-0.55 0.41,-0.50 0.47,-0.45 0.52,-0.39 0.57,-0.32 0.60,-0.25 0.63,-0.18 0.64,-0.10 0.65,-0.02 0.65,0.05 0.64,0.13 0.62,0.20 0.59,0.28 0.55,0.34 0.51,0.41 0.45,0.47 0.39,0.52 0.32,0.56 0.25,0.60 0.18,0.62 0.10,0.64 0.02,0.65 -0.05,0.65 -0.13,0.64 -0.20,0.62 -0.20,0.62 L -0.20,0.62 Z"/></g><g transform="translate(129.3333740234375 70.00001525878906) rotate(0 3.33331298828125 4.9999847412109375)" stroke="none"><path fill="#1971c2" d="M -0.55,-0.41 Q -0.55,-0.41 -0.03,-1.25 0.47,-2.09 1.26,-2.54 2.06,-2.99 3.15,-2.81 4.24,-2.62 4.69,-1.66 5.13,-0.70 4.87,0.44 4.61,1.58 3.69,3.22 2.77,4.86 1.76,5.98 0.76,7.10 0.13,7.76 -0.50,8.41 -1.72,8.80 -2.94,9.19 -3.77,9.10 -4.60,9.02 -5.17,8.42 -5.73,7.82 -5.56,7.17 -5.39,6.52 -4.68,6.24 -3.97,5.96 -3.16,6.32 -2.34,6.68 -1.42,6.97 -0.51,7.26 0.98,8.22 2.47,9.18 3.92,9.72 5.37,10.25 6.91,10.75 8.45,11.25 10.16,10.97 11.88,10.68 11.98,10.68 12.09,10.68 12.19,10.71 12.29,10.74 12.38,10.80 12.46,10.87 12.52,10.95 12.59,11.04 12.62,11.14 12.65,11.24 12.64,11.35 12.64,11.46 12.60,11.56 12.56,11.66 12.50,11.74 12.43,11.82 12.34,11.88 12.25,11.93 12.15,11.96 12.04,11.98 11.94,11.97 11.83,11.96 11.73,11.92 11.64,11.88 11.56,11.81 11.48,11.74 11.43,11.64 11.38,11.55 11.36,11.45 11.34,11.34 11.35,11.24 11.37,11.13 11.42,11.04 11.46,10.94 11.54,10.87 11.62,10.79 11.71,10.75 11.81,10.70 11.91,10.69 12.02,10.67 12.12,10.69 12.23,10.71 12.32,10.77 12.41,10.82 12.48,10.90 12.55,10.98 12.59,11.08 12.63,11.17 12.64,11.28 12.65,11.39 12.62,11.49 12.60,11.59 12.54,11.68 12.48,11.77 12.40,11.84 12.31,11.90 12.21,11.94 12.11,11.97 12.11,11.97 12.11,11.97 10.11,12.38 8.10,12.78 6.41,12.40 4.71,12.03 3.07,11.41 1.43,10.79 0.15,9.93 -1.12,9.08 -2.25,8.21 -3.37,7.34 -2.55,7.19 -1.73,7.04 -1.18,6.43 -0.62,5.83 0.26,4.88 1.16,3.92 2.00,2.49 2.83,1.05 3.10,0.37 3.38,-0.29 3.27,-0.91 3.16,-1.53 2.49,-1.25 1.82,-0.97 1.18,-0.28 0.55,0.41 0.49,0.47 0.43,0.53 0.36,0.57 0.29,0.62 0.21,0.64 0.13,0.67 0.05,0.68 -0.02,0.68 -0.10,0.67 -0.19,0.66 -0.26,0.62 -0.34,0.59 -0.40,0.54 -0.47,0.49 -0.52,0.43 -0.58,0.36 -0.61,0.29 -0.65,0.21 -0.66,0.13 -0.68,0.05 -0.68,-0.02 -0.67,-0.10 -0.65,-0.18 -0.63,-0.26 -0.59,-0.34 -0.55,-0.41 -0.55,-0.41 L -0.55,-0.41 Z"/></g><g transform="translate(147.3333740234375 70.66667175292969) rotate(0 1.666656494140625 9)" stroke="none"><path fill="#1971c2" d="M 0.64,0.21 Q 0.64,0.21 0.35,1.39 0.06,2.57 -0.25,3.81 -0.58,5.06 -0.69,6.28 -0.81,7.51 -0.47,9.26 -0.12,11.01 0.72,12.60 1.58,14.19 2.72,14.93 3.87,15.67 5.10,15.61 6.33,15.54 7.68,14.66 9.03,13.77 9.55,13.15 10.08,12.52 10.26,10.39 10.45,8.25 9.50,6.56 8.56,4.88 7.01,4.04 5.45,3.20 3.82,3.17 2.18,3.14 0.22,4.12 -1.74,5.11 -3.59,6.61 -5.44,8.11 -6.84,9.30 -8.23,10.49 -8.32,10.55 -8.41,10.60 -8.52,10.63 -8.62,10.65 -8.72,10.64 -8.83,10.63 -8.93,10.59 -9.02,10.54 -9.10,10.47 -9.18,10.40 -9.23,10.31 -9.28,10.21 -9.30,10.11 -9.32,10.00 -9.30,9.90 -9.29,9.79 -9.24,9.70 -9.19,9.60 -9.11,9.53 -9.04,9.46 -8.94,9.41 -8.84,9.36 -8.74,9.35 -8.63,9.34 -8.53,9.36 -8.43,9.38 -8.33,9.44 -8.24,9.49 -8.17,9.57 -8.10,9.65 -8.06,9.75 -8.02,9.85 -8.02,9.95 -8.01,10.06 -8.04,10.16 -8.06,10.26 -8.12,10.35 -8.18,10.44 -8.26,10.51 -8.35,10.57 -8.45,10.61 -8.55,10.64 -8.65,10.64 -8.76,10.64 -8.86,10.61 -8.96,10.58 -9.05,10.52 -9.13,10.45 -9.19,10.36 -9.25,10.28 -9.28,10.18 -9.31,10.07 -9.31,9.97 -9.30,9.86 -9.27,9.76 -9.23,9.66 -9.16,9.58 -9.09,9.50 -9.09,9.50 -9.09,9.50 -7.72,8.28 -6.35,7.07 -4.45,5.31 -2.56,3.55 -0.22,2.29 2.11,1.03 4.29,1.11 6.46,1.20 8.46,2.44 10.46,3.68 11.57,5.99 12.68,8.30 12.29,11.05 11.89,13.80 11.05,14.75 10.21,15.70 8.34,16.71 6.47,17.73 4.65,17.63 2.82,17.54 1.28,16.40 -0.25,15.26 -1.20,13.32 -2.15,11.38 -2.44,9.34 -2.74,7.31 -2.55,5.93 -2.36,4.56 -1.98,3.29 -1.60,2.02 -1.12,0.90 -0.64,-0.21 -0.61,-0.29 -0.57,-0.36 -0.52,-0.42 -0.47,-0.49 -0.40,-0.54 -0.34,-0.59 -0.26,-0.62 -0.19,-0.65 -0.10,-0.67 -0.02,-0.68 0.05,-0.67 0.13,-0.67 0.21,-0.64 0.29,-0.61 0.36,-0.57 0.43,-0.53 0.48,-0.47 0.54,-0.41 0.58,-0.33 0.62,-0.26 0.65,-0.18 0.67,-0.11 0.67,-0.02 0.68,0.05 0.66,0.13 0.64,0.21 0.64,0.21 L 0.64,0.21 Z"/></g><g transform="translate(67.3333740234375 120.00001525878906) rotate(0 5.999969482421875 1.9999847412109375)" stroke="none"><path fill="#1971c2" d="M -0.63,-0.25 Q -0.63,-0.25 -0.31,-1.23 0.00,-2.22 0.53,-3.27 1.07,-4.32 1.56,-4.84 2.06,-5.37 3.07,-6.17 4.08,-6.98 5.31,-7.19 6.54,-7.40 7.50,-6.84 8.46,-6.28 8.66,-4.78 8.86,-3.28 8.50,-1.28 8.13,0.71 7.58,2.35 7.03,3.98 6.57,5.10 6.11,6.21 4.44,7.41 2.76,8.62 1.70,8.91 0.64,9.21 -0.17,8.89 -0.99,8.57 -1.40,7.96 -1.81,7.36 -1.69,7.20 -1.56,7.05 -1.62,6.95 -1.68,6.85 -1.71,6.74 -1.74,6.63 -1.75,6.51 -1.75,6.40 -1.73,6.28 -1.70,6.17 -1.65,6.07 -1.60,5.96 -1.53,5.87 -1.46,5.78 -1.37,5.71 -1.27,5.65 -1.17,5.60 -1.06,5.56 -0.95,5.54 -0.84,5.52 -0.72,5.53 -0.61,5.54 -0.50,5.58 -0.39,5.61 -0.29,5.67 -0.19,5.74 -0.11,5.82 -0.03,5.90 1.16,6.50 2.37,7.09 3.53,7.68 4.70,8.26 5.96,8.90 7.21,9.54 8.55,9.84 9.89,10.14 11.53,9.75 13.16,9.36 13.27,9.35 13.37,9.34 13.48,9.36 13.58,9.39 13.67,9.44 13.76,9.50 13.83,9.58 13.90,9.66 13.93,9.76 13.97,9.86 13.98,9.97 13.98,10.07 13.95,10.18 13.92,10.28 13.86,10.37 13.80,10.45 13.71,10.52 13.63,10.58 13.53,10.61 13.43,10.64 13.32,10.64 13.21,10.64 13.11,10.61 13.01,10.57 12.93,10.51 12.85,10.44 12.79,10.35 12.73,10.26 12.70,10.16 12.67,10.06 12.68,9.95 12.69,9.85 12.73,9.75 12.77,9.65 12.84,9.57 12.91,9.49 13.00,9.44 13.09,9.38 13.20,9.36 13.30,9.34 13.41,9.35 13.51,9.36 13.61,9.41 13.70,9.46 13.78,9.53 13.86,9.60 13.90,9.70 13.95,9.79 13.97,9.90 13.98,10.00 13.97,10.11 13.95,10.21 13.90,10.31 13.85,10.40 13.77,10.47 13.69,10.54 13.59,10.59 13.50,10.63 13.50,10.63 13.50,10.63 11.59,11.17 9.67,11.72 8.03,11.48 6.38,11.25 5.11,10.61 3.83,9.98 2.66,9.39 1.49,8.79 0.52,8.29 -0.43,7.79 -1.00,7.42 -1.56,7.05 -1.62,6.95 -1.68,6.85 -1.71,6.74 -1.74,6.63 -1.75,6.51 -1.75,6.40 -1.73,6.28 -1.70,6.17 -1.65,6.07 -1.61,5.96 -1.53,5.87 -1.46,5.78 -1.37,5.71 -1.27,5.65 -1.17,5.60 -1.06,5.56 -0.95,5.54 -0.84,5.52 -0.72,5.53 -0.61,5.54 -0.50,5.57 -0.39,5.61 -0.29,5.67 -0.19,5.73 -0.11,5.82 -0.03,5.90 0.22,6.65 0.49,7.40 1.10,7.21 1.72,7.02 3.08,6.18 4.45,5.34 4.83,4.35 5.21,3.36 5.72,1.86 6.24,0.36 6.59,-1.41 6.94,-3.19 6.75,-4.37 6.56,-5.55 5.84,-5.50 5.11,-5.45 3.88,-4.44 2.64,-3.43 2.08,-2.52 1.53,-1.61 1.08,-0.67 0.63,0.25 0.59,0.32 0.55,0.39 0.49,0.45 0.44,0.51 0.37,0.56 0.30,0.60 0.22,0.63 0.15,0.66 0.06,0.67 -0.01,0.68 -0.09,0.66 -0.17,0.65 -0.25,0.62 -0.32,0.59 -0.39,0.54 -0.46,0.50 -0.51,0.43 -0.56,0.37 -0.60,0.30 -0.64,0.22 -0.65,0.14 -0.67,0.06 -0.67,-0.01 -0.67,-0.09 -0.65,-0.17 -0.63,-0.25 -0.63,-0.25 L -0.63,-0.25 Z"/></g><g transform="translate(92.66668701171875 118.00001525878906) rotate(0 3 4.33331298828125)" stroke="none"><path fill="#1971c2" d="M 0,0.67 Q 0,0.67 -0.49,0.71 -0.99,0.76 -1.60,1.45 -2.20,2.14 -2.65,2.96 -3.10,3.78 -3.45,5.20 -3.80,6.63 -3.77,8.10 -3.73,9.56 -3.02,10.77 -2.31,11.97 -1.02,12.57 0.25,13.17 1.55,13.08 2.84,12.99 4.39,11.73 5.94,10.46 6.96,8.69 7.98,6.93 8.60,4.54 9.22,2.16 8.93,0.15 8.64,-1.84 7.97,-2.87 7.30,-3.90 6.33,-3.95 5.36,-4.00 4.11,-3.09 2.85,-2.18 1.73,0.35 0.62,2.88 0.56,2.97 0.51,3.06 0.44,3.14 0.36,3.21 0.26,3.25 0.16,3.30 0.06,3.31 -0.04,3.32 -0.14,3.29 -0.24,3.27 -0.33,3.21 -0.42,3.16 -0.49,3.08 -0.56,2.99 -0.60,2.90 -0.64,2.80 -0.64,2.69 -0.65,2.58 -0.62,2.48 -0.59,2.38 -0.53,2.29 -0.47,2.21 -0.38,2.14 -0.30,2.08 -0.20,2.05 -0.09,2.01 0.00,2.01 0.11,2.01 0.21,2.05 0.31,2.08 0.39,2.15 0.48,2.21 0.53,2.30 0.59,2.39 0.62,2.49 0.65,2.60 0.64,2.70 0.63,2.81 0.59,2.91 0.55,3.01 0.48,3.09 0.42,3.17 0.32,3.22 0.23,3.27 0.13,3.30 0.02,3.32 -0.07,3.31 -0.18,3.29 -0.27,3.25 -0.37,3.20 -0.45,3.13 -0.52,3.05 -0.57,2.96 -0.62,2.87 -0.64,2.76 -0.65,2.66 -0.63,2.55 -0.62,2.45 -0.62,2.45 -0.62,2.45 0.51,-0.60 1.65,-3.65 3.45,-4.88 5.24,-6.12 6.95,-5.80 8.65,-5.49 9.75,-3.86 10.86,-2.23 11.13,0.22 11.41,2.68 10.67,5.38 9.92,8.07 8.62,10.14 7.32,12.21 5.23,13.66 3.13,15.12 1.25,15.10 -0.62,15.09 -2.29,14.08 -3.96,13.06 -4.79,11.37 -5.63,9.67 -5.62,7.92 -5.61,6.16 -5.12,4.52 -4.62,2.88 -4.00,1.90 -3.37,0.92 -2.33,0.08 -1.30,-0.76 -0.65,-0.71 0,-0.67 0.08,-0.66 0.16,-0.65 0.23,-0.62 0.31,-0.59 0.37,-0.54 0.44,-0.50 0.49,-0.44 0.55,-0.38 0.59,-0.30 0.62,-0.23 0.64,-0.15 0.66,-0.08 0.66,0.00 0.66,0.08 0.64,0.15 0.62,0.23 0.59,0.30 0.55,0.38 0.49,0.44 0.44,0.50 0.37,0.54 0.31,0.59 0.23,0.62 0.16,0.65 0.08,0.66 -0.00,0.67 -0.00,0.67 L 0,0.67 Z"/></g><g transform="translate(187.3333740234375 80.00001525878906) rotate(0 2.666656494140625 1.666656494140625)" stroke="none"><path fill="#1971c2" d="M -0.61,-0.24 Q -0.61,-0.24 -0.39,-1.27 -0.17,-2.29 0.57,-3.56 1.32,-4.83 2.06,-5.78 2.79,-6.73 4.28,-7.09 5.77,-7.45 6.16,-6.95 6.55,-6.45 6.57,-4.83 6.58,-3.22 5.94,-1.34 5.31,0.52 4.03,2.52 2.76,4.51 1.39,5.99 0.02,7.46 -1.51,7.95 -3.06,8.45 -4.26,7.76 -5.47,7.06 -6.01,5.81 -6.54,4.56 -6.72,3.63 -6.89,2.71 -6.77,2.19 -6.64,1.67 -6.65,1.53 -6.66,1.40 -6.64,1.26 -6.61,1.12 -6.56,1.00 -6.50,0.87 -6.41,0.76 -6.33,0.65 -6.22,0.57 -6.11,0.48 -5.99,0.42 -5.86,0.37 -5.73,0.34 -5.59,0.31 -5.45,0.32 -5.31,0.33 -5.18,0.37 -5.05,0.41 -4.93,0.48 -4.81,0.55 -4.71,0.65 -4.62,0.75 -4.54,0.86 -4.47,0.98 -4.43,1.11 -4.39,1.24 -3.13,1.69 -1.88,2.14 -0.71,3.21 0.44,4.28 2.04,5.69 3.63,7.09 4.93,7.87 6.23,8.64 8.77,8.66 11.31,8.67 11.41,8.69 11.52,8.70 11.61,8.75 11.71,8.79 11.78,8.87 11.86,8.94 11.91,9.04 11.96,9.13 11.97,9.24 11.98,9.34 11.97,9.45 11.95,9.55 11.89,9.65 11.84,9.74 11.76,9.81 11.68,9.88 11.59,9.92 11.49,9.96 11.38,9.97 11.28,9.98 11.17,9.96 11.07,9.93 10.98,9.88 10.89,9.82 10.82,9.74 10.76,9.65 10.72,9.55 10.68,9.45 10.68,9.35 10.68,9.24 10.71,9.14 10.74,9.04 10.80,8.95 10.86,8.87 10.95,8.80 11.03,8.74 11.14,8.71 11.24,8.68 11.34,8.68 11.45,8.68 11.55,8.72 11.65,8.76 11.73,8.82 11.82,8.89 11.87,8.98 11.93,9.07 11.96,9.17 11.98,9.27 11.97,9.38 11.97,9.48 11.92,9.58 11.88,9.68 11.81,9.76 11.74,9.84 11.65,9.89 11.56,9.94 11.45,9.96 11.35,9.98 11.35,9.98 11.35,9.98 8.40,10.17 5.45,10.35 3.83,9.56 2.21,8.76 0.55,7.37 -1.10,5.97 -2.18,4.96 -3.27,3.96 -3.92,3.41 -4.57,2.86 -5.60,2.27 -6.64,1.67 -6.65,1.53 -6.66,1.40 -6.64,1.26 -6.61,1.12 -6.56,1.00 -6.50,0.87 -6.41,0.76 -6.33,0.65 -6.22,0.57 -6.11,0.48 -5.99,0.42 -5.86,0.37 -5.73,0.34 -5.59,0.31 -5.45,0.32 -5.31,0.33 -5.18,0.37 -5.05,0.41 -4.93,0.48 -4.81,0.55 -4.71,0.65 -4.62,0.75 -4.54,0.86 -4.47,0.98 -4.43,1.11 -4.39,1.24 -4.51,1.80 -4.64,2.36 -4.50,3.07 -4.37,3.79 -4.17,4.58 -3.98,5.37 -3.47,5.87 -2.95,6.38 -2.26,6.09 -1.56,5.81 -0.36,4.53 0.82,3.26 1.98,1.50 3.14,-0.25 3.71,-1.81 4.28,-3.36 4.38,-4.34 4.48,-5.31 3.81,-4.50 3.15,-3.68 2.43,-2.61 1.70,-1.53 1.16,-0.64 0.61,0.24 0.57,0.31 0.54,0.38 0.48,0.44 0.43,0.50 0.36,0.55 0.29,0.59 0.22,0.62 0.14,0.64 0.06,0.65 -0.01,0.66 -0.09,0.65 -0.17,0.64 -0.24,0.61 -0.32,0.58 -0.38,0.53 -0.45,0.49 -0.50,0.42 -0.55,0.36 -0.59,0.29 -0.62,0.22 -0.64,0.14 -0.66,0.06 -0.66,-0.01 -0.65,-0.09 -0.63,-0.16 -0.61,-0.24 -0.61,-0.24 L -0.61,-0.24 Z"/></g><g transform="translate(216.66668701171875 75.33332824707031) rotate(0 -5.66668701171875 10.666671752929688)" stroke="none"><path fill="#1971c2" d="M 0,0.69 Q 0,0.69 -0.95,0.85 -1.91,1.02 -2.69,1.05 -3.46,1.09 -4.16,1.47 -4.86,1.84 -5.89,2.56 -6.93,3.28 -7.64,4.24 -8.36,5.19 -8.62,5.95 -8.88,6.71 -8.22,6.86 -7.55,7.02 -5.07,7.55 -2.59,8.09 -1.16,8.93 0.25,9.78 0.98,10.78 1.71,11.78 1.64,13.25 1.57,14.71 0.78,15.85 -0.00,17.00 -1.47,17.73 -2.94,18.46 -4.54,18.84 -6.13,19.21 -7.53,19.61 -8.92,20.00 -10.61,20.94 -12.31,21.88 -12.41,21.92 -12.50,21.97 -12.61,21.97 -12.72,21.98 -12.82,21.96 -12.92,21.93 -13.01,21.87 -13.10,21.82 -13.17,21.73 -13.23,21.65 -13.27,21.55 -13.31,21.45 -13.31,21.35 -13.31,21.24 -13.28,21.14 -13.25,21.04 -13.19,20.95 -13.13,20.86 -13.04,20.80 -12.95,20.74 -12.85,20.71 -12.75,20.68 -12.64,20.68 -12.54,20.68 -12.44,20.72 -12.34,20.76 -12.26,20.82 -12.17,20.89 -12.12,20.98 -12.06,21.07 -12.03,21.17 -12.01,21.28 -12.02,21.38 -12.02,21.49 -12.07,21.59 -12.11,21.68 -12.18,21.76 -12.25,21.84 -12.34,21.89 -12.44,21.95 -12.54,21.96 -12.64,21.98 -12.75,21.97 -12.86,21.96 -12.95,21.91 -13.05,21.86 -13.12,21.79 -13.20,21.71 -13.24,21.62 -13.29,21.52 -13.30,21.41 -13.32,21.31 -13.30,21.21 -13.28,21.10 -13.23,21.01 -13.17,20.92 -13.09,20.85 -13.01,20.77 -13.01,20.77 -13.01,20.77 -11.31,19.55 -9.61,18.32 -8.21,17.59 -6.81,16.86 -5.44,16.38 -4.07,15.91 -3.08,15.55 -2.09,15.18 -1.59,14.66 -1.09,14.13 -1.14,13.05 -1.18,11.97 -2.19,11.30 -3.20,10.63 -5.14,10.20 -7.08,9.77 -7.70,9.64 -8.32,9.51 -9.44,9.00 -10.56,8.49 -10.95,7.36 -11.34,6.23 -10.86,4.92 -10.38,3.61 -9.35,2.40 -8.31,1.19 -7.04,0.44 -5.77,-0.31 -4.65,-0.70 -3.53,-1.09 -2.72,-1.05 -1.91,-1.02 -0.95,-0.85 0,-0.69 0.08,-0.68 0.16,-0.67 0.24,-0.64 0.32,-0.61 0.39,-0.56 0.45,-0.51 0.51,-0.45 0.56,-0.39 0.60,-0.31 0.64,-0.24 0.66,-0.16 0.68,-0.08 0.68,0.00 0.68,0.08 0.66,0.16 0.64,0.24 0.60,0.31 0.56,0.39 0.51,0.45 0.45,0.51 0.39,0.56 0.32,0.61 0.24,0.64 0.16,0.67 0.08,0.68 -0.00,0.69 -0.00,0.69 L 0,0.69 Z"/></g><g transform="translate(67.3333740234375 168.00001525878906) rotate(0 1 7.3333282470703125)" stroke="none"><path fill="#1971c2" d="M -0.59,-0.29 Q -0.59,-0.29 -0.25,-1.08 0.08,-1.87 0.40,-2.76 0.71,-3.65 1.39,-4.39 2.07,-5.13 3.26,-5.21 4.45,-5.29 5.21,-4.43 5.96,-3.57 6.27,-1.54 6.58,0.48 6.49,2.88 6.40,5.28 5.58,7.92 4.75,10.56 3.61,12.68 2.46,14.79 1.30,15.96 0.15,17.14 -1.15,17.49 -2.45,17.84 -3.52,17.34 -4.59,16.84 -4.74,16.14 -4.88,15.44 -3.99,16.25 -3.10,17.07 -2.15,17.43 -1.20,17.80 0.13,18.16 1.48,18.52 2.72,18.53 3.96,18.54 5.97,18.61 7.99,18.67 8.09,18.69 8.20,18.70 8.29,18.75 8.39,18.80 8.46,18.88 8.53,18.95 8.58,19.05 8.63,19.15 8.64,19.25 8.65,19.36 8.63,19.46 8.61,19.56 8.55,19.66 8.50,19.75 8.42,19.82 8.34,19.89 8.24,19.93 8.14,19.97 8.04,19.97 7.93,19.98 7.83,19.95 7.73,19.93 7.64,19.87 7.55,19.81 7.48,19.73 7.42,19.64 7.38,19.54 7.35,19.44 7.35,19.34 7.35,19.23 7.38,19.13 7.41,19.03 7.47,18.94 7.54,18.86 7.63,18.80 7.71,18.74 7.81,18.71 7.92,18.68 8.02,18.68 8.13,18.69 8.23,18.72 8.33,18.76 8.41,18.83 8.49,18.90 8.55,18.99 8.60,19.08 8.63,19.18 8.65,19.29 8.64,19.39 8.63,19.50 8.59,19.59 8.54,19.69 8.47,19.77 8.40,19.85 8.30,19.90 8.21,19.95 8.11,19.97 8.00,19.98 8.00,19.98 8.00,19.98 6.00,20.09 3.99,20.20 2.50,20.28 1.01,20.35 -0.46,19.95 -1.93,19.56 -3.11,19.04 -4.29,18.52 -5.08,17.82 -5.88,17.12 -6.15,16.51 -6.43,15.90 -6.03,15.22 -5.63,14.54 -4.64,14.87 -3.65,15.20 -3.09,15.63 -2.52,16.06 -1.79,15.90 -1.05,15.74 -0.12,14.80 0.81,13.87 1.89,11.92 2.96,9.98 3.75,7.58 4.54,5.19 4.64,2.94 4.74,0.70 4.60,-0.95 4.45,-2.62 3.73,-3.22 3.01,-3.83 2.62,-3.42 2.23,-3.01 1.84,-2.10 1.44,-1.19 1.02,-0.44 0.59,0.29 0.54,0.36 0.50,0.43 0.44,0.48 0.38,0.53 0.31,0.57 0.24,0.61 0.17,0.63 0.09,0.65 0.01,0.65 -0.06,0.66 -0.14,0.64 -0.22,0.62 -0.29,0.58 -0.36,0.55 -0.42,0.50 -0.48,0.45 -0.53,0.38 -0.58,0.32 -0.61,0.24 -0.64,0.17 -0.65,0.09 -0.66,0.01 -0.65,-0.06 -0.64,-0.14 -0.62,-0.22 -0.59,-0.29 -0.59,-0.29 L -0.59,-0.29 Z"/></g><g transform="translate(91.3333740234375 172.00001525878906) rotate(0 -0.66668701171875 7.9999847412109375)" stroke="none"><path fill="#1971c2" d="M -0.16,0.66 Q -0.16,0.66 -0.95,0.60 -1.73,0.53 -2.45,0.68 -3.16,0.83 -3.91,1.41 -4.65,1.99 -5.38,2.59 -6.10,3.20 -6.48,4.00 -6.86,4.81 -6.12,5.52 -5.37,6.23 -3.92,6.19 -2.48,6.15 -0.80,6.17 0.86,6.18 2.35,6.19 3.84,6.19 5.20,6.76 6.56,7.33 7.04,8.53 7.52,9.73 7.24,11.02 6.95,12.30 5.94,13.52 4.93,14.75 3.45,15.67 1.96,16.60 0.67,16.97 -0.62,17.35 -2.60,17.33 -4.59,17.31 -4.70,17.31 -4.80,17.30 -4.90,17.26 -5.00,17.22 -5.08,17.16 -5.16,17.09 -5.22,17.00 -5.27,16.91 -5.29,16.80 -5.32,16.70 -5.31,16.59 -5.29,16.49 -5.25,16.39 -5.21,16.29 -5.13,16.22 -5.06,16.14 -4.97,16.09 -4.87,16.04 -4.77,16.02 -4.66,16.00 -4.56,16.02 -4.45,16.04 -4.36,16.09 -4.26,16.14 -4.19,16.22 -4.12,16.29 -4.07,16.39 -4.03,16.49 -4.02,16.59 -4.01,16.70 -4.03,16.80 -4.05,16.90 -4.11,17.00 -4.16,17.09 -4.24,17.16 -4.32,17.22 -4.42,17.26 -4.52,17.30 -4.63,17.31 -4.73,17.31 -4.83,17.29 -4.94,17.26 -5.02,17.20 -5.11,17.14 -5.18,17.05 -5.24,16.97 -5.28,16.87 -5.31,16.77 -5.31,16.66 -5.31,16.56 -5.28,16.46 -5.24,16.35 -5.18,16.27 -5.11,16.19 -5.03,16.13 -4.94,16.07 -4.84,16.04 -4.73,16.01 -4.73,16.01 -4.73,16.01 -3.03,15.49 -1.33,14.96 -0.34,14.66 0.64,14.35 1.83,13.67 3.02,12.99 3.78,12.24 4.54,11.49 4.82,10.83 5.09,10.17 5.10,9.51 5.10,8.85 4.44,8.65 3.78,8.44 2.31,8.43 0.83,8.43 -0.84,8.41 -2.53,8.39 -4.47,8.28 -6.42,8.16 -7.46,7.35 -8.51,6.54 -8.71,5.32 -8.90,4.10 -8.23,2.82 -7.55,1.54 -6.70,0.85 -5.84,0.17 -4.67,-0.49 -3.50,-1.15 -2.41,-1.22 -1.32,-1.29 -0.58,-0.98 0.16,-0.66 0.24,-0.63 0.32,-0.60 0.39,-0.56 0.45,-0.51 0.51,-0.45 0.56,-0.39 0.60,-0.31 0.64,-0.24 0.66,-0.16 0.68,-0.08 0.68,0.00 0.68,0.08 0.66,0.16 0.64,0.24 0.60,0.32 0.56,0.39 0.51,0.45 0.45,0.51 0.38,0.56 0.31,0.61 0.24,0.64 0.16,0.67 0.08,0.68 -0.00,0.69 -0.08,0.67 -0.16,0.66 -0.16,0.66 L -0.16,0.66 Z"/></g><g transform="translate(119.3333740234375 170.00001525878906) rotate(0 4.666656494140625 5)" stroke="none"><path fill="#1971c2" d="M -0.66,0.13 Q -0.66,0.13 -0.96,-0.84 -1.26,-1.81 -0.96,-2.83 -0.67,-3.84 -0.02,-4.73 0.61,-5.61 1.76,-5.73 2.91,-5.85 3.55,-5.04 4.20,-4.23 4.46,-2.99 4.72,-1.75 4.64,-0.21 4.55,1.32 4.32,2.57 4.09,3.81 3.75,4.38 3.41,4.94 2.76,4.57 2.10,4.20 2.65,3.84 3.20,3.49 4.25,2.95 5.29,2.41 6.38,2.17 7.46,1.93 8.57,2.54 9.67,3.16 10.16,4.59 10.65,6.03 10.41,7.54 10.16,9.04 9.22,10.71 8.28,12.38 7.06,13.69 5.83,15.00 3.60,15.49 1.36,15.98 1.25,15.97 1.15,15.96 1.05,15.91 0.96,15.87 0.88,15.80 0.80,15.72 0.75,15.63 0.70,15.53 0.69,15.43 0.67,15.32 0.69,15.22 0.71,15.11 0.76,15.02 0.81,14.93 0.89,14.86 0.96,14.78 1.06,14.74 1.16,14.69 1.26,14.68 1.37,14.67 1.47,14.70 1.58,14.72 1.67,14.78 1.76,14.83 1.82,14.91 1.89,14.99 1.93,15.09 1.97,15.19 1.98,15.30 1.98,15.40 1.95,15.51 1.92,15.61 1.86,15.70 1.80,15.78 1.72,15.85 1.63,15.91 1.53,15.94 1.43,15.98 1.32,15.98 1.22,15.98 1.12,15.94 1.02,15.91 0.93,15.84 0.85,15.78 0.79,15.69 0.73,15.60 0.70,15.50 0.68,15.40 0.68,15.29 0.69,15.18 0.73,15.08 0.77,14.99 0.84,14.91 0.91,14.83 1.00,14.77 1.09,14.72 1.19,14.69 1.30,14.67 1.30,14.67 1.30,14.67 2.74,14.04 4.19,13.42 5.24,12.31 6.29,11.20 7.10,9.87 7.91,8.55 8.16,7.54 8.42,6.52 7.93,5.29 7.44,4.06 6.89,4.27 6.34,4.47 5.34,4.99 4.34,5.51 3.68,5.83 3.02,6.16 2.23,5.58 1.44,5.00 1.69,4.18 1.94,3.37 2.18,2.26 2.43,1.15 2.57,-0.12 2.71,-1.41 2.59,-2.31 2.47,-3.22 2.17,-3.74 1.87,-4.25 1.49,-3.70 1.11,-3.14 0.80,-2.58 0.49,-2.01 0.58,-1.07 0.66,-0.13 0.67,-0.05 0.67,0.03 0.66,0.11 0.65,0.19 0.61,0.26 0.58,0.34 0.53,0.40 0.48,0.47 0.42,0.52 0.36,0.57 0.28,0.61 0.21,0.64 0.13,0.66 0.05,0.67 -0.02,0.67 -0.11,0.66 -0.19,0.64 -0.26,0.62 -0.33,0.58 -0.41,0.54 -0.46,0.48 -0.52,0.42 -0.57,0.35 -0.61,0.28 -0.64,0.21 -0.66,0.13 -0.66,0.13 L -0.66,0.13 Z"/></g><g transform="translate(138.66668701171875 174.6666717529297) rotate(0 1.333343505859375 3.3333282470703125)" stroke="none"><path fill="#1971c2" d="M 0.37,0.56 Q 0.37,0.56 -0.71,1.42 -1.80,2.27 -2.76,3.33 -3.73,4.38 -4.49,5.56 -5.25,6.74 -5.70,8.28 -6.15,9.82 -6.03,10.76 -5.90,11.70 -5.19,12.12 -4.47,12.54 -2.84,12.02 -1.22,11.50 0.36,10.25 1.94,9.00 3.05,8.08 4.16,7.16 5.65,4.07 7.14,0.99 7.44,-1.22 7.74,-3.44 7.01,-4.31 6.28,-5.19 5.23,-5.04 4.18,-4.89 2.69,-3.87 1.19,-2.85 0.09,-1.24 -1.00,0.36 -1.86,2.30 -2.72,4.24 -2.78,4.33 -2.83,4.43 -2.91,4.49 -3.00,4.56 -3.09,4.60 -3.19,4.64 -3.30,4.64 -3.41,4.65 -3.51,4.62 -3.61,4.59 -3.70,4.53 -3.78,4.47 -3.85,4.38 -3.91,4.30 -3.94,4.20 -3.98,4.09 -3.98,3.99 -3.98,3.88 -3.94,3.78 -3.91,3.68 -3.84,3.60 -3.78,3.51 -3.69,3.45 -3.60,3.40 -3.50,3.37 -3.39,3.34 -3.29,3.35 -3.18,3.36 -3.08,3.40 -2.98,3.44 -2.90,3.51 -2.82,3.58 -2.77,3.67 -2.72,3.76 -2.69,3.86 -2.67,3.97 -2.68,4.07 -2.70,4.18 -2.74,4.27 -2.79,4.37 -2.86,4.45 -2.94,4.52 -3.03,4.57 -3.13,4.62 -3.23,4.64 -3.34,4.65 -3.44,4.63 -3.54,4.62 -3.64,4.56 -3.73,4.51 -3.80,4.44 -3.88,4.36 -3.92,4.26 -3.96,4.16 -3.97,4.06 -3.98,3.95 -3.96,3.85 -3.94,3.75 -3.94,3.75 -3.94,3.75 -3.14,1.64 -2.34,-0.45 -1.19,-2.52 -0.05,-4.58 1.93,-5.89 3.92,-7.20 5.66,-7.12 7.39,-7.04 8.69,-5.37 10.00,-3.69 9.67,-0.82 9.34,2.03 7.56,5.51 5.78,8.98 4.59,9.97 3.41,10.96 1.40,12.40 -0.59,13.83 -2.90,14.22 -5.21,14.60 -6.54,13.54 -7.87,12.48 -8.05,10.86 -8.22,9.23 -7.58,7.42 -6.94,5.61 -6.03,4.33 -5.11,3.05 -3.95,1.92 -2.79,0.79 -1.58,0.11 -0.37,-0.56 -0.30,-0.60 -0.23,-0.64 -0.15,-0.66 -0.07,-0.67 0.01,-0.67 0.09,-0.67 0.17,-0.65 0.25,-0.63 0.32,-0.59 0.39,-0.55 0.45,-0.49 0.51,-0.44 0.56,-0.37 0.60,-0.30 0.63,-0.23 0.66,-0.15 0.67,-0.07 0.68,0.01 0.67,0.09 0.66,0.17 0.62,0.25 0.59,0.32 0.55,0.39 0.50,0.46 0.44,0.51 0.37,0.56 0.37,0.56 L 0.37,0.56 Z"/></g><g transform="translate(174 124.66667175292969) rotate(0 6.000030517578125 3.333343505859375)" stroke="none"><path fill="#1971c2" d="M -0.58,0.29 Q -0.58,0.29 -1.14,-0.42 -1.69,-1.13 -1.72,-2.10 -1.75,-3.07 -1.10,-4.21 -0.44,-5.35 0.55,-6.07 1.56,-6.79 3.03,-6.90 4.50,-7.00 5.50,-6.31 6.50,-5.62 6.96,-4.37 7.43,-3.12 7.41,-1.92 7.39,-0.72 7.37,-0.11 7.36,0.48 7.36,0.94 7.36,1.39 7.34,1.55 7.31,1.71 7.24,1.86 7.18,2.01 7.08,2.14 6.98,2.27 6.85,2.37 6.73,2.47 6.58,2.54 6.43,2.61 6.27,2.64 6.11,2.67 5.95,2.66 5.79,2.66 5.63,2.61 5.47,2.56 5.33,2.48 5.19,2.40 5.08,2.28 4.96,2.17 4.87,2.03 4.79,1.89 4.74,1.74 4.69,1.58 4.68,1.42 4.66,1.26 5.69,0.46 6.72,-0.33 7.42,-0.74 8.12,-1.15 9.21,-1.58 10.30,-2.00 11.51,-1.74 12.71,-1.48 13.36,-0.66 14.01,0.15 13.84,1.87 13.67,3.58 12.76,5.65 11.84,7.73 10.61,9.26 9.39,10.80 8.36,11.85 7.33,12.90 6.79,12.76 6.25,12.63 6.16,12.71 6.07,12.79 5.96,12.84 5.85,12.90 5.73,12.93 5.61,12.96 5.49,12.96 5.36,12.96 5.25,12.93 5.13,12.90 5.02,12.84 4.91,12.79 4.82,12.70 4.73,12.62 4.66,12.52 4.59,12.42 4.54,12.31 4.50,12.19 4.49,12.07 4.47,11.95 4.49,11.83 4.50,11.70 4.55,11.59 4.59,11.48 4.66,11.37 4.73,11.27 5.80,10.07 6.87,8.86 6.96,8.80 7.05,8.74 7.15,8.71 7.25,8.68 7.36,8.68 7.46,8.69 7.56,8.72 7.66,8.76 7.74,8.83 7.82,8.90 7.88,8.99 7.94,9.08 7.96,9.18 7.98,9.29 7.97,9.39 7.96,9.50 7.92,9.59 7.88,9.69 7.80,9.77 7.73,9.85 7.64,9.90 7.54,9.95 7.44,9.97 7.34,9.98 7.23,9.97 7.13,9.95 7.03,9.90 6.94,9.86 6.86,9.78 6.79,9.70 6.74,9.61 6.70,9.51 6.68,9.40 6.67,9.30 6.69,9.20 6.72,9.09 6.77,9.00 6.82,8.91 6.90,8.84 6.98,8.77 7.08,8.73 7.18,8.69 7.29,8.68 7.39,8.67 7.50,8.70 7.60,8.73 7.69,8.79 7.78,8.85 7.84,8.93 7.91,9.01 7.94,9.12 7.98,9.22 7.98,9.32 7.98,9.43 7.94,9.53 7.91,9.63 7.85,9.72 7.78,9.80 7.78,9.80 7.78,9.80 7.02,11.21 6.25,12.63 6.16,12.71 6.07,12.79 5.96,12.84 5.85,12.90 5.73,12.93 5.61,12.96 5.49,12.96 5.36,12.96 5.25,12.93 5.13,12.90 5.02,12.84 4.91,12.79 4.82,12.70 4.73,12.62 4.66,12.52 4.59,12.42 4.54,12.31 4.50,12.19 4.49,12.07 4.47,11.95 4.49,11.83 4.50,11.70 4.55,11.59 4.59,11.48 4.66,11.37 4.73,11.27 5.31,11.08 5.89,10.88 6.59,9.98 7.29,9.08 8.34,7.84 9.39,6.59 10.21,4.84 11.04,3.08 11.00,1.78 10.96,0.49 10.21,0.84 9.45,1.19 8.41,1.29 7.36,1.39 7.34,1.55 7.31,1.71 7.24,1.86 7.18,2.01 7.08,2.14 6.98,2.27 6.85,2.37 6.73,2.47 6.58,2.54 6.43,2.61 6.27,2.64 6.11,2.67 5.95,2.66 5.79,2.66 5.63,2.61 5.47,2.56 5.33,2.48 5.19,2.40 5.08,2.28 4.96,2.17 4.87,2.03 4.79,1.89 4.74,1.74 4.69,1.58 4.68,1.42 4.66,1.26 4.69,0.80 4.72,0.35 4.77,-0.27 4.81,-0.90 4.94,-1.70 5.06,-2.50 4.95,-3.26 4.85,-4.01 4.52,-4.43 4.19,-4.85 3.43,-4.85 2.66,-4.86 2.02,-4.46 1.37,-4.05 0.76,-2.99 0.16,-1.92 0.37,-1.11 0.58,-0.29 0.61,-0.21 0.64,-0.14 0.65,-0.06 0.65,0.01 0.64,0.09 0.63,0.17 0.60,0.24 0.57,0.31 0.53,0.38 0.48,0.44 0.42,0.49 0.36,0.54 0.29,0.58 0.22,0.62 0.14,0.63 0.06,0.65 -0.01,0.65 -0.09,0.65 -0.16,0.63 -0.24,0.61 -0.31,0.57 -0.38,0.53 -0.44,0.48 -0.50,0.42 -0.54,0.36 -0.58,0.29 -0.58,0.29 L -0.58,0.29 Z"/></g><g transform="translate(205.3333740234375 126.66667175292969) rotate(0 1.666656494140625 4)" stroke="none"><path fill="#1971c2" d="M 0,0.66 Q 0,0.66 -0.73,0.81 -1.47,0.97 -1.95,1.32 -2.43,1.67 -3.15,2.51 -3.87,3.34 -4.29,4.90 -4.70,6.46 -4.90,8.22 -5.09,9.99 -4.68,11.45 -4.27,12.90 -3.33,13.54 -2.38,14.17 -1.02,13.58 0.33,12.99 2.18,10.99 4.02,8.99 5.40,6.50 6.77,4.00 7.16,1.39 7.55,-1.22 6.89,-3.06 6.23,-4.89 5.16,-5.40 4.10,-5.91 2.42,-4.94 0.74,-3.98 -1.00,-1.84 -2.76,0.29 -4.43,2.98 -6.10,5.67 -6.17,5.75 -6.24,5.83 -6.33,5.88 -6.42,5.94 -6.52,5.96 -6.63,5.98 -6.73,5.97 -6.84,5.96 -6.94,5.92 -7.03,5.87 -7.11,5.80 -7.19,5.72 -7.24,5.63 -7.28,5.54 -7.30,5.43 -7.32,5.33 -7.30,5.22 -7.28,5.12 -7.23,5.02 -7.18,4.93 -7.11,4.86 -7.03,4.78 -6.93,4.74 -6.84,4.70 -6.73,4.68 -6.62,4.67 -6.52,4.70 -6.42,4.72 -6.33,4.77 -6.23,4.83 -6.17,4.91 -6.10,4.99 -6.06,5.09 -6.02,5.19 -6.01,5.30 -6.01,5.40 -6.04,5.50 -6.07,5.61 -6.13,5.69 -6.19,5.78 -6.27,5.85 -6.36,5.91 -6.46,5.94 -6.56,5.98 -6.66,5.98 -6.77,5.98 -6.87,5.94 -6.97,5.91 -7.06,5.84 -7.14,5.78 -7.20,5.69 -7.26,5.60 -7.29,5.50 -7.31,5.40 -7.31,5.29 -7.30,5.18 -7.26,5.09 -7.22,4.99 -7.22,4.99 -7.22,4.99 -5.57,2.20 -3.92,-0.59 -2.09,-3.15 -0.25,-5.72 2.00,-6.82 4.26,-7.93 6.16,-6.97 8.06,-6.02 8.95,-3.52 9.84,-1.01 9.37,2.05 8.91,5.13 7.37,7.91 5.83,10.70 3.53,13.01 1.23,15.32 -0.85,15.84 -2.94,16.37 -4.69,15.12 -6.45,13.88 -6.98,11.82 -7.52,9.75 -7.24,7.74 -6.96,5.73 -6.24,3.82 -5.53,1.90 -4.49,0.88 -3.46,-0.14 -2.52,-0.56 -1.59,-0.97 -0.79,-0.81 0,-0.66 0.07,-0.65 0.15,-0.64 0.23,-0.61 0.30,-0.58 0.37,-0.54 0.43,-0.49 0.49,-0.43 0.54,-0.37 0.58,-0.30 0.61,-0.23 0.63,-0.15 0.65,-0.07 0.65,0.00 0.65,0.07 0.63,0.15 0.61,0.23 0.58,0.30 0.54,0.37 0.49,0.43 0.43,0.49 0.37,0.54 0.30,0.58 0.23,0.61 0.15,0.64 0.07,0.65 -0.00,0.66 -0.00,0.66 L 0,0.66 Z"/></g></svg>