<svg version="1.1" xmlns="http://www.w3.org/2000/svg" viewBox="0 0 780.0000313354492 965.1666878295898" width="780.0000313354492" height="965.1666878295898" filter="invert(93%) hue-rotate(180deg)">
  <!-- svg-source:excalidraw -->
  
  <defs>
    <style class="style-fonts">
      @font-face {
        font-family: "Virgil";
        src: url("https://excalidraw.com/Virgil.woff2");
      }
      @font-face {
        font-family: "Cascadia";
        src: url("https://excalidraw.com/Cascadia.woff2");
      }
    </style>
    
  </defs>
  <rect x="0" y="0" width="780.0000313354492" height="965.1666878295898" fill="#ffffff"/><g transform="translate(769.9999313354492 955.1665878295898) rotate(0 0.00004999999998744897 0.00004999999998744897)" stroke="none"><path fill="#1e1e1e" d="M 0.78,-0.78 Q 0.78,-0.78 0.88,-0.63 0.99,-0.49 1.04,-0.32 1.10,-0.14 1.09,0.02 1.09,0.20 1.02,0.37 0.96,0.54 0.85,0.68 0.74,0.82 0.59,0.92 0.43,1.02 0.26,1.06 0.09,1.10 -0.08,1.09 -0.26,1.07 -0.43,1.00 -0.59,0.93 -0.73,0.81 -0.86,0.69 -0.95,0.53 -1.04,0.38 -1.07,0.20 -1.10,0.02 -1.08,-0.14 -1.06,-0.32 -0.98,-0.48 -0.90,-0.64 -0.77,-0.77 -0.64,-0.90 -0.48,-0.98 -0.32,-1.06 -0.14,-1.08 0.03,-1.10 0.20,-1.07 0.38,-1.04 0.53,-0.95 0.69,-0.86 0.81,-0.73 0.93,-0.59 1.00,-0.43 1.07,-0.26 1.09,-0.08 1.10,0.09 1.06,0.26 1.01,0.43 0.92,0.59 0.82,0.74 0.68,0.85 0.54,0.96 0.37,1.02 0.20,1.09 0.02,1.09 -0.15,1.10 -0.32,1.04 -0.49,0.99 -0.63,0.88 -0.78,0.78 -0.78,0.78 -0.78,0.78 -0.86,0.67 -0.95,0.57 -1.00,0.45 -1.06,0.33 -1.08,0.19 -1.10,0.06 -1.10,-0.06 -1.09,-0.20 -1.05,-0.32 -1.01,-0.45 -0.94,-0.57 -0.87,-0.68 -0.77,-0.77 -0.68,-0.87 -0.57,-0.94 -0.45,-1.01 -0.32,-1.05 -0.20,-1.09 -0.06,-1.10 0.06,-1.10 0.19,-1.08 0.33,-1.06 0.45,-1.00 0.57,-0.95 0.67,-0.86 0.78,-0.78 0.78,-0.78 L 0.78,-0.78 Z"/></g><g transform="translate(13.333335876464844 54.44445037841797) rotate(0 10.277767181396484 -8.05556869506836)" stroke="none"><path fill="#1e1e1e" d="M 0.70,0.44 Q 0.70,0.44 -0.11,1.70 -0.93,2.97 -1.39,3.53 -1.85,4.10 -1.92,4.18 -1.98,4.26 -2.07,4.33 -2.15,4.39 -2.25,4.43 -2.34,4.47 -2.45,4.49 -2.55,4.51 -2.66,4.50 -2.76,4.49 -2.86,4.46 -2.96,4.43 -3.05,4.37 -3.14,4.31 -3.21,4.24 -3.28,4.16 -3.34,4.07 -3.39,3.98 -3.42,3.88 -3.45,3.78 -3.45,3.68 -3.46,3.57 -3.44,3.47 -3.42,3.37 -3.37,3.27 -3.33,3.18 -2.74,1.98 -2.15,0.78 -0.88,-0.86 0.37,-2.51 3.00,-5.29 5.63,-8.08 8.21,-10.23 10.79,-12.38 13.16,-14.25 15.53,-16.12 17.51,-17.40 19.50,-18.69 20.89,-19.38 22.27,-20.08 23.04,-19.51 23.82,-18.95 23.59,-17.70 23.36,-16.44 22.41,-14.17 21.47,-11.90 20.10,-9.17 18.73,-6.45 17.68,-4.05 16.63,-1.64 16.91,-0.31 17.18,1.01 17.14,1.09 17.09,1.17 17.03,1.23 16.96,1.30 16.88,1.35 16.81,1.40 16.72,1.43 16.63,1.45 16.54,1.46 16.45,1.47 16.36,1.45 16.27,1.44 16.18,1.40 16.10,1.36 16.03,1.31 15.95,1.25 15.90,1.18 15.84,1.11 15.80,1.03 15.76,0.94 15.74,0.85 15.73,0.76 15.73,0.67 15.73,0.58 15.76,0.49 15.79,0.41 15.99,0.21 16.19,0.01 16.31,-0.01 16.43,-0.04 16.55,-0.03 16.67,-0.02 16.79,0.02 16.90,0.07 16.99,0.15 17.08,0.23 17.14,0.34 17.20,0.45 17.22,0.57 17.25,0.69 17.23,0.81 17.21,0.94 17.15,1.05 17.10,1.16 17.01,1.24 16.92,1.33 16.81,1.38 16.70,1.44 16.58,1.45 16.46,1.47 16.34,1.44 16.22,1.42 16.11,1.36 16.00,1.30 15.92,1.21 15.84,1.11 15.79,1.00 15.74,0.89 15.74,0.76 15.73,0.64 15.76,0.52 15.79,0.40 15.85,0.30 15.92,0.20 16.02,0.12 16.11,0.04 16.23,0.00 16.35,-0.03 16.47,-0.03 16.59,-0.04 16.71,-0.00 16.83,0.03 16.93,0.10 17.03,0.17 17.10,0.27 17.17,0.37 17.20,0.49 17.24,0.61 17.23,0.73 17.23,0.86 17.19,0.97 17.14,1.09 17.07,1.18 16.99,1.28 17.09,1.14 17.18,1.01 17.14,1.09 17.09,1.17 17.03,1.23 16.96,1.30 16.88,1.35 16.81,1.40 16.72,1.43 16.63,1.45 16.54,1.46 16.45,1.47 16.36,1.45 16.27,1.44 16.18,1.40 16.10,1.36 16.03,1.31 15.95,1.25 15.90,1.18 15.84,1.11 15.80,1.03 15.76,0.94 15.74,0.85 15.73,0.76 15.73,0.67 15.73,0.58 15.76,0.49 15.79,0.41 15.57,-0.89 15.35,-2.19 16.41,-4.64 17.46,-7.09 18.79,-9.77 20.11,-12.45 21.00,-14.63 21.88,-16.81 21.99,-17.88 22.09,-18.95 21.17,-18.25 20.25,-17.54 18.31,-16.29 16.38,-15.03 14.04,-13.17 11.69,-11.30 9.19,-9.19 6.69,-7.09 4.12,-4.35 1.56,-1.61 0.39,-0.04 -0.77,1.52 -1.31,2.81 -1.85,4.10 -1.92,4.18 -1.98,4.26 -2.07,4.33 -2.15,4.39 -2.25,4.43 -2.34,4.47 -2.45,4.49 -2.55,4.51 -2.66,4.50 -2.76,4.49 -2.86,4.46 -2.96,4.43 -3.05,4.37 -3.14,4.31 -3.21,4.24 -3.28,4.16 -3.34,4.07 -3.39,3.98 -3.42,3.88 -3.45,3.78 -3.45,3.68 -3.46,3.57 -3.44,3.47 -3.42,3.37 -3.37,3.27 -3.33,3.18 -2.79,2.65 -2.26,2.13 -1.48,0.84 -0.70,-0.44 -0.64,-0.52 -0.58,-0.60 -0.50,-0.66 -0.42,-0.72 -0.32,-0.76 -0.23,-0.80 -0.13,-0.81 -0.03,-0.83 0.06,-0.82 0.16,-0.82 0.25,-0.78 0.35,-0.75 0.44,-0.70 0.52,-0.65 0.59,-0.57 0.66,-0.50 0.71,-0.41 0.76,-0.33 0.79,-0.23 0.82,-0.13 0.82,-0.03 0.83,0.06 0.81,0.16 0.79,0.26 0.75,0.35 0.70,0.44 0.70,0.44 L 0.70,0.44 Z"/></g><g transform="translate(39.444435119628906 51.111106872558594) rotate(0 7.777778625488281 -4.4444427490234375)" stroke="none"><path fill="#1e1e1e" d="M -0.80,-0.40 Q -0.80,-0.40 -0.29,-1.34 0.21,-2.29 1.25,-3.84 2.30,-5.40 3.73,-7.03 5.16,-8.67 6.90,-10.32 8.64,-11.98 10.20,-13.18 11.76,-14.37 12.79,-14.90 13.82,-15.43 14.93,-15.24 16.03,-15.05 16.18,-14.41 16.33,-13.77 15.84,-12.07 15.35,-10.37 14.32,-8.08 13.29,-5.78 12.05,-3.23 10.81,-0.67 10.14,1.46 9.47,3.61 10.24,4.44 11.01,5.28 10.97,5.37 10.93,5.46 10.87,5.54 10.81,5.61 10.74,5.67 10.66,5.73 10.57,5.78 10.48,5.82 10.39,5.83 10.29,5.85 10.20,5.85 10.10,5.84 10.01,5.81 9.91,5.78 9.83,5.73 9.75,5.68 9.68,5.61 9.61,5.55 9.56,5.46 9.51,5.38 9.48,5.29 9.45,5.19 9.44,5.10 9.44,5.00 9.45,4.90 9.47,4.81 9.92,4.53 10.37,4.25 10.49,4.29 10.62,4.33 10.72,4.41 10.83,4.49 10.90,4.60 10.97,4.71 11.01,4.83 11.04,4.96 11.04,5.09 11.03,5.22 10.98,5.34 10.93,5.46 10.85,5.56 10.76,5.66 10.65,5.73 10.54,5.80 10.41,5.82 10.29,5.85 10.16,5.84 10.03,5.82 9.91,5.77 9.79,5.71 9.69,5.62 9.60,5.53 9.54,5.42 9.48,5.30 9.46,5.18 9.43,5.05 9.46,4.92 9.48,4.79 9.54,4.67 9.60,4.56 9.69,4.47 9.79,4.38 9.91,4.32 10.02,4.27 10.15,4.25 10.28,4.24 10.41,4.27 10.54,4.30 10.65,4.36 10.76,4.43 10.85,4.53 10.93,4.63 10.98,4.75 11.03,4.87 11.04,5.00 11.04,5.13 11.01,5.26 10.97,5.38 10.90,5.49 10.83,5.60 10.72,5.68 10.62,5.76 10.50,5.80 10.37,5.84 10.69,5.56 11.01,5.28 10.97,5.37 10.93,5.46 10.87,5.54 10.81,5.61 10.74,5.67 10.66,5.73 10.57,5.78 10.48,5.82 10.39,5.83 10.29,5.85 10.20,5.85 10.10,5.84 10.01,5.81 9.91,5.78 9.83,5.73 9.75,5.68 9.68,5.61 9.61,5.55 9.56,5.46 9.51,5.38 9.48,5.29 9.45,5.19 9.44,5.10 9.44,5.00 9.45,4.90 9.47,4.81 8.77,4.01 8.08,3.20 8.76,0.94 9.45,-1.32 10.64,-3.87 11.84,-6.42 12.78,-8.63 13.73,-10.84 14.08,-12.51 14.42,-14.19 13.52,-13.72 12.62,-13.25 11.13,-12.09 9.64,-10.93 7.97,-9.31 6.30,-7.68 4.96,-6.11 3.61,-4.53 2.66,-3.03 1.70,-1.54 1.25,-0.56 0.80,0.40 0.74,0.49 0.68,0.58 0.60,0.65 0.52,0.73 0.43,0.78 0.33,0.83 0.23,0.86 0.12,0.89 0.01,0.89 -0.09,0.89 -0.19,0.87 -0.30,0.84 -0.40,0.80 -0.49,0.75 -0.58,0.68 -0.66,0.61 -0.72,0.52 -0.78,0.43 -0.83,0.33 -0.87,0.23 -0.88,0.12 -0.90,0.01 -0.89,-0.09 -0.87,-0.19 -0.84,-0.30 -0.80,-0.40 -0.80,-0.40 L -0.80,-0.40 Z"/></g><g transform="translate(85.55554962158203 38.888885498046875) rotate(0 2.2222137451171875 7.777778625488281)" stroke="none"><path fill="#1e1e1e" d="M -0.65,-0.50 Q -0.65,-0.50 0.48,-1.92 1.62,-3.35 2.26,-4.13 2.90,-4.91 3.77,-5.63 4.65,-6.35 5.86,-6.25 7.08,-6.14 7.71,-4.70 8.34,-3.26 8.07,-0.95 7.81,1.36 6.87,4.10 5.92,6.84 4.54,9.16 3.15,11.48 1.40,13.45 -0.34,15.42 -2.18,16.16 -4.03,16.89 -5.46,16.49 -6.88,16.08 -7.53,15.00 -8.18,13.92 -8.25,12.78 -8.32,11.65 -7.41,11.04 -6.50,10.43 -5.56,11.09 -4.62,11.75 -3.41,13.39 -2.20,15.02 -0.78,16.62 0.62,18.22 2.10,19.17 3.58,20.12 5.36,20.35 7.14,20.59 9.26,19.37 11.39,18.16 11.51,18.12 11.63,18.08 11.76,18.08 11.89,18.08 12.01,18.12 12.13,18.16 12.23,18.24 12.33,18.32 12.40,18.43 12.47,18.53 12.51,18.66 12.54,18.78 12.53,18.91 12.52,19.04 12.47,19.15 12.43,19.27 12.34,19.37 12.26,19.47 12.15,19.53 12.04,19.60 11.91,19.62 11.79,19.65 11.66,19.63 11.53,19.62 11.42,19.56 11.30,19.51 11.21,19.42 11.12,19.33 11.06,19.22 11.00,19.10 10.98,18.98 10.96,18.85 10.98,18.73 11.00,18.60 11.06,18.49 11.13,18.37 11.22,18.29 11.31,18.20 11.43,18.15 11.55,18.09 11.67,18.08 11.80,18.07 11.93,18.10 12.05,18.13 12.16,18.19 12.27,18.26 12.35,18.36 12.43,18.46 12.48,18.58 12.53,18.70 12.53,18.82 12.54,18.95 12.50,19.07 12.47,19.20 12.39,19.30 12.32,19.41 12.22,19.48 12.12,19.56 12.12,19.56 12.12,19.56 9.61,20.75 7.10,21.94 4.98,21.64 2.87,21.34 1.20,20.28 -0.46,19.21 -1.94,17.58 -3.42,15.94 -4.52,14.48 -5.61,13.02 -6.34,12.54 -7.06,12.07 -7.02,12.70 -6.98,13.33 -6.62,14.16 -6.25,14.98 -5.29,15.29 -4.34,15.61 -2.83,15.03 -1.32,14.46 0.30,12.60 1.93,10.74 3.24,8.55 4.54,6.36 5.42,3.77 6.30,1.17 6.57,-0.80 6.84,-2.78 6.10,-3.92 5.35,-5.06 4.73,-4.49 4.10,-3.92 3.47,-3.15 2.85,-2.39 1.75,-0.94 0.65,0.50 0.58,0.57 0.51,0.64 0.42,0.69 0.34,0.74 0.24,0.77 0.15,0.80 0.05,0.81 -0.04,0.82 -0.14,0.80 -0.24,0.78 -0.33,0.74 -0.42,0.70 -0.50,0.64 -0.58,0.58 -0.64,0.50 -0.70,0.42 -0.74,0.33 -0.78,0.24 -0.80,0.15 -0.82,0.05 -0.81,-0.04 -0.81,-0.14 -0.78,-0.24 -0.75,-0.33 -0.70,-0.42 -0.65,-0.50 -0.65,-0.50 L -0.65,-0.50 Z"/></g><g transform="translate(65.55554962158203 56.111106872558594) rotate(0 1.1111068725585938 3.0555496215820312)" stroke="none"><path fill="#1e1e1e" d="M 0.96,0.24 Q 0.96,0.24 0.60,1.50 0.23,2.77 0.08,3.73 -0.06,4.70 0.79,3.38 1.66,2.06 1.02,0.73 0.38,-0.58 0.43,-0.68 0.49,-0.77 0.57,-0.85 0.65,-0.92 0.75,-0.98 0.84,-1.04 0.95,-1.07 1.05,-1.10 1.16,-1.11 1.28,-1.11 1.38,-1.09 1.49,-1.07 1.59,-1.02 1.69,-0.98 1.78,-0.91 1.87,-0.84 1.93,-0.75 2.00,-0.66 2.04,-0.56 2.09,-0.46 2.11,-0.35 2.13,-0.24 2.12,-0.13 2.11,-0.02 2.08,0.08 2.04,0.18 1.55,0.44 1.06,0.70 0.92,0.65 0.78,0.61 0.66,0.52 0.54,0.43 0.46,0.30 0.38,0.18 0.34,0.04 0.30,-0.10 0.30,-0.24 0.31,-0.39 0.37,-0.53 0.42,-0.67 0.52,-0.78 0.61,-0.89 0.74,-0.97 0.87,-1.05 1.01,-1.08 1.16,-1.11 1.31,-1.10 1.45,-1.08 1.59,-1.02 1.72,-0.96 1.83,-0.85 1.94,-0.75 2.01,-0.62 2.08,-0.49 2.10,-0.34 2.13,-0.20 2.10,-0.05 2.08,0.09 2.01,0.22 1.94,0.35 1.83,0.45 1.72,0.55 1.59,0.62 1.46,0.68 1.31,0.70 1.16,0.71 1.02,0.68 0.87,0.65 0.74,0.57 0.62,0.49 0.52,0.38 0.42,0.27 0.37,0.13 0.31,-0.00 0.30,-0.15 0.30,-0.29 0.34,-0.44 0.38,-0.58 0.46,-0.70 0.54,-0.83 0.66,-0.92 0.78,-1.01 0.92,-1.05 1.06,-1.10 0.72,-0.84 0.38,-0.58 0.43,-0.68 0.49,-0.77 0.57,-0.85 0.65,-0.92 0.75,-0.98 0.84,-1.04 0.95,-1.07 1.05,-1.10 1.16,-1.11 1.28,-1.11 1.38,-1.09 1.49,-1.07 1.59,-1.02 1.69,-0.98 1.78,-0.91 1.87,-0.84 1.93,-0.75 2.00,-0.66 2.04,-0.56 2.09,-0.46 2.11,-0.35 2.13,-0.24 2.12,-0.13 2.11,-0.02 2.08,0.08 2.04,0.18 2.65,1.49 3.26,2.79 2.64,4.19 2.01,5.59 1.22,6.37 0.43,7.16 -0.46,6.86 -1.35,6.57 -1.55,5.53 -1.75,4.49 -1.63,3.41 -1.51,2.33 -1.24,1.04 -0.96,-0.24 -0.92,-0.35 -0.87,-0.46 -0.81,-0.56 -0.74,-0.66 -0.65,-0.74 -0.56,-0.82 -0.45,-0.87 -0.34,-0.93 -0.23,-0.95 -0.11,-0.98 0.00,-0.98 0.12,-0.98 0.23,-0.95 0.35,-0.92 0.46,-0.87 0.56,-0.81 0.65,-0.73 0.74,-0.65 0.81,-0.55 0.88,-0.45 0.92,-0.34 0.96,-0.23 0.98,-0.11 0.99,0.00 0.97,0.12 0.96,0.24 0.96,0.24 L 0.96,0.24 Z"/></g><g transform="translate(102.22220611572266 10) rotate(0 6.3889007568359375 37.22221755981445)" stroke="none"><path fill="#1e1e1e" d="M 0.73,-0.27 Q 0.73,-0.27 1.19,1.00 1.65,2.29 2.47,4.09 3.29,5.89 4.28,7.94 5.27,9.99 6.63,12.44 8.00,14.90 9.39,17.89 10.79,20.88 11.87,24.26 12.95,27.64 13.25,31.69 13.56,35.74 13.21,40.19 12.85,44.65 11.89,48.96 10.93,53.28 9.72,56.72 8.51,60.17 7.02,63.25 5.54,66.33 3.93,68.63 2.32,70.93 1.18,72.57 0.04,74.21 -0.04,74.30 -0.14,74.38 -0.25,74.44 -0.37,74.49 -0.49,74.51 -0.62,74.52 -0.74,74.50 -0.87,74.47 -0.98,74.41 -1.09,74.34 -1.17,74.25 -1.25,74.15 -1.30,74.03 -1.35,73.91 -1.36,73.79 -1.37,73.66 -1.33,73.54 -1.30,73.41 -1.23,73.31 -1.16,73.20 -1.06,73.12 -0.96,73.05 -0.84,73.00 -0.72,72.96 -0.59,72.96 -0.46,72.96 -0.34,73.00 -0.22,73.04 -0.12,73.11 -0.02,73.19 0.05,73.30 0.12,73.40 0.15,73.52 0.19,73.64 0.18,73.77 0.18,73.90 0.13,74.02 0.08,74.14 0.00,74.23 -0.07,74.33 -0.18,74.40 -0.29,74.47 -0.41,74.49 -0.53,74.52 -0.66,74.51 -0.79,74.50 -0.90,74.45 -1.02,74.39 -1.11,74.31 -1.20,74.22 -1.27,74.11 -1.33,74.00 -1.35,73.87 -1.37,73.74 -1.35,73.62 -1.33,73.49 -1.27,73.38 -1.21,73.27 -1.21,73.27 -1.21,73.27 0.01,71.72 1.24,70.17 2.80,67.97 4.35,65.76 5.80,62.75 7.26,59.73 8.45,56.36 9.64,52.99 10.58,48.76 11.52,44.54 11.87,40.19 12.23,35.84 11.94,31.94 11.66,28.04 10.61,24.75 9.55,21.45 8.17,18.51 6.79,15.57 5.40,13.09 4.00,10.60 2.99,8.55 1.98,6.50 1.12,4.65 0.25,2.81 -0.23,1.54 -0.73,0.27 -0.75,0.18 -0.77,0.09 -0.77,-0.00 -0.77,-0.09 -0.75,-0.18 -0.72,-0.27 -0.68,-0.36 -0.64,-0.44 -0.57,-0.51 -0.51,-0.58 -0.43,-0.63 -0.36,-0.69 -0.27,-0.72 -0.18,-0.75 -0.09,-0.77 0.00,-0.78 0.09,-0.76 0.18,-0.75 0.27,-0.72 0.36,-0.69 0.44,-0.63 0.52,-0.58 0.58,-0.51 0.64,-0.44 0.68,-0.35 0.73,-0.27 0.73,-0.27 L 0.73,-0.27 Z"/></g></svg>