<svg version="1.1" xmlns="http://www.w3.org/2000/svg" viewBox="0 0 791.6665802001953 530.5554962158203" width="791.6665802001953" height="530.5554962158203" filter="invert(93%) hue-rotate(180deg)">
  <!-- svg-source:excalidraw -->
  
  <defs>
    <style class="style-fonts">
      @font-face {
        font-family: "Virgil";
        src: url("https://excalidraw.com/Virgil.woff2");
      }
      @font-face {
        font-family: "Cascadia";
        src: url("https://excalidraw.com/Cascadia.woff2");
      }
    </style>
    
  </defs>
  <rect x="0" y="0" width="791.6665802001953" height="530.5554962158203" fill="#ffffff"/><g transform="translate(13.333335876464844 30.555557250976562) rotate(0 11.111106872558594 5)" stroke="none"><path fill="#000000" d="M -0.24,0.74 Q -0.24,0.74 -1.29,0.33 -2.34,-0.07 -2.88,-1.32 -3.42,-2.57 -3.61,-4.40 -3.79,-6.24 -3.53,-8.18 -3.28,-10.12 -2.84,-11.90 -2.40,-13.69 -1.54,-15.31 -0.69,-16.94 0.71,-18.17 2.11,-19.40 3.93,-19.79 5.75,-20.18 8.34,-19.67 10.92,-19.17 13.10,-18.63 15.28,-18.09 17.18,-17.54 19.07,-16.99 20.47,-16.77 21.86,-16.55 22.84,-16.30 23.81,-16.05 24.36,-16.01 24.91,-15.96 24.98,-15.93 25.05,-15.91 25.15,-15.87 25.25,-15.84 25.33,-15.79 25.42,-15.73 25.49,-15.66 25.57,-15.58 25.62,-15.49 25.67,-15.41 25.70,-15.31 25.73,-15.21 25.73,-15.10 25.74,-15.00 25.72,-14.90 25.70,-14.80 25.65,-14.70 25.61,-14.61 25.55,-14.53 25.48,-14.45 25.40,-14.39 25.32,-14.32 25.22,-14.28 25.13,-14.24 25.02,-14.22 24.92,-14.21 24.82,-14.21 24.72,-14.22 24.47,-12.90 24.23,-11.58 23.38,-9.14 22.53,-6.70 21.37,-2.65 20.21,1.40 19.06,5.52 17.92,9.64 17.12,14.23 16.32,18.83 15.82,22.22 15.31,25.62 14.83,27.52 14.35,29.41 14.29,29.53 14.23,29.65 14.14,29.75 14.05,29.84 13.93,29.90 13.82,29.96 13.68,29.98 13.55,30.01 13.42,29.98 13.29,29.96 13.18,29.90 13.06,29.83 12.97,29.74 12.88,29.64 12.82,29.52 12.77,29.40 12.76,29.27 12.74,29.13 12.77,29.00 12.80,28.88 12.87,28.76 12.94,28.65 13.05,28.56 13.15,28.48 13.27,28.43 13.39,28.38 13.53,28.38 13.66,28.37 13.79,28.41 13.91,28.45 14.02,28.52 14.13,28.60 14.21,28.70 14.29,28.81 14.33,28.94 14.37,29.06 14.37,29.19 14.37,29.33 14.33,29.45 14.28,29.58 14.20,29.68 14.12,29.79 14.01,29.86 13.90,29.93 13.77,29.97 13.64,30.00 13.51,29.99 13.38,29.98 13.25,29.93 13.13,29.88 13.03,29.80 12.93,29.71 12.87,29.60 12.80,29.48 12.77,29.35 12.74,29.22 12.76,29.09 12.78,28.96 12.78,28.96 12.78,28.96 13.35,27.19 13.93,25.41 14.43,22.00 14.92,18.59 15.71,13.92 16.51,9.25 17.63,5.12 18.74,0.98 19.88,-3.11 21.01,-7.21 21.82,-9.68 22.62,-12.14 23.10,-13.55 23.59,-14.96 24.32,-15.44 25.05,-15.91 25.15,-15.87 25.25,-15.84 25.33,-15.79 25.42,-15.73 25.49,-15.66 25.57,-15.58 25.62,-15.49 25.67,-15.41 25.70,-15.31 25.73,-15.21 25.73,-15.10 25.74,-15.00 25.72,-14.90 25.70,-14.80 25.65,-14.70 25.61,-14.61 25.55,-14.53 25.48,-14.45 25.40,-14.39 25.32,-14.32 25.22,-14.28 25.13,-14.24 25.02,-14.22 24.92,-14.21 24.82,-14.21 24.72,-14.22 24.63,-14.29 24.55,-14.36 23.99,-14.53 23.43,-14.70 22.54,-14.97 21.65,-15.24 20.18,-15.48 18.70,-15.72 16.83,-16.26 14.97,-16.81 12.81,-17.33 10.66,-17.86 8.31,-18.36 5.96,-18.86 4.43,-18.60 2.91,-18.34 1.70,-17.31 0.49,-16.27 -0.28,-14.81 -1.06,-13.35 -1.47,-11.64 -1.88,-9.93 -2.12,-8.15 -2.36,-6.37 -2.19,-4.72 -2.03,-3.08 -1.76,-2.14 -1.49,-1.20 -0.62,-0.97 0.24,-0.74 0.33,-0.70 0.41,-0.66 0.49,-0.60 0.56,-0.54 0.62,-0.46 0.68,-0.39 0.71,-0.30 0.75,-0.21 0.76,-0.12 0.78,-0.03 0.77,0.06 0.76,0.15 0.73,0.24 0.71,0.33 0.65,0.41 0.60,0.49 0.54,0.56 0.47,0.62 0.39,0.67 0.30,0.72 0.21,0.74 0.12,0.77 0.03,0.77 -0.06,0.78 -0.15,0.76 -0.24,0.74 -0.24,0.74 L -0.24,0.74 Z"/></g><g transform="translate(22.77777862548828 30) rotate(0 4.999996185302734 3.888885498046875)" stroke="none"><path fill="#000000" d="M 0.89,-0.33 Q 0.89,-0.33 1.32,0.92 1.74,2.19 3.08,3.23 4.42,4.27 6.05,4.89 7.69,5.51 9.23,6.10 10.78,6.68 10.90,6.75 11.02,6.83 11.11,6.94 11.20,7.05 11.26,7.18 11.31,7.32 11.31,7.46 11.32,7.60 11.28,7.74 11.24,7.88 11.15,8.00 11.07,8.11 10.96,8.20 10.84,8.28 10.71,8.33 10.57,8.37 10.43,8.37 10.28,8.37 10.15,8.32 10.01,8.27 9.90,8.18 9.79,8.10 9.71,7.98 9.63,7.86 9.59,7.72 9.56,7.58 9.57,7.44 9.58,7.29 9.63,7.16 9.69,7.03 9.78,6.92 9.88,6.81 10.00,6.74 10.12,6.67 10.26,6.64 10.40,6.61 10.55,6.63 10.69,6.65 10.82,6.71 10.95,6.77 11.05,6.87 11.15,6.97 11.22,7.10 11.28,7.23 11.30,7.37 11.32,7.51 11.30,7.65 11.27,7.79 11.20,7.92 11.14,8.04 11.03,8.14 10.92,8.24 10.79,8.29 10.66,8.35 10.52,8.37 10.38,8.38 10.24,8.35 10.10,8.31 10.10,8.31 10.10,8.31 8.62,7.64 7.14,6.96 5.28,6.26 3.42,5.56 1.79,4.24 0.17,2.91 -0.36,1.62 -0.89,0.33 -0.92,0.22 -0.95,0.11 -0.95,-0.00 -0.95,-0.11 -0.92,-0.23 -0.89,-0.34 -0.84,-0.44 -0.78,-0.54 -0.71,-0.63 -0.63,-0.72 -0.53,-0.78 -0.44,-0.85 -0.33,-0.89 -0.22,-0.93 -0.11,-0.94 0.00,-0.95 0.11,-0.94 0.23,-0.93 0.34,-0.88 0.44,-0.84 0.54,-0.78 0.63,-0.71 0.71,-0.62 0.79,-0.54 0.84,-0.43 0.89,-0.33 0.89,-0.33 L 0.89,-0.33 Z"/></g><g transform="translate(53.888893127441406 62.22221374511719) rotate(0 -0.5555610656738281 -3.0555496215820312)" stroke="none"><path fill="#000000" d="M -0.61,0.92 Q -0.61,0.92 -1.54,0.23 -2.46,-0.44 -3.24,-0.58 -4.01,-0.72 -4.12,-0.79 -4.24,-0.86 -4.33,-0.96 -4.42,-1.06 -4.49,-1.18 -4.56,-1.29 -4.60,-1.42 -4.63,-1.55 -4.64,-1.69 -4.64,-1.82 -4.61,-1.95 -4.59,-2.09 -4.53,-2.21 -4.47,-2.33 -4.39,-2.43 -4.30,-2.54 -4.19,-2.62 -4.08,-2.70 -3.96,-2.75 -3.83,-2.80 -3.70,-2.82 -3.57,-2.84 -3.43,-2.83 -3.30,-2.82 -3.17,-2.78 -3.04,-2.74 -2.71,-2.28 -2.37,-1.81 -1.36,-1.91 -0.34,-2.01 0.06,-2.54 0.47,-3.06 0.84,-3.69 1.20,-4.32 1.21,-5.01 1.22,-5.70 1.30,-5.80 1.38,-5.91 1.48,-5.99 1.59,-6.08 1.71,-6.13 1.82,-6.19 1.95,-6.22 2.08,-6.25 2.22,-6.24 2.35,-6.24 2.48,-6.20 2.60,-6.16 2.72,-6.10 2.83,-6.03 2.93,-5.94 3.03,-5.85 3.10,-5.74 3.17,-5.63 3.21,-5.50 3.25,-5.38 3.26,-5.24 3.28,-5.11 3.26,-4.98 3.24,-4.85 3.18,-4.73 3.13,-4.61 2.46,-3.21 1.79,-1.82 1.71,-1.69 1.63,-1.56 1.51,-1.46 1.39,-1.37 1.25,-1.31 1.11,-1.26 0.95,-1.26 0.80,-1.25 0.65,-1.29 0.51,-1.34 0.38,-1.43 0.26,-1.52 0.17,-1.64 0.08,-1.76 0.03,-1.91 -0.00,-2.05 -0.00,-2.21 0.00,-2.36 0.05,-2.50 0.10,-2.65 0.19,-2.77 0.29,-2.89 0.42,-2.97 0.55,-3.05 0.69,-3.09 0.84,-3.13 0.99,-3.11 1.15,-3.10 1.29,-3.04 1.43,-2.98 1.54,-2.88 1.65,-2.78 1.73,-2.65 1.81,-2.52 1.84,-2.37 1.87,-2.22 1.85,-2.07 1.83,-1.91 1.76,-1.78 1.69,-1.64 1.58,-1.53 1.48,-1.42 1.34,-1.35 1.20,-1.29 1.05,-1.26 0.90,-1.24 0.75,-1.27 0.60,-1.30 0.47,-1.37 0.34,-1.45 0.23,-1.56 0.13,-1.67 0.07,-1.81 0.01,-1.95 0.00,-2.11 -0.01,-2.26 0.02,-2.41 0.05,-2.55 0.05,-2.55 0.05,-2.55 0.64,-4.12 1.22,-5.70 1.30,-5.80 1.38,-5.91 1.48,-5.99 1.59,-6.08 1.70,-6.13 1.82,-6.19 1.95,-6.22 2.08,-6.25 2.22,-6.24 2.35,-6.24 2.48,-6.20 2.60,-6.16 2.72,-6.10 2.83,-6.03 2.93,-5.94 3.03,-5.85 3.10,-5.74 3.17,-5.63 3.21,-5.50 3.25,-5.38 3.26,-5.24 3.28,-5.11 3.26,-4.98 3.24,-4.85 3.18,-4.73 3.13,-4.61 3.09,-4.00 3.05,-3.39 2.54,-2.49 2.03,-1.59 1.13,-0.75 0.23,0.08 -0.80,0.21 -1.83,0.35 -2.92,-0.18 -4.01,-0.72 -4.12,-0.79 -4.24,-0.86 -4.33,-0.96 -4.42,-1.06 -4.49,-1.18 -4.56,-1.29 -4.60,-1.42 -4.63,-1.55 -4.64,-1.69 -4.64,-1.82 -4.61,-1.95 -4.59,-2.09 -4.53,-2.21 -4.47,-2.33 -4.39,-2.43 -4.30,-2.54 -4.19,-2.62 -4.08,-2.70 -3.96,-2.75 -3.83,-2.80 -3.70,-2.82 -3.57,-2.84 -3.43,-2.83 -3.30,-2.82 -3.17,-2.78 -3.04,-2.74 -2.88,-2.76 -2.71,-2.79 -2.04,-2.44 -1.36,-2.10 -0.37,-1.51 0.61,-0.92 0.72,-0.84 0.82,-0.75 0.90,-0.64 0.97,-0.53 1.02,-0.40 1.07,-0.28 1.09,-0.15 1.11,-0.01 1.10,0.11 1.08,0.24 1.04,0.37 0.99,0.50 0.92,0.61 0.84,0.72 0.74,0.81 0.64,0.90 0.53,0.97 0.41,1.03 0.28,1.07 0.15,1.10 0.01,1.10 -0.11,1.10 -0.24,1.07 -0.37,1.04 -0.49,0.98 -0.61,0.92 -0.61,0.92 L -0.61,0.92 Z"/></g><g transform="translate(80 20.555557250976562) rotate(0 -5.000007629394531 25.27777862548828)" stroke="none"><path fill="#000000" d="M -0.85,0 Q -0.85,0 -0.85,-0.94 -0.84,-1.88 -1.14,-2.42 -1.43,-2.95 -1.92,-3.24 -2.41,-3.52 -3.09,-3.65 -3.78,-3.79 -4.57,-3.45 -5.36,-3.12 -6.32,-2.11 -7.27,-1.10 -8.18,0.11 -9.10,1.34 -10.11,3.56 -11.12,5.78 -11.55,7.64 -11.98,9.50 -12.03,10.81 -12.08,12.12 -11.42,12.22 -10.75,12.32 -9.79,11.51 -8.83,10.70 -7.29,8.35 -5.75,6.00 -4.76,4.04 -3.77,2.08 -2.84,0.57 -1.92,-0.93 -1.59,-1.43 -1.25,-1.94 -1.19,-2.02 -1.13,-2.09 -1.06,-2.15 -0.98,-2.21 -0.89,-2.25 -0.80,-2.29 -0.71,-2.31 -0.61,-2.32 -0.51,-2.32 -0.42,-2.31 -0.32,-2.28 -0.23,-2.25 -0.15,-2.20 -0.06,-2.15 -0.00,-2.08 0.06,-2.01 0.11,-1.93 0.16,-1.85 0.19,-1.75 0.22,-1.66 0.23,-1.56 0.23,-1.47 0.21,-1.37 0.20,-1.28 0.16,-1.19 0.12,-1.10 0.27,-0.28 0.42,0.52 0.81,3.06 1.20,5.59 1.84,9.38 2.48,13.17 3.39,17.97 4.30,22.77 5.01,27.05 5.71,31.34 6.33,35.88 6.96,40.43 6.90,44.17 6.84,47.91 5.78,50.29 4.72,52.66 2.56,53.56 0.41,54.46 -1.85,54.33 -4.11,54.20 -6.50,53.65 -8.90,53.10 -10.87,52.55 -12.84,52.00 -14.69,51.73 -16.53,51.47 -16.65,51.43 -16.77,51.39 -16.87,51.31 -16.97,51.23 -17.04,51.12 -17.11,51.02 -17.14,50.89 -17.18,50.77 -17.17,50.64 -17.16,50.52 -17.11,50.40 -17.06,50.28 -16.98,50.19 -16.89,50.09 -16.78,50.03 -16.67,49.96 -16.55,49.94 -16.43,49.91 -16.30,49.93 -16.17,49.94 -16.06,50.00 -15.94,50.05 -15.85,50.14 -15.76,50.23 -15.70,50.34 -15.65,50.46 -15.63,50.58 -15.61,50.71 -15.63,50.83 -15.65,50.96 -15.71,51.07 -15.78,51.18 -15.87,51.27 -15.96,51.35 -16.08,51.41 -16.19,51.46 -16.32,51.47 -16.45,51.48 -16.57,51.45 -16.70,51.42 -16.80,51.36 -16.91,51.29 -16.99,51.19 -17.07,51.09 -17.12,50.97 -17.16,50.86 -17.17,50.73 -17.17,50.60 -17.14,50.48 -17.10,50.36 -17.03,50.25 -16.96,50.15 -16.85,50.07 -16.75,50.00 -16.63,49.96 -16.51,49.92 -16.38,49.92 -16.26,49.92 -16.26,49.92 -16.26,49.92 -14.37,50.33 -12.48,50.73 -10.54,51.28 -8.60,51.82 -6.31,52.36 -4.02,52.89 -2.01,53.06 -0.00,53.23 1.86,52.58 3.73,51.92 4.63,49.89 5.53,47.85 5.59,44.23 5.65,40.60 5.03,36.08 4.41,31.56 3.70,27.29 2.99,23.01 2.08,18.20 1.16,13.39 0.51,9.59 -0.12,5.80 -0.52,3.26 -0.91,0.73 -1.08,-0.60 -1.25,-1.94 -1.19,-2.02 -1.13,-2.09 -1.06,-2.15 -0.98,-2.21 -0.89,-2.25 -0.80,-2.29 -0.71,-2.31 -0.61,-2.32 -0.51,-2.32 -0.42,-2.31 -0.32,-2.28 -0.23,-2.25 -0.15,-2.20 -0.06,-2.15 -0.00,-2.08 0.06,-2.01 0.11,-1.93 0.16,-1.85 0.19,-1.75 0.22,-1.66 0.23,-1.56 0.23,-1.47 0.21,-1.37 0.20,-1.28 0.16,-1.19 0.12,-1.10 -0.31,-0.66 -0.75,-0.22 -1.64,1.24 -2.52,2.71 -3.54,4.74 -4.56,6.78 -6.24,9.32 -7.93,11.86 -9.29,12.78 -10.65,13.71 -11.70,13.40 -12.75,13.08 -13.06,11.14 -13.38,9.21 -12.92,7.20 -12.47,5.18 -11.41,2.81 -10.35,0.43 -9.39,-0.89 -8.44,-2.22 -7.25,-3.46 -6.05,-4.70 -4.80,-5.16 -3.55,-5.62 -2.43,-5.35 -1.32,-5.08 -0.58,-4.43 0.15,-3.78 0.50,-2.86 0.84,-1.94 0.85,-0.97 0.85,0 0.84,0.10 0.83,0.20 0.79,0.30 0.75,0.39 0.70,0.48 0.64,0.56 0.56,0.63 0.48,0.70 0.39,0.75 0.30,0.80 0.20,0.82 0.10,0.85 -0.00,0.85 -0.10,0.85 -0.20,0.82 -0.30,0.80 -0.39,0.75 -0.48,0.70 -0.56,0.63 -0.64,0.56 -0.70,0.48 -0.75,0.39 -0.79,0.30 -0.83,0.20 -0.84,0.10 -0.85,-0.00 -0.85,-0.00 L -0.85,0 Z"/></g><g transform="translate(147.77777099609375 51.66667175292969) rotate(0 2.2222213745117188 6.1110992431640625)" stroke="none"><path fill="#000000" d="M -0.86,0 Q -0.86,0 -0.88,-0.57 -0.90,-1.14 -1.90,-1.57 -2.90,-2.01 -3.74,-1.96 -4.57,-1.92 -5.51,-1.65 -6.44,-1.39 -7.38,-0.26 -8.32,0.87 -9.06,2.57 -9.80,4.28 -10.12,6.07 -10.45,7.86 -10.13,9.32 -9.81,10.78 -9.00,11.78 -8.19,12.77 -7.27,12.90 -6.36,13.03 -5.23,11.73 -4.09,10.43 -3.10,8.65 -2.11,6.86 -1.38,4.69 -0.64,2.52 -0.33,0.97 -0.01,-0.56 -0.03,-1.71 -0.06,-2.87 -0.03,-2.94 -0.00,-3.02 0.03,-3.09 0.07,-3.15 0.13,-3.21 0.19,-3.26 0.25,-3.30 0.32,-3.34 0.40,-3.37 0.48,-3.39 0.56,-3.39 0.64,-3.40 0.72,-3.38 0.79,-3.36 0.87,-3.33 0.94,-3.30 1.00,-3.24 1.06,-3.19 1.11,-3.13 1.16,-3.07 1.19,-2.99 1.22,-2.92 1.23,-2.84 1.25,-2.76 1.24,-2.68 1.23,-2.60 1.03,-1.32 0.83,-0.03 1.10,2.31 1.38,4.67 2.12,7.23 2.86,9.80 4.03,11.58 5.19,13.36 6.91,13.63 8.63,13.90 11.47,11.20 14.32,8.49 14.41,8.43 14.50,8.37 14.61,8.35 14.71,8.32 14.82,8.33 14.93,8.34 15.03,8.38 15.13,8.42 15.21,8.49 15.29,8.56 15.35,8.66 15.40,8.75 15.42,8.86 15.44,8.96 15.43,9.07 15.42,9.18 15.37,9.28 15.32,9.37 15.25,9.45 15.17,9.53 15.07,9.58 14.98,9.63 14.87,9.64 14.76,9.66 14.65,9.64 14.55,9.62 14.45,9.57 14.36,9.51 14.29,9.43 14.21,9.35 14.17,9.25 14.12,9.16 14.12,9.05 14.11,8.94 14.13,8.83 14.16,8.73 14.21,8.64 14.27,8.54 14.36,8.48 14.44,8.41 14.54,8.37 14.64,8.33 14.75,8.33 14.86,8.32 14.96,8.35 15.07,8.38 15.16,8.45 15.24,8.51 15.31,8.60 15.37,8.69 15.40,8.79 15.44,8.89 15.44,9.00 15.43,9.11 15.40,9.21 15.36,9.31 15.29,9.40 15.23,9.48 15.23,9.48 15.23,9.48 12.03,12.29 8.84,15.10 6.59,14.70 4.34,14.30 2.94,12.25 1.54,10.21 0.76,7.52 -0.01,4.84 -0.31,2.36 -0.61,-0.12 -0.33,-1.49 -0.06,-2.87 -0.03,-2.94 -0.00,-3.02 0.03,-3.09 0.07,-3.15 0.13,-3.21 0.19,-3.26 0.25,-3.30 0.32,-3.34 0.40,-3.37 0.48,-3.39 0.56,-3.39 0.64,-3.40 0.72,-3.38 0.79,-3.36 0.87,-3.33 0.94,-3.30 1.00,-3.24 1.06,-3.19 1.11,-3.13 1.16,-3.07 1.19,-2.99 1.22,-2.92 1.23,-2.84 1.25,-2.76 1.24,-2.68 1.23,-2.60 1.26,-1.45 1.28,-0.30 0.95,1.32 0.62,2.95 -0.16,5.23 -0.94,7.51 -2.02,9.44 -3.10,11.36 -4.58,12.79 -6.06,14.22 -7.55,14.00 -9.03,13.79 -10.11,12.46 -11.18,11.14 -11.53,9.40 -11.89,7.65 -11.55,5.67 -11.21,3.68 -10.38,1.76 -9.55,-0.16 -8.32,-1.55 -7.08,-2.95 -5.88,-3.36 -4.69,-3.78 -3.53,-3.84 -2.38,-3.91 -1.32,-3.52 -0.27,-3.14 0.31,-2.27 0.90,-1.41 0.88,-0.70 0.86,0 0.84,0.10 0.83,0.20 0.79,0.30 0.76,0.40 0.70,0.48 0.64,0.57 0.56,0.63 0.48,0.70 0.39,0.75 0.30,0.80 0.20,0.82 0.10,0.85 -0.00,0.85 -0.10,0.85 -0.20,0.82 -0.30,0.80 -0.39,0.75 -0.48,0.70 -0.56,0.63 -0.64,0.57 -0.70,0.48 -0.76,0.40 -0.79,0.30 -0.83,0.20 -0.84,0.10 -0.86,-0.00 -0.86,-0.00 L -0.86,0 Z"/></g><g transform="translate(178.33334350585938 17.22222900390625) rotate(0 -9.4444580078125 37.77777099609375)" stroke="none"><path fill="#000000" d="M 0.76,-0.16 Q 0.76,-0.16 1.22,2.07 1.68,4.31 2.20,7.68 2.71,11.05 2.93,15.38 3.15,19.72 2.92,23.98 2.68,28.24 1.78,33.27 0.88,38.30 -0.78,43.65 -2.46,49.01 -4.77,54.18 -7.09,59.35 -9.20,63.15 -11.31,66.95 -13.20,69.40 -15.08,71.85 -17.62,73.63 -20.16,75.41 -20.26,75.46 -20.37,75.51 -20.49,75.53 -20.61,75.54 -20.72,75.51 -20.84,75.49 -20.94,75.43 -21.04,75.37 -21.12,75.27 -21.19,75.18 -21.24,75.07 -21.28,74.96 -21.29,74.85 -21.29,74.73 -21.26,74.61 -21.23,74.50 -21.16,74.40 -21.10,74.31 -21.00,74.23 -20.91,74.16 -20.80,74.12 -20.68,74.09 -20.57,74.09 -20.45,74.09 -20.34,74.12 -20.22,74.16 -20.13,74.23 -20.03,74.31 -19.97,74.40 -19.90,74.50 -19.87,74.62 -19.84,74.73 -19.85,74.85 -19.85,74.97 -19.90,75.08 -19.94,75.19 -20.02,75.28 -20.09,75.37 -20.19,75.43 -20.30,75.49 -20.41,75.51 -20.53,75.54 -20.64,75.53 -20.76,75.51 -20.87,75.46 -20.98,75.41 -21.06,75.33 -21.15,75.25 -21.20,75.15 -21.26,75.04 -21.28,74.92 -21.30,74.81 -21.28,74.69 -21.26,74.57 -21.20,74.47 -21.15,74.37 -21.06,74.28 -20.98,74.20 -20.98,74.20 -20.98,74.20 -18.54,72.62 -16.11,71.03 -14.30,68.67 -12.48,66.31 -10.40,62.55 -8.31,58.80 -6.03,53.70 -3.74,48.60 -2.10,43.33 -0.46,38.05 0.42,33.11 1.30,28.16 1.52,23.98 1.74,19.79 1.51,15.53 1.29,11.27 0.75,7.95 0.22,4.62 -0.26,2.39 -0.76,0.16 -0.77,0.06 -0.78,-0.02 -0.76,-0.11 -0.75,-0.21 -0.71,-0.29 -0.68,-0.38 -0.62,-0.45 -0.56,-0.53 -0.49,-0.59 -0.42,-0.65 -0.33,-0.69 -0.25,-0.73 -0.16,-0.75 -0.07,-0.77 0.02,-0.77 0.11,-0.77 0.20,-0.74 0.29,-0.72 0.38,-0.67 0.46,-0.62 0.53,-0.56 0.60,-0.49 0.65,-0.42 0.70,-0.34 0.73,-0.25 0.76,-0.16 0.76,-0.16 L 0.76,-0.16 Z"/></g><g transform="translate(261.6666564941406 42.22221374511719) rotate(0 8.333328247070312 12.777786254882812)" stroke="none"><path fill="#000000" d="M -0.89,0.14 Q -0.89,0.14 -1.04,-0.81 -1.19,-1.77 -1.11,-2.78 -1.03,-3.79 -0.63,-4.77 -0.23,-5.76 0.35,-6.46 0.95,-7.17 1.88,-7.32 2.81,-7.47 3.75,-6.54 4.69,-5.62 5.21,-3.67 5.72,-1.71 5.90,0.21 6.07,2.15 5.98,4.28 5.88,6.40 5.99,7.88 6.10,9.35 7.70,9.17 9.31,8.98 10.77,9.24 12.22,9.50 13.57,10.82 14.91,12.14 15.79,14.05 16.67,15.96 16.72,18.45 16.77,20.95 16.13,23.63 15.48,26.32 14.52,28.16 13.56,30.00 11.75,31.03 9.94,32.05 7.95,31.98 5.96,31.91 4.40,31.02 2.85,30.14 1.20,27.98 -0.44,25.83 -0.48,25.71 -0.52,25.59 -0.52,25.46 -0.52,25.33 -0.48,25.21 -0.44,25.09 -0.36,24.99 -0.29,24.89 -0.18,24.82 -0.08,24.75 0.04,24.72 0.16,24.68 0.28,24.69 0.41,24.70 0.53,24.75 0.65,24.79 0.74,24.88 0.84,24.96 0.90,25.07 0.97,25.17 0.99,25.30 1.02,25.42 1.01,25.55 0.99,25.67 0.94,25.79 0.89,25.90 0.80,25.99 0.71,26.09 0.60,26.14 0.49,26.20 0.36,26.22 0.24,26.24 0.11,26.22 -0.00,26.20 -0.11,26.14 -0.22,26.08 -0.31,25.99 -0.40,25.90 -0.45,25.78 -0.50,25.67 -0.52,25.54 -0.53,25.42 -0.50,25.29 -0.47,25.17 -0.41,25.06 -0.34,24.95 -0.25,24.87 -0.15,24.79 -0.03,24.74 0.07,24.70 0.20,24.69 0.33,24.68 0.45,24.72 0.57,24.75 0.68,24.82 0.78,24.90 0.86,25.00 0.93,25.10 0.93,25.10 0.93,25.10 2.24,27.05 3.54,29.00 4.82,29.79 6.10,30.59 7.75,30.71 9.41,30.83 10.92,30.05 12.44,29.28 13.29,27.63 14.14,25.98 14.75,23.47 15.36,20.96 15.35,18.73 15.34,16.51 14.58,14.84 13.81,13.17 12.80,12.07 11.79,10.97 10.71,10.80 9.63,10.63 8.56,10.90 7.50,11.17 6.73,11.33 5.97,11.49 5.30,10.49 4.63,9.48 4.48,7.92 4.34,6.35 4.39,4.33 4.45,2.32 4.24,0.52 4.03,-1.28 3.63,-2.85 3.23,-4.43 2.77,-5.05 2.30,-5.67 1.85,-5.35 1.40,-5.03 1.08,-4.31 0.75,-3.58 0.65,-2.81 0.55,-2.05 0.72,-1.10 0.89,-0.14 0.90,-0.03 0.90,0.06 0.88,0.17 0.86,0.28 0.81,0.38 0.76,0.48 0.70,0.56 0.63,0.65 0.54,0.71 0.45,0.78 0.35,0.82 0.25,0.87 0.14,0.88 0.04,0.90 -0.06,0.89 -0.17,0.89 -0.28,0.85 -0.38,0.82 -0.47,0.76 -0.57,0.70 -0.64,0.62 -0.72,0.54 -0.77,0.45 -0.83,0.35 -0.86,0.25 -0.89,0.14 -0.89,0.14 L -0.89,0.14 Z"/></g><g transform="translate(282.2221984863281 15) rotate(0 8.611114501953125 9.72222900390625)" stroke="none"><path fill="#000000" d="M -0.55,-0.82 Q -0.55,-0.82 0.05,-1.20 0.66,-1.57 1.68,-1.42 2.70,-1.27 3.54,-0.33 4.38,0.60 4.53,2.44 4.68,4.27 4.19,6.50 3.71,8.73 2.66,10.68 1.61,12.63 0.53,13.85 -0.53,15.06 -1.41,14.95 -2.28,14.84 -2.59,14.07 -2.90,13.30 -2.41,11.97 -1.93,10.65 -0.85,9.86 0.23,9.07 1.30,9.24 2.38,9.40 3.99,10.89 5.61,12.37 6.89,13.97 8.17,15.56 9.59,16.81 11.01,18.06 12.50,18.41 14.00,18.77 15.20,17.71 16.40,16.65 17.38,15.51 18.37,14.37 18.48,14.29 18.58,14.21 18.71,14.17 18.84,14.13 18.97,14.13 19.10,14.12 19.23,14.17 19.35,14.21 19.46,14.29 19.57,14.37 19.64,14.48 19.72,14.59 19.75,14.72 19.79,14.85 19.78,14.98 19.77,15.11 19.72,15.24 19.68,15.36 19.59,15.46 19.50,15.56 19.39,15.63 19.28,15.70 19.15,15.73 19.02,15.76 18.88,15.74 18.75,15.73 18.63,15.67 18.51,15.62 18.41,15.53 18.32,15.44 18.25,15.32 18.19,15.20 18.17,15.07 18.15,14.94 18.17,14.81 18.19,14.68 18.25,14.56 18.31,14.44 18.41,14.35 18.51,14.26 18.63,14.20 18.75,14.14 18.88,14.13 19.01,14.12 19.14,14.14 19.27,14.17 19.39,14.24 19.50,14.31 19.59,14.41 19.67,14.51 19.72,14.64 19.77,14.76 19.78,14.89 19.79,15.02 19.75,15.15 19.72,15.28 19.64,15.39 19.57,15.50 19.57,15.50 19.57,15.50 18.42,16.62 17.28,17.74 15.71,18.90 14.14,20.07 12.13,19.64 10.12,19.22 8.55,17.88 6.97,16.54 5.73,15.05 4.49,13.57 3.16,12.31 1.84,11.05 1.26,10.78 0.69,10.52 0.15,10.95 -0.38,11.39 -0.82,12.63 -1.25,13.88 -0.53,12.87 0.18,11.87 1.10,10.11 2.02,8.36 2.41,6.37 2.80,4.37 2.75,3.04 2.69,1.71 1.97,1.00 1.25,0.29 0.90,0.56 0.55,0.82 0.44,0.88 0.33,0.93 0.22,0.96 0.10,0.98 -0.01,0.98 -0.13,0.98 -0.25,0.95 -0.36,0.92 -0.47,0.86 -0.57,0.80 -0.66,0.72 -0.75,0.64 -0.82,0.54 -0.88,0.44 -0.92,0.33 -0.96,0.22 -0.98,0.10 -0.99,-0.01 -0.97,-0.13 -0.96,-0.25 -0.91,-0.36 -0.87,-0.47 -0.80,-0.57 -0.73,-0.67 -0.64,-0.74 -0.55,-0.82 -0.55,-0.82 L -0.55,-0.82 Z"/></g><g transform="translate(132.77777099609375 151.6666717529297) rotate(0 -2.2222213745117188 25.5555419921875)" stroke="none"><path fill="#000000" d="M 0.35,0.71 Q 0.35,0.71 -0.24,1.06 -0.84,1.40 -1.63,2.51 -2.42,3.62 -3.42,6.28 -4.41,8.95 -5.33,13.10 -6.25,17.26 -6.64,21.72 -7.03,26.17 -6.73,31.07 -6.42,35.97 -5.67,39.45 -4.91,42.94 -3.53,45.29 -2.14,47.63 -1.09,48.29 -0.04,48.94 0.88,48.01 1.81,47.09 2.19,45.56 2.56,44.02 2.12,42.17 1.67,40.32 0.90,39.10 0.12,37.88 -0.87,37.27 -1.87,36.65 -2.78,36.83 -3.70,37.01 -3.97,38.74 -4.25,40.48 -4.26,40.60 -4.27,40.73 -4.33,40.84 -4.38,40.95 -4.47,41.05 -4.55,41.14 -4.67,41.20 -4.78,41.26 -4.90,41.28 -5.03,41.30 -5.15,41.27 -5.28,41.25 -5.39,41.19 -5.50,41.13 -5.59,41.04 -5.67,40.95 -5.73,40.84 -5.78,40.72 -5.79,40.60 -5.80,40.47 -5.78,40.35 -5.75,40.22 -5.68,40.12 -5.62,40.01 -5.52,39.93 -5.43,39.84 -5.31,39.80 -5.19,39.75 -5.06,39.75 -4.94,39.74 -4.82,39.77 -4.69,39.81 -4.59,39.88 -4.49,39.95 -4.41,40.05 -4.33,40.15 -4.29,40.27 -4.25,40.39 -4.25,40.52 -4.26,40.64 -4.30,40.76 -4.34,40.88 -4.41,40.98 -4.49,41.08 -4.60,41.15 -4.70,41.22 -4.82,41.26 -4.94,41.29 -5.07,41.28 -5.20,41.28 -5.31,41.23 -5.43,41.18 -5.53,41.10 -5.62,41.02 -5.69,40.91 -5.75,40.80 -5.78,40.68 -5.80,40.55 -5.80,40.55 -5.80,40.55 -4.94,38.18 -4.07,35.80 -2.73,35.64 -1.39,35.48 -0.09,36.31 1.20,37.14 2.08,38.58 2.96,40.01 3.40,42.15 3.85,44.30 3.31,46.14 2.77,47.98 1.54,49.00 0.31,50.01 -1.46,49.21 -3.23,48.41 -4.74,45.83 -6.25,43.25 -7.04,39.65 -7.83,36.06 -8.15,31.05 -8.47,26.05 -8.09,21.50 -7.71,16.94 -6.79,12.68 -5.88,8.41 -4.82,5.54 -3.77,2.66 -2.74,1.27 -1.71,-0.12 -1.03,-0.42 -0.35,-0.71 -0.26,-0.75 -0.17,-0.78 -0.08,-0.79 0.01,-0.80 0.11,-0.79 0.20,-0.77 0.29,-0.74 0.38,-0.70 0.46,-0.64 0.54,-0.59 0.60,-0.51 0.67,-0.44 0.71,-0.35 0.75,-0.27 0.77,-0.17 0.80,-0.08 0.79,0.01 0.79,0.11 0.77,0.20 0.74,0.30 0.69,0.38 0.65,0.47 0.58,0.54 0.52,0.61 0.44,0.66 0.35,0.71 0.35,0.71 L 0.35,0.71 Z"/></g><g transform="translate(156.6666717529297 139.44444274902344) rotate(0 -7.777793884277344 41.11109924316406)" stroke="none"><path fill="#000000" d="M 0.73,-0.27 Q 0.73,-0.27 1.19,1.00 1.65,2.29 2.17,4.14 2.69,5.99 3.24,9.04 3.78,12.09 4.16,15.30 4.55,18.52 4.55,22.80 4.56,27.07 4.08,32.10 3.59,37.12 2.75,41.67 1.90,46.22 0.41,51.05 -1.07,55.88 -2.98,60.50 -4.90,65.13 -6.68,68.54 -8.46,71.96 -10.52,74.72 -12.58,77.48 -14.11,79.15 -15.64,80.81 -17.30,81.70 -18.95,82.59 -19.08,82.63 -19.20,82.66 -19.32,82.66 -19.45,82.65 -19.57,82.61 -19.69,82.56 -19.79,82.48 -19.89,82.40 -19.95,82.29 -20.02,82.18 -20.05,82.06 -20.08,81.93 -20.07,81.81 -20.06,81.68 -20.00,81.56 -19.95,81.45 -19.86,81.35 -19.78,81.26 -19.67,81.20 -19.55,81.14 -19.43,81.12 -19.30,81.09 -19.18,81.11 -19.05,81.13 -18.94,81.19 -18.82,81.25 -18.74,81.34 -18.65,81.43 -18.59,81.55 -18.54,81.66 -18.52,81.79 -18.51,81.91 -18.53,82.04 -18.56,82.16 -18.62,82.27 -18.69,82.38 -18.78,82.47 -18.88,82.55 -19.00,82.60 -19.11,82.65 -19.24,82.66 -19.37,82.67 -19.49,82.63 -19.61,82.60 -19.72,82.53 -19.83,82.46 -19.91,82.36 -19.98,82.26 -20.03,82.14 -20.07,82.02 -20.07,81.89 -20.07,81.76 -20.03,81.64 -19.99,81.52 -19.92,81.42 -19.84,81.32 -19.74,81.24 -19.63,81.17 -19.63,81.17 -19.63,81.17 -18.11,80.53 -16.58,79.90 -15.11,78.30 -13.64,76.69 -11.63,74.02 -9.63,71.34 -7.88,67.98 -6.13,64.62 -4.23,60.05 -2.34,55.49 -0.87,50.73 0.58,45.97 1.42,41.48 2.25,36.99 2.72,32.03 3.19,27.07 3.18,22.88 3.18,18.69 2.78,15.51 2.39,12.34 1.85,9.36 1.31,6.39 0.78,4.60 0.25,2.81 -0.23,1.54 -0.73,0.27 -0.75,0.18 -0.77,0.09 -0.77,-0.00 -0.77,-0.09 -0.75,-0.18 -0.72,-0.27 -0.68,-0.36 -0.64,-0.44 -0.57,-0.51 -0.51,-0.58 -0.43,-0.63 -0.36,-0.69 -0.27,-0.72 -0.18,-0.75 -0.09,-0.77 0.00,-0.78 0.09,-0.76 0.18,-0.75 0.27,-0.72 0.36,-0.69 0.44,-0.63 0.52,-0.58 0.58,-0.51 0.64,-0.44 0.68,-0.35 0.73,-0.27 0.73,-0.27 L 0.73,-0.27 Z"/></g><g transform="translate(182.2222137451172 242.2222137451172) rotate(0 27.50000762939453 3.3333282470703125)" stroke="none"><path fill="#000000" d="M 0.50,-0.67 Q 0.50,-0.67 1.15,-0.22 1.80,0.22 4.18,1.03 6.55,1.84 11.08,2.85 15.61,3.86 20.56,4.46 25.50,5.05 32.06,5.31 38.62,5.57 43.47,5.52 48.33,5.48 50.41,5.46 52.48,5.45 52.59,5.46 52.70,5.48 52.80,5.53 52.90,5.58 52.98,5.66 53.06,5.74 53.10,5.85 53.15,5.95 53.17,6.06 53.18,6.17 53.16,6.28 53.13,6.39 53.08,6.49 53.02,6.58 52.94,6.66 52.85,6.73 52.75,6.77 52.64,6.82 52.53,6.82 52.42,6.83 52.31,6.80 52.20,6.77 52.11,6.71 52.02,6.65 51.95,6.56 51.88,6.47 51.84,6.37 51.80,6.26 51.80,6.15 51.80,6.04 51.84,5.93 51.87,5.82 51.94,5.73 52.00,5.64 52.10,5.58 52.19,5.51 52.30,5.48 52.40,5.45 52.52,5.46 52.63,5.46 52.73,5.50 52.84,5.54 52.92,5.61 53.01,5.69 53.07,5.78 53.13,5.88 53.15,5.99 53.18,6.10 53.17,6.21 53.16,6.32 53.11,6.42 53.06,6.52 52.99,6.61 52.91,6.69 52.81,6.74 52.72,6.79 52.60,6.81 52.49,6.83 52.49,6.83 52.49,6.83 50.42,6.86 48.35,6.89 43.45,6.96 38.56,7.02 31.94,6.78 25.32,6.55 20.30,5.97 15.28,5.40 10.65,4.42 6.02,3.43 3.38,2.56 0.74,1.68 0.11,1.18 -0.50,0.67 -0.58,0.60 -0.65,0.53 -0.71,0.45 -0.76,0.36 -0.79,0.26 -0.83,0.17 -0.84,0.06 -0.84,-0.03 -0.83,-0.13 -0.81,-0.23 -0.77,-0.32 -0.73,-0.42 -0.67,-0.50 -0.61,-0.58 -0.53,-0.65 -0.45,-0.71 -0.36,-0.76 -0.26,-0.80 -0.16,-0.82 -0.06,-0.84 0.03,-0.84 0.13,-0.83 0.23,-0.80 0.33,-0.78 0.42,-0.73 0.50,-0.67 0.50,-0.67 L 0.50,-0.67 Z"/></g><g transform="translate(289.4444274902344 250.55552673339844) rotate(0 20.555557250976562 0.2777862548828125)" stroke="none"><path fill="#000000" d="M 0,-0.87 Q 0,-0.87 2.39,-0.84 4.79,-0.81 8.20,-0.79 11.61,-0.77 17.70,-0.75 23.78,-0.74 28.77,-0.57 33.77,-0.39 35.88,-0.32 38.00,-0.24 38.11,-0.22 38.22,-0.20 38.32,-0.14 38.42,-0.08 38.49,-0.00 38.57,0.08 38.61,0.18 38.66,0.28 38.67,0.40 38.68,0.51 38.65,0.62 38.62,0.73 38.56,0.83 38.50,0.92 38.41,0.99 38.32,1.06 38.21,1.10 38.11,1.14 37.99,1.14 37.88,1.15 37.77,1.11 37.66,1.08 37.57,1.01 37.48,0.94 37.41,0.85 37.35,0.76 37.31,0.65 37.28,0.54 37.28,0.43 37.29,0.31 37.33,0.21 37.37,0.10 37.44,0.01 37.51,-0.06 37.61,-0.13 37.70,-0.19 37.81,-0.21 37.92,-0.24 38.04,-0.23 38.15,-0.22 38.25,-0.17 38.36,-0.13 38.44,-0.05 38.53,0.01 38.58,0.11 38.64,0.21 38.66,0.32 38.68,0.43 38.66,0.55 38.65,0.66 38.60,0.76 38.54,0.86 38.46,0.94 38.38,1.02 38.28,1.07 38.18,1.12 38.07,1.14 37.95,1.15 37.95,1.15 37.95,1.15 35.84,1.09 33.72,1.03 28.75,0.89 23.78,0.74 17.70,0.75 11.61,0.77 8.20,0.79 4.79,0.81 2.39,0.84 0,0.87 -0.10,0.86 -0.21,0.85 -0.30,0.81 -0.40,0.77 -0.49,0.71 -0.58,0.65 -0.65,0.57 -0.72,0.49 -0.77,0.40 -0.82,0.31 -0.84,0.20 -0.87,0.10 -0.87,-0.00 -0.87,-0.10 -0.84,-0.20 -0.82,-0.31 -0.77,-0.40 -0.72,-0.49 -0.65,-0.57 -0.58,-0.65 -0.49,-0.71 -0.40,-0.77 -0.30,-0.81 -0.21,-0.85 -0.10,-0.86 0.00,-0.87 0.00,-0.87 L 0,-0.87 Z"/></g><g transform="translate(396.111083984375 252.2222137451172) rotate(0 25.833328247070312 0.8333282470703125)" stroke="none"><path fill="#000000" d="M 0.08,-0.81 Q 0.08,-0.81 1.67,-0.63 3.27,-0.45 5.86,-0.21 8.45,0.03 12.88,0.14 17.31,0.24 22.87,0.29 28.44,0.34 33.52,0.37 38.60,0.39 42.37,0.56 46.14,0.73 47.73,0.81 49.33,0.88 49.44,0.91 49.54,0.93 49.64,0.98 49.73,1.04 49.80,1.12 49.88,1.20 49.92,1.30 49.96,1.41 49.97,1.51 49.97,1.62 49.94,1.73 49.92,1.83 49.86,1.92 49.80,2.02 49.71,2.08 49.62,2.15 49.52,2.19 49.42,2.22 49.31,2.22 49.20,2.22 49.09,2.19 48.99,2.16 48.90,2.09 48.82,2.03 48.75,1.94 48.69,1.85 48.66,1.74 48.63,1.64 48.64,1.53 48.64,1.42 48.68,1.32 48.72,1.21 48.79,1.13 48.86,1.05 48.95,0.99 49.05,0.93 49.15,0.91 49.26,0.88 49.37,0.89 49.48,0.91 49.58,0.95 49.67,0.99 49.75,1.07 49.83,1.14 49.89,1.24 49.94,1.34 49.96,1.44 49.98,1.55 49.96,1.66 49.94,1.77 49.89,1.86 49.84,1.96 49.76,2.04 49.69,2.11 49.59,2.16 49.49,2.20 49.38,2.22 49.27,2.23 49.27,2.23 49.27,2.23 47.67,2.16 46.08,2.10 42.33,1.93 38.59,1.77 33.51,1.76 28.43,1.75 22.85,1.72 17.28,1.68 12.80,1.60 8.32,1.51 5.71,1.30 3.11,1.09 1.51,0.95 -0.08,0.81 -0.17,0.79 -0.27,0.77 -0.36,0.73 -0.45,0.68 -0.52,0.62 -0.60,0.55 -0.66,0.47 -0.72,0.39 -0.75,0.30 -0.79,0.21 -0.80,0.11 -0.82,0.01 -0.81,-0.08 -0.80,-0.18 -0.77,-0.27 -0.73,-0.36 -0.68,-0.44 -0.62,-0.53 -0.55,-0.60 -0.48,-0.66 -0.39,-0.71 -0.30,-0.76 -0.21,-0.78 -0.11,-0.81 -0.01,-0.81 0.08,-0.81 0.08,-0.81 L 0.08,-0.81 Z"/></g><g transform="translate(494.9999694824219 254.44444274902344) rotate(0 15.5555419921875 2.2222137451171875)" stroke="none"><path fill="#000000" d="M 0,-0.84 Q 0,-0.84 1.27,-0.82 2.55,-0.79 3.78,-0.61 5.02,-0.43 8.40,0.12 11.79,0.69 16.57,1.41 21.35,2.13 25.40,2.80 29.44,3.46 29.54,3.50 29.65,3.53 29.74,3.60 29.83,3.67 29.89,3.76 29.96,3.86 29.99,3.96 30.02,4.07 30.01,4.19 30.01,4.30 29.96,4.40 29.92,4.51 29.85,4.59 29.78,4.68 29.68,4.74 29.58,4.80 29.47,4.82 29.36,4.84 29.25,4.83 29.14,4.82 29.04,4.77 28.94,4.73 28.85,4.65 28.77,4.57 28.72,4.47 28.67,4.37 28.65,4.26 28.63,4.15 28.65,4.04 28.67,3.93 28.72,3.83 28.77,3.73 28.85,3.65 28.93,3.57 29.04,3.53 29.14,3.48 29.25,3.47 29.36,3.45 29.47,3.48 29.58,3.50 29.68,3.56 29.78,3.62 29.85,3.70 29.92,3.79 29.96,3.89 30.00,4.00 30.01,4.11 30.02,4.22 29.99,4.33 29.96,4.44 29.89,4.53 29.83,4.63 29.74,4.70 29.65,4.76 29.55,4.80 29.44,4.84 29.33,4.84 29.21,4.84 29.21,4.84 29.21,4.84 25.18,4.19 21.14,3.53 16.35,2.83 11.55,2.13 8.18,1.60 4.81,1.07 3.68,0.93 2.55,0.79 1.27,0.82 0,0.84 -0.10,0.83 -0.20,0.82 -0.29,0.78 -0.39,0.75 -0.47,0.69 -0.56,0.63 -0.63,0.55 -0.69,0.48 -0.74,0.39 -0.79,0.30 -0.81,0.20 -0.84,0.10 -0.84,-0.00 -0.84,-0.10 -0.81,-0.20 -0.79,-0.30 -0.74,-0.39 -0.69,-0.48 -0.63,-0.55 -0.56,-0.63 -0.47,-0.69 -0.39,-0.75 -0.29,-0.78 -0.20,-0.82 -0.10,-0.83 0.00,-0.84 0.00,-0.84 L 0,-0.84 Z"/></g><g transform="translate(581.6666564941406 257.2222137451172) rotate(0 25.83331298828125 -0.2777862548828125)" stroke="none"><path fill="#000000" d="M 0.09,-0.81 Q 0.09,-0.81 2.80,-0.47 5.52,-0.13 7.48,0.17 9.44,0.49 12.78,0.62 16.13,0.76 21.22,0.66 26.31,0.56 30.86,0.20 35.41,-0.14 40.04,-0.93 44.66,-1.72 46.64,-2.05 48.62,-2.38 48.73,-2.38 48.84,-2.38 48.94,-2.35 49.05,-2.32 49.14,-2.25 49.22,-2.19 49.28,-2.10 49.35,-2.01 49.38,-1.90 49.41,-1.80 49.40,-1.69 49.40,-1.58 49.36,-1.48 49.32,-1.37 49.25,-1.29 49.18,-1.21 49.08,-1.15 48.99,-1.09 48.88,-1.07 48.78,-1.05 48.67,-1.06 48.56,-1.07 48.46,-1.11 48.36,-1.16 48.28,-1.23 48.20,-1.31 48.15,-1.40 48.10,-1.50 48.08,-1.61 48.06,-1.71 48.08,-1.82 48.10,-1.93 48.15,-2.03 48.20,-2.12 48.28,-2.20 48.35,-2.27 48.45,-2.32 48.55,-2.37 48.66,-2.38 48.77,-2.39 48.87,-2.37 48.98,-2.35 49.08,-2.29 49.17,-2.24 49.24,-2.15 49.31,-2.07 49.35,-1.97 49.39,-1.87 49.40,-1.76 49.41,-1.65 49.38,-1.54 49.35,-1.44 49.29,-1.35 49.23,-1.26 49.14,-1.19 49.06,-1.12 48.95,-1.09 48.85,-1.05 48.85,-1.05 48.85,-1.05 46.87,-0.71 44.89,-0.37 40.21,0.42 35.52,1.22 30.93,1.59 26.34,1.97 21.21,2.08 16.07,2.20 12.65,2.08 9.22,1.96 7.28,1.68 5.33,1.41 2.62,1.11 -0.09,0.81 -0.19,0.79 -0.28,0.77 -0.37,0.72 -0.46,0.67 -0.53,0.61 -0.61,0.54 -0.67,0.46 -0.72,0.38 -0.76,0.29 -0.79,0.19 -0.81,0.10 -0.82,0.00 -0.81,-0.09 -0.80,-0.19 -0.76,-0.28 -0.73,-0.37 -0.67,-0.46 -0.61,-0.54 -0.54,-0.60 -0.47,-0.67 -0.38,-0.72 -0.29,-0.76 -0.19,-0.79 -0.10,-0.81 -0.00,-0.81 0.09,-0.81 0.09,-0.81 L 0.09,-0.81 Z"/></g><g transform="translate(735.5554962158203 172.2222442626953) rotate(0 6.3888702392578125 17.5)" stroke="none"><path fill="#000000" d="M 0.76,-0.38 Q 0.76,-0.38 1.11,0.24 1.46,0.86 1.90,1.97 2.33,3.09 2.53,4.77 2.73,6.46 2.79,8.76 2.86,11.06 2.88,12.99 2.90,14.91 3.04,15.64 3.18,16.38 3.81,16.33 4.43,16.28 5.54,15.73 6.66,15.18 8.10,14.91 9.55,14.64 11.24,14.89 12.93,15.13 14.23,16.46 15.53,17.78 15.92,19.59 16.30,21.39 15.46,23.84 14.63,26.29 13.27,28.30 11.92,30.31 9.67,31.85 7.43,33.40 4.98,34.06 2.52,34.72 -0.61,33.97 -3.75,33.21 -3.84,33.13 -3.94,33.05 -4.01,32.94 -4.08,32.83 -4.10,32.71 -4.13,32.58 -4.12,32.46 -4.11,32.33 -4.06,32.21 -4.00,32.10 -3.92,32.00 -3.83,31.91 -3.72,31.85 -3.61,31.79 -3.48,31.77 -3.35,31.74 -3.23,31.76 -3.10,31.78 -2.99,31.84 -2.88,31.90 -2.79,31.99 -2.70,32.08 -2.64,32.20 -2.59,32.31 -2.57,32.44 -2.56,32.57 -2.58,32.69 -2.61,32.82 -2.68,32.93 -2.74,33.04 -2.84,33.12 -2.93,33.20 -3.05,33.25 -3.17,33.30 -3.30,33.31 -3.42,33.32 -3.55,33.28 -3.67,33.25 -3.78,33.18 -3.88,33.11 -3.96,33.01 -4.04,32.91 -4.08,32.79 -4.12,32.67 -4.12,32.54 -4.13,32.41 -4.09,32.29 -4.05,32.17 -3.97,32.07 -3.89,31.97 -3.79,31.89 -3.68,31.82 -3.56,31.79 -3.44,31.75 -3.31,31.76 -3.18,31.76 -3.07,31.81 -2.95,31.85 -2.95,31.85 -2.95,31.85 -0.37,32.64 2.20,33.43 4.45,32.86 6.70,32.28 8.77,30.90 10.83,29.53 12.09,27.67 13.35,25.82 14.16,23.69 14.96,21.55 14.71,20.09 14.45,18.64 13.50,17.54 12.54,16.45 11.17,16.28 9.80,16.10 8.54,16.34 7.29,16.58 5.83,17.23 4.36,17.87 3.42,17.63 2.48,17.39 1.96,16.18 1.43,14.96 1.38,13.04 1.33,11.12 1.24,8.89 1.14,6.66 0.95,5.20 0.76,3.74 0.28,2.71 -0.19,1.69 -0.47,1.03 -0.76,0.38 -0.79,0.28 -0.83,0.18 -0.84,0.08 -0.85,-0.01 -0.83,-0.11 -0.82,-0.22 -0.78,-0.31 -0.74,-0.41 -0.68,-0.49 -0.62,-0.57 -0.54,-0.64 -0.47,-0.71 -0.37,-0.75 -0.28,-0.80 -0.18,-0.82 -0.08,-0.84 0.01,-0.84 0.11,-0.84 0.21,-0.81 0.31,-0.79 0.40,-0.74 0.49,-0.69 0.57,-0.62 0.64,-0.55 0.70,-0.46 0.76,-0.38 0.76,-0.38 L 0.76,-0.38 Z"/></g><g transform="translate(763.8888092041016 173.3333282470703) rotate(0 1.111114501953125 21.111129760742188)" stroke="none"><path fill="#000000" d="M 0.73,0.27 Q 0.73,0.27 0.23,1.54 -0.25,2.81 -0.80,4.01 -1.34,5.21 -2.20,7.60 -3.06,9.99 -3.74,12.74 -4.42,15.49 -4.71,19.33 -5.00,23.17 -4.49,26.99 -3.98,30.81 -2.83,33.49 -1.69,36.17 -0.04,37.70 1.61,39.24 3.09,39.26 4.58,39.28 5.44,38.46 6.29,37.63 6.50,35.97 6.70,34.32 6.05,32.74 5.40,31.16 4.48,30.24 3.56,29.32 2.19,29.55 0.81,29.78 -0.49,31.06 -1.80,32.33 -2.57,34.65 -3.33,36.97 -3.39,37.08 -3.45,37.19 -3.55,37.27 -3.64,37.35 -3.75,37.40 -3.86,37.45 -3.99,37.46 -4.11,37.47 -4.23,37.44 -4.35,37.41 -4.45,37.34 -4.56,37.27 -4.63,37.18 -4.71,37.08 -4.75,36.97 -4.79,36.85 -4.80,36.73 -4.80,36.60 -4.77,36.49 -4.73,36.37 -4.66,36.27 -4.58,36.17 -4.48,36.10 -4.38,36.03 -4.27,35.99 -4.15,35.95 -4.03,35.96 -3.90,35.96 -3.79,36.00 -3.67,36.05 -3.58,36.12 -3.48,36.20 -3.41,36.30 -3.35,36.41 -3.32,36.53 -3.29,36.65 -3.30,36.77 -3.31,36.89 -3.36,37.01 -3.41,37.12 -3.49,37.21 -3.57,37.30 -3.68,37.36 -3.79,37.42 -3.91,37.45 -4.03,37.47 -4.15,37.45 -4.27,37.44 -4.38,37.38 -4.49,37.33 -4.58,37.24 -4.67,37.15 -4.72,37.04 -4.78,36.93 -4.79,36.81 -4.81,36.69 -4.78,36.57 -4.76,36.44 -4.76,36.44 -4.76,36.44 -3.75,33.93 -2.73,31.42 -1.10,29.98 0.52,28.54 2.30,28.39 4.08,28.24 5.34,29.44 6.60,30.64 7.30,32.53 8.00,34.43 7.63,36.43 7.27,38.44 6.03,39.48 4.79,40.51 2.85,40.41 0.91,40.30 -0.99,38.52 -2.89,36.73 -4.10,33.87 -5.31,31.00 -5.83,27.04 -6.36,23.07 -6.06,19.12 -5.76,15.16 -5.07,12.34 -4.39,9.52 -3.52,7.07 -2.66,4.62 -2.16,3.46 -1.65,2.29 -1.19,1.00 -0.73,-0.27 -0.68,-0.35 -0.64,-0.44 -0.58,-0.51 -0.52,-0.58 -0.44,-0.63 -0.36,-0.69 -0.27,-0.72 -0.18,-0.75 -0.09,-0.76 -0.00,-0.78 0.09,-0.77 0.18,-0.75 0.27,-0.72 0.36,-0.69 0.43,-0.63 0.51,-0.58 0.57,-0.51 0.64,-0.44 0.68,-0.36 0.72,-0.27 0.75,-0.18 0.77,-0.09 0.77,-0.00 0.77,0.09 0.75,0.18 0.73,0.27 0.73,0.27 L 0.73,0.27 Z"/></g><g transform="translate(741.1110382080078 234.4444122314453) rotate(0 3.3333282470703125 16.388916015625)" stroke="none"><path fill="#000000" d="M 0.57,0.57 Q 0.57,0.57 0.44,0.74 0.32,0.91 0.00,1.79 -0.32,2.66 -0.82,4.03 -1.32,5.41 -1.69,7.53 -2.05,9.66 -2.22,11.83 -2.38,14.00 -2.30,16.00 -2.22,18.00 -1.67,18.99 -1.13,19.99 -0.22,20.07 0.68,20.16 1.63,19.78 2.58,19.40 3.60,18.64 4.63,17.87 5.56,17.07 6.49,16.26 7.58,15.73 8.66,15.19 9.29,15.60 9.91,16.02 10.25,16.85 10.59,17.68 10.34,19.57 10.08,21.46 9.63,23.34 9.17,25.22 8.66,27.28 8.14,29.35 8.78,30.48 9.43,31.62 9.39,31.72 9.36,31.81 9.30,31.90 9.24,31.98 9.16,32.05 9.09,32.12 9.00,32.17 8.90,32.22 8.80,32.24 8.70,32.27 8.60,32.27 8.50,32.27 8.40,32.25 8.30,32.22 8.21,32.17 8.12,32.13 8.04,32.06 7.96,31.99 7.90,31.91 7.84,31.82 7.81,31.73 7.77,31.63 7.76,31.53 7.74,31.42 7.75,31.32 7.77,31.22 7.97,30.95 8.18,30.67 8.31,30.63 8.44,30.58 8.58,30.58 8.72,30.57 8.85,30.62 8.98,30.66 9.09,30.74 9.21,30.82 9.29,30.93 9.37,31.05 9.41,31.18 9.45,31.31 9.44,31.45 9.44,31.59 9.39,31.72 9.34,31.85 9.25,31.95 9.16,32.06 9.05,32.13 8.93,32.21 8.79,32.24 8.66,32.27 8.52,32.26 8.38,32.25 8.26,32.19 8.13,32.14 8.03,32.04 7.93,31.95 7.86,31.83 7.79,31.71 7.77,31.57 7.74,31.44 7.76,31.30 7.78,31.16 7.84,31.04 7.91,30.92 8.01,30.82 8.10,30.72 8.23,30.66 8.35,30.60 8.49,30.58 8.63,30.57 8.76,30.59 8.90,30.62 9.02,30.69 9.14,30.76 9.23,30.86 9.32,30.97 9.37,31.09 9.43,31.22 9.44,31.36 9.45,31.50 9.41,31.63 9.38,31.76 9.30,31.88 9.23,32.00 9.33,31.81 9.43,31.62 9.39,31.72 9.36,31.81 9.30,31.90 9.24,31.98 9.16,32.05 9.09,32.12 9.00,32.17 8.90,32.22 8.80,32.24 8.70,32.27 8.60,32.27 8.50,32.27 8.40,32.25 8.30,32.22 8.21,32.17 8.12,32.13 8.04,32.06 7.96,31.99 7.90,31.91 7.84,31.82 7.81,31.73 7.77,31.63 7.76,31.53 7.74,31.43 7.75,31.32 7.77,31.22 7.21,30.10 6.66,28.99 7.13,26.93 7.61,24.86 8.00,23.05 8.38,21.23 8.60,19.69 8.81,18.14 8.44,17.22 8.08,16.31 7.72,16.79 7.36,17.27 6.39,18.11 5.42,18.95 4.23,19.81 3.05,20.66 1.79,21.08 0.54,21.50 -0.71,21.21 -1.98,20.92 -2.79,19.53 -3.60,18.13 -3.71,16.02 -3.82,13.90 -3.67,11.66 -3.52,9.41 -3.16,7.16 -2.79,4.90 -2.33,3.49 -1.86,2.08 -1.41,0.90 -0.96,-0.27 -0.76,-0.42 -0.57,-0.57 -0.49,-0.63 -0.41,-0.69 -0.32,-0.73 -0.24,-0.77 -0.14,-0.79 -0.04,-0.80 0.04,-0.80 0.14,-0.79 0.23,-0.76 0.33,-0.73 0.41,-0.68 0.49,-0.63 0.56,-0.56 0.63,-0.49 0.68,-0.41 0.73,-0.33 0.76,-0.23 0.79,-0.14 0.80,-0.04 0.80,0.04 0.79,0.14 0.77,0.24 0.73,0.32 0.69,0.41 0.63,0.49 0.57,0.57 0.57,0.57 L 0.57,0.57 Z"/></g><g transform="translate(774.4443511962891 260.55555725097656) rotate(0 -2.4999847412109375 8.611083984375)" stroke="none"><path fill="#000000" d="M -0.83,0.33 Q -0.83,0.33 -1.15,-0.45 -1.48,-1.23 -2.08,-1.65 -2.68,-2.07 -3.94,-1.41 -5.21,-0.76 -6.18,0.65 -7.15,2.07 -7.91,3.62 -8.67,5.17 -9.48,7.41 -10.29,9.65 -10.64,11.50 -10.98,13.35 -10.53,14.95 -10.07,16.55 -8.90,17.46 -7.73,18.38 -6.24,18.31 -4.75,18.24 -2.58,16.99 -0.42,15.75 2.50,12.97 5.43,10.20 5.52,10.13 5.62,10.07 5.72,10.04 5.83,10.02 5.93,10.02 6.04,10.03 6.14,10.07 6.25,10.11 6.33,10.18 6.41,10.25 6.47,10.34 6.52,10.44 6.55,10.54 6.57,10.65 6.56,10.76 6.55,10.87 6.50,10.97 6.46,11.07 6.38,11.14 6.30,11.22 6.21,11.27 6.11,11.33 6.00,11.34 5.90,11.36 5.79,11.34 5.68,11.33 5.58,11.27 5.49,11.22 5.41,11.14 5.34,11.06 5.29,10.96 5.25,10.87 5.24,10.76 5.22,10.65 5.25,10.54 5.27,10.44 5.33,10.34 5.38,10.25 5.47,10.18 5.55,10.11 5.65,10.07 5.75,10.03 5.86,10.02 5.97,10.02 6.08,10.05 6.18,10.07 6.27,10.14 6.36,10.20 6.43,10.28 6.49,10.37 6.53,10.47 6.56,10.58 6.56,10.69 6.56,10.80 6.53,10.90 6.49,11.00 6.43,11.09 6.36,11.18 6.36,11.18 6.36,11.18 3.30,14.06 0.25,16.93 -2.20,18.27 -4.66,19.60 -6.53,19.57 -8.41,19.54 -9.89,18.31 -11.37,17.07 -11.91,15.11 -12.44,13.15 -12.10,11.15 -11.76,9.14 -10.96,6.80 -10.16,4.47 -9.39,2.77 -8.62,1.08 -7.48,-0.61 -6.34,-2.32 -5.17,-3.12 -3.99,-3.93 -2.91,-3.95 -1.82,-3.96 -1.32,-3.61 -0.82,-3.27 -0.30,-2.61 0.20,-1.95 0.51,-1.14 0.83,-0.33 0.86,-0.22 0.88,-0.12 0.89,-0.01 0.89,0.09 0.86,0.19 0.84,0.30 0.79,0.39 0.74,0.49 0.67,0.57 0.60,0.66 0.51,0.72 0.43,0.78 0.33,0.82 0.23,0.86 0.12,0.88 0.01,0.89 -0.09,0.88 -0.19,0.87 -0.30,0.83 -0.40,0.80 -0.49,0.74 -0.58,0.68 -0.65,0.60 -0.72,0.52 -0.78,0.42 -0.83,0.33 -0.83,0.33 L -0.83,0.33 Z"/></g><g transform="translate(299.9999694824219 218.8888702392578) rotate(0 4.72222900390625 5.2777862548828125)" stroke="none"><path fill="#000000" d="M 0,0.81 Q 0,0.81 -0.89,0.79 -1.78,0.77 -2.30,1.33 -2.81,1.88 -3.19,2.54 -3.57,3.20 -3.74,4.47 -3.91,5.75 -3.69,7.37 -3.48,8.99 -2.81,10.40 -2.14,11.80 -0.69,12.65 0.75,13.49 2.36,13.56 3.98,13.62 5.85,12.44 7.71,11.26 9.29,8.91 10.86,6.56 11.69,4.17 12.52,1.78 12.58,0.10 12.65,-1.57 11.90,-2.31 11.15,-3.05 9.82,-2.77 8.49,-2.49 7.51,-1.66 6.53,-0.82 4.22,0.12 1.91,1.08 1.81,1.04 1.71,1.00 1.63,0.93 1.55,0.86 1.49,0.77 1.44,0.68 1.41,0.58 1.39,0.47 1.40,0.37 1.41,0.26 1.46,0.16 1.50,0.07 1.57,-0.00 1.65,-0.08 1.74,-0.13 1.83,-0.18 1.94,-0.20 2.04,-0.22 2.15,-0.20 2.26,-0.18 2.35,-0.13 2.44,-0.08 2.52,-0.01 2.59,0.06 2.64,0.16 2.68,0.25 2.69,0.36 2.71,0.47 2.68,0.57 2.66,0.67 2.61,0.77 2.55,0.86 2.47,0.93 2.39,1.00 2.29,1.04 2.19,1.08 2.09,1.08 1.98,1.09 1.88,1.06 1.77,1.03 1.69,0.97 1.60,0.92 1.53,0.83 1.47,0.75 1.43,0.65 1.40,0.54 1.40,0.44 1.40,0.33 1.43,0.23 1.46,0.13 1.53,0.04 1.59,-0.03 1.68,-0.09 1.77,-0.15 1.87,-0.18 1.97,-0.21 2.08,-0.21 2.19,-0.20 2.19,-0.20 2.19,-0.20 3.93,-1.01 5.67,-1.82 6.94,-2.79 8.20,-3.76 9.91,-3.95 11.61,-4.14 12.74,-2.99 13.86,-1.84 13.83,0.18 13.79,2.20 12.89,4.76 11.98,7.32 10.22,9.86 8.46,12.39 6.25,13.69 4.04,14.98 2.07,14.86 0.09,14.74 -1.64,13.64 -3.37,12.54 -4.18,10.88 -4.98,9.22 -5.24,7.38 -5.50,5.55 -5.27,3.95 -5.04,2.35 -4.48,1.51 -3.92,0.66 -2.98,-0.05 -2.05,-0.77 -1.02,-0.79 0,-0.81 0.09,-0.80 0.19,-0.79 0.28,-0.75 0.37,-0.72 0.46,-0.66 0.54,-0.61 0.60,-0.53 0.67,-0.46 0.71,-0.37 0.76,-0.28 0.78,-0.19 0.81,-0.09 0.81,0.00 0.81,0.09 0.78,0.19 0.76,0.28 0.71,0.37 0.67,0.46 0.60,0.53 0.54,0.61 0.46,0.66 0.37,0.72 0.28,0.75 0.19,0.79 0.09,0.80 -0.00,0.81 -0.00,0.81 L 0,0.81 Z"/></g><g transform="translate(514.9999694824219 225.55555725097656) rotate(0 -0.277801513671875 0.8333282470703125)" stroke="none"><path fill="#000000" d="M -0.35,0.71 Q -0.35,0.71 -1.61,0.06 -2.87,-0.58 -3.93,-0.67 -4.98,-0.77 -6.22,-0.66 -7.45,-0.56 -8.37,-0.24 -9.29,0.07 -9.74,0.75 -10.18,1.42 -10.21,2.21 -10.25,2.99 -9.55,4.18 -8.85,5.36 -7.05,6.48 -5.25,7.59 -3.27,8.08 -1.29,8.56 1.03,7.99 3.36,7.42 5.24,5.81 7.13,4.20 8.07,2.49 9.00,0.78 8.78,-1.07 8.55,-2.94 7.42,-4.30 6.28,-5.66 5.11,-6.22 3.93,-6.77 2.81,-6.59 1.68,-6.40 1.16,-4.23 0.64,-2.07 0.63,-1.97 0.61,-1.86 0.56,-1.77 0.51,-1.67 0.43,-1.60 0.36,-1.52 0.26,-1.48 0.16,-1.43 0.06,-1.42 -0.04,-1.41 -0.14,-1.43 -0.25,-1.46 -0.34,-1.51 -0.43,-1.56 -0.50,-1.65 -0.57,-1.73 -0.61,-1.83 -0.65,-1.92 -0.65,-2.03 -0.66,-2.14 -0.63,-2.24 -0.60,-2.34 -0.54,-2.43 -0.49,-2.52 -0.40,-2.58 -0.32,-2.65 -0.22,-2.68 -0.11,-2.72 -0.01,-2.72 0.09,-2.72 0.19,-2.69 0.29,-2.65 0.38,-2.59 0.46,-2.52 0.52,-2.44 0.58,-2.35 0.61,-2.25 0.64,-2.14 0.63,-2.04 0.63,-1.93 0.59,-1.83 0.55,-1.73 0.48,-1.65 0.41,-1.57 0.32,-1.51 0.23,-1.46 0.13,-1.43 0.02,-1.41 -0.07,-1.42 -0.18,-1.43 -0.28,-1.48 -0.37,-1.52 -0.45,-1.59 -0.53,-1.67 -0.58,-1.76 -0.63,-1.86 -0.65,-1.96 -0.66,-2.07 -0.66,-2.07 -0.66,-2.07 0.27,-4.80 1.21,-7.53 2.79,-7.76 4.38,-7.98 5.83,-7.25 7.27,-6.52 8.55,-4.85 9.83,-3.19 10.02,-0.94 10.20,1.29 9.11,3.25 8.01,5.21 5.87,6.96 3.72,8.72 1.08,9.31 -1.55,9.90 -3.76,9.34 -5.98,8.78 -8.01,7.45 -10.05,6.12 -10.87,4.56 -11.69,3.00 -11.53,1.83 -11.37,0.66 -10.62,-0.24 -9.87,-1.16 -8.73,-1.57 -7.58,-1.98 -6.22,-2.10 -4.85,-2.23 -3.54,-2.09 -2.23,-1.96 -0.93,-1.34 0.35,-0.71 0.44,-0.66 0.52,-0.61 0.58,-0.54 0.65,-0.46 0.69,-0.38 0.74,-0.29 0.77,-0.20 0.79,-0.11 0.79,-0.01 0.79,0.08 0.77,0.17 0.75,0.27 0.71,0.35 0.67,0.44 0.60,0.51 0.54,0.59 0.46,0.64 0.38,0.70 0.29,0.74 0.20,0.77 0.11,0.79 0.01,0.80 -0.08,0.79 -0.17,0.78 -0.26,0.75 -0.35,0.71 -0.35,0.71 L -0.35,0.71 Z"/></g><g transform="translate(603.8888244628906 234.99998474121094) rotate(0 5.555572509765625 -3.888885498046875)" stroke="none"><path fill="#000000" d="M 0.27,-0.73 Q 0.27,-0.73 1.54,-0.23 2.81,0.25 4.07,0.45 5.33,0.65 6.42,0.43 7.51,0.21 8.39,-0.30 9.27,-0.83 9.74,-1.59 10.22,-2.36 10.27,-3.35 10.32,-4.35 9.60,-5.48 8.89,-6.61 7.69,-7.56 6.49,-8.50 5.12,-8.88 3.75,-9.26 2.85,-9.03 1.96,-8.79 1.47,-7.69 0.98,-6.59 1.21,-4.96 1.44,-3.32 2.28,-2.05 3.12,-0.77 2.88,-0.26 2.65,0.25 2.68,0.32 2.71,0.39 2.73,0.47 2.75,0.55 2.74,0.63 2.74,0.71 2.72,0.78 2.69,0.86 2.66,0.93 2.62,1.00 2.56,1.05 2.51,1.11 2.44,1.15 2.37,1.19 2.30,1.22 2.22,1.24 2.14,1.25 2.06,1.26 1.98,1.24 1.91,1.23 1.83,1.20 1.76,1.17 1.70,1.12 1.63,1.07 1.58,1.01 1.53,0.95 1.62,1.05 1.71,1.14 1.64,1.07 1.56,0.99 1.51,0.90 1.46,0.80 1.45,0.70 1.43,0.59 1.45,0.49 1.47,0.38 1.52,0.29 1.57,0.20 1.65,0.12 1.73,0.05 1.82,0.01 1.92,-0.03 2.03,-0.04 2.13,-0.05 2.24,-0.02 2.34,-0.00 2.43,0.05 2.52,0.10 2.59,0.18 2.66,0.27 2.70,0.37 2.73,0.46 2.74,0.57 2.74,0.68 2.71,0.78 2.68,0.88 2.62,0.97 2.56,1.06 2.48,1.12 2.39,1.18 2.29,1.22 2.19,1.25 2.08,1.25 1.98,1.25 1.88,1.21 1.78,1.18 1.69,1.11 1.61,1.05 1.55,0.96 1.49,0.87 1.46,0.77 1.43,0.66 1.44,0.56 1.45,0.45 1.49,0.35 1.53,0.25 1.60,0.17 1.67,0.09 1.76,0.04 1.85,-0.00 1.96,-0.03 2.06,-0.05 2.17,-0.04 2.27,-0.02 2.46,0.11 2.65,0.25 2.68,0.32 2.71,0.39 2.73,0.47 2.75,0.55 2.74,0.63 2.74,0.71 2.72,0.78 2.69,0.86 2.66,0.93 2.62,1.00 2.56,1.05 2.51,1.11 2.44,1.15 2.37,1.19 2.30,1.22 2.22,1.24 2.14,1.25 2.06,1.26 1.98,1.24 1.91,1.23 1.83,1.20 1.76,1.17 1.70,1.12 1.63,1.07 1.58,1.01 1.53,0.95 1.78,0.45 2.02,-0.05 1.09,-1.58 0.15,-3.12 -0.03,-5.09 -0.21,-7.07 0.56,-8.46 1.34,-9.84 2.68,-10.19 4.02,-10.54 5.65,-10.05 7.29,-9.56 8.66,-8.44 10.02,-7.32 10.83,-5.85 11.64,-4.39 11.51,-3.04 11.39,-1.69 10.70,-0.68 10.01,0.31 8.90,0.95 7.80,1.58 6.47,1.83 5.14,2.07 3.72,1.86 2.29,1.65 1.01,1.19 -0.27,0.73 -0.35,0.68 -0.44,0.64 -0.51,0.58 -0.58,0.52 -0.63,0.44 -0.69,0.36 -0.72,0.27 -0.75,0.18 -0.76,0.09 -0.78,0.00 -0.77,-0.09 -0.75,-0.18 -0.72,-0.27 -0.69,-0.36 -0.64,-0.43 -0.58,-0.51 -0.51,-0.57 -0.44,-0.64 -0.36,-0.68 -0.27,-0.72 -0.18,-0.75 -0.09,-0.77 -0.00,-0.77 0.09,-0.77 0.18,-0.75 0.27,-0.73 0.27,-0.73 L 0.27,-0.73 Z"/></g><g transform="translate(606.6666564941406 301.66664123535156) rotate(0 4.1666259765625 10.277786254882812)" stroke="none"><path fill="#000000" d="M 0,0.81 Q 0,0.81 -0.76,0.83 -1.53,0.85 -2.15,1.27 -2.76,1.68 -3.32,2.53 -3.88,3.39 -4.29,5.12 -4.70,6.85 -4.42,9.43 -4.14,12.02 -3.26,14.18 -2.38,16.35 -0.66,17.99 1.05,19.63 3.09,19.99 5.12,20.36 6.84,19.62 8.56,18.87 10.04,16.89 11.52,14.91 12.15,12.07 12.78,9.23 12.59,6.82 12.41,4.40 11.14,2.69 9.87,0.99 7.85,0.45 5.83,-0.08 3.25,0.35 0.66,0.79 0.54,0.77 0.41,0.74 0.30,0.68 0.19,0.62 0.10,0.53 0.01,0.44 -0.03,0.32 -0.08,0.21 -0.09,0.08 -0.11,-0.04 -0.08,-0.16 -0.05,-0.29 0.01,-0.40 0.07,-0.50 0.17,-0.59 0.27,-0.67 0.39,-0.71 0.51,-0.76 0.63,-0.77 0.76,-0.77 0.88,-0.74 1.01,-0.70 1.11,-0.63 1.22,-0.56 1.29,-0.46 1.37,-0.35 1.41,-0.23 1.45,-0.11 1.45,0.01 1.45,0.13 1.40,0.25 1.36,0.37 1.29,0.48 1.21,0.58 1.10,0.65 1.00,0.72 0.87,0.75 0.75,0.78 0.62,0.78 0.49,0.77 0.38,0.72 0.26,0.67 0.16,0.59 0.07,0.51 0.00,0.40 -0.05,0.29 -0.08,0.16 -0.11,0.04 -0.09,-0.08 -0.08,-0.21 -0.02,-0.32 0.02,-0.44 0.11,-0.53 0.20,-0.62 0.31,-0.68 0.42,-0.74 0.55,-0.76 0.68,-0.78 0.68,-0.78 0.68,-0.78 3.41,-1.07 6.14,-1.35 8.47,-0.62 10.80,0.11 12.25,2.15 13.70,4.20 13.89,6.86 14.08,9.52 13.35,12.60 12.61,15.69 10.88,17.88 9.15,20.07 7.07,20.89 4.99,21.70 2.59,21.20 0.19,20.70 -1.73,18.82 -3.67,16.93 -4.64,14.56 -5.60,12.19 -5.90,9.36 -6.20,6.52 -5.72,4.52 -5.25,2.52 -4.47,1.38 -3.70,0.23 -2.68,-0.31 -1.65,-0.85 -0.82,-0.83 0,-0.81 0.09,-0.79 0.19,-0.78 0.28,-0.75 0.37,-0.71 0.45,-0.66 0.53,-0.60 0.60,-0.53 0.66,-0.46 0.71,-0.37 0.75,-0.28 0.78,-0.19 0.80,-0.09 0.80,0.00 0.80,0.09 0.78,0.19 0.75,0.28 0.71,0.37 0.66,0.46 0.60,0.53 0.53,0.60 0.45,0.66 0.37,0.71 0.28,0.75 0.19,0.78 0.09,0.79 -0.00,0.81 -0.00,0.81 L 0,0.81 Z"/></g><g transform="translate(540.5555114746094 308.3333282470703) rotate(0 7.777801513671875 -6.3889007568359375)" stroke="none"><path fill="#000000" d="M 0.89,0 Q 0.89,0 0.93,0.31 0.97,0.63 0.96,0.75 0.94,0.87 0.90,0.98 0.86,1.09 0.79,1.18 0.73,1.28 0.64,1.36 0.55,1.44 0.45,1.49 0.34,1.55 0.23,1.57 0.11,1.60 -0.00,1.60 -0.11,1.60 -0.23,1.57 -0.34,1.55 -0.45,1.49 -0.55,1.44 -0.64,1.36 -0.73,1.28 -0.79,1.18 -0.86,1.09 -0.90,0.98 -0.94,0.87 -0.96,0.75 -0.97,0.63 -0.08,-0.12 0.81,-0.88 1.64,-1.71 2.46,-2.54 3.96,-4.48 5.45,-6.42 6.90,-8.37 8.36,-10.32 9.76,-12.56 11.17,-14.80 12.25,-16.71 13.33,-18.61 13.96,-19.90 14.58,-21.20 14.63,-21.27 14.68,-21.33 14.75,-21.39 14.81,-21.44 14.89,-21.48 14.96,-21.52 15.04,-21.54 15.13,-21.55 15.21,-21.55 15.30,-21.55 15.38,-21.53 15.46,-21.50 15.53,-21.46 15.61,-21.42 15.67,-21.36 15.73,-21.31 15.78,-21.23 15.82,-21.16 15.85,-21.08 15.88,-21.00 15.89,-20.92 15.89,-20.84 15.88,-20.75 15.87,-20.67 15.84,-20.59 15.80,-20.51 15.69,-19.35 15.57,-18.20 14.80,-15.61 14.02,-13.03 12.89,-9.54 11.76,-6.05 10.80,-2.97 9.84,0.09 8.95,2.69 8.06,5.28 7.35,7.33 6.64,9.39 6.57,9.50 6.51,9.61 6.41,9.70 6.31,9.78 6.19,9.83 6.07,9.88 5.94,9.89 5.82,9.90 5.69,9.87 5.56,9.84 5.46,9.76 5.35,9.69 5.27,9.59 5.19,9.49 5.14,9.37 5.10,9.25 5.10,9.12 5.10,8.99 5.14,8.87 5.17,8.74 5.25,8.64 5.33,8.53 5.43,8.46 5.54,8.38 5.66,8.35 5.79,8.31 5.92,8.32 6.05,8.32 6.17,8.37 6.29,8.41 6.39,8.49 6.49,8.58 6.56,8.68 6.62,8.79 6.65,8.92 6.68,9.05 6.67,9.18 6.66,9.30 6.61,9.42 6.56,9.54 6.47,9.64 6.38,9.73 6.27,9.79 6.16,9.86 6.03,9.88 5.90,9.90 5.77,9.88 5.65,9.87 5.53,9.81 5.41,9.75 5.32,9.66 5.23,9.56 5.18,9.45 5.12,9.33 5.10,9.20 5.09,9.07 5.11,8.95 5.14,8.82 5.14,8.82 5.14,8.82 5.96,6.83 6.77,4.84 7.65,2.26 8.53,-0.31 9.48,-3.39 10.43,-6.48 11.54,-9.96 12.65,-13.44 13.39,-15.99 14.13,-18.54 14.35,-19.87 14.58,-21.20 14.63,-21.27 14.68,-21.33 14.75,-21.39 14.81,-21.44 14.89,-21.48 14.96,-21.52 15.04,-21.54 15.13,-21.55 15.21,-21.55 15.30,-21.55 15.38,-21.53 15.46,-21.50 15.53,-21.46 15.61,-21.42 15.67,-21.36 15.73,-21.31 15.78,-21.23 15.82,-21.16 15.85,-21.08 15.88,-21.00 15.89,-20.92 15.89,-20.84 15.88,-20.75 15.87,-20.67 15.84,-20.59 15.80,-20.51 15.19,-19.21 14.58,-17.91 13.51,-15.97 12.43,-14.02 11.02,-11.71 9.60,-9.41 8.18,-7.42 6.76,-5.44 5.24,-3.38 3.72,-1.33 2.35,-0.34 0.97,0.63 0.96,0.75 0.94,0.87 0.90,0.98 0.86,1.09 0.79,1.18 0.73,1.28 0.64,1.36 0.55,1.44 0.45,1.49 0.34,1.55 0.23,1.57 0.11,1.60 0.00,1.60 -0.11,1.60 -0.23,1.57 -0.34,1.55 -0.45,1.49 -0.55,1.44 -0.64,1.36 -0.73,1.28 -0.79,1.18 -0.86,1.09 -0.90,0.98 -0.94,0.87 -0.96,0.75 -0.97,0.63 -0.93,0.31 -0.89,0 -0.87,-0.10 -0.86,-0.21 -0.82,-0.31 -0.78,-0.41 -0.72,-0.50 -0.66,-0.59 -0.58,-0.66 -0.50,-0.73 -0.41,-0.78 -0.31,-0.83 -0.21,-0.85 -0.10,-0.88 0.00,-0.88 0.10,-0.88 0.21,-0.85 0.31,-0.83 0.41,-0.78 0.50,-0.73 0.58,-0.66 0.66,-0.59 0.72,-0.50 0.78,-0.41 0.82,-0.31 0.86,-0.21 0.87,-0.10 0.89,0.00 0.89,0.00 L 0.89,0 Z"/></g><g transform="translate(504.9999694824219 299.44444274902344) rotate(0 -0.5555419921875 10.555557250976562)" stroke="none"><path fill="#000000" d="M -0.85,0.17 Q -0.85,0.17 -1.02,-0.60 -1.19,-1.37 -1.72,-1.70 -2.25,-2.03 -2.96,-1.70 -3.67,-1.37 -4.76,-0.08 -5.84,1.20 -6.64,3.12 -7.44,5.04 -7.79,7.88 -8.14,10.72 -7.52,13.77 -6.89,16.82 -5.74,18.84 -4.59,20.86 -2.85,21.65 -1.12,22.45 0.78,21.58 2.68,20.70 4.09,18.84 5.51,16.97 6.11,14.03 6.70,11.09 6.18,7.98 5.67,4.88 4.54,3.00 3.42,1.11 1.43,0.05 -0.54,-1.01 -1.13,-0.70 -1.72,-0.39 -1.78,-0.43 -1.85,-0.48 -1.90,-0.54 -1.95,-0.60 -1.98,-0.67 -2.02,-0.74 -2.04,-0.82 -2.05,-0.90 -2.05,-0.98 -2.05,-1.06 -2.03,-1.14 -2.01,-1.21 -1.97,-1.28 -1.93,-1.35 -1.87,-1.41 -1.82,-1.47 -1.75,-1.51 -1.69,-1.56 -1.61,-1.58 -1.54,-1.61 -1.46,-1.62 -1.38,-1.62 -1.30,-1.61 -1.22,-1.60 -1.15,-1.57 -1.07,-1.54 -0.97,-1.45 -0.86,-1.36 -0.81,-1.26 -0.77,-1.17 -0.75,-1.06 -0.73,-0.96 -0.75,-0.85 -0.77,-0.75 -0.82,-0.65 -0.87,-0.56 -0.95,-0.48 -1.03,-0.41 -1.13,-0.37 -1.22,-0.32 -1.33,-0.31 -1.44,-0.30 -1.54,-0.33 -1.64,-0.35 -1.74,-0.41 -1.83,-0.46 -1.90,-0.54 -1.96,-0.63 -2.00,-0.73 -2.04,-0.83 -2.05,-0.93 -2.05,-1.04 -2.02,-1.14 -1.99,-1.25 -1.93,-1.33 -1.87,-1.42 -1.78,-1.49 -1.70,-1.55 -1.60,-1.58 -1.50,-1.62 -1.39,-1.62 -1.28,-1.61 -1.18,-1.58 -1.08,-1.54 -0.99,-1.48 -0.91,-1.41 -0.85,-1.32 -0.79,-1.23 -0.76,-1.13 -0.74,-1.03 -0.74,-0.92 -0.75,-0.81 -0.79,-0.72 -0.83,-0.62 -0.90,-0.54 -0.97,-0.45 -1.06,-0.40 -1.16,-0.35 -1.26,-0.32 -1.36,-0.30 -1.47,-0.31 -1.58,-0.33 -1.67,-0.37 -1.77,-0.42 -1.74,-0.40 -1.72,-0.39 -1.78,-0.43 -1.85,-0.48 -1.90,-0.54 -1.95,-0.60 -1.98,-0.67 -2.02,-0.74 -2.04,-0.82 -2.05,-0.90 -2.05,-0.98 -2.05,-1.06 -2.03,-1.14 -2.01,-1.21 -1.97,-1.28 -1.93,-1.35 -1.87,-1.41 -1.82,-1.47 -1.75,-1.51 -1.69,-1.56 -1.61,-1.58 -1.54,-1.61 -1.46,-1.62 -1.38,-1.62 -1.30,-1.61 -1.22,-1.60 -1.15,-1.57 -1.07,-1.54 -0.49,-1.86 0.08,-2.18 2.29,-0.90 4.50,0.37 5.74,2.51 6.98,4.64 7.50,7.98 8.02,11.33 7.32,14.54 6.61,17.75 4.95,19.83 3.29,21.92 0.97,22.83 -1.34,23.73 -3.53,22.71 -5.72,21.68 -7.03,19.41 -8.34,17.14 -9.01,13.85 -9.68,10.56 -9.32,7.50 -8.96,4.44 -8.08,2.26 -7.19,0.08 -5.83,-1.50 -4.46,-3.10 -3.16,-3.55 -1.87,-4.00 -1.11,-3.62 -0.35,-3.24 0.10,-2.52 0.56,-1.81 0.70,-0.99 0.85,-0.17 0.86,-0.06 0.86,0.03 0.85,0.14 0.83,0.24 0.79,0.34 0.75,0.43 0.68,0.52 0.62,0.60 0.54,0.67 0.46,0.73 0.36,0.78 0.27,0.82 0.16,0.84 0.06,0.86 -0.03,0.86 -0.14,0.85 -0.24,0.82 -0.34,0.79 -0.43,0.74 -0.52,0.69 -0.60,0.62 -0.67,0.54 -0.73,0.45 -0.78,0.36 -0.82,0.27 -0.85,0.17 -0.85,0.17 L -0.85,0.17 Z"/></g><g transform="translate(461.1110534667969 306.11109924316406) rotate(0 8.05560302734375 -1.388885498046875)" stroke="none"><path fill="#000000" d="M 0.41,0.82 Q 0.41,0.82 0.11,1.02 -0.18,1.21 -0.30,1.25 -0.41,1.30 -0.53,1.31 -0.65,1.32 -0.77,1.30 -0.89,1.29 -1.01,1.24 -1.12,1.20 -1.22,1.12 -1.32,1.05 -1.39,0.96 -1.47,0.87 -1.53,0.76 -1.58,0.65 -1.61,0.53 -1.63,0.42 -1.63,0.29 -1.63,0.17 -1.60,0.06 -1.57,-0.05 -1.51,-0.16 -1.45,-0.26 -1.37,-0.35 -1.29,-0.44 -1.18,-0.51 -1.08,-0.57 0.09,-1.83 1.28,-3.08 3.14,-4.91 5.01,-6.74 6.92,-8.78 8.83,-10.81 10.45,-12.48 12.08,-14.15 13.41,-15.50 14.74,-16.84 15.45,-17.70 16.15,-18.56 16.42,-19.14 16.68,-19.72 16.75,-19.79 16.82,-19.85 16.91,-19.90 16.99,-19.96 17.09,-19.98 17.18,-20.01 17.28,-20.02 17.38,-20.02 17.48,-20.00 17.58,-19.98 17.67,-19.94 17.76,-19.90 17.83,-19.84 17.91,-19.77 17.97,-19.69 18.03,-19.61 18.07,-19.52 18.11,-19.43 18.13,-19.33 18.14,-19.24 18.14,-19.14 18.13,-19.04 18.10,-18.94 18.07,-18.85 18.01,-18.76 17.96,-18.68 17.22,-17.67 16.48,-16.66 15.77,-15.00 15.06,-13.34 13.95,-10.24 12.85,-7.15 11.58,-3.12 10.31,0.90 9.45,4.19 8.59,7.49 8.23,10.13 7.87,12.78 7.48,14.68 7.08,16.59 7.03,16.71 6.98,16.83 6.90,16.92 6.81,17.02 6.70,17.09 6.59,17.15 6.46,17.18 6.33,17.20 6.20,17.18 6.07,17.17 5.96,17.11 5.84,17.05 5.75,16.96 5.66,16.87 5.60,16.76 5.54,16.64 5.52,16.51 5.50,16.38 5.53,16.26 5.55,16.13 5.61,16.01 5.68,15.90 5.77,15.81 5.87,15.73 5.99,15.67 6.11,15.62 6.23,15.61 6.36,15.60 6.49,15.63 6.62,15.66 6.73,15.73 6.84,15.80 6.92,15.90 7.00,16.00 7.04,16.12 7.09,16.24 7.09,16.37 7.10,16.50 7.06,16.63 7.02,16.75 6.95,16.86 6.87,16.96 6.77,17.04 6.66,17.12 6.54,17.15 6.42,17.19 6.29,17.19 6.16,17.19 6.04,17.14 5.91,17.10 5.81,17.02 5.71,16.94 5.64,16.83 5.57,16.72 5.54,16.60 5.51,16.47 5.52,16.34 5.52,16.21 5.52,16.21 5.52,16.21 6.03,14.41 6.53,12.60 6.90,9.87 7.27,7.15 8.13,3.81 8.99,0.48 10.25,-3.56 11.52,-7.62 12.62,-10.76 13.72,-13.90 14.44,-15.65 15.17,-17.39 15.92,-18.55 16.68,-19.72 16.75,-19.79 16.82,-19.85 16.91,-19.90 16.99,-19.96 17.09,-19.98 17.18,-20.01 17.28,-20.02 17.38,-20.02 17.48,-20.00 17.58,-19.98 17.67,-19.94 17.76,-19.90 17.83,-19.84 17.91,-19.77 17.97,-19.69 18.03,-19.61 18.07,-19.52 18.11,-19.43 18.13,-19.33 18.14,-19.24 18.14,-19.14 18.13,-19.04 18.10,-18.94 18.07,-18.85 18.01,-18.76 17.96,-18.68 17.61,-18.18 17.26,-17.67 16.52,-16.75 15.79,-15.82 14.48,-14.46 13.17,-13.11 11.58,-11.42 9.99,-9.74 8.10,-7.65 6.21,-5.55 4.40,-3.68 2.59,-1.81 1.70,-0.83 0.82,0.14 0.31,0.68 -0.18,1.21 -0.30,1.25 -0.41,1.30 -0.53,1.31 -0.65,1.32 -0.77,1.30 -0.89,1.29 -1.01,1.24 -1.12,1.20 -1.22,1.12 -1.32,1.05 -1.39,0.96 -1.47,0.87 -1.53,0.76 -1.58,0.65 -1.61,0.53 -1.63,0.42 -1.63,0.29 -1.63,0.17 -1.60,0.06 -1.57,-0.05 -1.51,-0.16 -1.45,-0.26 -1.37,-0.35 -1.29,-0.44 -1.18,-0.51 -1.08,-0.57 -0.74,-0.70 -0.41,-0.82 -0.30,-0.85 -0.20,-0.89 -0.09,-0.90 0.01,-0.91 0.12,-0.90 0.23,-0.88 0.34,-0.84 0.44,-0.80 0.53,-0.74 0.62,-0.67 0.69,-0.59 0.76,-0.50 0.81,-0.40 0.86,-0.30 0.89,-0.20 0.91,-0.09 0.91,0.01 0.91,0.12 0.88,0.23 0.85,0.34 0.79,0.43 0.74,0.53 0.67,0.61 0.59,0.69 0.50,0.76 0.41,0.82 0.41,0.82 L 0.41,0.82 Z"/></g><g transform="translate(354.4444274902344 313.3333282470703) rotate(0 8.888900756835938 0.5555419921875)" stroke="none"><path fill="#000000" d="M 0.65,0.65 Q 0.65,0.65 0.21,1.11 -0.21,1.58 -0.25,1.84 -0.30,2.10 -0.40,2.18 -0.50,2.26 -0.61,2.31 -0.73,2.36 -0.85,2.39 -0.98,2.41 -1.10,2.40 -1.23,2.39 -1.35,2.36 -1.47,2.32 -1.58,2.25 -1.69,2.19 -1.78,2.10 -1.87,2.01 -1.93,1.90 -2.00,1.79 -2.04,1.67 -2.07,1.55 -2.08,1.42 -2.09,1.30 -2.07,1.17 -2.04,1.05 -1.99,0.93 -1.94,0.82 -1.86,0.72 -1.78,0.62 -1.15,-0.03 -0.52,-0.68 1.03,-2.55 2.59,-4.41 4.56,-6.49 6.54,-8.58 8.64,-11.04 10.74,-13.49 12.63,-15.36 14.51,-17.22 15.83,-18.21 17.15,-19.21 18.16,-18.78 19.16,-18.35 19.17,-16.68 19.19,-15.02 18.34,-11.57 17.49,-8.13 16.17,-3.50 14.84,1.13 13.64,5.33 12.44,9.53 11.44,12.92 10.45,16.30 9.54,17.45 8.64,18.60 8.60,18.68 8.57,18.76 8.51,18.83 8.46,18.90 8.39,18.96 8.32,19.01 8.24,19.05 8.16,19.09 8.07,19.11 7.99,19.13 7.90,19.12 7.81,19.12 7.72,19.09 7.64,19.07 7.56,19.02 7.48,18.98 7.42,18.92 7.35,18.85 7.31,18.78 7.26,18.70 7.23,18.62 7.20,18.53 7.20,18.45 7.19,18.36 7.20,18.27 7.22,18.18 7.34,18.57 7.45,18.96 7.38,18.87 7.30,18.77 7.25,18.66 7.21,18.55 7.20,18.43 7.19,18.31 7.22,18.20 7.25,18.08 7.32,17.98 7.39,17.88 7.48,17.81 7.58,17.74 7.69,17.70 7.80,17.66 7.92,17.66 8.04,17.66 8.15,17.70 8.27,17.73 8.36,17.80 8.46,17.88 8.53,17.97 8.60,18.07 8.63,18.19 8.66,18.30 8.66,18.42 8.65,18.54 8.61,18.65 8.56,18.76 8.49,18.86 8.41,18.95 8.31,19.01 8.21,19.07 8.09,19.10 7.97,19.13 7.85,19.11 7.74,19.10 7.63,19.05 7.52,19.00 7.43,18.92 7.34,18.84 7.29,18.74 7.23,18.63 7.21,18.51 7.19,18.39 7.21,18.28 7.22,18.16 7.28,18.05 7.34,17.95 7.42,17.86 7.51,17.78 7.62,17.73 7.72,17.68 7.84,17.66 7.96,17.65 8.08,17.67 8.20,17.70 8.42,18.15 8.64,18.60 8.60,18.68 8.57,18.76 8.51,18.83 8.46,18.90 8.39,18.96 8.32,19.01 8.24,19.05 8.16,19.09 8.07,19.11 7.99,19.13 7.90,19.12 7.81,19.12 7.72,19.09 7.64,19.07 7.56,19.02 7.48,18.98 7.42,18.92 7.35,18.85 7.31,18.78 7.26,18.70 7.23,18.62 7.20,18.53 7.20,18.45 7.19,18.36 7.20,18.27 7.22,18.18 8.17,17.05 9.12,15.91 10.10,12.53 11.08,9.15 12.27,4.94 13.45,0.74 14.75,-3.87 16.04,-8.49 16.83,-11.78 17.62,-15.08 17.48,-16.53 17.34,-17.98 16.45,-17.08 15.56,-16.17 13.75,-14.33 11.93,-12.49 9.83,-9.98 7.74,-7.47 5.85,-5.38 3.95,-3.30 2.43,-1.36 0.91,0.57 0.30,1.34 -0.30,2.10 -0.40,2.18 -0.50,2.26 -0.61,2.31 -0.73,2.36 -0.85,2.39 -0.98,2.41 -1.10,2.40 -1.23,2.39 -1.35,2.36 -1.47,2.32 -1.58,2.25 -1.69,2.19 -1.78,2.10 -1.87,2.01 -1.93,1.90 -2.00,1.79 -2.04,1.67 -2.07,1.55 -2.08,1.42 -2.09,1.30 -2.07,1.17 -2.04,1.05 -1.99,0.93 -1.94,0.82 -1.86,0.72 -1.78,0.62 -1.74,0.47 -1.70,0.33 -1.17,-0.15 -0.65,-0.65 -0.56,-0.72 -0.47,-0.78 -0.37,-0.83 -0.27,-0.88 -0.16,-0.90 -0.05,-0.92 0.05,-0.91 0.16,-0.90 0.27,-0.87 0.37,-0.84 0.47,-0.78 0.56,-0.72 0.64,-0.64 0.72,-0.56 0.78,-0.47 0.84,-0.37 0.87,-0.27 0.90,-0.16 0.91,-0.05 0.92,0.05 0.90,0.16 0.88,0.27 0.83,0.37 0.78,0.47 0.72,0.56 0.65,0.65 0.65,0.65 L 0.65,0.65 Z"/></g><g transform="translate(295.5555419921875 311.11109924316406) rotate(0 -0.27777099609375 10.27777099609375)" stroke="none"><path fill="#000000" d="M 0.61,0.47 Q 0.61,0.47 -0.51,1.90 -1.64,3.32 -2.40,5.13 -3.15,6.93 -3.97,9.45 -4.78,11.98 -4.96,14.26 -5.14,16.55 -4.77,18.39 -4.39,20.24 -3.97,20.89 -3.56,21.54 -2.37,20.78 -1.17,20.01 0.23,17.71 1.64,15.41 2.57,12.86 3.51,10.30 4.06,7.49 4.62,4.67 4.39,2.62 4.16,0.56 3.60,-0.16 3.04,-0.89 1.12,-0.32 -0.78,0.23 -0.83,0.16 -0.88,0.08 -0.91,0.00 -0.93,-0.08 -0.94,-0.17 -0.95,-0.26 -0.93,-0.34 -0.91,-0.43 -0.88,-0.51 -0.84,-0.60 -0.79,-0.67 -0.73,-0.74 -0.66,-0.79 -0.59,-0.85 -0.51,-0.89 -0.43,-0.92 -0.35,-0.94 -0.26,-0.96 -0.17,-0.95 -0.08,-0.95 0.00,-0.92 0.08,-0.90 0.16,-0.85 0.24,-0.81 0.30,-0.74 0.36,-0.68 0.41,-0.60 0.46,-0.53 0.49,-0.41 0.52,-0.30 0.51,-0.18 0.51,-0.06 0.46,0.04 0.42,0.16 0.34,0.25 0.26,0.34 0.16,0.40 0.06,0.46 -0.05,0.49 -0.17,0.51 -0.29,0.50 -0.41,0.48 -0.51,0.43 -0.62,0.38 -0.71,0.30 -0.80,0.22 -0.85,0.11 -0.91,0.01 -0.93,-0.10 -0.95,-0.22 -0.93,-0.34 -0.91,-0.46 -0.85,-0.56 -0.79,-0.67 -0.71,-0.75 -0.62,-0.83 -0.51,-0.88 -0.40,-0.93 -0.28,-0.95 -0.16,-0.96 -0.05,-0.93 0.06,-0.91 0.16,-0.84 0.27,-0.78 0.34,-0.69 0.42,-0.60 0.46,-0.49 0.51,-0.38 0.51,-0.26 0.52,-0.14 0.49,-0.02 0.46,0.08 0.39,0.18 0.32,0.28 0.23,0.36 0.13,0.43 0.02,0.47 -0.09,0.50 -0.21,0.50 -0.33,0.50 -0.44,0.46 -0.55,0.42 -0.65,0.35 -0.75,0.28 -0.76,0.26 -0.78,0.23 -0.83,0.16 -0.88,0.08 -0.91,0.00 -0.93,-0.08 -0.94,-0.17 -0.95,-0.26 -0.93,-0.34 -0.91,-0.43 -0.88,-0.51 -0.84,-0.60 -0.79,-0.67 -0.73,-0.74 -0.66,-0.79 -0.59,-0.85 -0.51,-0.89 -0.43,-0.92 -0.35,-0.94 -0.26,-0.96 -0.17,-0.95 -0.08,-0.95 0.00,-0.92 0.08,-0.90 0.16,-0.85 0.24,-0.81 0.30,-0.74 0.36,-0.68 1.97,-1.30 3.58,-1.92 4.50,-0.80 5.43,0.31 5.67,2.61 5.92,4.91 5.33,7.84 4.75,10.76 3.76,13.44 2.77,16.12 1.16,18.62 -0.44,21.12 -1.86,21.89 -3.27,22.65 -4.47,21.63 -5.67,20.61 -6.09,18.53 -6.52,16.45 -6.32,14.00 -6.13,11.56 -5.31,8.96 -4.49,6.37 -3.66,4.39 -2.82,2.42 -1.72,0.97 -0.61,-0.47 -0.55,-0.54 -0.48,-0.61 -0.40,-0.66 -0.32,-0.71 -0.23,-0.73 -0.14,-0.76 -0.04,-0.77 0.04,-0.77 0.13,-0.76 0.22,-0.74 0.31,-0.70 0.40,-0.66 0.47,-0.61 0.55,-0.55 0.60,-0.48 0.66,-0.40 0.70,-0.32 0.74,-0.23 0.76,-0.14 0.77,-0.04 0.77,0.04 0.76,0.13 0.74,0.22 0.71,0.31 0.66,0.39 0.61,0.47 0.61,0.47 L 0.61,0.47 Z"/></g><g transform="translate(247.22219848632812 317.2222442626953) rotate(0 6.6666717529296875 -6.9444580078125)" stroke="none"><path fill="#000000" d="M -0.64,-0.64 Q -0.64,-0.64 0.17,-1.42 0.99,-2.19 2.15,-3.31 3.31,-4.43 4.59,-5.84 5.87,-7.26 7.39,-8.83 8.91,-10.40 10.47,-12.07 12.03,-13.75 12.14,-13.83 12.25,-13.91 12.37,-13.95 12.50,-13.99 12.64,-13.99 12.77,-13.99 12.90,-13.94 13.03,-13.90 13.13,-13.81 13.24,-13.73 13.31,-13.62 13.39,-13.50 13.42,-13.37 13.46,-13.24 13.45,-13.11 13.44,-12.97 13.39,-12.85 13.34,-12.72 13.25,-12.62 13.16,-12.52 13.04,-12.45 12.92,-12.38 12.79,-12.36 12.66,-12.33 12.52,-12.35 12.39,-12.36 12.27,-12.42 12.15,-12.48 12.05,-12.57 11.95,-12.67 11.89,-12.79 11.83,-12.91 11.81,-13.04 11.79,-13.18 11.81,-13.31 11.84,-13.44 11.90,-13.56 11.97,-13.68 12.07,-13.77 12.17,-13.86 12.29,-13.92 12.41,-13.97 12.55,-13.98 12.68,-14.00 12.81,-13.97 12.95,-13.93 13.06,-13.86 13.18,-13.79 13.26,-13.69 13.35,-13.58 13.40,-13.46 13.44,-13.33 13.45,-13.20 13.45,-13.06 13.42,-12.93 13.38,-12.80 13.30,-12.69 13.22,-12.58 13.22,-12.58 13.22,-12.58 11.60,-10.99 9.97,-9.39 8.48,-7.82 7.00,-6.25 5.71,-4.78 4.43,-3.31 3.31,-2.15 2.19,-0.99 1.42,-0.17 0.64,0.64 0.56,0.71 0.47,0.78 0.37,0.83 0.27,0.87 0.16,0.89 0.05,0.91 -0.05,0.90 -0.16,0.90 -0.27,0.86 -0.37,0.83 -0.47,0.77 -0.56,0.72 -0.64,0.64 -0.72,0.56 -0.77,0.47 -0.83,0.37 -0.86,0.27 -0.90,0.16 -0.90,0.05 -0.91,-0.05 -0.89,-0.16 -0.87,-0.27 -0.83,-0.37 -0.78,-0.47 -0.71,-0.56 -0.64,-0.64 -0.64,-0.64 L -0.64,-0.64 Z"/></g><g transform="translate(263.33331298828125 300.55552673339844) rotate(0 -3.6110992431640625 13.611114501953125)" stroke="none"><path fill="#000000" d="M 0.92,0.23 Q 0.92,0.23 0.41,2.13 -0.10,4.04 -1.14,6.96 -2.19,9.88 -3.11,12.69 -4.03,15.50 -4.91,18.29 -5.79,21.08 -5.63,23.53 -5.47,25.98 -5.44,26.11 -5.42,26.25 -5.43,26.38 -5.45,26.51 -5.51,26.64 -5.57,26.76 -5.66,26.85 -5.76,26.95 -5.88,27.01 -6.00,27.07 -6.13,27.09 -6.27,27.11 -6.40,27.08 -6.53,27.06 -6.65,26.99 -6.77,26.93 -6.86,26.83 -6.95,26.73 -7.01,26.60 -7.06,26.48 -7.07,26.35 -7.08,26.21 -7.05,26.08 -7.02,25.95 -6.95,25.83 -6.88,25.72 -6.77,25.63 -6.67,25.55 -6.54,25.50 -6.41,25.45 -6.28,25.45 -6.14,25.45 -6.01,25.48 -5.89,25.52 -5.77,25.60 -5.66,25.68 -5.59,25.79 -5.51,25.90 -5.47,26.03 -5.42,26.16 -5.43,26.29 -5.43,26.43 -5.48,26.55 -5.52,26.68 -5.61,26.79 -5.69,26.89 -5.80,26.97 -5.92,27.04 -6.05,27.07 -6.18,27.11 -6.31,27.10 -6.45,27.09 -6.57,27.03 -6.70,26.98 -6.80,26.89 -6.90,26.80 -6.97,26.68 -7.03,26.57 -7.03,26.57 -7.03,26.57 -7.12,23.60 -7.21,20.64 -6.36,17.83 -5.51,15.03 -4.62,12.18 -3.73,9.34 -2.77,6.48 -1.80,3.62 -1.36,1.69 -0.92,-0.23 -0.88,-0.34 -0.84,-0.44 -0.78,-0.54 -0.71,-0.63 -0.62,-0.71 -0.54,-0.79 -0.43,-0.84 -0.33,-0.89 -0.22,-0.92 -0.11,-0.95 0.00,-0.95 0.11,-0.95 0.23,-0.92 0.34,-0.89 0.44,-0.84 0.54,-0.78 0.63,-0.70 0.71,-0.63 0.78,-0.53 0.85,-0.44 0.89,-0.33 0.93,-0.22 0.94,-0.11 0.95,0.00 0.94,0.11 0.92,0.23 0.92,0.23 L 0.92,0.23 Z"/></g><g transform="translate(309.4444274902344 449.4444122314453) rotate(0 1.9444427490234375 10.833343505859375)" stroke="none"><path fill="#000000" d="M -0.48,0.64 Q -0.48,0.64 -1.13,0.19 -1.78,-0.25 -2.71,-0.58 -3.63,-0.91 -4.56,-0.75 -5.48,-0.59 -6.50,-0.25 -7.52,0.08 -8.33,1.10 -9.15,2.11 -9.82,4.08 -10.49,6.04 -10.62,8.27 -10.76,10.49 -10.20,12.98 -9.63,15.46 -8.31,17.75 -6.98,20.03 -5.65,21.46 -4.32,22.90 -2.81,24.14 -1.29,25.39 -0.25,26.97 0.78,28.55 1.06,30.01 1.34,31.48 0.42,32.86 -0.49,34.24 -2.28,34.84 -4.06,35.44 -5.87,35.33 -7.67,35.22 -9.19,33.96 -10.70,32.71 -11.20,30.93 -11.69,29.15 -10.90,26.70 -10.10,24.26 -7.97,21.44 -5.83,18.63 -2.67,15.52 0.47,12.41 3.87,8.87 7.27,5.33 9.48,2.27 11.70,-0.79 12.77,-3.93 13.84,-7.07 13.76,-8.82 13.68,-10.56 11.86,-11.29 10.03,-12.01 7.29,-10.94 4.55,-9.86 1.49,-7.23 -1.57,-4.59 -3.82,-1.73 -6.08,1.11 -7.66,4.40 -9.24,7.69 -9.31,7.78 -9.37,7.87 -9.45,7.93 -9.54,7.99 -9.64,8.02 -9.74,8.06 -9.85,8.05 -9.95,8.05 -10.05,8.02 -10.15,7.98 -10.24,7.92 -10.32,7.85 -10.38,7.76 -10.44,7.67 -10.46,7.57 -10.49,7.47 -10.48,7.36 -10.47,7.25 -10.43,7.16 -10.39,7.06 -10.32,6.98 -10.25,6.90 -10.16,6.85 -10.07,6.79 -9.96,6.77 -9.86,6.75 -9.75,6.76 -9.65,6.78 -9.55,6.82 -9.46,6.87 -9.38,6.94 -9.31,7.02 -9.26,7.11 -9.21,7.21 -9.19,7.31 -9.18,7.42 -9.20,7.52 -9.22,7.63 -9.27,7.72 -9.32,7.81 -9.40,7.89 -9.48,7.96 -9.57,8.00 -9.67,8.04 -9.78,8.05 -9.88,8.06 -9.99,8.04 -10.09,8.01 -10.18,7.96 -10.27,7.90 -10.34,7.82 -10.40,7.74 -10.44,7.64 -10.48,7.54 -10.48,7.43 -10.49,7.32 -10.46,7.22 -10.43,7.12 -10.43,7.12 -10.43,7.12 -8.77,3.71 -7.11,0.30 -4.77,-2.64 -2.42,-5.58 0.82,-8.33 4.07,-11.08 7.18,-12.15 10.28,-13.23 12.43,-12.24 14.57,-11.25 14.83,-8.97 15.08,-6.69 13.93,-3.36 12.77,-0.03 10.49,3.10 8.21,6.24 4.80,9.79 1.39,13.34 -1.69,16.38 -4.79,19.43 -6.83,22.07 -8.87,24.70 -9.65,26.82 -10.42,28.94 -10.09,30.39 -9.77,31.83 -8.60,32.90 -7.43,33.97 -5.92,34.07 -4.42,34.18 -2.92,33.77 -1.43,33.37 -0.65,32.39 0.12,31.41 -0.10,30.32 -0.33,29.24 -1.24,27.82 -2.15,26.40 -3.73,25.10 -5.30,23.80 -6.72,22.26 -8.15,20.71 -9.55,18.24 -10.95,15.78 -11.54,13.10 -12.13,10.42 -11.97,8.01 -11.81,5.59 -11.04,3.41 -10.26,1.22 -9.18,-0.00 -8.10,-1.24 -6.91,-1.67 -5.72,-2.11 -4.46,-2.28 -3.20,-2.45 -1.98,-2.05 -0.77,-1.65 -0.14,-1.14 0.48,-0.64 0.54,-0.57 0.61,-0.50 0.67,-0.42 0.72,-0.34 0.75,-0.25 0.78,-0.16 0.79,-0.06 0.79,0.03 0.78,0.12 0.76,0.22 0.73,0.31 0.69,0.39 0.63,0.47 0.57,0.55 0.50,0.61 0.42,0.67 0.34,0.71 0.25,0.75 0.15,0.77 0.06,0.79 -0.03,0.79 -0.12,0.79 -0.22,0.76 -0.31,0.73 -0.39,0.68 -0.48,0.64 -0.48,0.64 L -0.48,0.64 Z"/></g><g transform="translate(298.33331298828125 493.8888702392578) rotate(0 2.77777099609375 10)" stroke="none"><path fill="#000000" d="M 0.69,0.52 Q 0.69,0.52 0.23,1.17 -0.21,1.82 -0.53,2.62 -0.85,3.42 -1.01,4.64 -1.17,5.87 -0.94,6.95 -0.72,8.03 -0.24,8.89 0.24,9.74 1.48,9.50 2.72,9.25 3.48,8.40 4.24,7.55 4.94,6.82 5.64,6.09 6.04,5.47 6.44,4.85 6.59,4.73 6.75,4.62 6.82,4.53 6.90,4.45 6.99,4.39 7.08,4.33 7.18,4.30 7.29,4.26 7.40,4.25 7.51,4.24 7.62,4.25 7.73,4.27 7.83,4.31 7.93,4.35 8.02,4.42 8.11,4.48 8.18,4.57 8.25,4.65 8.30,4.75 8.35,4.85 8.37,4.96 8.40,5.06 8.40,5.17 8.39,5.28 8.36,5.39 8.34,5.50 8.28,5.59 8.23,5.69 8.43,6.82 8.63,7.96 8.45,9.39 8.27,10.83 8.18,12.03 8.10,13.23 8.05,14.69 8.01,16.16 8.04,18.16 8.06,20.16 8.04,20.30 8.02,20.43 7.95,20.55 7.89,20.67 7.79,20.76 7.69,20.86 7.56,20.91 7.44,20.97 7.30,20.98 7.17,21.00 7.04,20.97 6.90,20.94 6.79,20.86 6.67,20.79 6.58,20.69 6.49,20.58 6.44,20.46 6.40,20.33 6.39,20.19 6.38,20.06 6.42,19.93 6.46,19.79 6.54,19.68 6.61,19.57 6.72,19.49 6.83,19.41 6.96,19.36 7.09,19.32 7.23,19.32 7.36,19.32 7.49,19.37 7.62,19.41 7.73,19.50 7.84,19.58 7.91,19.69 7.99,19.81 8.02,19.94 8.06,20.07 8.05,20.21 8.04,20.34 7.99,20.47 7.94,20.59 7.85,20.70 7.76,20.80 7.64,20.87 7.53,20.94 7.39,20.97 7.26,21.00 7.12,20.98 6.99,20.97 6.86,20.91 6.74,20.85 6.64,20.75 6.54,20.66 6.48,20.54 6.42,20.42 6.40,20.28 6.38,20.15 6.38,20.15 6.38,20.15 6.44,18.14 6.50,16.13 6.51,14.64 6.52,13.15 6.56,11.90 6.60,10.65 6.71,9.33 6.81,8.02 6.77,7.11 6.72,6.19 6.73,5.41 6.75,4.62 6.82,4.54 6.90,4.45 6.99,4.39 7.08,4.33 7.18,4.30 7.29,4.26 7.40,4.25 7.51,4.24 7.62,4.25 7.73,4.27 7.83,4.31 7.93,4.35 8.02,4.42 8.11,4.48 8.18,4.57 8.25,4.65 8.30,4.75 8.35,4.85 8.37,4.96 8.40,5.06 8.40,5.17 8.39,5.28 8.36,5.39 8.34,5.50 8.28,5.59 8.23,5.69 7.99,5.79 7.76,5.89 7.25,6.52 6.74,7.15 6.05,7.87 5.36,8.59 4.36,9.65 3.36,10.71 2.18,11.11 1.00,11.50 0.07,11.07 -0.86,10.65 -1.55,9.51 -2.24,8.38 -2.53,7.04 -2.81,5.70 -2.66,4.24 -2.51,2.77 -2.10,1.75 -1.69,0.73 -1.19,0.10 -0.69,-0.52 -0.62,-0.59 -0.55,-0.67 -0.46,-0.73 -0.37,-0.78 -0.27,-0.81 -0.17,-0.85 -0.07,-0.86 0.03,-0.87 0.13,-0.85 0.24,-0.83 0.33,-0.79 0.43,-0.75 0.51,-0.69 0.60,-0.62 0.66,-0.54 0.73,-0.46 0.78,-0.37 0.82,-0.27 0.84,-0.17 0.86,-0.07 0.86,0.03 0.85,0.13 0.83,0.23 0.80,0.34 0.74,0.43 0.69,0.52 0.69,0.52 L 0.69,0.52 Z"/></g><g transform="translate(330.5555419921875 433.3333282470703) rotate(0 3.6110992431640625 42.777740478515625)" stroke="none"><path fill="#000000" d="M -0.76,0.38 Q -0.76,0.38 -0.96,0.08 -1.16,-0.21 -1.20,-0.32 -1.24,-0.43 -1.25,-0.54 -1.26,-0.65 -1.24,-0.77 -1.23,-0.88 -1.18,-0.98 -1.14,-1.09 -1.08,-1.18 -1.01,-1.27 -0.92,-1.35 -0.84,-1.42 -0.73,-1.47 -0.63,-1.52 -0.52,-1.55 -0.41,-1.57 -0.30,-1.57 -0.18,-1.57 -0.07,-1.54 0.03,-1.51 0.13,-1.46 0.23,-1.40 0.31,-1.32 0.39,-1.25 0.46,-1.15 0.52,-1.06 1.08,-0.00 1.65,1.04 2.20,2.95 2.75,4.86 3.76,8.03 4.76,11.19 5.68,15.61 6.59,20.04 7.45,25.11 8.31,30.18 8.67,34.92 9.04,39.65 9.03,44.87 9.02,50.10 8.70,54.88 8.37,59.67 7.59,64.44 6.81,69.21 5.67,73.18 4.53,77.15 3.56,79.65 2.58,82.15 0.93,84.65 -0.71,87.15 -0.79,87.25 -0.88,87.35 -0.98,87.41 -1.09,87.48 -1.22,87.50 -1.34,87.53 -1.46,87.52 -1.59,87.50 -1.71,87.45 -1.82,87.40 -1.91,87.31 -2.00,87.23 -2.06,87.11 -2.12,87.00 -2.14,86.88 -2.16,86.75 -2.14,86.63 -2.12,86.50 -2.06,86.39 -2.01,86.28 -1.91,86.19 -1.82,86.10 -1.71,86.05 -1.59,86.00 -1.47,85.98 -1.34,85.97 -1.22,86.00 -1.09,86.02 -0.99,86.09 -0.88,86.15 -0.80,86.25 -0.71,86.35 -0.67,86.46 -0.62,86.58 -0.61,86.71 -0.61,86.83 -0.64,86.96 -0.67,87.08 -0.74,87.18 -0.81,87.29 -0.91,87.36 -1.02,87.44 -1.14,87.48 -1.25,87.52 -1.38,87.52 -1.51,87.52 -1.63,87.48 -1.75,87.44 -1.85,87.37 -1.95,87.29 -2.02,87.18 -2.09,87.08 -2.13,86.96 -2.16,86.84 -2.15,86.71 -2.15,86.58 -2.10,86.47 -2.05,86.35 -2.05,86.35 -2.05,86.35 -0.35,84.00 1.35,81.65 2.30,79.22 3.24,76.78 4.36,72.88 5.48,68.99 6.24,64.28 7.01,59.57 7.33,54.83 7.64,50.09 7.64,44.93 7.64,39.76 7.27,35.09 6.89,30.42 6.02,25.38 5.14,20.34 4.22,16.00 3.30,11.66 2.25,8.50 1.20,5.33 0.67,3.62 0.14,1.91 -0.50,0.85 -1.16,-0.21 -1.20,-0.32 -1.24,-0.43 -1.25,-0.54 -1.26,-0.65 -1.24,-0.77 -1.23,-0.88 -1.18,-0.98 -1.14,-1.09 -1.08,-1.18 -1.01,-1.27 -0.92,-1.35 -0.84,-1.42 -0.73,-1.47 -0.63,-1.52 -0.52,-1.55 -0.41,-1.57 -0.30,-1.57 -0.18,-1.57 -0.07,-1.54 0.03,-1.51 0.13,-1.46 0.23,-1.40 0.31,-1.32 0.39,-1.25 0.46,-1.15 0.52,-1.06 0.64,-0.72 0.76,-0.38 0.79,-0.28 0.82,-0.18 0.83,-0.08 0.85,0.01 0.83,0.11 0.82,0.21 0.78,0.31 0.74,0.40 0.68,0.49 0.62,0.57 0.54,0.64 0.46,0.70 0.37,0.75 0.28,0.80 0.18,0.82 0.08,0.84 -0.01,0.84 -0.11,0.84 -0.21,0.81 -0.31,0.78 -0.40,0.73 -0.49,0.69 -0.57,0.62 -0.64,0.55 -0.70,0.46 -0.76,0.38 -0.76,0.38 L -0.76,0.38 Z"/></g><g transform="translate(299.9999694824219 427.77772521972656) rotate(0 -9.444442749023438 45.277801513671875)" stroke="none"><path fill="#000000" d="M -0.16,0.82 Q -0.16,0.82 -0.96,0.69 -1.75,0.55 -2.82,1.12 -3.89,1.68 -4.80,2.61 -5.71,3.53 -6.41,4.67 -7.10,5.81 -8.22,7.90 -9.34,10.00 -10.45,12.77 -11.55,15.55 -12.51,18.32 -13.46,21.09 -14.51,24.66 -15.56,28.23 -16.32,32.27 -17.08,36.31 -17.40,39.77 -17.73,43.23 -17.71,47.40 -17.69,51.56 -17.36,55.88 -17.04,60.20 -16.42,63.77 -15.81,67.34 -14.76,70.91 -13.71,74.48 -12.63,77.09 -11.55,79.71 -10.16,81.91 -8.76,84.10 -7.54,85.67 -6.31,87.23 -5.05,88.85 -3.78,90.47 -3.73,90.58 -3.67,90.70 -3.65,90.82 -3.63,90.95 -3.65,91.07 -3.68,91.20 -3.74,91.31 -3.80,91.42 -3.89,91.51 -3.99,91.59 -4.10,91.64 -4.22,91.70 -4.35,91.71 -4.47,91.72 -4.60,91.69 -4.72,91.66 -4.83,91.59 -4.94,91.53 -5.02,91.43 -5.10,91.33 -5.14,91.21 -5.19,91.09 -5.19,90.96 -5.20,90.84 -5.16,90.71 -5.12,90.59 -5.05,90.49 -4.98,90.39 -4.87,90.31 -4.77,90.24 -4.65,90.20 -4.53,90.16 -4.40,90.16 -4.28,90.16 -4.16,90.21 -4.04,90.25 -3.94,90.33 -3.84,90.41 -3.77,90.51 -3.70,90.62 -3.67,90.74 -3.63,90.86 -3.64,90.99 -3.65,91.12 -3.70,91.23 -3.75,91.35 -3.83,91.45 -3.92,91.54 -4.03,91.61 -4.14,91.67 -4.26,91.70 -4.39,91.72 -4.51,91.70 -4.64,91.69 -4.75,91.63 -4.87,91.58 -4.96,91.49 -5.05,91.40 -5.05,91.40 -5.05,91.40 -6.20,89.72 -7.35,88.05 -8.61,86.43 -9.88,84.81 -11.32,82.51 -12.77,80.22 -13.88,77.53 -14.98,74.85 -16.05,71.21 -17.12,67.56 -17.75,63.93 -18.37,60.30 -18.70,55.93 -19.03,51.57 -19.06,47.34 -19.08,43.11 -18.76,39.58 -18.43,36.06 -17.67,31.95 -16.90,27.84 -15.86,24.23 -14.82,20.63 -13.88,17.82 -12.93,15.00 -11.82,12.14 -10.71,9.28 -9.61,7.13 -8.51,4.98 -7.75,3.66 -6.99,2.34 -5.98,1.22 -4.97,0.11 -4.03,-0.48 -3.09,-1.08 -2.26,-1.14 -1.43,-1.19 -0.63,-1.01 0.16,-0.82 0.26,-0.79 0.35,-0.76 0.44,-0.71 0.53,-0.65 0.60,-0.58 0.67,-0.51 0.72,-0.42 0.77,-0.33 0.80,-0.23 0.83,-0.13 0.83,-0.03 0.84,0.06 0.82,0.16 0.80,0.26 0.75,0.35 0.71,0.44 0.65,0.52 0.58,0.60 0.50,0.66 0.42,0.73 0.33,0.77 0.23,0.81 0.13,0.82 0.03,0.84 -0.06,0.83 -0.16,0.82 -0.16,0.82 L -0.16,0.82 Z"/></g><g transform="translate(359.4444274902344 482.77772521972656) rotate(0 0.27777099609375 -1.111083984375)" stroke="none"><path fill="#000000" d="M 0,1.18 Q 0,1.18 -0.59,1.18 -1.19,1.19 -0.67,0.89 -0.14,0.59 0.43,0.19 1.01,-0.20 1.23,-1.37 1.46,-2.54 0.92,-3.04 0.38,-3.53 0.33,-3.68 0.28,-3.82 0.26,-3.97 0.25,-4.13 0.27,-4.28 0.29,-4.43 0.35,-4.57 0.41,-4.71 0.50,-4.83 0.59,-4.96 0.71,-5.05 0.82,-5.15 0.96,-5.22 1.10,-5.29 1.25,-5.32 1.40,-5.35 1.55,-5.35 1.70,-5.34 1.85,-5.30 1.99,-5.26 2.13,-5.19 2.26,-5.11 2.37,-5.01 2.48,-4.90 2.57,-4.78 2.65,-4.65 2.09,-2.68 1.54,-0.71 1.44,-0.55 1.35,-0.39 1.20,-0.26 1.06,-0.14 0.88,-0.06 0.70,0.00 0.51,0.01 0.32,0.02 0.14,-0.02 -0.04,-0.07 -0.19,-0.17 -0.35,-0.28 -0.47,-0.43 -0.59,-0.58 -0.65,-0.76 -0.71,-0.94 -0.71,-1.13 -0.71,-1.32 -0.65,-1.50 -0.60,-1.68 -0.48,-1.84 -0.37,-1.99 -0.21,-2.10 -0.05,-2.21 0.12,-2.26 0.30,-2.31 0.49,-2.30 0.68,-2.29 0.86,-2.22 1.04,-2.16 1.19,-2.03 1.33,-1.91 1.43,-1.75 1.53,-1.59 1.57,-1.40 1.62,-1.21 1.60,-1.02 1.58,-0.83 1.50,-0.66 1.42,-0.49 1.29,-0.35 1.16,-0.21 0.99,-0.12 0.83,-0.03 0.64,0.00 0.45,0.03 0.26,0.00 0.07,-0.02 -0.09,-0.11 -0.26,-0.20 -0.39,-0.33 -0.52,-0.47 -0.60,-0.64 -0.68,-0.82 -0.70,-1.01 -0.73,-1.20 -0.69,-1.38 -0.65,-1.57 -0.65,-1.57 -0.65,-1.57 -0.13,-2.55 0.38,-3.53 0.33,-3.68 0.28,-3.82 0.26,-3.97 0.25,-4.12 0.27,-4.28 0.29,-4.43 0.35,-4.57 0.41,-4.71 0.50,-4.83 0.59,-4.96 0.71,-5.05 0.82,-5.15 0.96,-5.22 1.10,-5.29 1.25,-5.32 1.40,-5.35 1.55,-5.35 1.70,-5.34 1.85,-5.30 1.99,-5.26 2.13,-5.19 2.26,-5.11 2.37,-5.01 2.48,-4.90 2.57,-4.78 2.65,-4.65 2.89,-4.42 3.13,-4.18 3.44,-3.33 3.76,-2.47 3.67,-1.34 3.58,-0.21 3.15,0.71 2.72,1.64 1.78,2.30 0.84,2.96 -0.24,2.92 -1.32,2.89 -2.07,2.24 -2.82,1.58 -2.82,0.77 -2.82,-0.03 -2.09,-0.61 -1.36,-1.19 -0.68,-1.18 0,-1.18 0.14,-1.16 0.28,-1.15 0.41,-1.10 0.55,-1.05 0.66,-0.96 0.78,-0.88 0.88,-0.78 0.97,-0.67 1.04,-0.54 1.10,-0.42 1.14,-0.28 1.17,-0.14 1.17,0.00 1.17,0.14 1.14,0.28 1.10,0.42 1.04,0.54 0.97,0.67 0.88,0.78 0.78,0.88 0.66,0.96 0.55,1.05 0.41,1.10 0.28,1.15 0.14,1.16 -0.00,1.18 -0.00,1.18 L 0,1.18 Z"/></g><g transform="translate(390.5555725097656 433.3333282470703) rotate(0 -1.1111602783203125 39.722198486328125)" stroke="none"><path fill="#000000" d="M 0.52,0.69 Q 0.52,0.69 -0.09,1.19 -0.72,1.69 -1.10,2.07 -1.48,2.45 -1.91,3.02 -2.34,3.58 -3.08,4.34 -3.83,5.09 -4.43,5.84 -5.04,6.59 -5.60,7.64 -6.17,8.69 -6.73,10.38 -7.30,12.08 -7.87,14.08 -8.44,16.09 -9.01,18.99 -9.57,21.90 -10.13,24.90 -10.70,27.90 -11.10,31.55 -11.50,35.19 -11.51,38.96 -11.52,42.72 -11.21,45.89 -10.90,49.07 -10.29,52.16 -9.69,55.25 -8.33,58.59 -6.97,61.94 -4.97,65.25 -2.97,68.57 -0.56,71.22 1.84,73.87 5.53,75.91 9.21,77.94 9.30,78.01 9.38,78.07 9.44,78.16 9.50,78.25 9.52,78.35 9.55,78.46 9.54,78.56 9.53,78.67 9.49,78.77 9.45,78.87 9.38,78.95 9.31,79.03 9.22,79.08 9.12,79.13 9.02,79.16 8.91,79.18 8.81,79.16 8.70,79.15 8.61,79.10 8.51,79.05 8.43,78.98 8.36,78.90 8.31,78.81 8.26,78.71 8.25,78.61 8.23,78.50 8.25,78.40 8.27,78.29 8.32,78.20 8.37,78.11 8.45,78.03 8.53,77.96 8.63,77.92 8.73,77.88 8.83,77.87 8.94,77.86 9.04,77.88 9.15,77.91 9.24,77.96 9.33,78.02 9.40,78.10 9.46,78.19 9.50,78.29 9.54,78.39 9.54,78.49 9.55,78.60 9.52,78.70 9.48,78.81 9.42,78.89 9.36,78.98 9.27,79.04 9.19,79.11 9.09,79.14 8.98,79.17 8.88,79.17 8.77,79.17 8.67,79.13 8.57,79.09 8.57,79.09 8.57,79.09 4.73,76.94 0.88,74.78 -1.61,72.02 -4.11,69.26 -6.16,65.85 -8.21,62.44 -9.60,58.97 -11.00,55.51 -11.62,52.36 -12.25,49.20 -12.57,45.96 -12.89,42.71 -12.88,38.88 -12.88,35.05 -12.48,31.35 -12.09,27.65 -11.54,24.64 -10.99,21.63 -10.44,18.66 -9.89,15.69 -9.34,13.64 -8.80,11.60 -8.23,9.77 -7.66,7.94 -7.06,6.71 -6.47,5.49 -5.85,4.65 -5.22,3.80 -4.58,3.05 -3.94,2.31 -3.37,1.61 -2.79,0.91 -2.31,0.56 -1.83,0.21 -1.17,-0.23 -0.52,-0.69 -0.43,-0.75 -0.34,-0.80 -0.24,-0.83 -0.13,-0.86 -0.03,-0.86 0.07,-0.87 0.17,-0.84 0.27,-0.82 0.37,-0.78 0.46,-0.73 0.54,-0.67 0.63,-0.60 0.69,-0.52 0.75,-0.43 0.79,-0.33 0.83,-0.24 0.85,-0.13 0.87,-0.03 0.86,0.07 0.85,0.17 0.82,0.27 0.78,0.37 0.73,0.46 0.67,0.55 0.60,0.62 0.52,0.69 0.52,0.69 L 0.52,0.69 Z"/></g><g transform="translate(407.7777404785156 485.55555725097656) rotate(0 8.611160278320312 10.277740478515625)" stroke="none"><path fill="#000000" d="M 0.43,0.86 Q 0.43,0.86 -0.23,1.21 -0.90,1.56 -1.11,1.56 -1.33,1.56 -1.45,1.60 -1.58,1.65 -1.71,1.66 -1.84,1.68 -1.97,1.66 -2.10,1.64 -2.22,1.59 -2.34,1.54 -2.45,1.46 -2.55,1.39 -2.64,1.29 -2.72,1.19 -2.78,1.07 -2.84,0.95 -2.87,0.82 -2.90,0.70 -2.90,0.56 -2.89,0.43 -2.86,0.31 -2.83,0.18 -2.76,0.06 -2.70,-0.04 -2.61,-0.14 -2.52,-0.23 -2.41,-0.31 -2.30,-0.38 -1.86,-0.90 -1.42,-1.41 -0.50,-1.81 0.42,-2.21 1.66,-1.83 2.91,-1.45 3.93,-0.35 4.95,0.74 5.82,2.19 6.69,3.64 7.22,4.93 7.74,6.21 8.66,6.23 9.57,6.25 10.79,5.97 12.02,5.69 13.48,5.91 14.94,6.13 16.29,7.12 17.64,8.11 18.39,9.75 19.15,11.39 19.28,12.95 19.42,14.51 18.80,16.22 18.19,17.93 17.23,19.17 16.27,20.41 14.82,21.15 13.37,21.88 11.13,22.40 8.88,22.92 8.76,22.92 8.63,22.92 8.51,22.88 8.39,22.84 8.29,22.76 8.19,22.69 8.12,22.58 8.04,22.48 8.01,22.36 7.97,22.24 7.98,22.11 7.98,21.98 8.03,21.86 8.08,21.75 8.16,21.65 8.24,21.55 8.35,21.49 8.45,21.42 8.58,21.39 8.70,21.36 8.83,21.38 8.95,21.39 9.07,21.44 9.18,21.49 9.28,21.58 9.37,21.66 9.43,21.78 9.49,21.89 9.51,22.01 9.53,22.14 9.51,22.26 9.49,22.39 9.44,22.50 9.38,22.61 9.29,22.70 9.20,22.79 9.08,22.84 8.97,22.90 8.84,22.91 8.72,22.93 8.59,22.90 8.47,22.87 8.36,22.81 8.25,22.75 8.17,22.65 8.08,22.55 8.04,22.44 7.99,22.32 7.98,22.19 7.97,22.07 8.00,21.94 8.04,21.82 8.11,21.72 8.18,21.61 8.28,21.53 8.38,21.46 8.50,21.41 8.62,21.37 8.62,21.37 8.62,21.37 10.70,21.01 12.79,20.65 14.01,20.09 15.23,19.52 16.05,18.47 16.87,17.42 17.43,16.00 17.99,14.57 17.88,13.27 17.77,11.97 17.21,10.63 16.64,9.28 15.62,8.51 14.61,7.74 13.51,7.58 12.42,7.42 11.38,7.74 10.34,8.05 8.93,8.32 7.51,8.58 6.88,7.71 6.26,6.85 5.74,5.70 5.23,4.55 4.40,3.28 3.56,2.02 2.83,1.23 2.10,0.44 1.48,0.14 0.86,-0.15 0.04,0.24 -0.77,0.63 -1.05,1.10 -1.33,1.56 -1.45,1.60 -1.58,1.65 -1.71,1.66 -1.84,1.68 -1.97,1.66 -2.10,1.64 -2.22,1.59 -2.34,1.54 -2.45,1.46 -2.55,1.39 -2.64,1.29 -2.72,1.19 -2.78,1.07 -2.84,0.95 -2.87,0.82 -2.90,0.70 -2.90,0.56 -2.89,0.43 -2.86,0.31 -2.83,0.18 -2.76,0.06 -2.70,-0.04 -2.61,-0.14 -2.52,-0.23 -2.41,-0.31 -2.30,-0.38 -1.98,-0.33 -1.65,-0.29 -1.04,-0.58 -0.43,-0.86 -0.32,-0.90 -0.21,-0.94 -0.09,-0.95 0.01,-0.97 0.13,-0.95 0.25,-0.93 0.35,-0.89 0.46,-0.85 0.56,-0.78 0.65,-0.71 0.73,-0.62 0.81,-0.53 0.86,-0.43 0.91,-0.32 0.94,-0.21 0.96,-0.09 0.96,0.01 0.96,0.13 0.93,0.24 0.90,0.36 0.84,0.46 0.78,0.56 0.70,0.65 0.62,0.73 0.53,0.80 0.43,0.86 0.43,0.86 L 0.43,0.86 Z"/></g><g transform="translate(407.22222900390625 452.77772521972656) rotate(0 4.7222137451171875 0.000030517578125)" stroke="none"><path fill="#000000" d="M -0.43,0.64 Q -0.43,0.64 -1.39,-0.01 -2.35,-0.68 -3.17,-2.02 -3.99,-3.37 -4.47,-4.41 -4.95,-5.46 -5.00,-6.84 -5.05,-8.23 -4.35,-9.41 -3.65,-10.60 -2.44,-11.13 -1.23,-11.67 0.47,-11.54 2.18,-11.42 3.97,-11.20 5.77,-10.98 7.15,-10.89 8.53,-10.79 9.70,-10.91 10.88,-11.03 11.61,-11.40 12.34,-11.77 12.72,-12.21 13.10,-12.65 13.38,-12.14 13.67,-11.64 13.36,-10.22 13.06,-8.79 12.73,-6.41 12.41,-4.02 12.26,-1.11 12.11,1.79 12.04,4.15 11.96,6.51 11.75,9.96 11.54,13.41 11.49,13.54 11.44,13.68 11.35,13.79 11.27,13.91 11.15,13.99 11.03,14.07 10.89,14.11 10.75,14.15 10.60,14.14 10.46,14.13 10.33,14.07 10.19,14.02 10.08,13.93 9.97,13.83 9.90,13.71 9.83,13.58 9.80,13.44 9.77,13.30 9.78,13.16 9.80,13.02 9.86,12.88 9.92,12.75 10.02,12.65 10.12,12.55 10.25,12.48 10.38,12.41 10.52,12.39 10.66,12.37 10.80,12.39 10.95,12.42 11.07,12.48 11.20,12.55 11.30,12.66 11.40,12.76 11.46,12.89 11.52,13.03 11.53,13.17 11.55,13.31 11.51,13.45 11.48,13.59 11.41,13.72 11.33,13.84 11.22,13.93 11.11,14.02 10.98,14.08 10.84,14.13 10.70,14.14 10.56,14.14 10.42,14.10 10.28,14.07 10.16,13.98 10.04,13.90 9.95,13.79 9.87,13.67 9.82,13.53 9.78,13.40 9.78,13.25 9.78,13.11 9.78,13.11 9.78,13.11 10.09,9.79 10.40,6.47 10.43,4.10 10.45,1.72 10.55,-1.25 10.64,-4.23 10.88,-6.69 11.13,-9.15 11.40,-10.85 11.67,-12.54 12.22,-13.38 12.76,-14.22 13.34,-14.34 13.92,-14.46 14.44,-13.68 14.97,-12.89 14.61,-12.19 14.25,-11.49 13.59,-10.97 12.94,-10.46 11.98,-10.09 11.02,-9.72 9.73,-9.59 8.44,-9.47 7.03,-9.56 5.61,-9.66 3.83,-9.87 2.06,-10.09 0.63,-10.25 -0.79,-10.40 -1.71,-10.09 -2.62,-9.77 -3.16,-8.96 -3.71,-8.14 -3.68,-7.08 -3.66,-6.01 -3.20,-5.06 -2.74,-4.10 -2.11,-2.99 -1.47,-1.87 -0.52,-1.26 0.43,-0.64 0.50,-0.58 0.57,-0.52 0.63,-0.45 0.68,-0.37 0.72,-0.28 0.75,-0.19 0.76,-0.10 0.78,-0.01 0.77,0.08 0.76,0.17 0.72,0.26 0.69,0.35 0.64,0.43 0.59,0.50 0.52,0.57 0.45,0.63 0.37,0.68 0.28,0.72 0.19,0.74 0.10,0.77 0.01,0.77 -0.08,0.77 -0.17,0.75 -0.26,0.73 -0.34,0.69 -0.43,0.64 -0.43,0.64 L -0.43,0.64 Z"/></g><g transform="translate(408.8888854980469 459.9999542236328) rotate(0 8.888870239257812 -1.111114501953125)" stroke="none"><path fill="#000000" d="M -0.10,-0.92 Q -0.10,-0.92 1.33,-1.04 2.78,-1.16 4.86,-1.21 6.94,-1.25 8.91,-1.42 10.87,-1.58 13.62,-2.18 16.38,-2.77 16.51,-2.77 16.64,-2.78 16.77,-2.74 16.90,-2.70 17.00,-2.63 17.11,-2.55 17.19,-2.45 17.27,-2.34 17.31,-2.21 17.35,-2.09 17.35,-1.95 17.35,-1.82 17.30,-1.70 17.26,-1.57 17.18,-1.47 17.09,-1.36 16.98,-1.29 16.87,-1.22 16.74,-1.18 16.61,-1.15 16.48,-1.16 16.35,-1.17 16.23,-1.22 16.11,-1.27 16.01,-1.36 15.91,-1.45 15.84,-1.56 15.77,-1.68 15.75,-1.80 15.72,-1.93 15.74,-2.07 15.75,-2.20 15.81,-2.32 15.87,-2.44 15.96,-2.53 16.05,-2.63 16.17,-2.69 16.29,-2.75 16.42,-2.77 16.55,-2.79 16.68,-2.76 16.81,-2.74 16.93,-2.67 17.05,-2.61 17.14,-2.51 17.23,-2.42 17.28,-2.29 17.33,-2.17 17.34,-2.04 17.36,-1.91 17.33,-1.78 17.30,-1.65 17.23,-1.54 17.16,-1.43 17.05,-1.34 16.95,-1.26 16.83,-1.21 16.70,-1.16 16.70,-1.16 16.70,-1.16 13.86,-0.62 11.02,-0.07 9.00,0.13 6.99,0.34 4.98,0.43 2.96,0.52 1.53,0.72 0.10,0.92 -0.00,0.91 -0.12,0.91 -0.22,0.89 -0.33,0.86 -0.43,0.80 -0.53,0.75 -0.61,0.68 -0.69,0.60 -0.76,0.51 -0.82,0.42 -0.86,0.31 -0.90,0.21 -0.91,0.10 -0.92,-0.00 -0.91,-0.12 -0.89,-0.23 -0.85,-0.33 -0.81,-0.43 -0.75,-0.52 -0.68,-0.62 -0.60,-0.69 -0.51,-0.76 -0.41,-0.81 -0.31,-0.86 -0.21,-0.89 -0.10,-0.92 -0.10,-0.92 L -0.10,-0.92 Z"/></g><g transform="translate(434.4444274902344 427.2222442626953) rotate(0 5.555572509765625 46.38885498046875)" stroke="none"><path fill="#000000" d="M 0.77,-0.11 Q 0.77,-0.11 0.91,1.00 1.05,2.12 1.42,3.35 1.78,4.57 2.56,6.52 3.35,8.47 4.49,11.89 5.63,15.31 6.91,19.64 8.20,23.97 9.07,28.40 9.93,32.82 10.46,38.07 10.99,43.32 11.22,47.95 11.44,52.59 11.05,57.62 10.67,62.66 9.54,67.86 8.41,73.07 6.97,77.37 5.52,81.67 3.74,86.32 1.95,90.97 1.90,91.06 1.84,91.15 1.76,91.22 1.68,91.29 1.58,91.33 1.48,91.37 1.38,91.38 1.27,91.39 1.17,91.36 1.07,91.33 0.98,91.27 0.89,91.21 0.82,91.13 0.76,91.05 0.72,90.95 0.69,90.84 0.68,90.74 0.68,90.63 0.72,90.53 0.75,90.43 0.81,90.34 0.88,90.26 0.96,90.20 1.05,90.13 1.15,90.11 1.26,90.08 1.36,90.08 1.47,90.08 1.57,90.12 1.67,90.16 1.75,90.23 1.83,90.30 1.89,90.39 1.94,90.48 1.97,90.58 1.99,90.69 1.98,90.79 1.97,90.90 1.93,91.00 1.89,91.09 1.81,91.17 1.74,91.25 1.65,91.30 1.55,91.35 1.45,91.37 1.34,91.39 1.24,91.37 1.13,91.36 1.04,91.31 0.94,91.26 0.87,91.18 0.79,91.11 0.75,91.01 0.70,90.91 0.69,90.81 0.68,90.70 0.70,90.60 0.72,90.49 0.72,90.49 0.72,90.49 2.49,85.87 4.27,81.25 5.69,77.02 7.12,72.78 8.23,67.67 9.35,62.56 9.73,57.60 10.11,52.65 9.88,48.05 9.66,43.46 9.14,38.27 8.61,33.08 7.75,28.72 6.89,24.36 5.60,20.05 4.32,15.75 3.18,12.38 2.04,9.00 1.22,7.00 0.40,4.99 -0.00,3.66 -0.41,2.34 -0.59,1.22 -0.77,0.11 -0.77,0.01 -0.77,-0.07 -0.75,-0.16 -0.73,-0.26 -0.69,-0.34 -0.65,-0.43 -0.59,-0.50 -0.53,-0.57 -0.45,-0.62 -0.37,-0.68 -0.29,-0.71 -0.20,-0.75 -0.10,-0.76 -0.01,-0.78 0.07,-0.77 0.17,-0.76 0.25,-0.73 0.34,-0.69 0.42,-0.64 0.50,-0.59 0.56,-0.52 0.63,-0.45 0.67,-0.37 0.72,-0.29 0.74,-0.20 0.77,-0.11 0.77,-0.11 L 0.77,-0.11 Z"/></g></svg>