<svg version="1.1" xmlns="http://www.w3.org/2000/svg" viewBox="0 0 533.8888244628906 272.6666717529297" width="533.8888244628906" height="272.6666717529297" filter="invert(93%) hue-rotate(180deg)">
  <!-- svg-source:excalidraw -->
  
  <defs>
    <style class="style-fonts">
      @font-face {
        font-family: "Virgil";
        src: url("https://excalidraw.com/Virgil.woff2");
      }
      @font-face {
        font-family: "Cascadia";
        src: url("https://excalidraw.com/Cascadia.woff2");
      }
    </style>
    
  </defs>
  <rect x="0" y="0" width="533.8888244628906" height="272.6666717529297" fill="#ffffff"/><g transform="translate(15 31.111114501953125) rotate(0 16.388885498046875 29.72222900390625)" stroke="none"><path fill="#1e1e1e" d="M -0.59,0.59 Q -0.59,0.59 -0.50,0.36 -0.40,0.13 -0.64,1.23 -0.89,2.33 -1.36,5.19 -1.83,8.05 -2.36,12.94 -2.89,17.82 -3.29,23.09 -3.68,28.35 -3.69,34.24 -3.71,40.14 -3.25,44.19 -2.79,48.24 -1.74,50.07 -0.69,51.91 1.28,50.87 3.26,49.84 5.62,46.00 7.98,42.15 9.81,37.65 11.64,33.14 13.21,27.73 14.79,22.31 15.94,18.08 17.09,13.86 17.90,10.78 18.71,7.71 18.90,6.40 19.08,5.09 19.11,5.02 19.14,4.95 19.19,4.88 19.23,4.82 19.30,4.76 19.36,4.71 19.43,4.68 19.50,4.64 19.58,4.62 19.65,4.60 19.73,4.61 19.81,4.61 19.89,4.63 19.97,4.65 20.04,4.69 20.11,4.72 20.17,4.78 20.22,4.83 20.27,4.90 20.31,4.96 20.34,5.04 20.37,5.11 20.38,5.19 20.38,5.27 20.37,5.35 20.36,5.43 19.98,8.37 19.59,11.30 19.27,14.93 18.95,18.55 18.65,24.24 18.35,29.93 18.38,35.53 18.41,41.13 19.05,46.33 19.69,51.54 21.26,53.87 22.83,56.21 24.90,55.53 26.97,54.85 29.54,50.84 32.10,46.83 34.19,43.21 36.27,39.60 36.34,39.51 36.41,39.43 36.50,39.37 36.59,39.32 36.70,39.29 36.80,39.27 36.91,39.28 37.02,39.29 37.11,39.33 37.21,39.37 37.29,39.45 37.37,39.52 37.42,39.61 37.47,39.71 37.49,39.81 37.51,39.92 37.50,40.02 37.48,40.13 37.43,40.23 37.39,40.32 37.31,40.40 37.23,40.47 37.14,40.52 37.04,40.57 36.93,40.58 36.83,40.59 36.72,40.57 36.62,40.55 36.52,40.50 36.43,40.44 36.36,40.36 36.29,40.28 36.25,40.18 36.20,40.08 36.20,39.98 36.19,39.87 36.22,39.77 36.24,39.66 36.30,39.57 36.36,39.48 36.44,39.42 36.53,39.35 36.63,39.31 36.73,39.28 36.84,39.27 36.94,39.27 37.05,39.31 37.15,39.34 37.24,39.40 37.32,39.46 37.38,39.55 37.45,39.64 37.48,39.74 37.51,39.85 37.50,39.95 37.50,40.06 37.46,40.16 37.42,40.26 37.42,40.26 37.42,40.26 35.32,43.91 33.22,47.56 30.37,51.78 27.53,56.01 25.13,56.67 22.73,57.34 20.55,54.56 18.37,51.78 17.70,46.46 17.03,41.14 16.99,35.50 16.94,29.86 17.23,24.15 17.51,18.43 17.81,14.77 18.11,11.10 18.60,8.10 19.08,5.09 19.11,5.02 19.14,4.95 19.19,4.88 19.23,4.82 19.30,4.76 19.36,4.71 19.43,4.68 19.50,4.64 19.58,4.62 19.65,4.60 19.73,4.61 19.81,4.61 19.89,4.63 19.97,4.65 20.04,4.69 20.11,4.72 20.17,4.78 20.22,4.83 20.27,4.90 20.31,4.96 20.34,5.04 20.37,5.11 20.38,5.19 20.38,5.27 20.37,5.35 20.36,5.43 20.18,6.74 19.99,8.04 19.19,11.12 18.38,14.20 17.22,18.44 16.07,22.68 14.48,28.17 12.88,33.65 11.01,38.26 9.13,42.87 6.54,46.93 3.95,51.00 1.80,52.04 -0.34,53.08 -2.26,50.78 -4.17,48.48 -4.67,44.31 -5.17,40.14 -5.19,34.19 -5.20,28.25 -4.85,22.95 -4.49,17.66 -4.01,12.73 -3.52,7.80 -3.11,4.85 -2.70,1.90 -2.30,0.47 -1.90,-0.96 -1.38,-1.18 -0.87,-1.41 -0.13,-1.00 0.59,-0.59 0.66,-0.51 0.72,-0.43 0.76,-0.34 0.80,-0.25 0.82,-0.15 0.84,-0.05 0.83,0.05 0.83,0.15 0.80,0.25 0.77,0.34 0.72,0.43 0.66,0.52 0.59,0.59 0.52,0.66 0.43,0.72 0.34,0.77 0.25,0.80 0.15,0.83 0.05,0.83 -0.05,0.84 -0.15,0.82 -0.25,0.80 -0.34,0.76 -0.43,0.72 -0.51,0.66 -0.59,0.59 -0.59,0.59 L -0.59,0.59 Z"/></g><g transform="translate(61.111083984375 26.666671752929688) rotate(0 13.611129760742188 15.833335876464844)" stroke="none"><path fill="#1e1e1e" d="M 0.77,0.12 Q 0.77,0.12 0.62,1.08 0.46,2.04 0.22,3.87 -0.02,5.69 -0.29,9.81 -0.55,13.92 -0.99,19.52 -1.43,25.12 -1.62,30.51 -1.81,35.91 -1.65,39.00 -1.50,42.10 -0.85,42.59 -0.20,43.08 0.95,41.75 2.10,40.42 3.86,37.35 5.63,34.29 7.35,31.05 9.08,27.82 10.13,25.80 11.19,23.78 11.58,23.22 11.98,22.65 12.03,22.58 12.08,22.50 12.15,22.44 12.22,22.37 12.31,22.33 12.39,22.29 12.48,22.26 12.57,22.24 12.66,22.24 12.76,22.24 12.85,22.26 12.94,22.29 13.02,22.33 13.11,22.37 13.18,22.43 13.25,22.50 13.30,22.57 13.35,22.65 13.39,22.74 13.42,22.83 13.43,22.92 13.44,23.01 13.43,23.10 13.42,23.20 13.39,23.29 13.36,23.37 12.70,24.70 12.05,26.02 10.50,28.86 8.96,31.70 7.34,34.50 5.73,37.30 3.74,39.96 1.76,42.62 0.33,44.12 -1.08,45.61 -2.27,45.60 -3.46,45.59 -4.04,44.81 -4.62,44.03 -4.47,42.73 -4.32,41.43 -3.70,40.49 -3.08,39.54 -2.15,39.06 -1.22,38.58 -0.04,38.92 1.13,39.27 2.45,40.47 3.76,41.67 5.08,43.13 6.39,44.60 7.65,45.47 8.90,46.34 10.18,46.41 11.46,46.48 12.89,44.84 14.32,43.19 15.59,40.47 16.86,37.75 18.05,33.88 19.24,30.02 20.23,25.83 21.21,21.63 21.79,18.26 22.37,14.89 22.61,12.20 22.86,9.51 23.13,7.70 23.39,5.88 23.51,4.80 23.62,3.72 23.64,3.64 23.66,3.57 23.70,3.50 23.74,3.43 23.79,3.37 23.85,3.31 23.91,3.27 23.98,3.22 24.06,3.20 24.13,3.17 24.21,3.16 24.29,3.16 24.37,3.17 24.45,3.18 24.52,3.21 24.60,3.24 24.66,3.29 24.72,3.33 24.78,3.39 24.83,3.46 24.86,3.53 24.90,3.60 24.91,3.68 24.93,3.75 24.93,3.83 24.93,3.91 25.32,5.42 25.71,6.93 26.02,10.20 26.33,13.48 26.61,18.22 26.90,22.96 27.18,27.05 27.46,31.13 27.90,34.44 28.33,37.75 29.16,39.65 29.99,41.55 29.99,41.63 29.99,41.71 29.97,41.79 29.95,41.86 29.91,41.94 29.88,42.01 29.83,42.07 29.77,42.13 29.71,42.17 29.64,42.22 29.57,42.25 29.49,42.28 29.42,42.29 29.34,42.30 29.26,42.29 29.18,42.28 29.10,42.25 29.03,42.22 28.96,42.18 28.90,42.14 28.84,42.08 28.79,42.02 28.75,41.95 28.71,41.88 28.69,41.80 28.67,41.72 29.38,40.42 30.09,39.13 30.02,37.05 29.94,34.97 28.98,31.88 28.03,28.78 25.87,24.28 23.72,19.78 21.36,14.65 19.00,9.52 17.03,4.61 15.06,-0.29 14.06,-3.84 13.05,-7.40 12.78,-10.09 12.52,-12.78 13.43,-14.19 14.35,-15.60 16.22,-14.97 18.08,-14.34 20.21,-12.92 22.33,-11.49 25.64,-8.81 28.96,-6.12 29.03,-6.05 29.10,-5.97 29.14,-5.87 29.18,-5.77 29.19,-5.66 29.20,-5.56 29.17,-5.46 29.15,-5.35 29.09,-5.26 29.03,-5.17 28.95,-5.11 28.87,-5.04 28.77,-5.00 28.67,-4.97 28.56,-4.97 28.45,-4.96 28.35,-5.00 28.25,-5.03 28.16,-5.09 28.08,-5.15 28.02,-5.24 27.95,-5.32 27.92,-5.43 27.89,-5.53 27.90,-5.63 27.90,-5.74 27.94,-5.84 27.97,-5.94 28.04,-6.02 28.11,-6.10 28.20,-6.16 28.29,-6.22 28.39,-6.24 28.49,-6.27 28.60,-6.26 28.70,-6.25 28.80,-6.21 28.90,-6.17 28.98,-6.09 29.06,-6.02 29.11,-5.93 29.16,-5.84 29.18,-5.73 29.20,-5.63 29.19,-5.52 29.17,-5.42 29.12,-5.32 29.08,-5.23 29.00,-5.15 28.93,-5.08 28.83,-5.03 28.73,-4.99 28.63,-4.97 28.52,-4.96 28.42,-4.98 28.32,-5.00 28.22,-5.05 28.13,-5.10 28.13,-5.10 28.13,-5.10 24.86,-7.75 21.59,-10.40 19.61,-11.76 17.63,-13.11 15.86,-13.77 14.08,-14.44 13.94,-13.62 13.81,-12.81 14.06,-10.28 14.32,-7.75 15.30,-4.27 16.28,-0.78 18.24,4.09 20.19,8.97 22.55,14.09 24.91,19.21 27.10,23.80 29.29,28.40 30.27,31.67 31.26,34.94 31.26,37.32 31.25,39.70 30.62,40.63 29.99,41.55 29.99,41.63 29.99,41.71 29.97,41.79 29.95,41.86 29.91,41.94 29.88,42.01 29.83,42.07 29.77,42.13 29.71,42.17 29.64,42.22 29.57,42.25 29.49,42.28 29.42,42.29 29.34,42.30 29.26,42.29 29.18,42.28 29.10,42.25 29.03,42.22 28.96,42.18 28.90,42.14 28.84,42.08 28.79,42.02 28.75,41.95 28.71,41.88 28.69,41.80 28.67,41.72 27.85,39.83 27.02,37.94 26.58,34.58 26.14,31.22 25.85,27.13 25.57,23.04 25.28,18.32 24.99,13.60 24.69,10.41 24.38,7.21 24.00,5.46 23.62,3.72 23.64,3.64 23.66,3.57 23.70,3.50 23.74,3.43 23.79,3.37 23.85,3.31 23.91,3.27 23.98,3.22 24.06,3.20 24.13,3.17 24.21,3.16 24.29,3.16 24.37,3.17 24.45,3.18 24.52,3.21 24.60,3.24 24.66,3.29 24.72,3.33 24.78,3.39 24.83,3.46 24.86,3.53 24.90,3.60 24.91,3.68 24.93,3.75 24.93,3.83 24.93,3.91 24.82,5.00 24.70,6.08 24.44,7.85 24.18,9.63 23.93,12.37 23.68,15.12 23.10,18.53 22.52,21.94 21.53,26.18 20.53,30.42 19.32,34.37 18.10,38.33 16.73,41.22 15.35,44.12 13.56,45.93 11.78,47.74 9.99,47.66 8.19,47.58 6.74,46.60 5.29,45.62 3.99,44.23 2.69,42.84 1.60,41.83 0.52,40.83 -0.67,40.68 -1.86,40.53 -2.34,41.13 -2.81,41.74 -2.98,42.59 -3.15,43.44 -2.99,43.96 -2.83,44.48 -2.26,44.53 -1.70,44.58 -0.49,43.20 0.70,41.83 2.64,39.24 4.58,36.65 6.19,33.86 7.80,31.07 9.32,28.28 10.85,25.48 11.41,24.07 11.98,22.65 12.03,22.58 12.08,22.50 12.15,22.44 12.22,22.37 12.31,22.33 12.39,22.29 12.48,22.26 12.57,22.24 12.66,22.24 12.76,22.24 12.85,22.26 12.94,22.29 13.02,22.33 13.11,22.37 13.18,22.43 13.25,22.50 13.30,22.57 13.35,22.65 13.39,22.74 13.42,22.83 13.43,22.92 13.44,23.01 13.43,23.10 13.42,23.20 13.39,23.29 13.36,23.37 12.86,23.89 12.36,24.40 11.30,26.42 10.25,28.44 8.52,31.70 6.79,34.95 4.94,38.14 3.09,41.33 1.74,42.70 0.39,44.07 -1.07,43.38 -2.54,42.70 -2.87,39.28 -3.20,35.86 -3.02,30.43 -2.85,25.01 -2.43,19.42 -2.01,13.83 -1.77,9.67 -1.52,5.51 -1.31,3.64 -1.10,1.78 -0.94,0.82 -0.77,-0.12 -0.75,-0.22 -0.72,-0.31 -0.67,-0.39 -0.62,-0.47 -0.56,-0.54 -0.49,-0.61 -0.41,-0.66 -0.33,-0.71 -0.24,-0.74 -0.15,-0.77 -0.05,-0.78 0.03,-0.78 0.12,-0.77 0.22,-0.75 0.30,-0.71 0.39,-0.68 0.47,-0.62 0.54,-0.56 0.60,-0.49 0.66,-0.41 0.70,-0.33 0.74,-0.24 0.76,-0.15 0.78,-0.06 0.78,0.03 0.77,0.12 0.77,0.12 L 0.77,0.12 Z"/></g><g transform="translate(104.44442749023438 54.44444274902344) rotate(0 2.22222900390625 8.611129760742188)" stroke="none"><path fill="#1e1e1e" d="M -0.13,0.80 Q -0.13,0.80 -1.08,0.64 -2.04,0.48 -2.81,0.59 -3.59,0.70 -4.30,1.02 -5.02,1.33 -5.72,2.30 -6.43,3.26 -6.91,5.04 -7.38,6.82 -7.60,8.84 -7.83,10.86 -7.47,12.58 -7.11,14.30 -6.73,15.05 -6.35,15.80 -5.15,15.08 -3.95,14.37 -2.86,12.58 -1.78,10.78 -0.98,8.29 -0.19,5.80 0.14,3.96 0.49,2.11 0.48,0.99 0.47,-0.12 0.49,-0.20 0.52,-0.28 0.56,-0.35 0.60,-0.41 0.66,-0.47 0.71,-0.53 0.78,-0.57 0.85,-0.61 0.93,-0.63 1.00,-0.66 1.08,-0.66 1.16,-0.67 1.24,-0.65 1.32,-0.64 1.39,-0.60 1.47,-0.57 1.53,-0.52 1.59,-0.47 1.64,-0.41 1.69,-0.35 1.72,-0.27 1.76,-0.20 1.77,-0.12 1.79,-0.04 1.78,0.03 1.78,0.11 1.59,1.65 1.40,3.18 1.52,5.75 1.64,8.32 2.15,10.64 2.67,12.97 3.48,14.44 4.30,15.91 5.83,15.75 7.36,15.59 9.58,13.75 11.81,11.91 11.92,11.85 12.02,11.79 12.14,11.77 12.26,11.75 12.38,11.77 12.50,11.79 12.60,11.84 12.71,11.89 12.79,11.98 12.88,12.07 12.93,12.17 12.98,12.28 12.99,12.40 13.01,12.52 12.98,12.64 12.96,12.75 12.90,12.86 12.84,12.96 12.75,13.04 12.66,13.12 12.55,13.16 12.44,13.21 12.32,13.22 12.20,13.23 12.08,13.20 11.97,13.17 11.87,13.10 11.77,13.03 11.69,12.94 11.62,12.85 11.58,12.73 11.54,12.62 11.54,12.50 11.54,12.38 11.57,12.27 11.61,12.15 11.68,12.06 11.75,11.96 11.85,11.89 11.95,11.82 12.06,11.79 12.18,11.76 12.30,11.76 12.42,11.77 12.53,11.81 12.64,11.85 12.73,11.93 12.83,12.00 12.89,12.11 12.95,12.21 12.98,12.32 13.01,12.44 13.00,12.56 12.98,12.68 12.94,12.79 12.89,12.90 12.81,12.99 12.72,13.07 12.72,13.07 12.72,13.07 10.15,14.99 7.57,16.90 5.67,16.94 3.77,16.97 2.54,15.14 1.30,13.30 0.75,10.85 0.19,8.40 0.05,5.75 -0.08,3.10 0.19,1.48 0.47,-0.12 0.49,-0.20 0.52,-0.28 0.56,-0.35 0.60,-0.41 0.66,-0.47 0.71,-0.53 0.78,-0.57 0.85,-0.61 0.93,-0.63 1.00,-0.66 1.08,-0.66 1.16,-0.67 1.24,-0.65 1.32,-0.64 1.39,-0.60 1.47,-0.57 1.53,-0.52 1.59,-0.47 1.64,-0.41 1.69,-0.35 1.72,-0.27 1.76,-0.20 1.77,-0.12 1.79,-0.04 1.78,0.03 1.78,0.11 1.79,1.23 1.80,2.35 1.44,4.28 1.08,6.21 0.22,8.85 -0.62,11.50 -1.92,13.51 -3.22,15.51 -4.62,16.24 -6.02,16.96 -7.24,15.81 -8.47,14.67 -8.88,12.70 -9.29,10.73 -9.07,8.57 -8.86,6.42 -8.30,4.37 -7.73,2.33 -6.76,1.08 -5.78,-0.17 -4.78,-0.57 -3.78,-0.97 -2.78,-1.05 -1.78,-1.12 -0.82,-0.96 0.13,-0.80 0.22,-0.78 0.32,-0.75 0.40,-0.70 0.49,-0.65 0.56,-0.58 0.63,-0.51 0.68,-0.43 0.74,-0.34 0.77,-0.25 0.80,-0.16 0.81,-0.06 0.81,0.03 0.80,0.13 0.78,0.23 0.74,0.32 0.70,0.41 0.64,0.49 0.58,0.56 0.51,0.63 0.43,0.69 0.34,0.73 0.25,0.77 0.15,0.79 0.06,0.81 -0.03,0.81 -0.13,0.80 -0.13,0.80 L -0.13,0.80 Z"/></g><g transform="translate(122.22219848632812 52.77778625488281) rotate(0 10 19.72222137451172)" stroke="none"><path fill="#1e1e1e" d="M 0.12,0.77 Q 0.12,0.77 -0.82,0.94 -1.77,1.10 -2.89,1.60 -4.01,2.10 -4.94,2.76 -5.87,3.42 -6.87,4.76 -7.86,6.10 -8.76,7.92 -9.66,9.74 -10.03,12.04 -10.40,14.34 -10.27,16.52 -10.13,18.69 -9.65,19.45 -9.16,20.22 -7.31,19.19 -5.46,18.16 -2.97,14.47 -0.49,10.78 1.54,6.34 3.57,1.91 5.07,-3.77 6.56,-9.46 7.20,-14.88 7.83,-20.31 7.63,-24.01 7.42,-27.72 6.61,-29.80 5.81,-31.88 4.99,-32.28 4.17,-32.68 2.85,-31.16 1.53,-29.64 0.17,-25.89 -1.17,-22.14 -2.24,-17.66 -3.31,-13.18 -3.60,-7.65 -3.90,-2.12 -3.23,2.74 -2.56,7.61 -1.24,10.52 0.07,13.43 2.19,14.14 4.31,14.85 7.05,13.14 9.79,11.43 12.08,9.00 14.36,6.56 15.96,3.96 17.56,1.36 18.23,-0.63 18.89,-2.63 18.68,-3.55 18.47,-4.47 18.51,-4.55 18.54,-4.63 18.60,-4.69 18.65,-4.76 18.72,-4.81 18.79,-4.86 18.87,-4.90 18.95,-4.93 19.04,-4.95 19.13,-4.96 19.21,-4.95 19.30,-4.95 19.38,-4.92 19.46,-4.89 19.54,-4.85 19.61,-4.80 19.67,-4.74 19.73,-4.67 19.78,-4.60 19.82,-4.52 19.84,-4.44 19.87,-4.35 19.87,-4.27 19.87,-4.18 19.86,-4.10 19.84,-4.01 19.00,-3.41 18.15,-2.82 17.32,-0.86 16.49,1.08 15.78,3.67 15.07,6.26 14.77,9.56 14.47,12.86 14.77,15.11 15.08,17.36 15.79,18.05 16.50,18.75 17.82,17.68 19.13,16.62 20.78,13.70 22.42,10.78 23.94,7.45 25.46,4.13 26.53,1.82 27.60,-0.47 28.91,-0.48 30.21,-0.50 30.83,2.47 31.45,5.45 31.56,12.37 31.66,19.30 30.90,27.20 30.14,35.10 27.72,43.78 25.31,52.45 21.69,58.75 18.08,65.05 14.16,68.12 10.25,71.19 6.29,70.65 2.33,70.12 0.30,66.10 -1.71,62.08 -1.09,56.74 -0.47,51.40 4.80,44.27 10.08,37.15 12.30,34.18 14.52,31.21 14.60,31.14 14.67,31.06 14.77,31.02 14.87,30.97 14.97,30.96 15.08,30.95 15.18,30.97 15.29,30.99 15.38,31.05 15.47,31.10 15.54,31.18 15.61,31.26 15.65,31.36 15.69,31.46 15.70,31.57 15.70,31.67 15.68,31.78 15.65,31.88 15.59,31.97 15.53,32.06 15.45,32.12 15.36,32.19 15.26,32.22 15.16,32.26 15.05,32.26 14.95,32.26 14.84,32.23 14.74,32.19 14.66,32.13 14.57,32.06 14.51,31.98 14.45,31.89 14.42,31.79 14.39,31.68 14.40,31.58 14.40,31.47 14.44,31.37 14.48,31.27 14.55,31.19 14.62,31.11 14.71,31.05 14.80,31.00 14.90,30.97 15.01,30.95 15.11,30.96 15.22,30.97 15.32,31.01 15.41,31.06 15.49,31.13 15.57,31.20 15.62,31.30 15.67,31.39 15.69,31.50 15.71,31.60 15.69,31.71 15.67,31.81 15.62,31.91 15.58,32.00 15.58,32.00 15.58,32.00 13.36,34.97 11.14,37.94 5.97,44.79 0.80,51.64 0.15,56.63 -0.50,61.62 1.23,65.37 2.96,69.12 6.35,69.59 9.73,70.05 13.33,67.19 16.92,64.34 20.46,58.21 23.99,52.07 26.37,43.52 28.74,34.97 29.49,27.14 30.23,19.32 30.12,12.54 30.01,5.75 29.21,3.07 28.41,0.38 27.54,2.53 26.67,4.68 25.12,8.06 23.58,11.45 21.77,14.55 19.97,17.66 18.42,18.74 16.88,19.82 15.38,18.81 13.88,17.80 13.49,15.27 13.09,12.75 13.40,9.32 13.71,5.90 14.45,3.19 15.18,0.49 16.23,-1.74 17.29,-3.98 17.88,-4.22 18.47,-4.47 18.51,-4.55 18.54,-4.63 18.60,-4.69 18.65,-4.76 18.72,-4.81 18.79,-4.86 18.87,-4.90 18.95,-4.93 19.04,-4.95 19.13,-4.96 19.21,-4.95 19.30,-4.95 19.38,-4.92 19.46,-4.89 19.54,-4.85 19.61,-4.80 19.67,-4.74 19.73,-4.67 19.78,-4.60 19.82,-4.52 19.84,-4.44 19.87,-4.35 19.87,-4.27 19.87,-4.18 19.86,-4.10 19.84,-4.01 19.99,-3.16 20.15,-2.30 19.42,-0.13 18.69,2.04 17.00,4.75 15.32,7.46 12.89,10.01 10.47,12.55 7.37,14.30 4.27,16.05 1.69,15.12 -0.88,14.19 -2.37,11.00 -3.86,7.80 -4.53,2.80 -5.21,-2.18 -4.90,-7.83 -4.59,-13.49 -3.50,-18.04 -2.40,-22.59 -0.92,-26.55 0.55,-30.51 2.14,-32.10 3.74,-33.69 5.27,-33.15 6.80,-32.60 7.77,-30.20 8.73,-27.81 8.94,-23.99 9.14,-20.16 8.49,-14.64 7.84,-9.12 6.31,-3.33 4.77,2.46 2.69,6.99 0.60,11.53 -2.09,15.41 -4.78,19.30 -6.86,20.31 -8.93,21.33 -10.17,20.14 -11.41,18.95 -11.58,16.54 -11.75,14.12 -11.33,11.63 -10.91,9.14 -9.96,7.19 -9.00,5.25 -7.87,3.75 -6.74,2.25 -5.69,1.48 -4.64,0.72 -3.34,0.13 -2.05,-0.46 -1.09,-0.62 -0.12,-0.77 -0.03,-0.78 0.06,-0.78 0.15,-0.76 0.24,-0.74 0.33,-0.70 0.41,-0.66 0.49,-0.60 0.56,-0.54 0.62,-0.47 0.68,-0.39 0.71,-0.30 0.75,-0.22 0.77,-0.12 0.78,-0.03 0.78,0.05 0.77,0.15 0.74,0.24 0.71,0.33 0.66,0.41 0.61,0.49 0.54,0.56 0.47,0.62 0.39,0.67 0.31,0.72 0.22,0.75 0.12,0.77 0.12,0.77 L 0.12,0.77 Z"/></g><g transform="translate(216.66665649414062 60.55555725097656) rotate(0 9.166641235351562 8.055557250976562)" stroke="none"><path fill="#1e1e1e" d="M 0.76,0.57 Q 0.76,0.57 0.30,1.22 -0.16,1.86 -0.33,2.32 -0.50,2.78 -0.59,2.87 -0.68,2.96 -0.79,3.03 -0.90,3.10 -1.02,3.14 -1.15,3.18 -1.27,3.20 -1.40,3.21 -1.53,3.19 -1.66,3.16 -1.78,3.11 -1.90,3.06 -2.00,2.99 -2.10,2.91 -2.18,2.81 -2.27,2.71 -2.32,2.59 -2.38,2.48 -2.40,2.35 -2.43,2.22 -2.42,2.09 -2.42,1.96 -2.38,1.84 -2.35,1.72 -2.28,1.60 -2.22,1.49 -1.45,1.33 -0.69,1.17 -0.13,0.66 0.42,0.15 1.72,-1.00 3.01,-2.17 4.38,-3.46 5.75,-4.75 6.95,-6.22 8.14,-7.68 9.01,-8.66 9.88,-9.63 10.34,-9.91 10.80,-10.19 10.88,-10.26 10.96,-10.33 11.05,-10.38 11.14,-10.43 11.24,-10.45 11.34,-10.48 11.45,-10.48 11.55,-10.48 11.65,-10.46 11.75,-10.43 11.85,-10.39 11.94,-10.34 12.02,-10.27 12.10,-10.20 12.16,-10.12 12.22,-10.03 12.25,-9.94 12.29,-9.84 12.31,-9.74 12.32,-9.63 12.31,-9.53 12.30,-9.43 12.26,-9.33 12.22,-9.23 12.17,-9.15 12.11,-9.06 12.51,-8.11 12.91,-7.16 13.55,-4.01 14.18,-0.86 14.93,2.69 15.67,6.25 16.62,10.32 17.58,14.38 18.46,17.53 19.34,20.69 19.47,22.76 19.60,24.84 18.61,25.09 17.62,25.34 15.45,24.62 13.29,23.91 10.98,22.96 8.68,22.01 6.47,21.12 4.26,20.22 4.17,20.14 4.08,20.06 4.02,19.95 3.96,19.84 3.94,19.72 3.92,19.60 3.93,19.48 3.95,19.36 4.00,19.25 4.06,19.14 4.15,19.06 4.23,18.97 4.34,18.92 4.45,18.87 4.57,18.85 4.69,18.83 4.81,18.86 4.93,18.88 5.04,18.94 5.15,19.00 5.23,19.10 5.31,19.19 5.35,19.30 5.40,19.41 5.41,19.53 5.42,19.65 5.39,19.77 5.36,19.89 5.29,19.99 5.23,20.10 5.13,20.17 5.04,20.25 4.92,20.29 4.81,20.33 4.68,20.33 4.56,20.33 4.45,20.30 4.33,20.26 4.23,20.19 4.13,20.12 4.06,20.02 3.99,19.92 3.96,19.80 3.92,19.69 3.93,19.56 3.93,19.44 3.97,19.33 4.02,19.21 4.09,19.12 4.17,19.02 4.27,18.96 4.38,18.89 4.49,18.87 4.61,18.84 4.73,18.85 4.86,18.86 4.97,18.91 5.08,18.96 5.08,18.96 5.08,18.96 7.14,19.85 9.19,20.75 11.47,21.68 13.74,22.60 15.58,23.29 17.42,23.98 18.35,23.77 19.28,23.56 18.66,22.30 18.03,21.05 17.14,17.87 16.25,14.69 15.28,10.61 14.32,6.54 13.56,2.97 12.80,-0.58 12.16,-3.67 11.52,-6.76 11.16,-8.48 10.80,-10.19 10.88,-10.26 10.96,-10.33 11.05,-10.38 11.14,-10.43 11.24,-10.45 11.34,-10.48 11.45,-10.48 11.55,-10.48 11.65,-10.46 11.75,-10.43 11.85,-10.39 11.94,-10.34 12.02,-10.27 12.10,-10.20 12.16,-10.12 12.22,-10.03 12.25,-9.94 12.29,-9.84 12.31,-9.74 12.32,-9.63 12.31,-9.53 12.30,-9.43 12.26,-9.33 12.22,-9.23 12.17,-9.15 12.11,-9.06 11.54,-8.84 10.97,-8.62 10.17,-7.66 9.37,-6.70 8.14,-5.13 6.91,-3.56 5.58,-2.21 4.24,-0.86 2.94,0.41 1.63,1.70 0.56,2.24 -0.50,2.78 -0.59,2.87 -0.68,2.96 -0.79,3.03 -0.90,3.10 -1.02,3.14 -1.15,3.18 -1.27,3.20 -1.40,3.21 -1.53,3.19 -1.66,3.16 -1.78,3.11 -1.90,3.06 -2.00,2.99 -2.10,2.91 -2.18,2.81 -2.27,2.71 -2.32,2.59 -2.38,2.48 -2.40,2.35 -2.43,2.22 -2.42,2.09 -2.42,1.96 -2.38,1.84 -2.35,1.72 -2.28,1.60 -2.22,1.49 -1.98,1.09 -1.75,0.68 -1.26,0.05 -0.76,-0.57 -0.68,-0.65 -0.60,-0.74 -0.51,-0.80 -0.41,-0.86 -0.30,-0.90 -0.19,-0.94 -0.07,-0.95 0.03,-0.95 0.15,-0.94 0.26,-0.92 0.37,-0.87 0.47,-0.83 0.57,-0.76 0.66,-0.69 0.73,-0.60 0.81,-0.51 0.86,-0.40 0.91,-0.30 0.93,-0.19 0.95,-0.07 0.95,0.03 0.94,0.15 0.91,0.26 0.88,0.37 0.82,0.47 0.76,0.57 0.76,0.57 L 0.76,0.57 Z"/></g><g transform="translate(249.99996948242188 63.888885498046875) rotate(0 29.16668701171875 -5.833320617675781)" stroke="none"><path fill="#1e1e1e" d="M 0.74,0.24 Q 0.74,0.24 0.37,1.00 0.01,1.76 0.74,2.45 1.47,3.14 3.10,3.44 4.72,3.73 6.68,3.74 8.63,3.74 10.80,2.82 12.98,1.89 14.66,0.28 16.33,-1.32 17.02,-2.70 17.71,-4.08 17.39,-5.47 17.07,-6.87 16.11,-7.71 15.15,-8.54 12.94,-8.58 10.73,-8.62 8.58,-7.74 6.42,-6.85 4.27,-4.77 2.11,-2.69 0.57,-0.25 -0.97,2.19 -1.76,5.24 -2.56,8.29 -2.44,10.94 -2.31,13.60 -0.88,15.74 0.54,17.88 2.45,18.91 4.37,19.95 8.11,19.13 11.85,18.31 15.20,16.72 18.54,15.13 22.00,12.09 25.45,9.06 28.01,4.95 30.57,0.84 31.80,-3.09 33.04,-7.03 33.41,-11.70 33.78,-16.37 33.46,-20.73 33.14,-25.09 32.54,-27.87 31.94,-30.64 31.00,-31.85 30.06,-33.06 28.87,-30.14 27.68,-27.22 27.11,-23.06 26.54,-18.91 26.30,-14.11 26.05,-9.32 26.26,-3.79 26.47,1.74 27.81,5.91 29.14,10.09 30.94,11.74 32.73,13.40 35.65,12.55 38.57,11.69 41.69,9.31 44.82,6.94 47.44,4.34 50.05,1.74 51.49,0.16 52.92,-1.41 53.17,-1.81 53.42,-2.22 53.49,-2.28 53.56,-2.34 53.65,-2.38 53.73,-2.43 53.82,-2.45 53.92,-2.47 54.01,-2.47 54.11,-2.47 54.20,-2.44 54.29,-2.42 54.37,-2.37 54.46,-2.33 54.53,-2.27 54.60,-2.20 54.65,-2.12 54.70,-2.04 54.74,-1.96 54.77,-1.87 54.78,-1.77 54.79,-1.68 54.78,-1.58 54.77,-1.49 54.73,-1.40 54.70,-1.31 54.64,-1.24 54.59,-1.16 53.74,0.03 52.89,1.23 51.24,3.40 49.60,5.56 46.98,8.72 44.36,11.87 41.79,14.51 39.23,17.15 36.47,18.95 33.72,20.75 31.52,20.85 29.32,20.94 28.32,19.70 27.31,18.46 27.73,16.22 28.14,13.99 29.34,12.05 30.54,10.11 32.13,9.07 33.72,8.03 35.64,8.24 37.55,8.45 39.22,9.56 40.88,10.67 42.70,12.60 44.52,14.53 46.40,16.62 48.27,18.70 50.26,20.00 52.25,21.31 53.89,21.38 55.52,21.45 58.29,19.07 61.06,16.68 61.15,16.62 61.24,16.57 61.35,16.55 61.45,16.53 61.56,16.54 61.66,16.55 61.76,16.60 61.85,16.64 61.93,16.72 62.01,16.79 62.05,16.89 62.10,16.98 62.12,17.08 62.14,17.19 62.12,17.29 62.10,17.40 62.05,17.49 62.00,17.59 61.92,17.66 61.84,17.73 61.75,17.77 61.65,17.82 61.54,17.83 61.44,17.84 61.33,17.81 61.23,17.79 61.14,17.74 61.05,17.68 60.98,17.60 60.91,17.52 60.87,17.42 60.84,17.32 60.83,17.21 60.83,17.11 60.86,17.00 60.89,16.90 60.95,16.81 61.01,16.73 61.09,16.66 61.18,16.60 61.28,16.57 61.38,16.53 61.49,16.54 61.59,16.54 61.69,16.57 61.79,16.61 61.88,16.67 61.96,16.74 62.02,16.83 62.08,16.91 62.11,17.02 62.13,17.12 62.13,17.22 62.12,17.33 62.08,17.43 62.04,17.53 61.97,17.61 61.90,17.69 61.90,17.69 61.90,17.69 58.80,20.19 55.70,22.68 53.65,22.56 51.61,22.43 49.46,21.01 47.30,19.58 45.43,17.51 43.57,15.43 41.85,13.59 40.13,11.74 38.72,10.73 37.31,9.72 35.76,9.45 34.22,9.18 32.91,10.01 31.61,10.85 30.51,12.57 29.41,14.29 28.93,16.17 28.44,18.04 29.09,18.95 29.73,19.85 31.41,19.74 33.08,19.62 35.69,17.92 38.29,16.22 40.82,13.63 43.35,11.03 45.95,7.90 48.55,4.76 50.17,2.64 51.78,0.51 52.60,-0.85 53.42,-2.22 53.49,-2.28 53.56,-2.34 53.65,-2.38 53.73,-2.43 53.82,-2.45 53.92,-2.47 54.01,-2.47 54.11,-2.47 54.20,-2.44 54.29,-2.42 54.37,-2.37 54.46,-2.33 54.53,-2.27 54.60,-2.20 54.65,-2.12 54.70,-2.04 54.74,-1.96 54.77,-1.87 54.78,-1.77 54.79,-1.68 54.78,-1.58 54.77,-1.49 54.73,-1.40 54.70,-1.31 54.64,-1.24 54.59,-1.16 54.24,-0.84 53.90,-0.52 52.44,1.07 50.99,2.68 48.30,5.34 45.62,8.00 42.28,10.48 38.94,12.96 35.67,13.75 32.40,14.54 30.15,12.56 27.91,10.58 26.50,6.19 25.10,1.80 24.88,-3.79 24.66,-9.39 24.90,-14.24 25.13,-19.10 25.71,-23.37 26.28,-27.64 27.30,-30.85 28.32,-34.05 29.58,-34.03 30.84,-34.01 32.02,-32.49 33.20,-30.97 33.83,-28.08 34.45,-25.19 34.77,-20.73 35.09,-16.27 34.69,-11.46 34.30,-6.64 32.99,-2.55 31.68,1.53 29.00,5.78 26.32,10.04 22.72,13.17 19.11,16.31 15.62,17.95 12.12,19.59 8.03,20.36 3.95,21.13 1.72,19.89 -0.50,18.65 -2.05,16.20 -3.60,13.75 -3.72,10.86 -3.84,7.97 -2.96,4.73 -2.09,1.50 -0.44,-1.07 1.20,-3.64 3.55,-5.85 5.90,-8.06 8.32,-9.00 10.74,-9.94 13.30,-9.77 15.85,-9.60 17.08,-8.44 18.30,-7.27 18.62,-5.46 18.94,-3.66 18.11,-2.01 17.29,-0.35 15.41,1.39 13.54,3.15 11.10,4.14 8.67,5.14 6.55,5.14 4.43,5.14 2.48,4.69 0.53,4.23 -0.37,3.15 -1.28,2.07 -1.01,0.91 -0.74,-0.24 -0.70,-0.33 -0.66,-0.41 -0.60,-0.49 -0.54,-0.56 -0.46,-0.62 -0.39,-0.68 -0.30,-0.71 -0.21,-0.75 -0.12,-0.76 -0.03,-0.78 0.06,-0.77 0.15,-0.76 0.24,-0.73 0.33,-0.71 0.41,-0.65 0.49,-0.60 0.56,-0.54 0.62,-0.47 0.67,-0.39 0.72,-0.30 0.74,-0.21 0.77,-0.12 0.77,-0.03 0.78,0.06 0.76,0.15 0.74,0.24 0.74,0.24 L 0.74,0.24 Z"/></g><g transform="translate(319.9999694824219 66.11111450195312) rotate(0 10.277801513671875 11.944450378417969)" stroke="none"><path fill="#1e1e1e" d="M 0.68,0.40 Q 0.68,0.40 0.21,1.21 -0.25,2.01 -0.60,2.92 -0.95,3.82 -1.42,5.63 -1.90,7.44 -2.11,9.92 -2.31,12.40 -2.10,14.35 -1.88,16.29 -1.01,17.44 -0.14,18.58 1.40,18.44 2.95,18.31 4.51,17.52 6.08,16.73 7.67,15.16 9.27,13.59 10.29,12.43 11.31,11.28 11.86,10.91 12.41,10.53 12.48,10.47 12.55,10.41 12.64,10.36 12.72,10.32 12.81,10.30 12.90,10.27 13.00,10.27 13.09,10.27 13.18,10.30 13.27,10.32 13.36,10.36 13.44,10.41 13.51,10.47 13.58,10.53 13.64,10.61 13.69,10.68 13.73,10.77 13.76,10.86 13.77,10.95 13.78,11.05 13.77,11.14 13.76,11.24 13.73,11.32 13.69,11.41 13.64,11.49 13.59,11.57 13.90,12.01 14.22,12.46 14.49,14.13 14.76,15.81 15.17,17.74 15.58,19.68 16.40,20.66 17.22,21.64 17.99,21.64 18.75,21.64 19.84,19.98 20.93,18.31 21.58,16.22 22.22,14.13 22.51,11.51 22.79,8.90 22.44,6.89 22.09,4.89 21.65,4.03 21.21,3.17 19.77,3.54 18.32,3.91 18.21,3.94 18.09,3.96 17.97,3.95 17.85,3.93 17.74,3.88 17.63,3.83 17.55,3.74 17.46,3.66 17.40,3.55 17.35,3.45 17.33,3.33 17.31,3.21 17.34,3.09 17.36,2.97 17.41,2.87 17.47,2.76 17.56,2.68 17.65,2.60 17.76,2.55 17.87,2.50 17.99,2.49 18.11,2.48 18.23,2.51 18.34,2.53 18.44,2.60 18.55,2.66 18.62,2.75 18.70,2.85 18.74,2.96 18.79,3.07 18.79,3.19 18.80,3.31 18.76,3.43 18.73,3.54 18.66,3.64 18.59,3.74 18.49,3.81 18.40,3.88 18.28,3.92 18.17,3.95 18.05,3.95 17.93,3.95 17.81,3.91 17.70,3.87 17.61,3.80 17.51,3.72 17.44,3.62 17.38,3.52 17.35,3.41 17.32,3.29 17.33,3.17 17.33,3.05 17.38,2.94 17.43,2.83 17.51,2.74 17.58,2.65 17.69,2.59 17.79,2.53 17.79,2.53 17.79,2.53 19.77,2.34 21.75,2.16 22.57,3.40 23.39,4.64 23.75,6.83 24.11,9.03 23.81,11.78 23.50,14.53 22.77,16.81 22.04,19.08 20.63,20.92 19.22,22.76 17.88,22.73 16.53,22.71 15.38,21.38 14.24,20.05 13.79,18.05 13.33,16.05 13.06,14.47 12.80,12.90 12.60,11.72 12.41,10.53 12.48,10.47 12.55,10.41 12.64,10.36 12.72,10.32 12.81,10.30 12.90,10.27 13.00,10.27 13.09,10.27 13.18,10.30 13.27,10.32 13.36,10.36 13.44,10.41 13.51,10.47 13.58,10.53 13.64,10.61 13.69,10.68 13.73,10.77 13.76,10.86 13.77,10.95 13.78,11.05 13.77,11.14 13.76,11.24 13.73,11.32 13.69,11.41 13.64,11.49 13.59,11.57 12.94,11.87 12.29,12.18 11.25,13.36 10.20,14.55 8.45,16.24 6.69,17.93 4.87,18.79 3.05,19.66 1.14,19.66 -0.76,19.65 -2.00,18.10 -3.24,16.56 -3.50,14.42 -3.75,12.29 -3.55,9.68 -3.35,7.07 -2.88,5.17 -2.41,3.28 -2.03,2.23 -1.65,1.17 -1.17,0.38 -0.68,-0.40 -0.62,-0.48 -0.56,-0.55 -0.48,-0.61 -0.41,-0.67 -0.32,-0.71 -0.23,-0.75 -0.14,-0.77 -0.05,-0.79 0.04,-0.78 0.14,-0.78 0.23,-0.75 0.32,-0.72 0.40,-0.67 0.48,-0.62 0.55,-0.55 0.62,-0.49 0.67,-0.40 0.72,-0.32 0.75,-0.23 0.78,-0.14 0.78,-0.05 0.79,0.04 0.77,0.13 0.75,0.23 0.71,0.32 0.68,0.40 0.68,0.40 L 0.68,0.40 Z"/></g><g transform="translate(350.5555114746094 68.33335876464844) rotate(0 10.27777099609375 8.0555419921875)" stroke="none"><path fill="#1e1e1e" d="M 0.61,0.49 Q 0.61,0.49 -0.02,1.26 -0.66,2.04 -0.88,3.01 -1.10,3.98 -0.78,4.90 -0.45,5.83 0.68,6.64 1.83,7.45 3.33,7.65 4.84,7.84 7.00,7.17 9.16,6.49 10.99,4.98 12.82,3.47 13.90,2.07 14.99,0.67 15.27,-0.87 15.55,-2.43 14.76,-3.63 13.98,-4.83 12.95,-5.64 11.91,-6.44 10.33,-6.46 8.76,-6.48 7.21,-5.44 5.66,-4.39 4.38,-2.73 3.09,-1.06 2.08,1.81 1.07,4.70 0.80,8.11 0.52,11.53 1.18,14.18 1.85,16.84 3.49,18.84 5.13,20.84 7.12,21.50 9.11,22.16 11.78,21.05 14.44,19.93 17.67,17.26 20.89,14.58 20.99,14.53 21.08,14.47 21.18,14.45 21.29,14.43 21.39,14.44 21.50,14.46 21.59,14.50 21.69,14.55 21.77,14.62 21.84,14.70 21.89,14.79 21.94,14.89 21.95,14.99 21.97,15.10 21.95,15.20 21.93,15.31 21.88,15.40 21.83,15.49 21.75,15.56 21.67,15.64 21.58,15.68 21.48,15.72 21.37,15.73 21.27,15.74 21.16,15.72 21.06,15.69 20.97,15.64 20.88,15.58 20.81,15.50 20.74,15.42 20.71,15.32 20.67,15.22 20.66,15.11 20.66,15.00 20.69,14.90 20.72,14.80 20.78,14.71 20.84,14.63 20.93,14.56 21.01,14.50 21.11,14.47 21.22,14.44 21.32,14.44 21.43,14.44 21.53,14.48 21.63,14.51 21.71,14.58 21.80,14.64 21.85,14.73 21.91,14.82 21.94,14.92 21.97,15.03 21.96,15.13 21.95,15.24 21.91,15.34 21.87,15.43 21.80,15.51 21.73,15.59 21.73,15.59 21.73,15.59 18.33,18.37 14.94,21.15 11.92,22.27 8.90,23.40 6.55,22.56 4.20,21.73 2.40,19.46 0.59,17.20 -0.09,14.32 -0.78,11.44 -0.47,7.86 -0.16,4.27 0.94,1.20 2.04,-1.85 3.49,-3.67 4.93,-5.49 6.80,-6.62 8.67,-7.76 10.63,-7.65 12.58,-7.54 13.84,-6.53 15.10,-5.53 15.96,-3.97 16.81,-2.41 16.44,-0.49 16.07,1.43 14.87,2.97 13.67,4.51 11.63,6.14 9.58,7.77 7.14,8.49 4.69,9.20 2.88,8.90 1.06,8.60 -0.32,7.50 -1.72,6.40 -2.13,5.08 -2.53,3.76 -2.21,2.45 -1.89,1.14 -1.25,0.32 -0.61,-0.49 -0.54,-0.55 -0.47,-0.62 -0.39,-0.67 -0.31,-0.71 -0.22,-0.74 -0.13,-0.77 -0.03,-0.77 0.05,-0.78 0.14,-0.76 0.24,-0.74 0.32,-0.70 0.41,-0.66 0.48,-0.60 0.56,-0.54 0.61,-0.47 0.67,-0.39 0.71,-0.31 0.75,-0.22 0.76,-0.13 0.78,-0.03 0.77,0.05 0.77,0.14 0.74,0.23 0.71,0.32 0.66,0.40 0.61,0.49 0.61,0.49 L 0.61,0.49 Z"/></g><g transform="translate(375.5555114746094 87.22221374511719) rotate(0 13.055572509765625 -6.38885498046875)" stroke="none"><path fill="#1e1e1e" d="M -0.65,-0.43 Q -0.65,-0.43 -0.00,-1.38 0.65,-2.33 1.87,-4.46 3.10,-6.60 4.27,-8.78 5.43,-10.97 6.76,-12.74 8.09,-14.52 9.66,-15.25 11.23,-15.98 11.85,-15.15 12.48,-14.32 12.62,-12.54 12.77,-10.76 12.64,-7.96 12.52,-5.16 12.31,-2.70 12.09,-0.23 12.00,1.58 11.91,3.41 12.09,3.88 12.28,4.35 12.26,4.44 12.24,4.54 12.21,4.63 12.17,4.71 12.11,4.79 12.05,4.87 11.98,4.93 11.90,4.99 11.81,5.03 11.73,5.07 11.63,5.09 11.54,5.10 11.44,5.10 11.35,5.10 11.26,5.07 11.16,5.04 11.08,4.99 11.00,4.94 10.93,4.88 10.86,4.81 10.81,4.73 10.76,4.65 10.73,4.55 10.70,4.46 10.69,4.37 10.69,4.27 11.49,3.03 12.30,1.79 13.37,-0.54 14.44,-2.87 15.70,-5.79 16.97,-8.71 18.15,-10.94 19.34,-13.16 20.50,-14.93 21.66,-16.69 22.86,-17.35 24.06,-18.01 25.00,-17.25 25.94,-16.48 26.38,-14.59 26.81,-12.70 26.80,-9.82 26.79,-6.93 26.63,-4.28 26.46,-1.63 26.60,-0.43 26.73,0.76 26.72,0.85 26.70,0.93 26.67,1.01 26.63,1.09 26.58,1.16 26.52,1.23 26.45,1.28 26.39,1.33 26.31,1.37 26.23,1.41 26.14,1.42 26.06,1.44 25.97,1.43 25.88,1.43 25.80,1.40 25.72,1.37 25.64,1.33 25.57,1.28 25.51,1.22 25.44,1.16 25.40,1.09 25.36,1.01 25.33,0.93 25.30,0.84 25.30,0.76 25.29,0.67 25.41,0.43 25.53,0.18 25.63,0.12 25.73,0.05 25.84,0.03 25.95,0.00 26.07,0.01 26.18,0.02 26.29,0.06 26.40,0.11 26.49,0.18 26.57,0.26 26.63,0.36 26.69,0.46 26.71,0.58 26.73,0.69 26.72,0.81 26.70,0.92 26.65,1.03 26.60,1.13 26.52,1.22 26.44,1.30 26.33,1.35 26.23,1.40 26.11,1.42 26.00,1.44 25.88,1.42 25.77,1.39 25.67,1.34 25.56,1.28 25.49,1.19 25.41,1.11 25.36,1.00 25.31,0.89 25.30,0.78 25.29,0.66 25.32,0.55 25.35,0.43 25.41,0.34 25.47,0.24 25.57,0.16 25.66,0.09 25.77,0.05 25.87,0.01 25.99,0.00 26.11,0.00 26.22,0.03 26.33,0.07 26.43,0.14 26.52,0.20 26.59,0.30 26.66,0.39 26.69,0.50 26.73,0.62 26.73,0.73 26.72,0.85 26.68,0.96 26.64,1.07 26.69,0.91 26.73,0.76 26.72,0.85 26.70,0.93 26.67,1.01 26.63,1.09 26.58,1.16 26.52,1.23 26.45,1.28 26.39,1.33 26.31,1.37 26.23,1.41 26.14,1.42 26.06,1.44 25.97,1.43 25.88,1.43 25.80,1.40 25.72,1.37 25.64,1.33 25.57,1.28 25.51,1.22 25.45,1.16 25.40,1.09 25.36,1.01 25.33,0.93 25.30,0.84 25.30,0.76 25.29,0.67 25.21,-0.51 25.13,-1.71 25.29,-4.32 25.45,-6.94 25.47,-9.69 25.48,-12.44 25.22,-14.03 24.95,-15.61 24.25,-16.28 23.55,-16.94 23.15,-16.44 22.74,-15.95 21.62,-14.24 20.51,-12.54 19.34,-10.36 18.18,-8.18 16.92,-5.25 15.65,-2.32 14.54,0.09 13.42,2.51 12.85,3.43 12.28,4.35 12.26,4.44 12.24,4.54 12.21,4.63 12.17,4.71 12.11,4.79 12.05,4.87 11.98,4.93 11.90,4.99 11.81,5.03 11.73,5.07 11.63,5.09 11.54,5.10 11.44,5.10 11.35,5.10 11.26,5.07 11.16,5.04 11.08,4.99 11.00,4.94 10.93,4.88 10.86,4.81 10.81,4.73 10.76,4.65 10.73,4.55 10.70,4.46 10.69,4.37 10.69,4.27 10.63,3.82 10.57,3.36 10.66,1.50 10.74,-0.35 10.95,-2.78 11.16,-5.22 11.27,-7.95 11.39,-10.68 11.35,-12.14 11.30,-13.61 10.73,-14.38 10.16,-15.16 9.68,-14.42 9.19,-13.68 7.94,-11.99 6.68,-10.30 5.52,-8.09 4.37,-5.88 3.13,-3.69 1.90,-1.49 1.28,-0.52 0.65,0.43 0.59,0.51 0.53,0.58 0.45,0.63 0.37,0.69 0.29,0.72 0.20,0.76 0.10,0.77 0.01,0.79 -0.08,0.78 -0.17,0.77 -0.26,0.73 -0.35,0.70 -0.43,0.65 -0.51,0.60 -0.57,0.53 -0.64,0.45 -0.68,0.37 -0.73,0.29 -0.75,0.20 -0.78,0.10 -0.78,0.01 -0.78,-0.08 -0.76,-0.17 -0.74,-0.26 -0.70,-0.35 -0.65,-0.43 -0.65,-0.43 L -0.65,-0.43 Z"/></g><g transform="translate(426.6666564941406 68.88888549804688) rotate(0 -4.4444580078125 11.111129760742188)" stroke="none"><path fill="#1e1e1e" d="M -0.20,0.81 Q -0.20,0.81 -0.84,0.70 -1.48,0.58 -2.07,0.70 -2.66,0.83 -3.55,0.99 -4.45,1.15 -5.49,2.07 -6.53,2.99 -7.80,4.77 -9.06,6.55 -9.74,8.67 -10.43,10.79 -10.25,13.36 -10.08,15.93 -9.31,17.71 -8.53,19.49 -7.00,20.05 -5.46,20.60 -3.44,19.16 -1.42,17.71 0.29,16.12 2.01,14.54 2.12,14.47 2.23,14.40 2.36,14.37 2.48,14.34 2.61,14.35 2.74,14.36 2.86,14.42 2.97,14.47 3.07,14.55 3.16,14.64 3.23,14.75 3.29,14.87 3.31,14.99 3.33,15.12 3.32,15.25 3.30,15.37 3.24,15.49 3.18,15.60 3.09,15.69 3.00,15.78 2.88,15.84 2.76,15.90 2.64,15.91 2.51,15.93 2.38,15.90 2.26,15.88 2.15,15.81 2.03,15.75 1.95,15.65 1.86,15.56 1.81,15.44 1.76,15.32 1.76,15.19 1.75,15.06 1.78,14.94 1.81,14.81 1.88,14.70 1.95,14.60 2.05,14.52 2.15,14.44 2.28,14.39 2.40,14.35 2.53,14.35 2.65,14.35 2.78,14.39 2.90,14.42 3.00,14.50 3.11,14.58 3.18,14.68 3.25,14.79 3.29,14.91 3.33,15.03 3.32,15.16 3.32,15.29 3.27,15.41 3.23,15.53 3.15,15.63 3.06,15.73 3.06,15.73 3.06,15.73 1.20,17.29 -0.65,18.85 -3.04,20.35 -5.43,21.85 -7.51,21.07 -9.59,20.30 -10.57,18.18 -11.54,16.06 -11.71,13.21 -11.89,10.36 -11.14,8.01 -10.39,5.65 -9.03,3.67 -7.67,1.70 -6.30,0.53 -4.93,-0.62 -3.91,-0.86 -2.89,-1.10 -1.98,-1.16 -1.07,-1.22 -0.43,-1.01 0.20,-0.81 0.29,-0.78 0.39,-0.74 0.47,-0.68 0.56,-0.62 0.62,-0.55 0.69,-0.47 0.74,-0.38 0.78,-0.29 0.81,-0.19 0.83,-0.09 0.83,0.00 0.83,0.10 0.81,0.20 0.78,0.30 0.73,0.39 0.69,0.48 0.62,0.55 0.55,0.63 0.47,0.68 0.38,0.74 0.29,0.78 0.19,0.81 0.09,0.83 -0.00,0.84 -0.10,0.82 -0.20,0.81 -0.20,0.81 L -0.20,0.81 Z"/></g><g transform="translate(433.3332824707031 72.77778625488281) rotate(0 -8.88885498046875 33.33332824707031)" stroke="none"><path fill="#1e1e1e" d="M 0.41,0.69 Q 0.41,0.69 -0.37,1.18 -1.16,1.67 -1.76,2.17 -2.36,2.68 -2.89,3.43 -3.43,4.19 -3.82,5.09 -4.21,5.99 -4.07,7.35 -3.92,8.72 -3.42,9.64 -2.93,10.55 -2.02,10.48 -1.12,10.41 -0.01,9.67 1.08,8.93 2.34,7.38 3.61,5.84 4.67,4.66 5.73,3.48 6.29,3.11 6.85,2.74 6.92,2.68 6.99,2.62 7.08,2.57 7.16,2.53 7.25,2.51 7.34,2.49 7.44,2.49 7.53,2.49 7.63,2.51 7.72,2.53 7.80,2.58 7.89,2.62 7.96,2.69 8.03,2.75 8.08,2.83 8.14,2.91 8.17,3.00 8.20,3.09 8.21,3.18 8.22,3.27 8.21,3.37 8.20,3.46 8.16,3.55 8.13,3.64 8.08,3.72 8.02,3.80 8.34,4.24 8.67,4.69 8.62,7.54 8.57,10.40 8.22,15.26 7.87,20.11 7.08,26.18 6.29,32.25 5.31,38.51 4.33,44.76 2.94,49.53 1.56,54.31 -0.83,57.86 -3.23,61.41 -6.42,63.13 -9.61,64.86 -12.65,65.10 -15.69,65.34 -18.52,64.11 -21.34,62.89 -22.92,60.99 -24.50,59.08 -24.69,56.24 -24.89,53.40 -23.49,49.90 -22.08,46.39 -19.70,43.29 -17.31,40.18 -14.27,37.18 -11.23,34.17 -11.14,34.11 -11.06,34.05 -10.95,34.02 -10.85,33.99 -10.75,33.99 -10.64,33.99 -10.54,34.03 -10.44,34.07 -10.36,34.14 -10.28,34.20 -10.22,34.29 -10.16,34.38 -10.14,34.49 -10.11,34.59 -10.12,34.70 -10.13,34.80 -10.17,34.90 -10.22,35.00 -10.29,35.08 -10.36,35.15 -10.45,35.21 -10.54,35.26 -10.65,35.28 -10.75,35.30 -10.86,35.28 -10.96,35.27 -11.06,35.22 -11.15,35.17 -11.23,35.10 -11.30,35.02 -11.35,34.92 -11.40,34.83 -11.41,34.72 -11.42,34.62 -11.40,34.51 -11.38,34.41 -11.33,34.32 -11.28,34.22 -11.20,34.15 -11.12,34.08 -11.02,34.04 -10.92,34.00 -10.82,33.99 -10.71,33.98 -10.61,34.01 -10.50,34.04 -10.41,34.09 -10.32,34.15 -10.26,34.24 -10.19,34.32 -10.16,34.42 -10.12,34.52 -10.12,34.63 -10.12,34.73 -10.15,34.83 -10.18,34.94 -10.24,35.02 -10.31,35.11 -10.31,35.11 -10.31,35.11 -13.29,38.05 -16.27,40.99 -18.57,43.95 -20.87,46.90 -22.23,50.14 -23.58,53.39 -23.50,55.89 -23.42,58.40 -22.08,60.06 -20.75,61.72 -18.23,62.87 -15.72,64.03 -12.95,63.85 -10.19,63.66 -7.24,62.14 -4.29,60.61 -2.00,57.26 0.27,53.92 1.62,49.23 2.98,44.55 3.94,38.31 4.91,32.07 5.69,26.04 6.46,20.01 6.79,15.19 7.12,10.37 7.18,7.74 7.23,5.11 7.04,3.93 6.85,2.74 6.92,2.68 6.99,2.62 7.08,2.57 7.16,2.53 7.25,2.51 7.34,2.49 7.44,2.49 7.53,2.49 7.63,2.51 7.72,2.53 7.80,2.58 7.89,2.62 7.96,2.69 8.03,2.75 8.08,2.83 8.14,2.91 8.17,3.00 8.20,3.09 8.21,3.18 8.22,3.27 8.21,3.37 8.20,3.46 8.16,3.55 8.13,3.64 8.08,3.72 8.02,3.80 7.37,4.10 6.72,4.40 5.69,5.55 4.66,6.71 3.25,8.40 1.84,10.08 0.41,10.94 -1.00,11.79 -2.29,11.71 -3.58,11.63 -4.48,10.28 -5.38,8.92 -5.52,7.20 -5.66,5.48 -5.23,4.37 -4.79,3.25 -4.12,2.29 -3.46,1.32 -2.74,0.78 -2.02,0.24 -1.22,-0.22 -0.41,-0.69 -0.32,-0.73 -0.23,-0.77 -0.14,-0.79 -0.04,-0.81 0.05,-0.80 0.14,-0.79 0.24,-0.76 0.33,-0.74 0.41,-0.68 0.50,-0.63 0.57,-0.56 0.64,-0.49 0.69,-0.41 0.74,-0.33 0.77,-0.23 0.80,-0.14 0.80,-0.04 0.81,0.05 0.79,0.14 0.77,0.24 0.73,0.33 0.69,0.42 0.63,0.49 0.57,0.57 0.49,0.63 0.41,0.69 0.41,0.69 L 0.41,0.69 Z"/></g><g transform="translate(446.6666564941406 75.55555725097656) rotate(0 -3.61114501953125 32.5)" stroke="none"><path fill="#1e1e1e" d="M 0.69,-0.34 Q 0.69,-0.34 1.16,0.61 1.62,1.58 2.62,4.09 3.63,6.61 4.54,9.78 5.44,12.95 6.31,17.83 7.18,22.71 7.70,28.80 8.23,34.88 8.13,40.20 8.03,45.53 7.02,50.39 6.01,55.26 4.40,58.22 2.79,61.18 -0.10,62.50 -3.01,63.83 -5.96,63.06 -8.91,62.30 -11.02,60.28 -13.13,58.26 -13.88,55.20 -14.63,52.14 -13.63,49.16 -12.63,46.17 -9.93,42.77 -7.23,39.37 -7.15,39.30 -7.07,39.23 -6.98,39.19 -6.88,39.15 -6.77,39.14 -6.67,39.13 -6.56,39.16 -6.46,39.18 -6.37,39.24 -6.28,39.30 -6.21,39.38 -6.15,39.46 -6.11,39.56 -6.07,39.66 -6.07,39.77 -6.07,39.87 -6.10,39.98 -6.13,40.08 -6.19,40.16 -6.25,40.25 -6.34,40.31 -6.42,40.37 -6.53,40.41 -6.63,40.44 -6.73,40.43 -6.84,40.43 -6.94,40.40 -7.04,40.36 -7.12,40.29 -7.21,40.23 -7.26,40.14 -7.32,40.05 -7.35,39.94 -7.37,39.84 -7.37,39.73 -7.36,39.63 -7.31,39.53 -7.27,39.43 -7.20,39.35 -7.13,39.27 -7.04,39.22 -6.95,39.17 -6.84,39.15 -6.74,39.13 -6.63,39.14 -6.53,39.16 -6.43,39.20 -6.33,39.25 -6.26,39.33 -6.18,39.40 -6.14,39.50 -6.09,39.59 -6.07,39.70 -6.06,39.80 -6.08,39.91 -6.10,40.01 -6.15,40.10 -6.20,40.20 -6.20,40.20 -6.20,40.20 -8.80,43.41 -11.40,46.62 -12.38,49.29 -13.35,51.96 -12.75,54.69 -12.15,57.41 -10.32,59.24 -8.48,61.06 -5.91,61.83 -3.35,62.60 -0.79,61.51 1.76,60.42 3.23,57.70 4.71,54.97 5.70,50.24 6.68,45.50 6.78,40.25 6.87,35.00 6.34,28.97 5.82,22.95 4.95,18.15 4.09,13.34 3.19,10.24 2.29,7.15 1.29,4.70 0.28,2.25 -0.20,1.29 -0.69,0.34 -0.73,0.26 -0.76,0.17 -0.77,0.07 -0.78,-0.01 -0.76,-0.10 -0.75,-0.20 -0.71,-0.28 -0.68,-0.37 -0.62,-0.45 -0.57,-0.52 -0.50,-0.59 -0.43,-0.65 -0.34,-0.69 -0.26,-0.73 -0.17,-0.75 -0.07,-0.77 0.01,-0.77 0.10,-0.77 0.20,-0.74 0.29,-0.72 0.37,-0.67 0.45,-0.63 0.52,-0.57 0.59,-0.50 0.64,-0.42 0.69,-0.34 0.69,-0.34 L 0.69,-0.34 Z"/></g><g transform="translate(465.5555114746094 43.88890075683594) rotate(0 -3.611114501953125 3.0555572509765625)" stroke="none"><path fill="#1e1e1e" d="M 0.12,0.89 Q 0.12,0.89 -0.98,1.02 -2.10,1.14 -3.10,1.63 -4.10,2.11 -4.78,2.67 -5.46,3.22 -5.07,3.97 -4.68,4.72 -3.53,3.23 -2.37,1.75 -2.28,1.67 -2.19,1.58 -2.07,1.53 -1.96,1.48 -1.84,1.47 -1.71,1.46 -1.59,1.49 -1.47,1.52 -1.37,1.59 -1.26,1.65 -1.19,1.75 -1.11,1.85 -1.06,1.96 -1.02,2.08 -1.02,2.20 -1.01,2.33 -1.05,2.44 -1.09,2.56 -1.16,2.66 -1.23,2.76 -1.33,2.84 -1.43,2.91 -1.55,2.95 -1.67,2.98 -1.79,2.98 -1.91,2.98 -2.03,2.94 -2.15,2.89 -2.24,2.82 -2.34,2.74 -2.41,2.63 -2.47,2.53 -2.51,2.41 -2.54,2.29 -2.53,2.17 -2.52,2.04 -2.47,1.93 -2.42,1.82 -2.34,1.72 -2.25,1.63 -2.15,1.57 -2.04,1.51 -1.92,1.48 -1.80,1.46 -1.67,1.48 -1.55,1.49 -1.44,1.55 -1.33,1.60 -1.24,1.69 -1.15,1.78 -1.10,1.89 -1.04,2.00 -1.02,2.12 -1.01,2.24 -1.03,2.37 -1.05,2.49 -1.11,2.59 -1.17,2.70 -1.17,2.70 -1.17,2.70 -2.43,4.24 -3.68,5.77 -5.21,5.10 -6.74,4.43 -6.68,3.44 -6.63,2.44 -5.72,1.57 -4.81,0.70 -3.59,0.10 -2.36,-0.50 -1.24,-0.70 -0.12,-0.89 -0.01,-0.90 0.09,-0.90 0.19,-0.87 0.30,-0.85 0.40,-0.80 0.49,-0.75 0.58,-0.68 0.66,-0.61 0.73,-0.52 0.79,-0.43 0.83,-0.33 0.87,-0.23 0.89,-0.12 0.90,-0.01 0.89,0.08 0.88,0.19 0.84,0.30 0.81,0.40 0.75,0.49 0.69,0.58 0.61,0.66 0.53,0.73 0.43,0.78 0.33,0.84 0.23,0.86 0.12,0.89 0.12,0.89 L 0.12,0.89 Z"/></g><g transform="translate(462.7777404785156 92.22221374511719) rotate(0 12.22222900390625 -4.444427490234375)" stroke="none"><path fill="#1e1e1e" d="M -0.61,0.49 Q -0.61,0.49 -1.26,-0.37 -1.91,-1.23 -1.91,-2.88 -1.91,-4.54 -1.39,-6.51 -0.87,-8.49 0.18,-10.34 1.23,-12.18 2.73,-13.66 4.22,-15.14 5.72,-15.28 7.22,-15.43 8.40,-14.26 9.59,-13.10 10.24,-10.28 10.89,-7.45 11.15,-4.18 11.40,-0.92 11.51,1.41 11.61,3.75 11.82,4.90 12.02,6.04 12.01,6.12 12.01,6.20 11.98,6.28 11.96,6.36 11.92,6.42 11.87,6.49 11.82,6.55 11.76,6.60 11.69,6.64 11.62,6.68 11.54,6.70 11.47,6.73 11.39,6.73 11.31,6.73 11.23,6.72 11.15,6.70 11.08,6.67 11.01,6.64 10.95,6.59 10.88,6.54 10.84,6.47 10.79,6.41 10.76,6.34 10.72,6.26 10.71,6.18 10.70,6.10 11.11,5.25 11.53,4.40 12.33,2.89 13.14,1.38 14.46,-1.02 15.77,-3.43 16.97,-5.58 18.18,-7.72 19.57,-9.35 20.97,-10.98 22.39,-11.14 23.82,-11.30 24.54,-10.19 25.26,-9.07 25.55,-6.75 25.84,-4.43 25.79,-1.86 25.74,0.71 26.49,1.39 27.25,2.07 27.24,2.16 27.22,2.26 27.19,2.34 27.15,2.43 27.10,2.50 27.04,2.58 26.97,2.64 26.90,2.70 26.82,2.74 26.74,2.78 26.65,2.80 26.56,2.82 26.46,2.82 26.37,2.82 26.28,2.80 26.19,2.77 26.11,2.73 26.03,2.68 25.96,2.62 25.89,2.56 25.84,2.48 25.79,2.40 25.76,2.31 25.73,2.23 25.72,2.13 25.71,2.04 25.81,1.78 25.92,1.53 26.02,1.45 26.12,1.38 26.24,1.34 26.35,1.30 26.48,1.30 26.60,1.30 26.72,1.34 26.84,1.38 26.94,1.45 27.04,1.53 27.11,1.63 27.18,1.73 27.21,1.85 27.24,1.97 27.24,2.10 27.23,2.22 27.19,2.34 27.14,2.45 27.06,2.55 26.98,2.64 26.87,2.71 26.76,2.77 26.64,2.80 26.52,2.83 26.40,2.81 26.27,2.80 26.16,2.75 26.05,2.69 25.96,2.61 25.86,2.52 25.81,2.41 25.75,2.30 25.73,2.18 25.71,2.06 25.73,1.93 25.75,1.81 25.81,1.70 25.87,1.59 25.96,1.50 26.05,1.42 26.16,1.37 26.27,1.31 26.40,1.30 26.52,1.29 26.64,1.31 26.76,1.34 26.87,1.41 26.98,1.47 27.06,1.57 27.14,1.66 27.19,1.78 27.23,1.89 27.24,2.02 27.24,2.14 27.21,2.26 27.18,2.38 27.21,2.23 27.25,2.07 27.24,2.16 27.22,2.26 27.19,2.34 27.15,2.43 27.10,2.50 27.05,2.58 26.97,2.64 26.90,2.70 26.82,2.74 26.74,2.78 26.65,2.80 26.56,2.82 26.46,2.82 26.37,2.82 26.28,2.80 26.19,2.77 26.11,2.73 26.03,2.68 25.96,2.62 25.89,2.56 25.84,2.48 25.79,2.40 25.76,2.31 25.73,2.23 25.72,2.13 25.71,2.04 25.06,1.36 24.40,0.68 24.45,-1.79 24.51,-4.28 24.29,-6.36 24.07,-8.44 23.59,-9.41 23.12,-10.38 22.47,-10.18 21.83,-9.98 20.61,-8.51 19.40,-7.04 18.21,-4.90 17.03,-2.75 15.74,-0.34 14.45,2.07 13.63,3.65 12.82,5.23 12.42,5.64 12.02,6.04 12.01,6.12 12.01,6.20 11.98,6.28 11.96,6.36 11.92,6.42 11.87,6.49 11.82,6.55 11.76,6.60 11.69,6.64 11.62,6.68 11.55,6.70 11.47,6.73 11.39,6.73 11.31,6.73 11.23,6.72 11.15,6.70 11.08,6.67 11.01,6.64 10.95,6.59 10.88,6.54 10.84,6.47 10.79,6.41 10.76,6.34 10.72,6.26 10.71,6.18 10.70,6.10 10.49,4.96 10.29,3.81 10.18,1.49 10.07,-0.82 9.83,-3.99 9.59,-7.17 9.07,-9.72 8.56,-12.27 7.73,-13.26 6.91,-14.24 5.96,-14.16 5.00,-14.08 3.72,-12.78 2.44,-11.48 1.47,-9.80 0.50,-8.11 0.03,-6.30 -0.44,-4.48 -0.54,-3.22 -0.63,-1.95 -0.01,-1.22 0.61,-0.49 0.66,-0.40 0.71,-0.32 0.74,-0.23 0.77,-0.14 0.77,-0.05 0.78,0.03 0.76,0.13 0.75,0.22 0.71,0.31 0.67,0.39 0.61,0.47 0.56,0.54 0.48,0.60 0.41,0.66 0.32,0.70 0.24,0.74 0.14,0.76 0.05,0.78 -0.03,0.77 -0.13,0.77 -0.22,0.74 -0.31,0.71 -0.39,0.67 -0.47,0.62 -0.54,0.55 -0.61,0.49 -0.61,0.49 L -0.61,0.49 Z"/></g><g transform="translate(499.4444274902344 77.22221374511719) rotate(0 8.333282470703125 10.833351135253906)" stroke="none"><path fill="#1e1e1e" d="M 0.71,-0.30 Q 0.71,-0.30 1.18,0.81 1.64,1.94 2.11,2.84 2.57,3.74 3.58,4.18 4.58,4.62 5.69,4.38 6.79,4.14 7.84,3.16 8.88,2.18 9.64,0.70 10.40,-0.76 10.59,-1.84 10.79,-2.93 10.01,-3.62 9.22,-4.31 8.08,-4.45 6.94,-4.59 5.10,-3.60 3.27,-2.60 1.07,-0.16 -1.12,2.27 -2.84,5.97 -4.55,9.67 -4.97,13.23 -5.38,16.79 -3.88,19.75 -2.39,22.71 0.81,23.78 4.03,24.84 7.69,23.75 11.36,22.65 14.97,20.00 18.57,17.35 20.15,16.20 21.72,15.05 21.82,15.00 21.91,14.95 22.02,14.94 22.12,14.92 22.23,14.94 22.33,14.96 22.43,15.01 22.52,15.07 22.59,15.14 22.66,15.22 22.71,15.32 22.75,15.42 22.76,15.52 22.77,15.63 22.74,15.73 22.72,15.84 22.66,15.93 22.60,16.02 22.52,16.08 22.44,16.15 22.34,16.19 22.24,16.23 22.13,16.23 22.03,16.23 21.93,16.20 21.82,16.17 21.74,16.11 21.65,16.05 21.59,15.96 21.52,15.88 21.49,15.78 21.46,15.67 21.46,15.57 21.47,15.46 21.50,15.36 21.54,15.26 21.60,15.18 21.67,15.09 21.76,15.04 21.85,14.98 21.95,14.95 22.05,14.93 22.16,14.93 22.27,14.94 22.36,14.98 22.46,15.02 22.54,15.10 22.62,15.17 22.67,15.26 22.73,15.35 22.75,15.45 22.77,15.56 22.75,15.66 22.74,15.77 22.69,15.87 22.65,15.96 22.57,16.04 22.50,16.11 22.50,16.11 22.50,16.11 20.92,17.26 19.35,18.41 15.55,21.16 11.74,23.90 7.74,25.00 3.74,26.09 0.18,24.79 -3.36,23.48 -5.01,20.12 -6.66,16.75 -6.21,12.94 -5.75,9.13 -3.93,5.27 -2.10,1.40 0.26,-1.18 2.64,-3.76 4.82,-4.82 6.99,-5.88 8.51,-5.60 10.03,-5.32 11.00,-4.26 11.96,-3.20 11.78,-1.68 11.60,-0.15 10.70,1.50 9.81,3.17 8.47,4.31 7.13,5.45 5.64,5.68 4.14,5.92 2.78,5.23 1.43,4.54 0.85,3.53 0.27,2.53 -0.22,1.41 -0.71,0.30 -0.74,0.21 -0.77,0.12 -0.77,0.03 -0.77,-0.06 -0.76,-0.15 -0.74,-0.24 -0.70,-0.33 -0.66,-0.41 -0.60,-0.48 -0.54,-0.56 -0.46,-0.61 -0.39,-0.67 -0.30,-0.71 -0.21,-0.74 -0.12,-0.76 -0.03,-0.78 0.06,-0.77 0.15,-0.76 0.24,-0.73 0.33,-0.70 0.41,-0.65 0.49,-0.60 0.55,-0.53 0.62,-0.47 0.67,-0.38 0.71,-0.30 0.71,-0.30 L 0.71,-0.30 Z"/></g><g transform="translate(35.55555725097656 219.88890075683594) rotate(0 10.277778625488281 -19.444442749023438)" stroke="none"><path fill="#1e1e1e" d="M 0.80,0.16 Q 0.80,0.16 0.46,1.75 0.12,3.34 -0.58,4.61 -1.28,5.87 -1.81,5.71 -2.34,5.54 -2.74,4.26 -3.13,2.98 -3.40,-0.11 -3.67,-3.21 -3.62,-7.57 -3.56,-11.94 -3.22,-16.83 -2.87,-21.73 -2.07,-26.23 -1.28,-30.73 -0.46,-33.94 0.36,-37.14 1.71,-39.54 3.06,-41.94 4.87,-43.19 6.68,-44.44 8.85,-44.33 11.01,-44.22 12.94,-43.31 14.87,-42.40 17.02,-39.55 19.17,-36.69 20.56,-33.70 21.94,-30.71 22.69,-26.35 23.45,-21.99 23.61,-17.41 23.76,-12.83 23.51,-9.27 23.25,-5.71 22.64,-3.18 22.03,-0.65 20.78,0.40 19.52,1.45 17.94,0.69 16.35,-0.06 16.26,-0.14 16.16,-0.22 16.09,-0.33 16.02,-0.43 15.99,-0.56 15.96,-0.68 15.97,-0.81 15.98,-0.93 16.03,-1.05 16.08,-1.17 16.17,-1.26 16.26,-1.36 16.37,-1.42 16.48,-1.48 16.60,-1.50 16.73,-1.53 16.85,-1.51 16.98,-1.49 17.09,-1.43 17.21,-1.38 17.30,-1.29 17.39,-1.20 17.44,-1.08 17.50,-0.97 17.51,-0.84 17.53,-0.71 17.51,-0.59 17.48,-0.46 17.42,-0.35 17.35,-0.24 17.26,-0.16 17.16,-0.08 17.05,-0.03 16.93,0.01 16.80,0.02 16.68,0.03 16.55,0.00 16.43,-0.02 16.32,-0.09 16.22,-0.16 16.14,-0.26 16.06,-0.36 16.01,-0.48 15.97,-0.60 15.97,-0.72 15.97,-0.85 16.00,-0.97 16.04,-1.09 16.12,-1.20 16.19,-1.30 16.30,-1.37 16.40,-1.45 16.52,-1.48 16.64,-1.52 16.77,-1.52 16.90,-1.51 17.02,-1.47 17.14,-1.42 17.14,-1.42 17.14,-1.42 18.45,-0.52 19.76,0.37 20.28,-0.34 20.81,-1.05 21.37,-3.43 21.94,-5.81 22.19,-9.30 22.45,-12.79 22.30,-17.28 22.15,-21.77 21.44,-25.97 20.73,-30.17 19.42,-33.04 18.11,-35.91 16.17,-38.58 14.24,-41.25 12.56,-42.07 10.88,-42.89 9.06,-43.09 7.25,-43.28 5.72,-42.26 4.19,-41.23 2.94,-39.01 1.68,-36.79 0.88,-33.64 0.08,-30.49 -0.68,-26.06 -1.45,-21.63 -1.78,-16.78 -2.10,-11.92 -2.13,-7.64 -2.16,-3.35 -1.87,-0.37 -1.58,2.60 -1.38,3.55 -1.17,4.50 -1.28,3.77 -1.39,3.04 -1.10,1.44 -0.80,-0.16 -0.77,-0.25 -0.74,-0.34 -0.68,-0.43 -0.63,-0.51 -0.56,-0.58 -0.49,-0.65 -0.40,-0.70 -0.32,-0.75 -0.22,-0.77 -0.13,-0.80 -0.03,-0.81 0.06,-0.81 0.15,-0.79 0.25,-0.77 0.34,-0.73 0.43,-0.69 0.51,-0.63 0.58,-0.56 0.64,-0.49 0.70,-0.41 0.74,-0.32 0.78,-0.23 0.80,-0.13 0.81,-0.03 0.81,0.06 0.80,0.16 0.80,0.16 L 0.80,0.16 Z"/></g><g transform="translate(37.22222900390625 205.44444274902344) rotate(0 8.055545806884766 -1.388885498046875)" stroke="none"><path fill="#1e1e1e" d="M -0.11,-0.90 Q -0.11,-0.90 1.16,-1.03 2.45,-1.15 4.60,-1.36 6.75,-1.56 11.42,-2.58 16.09,-3.60 16.21,-3.61 16.33,-3.62 16.45,-3.59 16.57,-3.55 16.67,-3.48 16.77,-3.42 16.84,-3.32 16.92,-3.22 16.96,-3.11 17.00,-2.99 17.00,-2.87 17.00,-2.75 16.96,-2.63 16.92,-2.51 16.85,-2.42 16.77,-2.32 16.67,-2.25 16.57,-2.18 16.45,-2.15 16.34,-2.11 16.21,-2.12 16.09,-2.13 15.98,-2.17 15.86,-2.22 15.77,-2.30 15.68,-2.38 15.61,-2.48 15.55,-2.58 15.52,-2.70 15.50,-2.82 15.51,-2.95 15.52,-3.07 15.57,-3.18 15.62,-3.29 15.71,-3.38 15.79,-3.47 15.90,-3.52 16.01,-3.58 16.13,-3.60 16.25,-3.62 16.37,-3.60 16.49,-3.58 16.60,-3.53 16.71,-3.47 16.79,-3.38 16.88,-3.29 16.93,-3.18 16.98,-3.07 16.99,-2.95 17.01,-2.83 16.98,-2.71 16.95,-2.59 16.89,-2.48 16.83,-2.38 16.74,-2.30 16.64,-2.22 16.53,-2.17 16.42,-2.13 16.42,-2.13 16.42,-2.13 11.67,-1.05 6.92,0.01 4.79,0.26 2.66,0.51 1.38,0.71 0.11,0.90 0.00,0.90 -0.10,0.90 -0.21,0.88 -0.32,0.85 -0.41,0.80 -0.51,0.75 -0.59,0.68 -0.68,0.60 -0.74,0.51 -0.80,0.42 -0.84,0.32 -0.88,0.22 -0.90,0.11 -0.91,0.00 -0.90,-0.10 -0.88,-0.21 -0.84,-0.31 -0.81,-0.42 -0.74,-0.51 -0.68,-0.60 -0.60,-0.67 -0.52,-0.75 -0.42,-0.80 -0.32,-0.85 -0.22,-0.88 -0.11,-0.90 -0.11,-0.90 L -0.11,-0.90 Z"/></g><g transform="translate(76.66665649414062 199.3333282470703) rotate(0 16.94445037841797 1.3889007568359375)" stroke="none"><path fill="#1e1e1e" d="M 0.75,0.30 Q 0.75,0.30 0.46,1.11 0.16,1.91 -0.11,2.72 -0.39,3.53 -0.68,4.48 -0.98,5.44 -1.28,7.24 -1.57,9.04 -1.71,11.22 -1.84,13.41 -1.59,15.89 -1.33,18.38 -0.99,19.64 -0.65,20.90 0.02,21.21 0.70,21.53 1.58,20.79 2.46,20.05 3.62,17.91 4.78,15.76 6.10,12.76 7.42,9.76 8.13,7.55 8.84,5.33 9.31,3.90 9.78,2.47 9.77,2.16 9.76,1.85 9.80,1.77 9.84,1.68 9.90,1.61 9.96,1.54 10.03,1.48 10.10,1.43 10.19,1.39 10.27,1.35 10.37,1.34 10.46,1.32 10.55,1.33 10.64,1.34 10.73,1.37 10.82,1.39 10.90,1.44 10.97,1.49 11.04,1.56 11.10,1.63 11.15,1.70 11.20,1.78 11.22,1.87 11.25,1.96 11.25,2.05 11.26,2.15 11.24,2.24 11.22,2.33 11.06,3.25 10.89,4.18 10.50,6.21 10.11,8.25 9.79,10.37 9.47,12.49 9.49,14.62 9.52,16.75 9.95,18.34 10.39,19.93 11.97,19.11 13.56,18.28 15.04,15.68 16.52,13.08 18.13,9.26 19.74,5.44 21.06,1.74 22.39,-1.95 23.42,-6.05 24.46,-10.16 25.23,-13.35 25.99,-16.54 26.47,-19.47 26.95,-22.40 27.16,-24.43 27.36,-26.47 27.48,-27.71 27.59,-28.95 27.71,-29.08 27.83,-29.22 27.85,-29.31 27.87,-29.40 27.91,-29.48 27.95,-29.56 28.00,-29.64 28.06,-29.71 28.13,-29.76 28.21,-29.82 28.29,-29.85 28.38,-29.89 28.47,-29.91 28.56,-29.92 28.65,-29.92 28.74,-29.91 28.83,-29.88 28.91,-29.85 28.99,-29.80 29.07,-29.76 29.13,-29.69 29.20,-29.62 29.24,-29.54 29.29,-29.47 29.32,-29.38 29.34,-29.29 29.35,-29.20 29.35,-29.11 29.56,-28.35 29.78,-27.60 30.04,-25.91 30.30,-24.21 30.57,-21.25 30.84,-18.29 30.79,-13.81 30.74,-9.33 30.40,-3.75 30.06,1.81 29.75,6.73 29.45,11.65 29.16,16.30 28.86,20.95 28.90,24.17 28.94,27.40 29.05,28.79 29.16,30.19 30.07,29.99 30.99,29.79 32.07,27.73 33.15,25.67 34.32,21.46 35.49,17.26 35.54,17.16 35.58,17.06 35.66,16.98 35.73,16.91 35.83,16.86 35.92,16.81 36.03,16.79 36.13,16.77 36.24,16.79 36.35,16.81 36.44,16.86 36.54,16.91 36.61,16.99 36.68,17.06 36.73,17.16 36.77,17.26 36.79,17.37 36.80,17.47 36.77,17.58 36.75,17.68 36.69,17.78 36.64,17.87 36.56,17.94 36.47,18.01 36.37,18.05 36.27,18.09 36.17,18.09 36.06,18.10 35.96,18.07 35.85,18.04 35.76,17.98 35.67,17.92 35.61,17.83 35.54,17.75 35.51,17.64 35.48,17.54 35.48,17.43 35.48,17.33 35.51,17.22 35.55,17.12 35.61,17.04 35.68,16.95 35.77,16.89 35.86,16.83 35.96,16.80 36.06,16.77 36.17,16.78 36.28,16.79 36.38,16.83 36.48,16.87 36.56,16.94 36.64,17.01 36.70,17.10 36.75,17.19 36.77,17.30 36.80,17.40 36.79,17.51 36.77,17.62 36.77,17.62 36.77,17.62 35.55,21.96 34.32,26.31 32.95,28.60 31.57,30.89 30.47,31.16 29.37,31.43 28.49,29.43 27.61,27.42 27.57,24.14 27.53,20.86 27.82,16.22 28.11,11.57 28.41,6.65 28.71,1.73 29.04,-3.80 29.38,-9.35 29.42,-13.76 29.46,-18.16 29.18,-21.08 28.91,-23.99 28.65,-25.60 28.38,-27.21 28.11,-28.22 27.83,-29.22 27.85,-29.31 27.87,-29.40 27.91,-29.48 27.95,-29.56 28.00,-29.64 28.06,-29.71 28.13,-29.76 28.21,-29.82 28.29,-29.85 28.38,-29.89 28.47,-29.91 28.56,-29.92 28.65,-29.92 28.74,-29.91 28.83,-29.88 28.91,-29.85 28.99,-29.80 29.07,-29.76 29.13,-29.69 29.20,-29.62 29.24,-29.54 29.29,-29.47 29.32,-29.38 29.34,-29.29 29.35,-29.20 29.35,-29.11 29.08,-28.87 28.81,-28.63 28.75,-27.48 28.69,-26.34 28.48,-24.26 28.27,-22.19 27.79,-19.21 27.30,-16.23 26.54,-13.03 25.78,-9.83 24.73,-5.66 23.68,-1.49 22.35,2.24 21.02,5.98 19.39,9.88 17.75,13.79 16.12,16.60 14.49,19.41 12.92,20.54 11.36,21.67 10.31,21.09 9.27,20.51 8.72,18.64 8.18,16.78 8.16,14.54 8.14,12.29 8.46,10.14 8.78,7.99 9.15,5.99 9.52,3.98 9.64,2.92 9.76,1.85 9.80,1.77 9.84,1.68 9.90,1.61 9.96,1.54 10.03,1.48 10.10,1.43 10.19,1.39 10.27,1.35 10.37,1.34 10.46,1.32 10.55,1.33 10.64,1.34 10.73,1.37 10.82,1.39 10.90,1.44 10.97,1.49 11.04,1.56 11.10,1.63 11.15,1.70 11.20,1.78 11.22,1.87 11.25,1.96 11.25,2.05 11.26,2.15 11.24,2.24 11.22,2.33 11.13,2.60 11.05,2.87 10.58,4.31 10.11,5.74 9.38,8.02 8.65,10.30 7.31,13.36 5.96,16.42 4.63,18.77 3.30,21.11 2.06,21.92 0.83,22.73 -0.45,22.17 -1.74,21.62 -2.26,20.08 -2.78,18.54 -3.07,15.93 -3.35,13.33 -3.25,11.06 -3.14,8.80 -2.88,6.88 -2.61,4.97 -2.34,3.95 -2.06,2.93 -1.75,2.10 -1.43,1.27 -1.09,0.48 -0.75,-0.30 -0.71,-0.39 -0.66,-0.47 -0.59,-0.54 -0.53,-0.62 -0.44,-0.67 -0.36,-0.73 -0.27,-0.76 -0.18,-0.79 -0.08,-0.80 0.01,-0.81 0.11,-0.80 0.21,-0.79 0.30,-0.75 0.39,-0.71 0.47,-0.66 0.55,-0.60 0.61,-0.52 0.68,-0.45 0.72,-0.36 0.77,-0.27 0.79,-0.18 0.81,-0.08 0.81,0.01 0.81,0.11 0.78,0.20 0.75,0.30 0.75,0.30 L 0.75,0.30 Z"/></g><g transform="translate(97.77777099609375 192.6666717529297) rotate(0 4.1666717529296875 1.388885498046875)" stroke="none"><path fill="#1e1e1e" d="M 0.07,0.89 Q 0.07,0.89 -1.84,1.01 -3.76,1.14 -4.74,1.21 -5.71,1.27 -4.94,1.29 -4.17,1.30 -1.57,1.49 1.02,1.67 4.72,1.77 8.41,1.87 11.57,1.91 14.72,1.94 14.85,1.97 14.98,1.99 15.10,2.05 15.21,2.12 15.30,2.21 15.39,2.31 15.44,2.43 15.49,2.55 15.51,2.68 15.52,2.81 15.49,2.94 15.46,3.06 15.39,3.17 15.32,3.28 15.22,3.37 15.12,3.45 15.00,3.50 14.88,3.54 14.74,3.55 14.61,3.55 14.49,3.52 14.36,3.48 14.26,3.41 14.15,3.33 14.07,3.23 13.99,3.12 13.95,3.00 13.91,2.87 13.92,2.74 13.92,2.61 13.96,2.49 14.01,2.36 14.09,2.26 14.17,2.16 14.28,2.09 14.38,2.01 14.51,1.98 14.64,1.95 14.77,1.96 14.90,1.97 15.02,2.02 15.14,2.07 15.24,2.15 15.34,2.24 15.40,2.35 15.47,2.46 15.49,2.59 15.52,2.72 15.50,2.85 15.49,2.98 15.43,3.10 15.37,3.22 15.28,3.31 15.19,3.40 15.08,3.46 14.96,3.52 14.83,3.54 14.70,3.56 14.70,3.56 14.70,3.56 11.54,3.50 8.38,3.45 4.64,3.40 0.91,3.34 -1.93,3.17 -4.77,3.00 -6.29,2.05 -7.80,1.09 -6.82,0.36 -5.84,-0.36 -4.87,-0.43 -3.90,-0.50 -1.98,-0.69 -0.07,-0.89 0.03,-0.88 0.14,-0.88 0.24,-0.85 0.34,-0.82 0.44,-0.77 0.53,-0.71 0.61,-0.64 0.69,-0.56 0.74,-0.47 0.80,-0.38 0.84,-0.28 0.87,-0.18 0.88,-0.07 0.89,0.03 0.87,0.14 0.85,0.24 0.81,0.34 0.77,0.44 0.71,0.53 0.64,0.61 0.56,0.68 0.48,0.75 0.38,0.80 0.28,0.84 0.17,0.86 0.07,0.89 0.07,0.89 L 0.07,0.89 Z"/></g><g transform="translate(122.77777099609375 205.44444274902344) rotate(0 1.9444351196289062 8.055557250976562)" stroke="none"><path fill="#1e1e1e" d="M 0.11,0.83 Q 0.11,0.83 -1.00,0.96 -2.12,1.10 -2.64,1.34 -3.17,1.59 -3.60,2.08 -4.02,2.57 -4.35,3.31 -4.68,4.05 -4.85,5.72 -5.02,7.39 -4.80,9.51 -4.58,11.63 -3.57,13.90 -2.55,16.17 -1.25,17.71 0.04,19.26 1.84,19.56 3.65,19.87 5.27,18.82 6.89,17.77 8.04,15.19 9.19,12.61 9.70,9.17 10.21,5.72 9.34,2.93 8.47,0.13 6.94,-1.45 5.42,-3.03 3.17,-3.07 0.92,-3.10 -1.07,-1.61 -3.06,-0.11 -4.74,3.00 -6.42,6.12 -6.48,6.20 -6.55,6.28 -6.64,6.34 -6.73,6.40 -6.83,6.43 -6.93,6.46 -7.04,6.45 -7.15,6.44 -7.24,6.40 -7.34,6.36 -7.42,6.29 -7.50,6.22 -7.56,6.13 -7.61,6.03 -7.63,5.93 -7.65,5.82 -7.64,5.72 -7.63,5.61 -7.58,5.52 -7.54,5.42 -7.46,5.34 -7.39,5.27 -7.29,5.22 -7.20,5.17 -7.09,5.15 -6.98,5.14 -6.88,5.16 -6.77,5.18 -6.68,5.23 -6.59,5.28 -6.51,5.36 -6.44,5.44 -6.40,5.53 -6.36,5.63 -6.35,5.74 -6.34,5.84 -6.36,5.95 -6.38,6.05 -6.44,6.14 -6.50,6.23 -6.58,6.30 -6.66,6.37 -6.76,6.41 -6.86,6.45 -6.97,6.45 -7.08,6.45 -7.18,6.42 -7.28,6.39 -7.37,6.33 -7.46,6.27 -7.52,6.19 -7.58,6.10 -7.61,6.00 -7.65,5.90 -7.65,5.79 -7.64,5.68 -7.61,5.58 -7.57,5.48 -7.57,5.48 -7.57,5.48 -5.72,2.16 -3.87,-1.14 -1.53,-2.76 0.79,-4.38 3.46,-4.22 6.13,-4.07 7.92,-2.19 9.72,-0.31 10.63,2.77 11.54,5.87 10.98,9.52 10.43,13.17 9.07,16.01 7.70,18.85 5.68,20.03 3.65,21.21 1.38,20.76 -0.87,20.30 -2.39,18.55 -3.91,16.80 -5.02,14.31 -6.13,11.83 -6.41,9.53 -6.68,7.24 -6.50,5.28 -6.32,3.33 -5.83,2.30 -5.34,1.28 -4.58,0.61 -3.83,-0.04 -3.09,-0.25 -2.35,-0.46 -1.23,-0.65 -0.11,-0.83 -0.01,-0.83 0.08,-0.84 0.18,-0.81 0.28,-0.79 0.37,-0.75 0.46,-0.70 0.54,-0.63 0.62,-0.57 0.67,-0.49 0.73,-0.40 0.77,-0.31 0.81,-0.21 0.82,-0.11 0.84,-0.01 0.83,0.08 0.82,0.18 0.78,0.28 0.75,0.37 0.69,0.46 0.64,0.54 0.56,0.61 0.49,0.68 0.40,0.73 0.31,0.78 0.21,0.80 0.11,0.83 0.11,0.83 L 0.11,0.83 Z"/></g><g transform="translate(137.2222137451172 218.7777862548828) rotate(0 32.22221374511719 -16.9444580078125)" stroke="none"><path fill="#1e1e1e" d="M 0.68,0.56 Q 0.68,0.56 -0.14,1.50 -0.96,2.44 -1.26,2.72 -1.56,3.00 -1.64,3.08 -1.72,3.15 -1.82,3.21 -1.92,3.26 -2.02,3.29 -2.13,3.32 -2.24,3.33 -2.35,3.33 -2.46,3.31 -2.57,3.28 -2.67,3.23 -2.77,3.19 -2.86,3.11 -2.95,3.04 -3.01,2.95 -3.08,2.86 -3.12,2.76 -3.16,2.66 -3.18,2.55 -3.20,2.43 -3.19,2.32 -3.18,2.21 -3.14,2.11 -3.10,2.00 -3.04,1.91 -2.98,1.81 -1.95,-0.49 -0.92,-2.81 0.43,-5.00 1.80,-7.19 3.21,-8.94 4.61,-10.70 5.96,-11.81 7.30,-12.93 8.52,-12.85 9.75,-12.78 10.56,-11.05 11.37,-9.32 11.51,-6.28 11.65,-3.23 11.53,-0.37 11.42,2.49 11.20,4.99 10.99,7.49 10.90,8.87 10.81,10.24 10.79,10.32 10.77,10.40 10.74,10.48 10.70,10.55 10.65,10.62 10.60,10.68 10.53,10.73 10.47,10.78 10.39,10.81 10.31,10.84 10.23,10.86 10.15,10.87 10.07,10.86 9.99,10.86 9.91,10.83 9.83,10.80 9.76,10.76 9.69,10.71 9.63,10.65 9.58,10.59 9.53,10.52 9.49,10.45 9.47,10.37 9.45,10.29 9.44,10.21 9.44,10.13 9.79,9.66 10.14,9.20 10.49,7.84 10.83,6.49 11.67,3.61 12.51,0.72 13.52,-2.11 14.52,-4.95 15.60,-7.60 16.67,-10.25 17.66,-11.77 18.66,-13.29 19.92,-13.57 21.19,-13.86 21.85,-12.67 22.52,-11.48 22.81,-9.11 23.10,-6.73 23.05,-4.29 22.99,-1.85 22.80,0.61 22.62,3.08 22.54,4.44 22.45,5.80 22.45,5.90 22.44,6.00 22.42,6.09 22.41,6.17 22.37,6.25 22.33,6.33 22.28,6.40 22.23,6.47 22.16,6.53 22.09,6.58 22.01,6.62 21.93,6.65 21.84,6.67 21.76,6.68 21.67,6.68 21.58,6.67 21.50,6.65 21.41,6.62 21.34,6.58 21.26,6.53 21.20,6.47 21.14,6.41 21.09,6.33 21.05,6.26 21.02,6.18 20.99,6.09 20.99,6.01 20.98,5.92 21.32,4.62 21.67,3.33 22.28,1.04 22.89,-1.24 23.81,-3.37 24.72,-5.51 25.94,-7.26 27.17,-9.01 28.53,-9.82 29.90,-10.63 31.23,-10.11 32.56,-9.60 33.64,-7.67 34.72,-5.75 35.32,-3.31 35.91,-0.87 36.31,1.10 36.71,3.07 36.82,4.03 36.92,4.99 37.50,4.93 38.08,4.87 38.72,4.01 39.35,3.15 40.47,1.36 41.59,-0.42 42.54,-2.44 43.49,-4.47 44.23,-5.98 44.96,-7.49 45.26,-8.69 45.55,-9.88 45.20,-10.46 44.85,-11.04 44.16,-10.42 43.47,-9.79 42.70,-8.51 41.92,-7.23 41.42,-5.61 40.92,-3.99 40.87,-1.76 40.81,0.46 40.93,2.21 41.05,3.95 41.26,4.77 41.48,5.60 42.17,5.38 42.87,5.17 43.40,4.26 43.92,3.35 44.50,1.26 45.07,-0.83 45.49,-3.32 45.91,-5.81 45.93,-7.63 45.95,-9.45 45.96,-10.57 45.97,-11.69 45.98,-11.77 45.99,-11.85 46.02,-11.92 46.05,-12.00 46.10,-12.07 46.15,-12.13 46.21,-12.19 46.27,-12.24 46.34,-12.28 46.42,-12.31 46.50,-12.33 46.58,-12.35 46.66,-12.35 46.74,-12.35 46.82,-12.33 46.90,-12.31 46.97,-12.27 47.04,-12.23 47.10,-12.18 47.16,-12.12 47.21,-12.05 47.25,-11.99 47.28,-11.91 47.31,-11.83 47.32,-11.75 47.33,-11.67 47.14,-10.46 46.96,-9.24 46.92,-6.91 46.88,-4.58 47.17,-1.54 47.47,1.49 47.75,3.90 48.03,6.32 48.63,7.67 49.23,9.03 49.23,9.11 49.23,9.19 49.21,9.27 49.19,9.35 49.15,9.43 49.11,9.50 49.06,9.56 49.00,9.62 48.93,9.67 48.87,9.72 48.79,9.75 48.71,9.77 48.63,9.78 48.55,9.79 48.47,9.78 48.38,9.77 48.31,9.74 48.23,9.71 48.16,9.67 48.09,9.62 48.04,9.56 47.99,9.50 47.95,9.42 47.91,9.35 47.89,9.27 47.87,9.19 49.08,8.34 50.28,7.48 51.09,5.62 51.90,3.76 53.08,-0.22 54.25,-4.21 55.56,-9.27 56.86,-14.33 58.06,-19.04 59.25,-23.75 60.56,-28.32 61.87,-32.88 62.74,-36.41 63.62,-39.93 64.15,-41.75 64.68,-43.57 64.71,-43.65 64.74,-43.72 64.78,-43.79 64.83,-43.85 64.89,-43.90 64.95,-43.96 65.02,-43.99 65.09,-44.03 65.16,-44.05 65.24,-44.07 65.32,-44.07 65.40,-44.07 65.48,-44.05 65.56,-44.03 65.63,-43.99 65.70,-43.96 65.76,-43.90 65.81,-43.85 65.86,-43.78 65.90,-43.72 65.93,-43.65 65.96,-43.57 65.97,-43.49 65.98,-43.41 65.97,-43.33 65.96,-43.26 65.75,-41.18 65.55,-39.10 65.10,-36.13 64.65,-33.16 64.14,-28.41 63.63,-23.65 63.26,-18.12 62.88,-12.59 62.88,-8.02 62.88,-3.45 62.88,0.25 62.88,3.96 63.01,5.77 63.13,7.59 63.94,6.02 64.75,4.44 65.43,1.86 66.10,-0.72 66.16,-0.84 66.21,-0.96 66.30,-1.06 66.40,-1.15 66.51,-1.22 66.63,-1.28 66.76,-1.30 66.89,-1.32 67.03,-1.30 67.16,-1.28 67.27,-1.22 67.39,-1.15 67.48,-1.06 67.58,-0.96 67.63,-0.84 67.69,-0.72 67.70,-0.59 67.72,-0.45 67.69,-0.32 67.66,-0.19 67.59,-0.08 67.52,0.02 67.42,0.11 67.32,0.20 67.20,0.25 67.07,0.29 66.94,0.30 66.81,0.31 66.68,0.27 66.55,0.24 66.44,0.16 66.33,0.09 66.25,-0.01 66.17,-0.11 66.13,-0.24 66.08,-0.37 66.08,-0.50 66.08,-0.63 66.13,-0.76 66.17,-0.88 66.25,-0.99 66.33,-1.10 66.44,-1.17 66.55,-1.25 66.68,-1.28 66.81,-1.32 66.94,-1.31 67.07,-1.30 67.20,-1.25 67.32,-1.20 67.42,-1.12 67.52,-1.03 67.59,-0.92 67.66,-0.80 67.69,-0.67 67.72,-0.54 67.70,-0.41 67.69,-0.28 67.69,-0.28 67.69,-0.28 66.90,2.40 66.11,5.09 65.17,6.89 64.24,8.68 63.41,8.62 62.58,8.55 62.07,6.25 61.56,3.96 61.55,0.25 61.55,-3.45 61.55,-8.06 61.55,-12.68 61.93,-18.23 62.30,-23.79 62.81,-28.58 63.32,-33.36 63.75,-36.32 64.19,-39.29 64.44,-41.43 64.68,-43.57 64.71,-43.65 64.74,-43.72 64.78,-43.79 64.83,-43.85 64.89,-43.90 64.95,-43.96 65.02,-43.99 65.09,-44.03 65.16,-44.05 65.24,-44.07 65.32,-44.07 65.40,-44.07 65.48,-44.05 65.55,-44.03 65.63,-43.99 65.70,-43.96 65.76,-43.90 65.81,-43.85 65.86,-43.78 65.90,-43.72 65.93,-43.65 65.96,-43.57 65.97,-43.49 65.98,-43.41 65.97,-43.33 65.96,-43.26 65.43,-41.43 64.90,-39.61 64.02,-36.07 63.15,-32.52 61.84,-27.97 60.54,-23.42 59.35,-18.71 58.16,-14.00 56.85,-8.92 55.54,-3.83 54.33,0.24 53.13,4.33 52.08,6.45 51.04,8.56 50.13,8.80 49.23,9.03 49.23,9.11 49.23,9.19 49.21,9.27 49.19,9.35 49.15,9.43 49.11,9.50 49.06,9.56 49.00,9.62 48.93,9.67 48.87,9.72 48.79,9.75 48.71,9.77 48.63,9.78 48.55,9.79 48.47,9.78 48.38,9.77 48.31,9.74 48.23,9.71 48.16,9.67 48.09,9.62 48.04,9.56 47.99,9.50 47.95,9.42 47.91,9.35 47.89,9.27 47.87,9.19 47.26,7.85 46.66,6.50 46.36,4.06 46.06,1.63 45.74,-1.48 45.42,-4.59 45.44,-6.97 45.45,-9.34 45.71,-10.51 45.97,-11.69 45.98,-11.77 45.99,-11.85 46.02,-11.92 46.05,-12.00 46.10,-12.07 46.15,-12.13 46.21,-12.19 46.27,-12.24 46.34,-12.28 46.42,-12.31 46.50,-12.33 46.58,-12.35 46.66,-12.35 46.74,-12.35 46.82,-12.33 46.90,-12.31 46.97,-12.27 47.04,-12.23 47.10,-12.18 47.16,-12.12 47.21,-12.05 47.25,-11.99 47.28,-11.91 47.31,-11.83 47.32,-11.75 47.33,-11.67 47.32,-10.56 47.32,-9.44 47.30,-7.51 47.28,-5.59 46.86,-3.02 46.44,-0.45 45.79,1.84 45.14,4.14 44.30,5.30 43.45,6.46 42.41,6.61 41.37,6.76 40.52,5.43 39.66,4.09 39.51,2.26 39.37,0.43 39.43,-1.98 39.50,-4.41 40.04,-6.21 40.59,-8.02 41.51,-9.55 42.44,-11.07 43.50,-11.79 44.57,-12.51 45.51,-12.02 46.46,-11.53 46.66,-10.59 46.86,-9.65 46.53,-8.28 46.20,-6.91 45.48,-5.39 44.75,-3.88 43.78,-1.78 42.80,0.32 41.63,2.21 40.47,4.10 39.48,5.15 38.49,6.20 37.52,6.11 36.54,6.03 35.98,4.68 35.42,3.34 35.03,1.38 34.63,-0.56 34.09,-2.85 33.55,-5.14 32.72,-6.83 31.89,-8.52 30.97,-8.99 30.06,-9.47 29.14,-8.84 28.22,-8.22 27.08,-6.60 25.95,-4.98 25.07,-2.93 24.19,-0.89 23.58,1.37 22.98,3.65 22.71,4.82 22.44,6.00 22.42,6.09 22.41,6.17 22.37,6.25 22.33,6.33 22.28,6.40 22.23,6.47 22.16,6.53 22.09,6.58 22.01,6.62 21.93,6.65 21.84,6.67 21.76,6.68 21.67,6.68 21.58,6.67 21.50,6.65 21.41,6.62 21.34,6.58 21.26,6.53 21.20,6.47 21.14,6.41 21.09,6.33 21.05,6.26 21.02,6.18 20.99,6.09 20.99,6.01 20.98,5.92 21.04,5.82 21.09,5.71 21.17,4.35 21.24,2.98 21.41,0.55 21.58,-1.88 21.62,-4.22 21.66,-6.57 21.42,-8.69 21.19,-10.81 20.44,-11.63 19.70,-12.45 18.83,-11.08 17.96,-9.72 16.92,-7.10 15.87,-4.47 14.90,-1.67 13.93,1.13 13.12,4.02 12.30,6.91 11.56,8.58 10.81,10.24 10.79,10.32 10.77,10.40 10.74,10.48 10.70,10.55 10.65,10.62 10.60,10.68 10.53,10.73 10.47,10.78 10.39,10.81 10.31,10.84 10.23,10.86 10.15,10.87 10.07,10.86 9.99,10.86 9.91,10.83 9.83,10.80 9.76,10.76 9.69,10.71 9.63,10.65 9.58,10.59 9.53,10.52 9.49,10.45 9.47,10.37 9.45,10.29 9.44,10.21 9.44,10.13 9.52,8.75 9.60,7.38 9.80,4.91 10.00,2.44 10.09,-0.36 10.19,-3.17 10.07,-5.97 9.96,-8.77 8.97,-10.25 7.98,-11.73 6.88,-10.74 5.79,-9.76 4.47,-8.06 3.15,-6.37 1.86,-4.21 0.56,-2.06 -0.24,-0.40 -1.04,1.25 -1.30,2.12 -1.56,3.00 -1.64,3.08 -1.72,3.15 -1.82,3.21 -1.92,3.26 -2.02,3.29 -2.13,3.32 -2.24,3.33 -2.35,3.33 -2.46,3.31 -2.57,3.28 -2.67,3.23 -2.77,3.19 -2.86,3.11 -2.95,3.04 -3.01,2.95 -3.08,2.86 -3.12,2.76 -3.16,2.66 -3.18,2.55 -3.20,2.43 -3.19,2.32 -3.18,2.21 -3.14,2.11 -3.10,2.00 -3.04,1.91 -2.98,1.81 -2.60,1.60 -2.22,1.38 -1.45,0.40 -0.68,-0.56 -0.60,-0.64 -0.52,-0.71 -0.43,-0.76 -0.33,-0.82 -0.23,-0.84 -0.13,-0.87 -0.02,-0.88 0.08,-0.88 0.18,-0.86 0.28,-0.83 0.38,-0.79 0.48,-0.74 0.56,-0.67 0.64,-0.60 0.71,-0.52 0.77,-0.43 0.81,-0.33 0.85,-0.23 0.87,-0.13 0.88,-0.02 0.87,0.07 0.86,0.18 0.83,0.28 0.79,0.38 0.74,0.47 0.68,0.56 0.68,0.56 L 0.68,0.56 Z"/></g><g transform="translate(195.5555419921875 194.88890075683594) rotate(0 8.611114501953125 3.0555419921875)" stroke="none"><path fill="#1e1e1e" d="M -0.12,0.86 Q -0.12,0.86 -1.22,0.67 -2.33,0.48 -2.82,0.62 -3.31,0.77 -3.42,0.74 -3.52,0.71 -3.62,0.66 -3.72,0.60 -3.80,0.53 -3.88,0.45 -3.94,0.36 -4.00,0.27 -4.04,0.16 -4.08,0.06 -4.09,-0.04 -4.10,-0.15 -4.08,-0.26 -4.07,-0.37 -4.03,-0.47 -3.98,-0.57 -3.92,-0.66 -3.86,-0.75 -3.77,-0.83 -3.69,-0.90 -3.59,-0.95 -3.49,-1.00 -3.38,-1.02 -3.27,-1.04 -3.16,-1.04 -3.05,-1.04 -2.01,-0.40 -0.97,0.22 1.59,1.23 4.16,2.24 7.63,3.15 11.10,4.06 15.24,4.84 19.39,5.63 19.50,5.67 19.61,5.71 19.70,5.78 19.79,5.85 19.85,5.94 19.91,6.04 19.94,6.15 19.96,6.26 19.96,6.37 19.95,6.48 19.90,6.59 19.86,6.69 19.78,6.78 19.71,6.86 19.61,6.92 19.51,6.98 19.40,7.00 19.29,7.02 19.18,7.00 19.06,6.99 18.96,6.94 18.86,6.89 18.78,6.81 18.70,6.73 18.65,6.63 18.60,6.53 18.58,6.41 18.56,6.30 18.58,6.19 18.61,6.08 18.66,5.98 18.72,5.88 18.80,5.80 18.88,5.73 18.99,5.68 19.09,5.64 19.21,5.63 19.32,5.62 19.43,5.64 19.54,5.67 19.64,5.73 19.73,5.79 19.80,5.88 19.87,5.97 19.91,6.08 19.95,6.18 19.96,6.30 19.96,6.41 19.93,6.52 19.90,6.63 19.83,6.72 19.76,6.81 19.67,6.88 19.58,6.95 19.47,6.98 19.36,7.01 19.25,7.01 19.14,7.01 19.14,7.01 19.14,7.01 14.94,6.23 10.73,5.45 7.18,4.54 3.62,3.63 0.94,2.60 -1.73,1.57 -2.52,1.17 -3.31,0.77 -3.42,0.74 -3.52,0.71 -3.62,0.66 -3.72,0.60 -3.80,0.53 -3.88,0.45 -3.94,0.36 -4.00,0.27 -4.04,0.16 -4.08,0.06 -4.09,-0.04 -4.10,-0.15 -4.08,-0.26 -4.07,-0.37 -4.03,-0.47 -3.98,-0.57 -3.92,-0.66 -3.86,-0.75 -3.77,-0.82 -3.69,-0.90 -3.59,-0.95 -3.49,-1.00 -3.38,-1.02 -3.27,-1.04 -3.16,-1.04 -3.05,-1.04 -2.59,-1.08 -2.13,-1.12 -1.00,-0.99 0.12,-0.86 0.22,-0.83 0.32,-0.80 0.41,-0.75 0.50,-0.70 0.58,-0.63 0.66,-0.56 0.72,-0.47 0.77,-0.38 0.81,-0.28 0.84,-0.19 0.85,-0.08 0.86,0.01 0.85,0.12 0.83,0.22 0.79,0.32 0.76,0.41 0.69,0.50 0.63,0.58 0.55,0.65 0.47,0.72 0.38,0.77 0.29,0.81 0.18,0.84 0.08,0.86 -0.01,0.86 -0.12,0.86 -0.12,0.86 L -0.12,0.86 Z"/></g><g transform="translate(239.44442749023438 214.3333282470703) rotate(0 7.2222137451171875 1.111114501953125)" stroke="none"><path fill="#1e1e1e" d="M 0.29,-0.88 Q 0.29,-0.88 0.74,-0.76 1.19,-0.65 1.95,-0.87 2.72,-1.09 4.16,-1.91 5.61,-2.73 7.18,-4.02 8.76,-5.30 9.93,-6.32 11.09,-7.35 11.92,-8.10 12.76,-8.86 13.73,-9.03 14.70,-9.20 15.25,-8.56 15.80,-7.93 15.83,-6.36 15.86,-4.78 15.83,-2.77 15.80,-0.75 15.78,1.05 15.76,2.87 15.74,4.60 15.73,6.33 15.39,7.79 15.05,9.25 14.42,10.20 13.79,11.15 12.62,11.24 11.44,11.33 10.42,10.99 9.39,10.66 7.63,9.42 5.88,8.17 5.79,8.07 5.69,7.96 5.64,7.83 5.58,7.70 5.57,7.55 5.56,7.41 5.59,7.27 5.62,7.13 5.70,7.01 5.78,6.89 5.89,6.80 6.00,6.71 6.13,6.66 6.27,6.61 6.41,6.61 6.55,6.61 6.69,6.65 6.83,6.69 6.94,6.77 7.06,6.86 7.14,6.97 7.23,7.09 7.27,7.22 7.31,7.36 7.31,7.50 7.31,7.65 7.26,7.78 7.21,7.92 7.12,8.03 7.03,8.14 6.91,8.22 6.79,8.29 6.65,8.33 6.51,8.36 6.37,8.35 6.22,8.34 6.09,8.28 5.96,8.23 5.86,8.13 5.75,8.04 5.68,7.91 5.61,7.79 5.58,7.65 5.55,7.51 5.57,7.37 5.59,7.22 5.65,7.10 5.72,6.97 5.82,6.87 5.92,6.76 6.05,6.70 6.18,6.64 6.32,6.62 6.46,6.60 6.60,6.62 6.74,6.65 6.86,6.72 6.99,6.79 6.99,6.79 6.99,6.79 8.46,7.98 9.93,9.17 10.71,9.47 11.48,9.78 12.29,9.88 13.10,9.98 13.38,9.44 13.67,8.90 13.96,7.61 14.26,6.32 14.25,4.60 14.23,2.87 14.21,1.05 14.19,-0.75 14.16,-2.77 14.14,-4.78 13.92,-6.27 13.71,-7.76 12.92,-6.98 12.12,-6.21 10.96,-5.13 9.79,-4.06 8.14,-2.65 6.48,-1.25 4.84,-0.26 3.20,0.72 1.96,1.00 0.72,1.29 0.21,1.08 -0.29,0.88 -0.39,0.83 -0.49,0.79 -0.58,0.71 -0.67,0.64 -0.74,0.55 -0.80,0.46 -0.85,0.36 -0.89,0.26 -0.91,0.14 -0.93,0.03 -0.92,-0.07 -0.91,-0.18 -0.88,-0.29 -0.84,-0.40 -0.78,-0.49 -0.72,-0.59 -0.64,-0.66 -0.56,-0.74 -0.46,-0.80 -0.36,-0.85 -0.25,-0.89 -0.15,-0.92 -0.03,-0.92 0.07,-0.93 0.18,-0.90 0.29,-0.88 0.29,-0.88 L 0.29,-0.88 Z"/></g><g transform="translate(263.8888854980469 183.7777862548828) rotate(0 14.722213745117188 21.388885498046875)" stroke="none"><path fill="#1e1e1e" d="M 0.78,-0.26 Q 0.78,-0.26 1.09,0.70 1.40,1.66 1.54,3.28 1.67,4.89 1.87,8.11 2.08,11.32 2.00,15.11 1.92,18.90 1.72,23.54 1.53,28.18 1.28,32.07 1.04,35.96 0.93,37.93 0.82,39.90 0.81,39.98 0.79,40.06 0.76,40.14 0.73,40.21 0.68,40.28 0.63,40.34 0.56,40.39 0.50,40.44 0.42,40.47 0.35,40.51 0.27,40.52 0.19,40.54 0.10,40.53 0.02,40.53 -0.05,40.50 -0.12,40.48 -0.19,40.44 -0.26,40.39 -0.32,40.34 -0.38,40.28 -0.42,40.21 -0.46,40.14 -0.49,40.06 -0.51,39.98 -0.52,39.90 -0.52,39.82 0.10,37.81 0.74,35.80 1.29,33.61 1.84,31.42 2.72,29.01 3.61,26.60 4.35,25.05 5.09,23.51 5.62,23.20 6.14,22.90 6.19,22.82 6.25,22.74 6.31,22.67 6.38,22.60 6.47,22.55 6.55,22.51 6.64,22.48 6.73,22.45 6.83,22.45 6.92,22.44 7.02,22.46 7.11,22.48 7.20,22.52 7.29,22.56 7.36,22.62 7.44,22.68 7.50,22.75 7.55,22.83 7.59,22.92 7.63,23.01 7.65,23.10 7.66,23.20 7.66,23.29 7.65,23.39 7.62,23.48 7.59,23.57 7.52,24.41 7.46,25.25 6.93,26.88 6.40,28.50 5.54,30.61 4.67,32.72 3.65,34.60 2.62,36.48 1.48,37.38 0.34,38.27 -0.32,37.89 -0.99,37.51 -1.11,36.22 -1.24,34.92 -0.66,33.76 -0.08,32.60 0.92,32.20 1.93,31.81 2.96,32.00 3.99,32.20 5.41,33.16 6.83,34.13 8.19,35.17 9.55,36.22 10.98,36.77 12.41,37.32 13.53,37.26 14.65,37.19 15.84,36.27 17.02,35.35 18.00,33.75 18.97,32.15 19.55,30.53 20.13,28.92 20.24,28.07 20.35,27.21 19.59,28.66 18.82,30.12 18.42,32.00 18.02,33.88 18.15,35.39 18.27,36.89 19.09,38.01 19.91,39.13 21.24,39.01 22.57,38.88 24.02,37.49 25.47,36.10 26.58,34.28 27.69,32.45 28.31,30.47 28.94,28.48 28.63,27.19 28.33,25.89 27.57,25.55 26.80,25.21 25.14,25.81 23.48,26.42 21.83,27.58 20.17,28.75 18.69,30.33 17.20,31.92 16.38,33.77 15.55,35.61 15.48,35.72 15.41,35.82 15.30,35.90 15.20,35.97 15.08,36.01 14.96,36.05 14.83,36.04 14.71,36.04 14.59,36.00 14.47,35.95 14.37,35.87 14.27,35.80 14.20,35.69 14.13,35.58 14.10,35.46 14.07,35.34 14.08,35.21 14.09,35.08 14.14,34.97 14.19,34.85 14.27,34.75 14.36,34.66 14.47,34.60 14.58,34.53 14.70,34.51 14.83,34.48 14.95,34.50 15.08,34.52 15.19,34.57 15.31,34.63 15.40,34.72 15.49,34.81 15.54,34.92 15.60,35.04 15.62,35.16 15.63,35.29 15.61,35.41 15.59,35.54 15.53,35.65 15.46,35.76 15.37,35.84 15.28,35.93 15.16,35.98 15.04,36.03 14.92,36.04 14.79,36.05 14.67,36.02 14.54,35.99 14.44,35.92 14.33,35.86 14.25,35.76 14.17,35.66 14.12,35.54 14.08,35.42 14.08,35.29 14.07,35.17 14.11,35.04 14.15,34.92 14.15,34.92 14.15,34.92 15.19,32.97 16.23,31.03 17.82,29.35 19.41,27.67 21.24,26.41 23.06,25.16 25.09,24.58 27.11,24.00 28.25,24.64 29.39,25.27 29.81,27.03 30.23,28.79 29.54,30.97 28.85,33.16 27.63,35.14 26.41,37.12 24.62,38.66 22.83,40.21 21.06,40.23 19.28,40.25 18.06,38.70 16.83,37.14 16.66,35.37 16.49,33.59 16.90,31.52 17.31,29.45 18.00,28.00 18.69,26.55 19.46,26.21 20.22,25.86 20.90,26.40 21.57,26.95 21.49,28.16 21.40,29.37 20.77,31.12 20.13,32.86 19.00,34.65 17.87,36.44 16.36,37.50 14.85,38.56 13.39,38.63 11.93,38.69 10.29,38.06 8.65,37.43 7.30,36.44 5.94,35.45 4.74,34.63 3.53,33.82 2.90,33.58 2.26,33.34 1.60,33.42 0.94,33.51 0.59,34.23 0.25,34.95 0.50,36.06 0.74,37.18 1.09,36.50 1.44,35.83 2.42,34.01 3.40,32.20 4.24,30.13 5.08,28.06 5.56,26.61 6.04,25.16 6.09,24.03 6.14,22.90 6.19,22.82 6.25,22.74 6.31,22.67 6.38,22.60 6.47,22.55 6.55,22.51 6.64,22.48 6.73,22.45 6.83,22.45 6.92,22.44 7.02,22.46 7.11,22.48 7.20,22.52 7.29,22.56 7.36,22.62 7.44,22.68 7.50,22.75 7.55,22.83 7.59,22.92 7.63,23.01 7.65,23.10 7.66,23.20 7.66,23.29 7.65,23.39 7.62,23.48 7.59,23.57 6.89,23.89 6.20,24.22 5.56,25.65 4.92,27.08 4.06,29.42 3.21,31.76 2.67,33.98 2.13,36.21 1.48,38.05 0.82,39.90 0.81,39.98 0.79,40.06 0.76,40.14 0.73,40.21 0.68,40.28 0.63,40.34 0.56,40.39 0.50,40.44 0.42,40.47 0.35,40.51 0.27,40.52 0.19,40.54 0.10,40.53 0.02,40.53 -0.05,40.50 -0.12,40.48 -0.19,40.44 -0.26,40.39 -0.32,40.34 -0.38,40.28 -0.42,40.21 -0.46,40.14 -0.49,40.06 -0.51,39.98 -0.52,39.90 -0.52,39.82 -0.42,37.85 -0.33,35.88 -0.09,32.00 0.13,28.12 0.31,23.50 0.49,18.87 0.55,15.15 0.60,11.42 0.37,8.23 0.14,5.03 0.00,3.60 -0.13,2.16 -0.46,1.21 -0.78,0.26 -0.80,0.16 -0.82,0.06 -0.82,-0.03 -0.82,-0.13 -0.79,-0.23 -0.76,-0.32 -0.71,-0.41 -0.66,-0.50 -0.59,-0.57 -0.52,-0.64 -0.44,-0.69 -0.35,-0.75 -0.26,-0.78 -0.16,-0.81 -0.06,-0.82 0.03,-0.83 0.13,-0.81 0.23,-0.79 0.32,-0.75 0.41,-0.72 0.49,-0.65 0.57,-0.59 0.64,-0.52 0.70,-0.44 0.74,-0.35 0.78,-0.26 0.78,-0.26 L 0.78,-0.26 Z"/></g><g transform="translate(294.9999694824219 213.7777862548828) rotate(0 6.9444580078125 6.666656494140625)" stroke="none"><path fill="#1e1e1e" d="M -0.99,0 Q -0.99,0 -1.01,-0.65 -1.04,-1.30 -0.81,-2.00 -0.57,-2.70 0.39,-3.09 1.35,-3.47 2.25,-2.84 3.15,-2.22 3.82,-0.83 4.48,0.55 5.04,2.76 5.60,4.97 5.97,7.19 6.35,9.41 6.54,10.67 6.74,11.94 7.19,12.17 7.64,12.39 7.66,12.50 7.67,12.61 7.65,12.72 7.64,12.82 7.60,12.92 7.56,13.02 7.50,13.11 7.44,13.20 7.36,13.27 7.27,13.34 7.18,13.39 7.08,13.44 6.98,13.46 6.87,13.49 6.76,13.49 6.66,13.49 6.55,13.46 6.45,13.43 6.35,13.38 6.26,13.33 6.18,13.26 6.10,13.19 6.04,13.10 5.98,13.01 5.94,12.91 5.90,12.81 6.42,11.20 6.94,9.59 7.46,7.90 7.98,6.20 8.70,4.18 9.41,2.17 10.05,0.80 10.69,-0.56 11.84,-1.25 12.99,-1.94 13.47,-1.54 13.94,-1.15 14.35,0.48 14.75,2.12 14.88,4.40 15.01,6.68 14.89,8.62 14.78,10.56 14.41,12.70 14.04,14.83 13.94,14.92 13.84,15.00 13.72,15.04 13.60,15.09 13.47,15.09 13.34,15.10 13.22,15.06 13.10,15.03 12.99,14.95 12.89,14.88 12.81,14.78 12.73,14.67 12.69,14.55 12.66,14.43 12.66,14.30 12.66,14.17 12.70,14.05 12.74,13.93 12.82,13.83 12.90,13.73 13.01,13.66 13.12,13.59 13.24,13.55 13.37,13.52 13.49,13.53 13.62,13.54 13.74,13.59 13.86,13.64 13.96,13.72 14.05,13.81 14.12,13.92 14.18,14.03 14.21,14.15 14.23,14.28 14.22,14.41 14.20,14.54 14.15,14.65 14.09,14.77 14.00,14.86 13.91,14.95 13.80,15.01 13.68,15.07 13.56,15.09 13.43,15.11 13.30,15.08 13.18,15.06 13.06,15.00 12.95,14.94 12.86,14.84 12.78,14.75 12.72,14.63 12.67,14.51 12.66,14.38 12.65,14.26 12.68,14.13 12.71,14.01 12.78,13.90 12.84,13.79 12.84,13.79 12.84,13.79 13.06,12.14 13.29,10.48 13.37,8.63 13.45,6.77 13.30,4.63 13.14,2.48 12.54,1.26 11.93,0.05 11.34,1.34 10.75,2.63 10.07,4.63 9.39,6.62 8.89,8.34 8.39,10.06 8.02,11.23 7.64,12.39 7.66,12.50 7.67,12.61 7.65,12.72 7.64,12.82 7.60,12.92 7.56,13.02 7.50,13.11 7.44,13.20 7.36,13.27 7.27,13.34 7.18,13.39 7.08,13.44 6.98,13.46 6.87,13.49 6.76,13.49 6.66,13.49 6.55,13.46 6.45,13.43 6.35,13.38 6.26,13.33 6.18,13.26 6.10,13.19 6.04,13.10 5.98,13.01 5.94,12.91 5.90,12.81 5.75,12.80 5.61,12.79 5.14,11.25 4.67,9.72 4.24,7.59 3.81,5.46 3.23,3.46 2.65,1.45 1.85,0.10 1.04,-1.25 1.01,-0.62 0.99,0 0.97,0.11 0.96,0.23 0.91,0.34 0.87,0.46 0.80,0.55 0.74,0.65 0.65,0.73 0.56,0.81 0.45,0.87 0.35,0.92 0.23,0.95 0.11,0.98 -0.00,0.98 -0.11,0.98 -0.23,0.95 -0.35,0.92 -0.45,0.87 -0.56,0.81 -0.65,0.73 -0.74,0.65 -0.80,0.55 -0.87,0.46 -0.91,0.34 -0.96,0.23 -0.97,0.11 -0.99,-0.00 -0.99,-0.00 L -0.99,0 Z"/></g><g transform="translate(307.2221984863281 181.55555725097656) rotate(0 -2.2222137451171875 10.833328247070312)" stroke="none"><path fill="#1e1e1e" d="M 0.66,0.57 Q 0.66,0.57 -0.30,1.66 -1.28,2.75 -1.96,4.69 -2.63,6.63 -2.94,9.34 -3.24,12.05 -3.21,15.98 -3.18,19.90 -3.20,20.02 -3.22,20.13 -3.27,20.24 -3.32,20.34 -3.41,20.42 -3.49,20.50 -3.60,20.55 -3.70,20.60 -3.82,20.62 -3.93,20.63 -4.05,20.61 -4.16,20.58 -4.26,20.52 -4.36,20.46 -4.44,20.38 -4.51,20.29 -4.56,20.18 -4.60,20.07 -4.61,19.96 -4.62,19.84 -4.59,19.73 -4.56,19.62 -4.49,19.52 -4.43,19.42 -4.34,19.35 -4.24,19.28 -4.14,19.24 -4.03,19.20 -3.91,19.20 -3.79,19.20 -3.68,19.24 -3.57,19.27 -3.48,19.34 -3.38,19.41 -3.32,19.51 -3.25,19.60 -3.22,19.71 -3.19,19.83 -3.19,19.94 -3.20,20.06 -3.24,20.17 -3.28,20.28 -3.36,20.37 -3.43,20.45 -3.53,20.52 -3.63,20.58 -3.74,20.60 -3.86,20.63 -3.97,20.62 -4.09,20.61 -4.19,20.56 -4.30,20.51 -4.38,20.43 -4.47,20.35 -4.53,20.25 -4.58,20.15 -4.60,20.03 -4.62,19.92 -4.62,19.92 -4.62,19.92 -4.67,15.90 -4.72,11.89 -4.41,9.01 -4.10,6.12 -3.32,3.92 -2.54,1.72 -1.60,0.57 -0.66,-0.57 -0.58,-0.64 -0.51,-0.71 -0.41,-0.76 -0.32,-0.81 -0.22,-0.84 -0.12,-0.87 -0.01,-0.87 0.09,-0.87 0.19,-0.85 0.29,-0.82 0.39,-0.77 0.48,-0.73 0.56,-0.66 0.64,-0.59 0.71,-0.50 0.77,-0.42 0.81,-0.32 0.85,-0.22 0.86,-0.11 0.87,-0.01 0.86,0.09 0.85,0.19 0.82,0.29 0.78,0.39 0.72,0.48 0.66,0.57 0.66,0.57 L 0.66,0.57 Z"/></g><g transform="translate(318.33331298828125 209.3333282470703) rotate(0 19.444442749023438 11.388885498046875)" stroke="none"><path fill="#1e1e1e" d="M 0.16,0.82 Q 0.16,0.82 -0.60,0.99 -1.38,1.17 -1.93,2.39 -2.49,3.61 -2.66,5.42 -2.83,7.23 -2.76,9.10 -2.69,10.98 -2.24,12.13 -1.79,13.29 -1.28,13.70 -0.76,14.11 0.22,13.40 1.22,12.69 2.27,11.34 3.32,10.00 4.42,8.01 5.51,6.02 6.13,4.39 6.75,2.77 7.37,1.70 7.98,0.62 8.28,-0.05 8.57,-0.73 9.26,-0.99 9.94,-1.25 10.85,-0.79 11.76,-0.32 12.58,-0.01 13.40,0.30 14.31,0.45 15.23,0.60 16.46,0.22 17.70,-0.15 18.91,-0.61 20.11,-1.08 21.22,-1.17 22.33,-1.27 22.76,-0.62 23.20,0.02 22.84,1.77 22.48,3.52 21.64,5.49 20.80,7.47 19.47,10.06 18.15,12.65 16.59,14.75 15.04,16.84 13.54,18.40 12.03,19.95 10.43,20.28 8.82,20.61 8.09,19.88 7.37,19.15 7.25,17.72 7.13,16.30 7.45,15.17 7.77,14.04 8.48,13.13 9.18,12.23 10.31,11.96 11.43,11.69 12.65,12.31 13.86,12.94 14.98,13.86 16.10,14.79 17.34,15.81 18.59,16.83 19.88,17.73 21.17,18.62 22.24,18.81 23.30,18.99 24.29,18.62 25.29,18.26 26.15,17.52 27.02,16.78 27.68,15.72 28.35,14.66 28.79,13.44 29.23,12.23 29.24,11.30 29.26,10.38 29.07,9.71 28.89,9.04 29.17,9.51 29.46,9.98 29.37,11.09 29.29,12.21 29.40,13.92 29.50,15.64 30.00,17.43 30.50,19.22 31.23,20.35 31.96,21.48 33.03,21.62 34.11,21.77 35.60,20.64 37.09,19.51 38.21,17.82 39.32,16.14 40.11,13.87 40.90,11.60 40.77,9.47 40.64,7.34 39.71,6.06 38.78,4.78 37.77,4.42 36.76,4.06 35.48,4.78 34.21,5.51 33.38,7.30 32.55,9.10 32.28,11.76 32.00,14.43 31.97,14.54 31.93,14.66 31.86,14.76 31.79,14.86 31.70,14.93 31.60,15.00 31.48,15.04 31.37,15.08 31.25,15.07 31.13,15.07 31.01,15.03 30.90,14.99 30.80,14.92 30.71,14.84 30.64,14.74 30.57,14.64 30.54,14.52 30.51,14.40 30.52,14.28 30.53,14.16 30.58,14.05 30.62,13.94 30.70,13.85 30.78,13.76 30.89,13.69 30.99,13.63 31.11,13.61 31.23,13.59 31.35,13.60 31.47,13.62 31.58,13.67 31.69,13.72 31.78,13.81 31.86,13.89 31.92,14.00 31.97,14.11 31.99,14.23 32.01,14.35 31.99,14.47 31.97,14.59 31.91,14.69 31.85,14.80 31.76,14.88 31.67,14.96 31.56,15.01 31.45,15.06 31.33,15.07 31.21,15.08 31.09,15.05 30.97,15.03 30.87,14.96 30.76,14.90 30.69,14.80 30.61,14.71 30.57,14.60 30.52,14.48 30.52,14.36 30.52,14.24 30.52,14.24 30.52,14.24 30.94,11.39 31.36,8.54 32.42,6.49 33.49,4.44 35.18,3.64 36.87,2.83 38.32,3.38 39.76,3.93 40.86,5.55 41.95,7.16 42.07,9.59 42.20,12.01 41.34,14.46 40.47,16.90 39.20,18.77 37.93,20.64 36.05,21.88 34.18,23.12 32.60,22.82 31.02,22.52 30.02,21.10 29.01,19.68 28.43,17.73 27.85,15.78 27.68,13.96 27.50,12.14 27.51,10.93 27.52,9.73 28.18,8.42 28.85,7.12 29.63,7.93 30.41,8.74 30.51,9.58 30.61,10.42 30.55,11.54 30.48,12.67 29.98,14.02 29.48,15.37 28.68,16.59 27.89,17.80 26.82,18.66 25.74,19.53 24.44,19.93 23.13,20.33 21.78,20.06 20.43,19.79 19.06,18.86 17.69,17.94 16.43,16.93 15.17,15.92 14.14,15.09 13.12,14.25 12.29,13.73 11.47,13.21 10.80,13.26 10.13,13.31 9.64,13.89 9.14,14.48 8.87,15.36 8.61,16.25 8.62,17.30 8.64,18.35 8.98,18.94 9.31,19.54 10.21,19.22 11.10,18.90 12.48,17.44 13.85,15.97 15.32,13.96 16.78,11.96 18.04,9.40 19.30,6.85 20.05,4.98 20.79,3.12 20.73,1.72 20.68,0.32 19.42,0.85 18.16,1.38 16.61,1.83 15.05,2.29 13.91,2.14 12.76,2.00 11.74,1.62 10.72,1.25 10.14,0.76 9.56,0.27 9.36,0.78 9.15,1.29 8.59,2.28 8.02,3.26 7.37,4.97 6.72,6.68 5.57,8.78 4.43,10.87 3.21,12.38 2.00,13.89 0.67,14.62 -0.66,15.36 -1.86,14.67 -3.07,13.97 -3.65,12.52 -4.24,11.08 -4.36,9.09 -4.47,7.10 -4.33,5.08 -4.18,3.06 -3.71,1.73 -3.24,0.40 -2.52,-0.06 -1.81,-0.53 -0.98,-0.67 -0.16,-0.82 -0.06,-0.82 0.03,-0.83 0.13,-0.82 0.23,-0.80 0.32,-0.76 0.42,-0.72 0.50,-0.66 0.58,-0.60 0.64,-0.52 0.71,-0.44 0.75,-0.35 0.79,-0.26 0.81,-0.16 0.83,-0.06 0.83,0.03 0.82,0.13 0.79,0.23 0.77,0.33 0.71,0.41 0.66,0.50 0.59,0.57 0.52,0.65 0.44,0.70 0.35,0.75 0.26,0.79 0.16,0.82 0.16,0.82 L 0.16,0.82 Z"/></g><g transform="translate(363.8888854980469 220.44444274902344) rotate(0 18.611099243164062 16.944442749023438)" stroke="none"><path fill="#1e1e1e" d="M -0.66,-0.44 Q -0.66,-0.44 -0.01,-1.39 0.64,-2.33 1.41,-3.38 2.18,-4.43 3.17,-5.54 4.17,-6.65 5.29,-7.20 6.41,-7.74 7.52,-7.24 8.63,-6.75 9.27,-4.96 9.91,-3.17 10.14,-1.13 10.37,0.90 10.30,3.06 10.23,5.22 10.20,6.60 10.16,7.98 10.15,8.06 10.14,8.14 10.11,8.22 10.08,8.29 10.03,8.36 9.98,8.43 9.91,8.48 9.85,8.53 9.78,8.57 9.70,8.60 9.62,8.62 9.54,8.64 9.46,8.64 9.38,8.63 9.30,8.61 9.22,8.59 9.15,8.55 9.07,8.51 9.01,8.45 8.95,8.40 8.91,8.33 8.87,8.26 8.84,8.18 8.81,8.10 8.80,8.02 8.80,7.94 8.92,6.86 9.04,5.77 9.61,4.03 10.18,2.28 10.91,0.58 11.64,-1.12 12.44,-2.66 13.24,-4.19 14.17,-5.10 15.10,-6.01 16.06,-5.97 17.01,-5.93 17.48,-4.74 17.94,-3.54 18.26,-1.74 18.58,0.06 18.71,1.63 18.84,3.21 18.91,4.16 18.98,5.11 19.73,4.08 20.49,3.05 21.28,1.60 22.07,0.16 22.71,-1.53 23.36,-3.23 23.79,-4.58 24.23,-5.94 24.23,-6.51 24.22,-7.08 24.00,-7.33 23.78,-7.57 23.80,-7.67 23.82,-7.78 23.86,-7.88 23.90,-7.97 23.96,-8.06 24.02,-8.14 24.11,-8.21 24.19,-8.28 24.28,-8.32 24.38,-8.37 24.48,-8.39 24.58,-8.41 24.69,-8.41 24.80,-8.40 24.90,-8.38 25.00,-8.35 25.09,-8.29 25.18,-8.24 25.26,-8.17 25.33,-8.10 25.39,-8.01 25.45,-7.92 25.48,-7.82 25.52,-7.72 25.52,-7.61 25.53,-7.51 25.09,-6.60 24.66,-5.68 24.34,-4.66 24.02,-3.64 23.88,-1.97 23.74,-0.30 23.66,1.21 23.59,2.72 23.92,3.55 24.24,4.38 24.23,4.47 24.21,4.56 24.17,4.65 24.14,4.74 24.08,4.82 24.02,4.89 23.95,4.96 23.87,5.02 23.79,5.06 23.70,5.10 23.61,5.12 23.51,5.14 23.42,5.13 23.32,5.13 23.23,5.10 23.14,5.08 23.06,5.03 22.97,4.98 22.90,4.92 22.83,4.85 22.78,4.77 22.73,4.69 22.70,4.60 22.67,4.51 22.66,4.41 22.65,4.32 23.59,3.57 24.53,2.82 25.22,1.33 25.91,-0.14 26.74,-1.79 27.58,-3.43 28.26,-4.93 28.94,-6.43 29.49,-6.91 30.04,-7.39 30.09,-7.47 30.14,-7.56 30.21,-7.63 30.27,-7.69 30.36,-7.74 30.44,-7.79 30.53,-7.82 30.62,-7.85 30.72,-7.86 30.81,-7.86 30.91,-7.85 31.00,-7.83 31.09,-7.79 31.18,-7.75 31.26,-7.69 31.33,-7.63 31.39,-7.56 31.45,-7.48 31.49,-7.39 31.53,-7.31 31.55,-7.21 31.57,-7.12 31.56,-7.02 31.56,-6.93 31.53,-6.83 31.50,-6.74 32.01,-6.36 32.53,-5.98 33.14,-3.29 33.75,-0.60 33.99,3.73 34.23,8.07 34.17,12.79 34.10,17.51 33.11,22.76 32.11,28.01 30.06,32.07 28.01,36.12 25.74,38.08 23.48,40.04 20.61,40.07 17.74,40.10 15.63,38.58 13.53,37.06 12.78,35.09 12.04,33.12 13.38,30.77 14.72,28.41 17.74,25.97 20.77,23.53 24.45,21.22 28.14,18.92 31.74,17.07 35.34,15.22 35.44,15.19 35.54,15.15 35.65,15.16 35.76,15.16 35.86,15.19 35.96,15.23 36.04,15.29 36.12,15.36 36.18,15.45 36.24,15.54 36.27,15.64 36.30,15.74 36.29,15.85 36.28,15.95 36.24,16.05 36.20,16.15 36.13,16.23 36.06,16.31 35.97,16.37 35.88,16.42 35.77,16.44 35.67,16.46 35.56,16.45 35.46,16.44 35.36,16.39 35.26,16.34 35.19,16.27 35.11,16.20 35.06,16.10 35.01,16.01 35.00,15.90 34.98,15.80 35.00,15.69 35.02,15.59 35.07,15.49 35.12,15.40 35.20,15.33 35.28,15.26 35.38,15.21 35.47,15.17 35.58,15.16 35.68,15.15 35.79,15.17 35.89,15.20 35.98,15.25 36.07,15.31 36.14,15.39 36.21,15.47 36.25,15.57 36.28,15.67 36.29,15.78 36.29,15.88 36.26,15.99 36.23,16.09 36.17,16.18 36.11,16.26 36.03,16.33 35.94,16.39 35.94,16.39 35.94,16.39 32.39,18.21 28.83,20.04 25.21,22.30 21.59,24.56 18.71,26.84 15.83,29.12 14.53,31.11 13.24,33.10 13.81,34.59 14.39,36.09 16.15,37.46 17.90,38.82 20.36,38.88 22.82,38.94 24.83,37.21 26.83,35.48 28.81,31.61 30.78,27.75 31.75,22.62 32.72,17.49 32.78,12.82 32.83,8.15 32.59,3.93 32.35,-0.29 31.83,-2.71 31.32,-5.13 30.68,-6.26 30.04,-7.39 30.09,-7.47 30.14,-7.56 30.21,-7.63 30.27,-7.69 30.36,-7.74 30.44,-7.79 30.53,-7.82 30.62,-7.85 30.72,-7.86 30.81,-7.86 30.91,-7.85 31.00,-7.83 31.09,-7.79 31.18,-7.75 31.26,-7.69 31.33,-7.63 31.39,-7.56 31.45,-7.48 31.49,-7.39 31.53,-7.31 31.55,-7.21 31.57,-7.12 31.56,-7.02 31.56,-6.93 31.53,-6.83 31.50,-6.74 30.84,-6.27 30.18,-5.79 29.53,-4.29 28.88,-2.79 28.07,-1.13 27.26,0.51 26.34,2.29 25.43,4.07 24.83,4.22 24.24,4.38 24.23,4.47 24.21,4.56 24.17,4.65 24.14,4.74 24.08,4.82 24.02,4.89 23.95,4.96 23.87,5.02 23.79,5.06 23.70,5.10 23.61,5.12 23.51,5.14 23.42,5.13 23.32,5.13 23.23,5.10 23.14,5.08 23.06,5.03 22.97,4.98 22.90,4.92 22.83,4.85 22.78,4.77 22.73,4.69 22.70,4.60 22.67,4.51 22.66,4.41 22.65,4.32 22.39,3.51 22.13,2.71 22.17,1.14 22.21,-0.42 22.35,-2.25 22.48,-4.08 22.80,-5.27 23.13,-6.47 23.46,-7.02 23.78,-7.57 23.80,-7.67 23.82,-7.78 23.86,-7.88 23.90,-7.97 23.96,-8.06 24.02,-8.14 24.11,-8.21 24.19,-8.28 24.28,-8.32 24.38,-8.37 24.48,-8.39 24.58,-8.41 24.69,-8.41 24.79,-8.40 24.90,-8.38 25.00,-8.35 25.09,-8.29 25.18,-8.24 25.26,-8.17 25.33,-8.10 25.39,-8.01 25.45,-7.92 25.48,-7.82 25.52,-7.72 25.52,-7.61 25.53,-7.51 25.61,-7.44 25.69,-7.37 25.63,-6.45 25.57,-5.53 25.14,-4.12 24.70,-2.72 24.04,-0.93 23.38,0.85 22.60,2.35 21.81,3.85 20.99,5.11 20.17,6.38 19.16,6.17 18.15,5.97 17.78,4.65 17.42,3.33 17.28,1.83 17.13,0.32 16.81,-1.36 16.50,-3.06 16.16,-4.00 15.82,-4.94 15.13,-4.25 14.44,-3.55 13.68,-2.06 12.92,-0.57 12.23,1.07 11.53,2.72 11.01,4.36 10.49,6.01 10.33,6.99 10.16,7.98 10.15,8.06 10.14,8.14 10.11,8.22 10.08,8.29 10.03,8.36 9.98,8.43 9.91,8.48 9.85,8.53 9.78,8.57 9.70,8.60 9.62,8.62 9.54,8.64 9.46,8.64 9.38,8.63 9.30,8.61 9.22,8.59 9.15,8.55 9.07,8.51 9.01,8.45 8.95,8.40 8.91,8.33 8.87,8.26 8.84,8.18 8.81,8.10 8.80,8.02 8.80,7.94 8.82,6.56 8.84,5.18 8.90,3.12 8.96,1.05 8.75,-0.84 8.53,-2.73 8.12,-4.20 7.72,-5.66 7.12,-6.05 6.51,-6.45 5.86,-6.07 5.21,-5.69 4.29,-4.63 3.37,-3.58 2.64,-2.53 1.91,-1.49 1.29,-0.52 0.66,0.44 0.60,0.51 0.54,0.59 0.46,0.64 0.38,0.70 0.29,0.74 0.20,0.77 0.10,0.78 0.01,0.80 -0.08,0.79 -0.17,0.78 -0.27,0.74 -0.36,0.71 -0.44,0.66 -0.52,0.60 -0.58,0.53 -0.65,0.46 -0.69,0.38 -0.74,0.29 -0.77,0.20 -0.79,0.10 -0.79,0.01 -0.79,-0.08 -0.77,-0.17 -0.75,-0.27 -0.71,-0.35 -0.66,-0.44 -0.66,-0.44 L -0.66,-0.44 Z"/></g></svg>