<svg version="1.1" xmlns="http://www.w3.org/2000/svg" viewBox="0 0 1182.7776794433594 152.77776718139648" width="1182.7776794433594" height="152.77776718139648" filter="invert(93%) hue-rotate(180deg)">
  <!-- svg-source:excalidraw -->
  
  <defs>
    <style class="style-fonts">
      @font-face {
        font-family: "Virgil";
        src: url("https://excalidraw.com/Virgil.woff2");
      }
      @font-face {
        font-family: "Cascadia";
        src: url("https://excalidraw.com/Cascadia.woff2");
      }
    </style>
    
  </defs>
  <rect x="0" y="0" width="1182.7776794433594" height="152.77776718139648" fill="#ffffff"/><g transform="translate(884.9999694824219 16.666671752929688) rotate(0 13.88885498046875 7.499994277954102)" stroke="none"><path fill="#000000" d="M -0.97,0 Q -0.97,0 -0.93,-1.43 -0.89,-2.87 -0.91,-3.64 -0.94,-4.42 -0.79,-5.20 -0.64,-5.99 -0.30,-6.50 0.03,-7.01 0.82,-7.28 1.61,-7.55 2.58,-7.07 3.54,-6.59 4.71,-5.90 5.87,-5.21 7.43,-4.59 8.99,-3.97 10.89,-3.54 12.80,-3.11 14.80,-3.23 16.81,-3.36 18.65,-3.56 20.49,-3.76 22.03,-4.15 23.57,-4.54 24.55,-4.86 25.52,-5.18 26.13,-5.52 26.74,-5.85 26.71,-5.83 26.69,-5.81 26.79,-5.85 26.88,-5.88 26.99,-5.89 27.09,-5.91 27.19,-5.89 27.30,-5.88 27.40,-5.84 27.49,-5.81 27.58,-5.75 27.66,-5.69 27.73,-5.61 27.80,-5.53 27.85,-5.44 27.90,-5.34 27.92,-5.24 27.95,-5.14 27.95,-5.04 27.95,-4.93 27.92,-4.83 27.89,-4.73 27.85,-4.64 27.80,-4.55 27.73,-4.47 27.66,-4.39 27.57,-4.33 27.49,-4.27 26.35,-2.89 25.21,-1.51 24.24,0.27 23.27,2.05 22.04,4.43 20.81,6.81 19.64,9.09 18.47,11.38 17.50,13.61 16.53,15.84 15.15,18.73 13.76,21.63 13.68,21.73 13.59,21.83 13.47,21.90 13.36,21.96 13.23,21.99 13.10,22.01 12.96,22.00 12.83,21.98 12.71,21.92 12.59,21.86 12.50,21.77 12.40,21.68 12.34,21.56 12.28,21.44 12.27,21.31 12.25,21.18 12.27,21.04 12.30,20.91 12.36,20.80 12.42,20.68 12.52,20.59 12.62,20.50 12.74,20.45 12.87,20.40 13.00,20.38 13.13,20.37 13.26,20.40 13.39,20.44 13.50,20.51 13.61,20.58 13.70,20.68 13.78,20.78 13.83,20.91 13.88,21.03 13.88,21.17 13.88,21.30 13.85,21.43 13.81,21.55 13.73,21.66 13.65,21.77 13.55,21.85 13.44,21.93 13.31,21.97 13.18,22.01 13.05,22.00 12.92,22.00 12.79,21.96 12.67,21.91 12.56,21.83 12.46,21.75 12.39,21.63 12.32,21.52 12.28,21.39 12.25,21.26 12.26,21.13 12.27,21.00 12.32,20.88 12.37,20.75 12.37,20.75 12.37,20.75 13.80,18.01 15.22,15.27 16.19,13.00 17.16,10.72 18.31,8.42 19.46,6.12 20.66,3.71 21.87,1.31 22.88,-0.63 23.89,-2.58 24.71,-3.62 25.52,-4.67 26.10,-5.24 26.69,-5.81 26.79,-5.85 26.88,-5.88 26.99,-5.89 27.09,-5.91 27.19,-5.89 27.30,-5.88 27.40,-5.84 27.49,-5.81 27.58,-5.75 27.66,-5.69 27.73,-5.61 27.80,-5.53 27.85,-5.44 27.90,-5.34 27.92,-5.24 27.95,-5.14 27.95,-5.04 27.95,-4.93 27.92,-4.83 27.89,-4.73 27.85,-4.64 27.80,-4.55 27.73,-4.47 27.66,-4.39 27.57,-4.33 27.49,-4.27 27.28,-4.31 27.08,-4.35 26.53,-4.09 25.98,-3.82 24.96,-3.47 23.94,-3.12 22.31,-2.68 20.67,-2.25 18.79,-2.01 16.92,-1.76 14.69,-1.60 12.46,-1.44 10.41,-1.84 8.36,-2.24 6.63,-2.82 4.91,-3.41 3.60,-4.04 2.28,-4.67 1.78,-5.04 1.28,-5.42 1.11,-4.91 0.94,-4.40 0.91,-3.64 0.89,-2.87 0.93,-1.43 0.97,0 0.96,0.11 0.95,0.23 0.90,0.34 0.86,0.45 0.79,0.55 0.73,0.64 0.64,0.72 0.55,0.80 0.45,0.86 0.34,0.91 0.23,0.94 0.11,0.97 -0.00,0.97 -0.11,0.97 -0.23,0.94 -0.34,0.91 -0.45,0.86 -0.55,0.80 -0.64,0.72 -0.73,0.64 -0.79,0.55 -0.86,0.45 -0.90,0.34 -0.95,0.23 -0.96,0.11 -0.97,-0.00 -0.97,-0.00 L -0.97,0 Z"/></g><g transform="translate(892.2221374511719 22.777774810791016) rotate(0 11.11114501953125 3.3333358764648438)" stroke="none"><path fill="#000000" d="M 0.18,-0.90 Q 0.18,-0.90 0.98,-0.76 1.79,-0.61 2.71,-0.19 3.64,0.23 5.28,1.25 6.93,2.26 9.16,3.32 11.39,4.37 13.70,4.81 16.02,5.24 18.55,5.24 21.09,5.24 21.22,5.26 21.36,5.29 21.48,5.35 21.60,5.42 21.69,5.52 21.78,5.62 21.84,5.75 21.89,5.87 21.91,6.01 21.92,6.15 21.89,6.28 21.86,6.41 21.78,6.53 21.71,6.65 21.60,6.74 21.50,6.82 21.37,6.87 21.24,6.92 21.10,6.93 20.97,6.93 20.83,6.89 20.70,6.85 20.59,6.77 20.48,6.69 20.40,6.58 20.32,6.47 20.27,6.34 20.23,6.21 20.23,6.07 20.24,5.94 20.28,5.81 20.33,5.68 20.41,5.57 20.50,5.46 20.61,5.39 20.73,5.31 20.86,5.28 20.99,5.24 21.13,5.25 21.27,5.26 21.40,5.31 21.52,5.37 21.63,5.46 21.73,5.55 21.80,5.67 21.87,5.79 21.89,5.92 21.92,6.06 21.90,6.19 21.89,6.33 21.83,6.45 21.77,6.58 21.67,6.67 21.57,6.77 21.45,6.83 21.33,6.90 21.19,6.92 21.06,6.94 21.06,6.94 21.06,6.94 18.40,6.85 15.74,6.76 13.23,6.31 10.72,5.85 8.38,4.81 6.04,3.77 4.43,2.86 2.82,1.95 2.11,1.60 1.40,1.25 0.61,1.08 -0.18,0.90 -0.28,0.87 -0.39,0.83 -0.48,0.77 -0.58,0.71 -0.66,0.63 -0.73,0.55 -0.79,0.46 -0.85,0.36 -0.88,0.25 -0.91,0.15 -0.91,0.04 -0.92,-0.07 -0.90,-0.18 -0.87,-0.28 -0.83,-0.39 -0.78,-0.49 -0.71,-0.57 -0.64,-0.66 -0.55,-0.73 -0.46,-0.79 -0.36,-0.84 -0.26,-0.88 -0.15,-0.90 -0.04,-0.92 0.07,-0.91 0.18,-0.90 0.18,-0.90 L 0.18,-0.90 Z"/></g><g transform="translate(921.1110534667969 38.33333206176758) rotate(0 -0.5555419921875 -1.3888893127441406)" stroke="none"><path fill="#000000" d="M -1.11,0.22 Q -1.11,0.22 -1.21,-0.11 -1.31,-0.44 -1.32,-0.58 -1.33,-0.73 -1.30,-0.87 -1.28,-1.01 -1.22,-1.14 -1.17,-1.28 -1.08,-1.39 -0.99,-1.51 -0.88,-1.60 -0.77,-1.69 -0.64,-1.75 -0.51,-1.81 -0.36,-1.84 -0.22,-1.87 -0.08,-1.86 0.06,-1.86 0.19,-1.82 0.33,-1.77 0.46,-1.70 0.58,-1.63 0.69,-1.53 0.79,-1.43 0.87,-1.31 0.94,-1.18 0.99,-1.05 1.03,-0.91 1.04,-0.72 1.05,-0.52 0.99,-0.34 0.94,-0.15 0.83,0.00 0.71,0.16 0.56,0.27 0.40,0.39 0.22,0.44 0.03,0.50 -0.15,0.50 -0.35,0.50 -0.53,0.43 -0.71,0.36 -0.86,0.24 -1.02,0.12 -1.12,-0.03 -1.23,-0.19 -1.28,-0.38 -1.32,-0.57 -1.31,-0.76 -1.30,-0.95 -1.22,-1.13 -1.15,-1.31 -1.02,-1.46 -0.89,-1.60 -0.72,-1.70 -0.55,-1.80 -0.36,-1.83 -0.17,-1.87 0.01,-1.85 0.20,-1.82 0.38,-1.74 0.55,-1.65 0.69,-1.52 0.83,-1.38 0.91,-1.21 1.00,-1.03 1.03,-0.84 1.06,-0.65 1.02,-0.46 0.99,-0.27 0.89,-0.10 0.80,0.06 0.66,0.19 0.51,0.32 0.33,0.40 0.16,0.48 -0.03,0.49 -0.22,0.51 -0.41,0.47 -0.60,0.42 -0.76,0.32 -0.92,0.21 -1.05,0.06 -1.17,-0.08 -1.24,-0.26 -1.31,-0.44 -1.31,-0.44 -1.31,-0.44 -1.32,-0.58 -1.33,-0.73 -1.30,-0.87 -1.28,-1.01 -1.22,-1.14 -1.17,-1.28 -1.08,-1.39 -0.99,-1.51 -0.88,-1.60 -0.77,-1.69 -0.64,-1.75 -0.51,-1.81 -0.36,-1.84 -0.22,-1.87 -0.08,-1.86 0.06,-1.86 0.19,-1.82 0.33,-1.77 0.46,-1.70 0.58,-1.63 0.69,-1.53 0.79,-1.43 0.87,-1.31 0.94,-1.18 0.99,-1.05 1.03,-0.91 1.07,-0.56 1.11,-0.22 1.12,-0.08 1.13,0.05 1.11,0.18 1.09,0.32 1.03,0.44 0.98,0.57 0.90,0.68 0.81,0.79 0.71,0.87 0.60,0.96 0.48,1.02 0.35,1.08 0.22,1.10 0.08,1.13 -0.05,1.12 -0.18,1.12 -0.31,1.08 -0.45,1.04 -0.56,0.97 -0.68,0.90 -0.78,0.81 -0.88,0.71 -0.95,0.60 -1.03,0.48 -1.07,0.35 -1.11,0.22 -1.11,0.22 L -1.11,0.22 Z"/></g><g transform="translate(943.8888854980469 17.222225189208984) rotate(0 2.49993896484375 11.666664123535156)" stroke="none"><path fill="#000000" d="M 0,-1.12 Q 0,-1.12 0.79,-1.12 1.59,-1.12 1.04,-1.42 0.49,-1.72 -0.07,-1.79 -0.64,-1.86 -1.29,-1.79 -1.95,-1.71 -2.82,-1.45 -3.69,-1.20 -4.47,-0.55 -5.25,0.10 -6.39,1.61 -7.54,3.13 -8.67,5.33 -9.80,7.54 -10.60,10.19 -11.40,12.85 -11.74,15.38 -12.09,17.92 -11.93,19.72 -11.77,21.52 -11.04,22.62 -10.30,23.71 -9.01,23.85 -7.72,23.99 -6.14,23.16 -4.56,22.33 -3.11,20.76 -1.66,19.19 -0.56,17.43 0.53,15.66 0.98,14.32 1.43,12.98 1.78,12.05 2.13,11.13 2.17,11.05 2.20,10.98 2.26,10.91 2.31,10.85 2.38,10.80 2.44,10.75 2.52,10.72 2.60,10.68 2.68,10.67 2.77,10.66 2.85,10.66 2.93,10.67 3.01,10.70 3.09,10.73 3.16,10.77 3.23,10.82 3.29,10.88 3.35,10.94 3.39,11.01 3.43,11.09 3.46,11.17 3.48,11.25 3.48,11.33 3.48,11.41 3.47,11.50 3.45,11.58 4.24,11.75 5.04,11.92 6.41,12.81 7.78,13.69 8.98,14.38 10.18,15.06 11.59,15.49 12.99,15.91 14.13,15.78 15.27,15.64 15.92,15.40 16.58,15.16 15.40,15.72 14.22,16.28 12.32,17.22 10.43,18.15 8.02,19.50 5.61,20.85 3.63,22.05 1.65,23.25 0.00,24.25 -1.64,25.24 -2.47,25.79 -3.30,26.35 -3.35,26.47 -3.39,26.60 -3.48,26.64 -3.56,26.68 -3.64,26.70 -3.73,26.72 -3.82,26.72 -3.91,26.72 -4.00,26.70 -4.09,26.68 -4.17,26.63 -4.25,26.59 -4.31,26.53 -4.38,26.47 -4.43,26.39 -4.48,26.32 -4.52,26.24 -4.55,26.15 -4.56,26.06 -4.57,25.97 -4.56,25.88 -4.55,25.79 -4.51,25.71 -4.48,25.62 -4.43,25.55 -4.38,25.47 -4.31,25.41 -4.24,25.35 -3.78,25.03 -3.33,24.70 -2.10,24.25 -0.87,23.80 0.41,23.31 1.71,22.82 2.97,22.60 4.22,22.38 5.27,22.28 6.31,22.18 7.38,22.65 8.45,23.12 9.24,23.84 10.03,24.56 10.87,24.94 11.70,25.33 12.78,25.50 13.85,25.67 15.43,24.82 17.01,23.97 17.13,23.92 17.25,23.86 17.38,23.85 17.51,23.83 17.64,23.86 17.77,23.89 17.88,23.96 17.99,24.03 18.08,24.13 18.16,24.23 18.21,24.35 18.26,24.47 18.27,24.60 18.27,24.74 18.24,24.86 18.20,24.99 18.13,25.10 18.06,25.21 17.95,25.29 17.85,25.37 17.72,25.41 17.60,25.45 17.46,25.45 17.33,25.45 17.21,25.41 17.08,25.36 16.98,25.28 16.88,25.20 16.80,25.10 16.73,24.99 16.69,24.86 16.66,24.73 16.67,24.60 16.67,24.47 16.72,24.35 16.77,24.23 16.86,24.13 16.94,24.03 17.05,23.96 17.17,23.89 17.30,23.86 17.42,23.83 17.55,23.85 17.69,23.86 17.80,23.92 17.92,23.97 18.02,24.07 18.11,24.16 18.18,24.27 18.24,24.39 18.26,24.52 18.28,24.65 18.26,24.78 18.24,24.91 18.17,25.02 18.11,25.14 18.02,25.23 17.92,25.32 17.92,25.32 17.92,25.32 15.82,26.21 13.71,27.10 12.39,26.89 11.08,26.69 10.04,26.19 9.00,25.68 8.39,25.07 7.78,24.45 7.05,24.04 6.33,23.63 5.40,23.72 4.48,23.80 3.36,24.01 2.25,24.22 0.96,24.74 -0.31,25.26 -1.85,25.93 -3.39,26.60 -3.47,26.64 -3.56,26.68 -3.64,26.70 -3.73,26.72 -3.82,26.72 -3.91,26.72 -4.00,26.70 -4.09,26.68 -4.17,26.63 -4.25,26.59 -4.31,26.53 -4.38,26.47 -4.43,26.39 -4.48,26.32 -4.52,26.24 -4.55,26.15 -4.56,26.06 -4.57,25.97 -4.56,25.88 -4.55,25.79 -4.51,25.71 -4.48,25.62 -4.43,25.55 -4.38,25.47 -4.31,25.41 -4.24,25.35 -4.20,25.30 -4.15,25.25 -3.27,24.63 -2.38,24.02 -0.75,23.02 0.88,22.01 2.87,20.77 4.86,19.53 7.28,18.13 9.71,16.73 11.67,15.71 13.63,14.68 15.00,14.22 16.38,13.76 16.92,14.01 17.46,14.26 17.51,15.10 17.55,15.94 16.48,16.44 15.42,16.95 14.03,17.06 12.64,17.18 11.09,16.69 9.54,16.21 8.30,15.51 7.06,14.81 5.71,13.93 4.36,13.06 3.24,12.09 2.13,11.13 2.17,11.05 2.20,10.98 2.26,10.91 2.31,10.85 2.38,10.80 2.44,10.75 2.52,10.72 2.60,10.68 2.68,10.67 2.77,10.66 2.85,10.66 2.93,10.67 3.01,10.70 3.09,10.73 3.16,10.77 3.23,10.82 3.29,10.88 3.35,10.94 3.39,11.01 3.43,11.09 3.46,11.17 3.48,11.25 3.48,11.33 3.48,11.41 3.47,11.50 3.45,11.58 3.07,12.49 2.69,13.41 2.18,14.89 1.66,16.36 0.49,18.24 -0.67,20.11 -2.30,21.82 -3.94,23.54 -5.86,24.43 -7.78,25.33 -9.47,25.01 -11.16,24.69 -12.17,23.21 -13.18,21.74 -13.37,19.73 -13.56,17.73 -13.22,15.07 -12.88,12.41 -12.07,9.61 -11.26,6.81 -10.11,4.45 -8.96,2.09 -7.74,0.38 -6.52,-1.33 -5.50,-2.26 -4.47,-3.19 -3.35,-3.65 -2.24,-4.11 -1.22,-4.22 -0.21,-4.34 0.89,-4.10 1.99,-3.86 2.61,-3.34 3.22,-2.83 3.67,-2.10 4.12,-1.37 4.07,-0.68 4.01,0.00 3.37,0.56 2.73,1.13 2.16,1.12 1.59,1.12 0.79,1.12 0,1.12 -0.13,1.10 -0.26,1.09 -0.39,1.04 -0.52,0.99 -0.63,0.91 -0.74,0.84 -0.83,0.73 -0.92,0.63 -0.98,0.51 -1.05,0.39 -1.08,0.26 -1.11,0.13 -1.11,-0.00 -1.11,-0.13 -1.08,-0.26 -1.05,-0.39 -0.98,-0.51 -0.92,-0.63 -0.83,-0.73 -0.74,-0.84 -0.63,-0.91 -0.52,-0.99 -0.39,-1.04 -0.26,-1.09 -0.13,-1.10 0.00,-1.12 0.00,-1.12 L 0,-1.12 Z"/></g><g transform="translate(966.6665954589844 35.000003814697266) rotate(0 15 5.555553436279297)" stroke="none"><path fill="#000000" d="M 0.52,-0.63 Q 0.52,-0.63 1.46,0.18 2.40,0.99 3.63,1.44 4.87,1.89 6.10,1.78 7.33,1.66 8.59,1.02 9.85,0.38 10.65,-0.44 11.46,-1.27 11.62,-2.30 11.77,-3.33 11.57,-3.94 11.37,-4.55 10.62,-4.90 9.87,-5.25 8.55,-5.28 7.22,-5.31 5.78,-4.58 4.34,-3.85 3.28,-2.65 2.22,-1.44 1.29,0.30 0.37,2.05 -0.01,4.00 -0.39,5.95 0.04,7.62 0.47,9.28 1.68,10.23 2.89,11.18 4.25,11.43 5.61,11.67 7.21,11.02 8.82,10.37 10.45,9.17 12.08,7.96 13.25,6.83 14.42,5.69 15.36,4.83 16.30,3.98 17.19,5.81 18.08,7.65 18.35,9.42 18.62,11.18 18.89,12.88 19.16,14.59 19.46,15.47 19.77,16.35 19.77,16.44 19.77,16.53 19.76,16.61 19.74,16.70 19.70,16.78 19.66,16.87 19.60,16.94 19.55,17.01 19.47,17.06 19.40,17.11 19.32,17.15 19.24,17.18 19.15,17.20 19.06,17.21 18.97,17.21 18.88,17.20 18.79,17.17 18.71,17.14 18.63,17.09 18.56,17.05 18.49,16.98 18.43,16.92 18.39,16.84 18.34,16.76 18.32,16.67 18.29,16.59 19.24,15.93 20.19,15.27 21.01,13.86 21.83,12.45 22.86,10.23 23.90,8.02 24.83,5.81 25.75,3.59 26.50,2.27 27.25,0.95 29.39,0.58 31.54,0.21 31.65,0.27 31.76,0.34 31.84,0.43 31.93,0.53 31.98,0.65 32.03,0.77 32.03,0.90 32.04,1.02 32.01,1.15 31.98,1.27 31.91,1.38 31.84,1.49 31.73,1.57 31.63,1.65 31.51,1.69 31.39,1.73 31.26,1.73 31.13,1.73 31.01,1.69 30.89,1.66 30.79,1.58 30.68,1.50 30.61,1.40 30.54,1.29 30.50,1.17 30.46,1.05 30.47,0.92 30.47,0.79 30.52,0.67 30.57,0.55 30.65,0.45 30.73,0.35 30.84,0.28 30.95,0.22 31.07,0.19 31.20,0.16 31.33,0.17 31.45,0.18 31.57,0.23 31.69,0.29 31.78,0.37 31.88,0.46 31.94,0.57 32.00,0.69 32.02,0.81 32.05,0.94 32.03,1.07 32.01,1.19 31.95,1.31 31.89,1.42 31.80,1.51 31.71,1.60 31.59,1.66 31.47,1.71 31.35,1.73 31.22,1.74 31.09,1.72 30.97,1.69 30.97,1.69 30.97,1.69 29.69,1.68 28.41,1.68 27.74,2.90 27.06,4.13 26.14,6.38 25.22,8.63 24.16,10.94 23.10,13.24 22.00,14.92 20.89,16.61 20.33,16.48 19.77,16.35 19.77,16.44 19.77,16.53 19.76,16.61 19.74,16.70 19.70,16.78 19.66,16.87 19.60,16.94 19.55,17.01 19.47,17.06 19.40,17.11 19.32,17.15 19.24,17.18 19.15,17.20 19.06,17.21 18.97,17.21 18.88,17.20 18.79,17.17 18.71,17.14 18.63,17.09 18.56,17.05 18.49,16.98 18.43,16.92 18.39,16.84 18.34,16.76 18.32,16.67 18.29,16.59 18.04,15.70 17.78,14.81 17.50,13.11 17.21,11.41 16.92,9.66 16.63,7.92 16.39,6.51 16.14,5.09 15.74,5.86 15.34,6.64 14.10,7.83 12.86,9.03 11.08,10.32 9.30,11.60 7.38,12.28 5.45,12.97 3.78,12.60 2.10,12.23 0.68,10.99 -0.73,9.74 -1.22,7.74 -1.71,5.74 -1.27,3.59 -0.83,1.43 0.17,-0.46 1.19,-2.36 2.44,-3.72 3.70,-5.09 5.45,-5.91 7.20,-6.73 8.87,-6.65 10.54,-6.56 11.58,-5.89 12.62,-5.22 12.86,-4.18 13.11,-3.13 12.81,-1.78 12.51,-0.42 11.50,0.60 10.49,1.63 8.98,2.36 7.48,3.09 5.95,3.19 4.42,3.29 2.92,2.75 1.43,2.20 0.45,1.41 -0.52,0.63 -0.59,0.55 -0.66,0.48 -0.71,0.40 -0.75,0.31 -0.78,0.21 -0.81,0.12 -0.81,0.02 -0.81,-0.07 -0.79,-0.17 -0.77,-0.26 -0.73,-0.35 -0.69,-0.44 -0.62,-0.52 -0.56,-0.59 -0.48,-0.65 -0.40,-0.71 -0.31,-0.75 -0.22,-0.79 -0.12,-0.80 -0.02,-0.82 0.07,-0.81 0.17,-0.80 0.26,-0.77 0.35,-0.73 0.44,-0.68 0.52,-0.63 0.52,-0.63 L 0.52,-0.63 Z"/></g><g transform="translate(1002.7776794433594 33.88888931274414) rotate(0 18.0555419921875 10.555553436279297)" stroke="none"><path fill="#000000" d="M 0.17,0.87 Q 0.17,0.87 -0.59,1.04 -1.36,1.21 -1.81,1.66 -2.27,2.10 -2.63,2.96 -2.98,3.81 -3.17,4.79 -3.36,5.76 -3.46,7.29 -3.55,8.81 -3.30,10.00 -3.05,11.20 -2.61,11.71 -2.18,12.22 -0.91,11.53 0.36,10.84 1.19,9.99 2.03,9.15 2.56,8.56 3.08,7.97 3.88,7.93 4.68,7.89 5.09,8.37 5.50,8.85 5.77,10.31 6.05,11.76 6.43,13.07 6.82,14.38 7.48,15.29 8.14,16.19 8.86,16.24 9.59,16.29 10.61,15.45 11.63,14.62 12.89,13.03 14.15,11.44 15.18,9.96 16.21,8.48 16.99,7.36 17.76,6.24 18.67,5.64 19.58,5.05 20.55,4.93 21.52,4.80 22.59,4.95 23.65,5.10 24.36,5.12 25.07,5.14 25.48,4.72 25.90,4.31 25.79,3.59 25.68,2.88 25.21,3.50 24.74,4.12 24.30,5.05 23.86,5.97 23.48,7.31 23.09,8.64 23.22,9.89 23.36,11.14 23.77,12.03 24.18,12.92 24.96,13.11 25.74,13.30 26.77,12.66 27.81,12.03 28.73,11.03 29.65,10.03 30.01,8.89 30.37,7.75 30.37,6.85 30.37,5.95 29.72,5.36 29.06,4.77 29.03,4.67 29.00,4.57 29.00,4.46 28.99,4.36 29.02,4.25 29.04,4.15 29.09,4.06 29.13,3.96 29.20,3.88 29.27,3.80 29.35,3.74 29.44,3.67 29.54,3.63 29.64,3.59 29.74,3.58 29.84,3.56 29.95,3.57 30.06,3.58 30.16,3.61 30.26,3.65 30.35,3.71 30.43,3.76 30.51,3.84 30.58,3.92 30.63,4.01 30.68,4.10 30.76,4.88 30.83,5.66 31.27,7.11 31.72,8.56 32.38,10.66 33.05,12.76 34.09,14.87 35.14,16.98 37.62,18.02 40.10,19.06 40.23,19.10 40.36,19.15 40.47,19.23 40.58,19.31 40.66,19.42 40.74,19.54 40.78,19.67 40.82,19.80 40.81,19.94 40.81,20.08 40.76,20.21 40.71,20.34 40.62,20.45 40.53,20.55 40.41,20.63 40.30,20.70 40.16,20.73 40.03,20.76 39.89,20.75 39.75,20.73 39.62,20.68 39.50,20.62 39.40,20.53 39.29,20.43 39.23,20.31 39.16,20.19 39.14,20.05 39.11,19.92 39.13,19.78 39.16,19.64 39.22,19.52 39.28,19.40 39.38,19.30 39.48,19.20 39.61,19.14 39.73,19.08 39.87,19.07 40.01,19.05 40.14,19.08 40.28,19.11 40.40,19.18 40.52,19.25 40.61,19.35 40.70,19.46 40.75,19.58 40.80,19.71 40.81,19.85 40.82,19.99 40.79,20.12 40.75,20.26 40.68,20.37 40.60,20.49 40.49,20.57 40.38,20.66 40.25,20.70 40.12,20.75 39.98,20.75 39.84,20.75 39.84,20.75 39.84,20.75 36.84,19.23 33.85,17.71 32.71,15.48 31.57,13.25 30.86,11.16 30.14,9.07 29.60,6.92 29.06,4.77 29.03,4.67 29.00,4.57 29.00,4.46 28.99,4.36 29.02,4.25 29.04,4.15 29.09,4.06 29.13,3.96 29.20,3.88 29.27,3.80 29.35,3.74 29.44,3.67 29.54,3.63 29.63,3.59 29.74,3.58 29.84,3.56 29.95,3.57 30.06,3.58 30.16,3.61 30.26,3.65 30.35,3.71 30.43,3.76 30.51,3.84 30.58,3.92 30.63,4.01 30.68,4.10 30.71,3.97 30.73,3.83 31.25,4.88 31.77,5.93 31.73,7.06 31.69,8.18 31.20,9.56 30.71,10.94 29.61,12.11 28.52,13.28 27.09,13.99 25.65,14.70 24.37,14.29 23.08,13.89 22.40,12.62 21.71,11.36 21.53,9.79 21.34,8.23 21.70,6.70 22.06,5.16 22.63,3.86 23.20,2.55 24.28,1.66 25.36,0.77 26.31,1.04 27.26,1.30 27.59,1.88 27.92,2.46 27.99,3.40 28.07,4.33 27.77,5.01 27.47,5.69 26.88,6.17 26.29,6.65 25.62,6.77 24.96,6.89 24.19,6.79 23.42,6.69 22.51,6.56 21.60,6.42 20.93,6.39 20.26,6.35 19.56,6.70 18.87,7.06 18.12,8.17 17.38,9.29 16.33,10.82 15.29,12.35 13.91,14.08 12.54,15.82 11.12,16.79 9.70,17.77 8.45,17.56 7.19,17.34 6.21,16.14 5.22,14.93 4.74,13.53 4.26,12.13 4.23,10.67 4.21,9.20 3.67,9.70 3.13,10.21 2.20,11.19 1.27,12.17 0.13,12.90 -0.99,13.63 -1.95,13.53 -2.92,13.43 -3.69,12.51 -4.46,11.59 -4.77,10.17 -5.09,8.74 -5.03,7.12 -4.97,5.49 -4.78,4.31 -4.59,3.13 -4.07,1.92 -3.55,0.71 -2.69,0.07 -1.83,-0.57 -1.00,-0.72 -0.17,-0.87 -0.06,-0.88 0.03,-0.89 0.14,-0.87 0.25,-0.85 0.35,-0.81 0.45,-0.77 0.53,-0.70 0.62,-0.64 0.69,-0.55 0.75,-0.47 0.80,-0.37 0.85,-0.28 0.87,-0.17 0.89,-0.06 0.88,0.03 0.88,0.14 0.85,0.25 0.82,0.35 0.76,0.44 0.71,0.54 0.63,0.61 0.56,0.69 0.47,0.75 0.38,0.81 0.27,0.84 0.17,0.87 0.17,0.87 L 0.17,0.87 Z"/></g><g transform="translate(1057.2221374511719 51.66666793823242) rotate(0 0 1.1111106872558594)" stroke="none"><path fill="#000000" d="M 0.40,1.21 Q 0.40,1.21 0.15,1.13 -0.09,1.06 0.90,0.60 1.90,0.14 1.94,0.31 1.97,0.47 1.96,0.64 1.96,0.81 1.91,0.97 1.87,1.13 1.78,1.28 1.70,1.43 1.58,1.55 1.47,1.67 1.32,1.76 1.18,1.85 1.02,1.91 0.86,1.96 0.69,1.97 0.52,1.99 0.36,1.96 0.19,1.94 0.04,1.87 -0.11,1.81 -0.24,1.70 -0.38,1.60 -0.49,1.47 -0.59,1.34 -0.67,1.19 -0.74,1.04 -0.71,1.12 -0.68,1.20 -0.74,0.98 -0.80,0.76 -0.80,0.53 -0.79,0.31 -0.71,0.10 -0.62,-0.10 -0.48,-0.28 -0.34,-0.45 -0.14,-0.57 0.04,-0.69 0.26,-0.74 0.48,-0.80 0.70,-0.77 0.93,-0.75 1.14,-0.66 1.34,-0.57 1.51,-0.42 1.68,-0.26 1.79,-0.06 1.89,0.12 1.93,0.35 1.97,0.57 1.94,0.79 1.91,1.02 1.80,1.22 1.70,1.42 1.54,1.58 1.38,1.74 1.17,1.84 0.97,1.93 0.74,1.96 0.52,1.99 0.30,1.94 0.08,1.90 -0.11,1.78 -0.31,1.67 -0.46,1.50 -0.60,1.33 -0.69,1.12 -0.78,0.91 -0.79,0.68 -0.81,0.46 -0.75,0.24 -0.69,0.02 -0.57,-0.16 -0.44,-0.35 -0.27,-0.49 -0.09,-0.63 0.12,-0.70 0.33,-0.78 0.56,-0.78 0.78,-0.78 1.00,-0.71 1.21,-0.65 1.40,-0.51 1.58,-0.38 1.74,-0.11 1.90,0.14 1.94,0.31 1.97,0.47 1.96,0.64 1.96,0.81 1.91,0.97 1.87,1.13 1.78,1.28 1.70,1.43 1.58,1.55 1.47,1.67 1.32,1.76 1.18,1.85 1.02,1.91 0.86,1.96 0.69,1.97 0.53,1.99 0.36,1.96 0.19,1.94 0.04,1.87 -0.11,1.81 -0.24,1.70 -0.38,1.60 -0.49,1.47 -0.59,1.34 -0.67,1.19 -0.74,1.04 -1.30,1.67 -1.85,2.30 -2.11,1.45 -2.37,0.60 -2.09,0.09 -1.82,-0.42 -1.11,-0.81 -0.40,-1.21 -0.25,-1.24 -0.10,-1.27 0.05,-1.27 0.20,-1.26 0.35,-1.22 0.50,-1.18 0.63,-1.10 0.77,-1.02 0.88,-0.91 0.99,-0.81 1.07,-0.68 1.16,-0.54 1.20,-0.40 1.25,-0.25 1.27,-0.10 1.28,0.05 1.25,0.20 1.23,0.35 1.17,0.50 1.11,0.64 1.01,0.76 0.92,0.88 0.80,0.98 0.68,1.08 0.54,1.15 0.40,1.21 0.40,1.21 L 0.40,1.21 Z"/></g><g transform="translate(1070.5555114746094 18.33333969116211) rotate(0 8.611083984375 17.22221565246582)" stroke="none"><path fill="#000000" d="M 0.60,0.60 Q 0.60,0.60 0.16,1.09 -0.27,1.57 -0.56,2.55 -0.86,3.53 -1.02,5.37 -1.19,7.20 -1.43,10.10 -1.68,12.99 -1.95,16.46 -2.22,19.92 -2.66,23.02 -3.10,26.11 -3.29,28.19 -3.47,30.28 -3.36,31.17 -3.25,32.07 -3.27,32.16 -3.29,32.25 -3.33,32.33 -3.37,32.41 -3.43,32.48 -3.48,32.56 -3.56,32.61 -3.63,32.66 -3.72,32.70 -3.80,32.73 -3.89,32.75 -3.98,32.76 -4.07,32.75 -4.16,32.75 -4.25,32.72 -4.33,32.69 -4.41,32.64 -4.49,32.59 -4.55,32.52 -4.61,32.46 -4.66,32.38 -4.70,32.30 -4.73,32.21 -4.75,32.12 -4.76,32.03 -4.76,31.94 -3.97,31.00 -3.19,30.05 -1.98,28.04 -0.77,26.03 0.38,23.74 1.54,21.44 3.16,18.07 4.77,14.70 5.77,12.17 6.77,9.64 7.68,7.58 8.60,5.52 8.99,4.34 9.37,3.15 9.41,3.08 9.45,3.01 9.51,2.95 9.57,2.90 9.64,2.85 9.70,2.81 9.78,2.79 9.86,2.76 9.94,2.76 10.02,2.75 10.10,2.77 10.18,2.78 10.25,2.81 10.32,2.85 10.39,2.90 10.45,2.95 10.50,3.01 10.55,3.07 10.58,3.14 10.62,3.22 10.63,3.30 10.64,3.37 10.64,3.45 10.64,3.53 10.61,3.61 10.59,3.69 10.14,4.99 9.69,6.30 9.01,8.22 8.32,10.14 7.22,12.74 6.12,15.34 4.85,18.04 3.58,20.74 2.39,22.87 1.20,24.99 0.38,25.89 -0.42,26.78 -0.47,26.84 -0.52,26.91 -0.58,26.96 -0.64,27.01 -0.71,27.05 -0.79,27.08 -0.87,27.10 -0.94,27.12 -1.02,27.11 -1.10,27.11 -1.18,27.09 -1.26,27.07 -1.33,27.03 -1.40,26.99 -1.46,26.94 -1.52,26.88 -1.56,26.81 -1.61,26.75 -1.63,26.67 -1.66,26.59 -1.67,26.51 -1.67,26.43 -1.66,26.35 -1.65,26.27 -1.62,26.20 -1.59,26.13 -1.27,24.65 -0.94,23.17 -0.20,21.83 0.53,20.49 1.51,19.24 2.50,18.00 3.37,17.37 4.24,16.75 5.14,16.99 6.04,17.23 6.33,18.69 6.62,20.15 6.53,21.90 6.44,23.66 6.39,25.16 6.34,26.66 6.59,27.97 6.84,29.27 7.90,29.18 8.96,29.08 9.88,28.40 10.80,27.72 11.67,26.81 12.55,25.91 13.05,25.09 13.56,24.27 13.59,23.86 13.61,23.44 13.68,23.36 13.74,23.29 13.82,23.22 13.90,23.16 14.00,23.12 14.09,23.08 14.19,23.06 14.29,23.05 14.39,23.05 14.49,23.06 14.59,23.09 14.68,23.12 14.77,23.17 14.86,23.23 14.93,23.30 15.00,23.37 15.05,23.46 15.10,23.55 15.13,23.64 15.16,23.74 15.17,23.84 15.17,23.94 15.15,24.04 15.13,24.14 15.09,24.24 15.05,24.33 14.33,25.11 13.62,25.89 13.28,27.07 12.95,28.26 13.10,29.62 13.26,30.98 13.86,31.92 14.46,32.87 15.35,33.08 16.25,33.29 17.32,32.81 18.40,32.33 19.15,31.56 19.90,30.79 20.19,29.95 20.48,29.10 19.02,30.51 17.55,31.92 17.48,32.05 17.41,32.18 17.30,32.28 17.19,32.38 17.05,32.44 16.92,32.50 16.77,32.52 16.62,32.53 16.47,32.50 16.33,32.46 16.20,32.38 16.08,32.31 15.98,32.19 15.89,32.08 15.83,31.94 15.78,31.80 15.77,31.65 15.77,31.50 15.81,31.36 15.85,31.22 15.93,31.09 16.02,30.97 16.14,30.88 16.26,30.79 16.40,30.75 16.54,30.70 16.69,30.70 16.84,30.71 16.98,30.75 17.12,30.80 17.24,30.90 17.35,30.99 17.44,31.11 17.52,31.23 17.56,31.38 17.59,31.52 17.59,31.67 17.58,31.82 17.52,31.96 17.46,32.09 17.36,32.21 17.27,32.32 17.14,32.39 17.01,32.47 16.86,32.50 16.72,32.53 16.57,32.51 16.42,32.50 16.29,32.43 16.15,32.37 16.05,32.26 15.94,32.16 15.87,32.03 15.80,31.90 15.78,31.75 15.76,31.60 15.78,31.45 15.81,31.31 15.81,31.31 15.81,31.31 17.73,29.18 19.66,27.05 20.42,27.29 21.19,27.53 21.48,28.47 21.76,29.41 21.33,30.56 20.89,31.72 19.92,32.66 18.95,33.60 17.50,34.12 16.04,34.65 14.74,34.23 13.43,33.81 12.60,32.51 11.78,31.21 11.59,29.55 11.40,27.89 11.76,26.48 12.13,25.08 12.87,24.26 13.61,23.44 13.68,23.37 13.74,23.29 13.82,23.22 13.90,23.16 14.00,23.12 14.09,23.08 14.19,23.06 14.29,23.05 14.39,23.05 14.49,23.06 14.59,23.09 14.68,23.12 14.77,23.17 14.86,23.23 14.93,23.30 15.00,23.37 15.05,23.46 15.10,23.55 15.13,23.64 15.16,23.74 15.17,23.84 15.17,23.94 15.15,24.04 15.13,24.14 15.09,24.24 15.05,24.33 14.93,24.67 14.81,25.01 14.22,25.97 13.63,26.93 12.68,27.95 11.73,28.97 10.61,29.80 9.49,30.64 8.37,30.89 7.25,31.14 6.41,30.46 5.58,29.79 5.22,28.21 4.86,26.64 4.87,25.11 4.89,23.59 4.95,21.99 5.00,20.38 4.87,19.23 4.73,18.08 4.16,18.48 3.59,18.88 2.69,20.03 1.79,21.18 1.10,22.48 0.40,23.79 -0.01,25.28 -0.42,26.78 -0.47,26.84 -0.52,26.91 -0.58,26.96 -0.64,27.01 -0.71,27.05 -0.79,27.08 -0.87,27.10 -0.94,27.12 -1.02,27.11 -1.10,27.11 -1.18,27.09 -1.26,27.07 -1.33,27.03 -1.40,26.99 -1.46,26.94 -1.52,26.88 -1.56,26.81 -1.61,26.75 -1.63,26.67 -1.66,26.59 -1.67,26.51 -1.67,26.43 -1.66,26.35 -1.65,26.28 -1.62,26.20 -1.59,26.13 -0.77,25.23 0.04,24.33 1.20,22.25 2.36,20.17 3.61,17.49 4.86,14.80 5.94,12.24 7.02,9.68 7.70,7.72 8.38,5.77 8.88,4.46 9.37,3.15 9.41,3.08 9.45,3.01 9.51,2.95 9.57,2.90 9.64,2.85 9.70,2.81 9.78,2.79 9.86,2.76 9.94,2.76 10.02,2.75 10.10,2.77 10.18,2.78 10.25,2.81 10.32,2.85 10.39,2.90 10.45,2.95 10.50,3.01 10.55,3.07 10.58,3.14 10.62,3.22 10.63,3.30 10.64,3.37 10.64,3.45 10.64,3.53 10.61,3.61 10.59,3.69 10.21,4.88 9.82,6.07 8.92,8.10 8.02,10.13 7.01,12.71 6.00,15.29 4.39,18.67 2.77,22.06 1.60,24.41 0.42,26.75 -0.85,28.88 -2.13,31.01 -2.69,31.54 -3.25,32.07 -3.27,32.16 -3.29,32.25 -3.33,32.33 -3.37,32.41 -3.43,32.48 -3.48,32.56 -3.56,32.61 -3.63,32.66 -3.72,32.70 -3.80,32.73 -3.89,32.75 -3.98,32.76 -4.07,32.75 -4.16,32.75 -4.25,32.72 -4.33,32.69 -4.41,32.64 -4.49,32.59 -4.55,32.52 -4.61,32.46 -4.66,32.38 -4.70,32.30 -4.73,32.21 -4.75,32.12 -4.76,32.03 -4.76,31.94 -4.81,31.05 -4.87,30.16 -4.69,28.04 -4.51,25.91 -4.10,22.86 -3.68,19.82 -3.44,16.35 -3.20,12.88 -3.00,9.98 -2.79,7.08 -2.65,5.05 -2.50,3.03 -2.07,1.68 -1.64,0.34 -1.12,-0.13 -0.60,-0.60 -0.52,-0.66 -0.44,-0.73 -0.34,-0.77 -0.25,-0.81 -0.15,-0.83 -0.05,-0.85 0.05,-0.84 0.15,-0.84 0.25,-0.80 0.35,-0.77 0.43,-0.72 0.52,-0.67 0.59,-0.59 0.67,-0.52 0.72,-0.43 0.77,-0.35 0.80,-0.25 0.84,-0.15 0.84,-0.05 0.85,0.05 0.83,0.15 0.81,0.25 0.77,0.34 0.73,0.44 0.66,0.52 0.60,0.60 0.60,0.60 L 0.60,0.60 Z"/></g><g transform="translate(1099.4444274902344 22.777774810791016) rotate(0 4.44439697265625 14.72222900390625)" stroke="none"><path fill="#000000" d="M -0.87,-0.14 Q -0.87,-0.14 -0.70,-1.10 -0.54,-2.05 -0.03,-3.16 0.47,-4.27 0.15,-3.85 -0.16,-3.44 -0.13,-3.55 -0.11,-3.67 -0.05,-3.78 -0.00,-3.89 0.07,-3.98 0.14,-4.07 0.24,-4.14 0.34,-4.21 0.45,-4.26 0.56,-4.31 0.68,-4.32 0.80,-4.34 0.92,-4.33 1.04,-4.32 1.15,-4.28 1.27,-4.24 1.37,-4.17 1.47,-4.11 1.55,-4.02 1.63,-3.93 1.69,-3.83 1.75,-3.72 1.78,-3.61 1.81,-3.49 1.82,-3.37 1.82,-3.25 1.75,-2.59 1.67,-1.93 1.59,-0.91 1.52,0.11 0.98,2.86 0.45,5.61 -0.10,8.35 -0.65,11.09 -1.38,14.81 -2.10,18.52 -2.41,21.51 -2.72,24.49 -2.79,25.90 -2.86,27.30 -2.04,27.67 -1.23,28.04 -0.38,27.77 0.47,27.51 1.75,26.35 3.03,25.19 3.94,24.36 4.85,23.52 5.14,23.06 5.42,22.59 5.41,22.30 5.40,22.02 5.48,21.94 5.55,21.87 5.64,21.81 5.73,21.76 5.83,21.72 5.92,21.69 6.03,21.68 6.13,21.68 6.24,21.69 6.34,21.71 6.44,21.75 6.53,21.79 6.62,21.85 6.70,21.92 6.77,22.00 6.83,22.08 6.88,22.17 6.92,22.27 6.94,22.37 6.96,22.47 6.96,22.58 6.95,22.68 6.92,22.78 6.90,22.88 6.84,22.97 6.79,23.06 6.30,23.64 5.81,24.21 5.14,25.17 4.47,26.14 4.04,27.43 3.62,28.71 3.57,29.79 3.53,30.87 3.93,31.47 4.33,32.06 5.38,31.88 6.42,31.70 7.44,31.07 8.46,30.44 9.49,28.82 10.52,27.19 10.81,25.97 11.09,24.74 10.16,24.42 9.22,24.10 7.93,25.63 6.64,27.17 6.55,27.27 6.45,27.38 6.32,27.45 6.20,27.53 6.06,27.55 5.91,27.58 5.77,27.56 5.63,27.54 5.50,27.48 5.37,27.42 5.26,27.31 5.16,27.21 5.10,27.08 5.03,26.95 5.01,26.81 4.99,26.67 5.02,26.52 5.04,26.38 5.12,26.26 5.19,26.13 5.29,26.03 5.40,25.94 5.53,25.88 5.67,25.82 5.81,25.81 5.95,25.79 6.10,25.83 6.24,25.86 6.36,25.94 6.48,26.02 6.57,26.13 6.66,26.24 6.71,26.38 6.76,26.52 6.77,26.66 6.77,26.80 6.73,26.94 6.69,27.08 6.61,27.20 6.52,27.32 6.40,27.40 6.29,27.49 6.15,27.53 6.01,27.57 5.87,27.57 5.72,27.57 5.58,27.52 5.45,27.47 5.34,27.38 5.22,27.29 5.14,27.17 5.06,27.04 5.03,26.90 4.99,26.76 5.01,26.62 5.02,26.47 5.07,26.34 5.13,26.21 5.13,26.21 5.13,26.21 7.13,24.38 9.12,22.55 10.23,22.64 11.34,22.74 11.87,23.80 12.39,24.87 12.03,26.39 11.68,27.91 10.45,29.75 9.21,31.59 7.91,32.34 6.62,33.09 5.21,33.15 3.81,33.21 2.96,32.12 2.11,31.03 2.13,29.64 2.14,28.26 2.62,26.75 3.10,25.25 3.79,24.15 4.48,23.06 4.94,22.54 5.40,22.02 5.48,21.94 5.55,21.87 5.64,21.81 5.73,21.76 5.83,21.72 5.92,21.69 6.03,21.68 6.13,21.68 6.24,21.69 6.34,21.71 6.44,21.75 6.53,21.79 6.62,21.85 6.70,21.92 6.77,22.00 6.83,22.08 6.88,22.17 6.92,22.27 6.94,22.37 6.96,22.47 6.96,22.58 6.95,22.68 6.92,22.78 6.90,22.88 6.84,22.97 6.79,23.06 6.77,23.22 6.75,23.37 6.25,23.94 5.76,24.51 4.84,25.36 3.92,26.21 2.39,27.51 0.86,28.80 -0.38,29.05 -1.63,29.30 -2.76,28.62 -3.90,27.95 -4.03,26.15 -4.17,24.35 -3.88,21.30 -3.59,18.24 -2.90,14.52 -2.22,10.79 -1.71,8.05 -1.21,5.31 -0.76,2.68 -0.31,0.05 -0.32,-1.06 -0.32,-2.18 -0.24,-2.81 -0.16,-3.44 -0.13,-3.55 -0.11,-3.67 -0.05,-3.78 -0.00,-3.89 0.07,-3.98 0.14,-4.07 0.24,-4.14 0.34,-4.21 0.45,-4.26 0.56,-4.31 0.68,-4.32 0.80,-4.34 0.92,-4.33 1.04,-4.32 1.15,-4.28 1.27,-4.24 1.37,-4.17 1.47,-4.11 1.55,-4.02 1.63,-3.93 1.69,-3.83 1.75,-3.72 1.78,-3.61 1.81,-3.49 1.82,-3.37 1.82,-3.25 1.50,-2.51 1.17,-1.77 1.02,-0.81 0.87,0.14 0.84,0.24 0.81,0.35 0.76,0.44 0.70,0.53 0.63,0.61 0.56,0.69 0.46,0.74 0.37,0.80 0.27,0.83 0.17,0.87 0.06,0.88 -0.03,0.88 -0.14,0.87 -0.25,0.85 -0.34,0.81 -0.44,0.76 -0.53,0.70 -0.61,0.63 -0.68,0.55 -0.75,0.47 -0.80,0.37 -0.84,0.27 -0.86,0.17 -0.88,0.06 -0.88,-0.03 -0.87,-0.14 -0.87,-0.14 L -0.87,-0.14 Z"/></g><g transform="translate(1118.8887634277344 28.33333969116211) rotate(0 -0.2777099609375 12.222217559814453)" stroke="none"><path fill="#000000" d="M -0.93,0 Q -0.93,0 -0.91,-0.95 -0.90,-1.90 -1.10,-2.47 -1.31,-3.05 -1.29,-3.16 -1.28,-3.28 -1.24,-3.40 -1.19,-3.51 -1.13,-3.61 -1.06,-3.70 -0.97,-3.78 -0.88,-3.86 -0.77,-3.92 -0.67,-3.97 -0.55,-4.00 -0.43,-4.03 -0.31,-4.03 -0.19,-4.03 -0.08,-4.00 0.03,-3.97 0.13,-3.92 0.24,-3.86 0.33,-3.78 0.42,-3.70 0.49,-3.61 0.55,-3.51 0.60,-3.40 0.64,-3.28 0.65,-3.16 0.67,-3.05 0.53,-1.51 0.39,0.02 0.18,1.80 -0.02,3.59 -0.27,6.88 -0.53,10.17 -0.81,12.70 -1.09,15.23 -0.95,17.09 -0.81,18.95 -0.13,19.43 0.54,19.90 0.54,20.00 0.53,20.10 0.51,20.20 0.48,20.29 0.44,20.38 0.39,20.47 0.32,20.54 0.25,20.62 0.17,20.67 0.08,20.73 -0.00,20.76 -0.09,20.79 -0.19,20.81 -0.29,20.82 -0.39,20.80 -0.49,20.79 -0.59,20.75 -0.68,20.71 -0.76,20.65 -0.84,20.60 -0.91,20.52 -0.97,20.44 -1.02,20.35 -1.06,20.26 -1.08,20.17 -1.11,20.07 -0.27,18.72 0.56,17.37 1.17,16.14 1.78,14.90 2.20,13.82 2.61,12.74 2.42,12.32 2.23,11.90 2.27,11.81 2.31,11.72 2.38,11.65 2.44,11.58 2.52,11.52 2.60,11.47 2.68,11.43 2.77,11.40 2.87,11.38 2.96,11.37 3.06,11.38 3.16,11.39 3.25,11.42 3.34,11.45 3.42,11.51 3.50,11.56 3.56,11.63 3.63,11.70 3.67,11.79 3.72,11.87 3.74,11.96 3.77,12.06 3.77,12.15 3.77,12.25 3.75,12.34 3.73,12.44 3.31,13.15 2.90,13.87 2.27,15.37 1.63,16.87 0.54,18.99 -0.54,21.11 -1.66,22.98 -2.77,24.84 -3.95,26.06 -5.13,27.28 -5.72,26.80 -6.31,26.32 -5.99,25.04 -5.67,23.76 -5.01,22.55 -4.34,21.33 -3.71,20.47 -3.09,19.60 -2.22,19.34 -1.36,19.08 -0.69,19.65 -0.03,20.22 0.52,21.18 1.07,22.13 1.69,22.74 2.32,23.35 3.58,23.22 4.85,23.09 5.00,23.08 5.15,23.07 5.30,23.10 5.45,23.14 5.58,23.22 5.71,23.30 5.80,23.41 5.90,23.53 5.95,23.67 6.01,23.82 6.01,23.97 6.02,24.12 5.98,24.27 5.93,24.41 5.85,24.54 5.76,24.66 5.64,24.75 5.51,24.85 5.37,24.89 5.22,24.94 5.07,24.94 4.92,24.93 4.77,24.88 4.63,24.83 4.51,24.74 4.39,24.64 4.31,24.52 4.22,24.39 4.18,24.24 4.15,24.09 4.16,23.94 4.17,23.79 4.23,23.65 4.28,23.51 4.38,23.39 4.48,23.28 4.62,23.20 4.75,23.13 4.90,23.09 5.05,23.06 5.20,23.08 5.35,23.10 5.49,23.17 5.62,23.23 5.73,23.34 5.84,23.45 5.91,23.58 5.98,23.72 6.00,23.87 6.03,24.02 6.00,24.17 5.97,24.32 5.90,24.45 5.83,24.59 5.71,24.69 5.60,24.79 5.46,24.86 5.32,24.92 5.32,24.92 5.32,24.92 3.24,24.75 1.15,24.59 0.36,23.82 -0.41,23.04 -1.19,21.79 -1.96,20.55 -2.50,21.29 -3.05,22.04 -3.63,23.11 -4.20,24.19 -4.48,25.15 -4.76,26.11 -4.37,25.12 -3.99,24.12 -2.91,22.29 -1.84,20.45 -0.79,18.38 0.25,16.30 0.89,14.69 1.54,13.08 1.88,12.49 2.23,11.90 2.27,11.81 2.31,11.72 2.38,11.65 2.44,11.58 2.52,11.52 2.60,11.47 2.68,11.43 2.77,11.40 2.87,11.38 2.96,11.37 3.06,11.38 3.16,11.39 3.25,11.42 3.34,11.45 3.42,11.51 3.50,11.56 3.56,11.63 3.63,11.70 3.67,11.79 3.72,11.87 3.74,11.96 3.77,12.06 3.77,12.15 3.77,12.25 3.75,12.34 3.73,12.44 3.81,12.70 3.90,12.96 3.46,14.24 3.03,15.51 2.39,16.83 1.75,18.14 1.14,19.02 0.54,19.90 0.54,20.00 0.53,20.10 0.51,20.20 0.48,20.29 0.44,20.38 0.39,20.47 0.32,20.54 0.25,20.62 0.17,20.67 0.08,20.73 -0.00,20.76 -0.09,20.79 -0.19,20.81 -0.29,20.82 -0.39,20.80 -0.49,20.79 -0.59,20.75 -0.68,20.71 -0.76,20.65 -0.84,20.60 -0.91,20.52 -0.97,20.44 -1.02,20.35 -1.06,20.26 -1.08,20.17 -1.11,20.07 -1.57,19.77 -2.03,19.48 -2.31,17.28 -2.58,15.08 -2.35,12.57 -2.11,10.06 -1.90,6.74 -1.69,3.43 -1.55,1.70 -1.42,-0.02 -1.36,-1.53 -1.31,-3.05 -1.29,-3.16 -1.28,-3.28 -1.24,-3.40 -1.19,-3.51 -1.13,-3.61 -1.06,-3.70 -0.97,-3.78 -0.88,-3.86 -0.77,-3.92 -0.67,-3.97 -0.55,-4.00 -0.43,-4.03 -0.31,-4.03 -0.19,-4.03 -0.08,-4.00 0.03,-3.97 0.13,-3.92 0.24,-3.86 0.33,-3.78 0.42,-3.70 0.49,-3.61 0.55,-3.51 0.60,-3.40 0.64,-3.28 0.65,-3.16 0.67,-3.05 0.79,-2.48 0.90,-1.92 0.91,-0.96 0.93,0 0.91,0.11 0.90,0.22 0.86,0.32 0.82,0.43 0.76,0.52 0.69,0.61 0.61,0.69 0.52,0.76 0.42,0.81 0.32,0.87 0.22,0.89 0.11,0.92 -0.00,0.92 -0.11,0.92 -0.22,0.89 -0.33,0.87 -0.42,0.81 -0.52,0.76 -0.61,0.69 -0.69,0.61 -0.76,0.52 -0.82,0.43 -0.86,0.32 -0.90,0.22 -0.91,0.11 -0.93,-0.00 -0.93,-0.00 L -0.93,0 Z"/></g><g transform="translate(1125.5555114746094 41.66666793823242) rotate(0 8.33331298828125 11.11111068725586)" stroke="none"><path fill="#000000" d="M 0.76,0.32 Q 0.76,0.32 0.26,1.43 -0.23,2.54 -0.59,3.91 -0.95,5.28 -1.11,7.74 -1.26,10.19 -1.18,12.02 -1.10,13.85 -0.75,14.90 -0.41,15.96 0.36,15.23 1.15,14.50 1.89,13.14 2.63,11.78 3.13,10.85 3.63,9.92 3.94,9.50 4.26,9.08 4.32,8.99 4.37,8.91 4.45,8.84 4.53,8.78 4.62,8.73 4.71,8.68 4.81,8.66 4.90,8.63 5.01,8.63 5.11,8.63 5.21,8.66 5.31,8.68 5.40,8.73 5.49,8.78 5.56,8.84 5.64,8.91 5.70,9.00 5.75,9.08 5.79,9.17 5.83,9.27 5.84,9.37 5.85,9.47 5.84,9.57 5.83,9.67 5.79,9.77 5.75,9.86 6.15,11.39 6.55,12.91 6.79,14.43 7.03,15.96 7.31,16.92 7.60,17.88 8.46,16.85 9.31,15.81 9.94,14.10 10.56,12.39 11.00,10.71 11.43,9.03 11.75,7.86 12.06,6.69 12.58,6.37 13.10,6.06 13.79,6.11 14.47,6.15 15.20,6.34 15.93,6.52 17.13,7.13 18.34,7.73 18.19,8.53 18.05,9.33 17.83,9.95 17.62,10.56 17.31,11.85 17.01,13.13 16.68,15.12 16.36,17.11 16.51,18.46 16.65,19.81 17.12,20.31 17.58,20.82 17.58,20.94 17.58,21.06 17.56,21.17 17.53,21.29 17.48,21.39 17.43,21.50 17.35,21.58 17.27,21.67 17.18,21.74 17.08,21.81 16.97,21.85 16.86,21.90 16.75,21.91 16.63,21.93 16.51,21.92 16.40,21.90 16.29,21.86 16.18,21.82 16.08,21.76 15.98,21.69 15.90,21.61 15.82,21.52 15.77,21.42 15.71,21.31 15.68,21.20 15.65,21.09 16.70,18.68 17.75,16.27 17.83,16.13 17.92,16.00 18.04,15.90 18.16,15.80 18.31,15.74 18.46,15.69 18.62,15.68 18.78,15.68 18.93,15.72 19.09,15.77 19.22,15.86 19.35,15.95 19.44,16.08 19.53,16.21 19.58,16.36 19.63,16.51 19.62,16.67 19.62,16.83 19.57,16.98 19.51,17.13 19.41,17.26 19.31,17.38 19.18,17.47 19.04,17.55 18.89,17.59 18.74,17.63 18.58,17.62 18.42,17.61 18.27,17.55 18.13,17.48 18.01,17.38 17.89,17.27 17.81,17.13 17.73,16.99 17.70,16.84 17.67,16.68 17.69,16.52 17.71,16.37 17.78,16.22 17.85,16.08 17.96,15.97 18.07,15.85 18.22,15.78 18.36,15.71 18.52,15.69 18.67,15.67 18.83,15.70 18.99,15.73 19.13,15.80 19.27,15.88 19.37,16.00 19.48,16.12 19.54,16.26 19.61,16.41 19.62,16.57 19.63,16.73 19.60,16.88 19.56,17.04 19.56,17.04 19.56,17.04 18.57,18.93 17.58,20.82 17.58,20.94 17.58,21.06 17.56,21.17 17.53,21.29 17.48,21.39 17.43,21.50 17.35,21.58 17.27,21.67 17.18,21.74 17.08,21.81 16.97,21.85 16.86,21.90 16.75,21.91 16.63,21.93 16.51,21.92 16.40,21.90 16.29,21.86 16.18,21.82 16.08,21.76 15.98,21.69 15.90,21.61 15.82,21.52 15.77,21.42 15.71,21.31 15.68,21.20 15.65,21.09 15.30,20.64 14.95,20.19 14.69,18.53 14.42,16.88 14.64,14.81 14.86,12.74 15.06,11.24 15.27,9.74 15.72,8.72 16.16,7.71 15.76,8.06 15.36,8.42 14.72,8.19 14.08,7.97 13.51,7.74 12.94,7.52 12.89,8.45 12.84,9.38 12.41,11.14 11.97,12.90 11.31,14.77 10.65,16.64 9.77,17.93 8.88,19.21 7.78,19.00 6.68,18.79 6.11,17.50 5.54,16.21 5.26,14.70 4.99,13.18 4.75,11.93 4.52,10.68 4.39,9.88 4.26,9.08 4.32,8.99 4.37,8.91 4.45,8.84 4.53,8.78 4.62,8.73 4.71,8.68 4.81,8.66 4.90,8.63 5.01,8.63 5.11,8.63 5.21,8.66 5.31,8.68 5.40,8.73 5.49,8.78 5.56,8.84 5.64,8.91 5.70,9.00 5.75,9.08 5.79,9.17 5.83,9.27 5.84,9.37 5.85,9.47 5.84,9.57 5.83,9.67 5.79,9.77 5.75,9.86 5.33,10.24 4.91,10.61 4.43,11.55 3.94,12.49 3.12,14.02 2.30,15.55 1.40,16.41 0.50,17.27 -0.30,17.10 -1.11,16.93 -1.81,15.43 -2.50,13.94 -2.61,12.02 -2.71,10.11 -2.56,7.51 -2.41,4.92 -2.04,3.42 -1.68,1.92 -1.22,0.79 -0.76,-0.32 -0.71,-0.41 -0.66,-0.50 -0.59,-0.57 -0.52,-0.64 -0.44,-0.70 -0.35,-0.75 -0.26,-0.78 -0.16,-0.81 -0.06,-0.82 0.03,-0.83 0.13,-0.81 0.23,-0.80 0.32,-0.76 0.41,-0.72 0.50,-0.66 0.58,-0.60 0.64,-0.52 0.70,-0.44 0.75,-0.35 0.79,-0.26 0.81,-0.16 0.83,-0.06 0.82,0.03 0.82,0.13 0.79,0.23 0.76,0.32 0.76,0.32 L 0.76,0.32 Z"/></g><g transform="translate(1144.4444274902344 31.11111068725586) rotate(0 -0.55560302734375 3.0555572509765625)" stroke="none"><path fill="#000000" d="M -1.02,0 Q -1.02,0 -1.03,-0.79 -1.04,-1.59 -1.02,-1.72 -1.01,-1.84 -0.96,-1.96 -0.92,-2.08 -0.85,-2.18 -0.77,-2.28 -0.68,-2.37 -0.59,-2.45 -0.48,-2.51 -0.36,-2.57 -0.24,-2.60 -0.12,-2.63 0.00,-2.63 0.12,-2.63 0.24,-2.60 0.36,-2.57 0.48,-2.51 0.59,-2.45 0.68,-2.37 0.77,-2.28 0.85,-2.18 0.92,-2.08 0.96,-1.96 1.01,-1.84 1.02,-1.72 1.04,-1.59 0.87,-0.95 0.71,-0.32 0.45,0.89 0.19,2.11 0.08,5.19 -0.02,8.28 -0.05,8.45 -0.09,8.62 -0.17,8.76 -0.26,8.91 -0.39,9.03 -0.52,9.14 -0.68,9.21 -0.84,9.27 -1.01,9.28 -1.18,9.29 -1.35,9.25 -1.51,9.21 -1.66,9.11 -1.80,9.02 -1.91,8.88 -2.01,8.75 -2.07,8.58 -2.13,8.42 -2.13,8.25 -2.13,8.08 -2.08,7.91 -2.03,7.75 -1.92,7.61 -1.82,7.47 -1.68,7.38 -1.54,7.28 -1.38,7.23 -1.21,7.18 -1.04,7.19 -0.87,7.19 -0.71,7.26 -0.55,7.32 -0.41,7.43 -0.28,7.54 -0.19,7.68 -0.10,7.83 -0.06,8.00 -0.02,8.16 -0.04,8.33 -0.05,8.51 -0.12,8.66 -0.19,8.82 -0.31,8.95 -0.42,9.07 -0.58,9.16 -0.73,9.24 -0.90,9.27 -1.07,9.30 -1.24,9.27 -1.41,9.25 -1.56,9.17 -1.71,9.09 -1.83,8.97 -1.95,8.84 -2.03,8.69 -2.10,8.53 -2.12,8.36 -2.14,8.19 -2.14,8.19 -2.14,8.19 -1.94,4.98 -1.74,1.78 -1.39,0.09 -1.04,-1.59 -1.02,-1.72 -1.01,-1.84 -0.96,-1.96 -0.92,-2.08 -0.85,-2.18 -0.77,-2.28 -0.68,-2.37 -0.59,-2.45 -0.48,-2.51 -0.36,-2.57 -0.24,-2.60 -0.12,-2.63 -0.00,-2.63 0.12,-2.63 0.24,-2.60 0.36,-2.57 0.48,-2.51 0.59,-2.45 0.68,-2.37 0.77,-2.28 0.85,-2.18 0.92,-2.08 0.96,-1.96 1.01,-1.84 1.02,-1.72 1.04,-1.59 1.03,-0.79 1.02,0 1.00,0.12 0.99,0.24 0.95,0.36 0.90,0.47 0.83,0.57 0.76,0.67 0.67,0.76 0.58,0.84 0.47,0.89 0.36,0.95 0.24,0.98 0.12,1.01 -0.00,1.01 -0.12,1.01 -0.24,0.98 -0.36,0.95 -0.47,0.89 -0.58,0.84 -0.67,0.76 -0.76,0.67 -0.83,0.57 -0.90,0.47 -0.95,0.36 -0.99,0.24 -1.00,0.12 -1.02,-0.00 -1.02,-0.00 L -1.02,0 Z"/></g><g transform="translate(1148.8887634277344 48.33333206176758) rotate(0 10.8333740234375 12.222221374511719)" stroke="none"><path fill="#000000" d="M 0.74,0.32 Q 0.74,0.32 0.24,1.42 -0.24,2.53 -0.60,4.06 -0.96,5.58 -1.12,7.80 -1.27,10.01 -1.19,11.74 -1.10,13.46 -0.86,14.21 -0.61,14.95 -0.62,15.05 -0.62,15.15 -0.65,15.24 -0.68,15.33 -0.73,15.41 -0.78,15.49 -0.85,15.56 -0.92,15.63 -1.00,15.67 -1.08,15.72 -1.17,15.75 -1.26,15.78 -1.36,15.78 -1.45,15.79 -1.55,15.77 -1.64,15.75 -1.73,15.71 -1.82,15.67 -1.89,15.61 -1.97,15.55 -2.02,15.48 -2.08,15.40 -2.12,15.32 -2.16,15.23 -2.18,15.13 -2.19,15.04 -1.12,14.11 -0.05,13.18 0.71,11.88 1.49,10.58 2.32,9.05 3.16,7.52 3.98,6.29 4.80,5.07 4.91,5.12 5.02,5.16 5.08,5.09 5.13,5.02 5.21,4.96 5.28,4.90 5.36,4.86 5.45,4.82 5.54,4.81 5.63,4.79 5.72,4.79 5.81,4.80 5.90,4.83 5.99,4.85 6.07,4.90 6.15,4.95 6.22,5.01 6.28,5.08 6.33,5.16 6.38,5.24 6.41,5.32 6.44,5.41 6.44,5.51 6.45,5.60 6.43,5.69 6.42,5.78 6.38,5.87 6.34,5.95 6.31,6.88 6.27,7.81 6.25,9.40 6.24,10.98 6.23,12.45 6.22,13.93 6.43,14.71 6.63,15.50 6.62,15.59 6.61,15.68 6.58,15.77 6.54,15.85 6.49,15.93 6.44,16.00 6.37,16.06 6.30,16.12 6.22,16.17 6.14,16.21 6.05,16.23 5.96,16.25 5.87,16.25 5.78,16.25 5.69,16.23 5.60,16.20 5.52,16.16 5.44,16.12 5.37,16.06 5.31,16.00 5.25,15.92 5.20,15.85 5.17,15.76 5.14,15.68 5.13,15.59 5.12,15.50 5.71,15.02 6.29,14.54 6.80,13.66 7.30,12.77 7.88,11.44 8.45,10.10 8.87,9.05 9.28,7.99 9.57,7.36 9.85,6.72 9.90,6.64 9.95,6.55 10.01,6.48 10.08,6.40 10.16,6.35 10.24,6.29 10.33,6.26 10.42,6.23 10.52,6.21 10.62,6.20 10.71,6.21 10.81,6.23 10.90,6.26 10.99,6.30 11.07,6.35 11.15,6.41 11.22,6.48 11.28,6.56 11.33,6.64 11.37,6.73 11.40,6.83 11.42,6.92 11.42,7.02 11.42,7.12 11.39,7.21 11.37,7.31 11.58,8.80 11.79,10.29 11.80,12.12 11.81,13.96 11.81,15.69 11.81,17.43 11.63,18.17 11.45,18.90 12.19,17.89 12.92,16.88 13.65,15.30 14.37,13.72 14.83,12.43 15.30,11.15 15.60,10.57 15.91,9.99 15.95,9.90 16.00,9.81 16.06,9.74 16.12,9.66 16.21,9.60 16.29,9.54 16.38,9.50 16.47,9.47 16.57,9.45 16.67,9.44 16.77,9.45 16.87,9.46 16.96,9.49 17.06,9.52 17.14,9.58 17.23,9.63 17.29,9.71 17.36,9.78 17.41,9.87 17.46,9.95 17.49,10.05 17.51,10.15 17.51,10.25 17.52,10.35 17.50,10.45 17.47,10.54 17.53,11.97 17.59,13.39 17.53,14.97 17.47,16.54 17.44,17.83 17.40,19.12 17.78,19.70 18.15,20.29 18.14,20.39 18.12,20.49 18.08,20.58 18.05,20.68 17.99,20.76 17.93,20.84 17.85,20.91 17.78,20.97 17.69,21.02 17.60,21.06 17.50,21.09 17.40,21.11 17.30,21.11 17.20,21.11 17.10,21.08 17.00,21.06 16.92,21.01 16.83,20.96 16.75,20.89 16.68,20.83 16.62,20.74 16.56,20.66 16.53,20.56 16.50,20.47 16.48,20.37 16.47,20.27 17.44,19.41 18.40,18.56 19.28,17.15 20.17,15.73 20.91,14.46 21.64,13.19 22.06,12.79 22.47,12.38 22.53,12.30 22.59,12.22 22.67,12.15 22.74,12.09 22.83,12.05 22.92,12.00 23.02,11.98 23.12,11.96 23.22,11.97 23.32,11.97 23.41,12.00 23.51,12.02 23.60,12.07 23.68,12.12 23.75,12.19 23.83,12.26 23.88,12.34 23.93,12.43 23.97,12.52 24.00,12.62 24.01,12.72 24.02,12.82 24.00,12.91 23.98,13.01 23.95,13.10 23.91,13.20 23.90,15.08 23.88,16.96 23.45,18.85 23.01,20.73 22.58,22.57 22.15,24.42 22.09,24.54 22.03,24.67 21.94,24.77 21.85,24.87 21.72,24.94 21.60,25.01 21.46,25.03 21.33,25.05 21.19,25.03 21.05,25.01 20.93,24.95 20.81,24.88 20.71,24.78 20.61,24.68 20.55,24.56 20.49,24.43 20.48,24.30 20.46,24.16 20.49,24.02 20.52,23.89 20.59,23.77 20.66,23.65 20.76,23.56 20.87,23.46 21.00,23.41 21.12,23.36 21.26,23.35 21.40,23.34 21.54,23.38 21.67,23.41 21.79,23.49 21.90,23.57 21.99,23.68 22.07,23.78 22.12,23.92 22.16,24.05 22.17,24.19 22.17,24.32 22.12,24.46 22.08,24.59 22.00,24.70 21.92,24.81 21.80,24.89 21.69,24.97 21.55,25.01 21.42,25.05 21.28,25.04 21.14,25.04 21.01,24.99 20.88,24.94 20.78,24.85 20.67,24.76 20.60,24.64 20.52,24.52 20.49,24.39 20.46,24.25 20.48,24.11 20.49,23.97 20.49,23.97 20.49,23.98 21.02,22.19 21.56,20.40 21.96,18.55 22.35,16.70 22.58,15.48 22.80,14.26 22.64,13.32 22.47,12.38 22.53,12.30 22.59,12.22 22.67,12.15 22.74,12.09 22.83,12.05 22.92,12.00 23.02,11.98 23.12,11.96 23.22,11.97 23.32,11.97 23.41,12.00 23.51,12.02 23.60,12.07 23.68,12.12 23.75,12.19 23.83,12.26 23.88,12.34 23.93,12.43 23.97,12.52 24.00,12.62 24.01,12.72 24.02,12.82 24.00,12.91 23.98,13.01 23.95,13.10 23.91,13.20 23.38,13.56 22.85,13.92 22.13,15.22 21.40,16.52 20.36,18.14 19.31,19.75 18.73,20.02 18.15,20.29 18.14,20.39 18.12,20.49 18.08,20.58 18.05,20.68 17.99,20.76 17.93,20.84 17.85,20.91 17.78,20.97 17.69,21.02 17.60,21.06 17.50,21.09 17.40,21.11 17.30,21.11 17.20,21.11 17.10,21.08 17.00,21.06 16.92,21.01 16.83,20.96 16.75,20.89 16.68,20.83 16.62,20.74 16.56,20.66 16.53,20.56 16.50,20.47 16.48,20.37 16.47,20.27 16.22,19.73 15.97,19.20 15.97,17.85 15.97,16.50 15.99,14.88 16.02,13.26 16.11,12.29 16.20,11.33 16.06,10.66 15.91,9.99 15.95,9.90 16.00,9.81 16.06,9.74 16.12,9.66 16.21,9.60 16.29,9.54 16.38,9.50 16.47,9.47 16.57,9.45 16.67,9.44 16.77,9.45 16.87,9.46 16.96,9.49 17.06,9.52 17.14,9.58 17.23,9.63 17.29,9.71 17.36,9.78 17.41,9.87 17.46,9.95 17.49,10.05 17.51,10.15 17.51,10.25 17.52,10.35 17.50,10.45 17.47,10.54 17.06,11.09 16.66,11.63 16.19,12.98 15.73,14.33 15.03,15.95 14.32,17.56 13.62,18.82 12.92,20.07 12.15,20.13 11.39,20.19 10.88,18.81 10.37,17.44 10.35,15.71 10.32,13.98 10.28,12.17 10.24,10.36 10.18,9.21 10.12,8.05 9.99,7.39 9.85,6.72 9.90,6.64 9.94,6.55 10.01,6.48 10.08,6.40 10.16,6.35 10.24,6.29 10.33,6.26 10.42,6.23 10.52,6.21 10.62,6.20 10.71,6.21 10.81,6.23 10.90,6.26 10.99,6.30 11.07,6.35 11.15,6.41 11.22,6.48 11.28,6.56 11.33,6.64 11.37,6.73 11.40,6.83 11.42,6.92 11.42,7.02 11.42,7.12 11.39,7.21 11.37,7.31 10.98,7.90 10.60,8.50 10.19,9.58 9.78,10.67 9.18,12.12 8.57,13.57 7.60,14.53 6.63,15.50 6.62,15.59 6.61,15.68 6.58,15.77 6.54,15.85 6.49,15.93 6.44,16.00 6.37,16.06 6.30,16.12 6.22,16.17 6.14,16.21 6.05,16.23 5.96,16.25 5.87,16.25 5.78,16.25 5.69,16.23 5.60,16.20 5.52,16.16 5.44,16.12 5.37,16.06 5.31,16.00 5.25,15.92 5.20,15.85 5.17,15.76 5.14,15.68 5.13,15.59 5.12,15.50 5.01,14.71 4.90,13.92 4.91,12.45 4.91,10.97 4.93,9.37 4.94,7.77 4.98,6.46 5.02,5.16 5.08,5.09 5.13,5.02 5.20,4.96 5.28,4.90 5.36,4.86 5.45,4.82 5.54,4.81 5.63,4.79 5.72,4.79 5.81,4.80 5.90,4.83 5.99,4.85 6.07,4.90 6.15,4.95 6.22,5.01 6.28,5.08 6.33,5.16 6.38,5.24 6.41,5.32 6.44,5.41 6.44,5.51 6.45,5.60 6.43,5.69 6.42,5.78 6.38,5.87 6.34,5.95 5.88,6.01 5.41,6.06 4.88,7.11 4.34,8.16 3.49,9.73 2.64,11.29 1.71,12.78 0.77,14.26 0.08,14.61 -0.61,14.95 -0.62,15.05 -0.62,15.15 -0.65,15.24 -0.68,15.33 -0.73,15.41 -0.78,15.49 -0.85,15.56 -0.92,15.63 -1.00,15.67 -1.08,15.72 -1.17,15.75 -1.26,15.78 -1.36,15.78 -1.45,15.79 -1.55,15.77 -1.64,15.75 -1.73,15.71 -1.82,15.67 -1.89,15.61 -1.97,15.55 -2.02,15.48 -2.08,15.40 -2.12,15.32 -2.16,15.23 -2.18,15.13 -2.19,15.04 -2.35,14.29 -2.50,13.54 -2.60,11.73 -2.70,9.92 -2.55,7.59 -2.40,5.25 -2.03,3.59 -1.66,1.93 -1.20,0.80 -0.74,-0.32 -0.69,-0.40 -0.64,-0.49 -0.58,-0.56 -0.51,-0.63 -0.43,-0.68 -0.34,-0.73 -0.25,-0.76 -0.16,-0.79 -0.06,-0.80 0.03,-0.81 0.13,-0.79 0.22,-0.78 0.31,-0.74 0.40,-0.70 0.48,-0.64 0.56,-0.58 0.62,-0.50 0.68,-0.43 0.73,-0.34 0.77,-0.25 0.79,-0.15 0.81,-0.06 0.80,0.03 0.80,0.13 0.77,0.22 0.74,0.32 0.74,0.32 L 0.74,0.32 Z"/></g><g transform="translate(10 118.88888168334961) rotate(0 9.444442749023438 -23.05554962158203)" stroke="none"><path fill="#000000" d="M -0.82,-0.18 Q -0.82,-0.18 -0.48,-1.61 -0.13,-3.04 0.16,-5.84 0.47,-8.64 0.93,-12.57 1.39,-16.50 2.07,-21.05 2.75,-25.60 3.36,-29.93 3.97,-34.25 4.55,-37.38 5.14,-40.51 5.55,-42.64 5.95,-44.76 6.47,-46.16 6.98,-47.55 7.70,-47.54 8.43,-47.54 8.84,-46.71 9.25,-45.88 9.52,-43.70 9.80,-41.52 10.07,-39.35 10.33,-37.18 10.91,-34.04 11.49,-30.91 12.37,-26.86 13.25,-22.81 14.26,-18.70 15.27,-14.59 16.18,-11.41 17.08,-8.23 17.79,-5.59 18.49,-2.95 18.98,-0.66 19.47,1.62 19.47,1.75 19.48,1.88 19.44,2.00 19.40,2.12 19.33,2.23 19.25,2.33 19.15,2.40 19.04,2.48 18.92,2.51 18.80,2.55 18.67,2.55 18.54,2.54 18.42,2.50 18.30,2.45 18.20,2.37 18.11,2.29 18.04,2.19 17.97,2.08 17.94,1.95 17.91,1.83 17.92,1.70 17.93,1.58 17.98,1.46 18.03,1.34 18.12,1.25 18.20,1.15 18.31,1.09 18.43,1.03 18.55,1.00 18.68,0.98 18.80,1.00 18.93,1.01 19.04,1.07 19.16,1.13 19.25,1.22 19.34,1.31 19.39,1.43 19.45,1.54 19.47,1.67 19.48,1.79 19.46,1.92 19.44,2.04 19.37,2.16 19.31,2.27 19.21,2.35 19.12,2.44 19.00,2.49 18.88,2.54 18.76,2.55 18.63,2.56 18.50,2.52 18.38,2.49 18.27,2.42 18.17,2.35 18.09,2.25 18.01,2.15 17.96,2.03 17.92,1.91 17.92,1.91 17.92,1.91 17.55,-0.34 17.19,-2.60 16.48,-5.23 15.77,-7.85 14.85,-11.05 13.93,-14.25 12.90,-18.38 11.87,-22.51 10.97,-26.57 10.06,-30.64 9.45,-33.81 8.84,-36.99 8.54,-39.15 8.24,-41.31 7.96,-43.31 7.67,-45.31 7.63,-45.96 7.59,-46.60 7.44,-45.55 7.28,-44.51 6.88,-42.39 6.48,-40.26 5.92,-37.16 5.35,-34.06 4.75,-29.73 4.15,-25.40 3.50,-20.87 2.84,-16.33 2.41,-12.41 1.98,-8.49 1.69,-5.59 1.41,-2.70 1.12,-1.25 0.82,0.18 0.79,0.27 0.75,0.37 0.70,0.46 0.64,0.54 0.57,0.61 0.49,0.68 0.40,0.73 0.31,0.78 0.21,0.81 0.12,0.83 0.01,0.84 -0.08,0.84 -0.18,0.82 -0.28,0.79 -0.37,0.75 -0.46,0.70 -0.54,0.64 -0.62,0.57 -0.68,0.49 -0.74,0.41 -0.77,0.31 -0.81,0.22 -0.83,0.12 -0.84,0.01 -0.83,-0.08 -0.82,-0.18 -0.82,-0.18 L -0.82,-0.18 Z"/></g><g transform="translate(14.444427490234375 82.77777481079102) rotate(0 10 18.888893127441406)" stroke="none"><path fill="#000000" d="M 0.72,-0.30 Q 0.72,-0.30 1.18,0.81 1.64,1.94 2.01,2.91 2.38,3.87 2.85,5.42 3.32,6.97 3.99,9.22 4.66,11.47 5.42,14.03 6.19,16.58 7.00,20.57 7.80,24.56 8.31,27.70 8.81,30.83 9.34,33.58 9.86,36.34 10.25,38.15 10.63,39.95 10.95,41.02 11.26,42.08 11.45,42.37 11.65,42.66 11.66,42.75 11.68,42.84 11.67,42.94 11.66,43.03 11.63,43.12 11.60,43.21 11.56,43.29 11.51,43.37 11.44,43.43 11.37,43.50 11.29,43.54 11.21,43.59 11.12,43.62 11.03,43.64 10.94,43.65 10.85,43.65 10.75,43.63 10.66,43.62 10.58,43.58 10.49,43.54 10.42,43.48 10.35,43.42 10.29,43.35 10.23,43.27 10.20,43.19 10.16,43.10 10.39,42.07 10.62,41.03 10.88,38.97 11.13,36.92 11.57,33.62 12.00,30.33 12.67,26.20 13.34,22.08 14.26,17.76 15.19,13.44 15.91,10.01 16.62,6.59 17.24,3.38 17.86,0.17 18.43,-2.47 18.99,-5.12 19.03,-5.23 19.08,-5.35 19.16,-5.44 19.24,-5.53 19.35,-5.59 19.45,-5.66 19.57,-5.68 19.69,-5.71 19.82,-5.69 19.94,-5.68 20.05,-5.63 20.16,-5.57 20.25,-5.49 20.34,-5.40 20.40,-5.29 20.45,-5.18 20.47,-5.06 20.49,-4.94 20.47,-4.82 20.45,-4.70 20.39,-4.59 20.33,-4.48 20.24,-4.40 20.15,-4.31 20.04,-4.26 19.93,-4.21 19.80,-4.20 19.68,-4.19 19.56,-4.21 19.44,-4.24 19.34,-4.31 19.23,-4.37 19.15,-4.47 19.07,-4.56 19.03,-4.68 18.98,-4.79 18.98,-4.91 18.97,-5.04 19.01,-5.16 19.04,-5.27 19.11,-5.37 19.18,-5.48 19.28,-5.55 19.38,-5.62 19.50,-5.66 19.61,-5.70 19.74,-5.70 19.86,-5.70 19.98,-5.66 20.09,-5.62 20.19,-5.54 20.29,-5.47 20.36,-5.36 20.42,-5.26 20.46,-5.14 20.49,-5.02 20.48,-4.90 20.47,-4.78 20.47,-4.78 20.47,-4.78 19.82,-2.17 19.18,0.43 18.56,3.65 17.94,6.86 17.23,10.29 16.52,13.72 15.61,18.01 14.70,22.30 14.05,26.40 13.39,30.51 12.98,33.80 12.56,37.09 12.31,39.25 12.06,41.41 11.85,42.03 11.65,42.66 11.66,42.75 11.68,42.84 11.67,42.94 11.66,43.03 11.63,43.12 11.60,43.21 11.56,43.29 11.51,43.37 11.44,43.43 11.37,43.50 11.29,43.54 11.21,43.59 11.12,43.62 11.03,43.64 10.94,43.65 10.85,43.65 10.75,43.63 10.66,43.62 10.58,43.58 10.49,43.54 10.42,43.48 10.35,43.42 10.29,43.35 10.23,43.27 10.20,43.19 10.16,43.10 10.08,42.78 9.99,42.46 9.66,41.35 9.33,40.23 8.94,38.41 8.55,36.59 8.01,33.82 7.48,31.05 6.97,27.94 6.47,24.83 5.67,20.91 4.86,16.98 4.09,14.43 3.32,11.88 2.63,9.64 1.94,7.40 1.46,5.90 0.98,4.40 0.62,3.47 0.26,2.53 -0.22,1.42 -0.72,0.30 -0.74,0.21 -0.77,0.12 -0.77,0.03 -0.78,-0.06 -0.76,-0.15 -0.74,-0.24 -0.70,-0.33 -0.66,-0.41 -0.60,-0.49 -0.54,-0.56 -0.46,-0.62 -0.39,-0.67 -0.30,-0.71 -0.22,-0.75 -0.12,-0.76 -0.03,-0.78 0.06,-0.77 0.15,-0.76 0.24,-0.73 0.33,-0.71 0.41,-0.65 0.49,-0.60 0.56,-0.54 0.62,-0.47 0.67,-0.39 0.72,-0.30 0.72,-0.30 L 0.72,-0.30 Z"/></g><g transform="translate(57.22222900390625 87.22222518920898) rotate(0 -2.7777862548828125 14.722221374511719)" stroke="none"><path fill="#000000" d="M 0,0.79 Q 0,0.79 -0.95,0.79 -1.91,0.80 -2.89,0.93 -3.88,1.07 -4.86,1.57 -5.84,2.06 -6.91,2.75 -7.98,3.43 -8.71,4.16 -9.45,4.89 -10.39,6.14 -11.34,7.39 -11.88,8.66 -12.41,9.93 -12.80,11.72 -13.19,13.51 -13.35,15.38 -13.52,17.24 -13.43,18.80 -13.35,20.35 -12.85,21.91 -12.36,23.46 -11.25,24.68 -10.14,25.90 -8.47,26.72 -6.79,27.53 -4.70,27.72 -2.62,27.91 -0.47,27.68 1.66,27.45 3.35,27.05 5.05,26.64 6.47,25.89 7.89,25.15 8.01,25.12 8.13,25.08 8.26,25.09 8.38,25.09 8.50,25.14 8.62,25.19 8.72,25.27 8.82,25.35 8.88,25.46 8.95,25.57 8.98,25.69 9.00,25.82 8.99,25.94 8.98,26.07 8.93,26.18 8.87,26.30 8.79,26.39 8.70,26.49 8.59,26.55 8.47,26.61 8.35,26.63 8.22,26.65 8.10,26.63 7.97,26.61 7.86,26.55 7.75,26.49 7.66,26.40 7.57,26.31 7.52,26.19 7.46,26.08 7.45,25.95 7.43,25.82 7.46,25.70 7.49,25.57 7.55,25.47 7.62,25.36 7.71,25.27 7.81,25.19 7.93,25.14 8.05,25.09 8.17,25.09 8.30,25.08 8.42,25.11 8.55,25.15 8.65,25.22 8.76,25.29 8.83,25.39 8.91,25.49 8.95,25.61 8.99,25.73 9.00,25.86 9.00,25.99 8.96,26.11 8.92,26.23 8.84,26.33 8.76,26.43 8.66,26.50 8.55,26.57 8.55,26.57 8.55,26.57 6.96,27.24 5.36,27.92 3.58,28.34 1.80,28.76 -0.47,28.99 -2.74,29.22 -5.05,28.97 -7.35,28.72 -9.23,27.76 -11.11,26.80 -12.35,25.35 -13.60,23.90 -14.14,22.17 -14.68,20.44 -14.76,18.78 -14.85,17.12 -14.68,15.17 -14.50,13.23 -14.08,11.32 -13.66,9.41 -13.05,7.99 -12.44,6.57 -11.44,5.23 -10.44,3.90 -9.60,3.07 -8.76,2.23 -7.63,1.49 -6.50,0.75 -5.32,0.16 -4.13,-0.43 -3.02,-0.61 -1.91,-0.80 -0.95,-0.79 0,-0.79 0.09,-0.77 0.18,-0.76 0.27,-0.73 0.36,-0.69 0.44,-0.64 0.52,-0.59 0.58,-0.52 0.65,-0.44 0.69,-0.36 0.73,-0.28 0.76,-0.18 0.78,-0.09 0.78,0.00 0.78,0.09 0.76,0.18 0.73,0.28 0.69,0.36 0.65,0.44 0.58,0.52 0.52,0.59 0.44,0.64 0.36,0.69 0.27,0.73 0.18,0.76 0.09,0.77 -0.00,0.79 -0.00,0.79 L 0,0.79 Z"/></g><g transform="translate(83.33331298828125 80.55556106567383) rotate(0 8.611114501953125 16.388877868652344)" stroke="none"><path fill="#000000" d="M 0.15,0.91 Q 0.15,0.91 -0.87,1.05 -1.90,1.18 -2.88,0.72 -3.87,0.26 -4.49,-0.71 -5.10,-1.68 -5.33,-2.84 -5.55,-4.00 -4.96,-5.03 -4.37,-6.06 -3.65,-6.09 -2.92,-6.13 -1.75,-5.53 -0.57,-4.92 1.18,-3.68 2.94,-2.44 4.90,-1.30 6.86,-0.16 8.90,0.46 10.93,1.09 12.65,0.88 14.37,0.68 15.86,0.00 17.34,-0.68 18.27,-1.42 19.20,-2.16 19.88,-2.70 20.55,-3.25 20.58,-3.49 20.60,-3.73 20.68,-3.78 20.76,-3.84 20.84,-3.87 20.93,-3.90 21.02,-3.91 21.11,-3.92 21.21,-3.91 21.30,-3.90 21.38,-3.87 21.47,-3.83 21.55,-3.78 21.62,-3.73 21.69,-3.66 21.75,-3.59 21.79,-3.51 21.83,-3.42 21.85,-3.33 21.88,-3.24 21.88,-3.15 21.88,-3.06 21.85,-2.97 21.83,-2.88 21.79,-2.80 21.74,-2.71 21.68,-2.64 21.62,-2.58 20.95,-2.10 20.28,-1.62 19.41,-0.86 18.53,-0.09 17.55,1.44 16.58,2.98 15.35,5.25 14.12,7.51 12.80,10.68 11.49,13.85 10.29,17.58 9.09,21.31 8.10,24.50 7.11,27.70 6.04,30.51 4.97,33.32 2.95,35.97 0.93,38.61 0.81,38.67 0.70,38.73 0.57,38.75 0.45,38.77 0.32,38.75 0.20,38.73 0.08,38.67 -0.02,38.62 -0.11,38.52 -0.20,38.43 -0.25,38.31 -0.31,38.20 -0.32,38.07 -0.34,37.94 -0.31,37.82 -0.28,37.69 -0.22,37.58 -0.15,37.47 -0.05,37.39 0.03,37.31 0.15,37.26 0.27,37.21 0.40,37.20 0.53,37.20 0.65,37.23 0.77,37.26 0.88,37.34 0.98,37.41 1.06,37.51 1.14,37.61 1.18,37.73 1.22,37.85 1.22,37.98 1.22,38.11 1.18,38.23 1.14,38.35 1.07,38.45 0.99,38.55 0.88,38.63 0.78,38.70 0.66,38.73 0.53,38.77 0.41,38.76 0.28,38.76 0.16,38.71 0.04,38.66 -0.05,38.58 -0.15,38.50 -0.21,38.39 -0.28,38.28 -0.31,38.15 -0.34,38.03 -0.32,37.90 -0.31,37.78 -0.26,37.66 -0.20,37.54 -0.12,37.45 -0.03,37.36 -0.03,37.36 -0.03,37.36 1.84,35.10 3.71,32.85 4.76,30.07 5.81,27.29 6.80,24.09 7.78,20.89 8.99,17.11 10.19,13.32 11.53,10.07 12.86,6.83 14.09,4.51 15.33,2.20 16.41,0.48 17.49,-1.22 18.43,-2.09 19.38,-2.97 19.99,-3.35 20.60,-3.73 20.68,-3.78 20.76,-3.84 20.84,-3.87 20.93,-3.90 21.02,-3.91 21.11,-3.92 21.21,-3.91 21.30,-3.90 21.38,-3.87 21.47,-3.83 21.55,-3.78 21.62,-3.73 21.69,-3.66 21.75,-3.59 21.79,-3.51 21.83,-3.42 21.85,-3.33 21.88,-3.24 21.88,-3.15 21.88,-3.06 21.85,-2.97 21.83,-2.88 21.79,-2.80 21.74,-2.71 21.68,-2.64 21.62,-2.58 21.65,-2.58 21.68,-2.58 20.88,-1.82 20.07,-1.06 19.01,-0.22 17.94,0.60 16.25,1.37 14.55,2.14 12.54,2.35 10.54,2.56 8.31,1.90 6.08,1.24 4.02,0.10 1.96,-1.02 0.28,-2.13 -1.40,-3.24 -2.62,-3.71 -3.85,-4.19 -3.67,-3.38 -3.50,-2.57 -3.18,-1.92 -2.86,-1.26 -2.39,-0.90 -1.93,-0.54 -1.04,-0.73 -0.15,-0.91 -0.04,-0.92 0.07,-0.92 0.18,-0.90 0.29,-0.88 0.39,-0.83 0.49,-0.78 0.58,-0.71 0.66,-0.64 0.73,-0.55 0.80,-0.46 0.84,-0.36 0.89,-0.26 0.91,-0.15 0.92,-0.04 0.92,0.07 0.91,0.18 0.87,0.28 0.84,0.39 0.78,0.49 0.72,0.58 0.64,0.66 0.56,0.74 0.46,0.79 0.36,0.85 0.26,0.88 0.15,0.91 0.15,0.91 L 0.15,0.91 Z"/></g><g transform="translate(96.11111450195312 79.99999618530273) rotate(0 -7.777801513671875 25.555557250976562)" stroke="none"><path fill="#000000" d="M 0.61,0.49 Q 0.61,0.49 -0.02,1.27 -0.67,2.06 -1.06,3.10 -1.44,4.13 -1.78,5.68 -2.12,7.22 -2.75,9.98 -3.39,12.74 -4.30,16.32 -5.21,19.89 -6.40,23.82 -7.60,27.74 -9.24,31.21 -10.88,34.67 -12.39,37.12 -13.89,39.56 -15.35,41.41 -16.80,43.27 -17.92,44.39 -19.04,45.52 -19.61,45.86 -20.19,46.20 -20.26,46.26 -20.34,46.32 -20.42,46.36 -20.51,46.40 -20.60,46.42 -20.69,46.43 -20.79,46.43 -20.88,46.42 -20.97,46.39 -21.06,46.37 -21.14,46.32 -21.22,46.27 -21.29,46.20 -21.35,46.14 -21.40,46.06 -21.45,45.98 -21.48,45.89 -21.51,45.80 -21.51,45.70 -21.52,45.61 -21.50,45.52 -21.49,45.43 -21.45,45.34 -21.41,45.25 -21.35,45.18 -21.30,45.11 -21.23,43.67 -21.16,42.24 -20.36,40.82 -19.55,39.40 -18.37,37.97 -17.19,36.54 -15.75,35.87 -14.32,35.20 -12.93,35.44 -11.53,35.68 -10.40,36.82 -9.28,37.97 -8.18,39.75 -7.09,41.53 -6.00,43.39 -4.91,45.25 -4.00,46.48 -3.08,47.72 -1.96,48.50 -0.85,49.29 -0.03,49.44 0.77,49.60 1.80,48.93 2.82,48.27 3.86,46.32 4.90,44.37 4.98,44.28 5.06,44.18 5.17,44.11 5.28,44.04 5.41,44.02 5.53,43.99 5.66,44.00 5.78,44.01 5.90,44.07 6.02,44.12 6.11,44.21 6.21,44.29 6.27,44.40 6.33,44.52 6.35,44.64 6.37,44.77 6.35,44.90 6.33,45.02 6.27,45.14 6.21,45.25 6.12,45.34 6.03,45.43 5.91,45.48 5.80,45.54 5.67,45.55 5.54,45.57 5.42,45.54 5.29,45.51 5.18,45.45 5.07,45.38 4.99,45.29 4.91,45.19 4.86,45.07 4.81,44.95 4.80,44.83 4.79,44.70 4.83,44.57 4.86,44.45 4.93,44.34 5.00,44.24 5.10,44.16 5.20,44.08 5.32,44.04 5.45,44.00 5.57,44.00 5.70,43.99 5.82,44.03 5.94,44.07 6.05,44.15 6.15,44.23 6.22,44.33 6.29,44.44 6.33,44.56 6.37,44.68 6.36,44.81 6.35,44.94 6.31,45.06 6.26,45.18 6.26,45.18 6.26,45.18 4.91,47.28 3.57,49.38 2.15,50.14 0.74,50.90 -0.41,50.64 -1.58,50.39 -2.86,49.46 -4.14,48.53 -5.10,47.23 -6.07,45.93 -7.16,44.09 -8.24,42.24 -9.26,40.57 -10.28,38.90 -11.11,37.93 -11.95,36.96 -12.92,36.74 -13.89,36.51 -15.00,37.01 -16.11,37.51 -17.17,38.82 -18.23,40.14 -18.94,41.42 -19.64,42.70 -19.91,43.47 -20.18,44.23 -20.19,45.22 -20.19,46.20 -20.26,46.26 -20.34,46.32 -20.42,46.36 -20.51,46.40 -20.60,46.42 -20.69,46.43 -20.79,46.43 -20.88,46.42 -20.97,46.39 -21.06,46.37 -21.14,46.32 -21.22,46.27 -21.29,46.20 -21.35,46.14 -21.40,46.06 -21.45,45.98 -21.48,45.89 -21.51,45.80 -21.51,45.70 -21.52,45.61 -21.50,45.52 -21.49,45.43 -21.45,45.34 -21.41,45.25 -21.35,45.18 -21.30,45.11 -20.63,44.84 -19.96,44.57 -18.90,43.51 -17.85,42.44 -16.44,40.65 -15.03,38.86 -13.56,36.48 -12.10,34.10 -10.50,30.72 -8.90,27.35 -7.72,23.45 -6.55,19.55 -5.65,15.99 -4.75,12.43 -4.14,9.68 -3.52,6.92 -3.17,5.26 -2.83,3.61 -2.35,2.36 -1.88,1.12 -1.24,0.31 -0.61,-0.49 -0.54,-0.55 -0.47,-0.62 -0.39,-0.67 -0.31,-0.71 -0.22,-0.74 -0.13,-0.77 -0.03,-0.77 0.05,-0.78 0.14,-0.76 0.24,-0.74 0.32,-0.70 0.41,-0.66 0.48,-0.60 0.56,-0.54 0.61,-0.47 0.67,-0.39 0.71,-0.31 0.75,-0.22 0.76,-0.13 0.78,-0.03 0.77,0.05 0.77,0.14 0.74,0.23 0.71,0.32 0.66,0.40 0.61,0.49 0.61,0.49 L 0.61,0.49 Z"/></g><g transform="translate(170.5555419921875 96.11111068725586) rotate(0 2.77777099609375 11.666664123535156)" stroke="none"><path fill="#000000" d="M -0.17,0.87 Q -0.17,0.87 -0.97,0.73 -1.78,0.59 -2.63,0.37 -3.48,0.14 -4.24,0.07 -4.99,0.00 -5.87,0.09 -6.75,0.18 -7.59,0.37 -8.42,0.56 -8.94,1.03 -9.46,1.50 -9.83,2.37 -10.20,3.24 -10.56,5.02 -10.91,6.80 -10.75,9.10 -10.60,11.40 -10.07,13.63 -9.54,15.87 -8.39,18.37 -7.24,20.87 -5.07,22.82 -2.89,24.77 -0.47,25.58 1.95,26.39 4.63,25.96 7.32,25.53 9.66,23.66 12.00,21.79 13.46,19.16 14.91,16.52 15.21,13.40 15.51,10.29 14.86,7.74 14.22,5.20 12.71,2.90 11.20,0.59 9.20,-0.81 7.19,-2.22 4.85,-2.49 2.50,-2.76 0.61,-2.27 -1.27,-1.78 -2.80,-0.36 -4.33,1.05 -5.23,2.40 -6.14,3.75 -6.23,3.84 -6.32,3.93 -6.44,3.98 -6.55,4.04 -6.68,4.06 -6.81,4.07 -6.93,4.05 -7.06,4.02 -7.17,3.96 -7.28,3.89 -7.36,3.80 -7.44,3.70 -7.49,3.58 -7.54,3.46 -7.55,3.34 -7.56,3.21 -7.53,3.09 -7.49,2.96 -7.42,2.86 -7.35,2.75 -7.25,2.67 -7.15,2.60 -7.03,2.55 -6.91,2.51 -6.79,2.51 -6.66,2.51 -6.54,2.55 -6.42,2.58 -6.31,2.66 -6.21,2.74 -6.14,2.84 -6.07,2.94 -6.03,3.07 -5.99,3.19 -6.00,3.32 -6.00,3.44 -6.05,3.56 -6.10,3.68 -6.18,3.78 -6.26,3.88 -6.37,3.94 -6.47,4.01 -6.60,4.04 -6.72,4.07 -6.85,4.06 -6.98,4.05 -7.09,3.99 -7.21,3.94 -7.30,3.86 -7.39,3.77 -7.46,3.66 -7.52,3.55 -7.54,3.42 -7.56,3.30 -7.54,3.17 -7.52,3.04 -7.47,2.93 -7.41,2.82 -7.41,2.82 -7.41,2.82 -6.31,1.45 -5.21,0.08 -3.43,-1.47 -1.65,-3.03 0.48,-3.55 2.63,-4.07 5.26,-3.70 7.89,-3.33 10.09,-1.73 12.28,-0.14 13.89,2.35 15.49,4.86 16.16,7.63 16.83,10.40 16.46,13.76 16.09,17.13 14.47,19.97 12.86,22.82 10.23,24.83 7.60,26.84 4.59,27.26 1.58,27.69 -1.10,26.76 -3.79,25.82 -6.14,23.67 -8.50,21.51 -9.73,18.86 -10.96,16.22 -11.54,13.86 -12.11,11.51 -12.30,9.01 -12.48,6.52 -12.12,4.54 -11.76,2.56 -11.22,1.35 -10.68,0.14 -9.79,-0.51 -8.91,-1.18 -7.94,-1.41 -6.97,-1.64 -5.88,-1.79 -4.78,-1.93 -3.88,-1.81 -2.98,-1.69 -2.19,-1.46 -1.41,-1.23 -0.61,-1.05 0.17,-0.87 0.27,-0.84 0.38,-0.81 0.47,-0.75 0.56,-0.69 0.63,-0.61 0.71,-0.54 0.76,-0.44 0.82,-0.35 0.85,-0.25 0.88,-0.14 0.88,-0.03 0.89,0.06 0.87,0.17 0.85,0.28 0.80,0.37 0.75,0.47 0.69,0.55 0.62,0.64 0.53,0.70 0.45,0.77 0.35,0.81 0.25,0.85 0.14,0.87 0.03,0.89 -0.06,0.88 -0.17,0.87 -0.17,0.87 L -0.17,0.87 Z"/></g><g transform="translate(168.33331298828125 96.11111068725586) rotate(0 -2.5 9.444442749023438)" stroke="none"><path fill="#000000" d="M 0.84,0.42 Q 0.84,0.42 0.32,1.36 -0.18,2.31 -0.75,2.99 -1.32,3.67 -1.85,4.26 -2.38,4.84 -2.70,5.35 -3.01,5.86 -3.32,6.74 -3.62,7.62 -3.62,9.04 -3.61,10.46 -3.47,12.37 -3.33,14.28 -2.96,16.09 -2.58,17.91 -2.58,18.05 -2.58,18.20 -2.62,18.34 -2.67,18.48 -2.75,18.60 -2.84,18.72 -2.96,18.80 -3.08,18.88 -3.22,18.92 -3.36,18.97 -3.51,18.96 -3.66,18.95 -3.79,18.90 -3.93,18.85 -4.04,18.75 -4.16,18.66 -4.23,18.54 -4.31,18.41 -4.35,18.27 -4.38,18.13 -4.36,17.98 -4.35,17.83 -4.29,17.70 -4.23,17.57 -4.13,17.46 -4.03,17.35 -3.90,17.28 -3.77,17.21 -3.63,17.18 -3.49,17.16 -3.34,17.18 -3.20,17.20 -3.06,17.27 -2.93,17.34 -2.83,17.44 -2.73,17.55 -2.67,17.68 -2.60,17.81 -2.59,17.96 -2.57,18.10 -2.60,18.25 -2.63,18.39 -2.70,18.52 -2.77,18.64 -2.89,18.74 -3.00,18.84 -3.13,18.89 -3.27,18.95 -3.41,18.96 -3.56,18.97 -3.70,18.93 -3.84,18.89 -3.97,18.81 -4.09,18.73 -4.18,18.62 -4.27,18.50 -4.32,18.36 -4.37,18.22 -4.37,18.22 -4.37,18.22 -4.65,16.32 -4.93,14.42 -5.13,12.45 -5.33,10.48 -5.37,8.79 -5.40,7.09 -5.06,5.90 -4.71,4.70 -4.25,4.10 -3.78,3.49 -3.23,2.96 -2.68,2.42 -2.20,1.97 -1.72,1.52 -1.28,0.54 -0.84,-0.42 -0.78,-0.51 -0.72,-0.61 -0.63,-0.69 -0.55,-0.76 -0.45,-0.82 -0.35,-0.87 -0.24,-0.90 -0.13,-0.93 -0.01,-0.93 0.09,-0.94 0.20,-0.91 0.31,-0.89 0.42,-0.84 0.52,-0.78 0.60,-0.71 0.69,-0.64 0.76,-0.54 0.82,-0.45 0.87,-0.35 0.91,-0.24 0.92,-0.13 0.94,-0.01 0.93,0.09 0.92,0.20 0.88,0.31 0.84,0.42 0.84,0.42 L 0.84,0.42 Z"/></g><g transform="translate(178.33331298828125 95.5555534362793) rotate(0 1.3889007568359375 11.944442749023438)" stroke="none"><path fill="#000000" d="M 0.78,-0.39 Q 0.78,-0.39 1.13,0.23 1.48,0.85 1.81,1.63 2.14,2.42 2.40,3.60 2.66,4.79 2.76,6.13 2.86,7.48 3.05,9.45 3.24,11.43 3.31,12.93 3.39,14.43 3.41,16.19 3.44,17.95 3.26,20.69 3.08,23.43 3.05,23.56 3.02,23.69 2.95,23.81 2.88,23.92 2.77,24.01 2.67,24.09 2.54,24.14 2.42,24.19 2.28,24.19 2.15,24.19 2.02,24.16 1.89,24.12 1.78,24.04 1.67,23.96 1.59,23.85 1.51,23.75 1.47,23.62 1.43,23.49 1.44,23.36 1.44,23.22 1.49,23.09 1.53,22.97 1.61,22.86 1.70,22.76 1.81,22.68 1.92,22.61 2.05,22.58 2.18,22.55 2.32,22.56 2.45,22.57 2.57,22.62 2.70,22.67 2.80,22.76 2.90,22.85 2.97,22.96 3.03,23.08 3.06,23.21 3.08,23.34 3.07,23.48 3.05,23.61 2.99,23.73 2.93,23.85 2.84,23.95 2.74,24.04 2.62,24.10 2.50,24.16 2.37,24.18 2.24,24.20 2.11,24.18 1.97,24.15 1.86,24.09 1.74,24.02 1.65,23.92 1.56,23.82 1.51,23.70 1.45,23.58 1.44,23.44 1.43,23.31 1.43,23.31 1.43,23.31 1.71,20.65 1.99,17.98 1.94,16.25 1.89,14.52 1.79,13.06 1.68,11.60 1.45,9.62 1.21,7.64 1.07,6.43 0.93,5.23 0.62,4.18 0.31,3.13 0.05,2.41 -0.20,1.70 -0.49,1.04 -0.78,0.39 -0.82,0.29 -0.85,0.19 -0.86,0.08 -0.87,-0.01 -0.86,-0.12 -0.84,-0.22 -0.80,-0.32 -0.76,-0.42 -0.70,-0.50 -0.64,-0.59 -0.56,-0.66 -0.48,-0.73 -0.38,-0.77 -0.29,-0.82 -0.19,-0.85 -0.08,-0.87 0.01,-0.87 0.12,-0.86 0.22,-0.84 0.32,-0.81 0.42,-0.76 0.51,-0.71 0.59,-0.64 0.66,-0.56 0.72,-0.48 0.78,-0.39 0.78,-0.39 L 0.78,-0.39 Z"/></g><g transform="translate(178.33331298828125 110.5555534362793) rotate(0 6.3889007568359375 9.444442749023438)" stroke="none"><path fill="#000000" d="M 0.73,-0.52 Q 0.73,-0.52 1.50,0.61 2.27,1.75 3.23,3.20 4.20,4.66 5.54,6.37 6.88,8.09 7.96,9.82 9.04,11.55 10.12,13.23 11.20,14.91 12.14,16.36 13.09,17.81 13.14,17.93 13.19,18.06 13.20,18.19 13.20,18.32 13.17,18.45 13.13,18.58 13.06,18.69 12.98,18.80 12.88,18.88 12.77,18.97 12.64,19.01 12.52,19.05 12.38,19.05 12.25,19.05 12.12,19.01 11.99,18.97 11.89,18.89 11.78,18.81 11.71,18.69 11.63,18.58 11.59,18.45 11.56,18.33 11.57,18.19 11.57,18.06 11.62,17.93 11.67,17.81 11.76,17.71 11.84,17.60 11.96,17.54 12.07,17.47 12.20,17.44 12.34,17.41 12.47,17.42 12.60,17.44 12.72,17.49 12.84,17.55 12.94,17.64 13.04,17.73 13.10,17.85 13.17,17.97 13.19,18.10 13.21,18.23 13.19,18.37 13.17,18.50 13.10,18.62 13.04,18.74 12.94,18.83 12.85,18.92 12.73,18.98 12.60,19.03 12.47,19.05 12.34,19.06 12.21,19.03 12.08,19.00 11.96,18.94 11.85,18.87 11.76,18.76 11.67,18.66 11.67,18.66 11.67,18.66 10.84,17.17 10.01,15.68 8.91,14.00 7.81,12.32 6.76,10.67 5.71,9.02 4.30,7.28 2.90,5.54 1.91,4.13 0.91,2.72 0.09,1.62 -0.73,0.52 -0.78,0.42 -0.83,0.33 -0.86,0.22 -0.89,0.12 -0.89,0.01 -0.89,-0.09 -0.87,-0.19 -0.84,-0.30 -0.79,-0.40 -0.74,-0.49 -0.67,-0.58 -0.60,-0.66 -0.51,-0.72 -0.43,-0.78 -0.32,-0.82 -0.22,-0.86 -0.12,-0.88 -0.01,-0.89 0.09,-0.88 0.20,-0.87 0.30,-0.83 0.40,-0.80 0.49,-0.74 0.58,-0.68 0.65,-0.60 0.73,-0.52 0.73,-0.52 L 0.73,-0.52 Z"/></g><g transform="translate(219.4444580078125 93.33332443237305) rotate(0 0.5555419921875 15.555557250976562)" stroke="none"><path fill="#000000" d="M -0.13,0.82 Q -0.13,0.82 -1.09,0.66 -2.04,0.50 -2.64,0.63 -3.25,0.76 -3.97,0.96 -4.68,1.16 -5.53,1.78 -6.37,2.40 -7.20,3.41 -8.04,4.43 -8.91,5.51 -9.78,6.60 -10.43,8.10 -11.08,9.60 -11.69,11.37 -12.30,13.13 -12.56,14.94 -12.81,16.76 -12.92,18.32 -13.04,19.89 -12.62,21.41 -12.21,22.94 -11.13,24.32 -10.05,25.70 -8.05,26.90 -6.06,28.10 -3.95,28.93 -1.84,29.77 0.88,29.95 3.62,30.14 6.50,29.59 9.38,29.05 11.60,28.43 13.81,27.82 13.94,27.81 14.07,27.80 14.19,27.83 14.31,27.86 14.42,27.93 14.52,28.00 14.60,28.09 14.68,28.19 14.72,28.31 14.77,28.43 14.77,28.55 14.77,28.68 14.74,28.80 14.70,28.92 14.63,29.02 14.55,29.13 14.45,29.20 14.35,29.27 14.23,29.31 14.11,29.35 13.98,29.34 13.86,29.34 13.74,29.30 13.62,29.25 13.52,29.17 13.42,29.10 13.36,28.99 13.29,28.88 13.26,28.76 13.23,28.64 13.24,28.51 13.25,28.39 13.30,28.27 13.35,28.16 13.43,28.06 13.52,27.97 13.62,27.91 13.73,27.85 13.86,27.82 13.98,27.80 14.11,27.81 14.23,27.83 14.34,27.89 14.46,27.94 14.55,28.03 14.64,28.12 14.69,28.23 14.75,28.35 14.76,28.47 14.78,28.60 14.76,28.72 14.73,28.84 14.67,28.95 14.61,29.06 14.52,29.15 14.42,29.23 14.31,29.28 14.19,29.33 14.19,29.33 14.19,29.33 11.91,29.84 9.63,30.35 6.58,30.91 3.54,31.46 0.60,31.24 -2.32,31.01 -4.54,30.12 -6.75,29.24 -8.92,27.89 -11.09,26.54 -12.30,24.93 -13.50,23.32 -13.96,21.57 -14.41,19.82 -14.30,18.19 -14.19,16.56 -13.93,14.62 -13.66,12.67 -13.05,10.85 -12.44,9.02 -11.72,7.34 -11.00,5.67 -10.15,4.54 -9.31,3.41 -8.36,2.21 -7.41,1.01 -6.30,0.18 -5.20,-0.64 -4.34,-0.84 -3.48,-1.03 -2.63,-1.08 -1.78,-1.14 -0.82,-0.98 0.13,-0.82 0.23,-0.79 0.33,-0.77 0.41,-0.71 0.50,-0.66 0.57,-0.59 0.65,-0.52 0.70,-0.44 0.75,-0.35 0.79,-0.26 0.82,-0.16 0.83,-0.06 0.83,0.03 0.82,0.13 0.80,0.23 0.76,0.32 0.72,0.42 0.66,0.50 0.60,0.58 0.52,0.64 0.44,0.71 0.35,0.75 0.26,0.79 0.16,0.81 0.06,0.83 -0.03,0.83 -0.13,0.82 -0.13,0.82 L -0.13,0.82 Z"/></g><g transform="translate(140 97.77776718139648) rotate(0 -8.055572509765625 7.7777862548828125)" stroke="none"><path fill="#000000" d="M -0.25,0.77 Q -0.25,0.77 -1.21,0.44 -2.16,0.11 -3.05,-0.16 -3.94,-0.45 -4.80,-0.72 -5.66,-0.99 -6.73,-1.12 -7.80,-1.25 -8.85,-1.16 -9.90,-1.07 -10.91,-0.59 -11.92,-0.11 -12.84,0.39 -13.76,0.90 -14.54,2.13 -15.32,3.37 -15.66,4.65 -16.00,5.92 -15.99,7.37 -15.99,8.82 -15.68,10.03 -15.38,11.24 -14.34,12.64 -13.30,14.03 -12.12,14.92 -10.95,15.81 -9.28,16.00 -7.61,16.19 -5.68,15.67 -3.75,15.15 -1.92,14.11 -0.10,13.08 0.02,13.04 0.14,13.00 0.26,13.00 0.39,13.00 0.51,13.04 0.63,13.08 0.73,13.16 0.83,13.24 0.90,13.34 0.97,13.45 1.00,13.57 1.04,13.69 1.03,13.82 1.02,13.94 0.97,14.06 0.93,14.18 0.84,14.28 0.76,14.37 0.65,14.44 0.54,14.50 0.42,14.53 0.30,14.55 0.17,14.54 0.04,14.53 -0.06,14.47 -0.18,14.42 -0.27,14.33 -0.36,14.24 -0.42,14.13 -0.48,14.02 -0.50,13.89 -0.52,13.77 -0.49,13.64 -0.47,13.52 -0.41,13.41 -0.35,13.29 -0.26,13.21 -0.17,13.12 -0.05,13.07 0.05,13.02 0.18,13.00 0.30,12.99 0.43,13.02 0.55,13.05 0.66,13.11 0.77,13.18 0.85,13.27 0.93,13.37 0.98,13.49 1.02,13.61 1.03,13.73 1.04,13.86 1.00,13.98 0.97,14.10 0.90,14.21 0.82,14.31 0.72,14.39 0.62,14.47 0.62,14.47 0.62,14.47 -1.39,15.44 -3.41,16.42 -5.58,16.96 -7.75,17.50 -9.71,17.20 -11.67,16.90 -13.02,15.86 -14.37,14.83 -15.52,13.21 -16.67,11.59 -17.00,10.21 -17.34,8.83 -17.33,7.20 -17.32,5.57 -16.91,4.10 -16.49,2.63 -15.50,1.17 -14.52,-0.28 -13.53,-0.85 -12.54,-1.43 -11.31,-2.00 -10.07,-2.57 -8.86,-2.70 -7.64,-2.83 -6.39,-2.71 -5.13,-2.60 -4.28,-2.30 -3.43,-2.00 -2.54,-1.70 -1.66,-1.39 -0.70,-1.08 0.25,-0.77 0.34,-0.73 0.43,-0.68 0.51,-0.62 0.58,-0.56 0.64,-0.48 0.70,-0.40 0.74,-0.31 0.78,-0.22 0.79,-0.13 0.81,-0.03 0.80,0.06 0.79,0.16 0.76,0.25 0.73,0.34 0.68,0.43 0.63,0.51 0.56,0.58 0.48,0.65 0.40,0.70 0.31,0.74 0.22,0.77 0.13,0.80 0.03,0.80 -0.06,0.81 -0.16,0.79 -0.25,0.77 -0.25,0.77 L -0.25,0.77 Z"/></g><g transform="translate(250.5555419921875 86.66666793823242) rotate(0 9.999984741210938 26.666664123535156)" stroke="none"><path fill="#000000" d="M -0.85,0 Q -0.85,0 -0.90,-0.63 -0.94,-1.27 -0.93,-1.39 -0.91,-1.50 -0.87,-1.61 -0.83,-1.71 -0.77,-1.81 -0.70,-1.90 -0.62,-1.98 -0.53,-2.05 -0.43,-2.10 -0.33,-2.16 -0.22,-2.18 -0.11,-2.21 0.00,-2.21 0.11,-2.21 0.22,-2.18 0.33,-2.16 0.43,-2.10 0.53,-2.05 0.62,-1.98 0.70,-1.90 0.77,-1.81 0.83,-1.71 0.87,-1.61 0.91,-1.50 0.93,-1.39 0.94,-1.27 1.08,-0.26 1.23,0.74 1.58,3.21 1.93,5.68 2.39,9.45 2.85,13.23 3.36,18.19 3.87,23.15 4.24,28.30 4.60,33.45 4.76,37.25 4.91,41.04 4.97,43.46 5.03,45.88 4.77,46.73 4.51,47.59 4.50,47.68 4.49,47.77 4.46,47.85 4.43,47.94 4.38,48.01 4.33,48.09 4.27,48.15 4.20,48.21 4.12,48.26 4.04,48.30 3.96,48.33 3.87,48.35 3.78,48.35 3.69,48.36 3.60,48.34 3.51,48.32 3.43,48.28 3.35,48.24 3.28,48.18 3.21,48.12 3.16,48.05 3.10,47.98 3.07,47.89 3.03,47.81 3.02,47.72 3.01,47.63 2.48,46.71 1.95,45.80 1.19,43.03 0.43,40.26 -0.20,37.02 -0.83,33.77 -1.26,29.66 -1.69,25.55 -1.72,21.06 -1.74,16.58 -1.43,12.58 -1.11,8.59 -0.33,5.56 0.44,2.54 1.11,0.91 1.78,-0.71 2.73,-1.54 3.69,-2.36 4.71,-2.23 5.72,-2.10 6.69,-1.12 7.66,-0.13 8.51,1.08 9.36,2.30 10.06,3.98 10.76,5.67 11.22,8.19 11.68,10.70 11.87,14.02 12.06,17.34 11.98,20.83 11.90,24.33 11.70,27.25 11.50,30.18 11.10,32.73 10.69,35.27 10.15,36.61 9.60,37.94 9.32,38.13 9.05,38.32 9.00,38.40 8.96,38.49 8.89,38.56 8.83,38.63 8.75,38.68 8.67,38.73 8.58,38.76 8.49,38.79 8.40,38.80 8.30,38.81 8.21,38.80 8.12,38.79 8.03,38.75 7.94,38.72 7.86,38.66 7.79,38.61 7.72,38.54 7.66,38.46 7.62,38.38 7.58,38.29 7.56,38.20 7.54,38.11 7.54,38.02 7.54,37.92 7.56,37.83 7.59,37.74 7.46,36.89 7.34,36.05 7.76,34.21 8.18,32.37 9.03,30.76 9.88,29.15 11.27,27.93 12.66,26.70 14.06,26.34 15.47,25.97 16.64,26.68 17.82,27.39 18.81,29.21 19.81,31.04 20.38,33.28 20.94,35.52 21.34,38.55 21.74,41.59 21.91,44.81 22.07,48.02 22.14,50.18 22.21,52.34 22.32,53.88 22.43,55.41 22.41,55.53 22.39,55.66 22.34,55.77 22.28,55.89 22.19,55.98 22.10,56.07 21.99,56.12 21.87,56.18 21.75,56.20 21.62,56.21 21.50,56.19 21.37,56.17 21.26,56.10 21.15,56.04 21.07,55.95 20.98,55.85 20.93,55.74 20.88,55.62 20.87,55.49 20.86,55.37 20.89,55.24 20.92,55.12 20.99,55.01 21.06,54.91 21.16,54.83 21.26,54.75 21.38,54.70 21.49,54.66 21.62,54.66 21.75,54.65 21.87,54.69 21.99,54.73 22.09,54.80 22.20,54.88 22.27,54.98 22.35,55.08 22.38,55.20 22.42,55.32 22.42,55.45 22.41,55.58 22.37,55.70 22.33,55.82 22.25,55.91 22.17,56.01 22.06,56.08 21.95,56.15 21.83,56.18 21.71,56.21 21.58,56.20 21.45,56.19 21.34,56.14 21.22,56.09 21.13,56.01 21.03,55.92 20.97,55.81 20.91,55.70 20.88,55.58 20.86,55.45 20.86,55.45 20.86,55.45 20.88,53.92 20.90,52.39 20.83,50.24 20.76,48.09 20.60,44.92 20.43,41.76 20.05,38.80 19.67,35.84 19.15,33.74 18.64,31.64 17.83,30.03 17.03,28.42 16.24,27.80 15.44,27.19 14.46,27.46 13.47,27.73 12.25,28.77 11.03,29.80 10.25,31.25 9.48,32.69 9.07,34.29 8.67,35.88 8.86,37.10 9.05,38.32 9.00,38.40 8.96,38.49 8.89,38.56 8.83,38.63 8.75,38.68 8.67,38.73 8.58,38.76 8.49,38.79 8.40,38.80 8.30,38.81 8.21,38.80 8.12,38.79 8.03,38.75 7.94,38.72 7.86,38.66 7.79,38.61 7.72,38.54 7.66,38.46 7.62,38.38 7.58,38.29 7.56,38.20 7.54,38.11 7.54,38.02 7.54,37.92 7.56,37.83 7.59,37.74 8.05,37.52 8.50,37.30 8.94,36.18 9.38,35.06 9.77,32.57 10.17,30.09 10.36,27.19 10.55,24.30 10.63,20.86 10.70,17.42 10.52,14.18 10.33,10.95 9.90,8.58 9.47,6.20 8.83,4.66 8.19,3.11 7.38,1.99 6.58,0.86 5.91,0.08 5.24,-0.68 4.65,-0.94 4.07,-1.20 3.52,-0.68 2.97,-0.16 2.34,1.35 1.72,2.88 0.96,5.78 0.20,8.69 -0.10,12.63 -0.41,16.57 -0.39,20.99 -0.36,25.41 0.05,29.46 0.48,33.51 1.11,36.71 1.74,39.91 2.44,42.52 3.15,45.14 3.83,46.36 4.51,47.59 4.50,47.68 4.49,47.77 4.46,47.85 4.43,47.94 4.38,48.01 4.33,48.09 4.27,48.15 4.20,48.21 4.12,48.26 4.04,48.30 3.96,48.33 3.87,48.35 3.78,48.35 3.69,48.36 3.60,48.34 3.51,48.32 3.43,48.28 3.35,48.24 3.28,48.18 3.21,48.12 3.16,48.05 3.10,47.98 3.07,47.89 3.03,47.81 3.02,47.72 3.01,47.63 3.32,46.76 3.64,45.89 3.56,43.50 3.49,41.10 3.31,37.33 3.14,33.56 2.75,28.44 2.35,23.31 1.81,18.37 1.26,13.43 0.75,9.69 0.24,5.95 -0.17,3.51 -0.59,1.07 -0.77,-0.10 -0.94,-1.27 -0.93,-1.39 -0.91,-1.50 -0.87,-1.61 -0.83,-1.71 -0.77,-1.81 -0.70,-1.90 -0.62,-1.98 -0.53,-2.05 -0.43,-2.10 -0.33,-2.16 -0.22,-2.18 -0.11,-2.21 -0.00,-2.21 0.11,-2.21 0.22,-2.18 0.33,-2.16 0.43,-2.10 0.53,-2.05 0.62,-1.98 0.70,-1.90 0.77,-1.81 0.83,-1.71 0.87,-1.61 0.91,-1.50 0.93,-1.39 0.94,-1.27 0.90,-0.63 0.85,0 0.84,0.10 0.83,0.20 0.79,0.30 0.76,0.39 0.70,0.48 0.64,0.56 0.56,0.63 0.48,0.70 0.39,0.75 0.30,0.80 0.20,0.82 0.10,0.85 -0.00,0.85 -0.10,0.85 -0.20,0.82 -0.30,0.80 -0.39,0.75 -0.48,0.70 -0.56,0.63 -0.64,0.56 -0.70,0.48 -0.76,0.39 -0.79,0.30 -0.83,0.20 -0.84,0.10 -0.85,-0.00 -0.85,-0.00 L -0.85,0 Z"/></g><g transform="translate(303.3332824707031 105.5555534362793) rotate(0 -9.444427490234375 10)" stroke="none"><path fill="#000000" d="M -0.13,0.79 Q -0.13,0.79 -1.09,0.63 -2.04,0.47 -2.96,0.25 -3.88,0.03 -5.10,0.08 -6.32,0.13 -7.86,0.14 -9.39,0.15 -10.80,0.30 -12.21,0.46 -13.22,0.82 -14.24,1.18 -15.08,1.92 -15.92,2.66 -16.58,3.71 -17.23,4.77 -17.50,6.26 -17.77,7.75 -17.73,9.64 -17.70,11.53 -17.53,13.13 -17.37,14.72 -16.69,16.11 -16.01,17.49 -15.15,18.35 -14.30,19.20 -12.76,19.53 -11.22,19.86 -9.33,19.71 -7.43,19.56 -4.44,18.99 -1.46,18.42 -1.34,18.41 -1.22,18.41 -1.11,18.45 -1.00,18.48 -0.91,18.55 -0.81,18.62 -0.75,18.72 -0.68,18.81 -0.65,18.92 -0.61,19.03 -0.62,19.15 -0.62,19.27 -0.67,19.38 -0.71,19.49 -0.78,19.58 -0.85,19.67 -0.95,19.73 -1.05,19.79 -1.17,19.82 -1.28,19.84 -1.40,19.83 -1.51,19.82 -1.62,19.77 -1.72,19.73 -1.81,19.65 -1.90,19.57 -1.95,19.47 -2.01,19.36 -2.03,19.25 -2.05,19.13 -2.03,19.02 -2.02,18.90 -1.96,18.80 -1.91,18.70 -1.83,18.62 -1.74,18.53 -1.64,18.48 -1.53,18.43 -1.42,18.42 -1.30,18.40 -1.19,18.43 -1.07,18.45 -0.97,18.51 -0.87,18.57 -0.79,18.66 -0.72,18.74 -0.67,18.85 -0.63,18.96 -0.62,19.07 -0.61,19.19 -0.64,19.30 -0.67,19.42 -0.74,19.51 -0.80,19.61 -0.89,19.68 -0.98,19.76 -1.09,19.79 -1.20,19.83 -1.20,19.83 -1.20,19.83 -4.27,20.35 -7.33,20.87 -9.42,21.01 -11.51,21.15 -13.33,20.67 -15.14,20.19 -16.17,19.14 -17.20,18.09 -17.94,16.49 -18.69,14.89 -18.86,13.22 -19.04,11.55 -19.07,9.53 -19.09,7.50 -18.75,5.79 -18.40,4.07 -17.62,2.84 -16.83,1.62 -15.79,0.74 -14.74,-0.12 -13.57,-0.54 -12.39,-0.97 -10.90,-1.15 -9.42,-1.34 -7.91,-1.38 -6.39,-1.43 -4.94,-1.50 -3.49,-1.58 -2.63,-1.34 -1.78,-1.11 -0.82,-0.95 0.13,-0.79 0.22,-0.76 0.31,-0.73 0.40,-0.68 0.48,-0.63 0.55,-0.57 0.62,-0.50 0.67,-0.42 0.72,-0.34 0.75,-0.24 0.78,-0.15 0.79,-0.06 0.80,0.03 0.78,0.13 0.76,0.22 0.73,0.31 0.69,0.40 0.63,0.48 0.57,0.55 0.50,0.61 0.42,0.68 0.33,0.72 0.25,0.76 0.15,0.78 0.06,0.80 -0.03,0.79 -0.13,0.79 -0.13,0.79 L -0.13,0.79 Z"/></g><g transform="translate(339.9999694824219 88.88889694213867) rotate(0 -3.611114501953125 21.388885498046875)" stroke="none"><path fill="#000000" d="M 0,0.79 Q 0,0.79 -1.11,0.77 -2.23,0.75 -3.12,0.91 -4.01,1.07 -4.99,1.43 -5.97,1.78 -7.14,2.54 -8.32,3.30 -9.44,4.39 -10.56,5.48 -11.67,6.88 -12.78,8.29 -14.03,10.61 -15.28,12.93 -16.29,15.34 -17.30,17.75 -17.89,19.87 -18.47,21.98 -18.72,24.28 -18.96,26.58 -18.75,28.46 -18.54,30.35 -17.53,32.35 -16.52,34.35 -14.70,36.12 -12.88,37.89 -10.26,39.09 -7.63,40.30 -4.97,40.65 -2.31,41.00 0.67,40.53 3.66,40.05 7.29,38.64 10.91,37.23 11.01,37.21 11.12,37.19 11.22,37.20 11.33,37.21 11.42,37.26 11.52,37.31 11.60,37.38 11.67,37.45 11.72,37.55 11.77,37.64 11.79,37.75 11.80,37.85 11.79,37.96 11.77,38.06 11.72,38.16 11.67,38.25 11.59,38.32 11.51,38.39 11.41,38.44 11.32,38.48 11.21,38.49 11.10,38.50 11.00,38.48 10.90,38.45 10.81,38.40 10.72,38.34 10.65,38.26 10.58,38.18 10.54,38.08 10.50,37.98 10.50,37.88 10.49,37.77 10.52,37.67 10.55,37.56 10.61,37.48 10.67,37.39 10.76,37.33 10.84,37.26 10.95,37.23 11.05,37.20 11.15,37.20 11.26,37.20 11.36,37.23 11.46,37.27 11.54,37.33 11.63,37.40 11.69,37.49 11.75,37.58 11.77,37.68 11.80,37.78 11.79,37.89 11.79,37.99 11.75,38.09 11.71,38.19 11.64,38.27 11.57,38.35 11.47,38.41 11.38,38.46 11.38,38.46 11.38,38.46 7.63,39.91 3.87,41.35 0.69,41.83 -2.48,42.31 -5.32,41.90 -8.17,41.50 -10.98,40.17 -13.79,38.84 -15.74,36.90 -17.69,34.96 -18.77,32.74 -19.85,30.52 -20.07,28.48 -20.28,26.45 -20.02,24.04 -19.76,21.63 -19.15,19.43 -18.55,17.23 -17.51,14.76 -16.48,12.28 -15.17,9.86 -13.86,7.44 -12.70,5.96 -11.54,4.48 -10.32,3.29 -9.11,2.10 -7.80,1.25 -6.49,0.40 -5.38,-0.01 -4.27,-0.44 -3.25,-0.59 -2.23,-0.75 -1.11,-0.77 0,-0.79 0.09,-0.77 0.18,-0.76 0.27,-0.73 0.36,-0.69 0.44,-0.64 0.52,-0.59 0.58,-0.52 0.65,-0.44 0.69,-0.36 0.73,-0.28 0.76,-0.18 0.78,-0.09 0.78,0.00 0.78,0.09 0.76,0.18 0.73,0.28 0.69,0.36 0.65,0.44 0.58,0.52 0.52,0.59 0.44,0.64 0.36,0.69 0.27,0.73 0.18,0.76 0.09,0.77 -0.00,0.79 -0.00,0.79 L 0,0.79 Z"/></g><g transform="translate(328.3332824707031 95.5555534362793) rotate(0 0.833343505859375 12.777778625488281)" stroke="none"><path fill="#000000" d="M 0.89,0.14 Q 0.89,0.14 0.72,1.10 0.55,2.05 0.61,3.48 0.68,4.91 0.85,6.82 1.03,8.73 1.41,11.46 1.80,14.18 2.12,17.11 2.44,20.04 2.70,22.27 2.95,24.50 2.94,24.63 2.93,24.76 2.88,24.89 2.83,25.01 2.74,25.11 2.65,25.21 2.54,25.28 2.42,25.35 2.29,25.37 2.16,25.40 2.03,25.38 1.89,25.36 1.77,25.31 1.65,25.25 1.56,25.15 1.46,25.06 1.40,24.94 1.34,24.82 1.32,24.69 1.30,24.56 1.32,24.42 1.35,24.29 1.41,24.17 1.48,24.06 1.58,23.97 1.68,23.88 1.80,23.82 1.92,23.77 2.06,23.76 2.19,23.74 2.32,23.77 2.45,23.81 2.56,23.88 2.68,23.95 2.76,24.05 2.85,24.16 2.89,24.28 2.94,24.41 2.95,24.54 2.95,24.68 2.91,24.80 2.87,24.93 2.80,25.04 2.72,25.15 2.61,25.23 2.50,25.31 2.38,25.35 2.25,25.39 2.11,25.39 1.98,25.39 1.85,25.34 1.73,25.30 1.62,25.21 1.52,25.13 1.44,25.02 1.37,24.90 1.34,24.77 1.30,24.64 1.30,24.64 1.30,24.64 1.16,22.42 1.01,20.20 0.67,17.30 0.33,14.39 -0.08,11.64 -0.51,8.89 -0.73,6.95 -0.95,5.01 -1.07,3.39 -1.18,1.77 -1.03,0.81 -0.89,-0.14 -0.85,-0.25 -0.82,-0.35 -0.77,-0.45 -0.71,-0.54 -0.64,-0.62 -0.56,-0.70 -0.47,-0.75 -0.38,-0.81 -0.28,-0.85 -0.17,-0.88 -0.06,-0.89 0.04,-0.90 0.14,-0.88 0.25,-0.86 0.35,-0.82 0.45,-0.77 0.54,-0.71 0.62,-0.64 0.69,-0.56 0.76,-0.47 0.81,-0.38 0.85,-0.28 0.87,-0.17 0.90,-0.06 0.89,0.03 0.89,0.14 0.89,0.14 L 0.89,0.14 Z"/></g></svg>