<svg version="1.1" xmlns="http://www.w3.org/2000/svg" viewBox="0 0 1983.045034785871 1216.1889834728472" width="1983.045034785871" height="1216.1889834728472" filter="invert(93%) hue-rotate(180deg)">
  <!-- svg-source:excalidraw -->
  
  <defs>
    <style class="style-fonts">
      @font-face {
        font-family: "Virgil";
        src: url("https://excalidraw.com/Virgil.woff2");
      }
      @font-face {
        font-family: "Cascadia";
        src: url("https://excalidraw.com/Cascadia.woff2");
      }
    </style>
    
  </defs>
  <rect x="0" y="0" width="1983.045034785871" height="1216.1889834728472" fill="#ffffff"/><g stroke-linecap="round"><g transform="translate(11.43219057047736 489.7798943219591) rotate(0 980.2756358346271 8.497838711237307)"><path d="M0.02 0.99 C326.9 3.84, 1634.75 15.27, 1961.61 17.76 M-1.43 0.47 C325.36 2.91, 1634.2 13.34, 1961.22 16.04" stroke="#1e1e1e" stroke-width="1" fill="none"/></g></g><mask/><g stroke-linecap="round"><g transform="translate(334.43634707868137 237.2938684957378) rotate(0 -4.72222900390625 275.8332824707031)"><path d="M-0.9 -0.82 C-2.52 90.83, -8.47 458.85, -9.79 550.74 M0.83 1.36 C-0.98 93.07, -9.24 460.15, -10.92 551.79" stroke="#1e1e1e" stroke-width="1" fill="none"/></g></g><mask/><g stroke-linecap="round"><g transform="translate(448.63006722097555 227.28022730229486) rotate(0 -3.0555419921875 286.111083984375)"><path d="M-0.41 0.99 C-1.3 96.55, -5.19 477.31, -5.96 572.48 M1.58 0.47 C0.59 95.73, -5.7 475.04, -6.83 570.49" stroke="#1e1e1e" stroke-width="1" fill="none"/></g></g><mask/><g transform="translate(322.76972110211887 196.7383913534038) rotate(0 -1.111114501953125 12.777778625488281)" stroke="none"><path fill="#1e1e1e" d="M 0.85,0.19 Q 0.85,0.19 0.34,2.26 -0.16,4.33 -0.53,7.40 -0.91,10.47 -1.08,13.53 -1.25,16.59 -1.12,20.24 -1.00,23.90 -1.02,24.01 -1.03,24.13 -1.08,24.23 -1.13,24.34 -1.21,24.42 -1.30,24.50 -1.40,24.56 -1.50,24.61 -1.62,24.63 -1.73,24.64 -1.85,24.62 -1.96,24.60 -2.06,24.55 -2.17,24.49 -2.24,24.40 -2.32,24.32 -2.37,24.21 -2.42,24.10 -2.43,23.99 -2.44,23.87 -2.41,23.76 -2.38,23.65 -2.32,23.55 -2.26,23.45 -2.17,23.38 -2.08,23.30 -1.97,23.26 -1.86,23.22 -1.75,23.22 -1.63,23.21 -1.52,23.24 -1.41,23.28 -1.31,23.34 -1.22,23.41 -1.15,23.51 -1.08,23.60 -1.04,23.71 -1.01,23.82 -1.01,23.94 -1.01,24.05 -1.05,24.16 -1.09,24.27 -1.16,24.36 -1.24,24.46 -1.33,24.52 -1.43,24.58 -1.54,24.61 -1.66,24.64 -1.77,24.63 -1.89,24.62 -2.00,24.58 -2.10,24.53 -2.19,24.46 -2.28,24.38 -2.34,24.28 -2.39,24.18 -2.42,24.06 -2.44,23.95 -2.44,23.95 -2.44,23.95 -2.59,20.23 -2.73,16.51 -2.59,13.40 -2.45,10.30 -2.10,7.13 -1.75,3.96 -1.30,1.88 -0.85,-0.19 -0.82,-0.29 -0.78,-0.39 -0.72,-0.48 -0.66,-0.57 -0.58,-0.64 -0.51,-0.71 -0.41,-0.76 -0.32,-0.81 -0.22,-0.84 -0.11,-0.87 -0.01,-0.87 0.09,-0.87 0.19,-0.85 0.29,-0.82 0.39,-0.77 0.48,-0.73 0.56,-0.66 0.64,-0.59 0.71,-0.50 0.77,-0.42 0.81,-0.32 0.85,-0.22 0.86,-0.11 0.87,-0.01 0.86,0.09 0.85,0.19 0.85,0.19 L 0.85,0.19 Z"/></g><g transform="translate(318.88080508649387 212.29394860438038) rotate(0 7.22222900390625 -0.27777862548828125)" stroke="none"><path fill="#1e1e1e" d="M 0,-0.94 Q 0,-0.94 0.96,-0.92 1.92,-0.91 3.23,-0.54 4.54,-0.17 6.09,-0.03 7.64,0.11 9.03,-0.11 10.43,-0.35 11.88,-1.21 13.33,-2.06 13.47,-2.10 13.60,-2.15 13.74,-2.15 13.88,-2.15 14.01,-2.11 14.15,-2.06 14.26,-1.97 14.37,-1.89 14.45,-1.77 14.53,-1.66 14.57,-1.52 14.61,-1.38 14.60,-1.24 14.59,-1.10 14.54,-0.97 14.49,-0.84 14.40,-0.73 14.30,-0.63 14.18,-0.55 14.06,-0.48 13.92,-0.45 13.79,-0.42 13.65,-0.44 13.51,-0.45 13.38,-0.51 13.25,-0.57 13.15,-0.67 13.05,-0.76 12.98,-0.89 12.92,-1.01 12.89,-1.15 12.87,-1.29 12.89,-1.43 12.92,-1.57 12.98,-1.69 13.05,-1.82 13.15,-1.91 13.25,-2.01 13.38,-2.07 13.51,-2.13 13.65,-2.14 13.79,-2.16 13.92,-2.13 14.06,-2.10 14.18,-2.03 14.30,-1.95 14.40,-1.85 14.49,-1.74 14.54,-1.61 14.59,-1.48 14.60,-1.34 14.61,-1.20 14.57,-1.06 14.53,-0.93 14.45,-0.81 14.37,-0.69 14.26,-0.61 14.15,-0.52 14.15,-0.52 14.15,-0.52 12.43,0.30 10.71,1.12 9.12,1.41 7.53,1.70 5.82,1.57 4.11,1.45 3.01,1.18 1.90,0.91 0.95,0.92 0,0.94 -0.11,0.92 -0.22,0.91 -0.33,0.87 -0.43,0.83 -0.53,0.76 -0.62,0.70 -0.69,0.61 -0.77,0.53 -0.82,0.43 -0.87,0.33 -0.90,0.22 -0.93,0.11 -0.93,-0.00 -0.93,-0.11 -0.90,-0.22 -0.87,-0.33 -0.82,-0.43 -0.77,-0.53 -0.69,-0.61 -0.62,-0.70 -0.53,-0.76 -0.43,-0.83 -0.33,-0.87 -0.22,-0.91 -0.11,-0.92 0.00,-0.94 0.00,-0.94 L 0,-0.94 Z"/></g><g transform="translate(333.32526309430637 196.7383913534038) rotate(0 -1.111114501953125 16.111106872558594)" stroke="none"><path fill="#1e1e1e" d="M 0.86,-0.06 Q 0.86,-0.06 0.99,2.01 1.12,4.09 0.69,7.29 0.26,10.49 -0.24,13.89 -0.76,17.29 -1.13,20.80 -1.51,24.31 -1.72,27.57 -1.94,30.83 -1.96,30.94 -1.99,31.06 -2.05,31.16 -2.12,31.26 -2.21,31.34 -2.30,31.41 -2.41,31.46 -2.53,31.50 -2.64,31.50 -2.76,31.51 -2.88,31.48 -2.99,31.44 -3.09,31.37 -3.19,31.30 -3.26,31.21 -3.33,31.11 -3.37,31.00 -3.41,30.88 -3.40,30.76 -3.40,30.64 -3.36,30.53 -3.32,30.42 -3.25,30.33 -3.17,30.23 -3.07,30.17 -2.97,30.10 -2.86,30.07 -2.74,30.04 -2.62,30.05 -2.50,30.06 -2.39,30.10 -2.28,30.15 -2.19,30.23 -2.10,30.30 -2.04,30.41 -1.98,30.51 -1.96,30.63 -1.94,30.75 -1.95,30.86 -1.96,30.98 -2.02,31.09 -2.07,31.20 -2.15,31.28 -2.24,31.37 -2.34,31.42 -2.45,31.48 -2.57,31.50 -2.68,31.51 -2.80,31.49 -2.92,31.47 -3.03,31.41 -3.13,31.36 -3.21,31.27 -3.29,31.18 -3.34,31.07 -3.39,30.96 -3.40,30.84 -3.41,30.72 -3.41,30.72 -3.41,30.72 -3.18,27.44 -2.94,24.16 -2.58,20.62 -2.22,17.08 -1.74,13.68 -1.26,10.28 -0.87,7.25 -0.49,4.21 -0.67,2.13 -0.86,0.06 -0.86,-0.03 -0.85,-0.14 -0.82,-0.24 -0.79,-0.34 -0.74,-0.43 -0.69,-0.52 -0.62,-0.60 -0.54,-0.67 -0.45,-0.73 -0.37,-0.78 -0.27,-0.82 -0.17,-0.85 -0.06,-0.86 0.03,-0.86 0.14,-0.85 0.24,-0.83 0.34,-0.79 0.43,-0.75 0.52,-0.68 0.60,-0.62 0.67,-0.54 0.73,-0.46 0.78,-0.36 0.82,-0.27 0.84,-0.16 0.86,-0.06 0.86,-0.06 L 0.86,-0.06 Z"/></g><g transform="translate(439.7513264873744 196.8176885265491) rotate(0 -0.833343505859375 11.666671752929688)" stroke="none"><path fill="#1e1e1e" d="M 0.91,0.11 Q 0.91,0.11 0.56,2.66 0.20,5.21 -0.11,7.89 -0.43,10.56 -0.57,13.43 -0.72,16.30 -0.54,19.16 -0.36,22.01 -0.37,22.14 -0.39,22.27 -0.44,22.39 -0.50,22.51 -0.59,22.61 -0.68,22.70 -0.80,22.76 -0.91,22.83 -1.04,22.85 -1.17,22.87 -1.30,22.85 -1.43,22.82 -1.55,22.76 -1.67,22.70 -1.76,22.60 -1.85,22.51 -1.90,22.39 -1.96,22.27 -1.97,22.14 -1.99,22.01 -1.96,21.88 -1.93,21.75 -1.86,21.64 -1.79,21.52 -1.69,21.44 -1.59,21.35 -1.47,21.31 -1.35,21.26 -1.21,21.25 -1.08,21.24 -0.96,21.28 -0.83,21.31 -0.72,21.39 -0.61,21.46 -0.53,21.57 -0.45,21.67 -0.41,21.80 -0.37,21.92 -0.37,22.05 -0.37,22.19 -0.41,22.31 -0.45,22.44 -0.53,22.54 -0.61,22.65 -0.72,22.72 -0.83,22.79 -0.96,22.83 -1.09,22.86 -1.22,22.86 -1.35,22.85 -1.47,22.80 -1.59,22.75 -1.69,22.66 -1.80,22.58 -1.86,22.47 -1.93,22.35 -1.96,22.22 -1.99,22.10 -1.99,22.10 -1.99,22.10 -2.11,19.17 -2.24,16.23 -2.13,13.31 -2.02,10.39 -1.75,7.69 -1.48,5.00 -1.20,2.44 -0.91,-0.11 -0.88,-0.22 -0.86,-0.33 -0.81,-0.42 -0.75,-0.52 -0.68,-0.61 -0.61,-0.69 -0.51,-0.75 -0.42,-0.81 -0.32,-0.85 -0.21,-0.89 -0.10,-0.91 0.00,-0.92 0.11,-0.90 0.22,-0.89 0.32,-0.85 0.43,-0.81 0.52,-0.75 0.61,-0.68 0.68,-0.60 0.76,-0.52 0.81,-0.42 0.86,-0.32 0.89,-0.21 0.91,-0.10 0.91,0.00 0.91,0.11 0.91,0.11 L 0.91,0.11 Z"/></g><g transform="translate(440.86247150690565 209.03991753045534) rotate(0 5.27777099609375 -1.388885498046875)" stroke="none"><path fill="#1e1e1e" d="M 0.13,-0.96 Q 0.13,-0.96 1.24,-0.76 2.35,-0.56 3.53,-0.62 4.70,-0.68 7.09,-2.18 9.49,-3.69 9.62,-3.76 9.75,-3.83 9.90,-3.85 10.05,-3.88 10.20,-3.85 10.35,-3.83 10.48,-3.76 10.61,-3.69 10.71,-3.58 10.82,-3.47 10.88,-3.33 10.94,-3.20 10.96,-3.05 10.98,-2.90 10.94,-2.75 10.91,-2.60 10.84,-2.48 10.76,-2.35 10.64,-2.25 10.53,-2.15 10.39,-2.10 10.25,-2.04 10.10,-2.03 9.95,-2.02 9.81,-2.06 9.66,-2.10 9.54,-2.19 9.41,-2.27 9.32,-2.39 9.23,-2.51 9.18,-2.65 9.13,-2.80 9.13,-2.95 9.13,-3.10 9.18,-3.24 9.23,-3.38 9.32,-3.50 9.41,-3.62 9.53,-3.70 9.66,-3.79 9.80,-3.83 9.95,-3.87 10.10,-3.86 10.25,-3.85 10.39,-3.80 10.53,-3.74 10.64,-3.65 10.76,-3.55 10.83,-3.42 10.91,-3.29 10.94,-3.14 10.98,-3.00 10.96,-2.85 10.94,-2.70 10.88,-2.56 10.82,-2.43 10.72,-2.32 10.61,-2.21 10.61,-2.21 10.61,-2.21 7.73,-0.62 4.86,0.95 3.48,1.07 2.11,1.19 0.98,1.08 -0.13,0.96 -0.25,0.93 -0.36,0.90 -0.46,0.84 -0.57,0.78 -0.65,0.71 -0.74,0.63 -0.80,0.53 -0.87,0.43 -0.91,0.32 -0.95,0.21 -0.96,0.09 -0.97,-0.02 -0.95,-0.13 -0.94,-0.25 -0.89,-0.36 -0.85,-0.47 -0.78,-0.56 -0.71,-0.66 -0.62,-0.73 -0.53,-0.81 -0.43,-0.86 -0.32,-0.91 -0.21,-0.94 -0.09,-0.96 0.02,-0.96 0.13,-0.96 0.13,-0.96 L 0.13,-0.96 Z"/></g><g transform="translate(451.97355549128065 198.48436027947878) rotate(0 -1.388885498046875 12.222221374511719)" stroke="none"><path fill="#1e1e1e" d="M 0.86,0.14 Q 0.86,0.14 0.70,1.10 0.53,2.05 0.11,3.76 -0.30,5.46 -0.64,7.74 -0.98,10.01 -1.29,13.21 -1.60,16.41 -1.54,19.69 -1.49,22.97 -1.51,23.09 -1.52,23.21 -1.58,23.31 -1.63,23.42 -1.72,23.51 -1.81,23.59 -1.92,23.64 -2.03,23.70 -2.15,23.71 -2.27,23.73 -2.39,23.70 -2.51,23.68 -2.61,23.62 -2.72,23.56 -2.80,23.46 -2.87,23.37 -2.92,23.26 -2.97,23.15 -2.98,23.03 -2.98,22.91 -2.95,22.79 -2.92,22.67 -2.86,22.57 -2.79,22.47 -2.69,22.40 -2.60,22.32 -2.48,22.28 -2.37,22.24 -2.25,22.24 -2.13,22.24 -2.01,22.27 -1.90,22.31 -1.80,22.38 -1.70,22.45 -1.63,22.55 -1.56,22.65 -1.53,22.77 -1.49,22.89 -1.50,23.01 -1.50,23.13 -1.55,23.24 -1.59,23.36 -1.67,23.45 -1.74,23.54 -1.85,23.61 -1.95,23.67 -2.07,23.70 -2.19,23.73 -2.31,23.71 -2.43,23.70 -2.54,23.65 -2.65,23.60 -2.74,23.52 -2.83,23.44 -2.89,23.33 -2.95,23.23 -2.97,23.11 -2.99,22.99 -2.99,22.99 -2.99,22.99 -3.03,19.63 -3.07,16.28 -2.78,13.04 -2.50,9.80 -2.19,7.45 -1.88,5.10 -1.52,3.44 -1.17,1.77 -1.01,0.81 -0.86,-0.14 -0.83,-0.24 -0.80,-0.34 -0.75,-0.43 -0.70,-0.53 -0.62,-0.60 -0.55,-0.68 -0.46,-0.73 -0.37,-0.79 -0.27,-0.82 -0.17,-0.86 -0.06,-0.87 0.03,-0.87 0.14,-0.86 0.24,-0.84 0.34,-0.80 0.44,-0.76 0.52,-0.69 0.61,-0.63 0.67,-0.54 0.74,-0.46 0.79,-0.37 0.83,-0.27 0.85,-0.17 0.87,-0.06 0.87,0.03 0.86,0.14 0.86,0.14 L 0.86,0.14 Z"/></g><g transform="translate(464.1957844951869 176.2621465343616) rotate(0 -0.27777099609375 9.166664123535156)" stroke="none"><path fill="#1e1e1e" d="M 0.90,0 Q 0.90,0 0.90,0.95 0.89,1.91 0.69,3.48 0.50,5.05 0.41,7.58 0.32,10.11 0.28,13.48 0.23,16.85 0.21,16.97 0.19,17.10 0.13,17.21 0.07,17.32 -0.01,17.40 -0.11,17.49 -0.22,17.54 -0.33,17.59 -0.46,17.60 -0.58,17.61 -0.71,17.59 -0.83,17.56 -0.93,17.49 -1.04,17.43 -1.12,17.33 -1.20,17.23 -1.25,17.12 -1.29,17.00 -1.30,16.87 -1.30,16.75 -1.27,16.63 -1.23,16.51 -1.16,16.40 -1.09,16.30 -0.99,16.23 -0.89,16.15 -0.77,16.11 -0.65,16.07 -0.52,16.08 -0.40,16.08 -0.28,16.12 -0.16,16.16 -0.06,16.24 0.03,16.31 0.10,16.42 0.17,16.52 0.20,16.65 0.23,16.77 0.22,16.89 0.21,17.02 0.16,17.13 0.12,17.25 0.03,17.34 -0.04,17.44 -0.15,17.50 -0.25,17.56 -0.38,17.59 -0.50,17.62 -0.62,17.60 -0.75,17.59 -0.86,17.53 -0.98,17.48 -1.07,17.39 -1.16,17.30 -1.21,17.19 -1.27,17.08 -1.29,16.96 -1.31,16.83 -1.31,16.83 -1.31,16.83 -1.27,13.45 -1.23,10.07 -1.19,7.47 -1.14,4.88 -1.01,3.39 -0.89,1.91 -0.90,0.95 -0.90,0 -0.89,-0.10 -0.88,-0.21 -0.84,-0.32 -0.80,-0.42 -0.74,-0.51 -0.68,-0.60 -0.59,-0.67 -0.51,-0.74 -0.41,-0.79 -0.32,-0.85 -0.21,-0.87 -0.10,-0.90 0.00,-0.90 0.10,-0.90 0.21,-0.87 0.32,-0.85 0.41,-0.79 0.51,-0.74 0.59,-0.67 0.68,-0.60 0.74,-0.51 0.80,-0.42 0.84,-0.32 0.88,-0.21 0.89,-0.10 0.90,0.00 0.90,0.00 L 0.90,0 Z"/></g><g stroke-linecap="round"><g transform="translate(1015.8312343155774 100.01556948563103) rotate(0 -2.4327044981068866 552.7209686820119)"><path d="M0.52 1.11 C-0.32 185.63, -3.08 921.98, -3.92 1106.17 M-0.66 0.64 C-1.68 184.91, -3.63 920.48, -4.38 1104.43" stroke="#1e1e1e" stroke-width="1" fill="none"/></g></g><mask/><g stroke-linecap="round"><g transform="translate(1136.2212423714197 80.96752796246938) rotate(0 -2.9236528408222284 561.0804533505091)"><path d="M0.94 0.73 C-0.07 187.71, -4.43 936.07, -5.54 1123 M-0.02 0.07 C-1.21 187.23, -5.26 934.05, -6.33 1121.32" stroke="#1e1e1e" stroke-width="1" fill="none"/></g></g><mask/><g stroke-linecap="round"><g transform="translate(156.44983259907372 493.7074518687766) rotate(0 0.833343505859375 -39.72222900390625)"><path d="M0 0 C0.28 -13.24, 1.39 -66.2, 1.67 -79.44 M0 0 C0.28 -13.24, 1.39 -66.2, 1.67 -79.44" stroke="#1e1e1e" stroke-width="0.5" fill="none"/></g><g transform="translate(156.44983259907372 493.7074518687766) rotate(0 0.833343505859375 -39.72222900390625)"><path d="M11.33 -51.04 C9.23 -57.24, 7.12 -63.43, 1.67 -79.44 M11.33 -51.04 C8.64 -58.97, 5.94 -66.89, 1.67 -79.44" stroke="#1e1e1e" stroke-width="0.5" fill="none"/></g><g transform="translate(156.44983259907372 493.7074518687766) rotate(0 0.833343505859375 -39.72222900390625)"><path d="M-9.18 -51.48 C-6.82 -57.57, -4.45 -63.67, 1.67 -79.44 M-9.18 -51.48 C-6.16 -59.28, -3.13 -67.08, 1.67 -79.44" stroke="#1e1e1e" stroke-width="0.5" fill="none"/></g></g><mask/><g transform="translate(343.6922443060516 222.2072586967958) rotate(0 6.384336496849869 4.560227829856757)" stroke="none"><path fill="#1e1e1e" d="M -0.72,-0.36 Q -0.72,-0.36 -0.49,-0.92 -0.27,-1.48 0.75,-2.33 1.78,-3.19 3.24,-4.28 4.70,-5.38 6.45,-6.14 8.21,-6.91 10.03,-6.85 11.85,-6.80 12.61,-5.41 13.38,-4.03 13.67,-1.80 13.97,0.43 13.55,3.51 13.14,6.60 12.89,10.63 12.64,14.66 12.61,14.77 12.59,14.88 12.53,14.97 12.47,15.06 12.39,15.13 12.31,15.20 12.20,15.24 12.10,15.28 11.99,15.29 11.88,15.29 11.78,15.26 11.67,15.23 11.58,15.17 11.49,15.11 11.43,15.02 11.36,14.94 11.33,14.83 11.29,14.73 11.29,14.62 11.29,14.51 11.33,14.40 11.37,14.30 11.43,14.21 11.50,14.13 11.59,14.07 11.68,14.01 11.79,13.98 11.89,13.95 12.00,13.96 12.11,13.96 12.21,14.00 12.31,14.05 12.40,14.12 12.48,14.19 12.54,14.28 12.59,14.38 12.61,14.48 12.64,14.59 12.62,14.70 12.61,14.81 12.56,14.91 12.52,15.01 12.44,15.09 12.37,15.16 12.27,15.21 12.17,15.27 12.06,15.28 11.96,15.30 11.85,15.28 11.74,15.26 11.64,15.21 11.55,15.16 11.47,15.08 11.40,15.00 11.35,14.90 11.31,14.80 11.30,14.69 11.29,14.58 11.29,14.58 11.29,14.58 11.53,10.50 11.78,6.41 12.18,3.50 12.59,0.59 12.34,-1.41 12.10,-3.43 11.60,-4.62 11.10,-5.82 9.94,-5.67 8.78,-5.51 7.22,-4.82 5.66,-4.12 4.26,-3.00 2.85,-1.89 2.08,-1.25 1.31,-0.61 1.02,-0.12 0.72,0.36 0.66,0.44 0.61,0.52 0.54,0.59 0.47,0.65 0.38,0.70 0.30,0.75 0.20,0.77 0.11,0.80 0.01,0.80 -0.08,0.80 -0.17,0.78 -0.27,0.76 -0.35,0.71 -0.44,0.67 -0.52,0.61 -0.59,0.54 -0.65,0.46 -0.70,0.39 -0.74,0.29 -0.78,0.20 -0.79,0.11 -0.80,0.01 -0.79,-0.08 -0.78,-0.17 -0.75,-0.27 -0.72,-0.36 -0.72,-0.36 L -0.72,-0.36 Z"/></g><g transform="translate(462.33340841798696 218.39767418659147) rotate(0 5.016226815274024 4.560227829856757)" stroke="none"><path fill="#1e1e1e" d="M -0.36,-0.73 Q -0.36,-0.73 0.68,-1.24 1.74,-1.74 3.01,-2.22 4.28,-2.71 5.56,-3.41 6.83,-4.11 8.09,-4.67 9.35,-5.23 10.12,-4.81 10.89,-4.39 10.90,-2.51 10.91,-0.64 10.60,1.93 10.29,4.51 9.89,6.67 9.48,8.82 9.68,11.15 9.87,13.48 9.86,13.61 9.85,13.74 9.79,13.86 9.74,13.98 9.64,14.08 9.55,14.18 9.44,14.24 9.32,14.30 9.19,14.32 9.06,14.35 8.93,14.32 8.79,14.30 8.68,14.24 8.56,14.18 8.47,14.08 8.38,13.99 8.32,13.87 8.26,13.75 8.25,13.61 8.23,13.48 8.26,13.35 8.29,13.22 8.36,13.11 8.43,12.99 8.53,12.91 8.63,12.82 8.75,12.77 8.87,12.72 9.01,12.71 9.14,12.71 9.27,12.74 9.40,12.78 9.51,12.85 9.62,12.92 9.70,13.03 9.78,13.14 9.82,13.26 9.86,13.39 9.86,13.52 9.86,13.65 9.82,13.78 9.78,13.91 9.70,14.01 9.62,14.12 9.51,14.19 9.40,14.27 9.27,14.30 9.15,14.34 9.01,14.33 8.88,14.33 8.76,14.28 8.63,14.23 8.53,14.14 8.43,14.06 8.36,13.94 8.29,13.83 8.26,13.70 8.23,13.57 8.23,13.57 8.23,13.57 8.15,11.07 8.06,8.57 8.43,6.46 8.80,4.34 9.08,1.81 9.35,-0.70 9.34,-2.36 9.33,-4.01 8.43,-3.43 7.53,-2.84 6.18,-2.08 4.83,-1.32 3.64,-0.83 2.44,-0.35 1.40,0.19 0.36,0.73 0.27,0.77 0.18,0.80 0.08,0.81 -0.01,0.82 -0.11,0.81 -0.21,0.79 -0.30,0.76 -0.39,0.72 -0.47,0.66 -0.55,0.60 -0.62,0.53 -0.68,0.45 -0.73,0.36 -0.77,0.27 -0.79,0.18 -0.82,0.08 -0.81,-0.01 -0.81,-0.11 -0.79,-0.21 -0.76,-0.30 -0.71,-0.39 -0.67,-0.48 -0.60,-0.55 -0.53,-0.62 -0.45,-0.68 -0.36,-0.73 -0.36,-0.73 L -0.36,-0.73 Z"/></g><g transform="translate(984.9898952297353 42.695814362990234) rotate(0 1.3680846315037343 16.416802652433944)" stroke="none"><path fill="#1e1e1e" d="M 0.79,-0.39 Q 0.79,-0.39 1.10,0.11 1.40,0.62 1.77,3.08 2.15,5.54 2.28,8.68 2.41,11.81 2.72,16.26 3.02,20.71 3.15,24.45 3.27,28.20 3.32,29.78 3.37,31.37 3.35,31.49 3.34,31.60 3.29,31.71 3.23,31.81 3.15,31.90 3.07,31.98 2.97,32.03 2.86,32.09 2.75,32.10 2.63,32.12 2.52,32.10 2.40,32.08 2.30,32.02 2.20,31.97 2.12,31.88 2.04,31.79 1.99,31.69 1.94,31.58 1.93,31.46 1.92,31.35 1.95,31.23 1.98,31.12 2.04,31.02 2.10,30.92 2.19,30.85 2.28,30.77 2.39,30.73 2.50,30.69 2.62,30.68 2.73,30.68 2.85,30.71 2.96,30.75 3.05,30.81 3.15,30.88 3.22,30.98 3.29,31.07 3.32,31.18 3.36,31.29 3.36,31.41 3.35,31.53 3.32,31.64 3.28,31.75 3.20,31.84 3.13,31.93 3.03,31.99 2.94,32.06 2.82,32.09 2.71,32.12 2.59,32.11 2.48,32.10 2.37,32.06 2.26,32.01 2.17,31.93 2.08,31.86 2.03,31.75 1.97,31.65 1.94,31.54 1.92,31.42 1.92,31.42 1.92,31.42 1.85,29.84 1.78,28.26 1.62,24.54 1.46,20.83 1.11,16.36 0.76,11.90 0.57,8.86 0.38,5.83 0.01,3.65 -0.35,1.47 -0.57,0.93 -0.79,0.39 -0.83,0.29 -0.87,0.19 -0.88,0.08 -0.89,-0.01 -0.87,-0.12 -0.86,-0.23 -0.82,-0.33 -0.78,-0.43 -0.71,-0.51 -0.65,-0.60 -0.57,-0.67 -0.49,-0.74 -0.39,-0.79 -0.29,-0.84 -0.19,-0.86 -0.09,-0.88 0.01,-0.88 0.12,-0.88 0.22,-0.85 0.33,-0.82 0.42,-0.77 0.52,-0.72 0.60,-0.65 0.67,-0.57 0.73,-0.48 0.79,-0.39 0.79,-0.39 L 0.79,-0.39 Z"/></g><g transform="translate(989.5500124034515 57.476875121945966) rotate(0 5.472288425871284 -1.368072106467821)" stroke="none"><path fill="#1e1e1e" d="M -0.89,-0.44 Q -0.89,-0.44 -0.62,-1.02 -0.36,-1.59 0.28,-2.05 0.93,-2.50 1.92,-2.39 2.91,-2.28 4.18,-1.88 5.44,-1.48 7.11,-2.08 8.77,-2.68 8.88,-2.64 8.98,-2.60 9.07,-2.54 9.17,-2.47 9.24,-2.39 9.31,-2.30 9.37,-2.20 9.42,-2.11 9.44,-2.00 9.47,-1.89 9.47,-1.78 9.47,-1.66 9.44,-1.55 9.42,-1.45 9.36,-1.35 9.31,-1.25 9.24,-1.16 9.16,-1.08 9.07,-1.02 8.98,-0.95 8.87,-0.91 8.77,-0.88 8.66,-0.86 8.55,-0.85 8.43,-0.86 8.32,-0.88 6.07,-0.36 3.82,0.15 3.67,0.15 3.52,0.16 3.37,0.12 3.23,0.08 3.11,-0.00 2.98,-0.09 2.89,-0.21 2.80,-0.33 2.76,-0.47 2.71,-0.61 2.71,-0.76 2.71,-0.91 2.76,-1.06 2.81,-1.20 2.91,-1.32 3.00,-1.43 3.12,-1.52 3.25,-1.60 3.39,-1.64 3.54,-1.68 3.69,-1.67 3.84,-1.66 3.98,-1.60 4.12,-1.54 4.23,-1.44 4.34,-1.35 4.42,-1.22 4.50,-1.09 4.53,-0.94 4.56,-0.79 4.54,-0.64 4.52,-0.49 4.46,-0.36 4.39,-0.22 4.29,-0.11 4.18,-0.01 4.05,0.05 3.92,0.12 3.77,0.14 3.62,0.17 3.47,0.14 3.32,0.11 3.19,0.04 3.06,-0.02 2.96,-0.13 2.86,-0.24 2.79,-0.38 2.73,-0.51 2.72,-0.66 2.70,-0.81 2.74,-0.96 2.77,-1.11 2.85,-1.23 2.93,-1.36 3.04,-1.46 3.16,-1.55 3.30,-1.61 3.44,-1.66 3.44,-1.66 3.44,-1.66 6.11,-2.17 8.77,-2.68 8.88,-2.64 8.98,-2.60 9.07,-2.54 9.17,-2.47 9.24,-2.39 9.31,-2.30 9.37,-2.20 9.42,-2.11 9.44,-2.00 9.47,-1.89 9.47,-1.78 9.47,-1.66 9.44,-1.56 9.42,-1.45 9.36,-1.35 9.31,-1.25 9.24,-1.16 9.16,-1.08 9.07,-1.02 8.98,-0.95 8.87,-0.91 8.77,-0.88 8.66,-0.86 8.55,-0.85 8.43,-0.86 8.32,-0.88 6.75,-0.19 5.18,0.49 3.30,-0.00 1.41,-0.50 1.15,-0.02 0.89,0.44 0.82,0.54 0.75,0.64 0.67,0.72 0.58,0.80 0.47,0.86 0.37,0.92 0.25,0.95 0.13,0.98 0.01,0.98 -0.10,0.99 -0.21,0.96 -0.33,0.93 -0.44,0.88 -0.55,0.83 -0.64,0.75 -0.73,0.67 -0.80,0.57 -0.87,0.48 -0.91,0.36 -0.96,0.25 -0.98,0.13 -0.99,0.01 -0.98,-0.10 -0.97,-0.21 -0.93,-0.33 -0.89,-0.44 -0.89,-0.44 L -0.89,-0.44 Z"/></g><g transform="translate(1003.2871615074312 36.368005071138214) rotate(0 -1.3680846315037343 17.328863248448442)" stroke="none"><path fill="#1e1e1e" d="M 0.72,0.48 Q 0.72,0.48 0.20,1.25 -0.31,2.03 -0.77,4.06 -1.22,6.08 -1.44,9.30 -1.66,12.52 -1.76,16.00 -1.86,19.48 -1.65,23.29 -1.44,27.10 -0.91,30.14 -0.38,33.17 -0.38,33.30 -0.38,33.42 -0.42,33.53 -0.46,33.65 -0.54,33.75 -0.61,33.85 -0.71,33.92 -0.81,33.98 -0.93,34.02 -1.05,34.05 -1.17,34.04 -1.29,34.04 -1.41,33.99 -1.52,33.95 -1.62,33.87 -1.71,33.79 -1.77,33.68 -1.84,33.58 -1.86,33.46 -1.89,33.34 -1.88,33.22 -1.86,33.10 -1.81,32.98 -1.76,32.87 -1.68,32.78 -1.59,32.69 -1.48,32.64 -1.38,32.58 -1.25,32.56 -1.13,32.54 -1.01,32.56 -0.89,32.58 -0.78,32.64 -0.67,32.69 -0.59,32.78 -0.51,32.87 -0.45,32.98 -0.40,33.09 -0.39,33.21 -0.38,33.34 -0.40,33.46 -0.43,33.58 -0.49,33.68 -0.55,33.79 -0.65,33.87 -0.74,33.95 -0.85,33.99 -0.97,34.04 -1.09,34.04 -1.21,34.05 -1.33,34.02 -1.45,33.99 -1.55,33.92 -1.65,33.85 -1.73,33.75 -1.80,33.65 -1.84,33.54 -1.88,33.42 -1.88,33.42 -1.88,33.42 -2.37,30.30 -2.87,27.19 -3.10,23.31 -3.34,19.44 -3.27,15.93 -3.19,12.42 -3.00,9.08 -2.80,5.73 -2.29,3.42 -1.77,1.11 -1.24,0.31 -0.72,-0.48 -0.65,-0.56 -0.58,-0.63 -0.50,-0.70 -0.41,-0.76 -0.31,-0.80 -0.22,-0.83 -0.11,-0.85 -0.01,-0.86 0.08,-0.85 0.19,-0.84 0.29,-0.80 0.39,-0.77 0.47,-0.71 0.56,-0.65 0.63,-0.58 0.70,-0.50 0.75,-0.41 0.80,-0.32 0.83,-0.21 0.85,-0.11 0.86,-0.01 0.86,0.09 0.83,0.19 0.81,0.29 0.76,0.38 0.72,0.48 0.72,0.48 L 0.72,0.48 Z"/></g><g transform="translate(1016.0369506942088 71.95658933031137) rotate(0 1.3680345313598536 5.016239340310051)" stroke="none"><path fill="#1e1e1e" d="M -0.79,-0.19 Q -0.79,-0.19 -0.44,-1.33 -0.08,-2.46 0.16,-2.57 0.41,-2.67 0.45,-2.77 0.48,-2.87 0.54,-2.96 0.61,-3.05 0.69,-3.12 0.77,-3.19 0.86,-3.24 0.96,-3.29 1.06,-3.31 1.16,-3.34 1.27,-3.34 1.38,-3.34 1.48,-3.31 1.58,-3.29 1.68,-3.24 1.77,-3.19 1.85,-3.12 1.93,-3.05 1.99,-2.96 2.05,-2.87 2.09,-2.77 2.13,-2.67 2.14,-2.56 2.15,-2.46 2.14,-2.35 2.13,-2.24 2.24,-1.44 2.36,-0.64 2.41,1.12 2.47,2.90 1.95,5.29 1.43,7.69 0.38,9.56 -0.66,11.43 -2.02,12.27 -3.38,13.11 -4.43,12.34 -5.47,11.58 -5.96,10.07 -6.45,8.56 -6.33,7.28 -6.20,5.99 -5.21,5.31 -4.22,4.63 -3.34,5.22 -2.47,5.80 -1.34,6.87 -0.21,7.94 0.97,8.88 2.17,9.83 3.57,9.92 4.98,10.02 6.20,9.56 7.41,9.11 7.49,9.12 7.57,9.14 7.65,9.18 7.72,9.22 7.79,9.27 7.85,9.32 7.90,9.39 7.95,9.46 7.98,9.54 8.01,9.61 8.03,9.70 8.04,9.78 8.03,9.86 8.02,9.95 8.00,10.02 7.97,10.10 7.92,10.17 7.88,10.24 7.82,10.30 7.76,10.36 7.68,10.40 7.61,10.44 7.53,10.46 7.45,10.48 7.36,10.49 7.28,10.49 4.92,7.53 2.56,4.58 2.51,4.48 2.46,4.38 2.44,4.27 2.42,4.16 2.44,4.05 2.46,3.94 2.52,3.84 2.57,3.74 2.65,3.66 2.73,3.58 2.84,3.54 2.94,3.49 3.05,3.48 3.16,3.47 3.27,3.49 3.38,3.52 3.48,3.58 3.57,3.64 3.64,3.72 3.72,3.81 3.76,3.91 3.80,4.02 3.80,4.13 3.81,4.24 3.78,4.35 3.75,4.46 3.68,4.55 3.62,4.64 3.53,4.71 3.44,4.78 3.33,4.81 3.23,4.85 3.11,4.85 3.00,4.85 2.90,4.81 2.79,4.77 2.70,4.70 2.61,4.64 2.55,4.54 2.49,4.45 2.46,4.34 2.43,4.23 2.44,4.12 2.44,4.01 2.48,3.90 2.53,3.80 2.60,3.71 2.67,3.63 2.77,3.57 2.87,3.51 2.98,3.49 3.09,3.47 3.20,3.48 3.31,3.49 3.41,3.54 3.51,3.59 3.59,3.67 3.67,3.74 3.67,3.74 3.67,3.74 5.54,6.43 7.41,9.11 7.49,9.12 7.57,9.14 7.65,9.18 7.72,9.22 7.79,9.27 7.85,9.32 7.90,9.39 7.95,9.46 7.98,9.54 8.01,9.61 8.03,9.70 8.04,9.78 8.03,9.86 8.02,9.95 8.00,10.02 7.97,10.10 7.92,10.17 7.88,10.24 7.82,10.30 7.76,10.36 7.68,10.40 7.61,10.44 7.53,10.46 7.45,10.48 7.36,10.49 7.28,10.49 6.10,10.96 4.92,11.42 3.16,11.22 1.40,11.03 0.07,10.04 -1.24,9.05 -2.34,8.05 -3.43,7.05 -4.22,6.71 -5.01,6.38 -5.08,7.30 -5.15,8.22 -4.84,9.43 -4.54,10.63 -3.73,11.33 -2.92,12.02 -2.39,11.36 -1.86,10.70 -0.91,9.04 0.02,7.37 0.50,5.16 0.97,2.94 0.89,1.27 0.81,-0.39 0.61,-1.53 0.41,-2.67 0.45,-2.77 0.48,-2.87 0.54,-2.96 0.61,-3.05 0.69,-3.12 0.77,-3.19 0.86,-3.24 0.96,-3.29 1.06,-3.31 1.16,-3.34 1.27,-3.34 1.38,-3.34 1.48,-3.31 1.58,-3.29 1.68,-3.24 1.77,-3.19 1.85,-3.12 1.93,-3.05 1.99,-2.96 2.05,-2.87 2.09,-2.77 2.13,-2.67 2.14,-2.56 2.15,-2.46 2.14,-2.35 2.13,-2.24 1.63,-1.98 1.13,-1.72 0.96,-0.76 0.79,0.19 0.76,0.29 0.72,0.38 0.67,0.46 0.61,0.54 0.54,0.61 0.46,0.67 0.37,0.72 0.28,0.77 0.19,0.79 0.09,0.81 -0.00,0.81 -0.10,0.81 -0.19,0.79 -0.29,0.76 -0.38,0.72 -0.47,0.67 -0.54,0.61 -0.61,0.54 -0.67,0.46 -0.73,0.38 -0.76,0.28 -0.80,0.19 -0.81,0.09 -0.82,-0.00 -0.81,-0.10 -0.79,-0.19 -0.79,-0.19 L -0.79,-0.19 Z"/></g><g transform="translate(1116.079181798595 30.021412172651992) rotate(0 -0.00015030043186925468 14.592719035512829)" stroke="none"><path fill="#1e1e1e" d="M 0.85,0.17 Q 0.85,0.17 0.56,1.47 0.27,2.77 0.40,5.33 0.54,7.88 0.59,11.65 0.64,15.42 0.66,18.32 0.67,21.23 1.07,24.44 1.47,27.66 1.46,27.78 1.46,27.90 1.42,28.01 1.37,28.12 1.30,28.21 1.22,28.30 1.12,28.37 1.02,28.43 0.90,28.46 0.78,28.48 0.66,28.47 0.54,28.46 0.44,28.41 0.33,28.36 0.24,28.28 0.15,28.20 0.09,28.09 0.04,27.99 0.02,27.87 0.00,27.75 0.01,27.64 0.03,27.52 0.09,27.41 0.14,27.30 0.23,27.22 0.31,27.14 0.42,27.09 0.53,27.04 0.65,27.02 0.77,27.01 0.88,27.03 1.00,27.06 1.10,27.12 1.21,27.18 1.29,27.27 1.36,27.36 1.41,27.47 1.46,27.58 1.46,27.70 1.47,27.82 1.44,27.93 1.41,28.05 1.34,28.15 1.28,28.25 1.18,28.32 1.09,28.40 0.98,28.43 0.86,28.47 0.74,28.48 0.62,28.48 0.51,28.44 0.40,28.40 0.30,28.33 0.20,28.26 0.14,28.16 0.07,28.06 0.03,27.95 0.00,27.83 0.00,27.83 0.00,27.83 -0.37,24.54 -0.75,21.25 -0.79,18.34 -0.83,15.44 -0.91,11.71 -0.99,7.97 -1.15,5.22 -1.32,2.46 -1.08,1.14 -0.85,-0.17 -0.82,-0.27 -0.78,-0.36 -0.73,-0.45 -0.67,-0.54 -0.60,-0.62 -0.52,-0.69 -0.43,-0.74 -0.34,-0.79 -0.24,-0.82 -0.14,-0.85 -0.03,-0.86 0.06,-0.86 0.16,-0.84 0.27,-0.82 0.36,-0.78 0.46,-0.73 0.54,-0.67 0.62,-0.60 0.68,-0.52 0.75,-0.43 0.79,-0.34 0.83,-0.24 0.85,-0.14 0.86,-0.03 0.86,0.06 0.85,0.17 0.85,0.17 L 0.85,0.17 Z"/></g><g transform="translate(1120.6392969031278 47.350250371028494) rotate(0 4.10420379436755 0.9120605960145269)" stroke="none"><path fill="#1e1e1e" d="M 0.78,-0.52 Q 0.78,-0.52 1.27,0.24 1.75,1.00 3.33,0.58 4.90,0.15 5.75,-0.36 6.59,-0.88 6.69,-0.92 6.79,-0.95 6.89,-0.96 6.99,-0.96 7.09,-0.95 7.20,-0.93 7.29,-0.89 7.38,-0.85 7.47,-0.79 7.55,-0.73 7.61,-0.65 7.68,-0.57 7.72,-0.47 7.76,-0.38 7.78,-0.28 7.80,-0.18 7.80,-0.08 7.80,0.01 7.77,0.11 7.74,0.21 7.69,0.30 7.64,0.39 7.56,0.46 7.49,0.54 7.41,0.59 7.32,0.64 5.14,0.70 2.97,0.76 2.84,0.74 2.71,0.72 2.59,0.66 2.47,0.60 2.38,0.51 2.28,0.41 2.23,0.30 2.17,0.18 2.15,0.05 2.14,-0.08 2.16,-0.21 2.19,-0.34 2.26,-0.45 2.32,-0.56 2.42,-0.65 2.52,-0.74 2.64,-0.79 2.76,-0.84 2.90,-0.85 3.03,-0.86 3.16,-0.83 3.28,-0.79 3.40,-0.72 3.51,-0.65 3.59,-0.55 3.67,-0.44 3.71,-0.32 3.76,-0.19 3.76,-0.06 3.76,0.06 3.72,0.19 3.68,0.32 3.60,0.42 3.53,0.53 3.42,0.60 3.31,0.68 3.18,0.72 3.06,0.76 2.92,0.75 2.79,0.75 2.67,0.70 2.54,0.65 2.44,0.57 2.34,0.48 2.27,0.37 2.20,0.26 2.17,0.13 2.14,0.00 2.15,-0.12 2.16,-0.25 2.22,-0.37 2.27,-0.49 2.36,-0.59 2.45,-0.69 2.56,-0.75 2.68,-0.82 2.81,-0.84 2.94,-0.86 2.94,-0.86 2.94,-0.86 4.77,-0.87 6.59,-0.88 6.69,-0.92 6.79,-0.95 6.89,-0.96 6.99,-0.96 7.09,-0.95 7.20,-0.93 7.29,-0.89 7.38,-0.85 7.47,-0.79 7.55,-0.73 7.61,-0.65 7.68,-0.57 7.72,-0.47 7.76,-0.38 7.78,-0.28 7.80,-0.18 7.80,-0.08 7.80,0.01 7.77,0.11 7.74,0.21 7.69,0.30 7.64,0.39 7.56,0.46 7.49,0.54 7.41,0.59 7.32,0.64 6.48,1.19 5.65,1.74 4.04,2.43 2.43,3.11 1.38,2.62 0.33,2.13 -0.22,1.33 -0.78,0.52 -0.84,0.42 -0.89,0.32 -0.91,0.21 -0.94,0.09 -0.94,-0.01 -0.93,-0.12 -0.90,-0.23 -0.88,-0.35 -0.82,-0.45 -0.77,-0.55 -0.69,-0.63 -0.61,-0.71 -0.52,-0.78 -0.42,-0.84 -0.31,-0.88 -0.21,-0.92 -0.09,-0.93 0.01,-0.94 0.12,-0.93 0.24,-0.91 0.34,-0.87 0.45,-0.83 0.54,-0.76 0.64,-0.69 0.71,-0.61 0.78,-0.52 0.78,-0.52 L 0.78,-0.52 Z"/></g><g transform="translate(1130.671750533676 29.109364101673464) rotate(0 -1.3680345313598536 16.416815177469914)" stroke="none"><path fill="#1e1e1e" d="M 0.75,0.37 Q 0.75,0.37 0.21,1.40 -0.33,2.43 -0.53,4.07 -0.74,5.70 -1.11,8.80 -1.48,11.90 -1.37,16.06 -1.27,20.21 -1.23,23.84 -1.19,27.46 -1.18,29.00 -1.16,30.54 -1.18,30.65 -1.20,30.76 -1.25,30.86 -1.30,30.96 -1.38,31.04 -1.46,31.11 -1.56,31.16 -1.66,31.21 -1.77,31.22 -1.88,31.24 -1.99,31.21 -2.09,31.19 -2.19,31.14 -2.29,31.08 -2.36,31.00 -2.43,30.91 -2.47,30.81 -2.52,30.71 -2.52,30.60 -2.53,30.49 -2.50,30.38 -2.47,30.27 -2.41,30.18 -2.35,30.09 -2.26,30.02 -2.18,29.95 -2.07,29.91 -1.97,29.88 -1.86,29.88 -1.75,29.88 -1.64,29.91 -1.54,29.94 -1.45,30.01 -1.36,30.08 -1.29,30.17 -1.23,30.26 -1.20,30.36 -1.17,30.47 -1.17,30.58 -1.18,30.69 -1.22,30.79 -1.26,30.90 -1.33,30.98 -1.40,31.07 -1.49,31.13 -1.59,31.19 -1.69,31.21 -1.80,31.24 -1.91,31.23 -2.02,31.22 -2.12,31.17 -2.23,31.12 -2.31,31.05 -2.39,30.97 -2.44,30.88 -2.49,30.78 -2.51,30.67 -2.53,30.56 -2.53,30.56 -2.53,30.56 -2.56,29.02 -2.58,27.48 -2.64,23.87 -2.69,20.25 -2.81,15.99 -2.93,11.74 -2.59,8.62 -2.24,5.51 -2.00,3.63 -1.76,1.75 -1.26,0.68 -0.75,-0.37 -0.70,-0.46 -0.64,-0.55 -0.57,-0.61 -0.49,-0.68 -0.40,-0.73 -0.31,-0.78 -0.21,-0.81 -0.11,-0.84 -0.01,-0.84 0.08,-0.84 0.18,-0.82 0.28,-0.79 0.37,-0.75 0.46,-0.70 0.54,-0.64 0.62,-0.57 0.68,-0.49 0.74,-0.40 0.78,-0.31 0.82,-0.21 0.83,-0.11 0.84,-0.01 0.83,0.08 0.82,0.18 0.79,0.28 0.75,0.37 0.75,0.37 L 0.75,0.37 Z"/></g><g transform="translate(1140.704304364512 49.174346512985494) rotate(0 5.016276915417961 7.752383553245721)" stroke="none"><path fill="#1e1e1e" d="M 0.88,0 Q 0.88,0 0.93,0.52 0.98,1.04 0.93,3.10 0.89,5.16 0.59,7.65 0.30,10.15 -0.37,12.31 -1.04,14.47 -1.59,15.35 -2.13,16.23 -2.16,16.32 -2.20,16.40 -2.26,16.47 -2.31,16.55 -2.39,16.60 -2.46,16.66 -2.54,16.70 -2.62,16.74 -2.71,16.76 -2.80,16.77 -2.90,16.77 -2.99,16.76 -3.08,16.74 -3.16,16.71 -3.24,16.66 -3.32,16.61 -3.39,16.55 -3.45,16.49 -3.50,16.41 -3.55,16.33 -3.58,16.24 -3.61,16.15 -3.61,16.06 -3.62,15.97 -3.60,15.88 -3.59,15.79 -3.96,13.76 -4.33,11.72 -3.79,10.04 -3.25,8.35 -2.16,7.51 -1.08,6.67 0.17,7.18 1.44,7.69 2.79,9.03 4.13,10.38 5.38,11.41 6.64,12.44 8.35,12.57 10.06,12.71 11.47,12.39 12.87,12.07 13.00,12.07 13.14,12.07 13.26,12.11 13.39,12.15 13.49,12.23 13.60,12.31 13.67,12.42 13.75,12.53 13.78,12.66 13.82,12.78 13.81,12.92 13.81,13.05 13.76,13.17 13.71,13.29 13.63,13.39 13.54,13.50 13.43,13.56 13.32,13.63 13.19,13.66 13.06,13.69 12.93,13.68 12.80,13.67 12.68,13.61 12.56,13.56 12.46,13.47 12.37,13.38 12.30,13.26 12.24,13.14 12.22,13.01 12.20,12.88 12.22,12.75 12.24,12.62 12.30,12.51 12.36,12.39 12.45,12.30 12.55,12.21 12.67,12.15 12.79,12.09 12.92,12.08 13.05,12.06 13.18,12.09 13.31,12.12 13.42,12.19 13.53,12.25 13.62,12.35 13.71,12.45 13.76,12.57 13.81,12.70 13.81,12.83 13.82,12.96 13.79,13.09 13.75,13.21 13.68,13.32 13.61,13.43 13.50,13.51 13.40,13.60 13.27,13.64 13.15,13.68 13.15,13.68 13.15,13.68 11.54,13.88 9.93,14.09 7.90,13.84 5.87,13.59 4.48,12.50 3.10,11.40 1.94,10.22 0.78,9.03 -0.14,8.52 -1.07,8.01 -1.44,8.46 -1.82,8.92 -2.25,10.30 -2.68,11.67 -2.60,13.24 -2.52,14.80 -2.32,15.52 -2.13,16.23 -2.16,16.32 -2.20,16.40 -2.26,16.47 -2.31,16.55 -2.39,16.60 -2.46,16.66 -2.54,16.70 -2.62,16.74 -2.71,16.75 -2.80,16.77 -2.90,16.77 -2.99,16.76 -3.08,16.74 -3.16,16.71 -3.24,16.66 -3.32,16.61 -3.39,16.55 -3.45,16.49 -3.50,16.41 -3.55,16.33 -3.58,16.24 -3.61,16.15 -3.61,16.06 -3.62,15.97 -3.60,15.88 -3.59,15.79 -3.06,14.90 -2.54,14.00 -1.94,11.98 -1.34,9.97 -1.12,7.56 -0.89,5.16 -0.93,3.10 -0.98,1.04 -0.93,0.52 -0.88,0 -0.87,-0.10 -0.86,-0.21 -0.82,-0.31 -0.78,-0.41 -0.72,-0.50 -0.66,-0.58 -0.58,-0.66 -0.50,-0.73 -0.41,-0.78 -0.31,-0.83 -0.21,-0.85 -0.10,-0.88 0.00,-0.88 0.10,-0.88 0.21,-0.85 0.31,-0.83 0.41,-0.78 0.50,-0.73 0.58,-0.66 0.66,-0.58 0.72,-0.50 0.78,-0.41 0.82,-0.31 0.86,-0.21 0.87,-0.10 0.88,0.00 0.88,0.00 L 0.88,0 Z"/></g><g transform="translate(1142.8918072025856 9.999999999999943) rotate(0 0.45606161059720307 10.944539276634629)" stroke="none"><path fill="#1e1e1e" d="M 0.91,-0.15 Q 0.91,-0.15 1.14,1.42 1.36,3.00 1.45,5.56 1.54,8.11 1.57,11.55 1.60,14.99 1.66,17.81 1.72,20.63 1.70,20.76 1.68,20.90 1.62,21.01 1.55,21.13 1.46,21.22 1.36,21.32 1.24,21.37 1.12,21.43 0.99,21.45 0.86,21.46 0.73,21.44 0.60,21.41 0.48,21.34 0.37,21.27 0.28,21.17 0.19,21.07 0.14,20.95 0.09,20.83 0.08,20.69 0.08,20.56 0.11,20.43 0.14,20.30 0.22,20.19 0.29,20.08 0.40,20.00 0.50,19.92 0.63,19.87 0.75,19.83 0.89,19.83 1.02,19.83 1.15,19.87 1.27,19.91 1.38,19.99 1.49,20.07 1.56,20.18 1.64,20.29 1.68,20.42 1.71,20.54 1.71,20.68 1.70,20.81 1.65,20.93 1.60,21.06 1.52,21.16 1.43,21.26 1.32,21.33 1.21,21.40 1.08,21.43 0.95,21.46 0.81,21.45 0.68,21.44 0.56,21.38 0.44,21.33 0.34,21.24 0.24,21.15 0.18,21.03 0.12,20.91 0.09,20.78 0.07,20.65 0.07,20.65 0.07,20.65 0.07,17.83 0.08,15.01 0.01,11.60 -0.05,8.19 -0.18,5.73 -0.31,3.28 -0.61,1.71 -0.91,0.15 -0.91,0.04 -0.92,-0.07 -0.90,-0.18 -0.88,-0.29 -0.83,-0.39 -0.78,-0.49 -0.71,-0.57 -0.64,-0.66 -0.55,-0.73 -0.46,-0.80 -0.36,-0.84 -0.26,-0.88 -0.15,-0.90 -0.04,-0.92 0.07,-0.91 0.18,-0.90 0.28,-0.87 0.39,-0.83 0.48,-0.78 0.58,-0.72 0.66,-0.64 0.73,-0.56 0.79,-0.46 0.85,-0.36 0.88,-0.25 0.91,-0.15 0.91,-0.15 L 0.91,-0.15 Z"/></g><g transform="translate(215.80142329887627 481.32484560341817) rotate(0 0.6349365647008369 12.698678977015874)" stroke="none"><path fill="#1e1e1e" d="M 0.84,-0.24 Q 0.84,-0.24 1.18,1.04 1.51,2.33 1.66,4.23 1.81,6.13 1.86,9.48 1.91,12.84 1.74,16.65 1.58,20.46 1.50,22.07 1.43,23.68 1.41,23.79 1.38,23.90 1.33,24.00 1.27,24.09 1.18,24.17 1.10,24.24 0.99,24.29 0.89,24.33 0.77,24.34 0.66,24.35 0.55,24.32 0.44,24.29 0.35,24.23 0.25,24.16 0.18,24.07 0.11,23.98 0.07,23.88 0.04,23.77 0.03,23.66 0.03,23.54 0.07,23.43 0.10,23.33 0.17,23.24 0.24,23.14 0.33,23.08 0.42,23.01 0.53,22.98 0.64,22.95 0.76,22.96 0.87,22.96 0.97,23.00 1.08,23.04 1.17,23.11 1.26,23.19 1.32,23.28 1.38,23.38 1.40,23.49 1.43,23.60 1.42,23.71 1.41,23.83 1.36,23.93 1.31,24.03 1.24,24.12 1.16,24.20 1.06,24.26 0.96,24.31 0.85,24.33 0.74,24.35 0.62,24.33 0.51,24.32 0.41,24.26 0.31,24.21 0.23,24.13 0.15,24.05 0.10,23.95 0.05,23.84 0.04,23.73 0.03,23.62 0.03,23.62 0.03,23.62 0.08,22.01 0.14,20.40 0.28,16.63 0.42,12.87 0.34,9.56 0.26,6.26 0.10,4.52 -0.05,2.77 -0.45,1.50 -0.84,0.24 -0.86,0.13 -0.87,0.03 -0.86,-0.07 -0.86,-0.17 -0.82,-0.27 -0.79,-0.37 -0.73,-0.46 -0.67,-0.55 -0.60,-0.63 -0.52,-0.70 -0.43,-0.75 -0.34,-0.81 -0.23,-0.83 -0.13,-0.86 -0.03,-0.87 0.07,-0.87 0.17,-0.85 0.28,-0.83 0.37,-0.78 0.47,-0.74 0.55,-0.67 0.63,-0.60 0.69,-0.52 0.76,-0.43 0.80,-0.33 0.84,-0.24 0.84,-0.24 L 0.84,-0.24 Z"/></g><g transform="translate(205.64243826366277 527.6751276315783) rotate(0 7.619221337409812 8.254157902110705)" stroke="none"><path fill="#1e1e1e" d="M 0.61,-0.61 Q 0.61,-0.61 1.50,0.31 2.39,1.24 3.37,1.75 4.34,2.26 5.55,2.12 6.76,1.98 7.80,1.60 8.83,1.23 9.93,0.04 11.03,-1.14 12.06,-2.55 13.10,-3.96 13.52,-5.04 13.93,-6.12 13.91,-6.79 13.89,-7.46 13.45,-7.76 13.01,-8.07 12.47,-7.81 11.94,-7.55 11.25,-6.28 10.56,-5.00 10.14,-3.20 9.73,-1.39 9.34,0.50 8.95,2.40 8.41,4.86 7.87,7.32 7.27,10.00 6.67,12.69 6.23,15.09 5.79,17.50 5.41,19.62 5.04,21.74 5.14,23.47 5.25,25.21 5.23,25.35 5.21,25.48 5.15,25.60 5.09,25.72 5.00,25.81 4.90,25.90 4.78,25.96 4.66,26.02 4.53,26.04 4.40,26.06 4.26,26.03 4.13,26.00 4.02,25.94 3.90,25.87 3.81,25.77 3.72,25.67 3.67,25.55 3.62,25.43 3.61,25.29 3.60,25.16 3.63,25.03 3.67,24.90 3.74,24.79 3.81,24.68 3.92,24.59 4.02,24.51 4.15,24.46 4.27,24.42 4.41,24.42 4.54,24.41 4.67,24.45 4.79,24.49 4.90,24.57 5.01,24.65 5.09,24.76 5.16,24.87 5.20,25.00 5.24,25.12 5.24,25.26 5.23,25.39 5.19,25.52 5.14,25.64 5.05,25.75 4.97,25.85 4.86,25.92 4.74,25.99 4.61,26.02 4.48,26.05 4.35,26.04 4.22,26.03 4.10,25.98 3.97,25.92 3.87,25.83 3.78,25.74 3.71,25.63 3.65,25.51 3.62,25.38 3.60,25.25 3.60,25.25 3.60,25.25 3.62,23.37 3.65,21.50 4.01,19.37 4.37,17.24 4.79,14.81 5.21,12.37 5.78,9.69 6.35,7.00 6.84,4.55 7.33,2.09 7.66,0.16 7.99,-1.76 8.40,-3.80 8.81,-5.85 9.39,-7.10 9.97,-8.36 10.60,-8.89 11.24,-9.43 11.99,-9.58 12.75,-9.74 13.37,-9.54 13.99,-9.35 14.63,-8.56 15.27,-7.76 15.24,-6.71 15.20,-5.66 14.71,-4.41 14.22,-3.16 13.13,-1.66 12.04,-0.17 10.71,1.18 9.38,2.54 8.14,3.00 6.90,3.45 5.34,3.56 3.77,3.66 2.51,3.03 1.25,2.41 0.31,1.51 -0.61,0.61 -0.68,0.53 -0.74,0.45 -0.79,0.35 -0.83,0.26 -0.85,0.15 -0.87,0.05 -0.86,-0.05 -0.86,-0.15 -0.83,-0.25 -0.79,-0.35 -0.74,-0.44 -0.68,-0.54 -0.61,-0.61 -0.54,-0.68 -0.44,-0.74 -0.35,-0.79 -0.25,-0.83 -0.15,-0.86 -0.05,-0.86 0.05,-0.87 0.15,-0.85 0.26,-0.83 0.35,-0.79 0.45,-0.74 0.53,-0.68 0.61,-0.61 0.61,-0.61 L 0.61,-0.61 Z"/></g><g transform="translate(205.64243826366277 543.5485243100992) rotate(0 7.301744335559192 0.9524135665514564)" stroke="none"><path fill="#1e1e1e" d="M 0.47,-0.79 Q 0.47,-0.79 1.36,-0.21 2.25,0.35 3.23,0.56 4.21,0.77 5.68,0.70 7.16,0.63 8.71,0.43 10.26,0.23 11.95,-0.21 13.65,-0.65 13.78,-0.66 13.92,-0.67 14.05,-0.63 14.19,-0.60 14.30,-0.52 14.41,-0.44 14.50,-0.33 14.58,-0.22 14.63,-0.09 14.67,0.03 14.67,0.16 14.67,0.30 14.63,0.43 14.59,0.56 14.50,0.67 14.42,0.78 14.31,0.86 14.19,0.94 14.06,0.98 13.93,1.01 13.79,1.01 13.65,1.00 13.53,0.95 13.40,0.90 13.29,0.81 13.19,0.72 13.12,0.60 13.04,0.49 13.01,0.35 12.98,0.22 13.00,0.08 13.01,-0.05 13.07,-0.17 13.13,-0.30 13.22,-0.40 13.31,-0.50 13.44,-0.56 13.56,-0.63 13.69,-0.65 13.83,-0.67 13.96,-0.65 14.10,-0.63 14.22,-0.57 14.34,-0.50 14.44,-0.40 14.53,-0.30 14.59,-0.18 14.65,-0.05 14.67,0.07 14.68,0.21 14.65,0.34 14.62,0.48 14.55,0.60 14.48,0.72 14.38,0.80 14.27,0.89 14.15,0.95 14.02,1.00 14.02,1.00 14.02,1.00 12.24,1.34 10.46,1.68 8.85,1.91 7.24,2.15 5.57,2.24 3.90,2.34 2.65,2.08 1.40,1.83 0.46,1.31 -0.47,0.79 -0.56,0.72 -0.65,0.65 -0.72,0.56 -0.79,0.48 -0.83,0.38 -0.88,0.27 -0.90,0.16 -0.92,0.05 -0.91,-0.05 -0.91,-0.16 -0.87,-0.27 -0.84,-0.37 -0.78,-0.47 -0.73,-0.56 -0.65,-0.64 -0.57,-0.72 -0.47,-0.78 -0.38,-0.84 -0.27,-0.87 -0.17,-0.91 -0.05,-0.91 0.05,-0.92 0.16,-0.90 0.27,-0.88 0.37,-0.84 0.47,-0.79 0.47,-0.79 L 0.47,-0.79 Z"/></g><g transform="translate(220.8808809384824 560.056770358319) rotate(0 3.8096019492047333 3.492159825354861)" stroke="none"><path fill="#1e1e1e" d="M -0.54,-0.81 Q -0.54,-0.81 0.57,-1.51 1.69,-2.20 2.38,-2.57 3.07,-2.94 3.69,-3.28 4.32,-3.62 4.99,-3.96 5.66,-4.30 6.64,-4.11 7.62,-3.92 8.03,-3.18 8.45,-2.44 8.31,-1.07 8.16,0.28 7.88,1.89 7.61,3.50 7.29,4.92 6.97,6.34 6.58,8.25 6.20,10.17 6.14,10.31 6.08,10.45 5.98,10.57 5.88,10.69 5.74,10.77 5.61,10.85 5.46,10.88 5.31,10.91 5.16,10.89 5.00,10.87 4.86,10.81 4.72,10.74 4.61,10.64 4.50,10.53 4.43,10.39 4.36,10.25 4.33,10.10 4.31,9.95 4.33,9.80 4.36,9.64 4.43,9.51 4.51,9.37 4.62,9.27 4.73,9.16 4.87,9.10 5.01,9.03 5.17,9.02 5.32,9.00 5.47,9.04 5.62,9.07 5.75,9.15 5.89,9.23 5.99,9.35 6.09,9.47 6.14,9.61 6.20,9.76 6.21,9.91 6.21,10.06 6.17,10.21 6.13,10.36 6.04,10.49 5.95,10.62 5.83,10.71 5.71,10.80 5.56,10.85 5.41,10.90 5.26,10.90 5.10,10.90 4.96,10.85 4.81,10.80 4.69,10.70 4.57,10.61 4.48,10.48 4.39,10.35 4.35,10.20 4.31,10.05 4.32,9.90 4.33,9.74 4.33,9.74 4.33,9.74 4.80,7.87 5.28,6.01 5.51,4.62 5.75,3.23 5.92,1.67 6.09,0.10 6.25,-1.13 6.42,-2.37 5.81,-2.08 5.21,-1.79 4.55,-1.50 3.90,-1.21 3.29,-0.96 2.68,-0.71 1.61,0.05 0.54,0.81 0.43,0.87 0.33,0.92 0.21,0.95 0.10,0.97 -0.01,0.97 -0.13,0.97 -0.24,0.94 -0.36,0.91 -0.46,0.85 -0.57,0.80 -0.65,0.72 -0.74,0.64 -0.81,0.54 -0.87,0.44 -0.91,0.33 -0.95,0.21 -0.97,0.10 -0.98,-0.01 -0.96,-0.13 -0.95,-0.25 -0.90,-0.36 -0.86,-0.47 -0.79,-0.56 -0.72,-0.66 -0.63,-0.74 -0.54,-0.81 -0.54,-0.81 L -0.54,-0.81 Z"/></g><g transform="translate(562.4755668955139 485.769488751326) rotate(0 -0.000034878000690241606 6.984319650709722)" stroke="none"><path fill="#1e1e1e" d="M 0.93,0.15 Q 0.93,0.15 0.71,1.24 0.49,2.32 0.57,3.79 0.65,5.25 0.67,7.03 0.70,8.80 1.03,11.13 1.36,13.45 1.35,13.59 1.35,13.73 1.30,13.86 1.25,13.99 1.16,14.10 1.07,14.20 0.95,14.28 0.83,14.35 0.70,14.38 0.56,14.41 0.42,14.40 0.28,14.39 0.16,14.33 0.03,14.27 -0.06,14.18 -0.17,14.09 -0.23,13.96 -0.30,13.84 -0.32,13.70 -0.35,13.57 -0.33,13.43 -0.31,13.29 -0.24,13.17 -0.18,13.04 -0.08,12.95 0.01,12.85 0.14,12.79 0.26,12.73 0.40,12.71 0.54,12.70 0.68,12.72 0.81,12.75 0.93,12.82 1.05,12.89 1.14,13.00 1.24,13.10 1.29,13.23 1.34,13.36 1.35,13.50 1.36,13.64 1.32,13.77 1.29,13.91 1.21,14.02 1.14,14.14 1.03,14.23 0.92,14.31 0.78,14.36 0.65,14.40 0.51,14.41 0.37,14.41 0.24,14.36 0.11,14.32 0.00,14.24 -0.10,14.16 -0.18,14.04 -0.26,13.93 -0.30,13.79 -0.34,13.66 -0.34,13.66 -0.34,13.66 -0.59,11.25 -0.83,8.84 -0.89,7.10 -0.96,5.36 -1.09,3.70 -1.22,2.05 -1.07,0.94 -0.93,-0.15 -0.90,-0.26 -0.86,-0.37 -0.81,-0.47 -0.75,-0.57 -0.67,-0.65 -0.59,-0.73 -0.49,-0.79 -0.40,-0.85 -0.29,-0.89 -0.18,-0.92 -0.07,-0.93 0.04,-0.94 0.15,-0.92 0.26,-0.90 0.37,-0.86 0.47,-0.81 0.56,-0.74 0.65,-0.67 0.72,-0.59 0.80,-0.50 0.84,-0.39 0.89,-0.29 0.92,-0.18 0.94,-0.07 0.93,0.04 0.93,0.15 0.93,0.15 L 0.93,0.15 Z"/></g><g transform="translate(546.602309728996 521.3257619845698) rotate(0 7.301744335559249 3.174717701505017)" stroke="none"><path fill="#1e1e1e" d="M -0.21,-0.84 Q -0.21,-0.84 1.24,-1.17 2.70,-1.51 4.12,-2.50 5.54,-3.49 6.90,-4.64 8.26,-5.79 9.38,-6.99 10.49,-8.18 11.32,-9.23 12.16,-10.27 12.67,-10.94 13.19,-11.60 13.25,-11.66 13.32,-11.73 13.40,-11.78 13.48,-11.83 13.57,-11.85 13.66,-11.88 13.75,-11.89 13.85,-11.89 13.94,-11.87 14.03,-11.86 14.12,-11.82 14.20,-11.78 14.27,-11.72 14.35,-11.66 14.41,-11.59 14.46,-11.51 14.50,-11.43 14.54,-11.34 14.56,-11.25 14.57,-11.16 14.57,-11.07 14.56,-10.97 14.53,-10.88 14.50,-10.79 14.45,-10.71 14.41,-10.63 14.36,-9.76 14.32,-8.89 14.06,-7.40 13.79,-5.90 13.31,-3.43 12.82,-0.96 12.44,1.88 12.05,4.73 11.88,7.21 11.72,9.68 11.46,12.03 11.20,14.39 11.11,16.06 11.02,17.74 10.99,17.87 10.96,17.99 10.89,18.10 10.81,18.21 10.71,18.29 10.61,18.37 10.49,18.42 10.37,18.46 10.24,18.46 10.10,18.46 9.98,18.43 9.86,18.39 9.75,18.31 9.65,18.23 9.57,18.13 9.50,18.02 9.46,17.89 9.42,17.77 9.43,17.64 9.43,17.51 9.48,17.39 9.52,17.27 9.61,17.17 9.69,17.06 9.80,17.00 9.91,16.93 10.04,16.90 10.16,16.87 10.29,16.88 10.42,16.89 10.54,16.94 10.66,17.00 10.76,17.08 10.85,17.17 10.92,17.28 10.98,17.40 11.00,17.53 11.03,17.65 11.01,17.78 10.99,17.91 10.93,18.03 10.87,18.14 10.78,18.24 10.68,18.33 10.57,18.38 10.45,18.44 10.32,18.46 10.19,18.47 10.06,18.45 9.94,18.42 9.82,18.36 9.71,18.29 9.63,18.19 9.54,18.10 9.49,17.98 9.44,17.86 9.43,17.73 9.42,17.60 9.42,17.60 9.42,17.60 9.64,15.92 9.85,14.24 10.10,11.92 10.34,9.59 10.50,7.07 10.66,4.55 11.04,1.65 11.42,-1.23 11.88,-3.69 12.34,-6.14 12.58,-7.65 12.81,-9.15 13.00,-10.37 13.19,-11.60 13.25,-11.66 13.32,-11.73 13.40,-11.78 13.48,-11.83 13.57,-11.85 13.66,-11.88 13.75,-11.89 13.85,-11.89 13.94,-11.87 14.03,-11.86 14.12,-11.82 14.20,-11.78 14.27,-11.72 14.35,-11.66 14.41,-11.59 14.46,-11.51 14.50,-11.43 14.54,-11.34 14.56,-11.25 14.57,-11.16 14.57,-11.07 14.56,-10.97 14.53,-10.88 14.50,-10.79 14.45,-10.71 14.41,-10.63 13.83,-10.02 13.26,-9.40 12.40,-8.31 11.54,-7.21 10.39,-5.94 9.23,-4.67 7.83,-3.45 6.42,-2.23 4.78,-1.09 3.13,0.05 1.67,0.44 0.21,0.84 0.10,0.85 0.00,0.87 -0.10,0.85 -0.20,0.84 -0.30,0.81 -0.40,0.77 -0.48,0.71 -0.57,0.65 -0.64,0.57 -0.71,0.49 -0.76,0.40 -0.81,0.31 -0.83,0.20 -0.86,0.10 -0.86,0.00 -0.86,-0.10 -0.84,-0.20 -0.81,-0.30 -0.76,-0.39 -0.71,-0.49 -0.64,-0.57 -0.58,-0.65 -0.49,-0.71 -0.40,-0.77 -0.30,-0.80 -0.21,-0.84 -0.21,-0.84 L -0.21,-0.84 Z"/></g><g transform="translate(549.7769751134999 534.6594124042873) rotate(0 4.44453851390557 0.3174595628502175)" stroke="none"><path fill="#1e1e1e" d="M 0,-0.93 Q 0,-0.93 1.27,-0.89 2.55,-0.85 4.05,-0.64 5.56,-0.43 6.54,-0.53 7.53,-0.63 7.62,-0.61 7.72,-0.59 7.80,-0.54 7.89,-0.50 7.96,-0.43 8.03,-0.37 8.08,-0.29 8.14,-0.21 8.17,-0.12 8.21,-0.03 8.22,0.06 8.23,0.15 8.22,0.25 8.20,0.34 8.17,0.43 8.14,0.52 8.08,0.60 8.03,0.68 7.95,0.75 7.88,0.81 7.80,0.85 7.71,0.90 7.62,0.92 7.52,0.94 7.43,0.94 7.33,0.94 5.23,0.88 3.14,0.82 3.02,0.80 2.90,0.78 2.79,0.72 2.68,0.66 2.60,0.57 2.51,0.48 2.47,0.36 2.42,0.25 2.40,0.13 2.39,0.00 2.42,-0.11 2.45,-0.23 2.52,-0.33 2.58,-0.43 2.68,-0.51 2.78,-0.59 2.89,-0.63 3.01,-0.68 3.13,-0.68 3.25,-0.69 3.37,-0.65 3.49,-0.61 3.59,-0.54 3.69,-0.47 3.76,-0.37 3.84,-0.27 3.87,-0.15 3.91,-0.04 3.91,0.08 3.90,0.20 3.86,0.32 3.82,0.43 3.74,0.53 3.67,0.63 3.56,0.69 3.46,0.76 3.34,0.79 3.22,0.82 3.10,0.81 2.98,0.80 2.86,0.75 2.75,0.71 2.66,0.62 2.56,0.54 2.50,0.44 2.44,0.33 2.42,0.21 2.39,0.09 2.41,-0.03 2.42,-0.15 2.48,-0.26 2.53,-0.37 2.62,-0.46 2.71,-0.55 2.82,-0.60 2.93,-0.66 3.05,-0.67 3.17,-0.69 3.17,-0.69 3.17,-0.69 5.35,-0.66 7.53,-0.63 7.62,-0.61 7.72,-0.59 7.80,-0.54 7.89,-0.50 7.96,-0.43 8.03,-0.37 8.08,-0.29 8.14,-0.21 8.17,-0.12 8.21,-0.03 8.22,0.06 8.23,0.15 8.22,0.25 8.20,0.34 8.17,0.43 8.14,0.52 8.08,0.60 8.03,0.68 7.95,0.75 7.88,0.81 7.80,0.85 7.71,0.90 7.62,0.92 7.52,0.94 7.43,0.94 7.33,0.94 6.35,1.05 5.37,1.16 3.96,1.00 2.55,0.85 1.27,0.89 0,0.93 -0.11,0.91 -0.22,0.90 -0.32,0.86 -0.43,0.82 -0.52,0.76 -0.61,0.69 -0.69,0.61 -0.76,0.52 -0.81,0.42 -0.86,0.32 -0.89,0.22 -0.92,0.11 -0.92,-0.00 -0.92,-0.11 -0.89,-0.22 -0.86,-0.32 -0.81,-0.42 -0.76,-0.52 -0.69,-0.61 -0.61,-0.69 -0.52,-0.76 -0.43,-0.82 -0.32,-0.86 -0.22,-0.90 -0.11,-0.91 0.00,-0.93 0.00,-0.93 L 0,-0.93 Z"/></g><g stroke-linecap="round"><g transform="translate(157.38743373640187 415.29168702053505) rotate(0 84.12882451835677 113.01837717574409)"><path d="M0 0 C28.04 37.67, 140.21 188.36, 168.26 226.04 M0 0 C28.04 37.67, 140.21 188.36, 168.26 226.04" stroke="#e03131" stroke-width="0.5" fill="none"/></g></g><mask/><g stroke-linecap="round"><g transform="translate(445.6477621605689 643.2331638711238) rotate(0 181.27375269857893 2.2223041349535606)"><path d="M0 0 C60.42 0.74, 302.12 3.7, 362.55 4.44 M0 0 C60.42 0.74, 302.12 3.7, 362.55 4.44" stroke="#e03131" stroke-width="0.5" fill="none"/></g></g><mask/><g stroke-linecap="round"><g transform="translate(158.02235286210237 414.65676789483456) rotate(0 86.98604777901076 2.222269256952785)"><path d="M0 0 C29 0.74, 144.98 3.7, 173.97 4.44 M0 0 C29 0.74, 144.98 3.7, 173.97 4.44" stroke="#2f9e44" stroke-width="0.5" fill="none"/></g></g><mask/><g stroke-linecap="round"><g transform="translate(448.8224624230737 419.1012715307394) rotate(0 178.4167735839302 114.6057098679961)"><path d="M0 0 C59.47 38.2, 297.36 191.01, 356.83 229.21 M0 0 C59.47 38.2, 297.36 191.01, 356.83 229.21" stroke="#2f9e44" stroke-width="0.5" fill="none"/></g></g><mask/><g stroke-linecap="round"><g transform="translate(805.7912920386653 496.3050529678106) rotate(0 -0.3874543481943533 74.28735136299457)"><path d="M0 0 C-0.13 24.76, -0.65 123.81, -0.77 148.57 M0 0 C-0.13 24.76, -0.65 123.81, -0.77 148.57" stroke="#1e1e1e" stroke-width="0.5" fill="none"/></g><g transform="translate(805.7912920386653 496.3050529678106) rotate(0 -0.3874543481943533 74.28735136299457)"><path d="M-10.89 120.33 C-8.24 127.72, -5.6 135.11, -0.77 148.57 M-10.89 120.33 C-7.09 130.95, -3.28 141.57, -0.77 148.57" stroke="#1e1e1e" stroke-width="0.5" fill="none"/></g><g transform="translate(805.7912920386653 496.3050529678106) rotate(0 -0.3874543481943533 74.28735136299457)"><path d="M9.63 120.44 C6.91 127.8, 4.19 135.16, -0.77 148.57 M9.63 120.44 C5.72 131.02, 1.81 141.59, -0.77 148.57" stroke="#1e1e1e" stroke-width="0.5" fill="none"/></g></g><mask/><g transform="translate(556.8446189074482 549.0031917071865) rotate(0 8.038900089365939 2.6796415407140444)" stroke="none"><path fill="#1e1e1e" d="M 0.17,-0.85 Q 0.17,-0.85 1.44,-0.56 2.72,-0.28 3.98,-0.15 5.25,-0.03 6.97,-0.47 8.70,-0.91 10.19,-1.59 11.69,-2.27 12.57,-2.81 13.46,-3.34 14.15,-3.87 14.83,-4.40 15.66,-4.02 16.48,-3.63 16.34,-2.04 16.20,-0.44 16.12,1.98 16.04,4.41 16.05,6.63 16.07,8.85 16.04,8.99 16.02,9.13 15.95,9.26 15.88,9.38 15.78,9.47 15.67,9.57 15.54,9.63 15.41,9.68 15.27,9.70 15.13,9.71 15.00,9.68 14.86,9.64 14.74,9.57 14.62,9.50 14.53,9.39 14.44,9.28 14.39,9.15 14.34,9.01 14.34,8.87 14.33,8.73 14.37,8.60 14.41,8.46 14.49,8.35 14.57,8.23 14.69,8.15 14.80,8.06 14.93,8.02 15.07,7.98 15.21,7.98 15.35,7.98 15.48,8.03 15.62,8.08 15.73,8.16 15.84,8.25 15.91,8.37 15.99,8.49 16.03,8.62 16.06,8.76 16.05,8.90 16.04,9.04 15.99,9.17 15.93,9.30 15.84,9.41 15.75,9.51 15.63,9.58 15.50,9.66 15.37,9.68 15.23,9.71 15.09,9.69 14.95,9.68 14.82,9.61 14.69,9.55 14.59,9.45 14.49,9.36 14.43,9.23 14.37,9.11 14.34,8.97 14.32,8.83 14.32,8.83 14.32,8.83 14.41,6.60 14.50,4.38 14.54,1.89 14.58,-0.59 14.99,-1.82 15.40,-3.06 14.79,-2.60 14.19,-2.14 13.24,-1.56 12.29,-0.97 10.68,-0.23 9.07,0.51 7.11,1.00 5.15,1.49 3.77,1.40 2.40,1.30 1.11,1.08 -0.17,0.85 -0.27,0.81 -0.36,0.78 -0.45,0.73 -0.54,0.67 -0.62,0.60 -0.69,0.52 -0.74,0.43 -0.79,0.34 -0.82,0.24 -0.85,0.14 -0.86,0.03 -0.86,-0.06 -0.84,-0.16 -0.82,-0.27 -0.78,-0.36 -0.73,-0.46 -0.67,-0.54 -0.60,-0.62 -0.52,-0.68 -0.43,-0.75 -0.34,-0.79 -0.24,-0.83 -0.14,-0.85 -0.03,-0.86 0.06,-0.86 0.17,-0.85 0.17,-0.85 L 0.17,-0.85 Z"/></g><g transform="translate(575.6020851596703 507.915501946228) rotate(0 -0.44659465706428136 11.165136287144264)" stroke="none"><path fill="#1e1e1e" d="M 0.86,0.28 Q 0.86,0.28 0.62,1.06 0.38,1.83 0.26,3.83 0.13,5.83 0.06,8.52 -0.01,11.20 0.30,15.73 0.61,20.26 0.60,20.38 0.59,20.50 0.54,20.62 0.49,20.73 0.41,20.83 0.32,20.92 0.22,20.98 0.11,21.04 -0.01,21.06 -0.13,21.08 -0.25,21.07 -0.38,21.05 -0.49,20.99 -0.60,20.94 -0.69,20.85 -0.77,20.76 -0.83,20.65 -0.88,20.53 -0.90,20.41 -0.91,20.29 -0.89,20.16 -0.87,20.04 -0.80,19.93 -0.74,19.83 -0.65,19.74 -0.55,19.66 -0.44,19.61 -0.32,19.56 -0.20,19.56 -0.08,19.55 0.04,19.58 0.16,19.61 0.26,19.68 0.36,19.74 0.44,19.84 0.52,19.94 0.56,20.06 0.60,20.17 0.61,20.30 0.61,20.42 0.57,20.54 0.53,20.66 0.46,20.76 0.39,20.86 0.28,20.93 0.18,21.01 0.06,21.04 -0.05,21.08 -0.17,21.07 -0.29,21.07 -0.41,21.03 -0.53,20.98 -0.62,20.90 -0.72,20.82 -0.79,20.72 -0.85,20.61 -0.88,20.49 -0.91,20.37 -0.91,20.37 -0.91,20.37 -1.27,15.77 -1.63,11.17 -1.61,8.46 -1.60,5.74 -1.50,3.49 -1.41,1.24 -1.14,0.48 -0.86,-0.28 -0.81,-0.38 -0.77,-0.48 -0.70,-0.57 -0.63,-0.65 -0.54,-0.72 -0.45,-0.78 -0.35,-0.83 -0.25,-0.87 -0.14,-0.89 -0.03,-0.91 0.07,-0.90 0.18,-0.89 0.28,-0.85 0.39,-0.82 0.48,-0.76 0.57,-0.70 0.65,-0.62 0.72,-0.54 0.78,-0.45 0.83,-0.35 0.86,-0.25 0.90,-0.14 0.90,-0.03 0.90,0.07 0.88,0.18 0.86,0.28 0.86,0.28 L 0.86,0.28 Z"/></g><g transform="translate(703.3311991442929 490.0512740736867) rotate(0 0.893189314128449 8.038900089365995)" stroke="none"><path fill="#1e1e1e" d="M 0.91,-0.22 Q 0.91,-0.22 1.39,1.83 1.86,3.89 2.06,6.12 2.26,8.34 2.41,11.50 2.55,14.66 2.53,14.79 2.52,14.92 2.46,15.04 2.40,15.16 2.31,15.26 2.22,15.35 2.10,15.42 1.98,15.48 1.85,15.50 1.71,15.52 1.58,15.49 1.45,15.47 1.33,15.41 1.21,15.34 1.12,15.24 1.03,15.15 0.98,15.02 0.92,14.90 0.91,14.77 0.90,14.64 0.93,14.51 0.96,14.37 1.03,14.26 1.10,14.15 1.20,14.06 1.31,13.98 1.43,13.93 1.56,13.88 1.69,13.87 1.82,13.87 1.95,13.91 2.08,13.94 2.19,14.02 2.30,14.10 2.38,14.20 2.46,14.31 2.50,14.44 2.54,14.57 2.54,14.70 2.54,14.83 2.49,14.96 2.45,15.09 2.37,15.19 2.28,15.30 2.17,15.37 2.06,15.44 1.93,15.48 1.80,15.51 1.67,15.50 1.54,15.50 1.41,15.44 1.29,15.39 1.19,15.31 1.09,15.22 1.02,15.10 0.95,14.99 0.92,14.86 0.90,14.72 0.90,14.72 0.90,14.72 0.77,11.61 0.65,8.50 0.42,6.41 0.18,4.31 -0.36,2.27 -0.91,0.22 -0.93,0.11 -0.94,0.00 -0.93,-0.10 -0.91,-0.22 -0.87,-0.32 -0.83,-0.43 -0.77,-0.53 -0.70,-0.62 -0.62,-0.69 -0.53,-0.77 -0.43,-0.82 -0.33,-0.88 -0.22,-0.90 -0.11,-0.93 -0.00,-0.93 0.11,-0.93 0.22,-0.91 0.33,-0.88 0.43,-0.83 0.53,-0.77 0.61,-0.70 0.70,-0.62 0.76,-0.53 0.83,-0.44 0.87,-0.33 0.91,-0.22 0.91,-0.22 L 0.91,-0.22 Z"/></g><g transform="translate(690.8262543531796 532.0321531487737) rotate(0 12.951539448177527 -1.7863786282570686)" stroke="none"><path fill="#1e1e1e" d="M -0.16,-0.81 Q -0.16,-0.81 1.12,-1.05 2.41,-1.28 3.92,-1.86 5.42,-2.45 7.29,-3.93 9.16,-5.42 11.52,-7.59 13.87,-9.77 15.88,-12.20 17.89,-14.64 19.51,-16.95 21.13,-19.26 22.50,-21.10 23.86,-22.93 23.93,-22.86 23.99,-22.79 24.05,-22.86 24.11,-22.93 24.19,-22.98 24.27,-23.04 24.35,-23.07 24.44,-23.10 24.53,-23.11 24.62,-23.13 24.71,-23.12 24.81,-23.10 24.89,-23.07 24.98,-23.04 25.06,-22.99 25.13,-22.93 25.20,-22.86 25.26,-22.80 25.30,-22.71 25.34,-22.63 25.37,-22.54 25.39,-22.45 25.39,-22.36 25.39,-22.27 25.37,-22.18 25.35,-22.09 25.30,-22.00 25.26,-21.92 24.60,-19.97 23.94,-18.02 22.62,-14.81 21.30,-11.60 19.73,-6.93 18.15,-2.25 16.71,2.54 15.27,7.35 14.40,11.18 13.54,15.00 13.06,17.69 12.58,20.39 12.53,20.50 12.49,20.62 12.42,20.71 12.34,20.81 12.24,20.87 12.13,20.94 12.02,20.96 11.90,20.99 11.78,20.98 11.66,20.97 11.54,20.92 11.43,20.88 11.34,20.79 11.25,20.71 11.19,20.61 11.13,20.50 11.11,20.38 11.09,20.26 11.10,20.14 11.12,20.02 11.18,19.91 11.23,19.80 11.32,19.72 11.40,19.63 11.51,19.58 11.62,19.52 11.74,19.51 11.86,19.49 11.98,19.52 12.10,19.54 12.21,19.60 12.31,19.66 12.39,19.75 12.47,19.84 12.52,19.95 12.57,20.07 12.58,20.19 12.59,20.31 12.56,20.43 12.53,20.54 12.46,20.65 12.40,20.75 12.30,20.82 12.21,20.90 12.09,20.94 11.98,20.98 11.86,20.99 11.73,20.99 11.62,20.95 11.50,20.92 11.40,20.84 11.31,20.77 11.24,20.67 11.16,20.58 11.13,20.46 11.09,20.34 11.10,20.22 11.10,20.10 11.10,20.10 11.10,20.10 11.68,17.40 12.25,14.71 13.12,10.84 14.00,6.97 15.45,2.14 16.89,-2.68 18.48,-7.39 20.07,-12.11 21.37,-15.27 22.66,-18.43 23.33,-20.61 23.99,-22.79 24.05,-22.86 24.11,-22.93 24.19,-22.98 24.27,-23.04 24.35,-23.07 24.44,-23.10 24.53,-23.11 24.62,-23.13 24.71,-23.12 24.81,-23.10 24.89,-23.07 24.98,-23.04 25.06,-22.99 25.13,-22.93 25.20,-22.86 25.26,-22.80 25.30,-22.71 25.34,-22.63 25.37,-22.54 25.39,-22.45 25.39,-22.36 25.39,-22.27 25.37,-22.18 25.35,-22.09 25.30,-22.00 25.26,-21.92 24.81,-21.90 24.36,-21.87 23.31,-20.17 22.25,-18.48 20.61,-16.12 18.96,-13.76 16.90,-11.25 14.84,-8.73 12.45,-6.51 10.06,-4.28 8.03,-2.67 5.99,-1.06 4.36,-0.40 2.72,0.25 1.44,0.53 0.16,0.81 0.06,0.82 -0.03,0.83 -0.13,0.81 -0.23,0.80 -0.32,0.76 -0.42,0.72 -0.50,0.66 -0.58,0.60 -0.64,0.52 -0.70,0.44 -0.75,0.35 -0.79,0.26 -0.81,0.16 -0.83,0.06 -0.82,-0.03 -0.82,-0.13 -0.79,-0.23 -0.76,-0.33 -0.71,-0.41 -0.66,-0.50 -0.59,-0.57 -0.52,-0.64 -0.44,-0.70 -0.35,-0.75 -0.25,-0.78 -0.16,-0.81 -0.16,-0.81 L -0.16,-0.81 Z"/></g><g transform="translate(695.2922990549268 539.1778639240111) rotate(0 7.145710775237376 1.339808503968925)" stroke="none"><path fill="#1e1e1e" d="M 0.42,-0.85 Q 0.42,-0.85 1.43,-0.30 2.44,0.24 3.59,0.73 4.74,1.21 6.90,1.15 9.06,1.09 11.13,0.65 13.19,0.21 13.33,0.20 13.47,0.20 13.60,0.24 13.74,0.28 13.85,0.37 13.97,0.45 14.05,0.56 14.13,0.68 14.17,0.81 14.21,0.95 14.21,1.09 14.20,1.23 14.15,1.37 14.11,1.50 14.02,1.61 13.93,1.72 13.81,1.79 13.69,1.87 13.55,1.90 13.41,1.94 13.27,1.92 13.13,1.91 13.00,1.85 12.87,1.80 12.77,1.70 12.66,1.61 12.59,1.48 12.53,1.36 12.50,1.22 12.47,1.08 12.49,0.94 12.51,0.80 12.58,0.68 12.64,0.55 12.74,0.45 12.84,0.35 12.97,0.29 13.09,0.23 13.23,0.21 13.37,0.19 13.51,0.22 13.65,0.25 13.77,0.32 13.90,0.39 13.99,0.49 14.08,0.60 14.14,0.73 14.20,0.86 14.21,1.00 14.22,1.14 14.18,1.28 14.15,1.41 14.07,1.53 13.99,1.65 13.88,1.74 13.77,1.83 13.64,1.87 13.51,1.92 13.51,1.92 13.51,1.92 11.31,2.28 9.10,2.63 6.65,2.68 4.19,2.73 2.92,2.27 1.66,1.80 0.61,1.32 -0.42,0.85 -0.52,0.78 -0.61,0.72 -0.69,0.64 -0.77,0.55 -0.82,0.45 -0.88,0.35 -0.91,0.24 -0.94,0.13 -0.94,0.01 -0.94,-0.09 -0.92,-0.20 -0.89,-0.32 -0.84,-0.42 -0.79,-0.52 -0.71,-0.61 -0.64,-0.70 -0.55,-0.76 -0.45,-0.83 -0.35,-0.87 -0.24,-0.91 -0.13,-0.93 -0.01,-0.95 0.09,-0.94 0.20,-0.92 0.31,-0.88 0.42,-0.85 0.42,-0.85 L 0.42,-0.85 Z"/></g><g transform="translate(725.6615207841337 540.0710532381397) rotate(0 3.126211665002188 11.165160819920402)" stroke="none"><path fill="#1e1e1e" d="M 0.91,0 Q 0.91,0 0.93,0.77 0.96,1.54 0.65,3.47 0.35,5.40 -0.58,7.57 -1.51,9.75 -2.97,11.97 -4.42,14.19 -5.86,15.68 -7.30,17.17 -8.68,17.57 -10.06,17.97 -10.84,17.31 -11.62,16.64 -11.34,15.55 -11.05,14.46 -10.24,13.63 -9.43,12.79 -7.90,12.71 -6.37,12.63 -4.40,13.44 -2.42,14.25 -0.33,15.37 1.75,16.49 4.18,18.00 6.61,19.51 11.28,20.75 15.94,21.99 16.04,22.03 16.15,22.08 16.23,22.16 16.31,22.23 16.36,22.33 16.42,22.43 16.44,22.54 16.46,22.65 16.44,22.76 16.42,22.87 16.37,22.97 16.32,23.07 16.24,23.15 16.16,23.23 16.06,23.28 15.95,23.33 15.84,23.34 15.73,23.35 15.62,23.33 15.51,23.31 15.41,23.25 15.32,23.19 15.24,23.11 15.17,23.02 15.13,22.92 15.08,22.81 15.08,22.70 15.07,22.59 15.10,22.48 15.13,22.37 15.19,22.28 15.25,22.19 15.34,22.12 15.43,22.05 15.54,22.01 15.64,21.97 15.75,21.97 15.87,21.97 15.97,22.01 16.08,22.04 16.17,22.11 16.26,22.18 16.33,22.27 16.39,22.36 16.42,22.47 16.45,22.58 16.45,22.69 16.44,22.80 16.40,22.91 16.36,23.01 16.29,23.10 16.22,23.18 16.12,23.24 16.03,23.30 15.92,23.33 15.81,23.35 15.69,23.34 15.58,23.33 15.58,23.33 15.58,23.33 10.73,22.03 5.88,20.73 3.47,19.25 1.07,17.78 -0.96,16.71 -3.00,15.65 -4.70,14.93 -6.40,14.21 -7.48,14.17 -8.56,14.13 -9.04,14.60 -9.52,15.06 -9.72,15.88 -9.92,16.70 -9.11,16.40 -8.30,16.10 -7.01,14.72 -5.72,13.34 -4.37,11.22 -3.02,9.11 -2.20,7.13 -1.38,5.14 -1.17,3.34 -0.96,1.53 -0.93,0.76 -0.91,0 -0.89,-0.10 -0.88,-0.21 -0.84,-0.32 -0.80,-0.42 -0.74,-0.51 -0.68,-0.60 -0.59,-0.67 -0.51,-0.74 -0.42,-0.80 -0.32,-0.85 -0.21,-0.87 -0.10,-0.90 0.00,-0.90 0.10,-0.90 0.21,-0.87 0.32,-0.85 0.42,-0.80 0.51,-0.74 0.59,-0.67 0.68,-0.60 0.74,-0.51 0.80,-0.42 0.84,-0.32 0.88,-0.21 0.89,-0.10 0.91,0.00 0.91,0.00 L 0.91,0 Z"/></g><g transform="translate(1455.4148540259714 490.051323139239) rotate(0 -1.7863786282570118 13.39815863801789)" stroke="none"><path fill="#1e1e1e" d="M 0.28,0.84 Q 0.28,0.84 -0.45,1.10 -1.19,1.36 -1.37,2.54 -1.55,3.71 -1.64,6.48 -1.73,9.25 -1.79,12.24 -1.84,15.23 -2.24,19.99 -2.64,24.76 -2.67,24.88 -2.70,25.00 -2.77,25.10 -2.83,25.21 -2.93,25.29 -3.02,25.36 -3.14,25.41 -3.26,25.45 -3.38,25.45 -3.50,25.46 -3.62,25.42 -3.74,25.38 -3.84,25.31 -3.94,25.24 -4.01,25.14 -4.08,25.04 -4.12,24.92 -4.15,24.80 -4.15,24.68 -4.15,24.56 -4.10,24.44 -4.06,24.33 -3.99,24.23 -3.91,24.14 -3.80,24.07 -3.70,24.00 -3.58,23.97 -3.46,23.94 -3.34,23.95 -3.22,23.96 -3.10,24.01 -2.99,24.06 -2.90,24.14 -2.81,24.22 -2.75,24.33 -2.69,24.44 -2.66,24.56 -2.64,24.68 -2.66,24.80 -2.67,24.92 -2.73,25.03 -2.78,25.14 -2.87,25.23 -2.96,25.32 -3.07,25.37 -3.18,25.43 -3.30,25.45 -3.42,25.46 -3.54,25.44 -3.66,25.42 -3.77,25.36 -3.88,25.29 -3.96,25.20 -4.04,25.11 -4.09,25.00 -4.14,24.89 -4.15,24.76 -4.16,24.64 -4.16,24.64 -4.16,24.64 -3.80,19.93 -3.44,15.21 -3.44,12.21 -3.44,9.22 -3.41,6.36 -3.39,3.50 -3.19,2.08 -3.00,0.66 -2.44,0.16 -1.88,-0.33 -1.08,-0.59 -0.28,-0.84 -0.17,-0.86 -0.07,-0.89 0.03,-0.88 0.14,-0.88 0.24,-0.85 0.35,-0.82 0.44,-0.76 0.53,-0.71 0.61,-0.63 0.69,-0.56 0.75,-0.47 0.80,-0.38 0.84,-0.28 0.87,-0.17 0.88,-0.07 0.89,0.03 0.87,0.14 0.85,0.24 0.81,0.34 0.77,0.44 0.70,0.53 0.64,0.61 0.56,0.68 0.47,0.75 0.38,0.80 0.28,0.84 0.28,0.84 L 0.28,0.84 Z"/></g><g transform="translate(1429.5119713918257 547.2168130789294) rotate(0 11.165062688815851 7.1457107752374895)" stroke="none"><path fill="#1e1e1e" d="M 0,-0.85 Q 0,-0.85 1.54,-0.83 3.08,-0.80 4.50,-0.78 5.92,-0.76 7.99,-1.25 10.05,-1.74 11.94,-2.44 13.84,-3.15 15.34,-4.42 16.84,-5.69 17.71,-6.96 18.59,-8.23 19.51,-9.57 20.42,-10.90 20.80,-11.42 21.18,-11.95 21.02,-12.32 20.85,-12.70 20.90,-12.78 20.95,-12.86 21.02,-12.92 21.09,-12.99 21.17,-13.04 21.26,-13.09 21.35,-13.11 21.44,-13.14 21.53,-13.14 21.63,-13.15 21.72,-13.13 21.81,-13.11 21.90,-13.07 21.99,-13.03 22.06,-12.97 22.14,-12.91 22.19,-12.83 22.25,-12.76 22.29,-12.67 22.33,-12.58 22.34,-12.49 22.36,-12.40 22.35,-12.30 22.34,-12.21 22.31,-12.12 22.28,-12.03 21.99,-11.50 21.70,-10.97 21.08,-9.07 20.46,-7.17 19.66,-4.04 18.86,-0.91 18.27,2.20 17.67,5.31 16.89,9.22 16.11,13.12 15.53,16.82 14.94,20.52 14.62,23.49 14.30,26.46 14.27,26.58 14.23,26.69 14.16,26.79 14.09,26.90 13.99,26.97 13.90,27.04 13.78,27.08 13.66,27.12 13.54,27.12 13.42,27.12 13.30,27.08 13.19,27.04 13.09,26.96 12.99,26.89 12.93,26.78 12.86,26.68 12.83,26.56 12.80,26.45 12.80,26.32 12.81,26.20 12.86,26.09 12.90,25.97 12.98,25.88 13.06,25.79 13.17,25.73 13.28,25.67 13.39,25.64 13.51,25.62 13.64,25.63 13.76,25.64 13.87,25.70 13.98,25.75 14.07,25.83 14.15,25.92 14.21,26.03 14.27,26.14 14.29,26.26 14.30,26.38 14.28,26.50 14.26,26.62 14.20,26.73 14.15,26.83 14.06,26.92 13.97,27.00 13.86,27.05 13.74,27.10 13.62,27.11 13.50,27.12 13.38,27.10 13.26,27.07 13.16,27.01 13.05,26.94 12.98,26.85 12.90,26.75 12.85,26.64 12.81,26.53 12.80,26.40 12.80,26.28 12.80,26.28 12.80,26.28 13.18,23.29 13.56,20.30 14.14,16.57 14.72,12.85 15.47,8.94 16.23,5.04 16.81,1.88 17.39,-1.28 18.16,-4.47 18.94,-7.66 19.89,-10.18 20.85,-12.70 20.90,-12.78 20.95,-12.86 21.02,-12.92 21.09,-12.99 21.17,-13.04 21.26,-13.09 21.35,-13.11 21.44,-13.14 21.53,-13.14 21.63,-13.15 21.72,-13.13 21.81,-13.11 21.90,-13.07 21.99,-13.03 22.06,-12.97 22.14,-12.91 22.19,-12.83 22.25,-12.76 22.29,-12.67 22.33,-12.58 22.34,-12.49 22.36,-12.40 22.35,-12.30 22.34,-12.21 22.31,-12.12 22.28,-12.03 22.31,-12.21 22.33,-12.40 21.93,-11.27 21.54,-10.14 20.63,-8.79 19.72,-7.45 18.73,-6.04 17.74,-4.63 16.05,-3.23 14.36,-1.83 12.38,-1.07 10.39,-0.31 8.16,0.22 5.93,0.76 4.50,0.78 3.08,0.80 1.54,0.83 0,0.85 -0.10,0.84 -0.20,0.83 -0.30,0.79 -0.39,0.76 -0.48,0.70 -0.56,0.64 -0.63,0.56 -0.70,0.48 -0.75,0.39 -0.80,0.30 -0.82,0.20 -0.85,0.10 -0.85,-0.00 -0.85,-0.10 -0.82,-0.20 -0.80,-0.30 -0.75,-0.39 -0.70,-0.48 -0.63,-0.56 -0.56,-0.64 -0.48,-0.70 -0.39,-0.76 -0.30,-0.79 -0.20,-0.83 -0.10,-0.84 0.00,-0.85 0.00,-0.85 L 0,-0.85 Z"/></g><g transform="translate(1433.0847286483397 564.1878516373422) rotate(0 8.485494746430277 2.6796415407140444)" stroke="none"><path fill="#1e1e1e" d="M 0.39,-0.78 Q 0.39,-0.78 1.40,-0.24 2.42,0.29 3.91,1.32 5.41,2.36 6.98,3.01 8.55,3.66 12.01,4.06 15.48,4.46 15.59,4.49 15.70,4.52 15.80,4.59 15.89,4.65 15.96,4.75 16.03,4.84 16.07,4.95 16.11,5.06 16.11,5.18 16.11,5.29 16.07,5.40 16.03,5.51 15.96,5.61 15.89,5.70 15.79,5.76 15.69,5.83 15.58,5.86 15.47,5.89 15.35,5.88 15.24,5.87 15.13,5.83 15.02,5.79 14.93,5.71 14.85,5.64 14.79,5.54 14.73,5.44 14.70,5.32 14.68,5.21 14.69,5.09 14.70,4.98 14.75,4.87 14.80,4.77 14.88,4.68 14.96,4.60 15.07,4.54 15.17,4.49 15.29,4.47 15.40,4.45 15.52,4.47 15.63,4.49 15.73,4.55 15.84,4.60 15.91,4.69 15.99,4.77 16.04,4.88 16.09,4.99 16.10,5.10 16.11,5.22 16.09,5.33 16.06,5.44 16.00,5.54 15.94,5.64 15.85,5.72 15.76,5.79 15.65,5.83 15.55,5.88 15.43,5.88 15.31,5.89 15.31,5.89 15.31,5.89 11.66,5.47 8.00,5.04 6.27,4.34 4.55,3.64 3.11,2.70 1.68,1.75 0.64,1.27 -0.39,0.78 -0.48,0.72 -0.57,0.66 -0.64,0.59 -0.71,0.51 -0.76,0.42 -0.81,0.32 -0.84,0.22 -0.87,0.12 -0.87,0.01 -0.87,-0.08 -0.85,-0.19 -0.82,-0.29 -0.78,-0.39 -0.73,-0.48 -0.66,-0.56 -0.59,-0.64 -0.50,-0.70 -0.42,-0.77 -0.32,-0.80 -0.22,-0.84 -0.12,-0.86 -0.01,-0.87 0.08,-0.86 0.19,-0.85 0.29,-0.82 0.39,-0.78 0.39,-0.78 L 0.39,-0.78 Z"/></g><g transform="translate(1464.3471396916752 571.3335133470273) rotate(0 -1.7864767593616762 10.27192244023962)" stroke="none"><path fill="#1e1e1e" d="M 0.81,0.23 Q 0.81,0.23 0.27,2.02 -0.26,3.81 -0.75,5.83 -1.24,7.86 -1.97,10.29 -2.70,12.72 -3.81,15.08 -4.92,17.44 -5.99,18.53 -7.07,19.61 -8.46,19.70 -9.85,19.79 -10.33,18.77 -10.81,17.76 -10.98,16.45 -11.15,15.14 -10.67,14.15 -10.19,13.17 -9.23,12.69 -8.27,12.20 -6.73,12.87 -5.18,13.53 -3.79,14.62 -2.39,15.72 -0.81,16.94 0.76,18.16 2.14,18.91 3.52,19.66 5.00,19.66 6.48,19.66 6.61,19.69 6.75,19.72 6.86,19.79 6.98,19.87 7.06,19.97 7.15,20.07 7.20,20.20 7.24,20.32 7.25,20.46 7.26,20.59 7.22,20.72 7.18,20.85 7.11,20.96 7.03,21.07 6.92,21.15 6.81,21.23 6.69,21.27 6.56,21.32 6.42,21.31 6.29,21.31 6.16,21.27 6.04,21.23 5.93,21.14 5.82,21.06 5.75,20.95 5.67,20.84 5.64,20.71 5.60,20.58 5.61,20.44 5.62,20.31 5.67,20.18 5.72,20.06 5.81,19.96 5.90,19.86 6.01,19.79 6.13,19.72 6.26,19.69 6.39,19.66 6.53,19.68 6.66,19.70 6.78,19.75 6.90,19.81 7.00,19.90 7.10,20.00 7.16,20.12 7.22,20.24 7.24,20.37 7.26,20.50 7.24,20.63 7.22,20.77 7.15,20.88 7.09,21.00 6.99,21.09 6.89,21.19 6.77,21.24 6.65,21.30 6.51,21.31 6.38,21.32 6.38,21.32 6.38,21.32 4.64,21.12 2.91,20.93 1.39,20.13 -0.11,19.33 -1.72,18.13 -3.33,16.92 -4.60,15.94 -5.87,14.96 -7.43,14.51 -8.98,14.07 -9.38,14.60 -9.78,15.13 -9.62,16.18 -9.46,17.22 -8.69,17.89 -7.92,18.56 -7.05,17.69 -6.19,16.81 -5.14,14.56 -4.10,12.30 -3.41,9.91 -2.71,7.52 -2.25,5.44 -1.79,3.37 -1.30,1.57 -0.81,-0.23 -0.77,-0.32 -0.73,-0.42 -0.67,-0.50 -0.61,-0.58 -0.53,-0.64 -0.45,-0.71 -0.36,-0.75 -0.27,-0.80 -0.17,-0.82 -0.07,-0.84 0.03,-0.83 0.13,-0.83 0.23,-0.80 0.32,-0.77 0.41,-0.72 0.50,-0.67 0.57,-0.60 0.65,-0.53 0.70,-0.45 0.76,-0.36 0.79,-0.26 0.82,-0.17 0.83,-0.07 0.84,0.03 0.82,0.13 0.81,0.23 0.81,0.23 L 0.81,0.23 Z"/></g><g transform="translate(1474.1724184092982 540.9643406833728) rotate(0 -0.893189314128449 8.932138469046777)" stroke="none"><path fill="#1e1e1e" d="M 0.91,0 Q 0.91,0 0.87,1.79 0.84,3.59 0.56,6.44 0.27,9.30 -0.26,12.85 -0.80,16.41 -0.84,16.53 -0.88,16.64 -0.95,16.74 -1.02,16.84 -1.12,16.91 -1.22,16.98 -1.34,17.02 -1.46,17.05 -1.58,17.05 -1.70,17.04 -1.82,17.00 -1.93,16.95 -2.03,16.88 -2.12,16.80 -2.18,16.69 -2.25,16.59 -2.28,16.47 -2.31,16.35 -2.29,16.23 -2.28,16.11 -2.23,16.00 -2.18,15.89 -2.10,15.80 -2.02,15.71 -1.91,15.65 -1.80,15.59 -1.68,15.57 -1.56,15.54 -1.44,15.56 -1.32,15.58 -1.21,15.64 -1.10,15.69 -1.02,15.78 -0.93,15.87 -0.88,15.98 -0.83,16.09 -0.81,16.21 -0.80,16.33 -0.82,16.45 -0.84,16.57 -0.91,16.67 -0.97,16.78 -1.06,16.86 -1.15,16.94 -1.26,16.99 -1.38,17.04 -1.50,17.04 -1.62,17.05 -1.74,17.02 -1.86,16.99 -1.96,16.92 -2.06,16.86 -2.14,16.76 -2.21,16.66 -2.25,16.55 -2.30,16.43 -2.30,16.31 -2.30,16.19 -2.30,16.19 -2.30,16.19 -1.80,12.67 -1.30,9.15 -1.07,6.37 -0.84,3.59 -0.87,1.79 -0.91,0 -0.90,-0.10 -0.88,-0.21 -0.84,-0.32 -0.80,-0.42 -0.74,-0.51 -0.68,-0.60 -0.60,-0.67 -0.51,-0.75 -0.42,-0.80 -0.32,-0.85 -0.21,-0.88 -0.11,-0.90 0.00,-0.90 0.11,-0.90 0.21,-0.88 0.32,-0.85 0.42,-0.80 0.51,-0.75 0.60,-0.67 0.68,-0.60 0.74,-0.51 0.80,-0.42 0.84,-0.32 0.88,-0.21 0.90,-0.10 0.91,0.00 0.91,0.00 L 0.91,0 Z"/></g><g stroke-linecap="round"><g transform="translate(704.2244865895259 495.41070435177187) rotate(0 153.18564728946546 229.55517360566637)"><path d="M0 0 C51.06 76.52, 255.31 382.59, 306.37 459.11 M0 0 C51.06 76.52, 255.31 382.59, 306.37 459.11" stroke="#1971c2" stroke-width="0.5" fill="none"/></g></g><mask/><g stroke-linecap="round"><g transform="translate(1133.8590467135416 954.4317522579124) rotate(0 217.94339359590538 2.6797151390425142)"><path d="M0 0 C72.65 0.89, 363.24 4.47, 435.89 5.36 M0 0 C72.65 0.89, 363.24 4.47, 435.89 5.36" stroke="#1971c2" stroke-width="0.5" fill="none"/></g></g><mask/><g stroke-linecap="round"><g transform="translate(234.66342206536103 942.8199477153751) rotate(0 449.28504396093314 6.252521461108927)"><path d="M0 0 C149.76 2.08, 748.81 10.42, 898.57 12.51" stroke="#1971c2" stroke-width="1" fill="none" stroke-dasharray="8 8.5"/></g></g><mask/><g stroke-linecap="round"><g transform="translate(810.5166645106453 647.1671211681955) rotate(0 101.37948949675558 1.3397839711927872)"><path d="M0 0 C33.79 0.45, 168.97 2.23, 202.76 2.68 M0 0 C33.79 0.45, 168.97 2.23, 202.76 2.68" stroke="#f08c00" stroke-width="0.5" fill="none"/></g></g><mask/><g stroke-linecap="round"><g transform="translate(1135.6454253417987 651.6331168043905) rotate(0 267.516578103294 -125.9427598891416)"><path d="M0 0 C89.17 -41.98, 445.86 -209.9, 535.03 -251.89 M0 0 C89.17 -41.98, 445.86 -209.9, 535.03 -251.89" stroke="#f08c00" stroke-width="0.5" fill="none"/></g></g><mask/><g stroke-linecap="round"><g transform="translate(221.17628304824063 1054.292564779777) rotate(0 456.87732486045894 -200.52585851153276)"><path d="M0 0 C152.29 -66.84, 761.46 -334.21, 913.75 -401.05" stroke="#f08c00" stroke-width="1" fill="none" stroke-dasharray="8 8.5"/></g></g><mask/><g stroke-linecap="round"><g transform="translate(474.6692393855312 497.10768554373215) rotate(0 -4.019400979130694 225.53574809375942)"><path d="M0 0 C-1.34 75.18, -6.7 375.89, -8.04 451.07 M0 0 C-1.34 75.18, -6.7 375.89, -8.04 451.07" stroke="#1e1e1e" stroke-width="0.5" fill="none"/></g><g transform="translate(474.6692393855312 497.10768554373215) rotate(0 -4.019400979130694 225.53574809375942)"><path d="M-17.8 422.7 C-15.43 429.59, -13.06 436.48, -8.04 451.07 M-17.8 422.7 C-15.83 428.42, -13.86 434.14, -8.04 451.07" stroke="#1e1e1e" stroke-width="0.5" fill="none"/></g><g transform="translate(474.6692393855312 497.10768554373215) rotate(0 -4.019400979130694 225.53574809375942)"><path d="M2.72 423.07 C0.11 429.87, -2.5 436.67, -8.04 451.07 M2.72 423.07 C0.55 428.71, -1.62 434.36, -8.04 451.07" stroke="#1e1e1e" stroke-width="0.5" fill="none"/></g></g><mask/></svg>