<svg version="1.1" xmlns="http://www.w3.org/2000/svg" viewBox="0 0 464 209.33334350585938" width="464" height="209.33334350585938" filter="invert(93%) hue-rotate(180deg)" class="excalidraw-svg">
  <!-- svg-source:excalidraw -->
  
  <defs>
    <style class="style-fonts">
      @font-face {
        font-family: "Virgil";
        src: url("https://excalidraw.com/Virgil.woff2");
      }
      @font-face {
        font-family: "Cascadia";
        src: url("https://excalidraw.com/Cascadia.woff2");
      }
      @font-face {
        font-family: "Assistant";
        src: url("https://excalidraw.com/Assistant-Regular.woff2");
      }
    </style>
    
  </defs>
  <rect x="0" y="0" width="464" height="209.33334350585938" fill="#ffffff"/><g transform="translate(23.66668701171875 22.666671752929688) rotate(0 -2 17)" stroke="none"><path fill="#1e1e1e" d="M 0.36,0.73 Q 0.36,0.73 -0.37,1.12 -1.11,1.51 -1.70,2.30 -2.29,3.09 -2.55,4.11 -2.81,5.13 -2.75,7.05 -2.69,8.98 -2.48,11.74 -2.27,14.50 -2.00,17.20 -1.72,19.91 -1.60,23.00 -1.49,26.10 -1.13,29.30 -0.76,32.50 -0.77,32.61 -0.78,32.73 -0.82,32.84 -0.86,32.95 -0.94,33.04 -1.01,33.12 -1.11,33.18 -1.21,33.24 -1.33,33.27 -1.44,33.29 -1.56,33.28 -1.68,33.27 -1.78,33.22 -1.89,33.17 -1.97,33.09 -2.06,33.01 -2.11,32.91 -2.17,32.80 -2.18,32.69 -2.20,32.57 -2.18,32.46 -2.16,32.34 -2.11,32.24 -2.06,32.14 -1.97,32.06 -1.89,31.98 -1.78,31.93 -1.67,31.88 -1.56,31.86 -1.44,31.85 -1.33,31.88 -1.21,31.90 -1.11,31.96 -1.01,32.02 -0.94,32.11 -0.86,32.20 -0.82,32.31 -0.78,32.42 -0.77,32.54 -0.76,32.65 -0.79,32.76 -0.83,32.88 -0.89,32.97 -0.96,33.07 -1.05,33.14 -1.14,33.21 -1.25,33.25 -1.37,33.29 -1.48,33.29 -1.60,33.29 -1.71,33.25 -1.82,33.21 -1.91,33.14 -2.01,33.07 -2.07,32.97 -2.14,32.88 -2.17,32.76 -2.20,32.65 -2.20,32.65 -2.20,32.65 -2.53,29.40 -2.86,26.15 -2.99,23.10 -3.11,20.06 -3.40,17.33 -3.70,14.61 -3.93,11.82 -4.16,9.02 -4.23,6.89 -4.29,4.76 -3.95,3.46 -3.60,2.15 -2.77,1.08 -1.94,0.01 -1.15,-0.35 -0.36,-0.73 -0.27,-0.76 -0.18,-0.79 -0.08,-0.80 0.01,-0.81 0.11,-0.80 0.21,-0.79 0.30,-0.75 0.39,-0.71 0.47,-0.66 0.55,-0.60 0.61,-0.52 0.68,-0.45 0.72,-0.36 0.77,-0.27 0.79,-0.17 0.81,-0.08 0.81,0.01 0.81,0.11 0.78,0.21 0.76,0.30 0.71,0.39 0.66,0.47 0.59,0.55 0.53,0.62 0.44,0.67 0.36,0.73 0.36,0.73 L 0.36,0.73 Z"/></g><g transform="translate(21 19.333343505859375) rotate(0 8 5)" stroke="none"><path fill="#1e1e1e" d="M 0.51,0.77 Q 0.51,0.77 0.04,1.03 -0.41,1.28 -0.37,1.91 -0.32,2.53 0.68,3.85 1.69,5.17 3.74,6.31 5.79,7.45 8.90,7.95 12.00,8.45 14.50,8.73 17.00,9.00 17.13,9.04 17.26,9.08 17.38,9.16 17.49,9.24 17.57,9.35 17.66,9.47 17.70,9.60 17.74,9.73 17.74,9.87 17.74,10.01 17.69,10.14 17.64,10.27 17.56,10.38 17.47,10.49 17.35,10.57 17.24,10.64 17.10,10.68 16.97,10.71 16.83,10.70 16.69,10.69 16.56,10.64 16.43,10.58 16.33,10.49 16.22,10.40 16.15,10.28 16.09,10.16 16.06,10.02 16.03,9.89 16.05,9.75 16.06,9.61 16.13,9.49 16.19,9.36 16.28,9.26 16.38,9.16 16.51,9.10 16.63,9.04 16.77,9.01 16.91,8.99 17.04,9.02 17.18,9.04 17.30,9.11 17.42,9.18 17.52,9.28 17.61,9.39 17.67,9.51 17.72,9.64 17.74,9.78 17.75,9.92 17.72,10.05 17.68,10.19 17.61,10.31 17.54,10.42 17.43,10.51 17.32,10.60 17.19,10.65 17.06,10.70 16.92,10.70 16.78,10.71 16.78,10.71 16.78,10.71 14.27,10.35 11.75,9.99 8.38,9.45 5.02,8.90 2.66,7.58 0.30,6.26 -0.93,4.48 -2.18,2.71 -2.03,1.47 -1.88,0.24 -1.19,-0.26 -0.51,-0.77 -0.41,-0.82 -0.31,-0.87 -0.20,-0.90 -0.09,-0.92 0.01,-0.92 0.12,-0.92 0.23,-0.89 0.34,-0.86 0.44,-0.81 0.54,-0.75 0.62,-0.68 0.70,-0.60 0.77,-0.51 0.83,-0.42 0.87,-0.31 0.91,-0.20 0.92,-0.09 0.93,0.01 0.91,0.12 0.90,0.23 0.86,0.34 0.81,0.44 0.75,0.53 0.68,0.63 0.60,0.70 0.51,0.77 0.51,0.77 L 0.51,0.77 Z"/></g><g transform="translate(23 38) rotate(0 4.6666717529296875 -2)" stroke="none"><path fill="#1e1e1e" d="M -0.71,-0.71 Q -0.71,-0.71 -0.14,-1.30 0.42,-1.88 1.95,-2.73 3.48,-3.59 6.09,-4.16 8.71,-4.74 8.87,-4.74 9.03,-4.75 9.18,-4.70 9.33,-4.66 9.46,-4.57 9.59,-4.47 9.68,-4.35 9.77,-4.22 9.82,-4.07 9.87,-3.92 9.87,-3.76 9.86,-3.60 9.81,-3.45 9.76,-3.30 9.66,-3.18 9.56,-3.05 9.43,-2.97 9.29,-2.88 9.14,-2.84 8.99,-2.80 8.83,-2.81 8.67,-2.82 8.52,-2.89 8.38,-2.95 8.26,-3.05 8.14,-3.16 8.06,-3.29 7.98,-3.43 7.95,-3.59 7.92,-3.74 7.94,-3.90 7.96,-4.06 8.03,-4.20 8.10,-4.34 8.21,-4.45 8.32,-4.57 8.46,-4.64 8.61,-4.71 8.76,-4.73 8.92,-4.76 9.08,-4.73 9.23,-4.70 9.37,-4.62 9.51,-4.54 9.62,-4.43 9.72,-4.31 9.79,-4.16 9.85,-4.02 9.86,-3.86 9.88,-3.70 9.84,-3.55 9.80,-3.40 9.72,-3.26 9.63,-3.13 9.51,-3.03 9.39,-2.93 9.24,-2.87 9.09,-2.82 9.09,-2.82 9.09,-2.82 6.74,-2.40 4.39,-1.98 3.13,-1.19 1.87,-0.41 1.29,0.15 0.71,0.71 0.62,0.79 0.52,0.86 0.41,0.91 0.30,0.96 0.18,0.99 0.06,1.01 -0.06,1.00 -0.18,0.99 -0.29,0.96 -0.41,0.92 -0.52,0.86 -0.62,0.79 -0.71,0.71 -0.79,0.62 -0.86,0.52 -0.92,0.41 -0.96,0.29 -0.99,0.18 -1.00,0.06 -1.01,-0.06 -0.99,-0.18 -0.96,-0.30 -0.91,-0.41 -0.86,-0.52 -0.79,-0.62 -0.71,-0.71 -0.71,-0.71 L -0.71,-0.71 Z"/></g><g transform="translate(39.66668701171875 42) rotate(0 7.9999847412109375 8.666671752929688)" stroke="none"><path fill="#1e1e1e" d="M 0.66,0.40 Q 0.66,0.40 0.08,1.35 -0.50,2.30 -1.15,3.28 -1.79,4.26 -2.41,5.95 -3.04,7.64 -3.50,9.67 -3.96,11.71 -3.79,13.03 -3.62,14.36 -2.96,15.16 -2.31,15.97 -0.99,15.77 0.33,15.56 1.98,14.40 3.63,13.24 5.28,11.07 6.93,8.90 8.41,6.63 9.89,4.36 10.71,2.84 11.52,1.31 11.63,0.62 11.74,-0.06 11.79,-0.13 11.85,-0.21 11.92,-0.27 11.99,-0.33 12.07,-0.38 12.15,-0.42 12.25,-0.44 12.34,-0.46 12.43,-0.46 12.52,-0.46 12.62,-0.44 12.71,-0.41 12.79,-0.37 12.87,-0.33 12.94,-0.26 13.01,-0.20 13.06,-0.12 13.12,-0.04 13.15,0.03 13.18,0.12 13.19,0.21 13.20,0.31 13.19,0.40 13.18,0.49 13.15,0.58 13.11,0.67 12.56,2.35 12.01,4.04 11.44,6.00 10.86,7.95 10.62,9.50 10.38,11.05 10.63,12.35 10.88,13.65 11.37,14.05 11.86,14.46 13.11,14.11 14.36,13.77 17.03,11.98 19.70,10.19 19.81,10.14 19.91,10.09 20.03,10.08 20.15,10.07 20.27,10.10 20.38,10.13 20.48,10.19 20.58,10.25 20.66,10.34 20.73,10.43 20.77,10.54 20.82,10.65 20.82,10.77 20.83,10.89 20.79,11.00 20.76,11.12 20.69,11.22 20.62,11.31 20.53,11.38 20.43,11.45 20.32,11.49 20.21,11.53 20.09,11.52 19.97,11.52 19.86,11.48 19.75,11.44 19.65,11.37 19.56,11.30 19.50,11.20 19.43,11.10 19.40,10.98 19.37,10.87 19.38,10.75 19.39,10.63 19.43,10.52 19.48,10.41 19.56,10.33 19.63,10.24 19.74,10.18 19.84,10.12 19.96,10.09 20.07,10.07 20.19,10.08 20.31,10.10 20.41,10.15 20.52,10.20 20.60,10.28 20.69,10.37 20.74,10.47 20.80,10.58 20.81,10.70 20.83,10.81 20.81,10.93 20.79,11.05 20.73,11.15 20.68,11.25 20.59,11.33 20.50,11.41 20.50,11.41 20.50,11.41 17.60,13.28 14.69,15.15 13.05,15.43 11.41,15.71 10.51,14.89 9.62,14.07 9.31,12.47 8.99,10.87 9.24,9.21 9.48,7.56 10.04,5.59 10.60,3.62 11.17,1.78 11.74,-0.06 11.79,-0.13 11.85,-0.21 11.92,-0.27 11.99,-0.33 12.07,-0.38 12.15,-0.42 12.25,-0.44 12.34,-0.46 12.43,-0.46 12.52,-0.46 12.62,-0.44 12.71,-0.41 12.79,-0.37 12.87,-0.33 12.94,-0.26 13.01,-0.20 13.06,-0.12 13.12,-0.05 13.15,0.03 13.18,0.12 13.19,0.21 13.20,0.31 13.19,0.40 13.18,0.49 13.15,0.58 13.11,0.67 12.90,1.30 12.69,1.93 11.85,3.50 11.00,5.08 9.49,7.40 7.98,9.71 6.19,12.02 4.39,14.33 2.46,15.60 0.53,16.87 -1.15,16.96 -2.84,17.05 -3.88,15.84 -4.92,14.64 -5.12,13.04 -5.31,11.44 -4.84,9.29 -4.36,7.15 -3.69,5.32 -3.01,3.49 -2.40,2.51 -1.79,1.53 -1.23,0.56 -0.66,-0.40 -0.61,-0.47 -0.55,-0.55 -0.48,-0.60 -0.40,-0.66 -0.32,-0.70 -0.23,-0.74 -0.14,-0.76 -0.04,-0.77 0.04,-0.77 0.13,-0.76 0.22,-0.74 0.31,-0.71 0.39,-0.66 0.47,-0.61 0.54,-0.55 0.61,-0.48 0.66,-0.40 0.71,-0.32 0.73,-0.23 0.76,-0.14 0.77,-0.04 0.77,0.04 0.76,0.13 0.74,0.22 0.70,0.31 0.66,0.40 0.66,0.40 L 0.66,0.40 Z"/></g><g transform="translate(61.66668701171875 47.333343505859375) rotate(0 12 3.3333282470703125)" stroke="none"><path fill="#1e1e1e" d="M -0.84,-0.42 Q -0.84,-0.42 -0.46,-1.19 -0.09,-1.96 0.52,-2.76 1.13,-3.56 2.42,-3.88 3.71,-4.19 4.29,-3.51 4.86,-2.82 5.09,-1.19 5.31,0.44 5.16,2.66 5.02,4.88 4.75,6.58 4.48,8.29 4.62,8.82 4.77,9.35 4.74,9.46 4.71,9.57 4.66,9.66 4.60,9.76 4.53,9.84 4.45,9.92 4.36,9.98 4.27,10.04 4.17,10.08 4.06,10.12 3.95,10.13 3.84,10.14 3.73,10.12 3.62,10.11 3.52,10.07 3.42,10.03 3.33,9.96 3.24,9.90 3.17,9.81 3.10,9.73 3.05,9.63 3.00,9.53 2.98,9.42 2.95,9.32 2.96,9.21 2.96,9.10 3.90,7.82 4.85,6.54 6.14,4.37 7.44,2.21 8.56,-0.03 9.69,-2.28 10.59,-3.68 11.50,-5.07 12.20,-5.46 12.90,-5.85 12.96,-5.92 13.02,-5.99 13.09,-6.05 13.17,-6.10 13.25,-6.14 13.34,-6.17 13.43,-6.19 13.53,-6.20 13.62,-6.20 13.71,-6.19 13.80,-6.16 13.89,-6.13 13.97,-6.08 14.05,-6.03 14.11,-5.96 14.17,-5.89 14.22,-5.81 14.27,-5.73 14.29,-5.64 14.32,-5.55 14.32,-5.46 14.32,-5.36 14.31,-5.27 14.29,-5.18 14.25,-5.10 14.21,-5.01 14.35,-4.08 14.49,-3.14 14.35,-1.24 14.21,0.66 13.76,3.38 13.31,6.11 12.93,8.20 12.54,10.30 12.82,11.03 13.10,11.76 13.07,11.85 13.04,11.94 12.99,12.02 12.95,12.10 12.88,12.17 12.81,12.23 12.73,12.28 12.65,12.33 12.56,12.36 12.48,12.38 12.38,12.39 12.29,12.40 12.20,12.38 12.10,12.36 12.02,12.33 11.93,12.29 11.86,12.23 11.79,12.17 11.73,12.10 11.67,12.03 11.63,11.94 11.59,11.86 11.58,11.76 11.56,11.67 11.56,11.58 11.57,11.48 12.79,10.45 14.01,9.41 15.16,7.59 16.31,5.77 17.41,4.19 18.51,2.61 19.63,1.67 20.75,0.74 21.32,2.22 21.89,3.70 21.74,5.54 21.59,7.39 22.98,8.11 24.37,8.83 24.35,8.93 24.33,9.03 24.29,9.12 24.24,9.21 24.18,9.28 24.12,9.36 24.04,9.42 23.96,9.48 23.87,9.52 23.78,9.56 23.68,9.58 23.58,9.59 23.48,9.58 23.38,9.58 23.29,9.54 23.20,9.51 23.11,9.46 23.03,9.41 22.96,9.34 22.89,9.26 22.84,9.18 22.79,9.09 22.76,9.00 22.74,8.90 22.73,8.80 22.73,8.70 23.17,8.33 23.62,7.95 23.75,7.98 23.88,8.02 23.99,8.09 24.10,8.16 24.18,8.27 24.27,8.37 24.31,8.50 24.36,8.62 24.36,8.75 24.36,8.89 24.32,9.01 24.28,9.14 24.20,9.25 24.12,9.36 24.02,9.43 23.91,9.51 23.78,9.55 23.65,9.59 23.52,9.58 23.39,9.58 23.26,9.53 23.14,9.48 23.03,9.40 22.93,9.31 22.86,9.20 22.79,9.09 22.76,8.96 22.73,8.83 22.74,8.70 22.75,8.56 22.80,8.44 22.86,8.32 22.95,8.22 23.04,8.12 23.15,8.06 23.27,7.99 23.40,7.97 23.53,7.95 23.66,7.97 23.80,7.98 23.91,8.04 24.03,8.10 24.13,8.20 24.22,8.29 24.28,8.41 24.34,8.53 24.35,8.67 24.37,8.80 24.34,8.93 24.32,9.06 24.25,9.17 24.18,9.29 24.08,9.38 23.98,9.47 23.86,9.52 23.74,9.57 24.05,9.20 24.37,8.83 24.35,8.93 24.33,9.03 24.29,9.12 24.24,9.21 24.18,9.28 24.12,9.36 24.04,9.42 23.96,9.48 23.87,9.52 23.78,9.56 23.68,9.57 23.58,9.59 23.48,9.58 23.38,9.58 23.29,9.54 23.20,9.51 23.11,9.46 23.03,9.41 22.96,9.34 22.89,9.26 22.84,9.18 22.79,9.09 22.76,9.00 22.74,8.90 22.73,8.80 22.73,8.70 21.44,8.01 20.15,7.32 20.28,5.59 20.41,3.86 20.19,2.83 19.97,1.79 19.78,2.58 19.59,3.36 18.51,4.92 17.43,6.49 16.14,8.46 14.86,10.43 13.98,11.09 13.10,11.76 13.07,11.85 13.04,11.94 12.99,12.02 12.95,12.10 12.88,12.17 12.81,12.23 12.73,12.28 12.65,12.33 12.56,12.36 12.48,12.38 12.38,12.39 12.29,12.40 12.20,12.38 12.10,12.36 12.02,12.33 11.93,12.29 11.86,12.23 11.79,12.17 11.73,12.10 11.67,12.03 11.63,11.94 11.59,11.86 11.58,11.76 11.56,11.67 11.56,11.58 11.57,11.48 11.40,10.81 11.23,10.13 11.61,8.01 11.98,5.90 12.42,3.22 12.85,0.55 12.99,-1.22 13.12,-3.00 13.01,-4.42 12.90,-5.85 12.96,-5.92 13.02,-5.99 13.09,-6.05 13.17,-6.10 13.25,-6.14 13.34,-6.17 13.43,-6.19 13.53,-6.20 13.62,-6.20 13.71,-6.19 13.80,-6.16 13.89,-6.13 13.97,-6.08 14.05,-6.03 14.11,-5.96 14.17,-5.89 14.22,-5.81 14.27,-5.73 14.29,-5.64 14.32,-5.55 14.32,-5.46 14.32,-5.36 14.31,-5.27 14.29,-5.18 14.25,-5.10 14.21,-5.01 13.41,-4.63 12.60,-4.25 11.79,-2.95 10.97,-1.64 9.84,0.65 8.71,2.96 7.40,5.19 6.09,7.43 5.43,8.39 4.77,9.35 4.74,9.46 4.71,9.57 4.66,9.66 4.60,9.76 4.53,9.84 4.45,9.92 4.36,9.98 4.27,10.04 4.17,10.08 4.06,10.12 3.95,10.13 3.84,10.14 3.73,10.12 3.62,10.11 3.52,10.07 3.42,10.03 3.33,9.96 3.24,9.90 3.17,9.81 3.10,9.73 3.05,9.63 3.00,9.53 2.98,9.42 2.95,9.32 2.96,9.21 2.96,9.10 2.92,8.59 2.88,8.08 3.09,6.44 3.30,4.79 3.37,2.74 3.45,0.68 3.01,-0.82 2.58,-2.33 2.10,-1.71 1.62,-1.10 1.23,-0.33 0.84,0.42 0.78,0.51 0.72,0.61 0.63,0.69 0.55,0.76 0.45,0.82 0.35,0.87 0.24,0.90 0.13,0.93 0.01,0.93 -0.09,0.94 -0.20,0.91 -0.31,0.89 -0.42,0.84 -0.52,0.78 -0.60,0.71 -0.69,0.64 -0.76,0.54 -0.82,0.45 -0.87,0.35 -0.91,0.24 -0.93,0.13 -0.94,0.01 -0.93,-0.09 -0.92,-0.20 -0.88,-0.31 -0.84,-0.42 -0.84,-0.42 L -0.84,-0.42 Z"/></g><g transform="translate(92.33334350585938 26.666671752929688) rotate(0 -2.3333282470703125 19.333335876464844)" stroke="none"><path fill="#1e1e1e" d="M 0.77,0.11 Q 0.77,0.11 0.37,2.79 -0.02,5.47 -0.78,8.74 -1.53,12.02 -2.62,16.47 -3.71,20.92 -4.76,24.73 -5.80,28.55 -6.43,31.47 -7.06,34.40 -6.76,35.67 -6.46,36.94 -6.48,37.02 -6.51,37.10 -6.55,37.17 -6.60,37.23 -6.66,37.29 -6.71,37.35 -6.79,37.39 -6.86,37.43 -6.93,37.45 -7.01,37.47 -7.09,37.47 -7.18,37.47 -7.25,37.46 -7.33,37.44 -7.41,37.41 -7.48,37.37 -7.54,37.32 -7.61,37.27 -7.65,37.20 -7.70,37.13 -7.73,37.06 -7.77,36.98 -7.78,36.90 -7.79,36.82 -7.78,36.74 -7.78,36.66 -6.14,35.64 -4.51,34.61 -2.63,32.24 -0.76,29.87 0.93,27.55 2.63,25.23 2.72,25.14 2.81,25.06 2.92,25.01 3.03,24.96 3.15,24.95 3.27,24.93 3.38,24.96 3.50,24.98 3.61,25.04 3.71,25.11 3.79,25.20 3.87,25.29 3.91,25.40 3.96,25.51 3.96,25.63 3.97,25.76 3.94,25.87 3.91,25.99 3.84,26.09 3.77,26.19 3.68,26.26 3.58,26.34 3.47,26.38 3.35,26.41 3.23,26.41 3.11,26.41 3.00,26.38 2.88,26.34 2.78,26.27 2.69,26.19 2.62,26.09 2.55,25.99 2.52,25.88 2.49,25.76 2.49,25.64 2.50,25.52 2.54,25.41 2.59,25.29 2.67,25.20 2.74,25.11 2.85,25.05 2.95,24.98 3.07,24.96 3.19,24.93 3.31,24.94 3.43,24.96 3.54,25.01 3.65,25.06 3.73,25.14 3.82,25.22 3.88,25.33 3.94,25.44 3.96,25.56 3.98,25.67 3.96,25.79 3.94,25.91 3.88,26.02 3.83,26.13 3.83,26.13 3.83,26.13 2.05,28.42 0.28,30.70 -1.77,33.24 -3.83,35.77 -5.14,36.35 -6.46,36.94 -6.48,37.02 -6.51,37.10 -6.55,37.17 -6.60,37.23 -6.66,37.29 -6.71,37.35 -6.79,37.39 -6.86,37.43 -6.93,37.45 -7.01,37.47 -7.09,37.47 -7.18,37.47 -7.25,37.46 -7.33,37.44 -7.41,37.41 -7.48,37.37 -7.54,37.32 -7.61,37.27 -7.65,37.20 -7.70,37.13 -7.73,37.06 -7.76,36.98 -7.78,36.90 -7.79,36.82 -7.78,36.74 -7.78,36.66 -8.09,35.42 -8.40,34.17 -7.76,31.18 -7.13,28.19 -6.11,24.39 -5.08,20.59 -4.01,16.14 -2.94,11.70 -2.22,8.48 -1.50,5.26 -1.13,2.57 -0.77,-0.11 -0.74,-0.20 -0.72,-0.29 -0.67,-0.37 -0.63,-0.45 -0.56,-0.52 -0.50,-0.59 -0.42,-0.64 -0.34,-0.69 -0.25,-0.73 -0.17,-0.76 -0.07,-0.77 0.01,-0.78 0.10,-0.76 0.20,-0.75 0.29,-0.71 0.37,-0.68 0.45,-0.62 0.53,-0.57 0.59,-0.50 0.65,-0.43 0.69,-0.34 0.73,-0.26 0.75,-0.16 0.77,-0.07 0.77,0.01 0.77,0.11 0.77,0.11 L 0.77,0.11 Z"/></g><g transform="translate(101.66668701171875 44) rotate(0 -7.6666717529296875 9.333335876464844)" stroke="none"><path fill="#1e1e1e" d="M 0.71,0.51 Q 0.71,0.51 -0.26,1.83 -1.24,3.16 -3.02,5.45 -4.79,7.74 -6.71,10.06 -8.62,12.37 -10.80,14.53 -12.98,16.68 -14.54,17.82 -16.09,18.95 -16.87,19.06 -17.65,19.17 -17.73,19.21 -17.81,19.26 -17.90,19.28 -17.99,19.31 -18.09,19.31 -18.18,19.32 -18.27,19.30 -18.36,19.28 -18.45,19.24 -18.53,19.20 -18.61,19.13 -18.68,19.07 -18.73,19.00 -18.79,18.92 -18.83,18.84 -18.86,18.75 -18.88,18.66 -18.89,18.56 -18.88,18.47 -18.88,18.38 -18.84,18.29 -18.81,18.20 -18.76,18.12 -18.71,18.04 -18.64,17.97 -18.58,17.91 -18.28,16.43 -17.98,14.96 -17.11,14.08 -16.24,13.21 -15.37,12.94 -14.50,12.68 -13.64,12.78 -12.78,12.89 -11.77,13.63 -10.76,14.36 -9.85,15.03 -8.93,15.70 -7.86,16.14 -6.79,16.59 -5.47,16.58 -4.14,16.58 -2.46,16.22 -0.77,15.86 0.99,14.80 2.76,13.73 2.89,13.69 3.01,13.64 3.15,13.64 3.28,13.64 3.41,13.68 3.53,13.72 3.64,13.80 3.75,13.88 3.83,13.99 3.91,14.10 3.94,14.22 3.98,14.35 3.98,14.49 3.97,14.62 3.93,14.75 3.88,14.87 3.79,14.97 3.71,15.08 3.60,15.15 3.48,15.22 3.35,15.25 3.22,15.28 3.09,15.27 2.96,15.26 2.83,15.20 2.71,15.15 2.61,15.06 2.51,14.97 2.45,14.85 2.38,14.74 2.36,14.61 2.33,14.47 2.35,14.34 2.37,14.21 2.43,14.09 2.49,13.97 2.59,13.88 2.68,13.78 2.80,13.72 2.93,13.67 3.06,13.65 3.19,13.63 3.32,13.66 3.45,13.68 3.57,13.75 3.68,13.82 3.77,13.92 3.86,14.02 3.91,14.14 3.97,14.26 3.98,14.40 3.99,14.53 3.95,14.66 3.92,14.79 3.85,14.90 3.77,15.01 3.67,15.10 3.56,15.18 3.56,15.18 3.56,15.18 1.55,16.22 -0.45,17.25 -2.30,17.65 -4.15,18.05 -5.73,18.03 -7.32,18.02 -8.58,17.52 -9.84,17.03 -10.81,16.39 -11.78,15.75 -12.50,15.23 -13.22,14.70 -14.25,14.53 -15.29,14.36 -15.90,15.00 -16.52,15.65 -16.88,16.39 -17.25,17.13 -17.45,18.15 -17.65,19.17 -17.73,19.21 -17.81,19.26 -17.90,19.28 -17.99,19.31 -18.09,19.31 -18.18,19.32 -18.27,19.30 -18.36,19.28 -18.45,19.24 -18.53,19.20 -18.61,19.13 -18.68,19.07 -18.73,19.00 -18.79,18.92 -18.83,18.84 -18.86,18.75 -18.88,18.66 -18.89,18.56 -18.88,18.47 -18.88,18.38 -18.84,18.29 -18.81,18.20 -18.76,18.12 -18.71,18.04 -18.64,17.97 -18.58,17.91 -17.70,17.85 -16.83,17.79 -15.41,16.72 -14.00,15.66 -11.88,13.55 -9.77,11.43 -7.90,9.12 -6.03,6.80 -4.30,4.50 -2.58,2.20 -1.65,0.84 -0.71,-0.51 -0.64,-0.59 -0.57,-0.66 -0.48,-0.72 -0.39,-0.78 -0.29,-0.82 -0.19,-0.85 -0.09,-0.87 0.01,-0.88 0.11,-0.86 0.22,-0.85 0.32,-0.81 0.42,-0.77 0.50,-0.71 0.59,-0.65 0.66,-0.56 0.73,-0.48 0.78,-0.39 0.82,-0.29 0.85,-0.19 0.87,-0.09 0.87,0.01 0.87,0.12 0.84,0.22 0.81,0.32 0.76,0.41 0.71,0.51 0.71,0.51 L 0.71,0.51 Z"/></g><g transform="translate(110.33334350585938 50.66667175292969) rotate(0 -4.333343505859375 19)" stroke="none"><path fill="#1e1e1e" d="M 0.51,0.68 Q 0.51,0.68 -0.25,1.25 -1.01,1.82 -1.85,2.92 -2.69,4.02 -3.24,5.22 -3.79,6.42 -4.02,7.35 -4.26,8.28 -4.31,8.36 -4.35,8.44 -4.42,8.51 -4.49,8.57 -4.57,8.62 -4.65,8.67 -4.74,8.70 -4.83,8.72 -4.92,8.73 -5.01,8.74 -5.11,8.72 -5.20,8.70 -5.28,8.66 -5.37,8.63 -5.44,8.57 -5.52,8.51 -5.58,8.44 -5.63,8.36 -5.67,8.28 -5.71,8.19 -5.73,8.10 -5.74,8.01 -5.74,7.91 -5.73,7.82 -5.71,7.73 -5.68,7.64 -4.91,7.40 -4.14,7.16 -3.18,6.30 -2.22,5.44 -0.94,4.47 0.34,3.50 1.45,3.10 2.57,2.69 2.64,2.65 2.72,2.60 2.80,2.58 2.89,2.55 2.98,2.54 3.07,2.54 3.16,2.56 3.24,2.57 3.32,2.61 3.41,2.65 3.48,2.70 3.55,2.76 3.60,2.83 3.65,2.90 3.69,2.98 3.73,3.06 3.74,3.15 3.76,3.24 3.75,3.32 3.75,3.41 3.72,3.50 3.69,3.58 3.65,3.66 3.60,3.74 3.54,3.80 3.47,3.86 4.07,4.81 4.66,5.76 4.68,8.37 4.70,10.98 3.92,14.79 3.14,18.60 1.45,22.56 -0.23,26.51 -1.72,29.53 -3.21,32.55 -5.11,34.31 -7.00,36.08 -8.88,36.16 -10.77,36.24 -11.73,34.49 -12.69,32.74 -12.88,30.18 -13.08,27.62 -11.98,24.54 -10.88,21.46 -9.04,18.79 -7.20,16.12 -4.43,13.41 -1.66,10.70 -1.57,10.64 -1.48,10.58 -1.38,10.55 -1.28,10.52 -1.17,10.52 -1.07,10.52 -0.97,10.56 -0.87,10.60 -0.78,10.67 -0.70,10.74 -0.65,10.83 -0.59,10.92 -0.57,11.02 -0.54,11.12 -0.55,11.23 -0.56,11.34 -0.60,11.43 -0.65,11.53 -0.72,11.61 -0.79,11.69 -0.89,11.74 -0.98,11.79 -1.08,11.81 -1.19,11.83 -1.29,11.81 -1.40,11.80 -1.49,11.75 -1.59,11.70 -1.66,11.62 -1.74,11.55 -1.78,11.45 -1.83,11.36 -1.84,11.25 -1.86,11.14 -1.84,11.04 -1.81,10.94 -1.76,10.84 -1.71,10.75 -1.63,10.68 -1.55,10.61 -1.45,10.57 -1.35,10.53 -1.24,10.52 -1.14,10.51 -1.03,10.54 -0.93,10.57 -0.84,10.63 -0.75,10.68 -0.69,10.77 -0.62,10.85 -0.59,10.95 -0.55,11.05 -0.55,11.16 -0.55,11.27 -0.58,11.37 -0.61,11.47 -0.67,11.56 -0.74,11.64 -0.74,11.64 -0.74,11.64 -3.43,14.26 -6.12,16.88 -7.88,19.40 -9.64,21.92 -10.70,24.75 -11.76,27.57 -11.62,29.88 -11.49,32.19 -10.77,33.78 -10.06,35.37 -8.90,35.19 -7.74,35.02 -6.08,33.47 -4.42,31.92 -2.96,28.95 -1.50,25.97 0.13,22.15 1.77,18.32 2.52,14.65 3.27,10.98 3.26,8.60 3.26,6.22 2.91,4.46 2.57,2.69 2.64,2.65 2.72,2.60 2.80,2.58 2.89,2.55 2.98,2.54 3.07,2.54 3.16,2.56 3.24,2.57 3.32,2.61 3.41,2.65 3.48,2.70 3.55,2.76 3.60,2.83 3.65,2.90 3.69,2.98 3.73,3.06 3.74,3.15 3.76,3.24 3.75,3.32 3.75,3.41 3.72,3.50 3.69,3.58 3.65,3.66 3.60,3.74 3.54,3.80 3.47,3.86 2.37,4.29 1.26,4.72 0.03,5.71 -1.19,6.70 -2.72,7.49 -4.26,8.28 -4.31,8.36 -4.35,8.44 -4.42,8.51 -4.49,8.57 -4.57,8.62 -4.65,8.67 -4.74,8.70 -4.83,8.72 -4.92,8.73 -5.01,8.74 -5.11,8.72 -5.20,8.70 -5.28,8.66 -5.37,8.63 -5.44,8.57 -5.52,8.51 -5.58,8.44 -5.63,8.36 -5.67,8.28 -5.71,8.19 -5.73,8.10 -5.74,8.01 -5.74,7.91 -5.73,7.82 -5.71,7.73 -5.68,7.64 -5.42,6.72 -5.17,5.80 -4.57,4.44 -3.97,3.08 -3.01,1.78 -2.04,0.47 -1.27,-0.10 -0.51,-0.68 -0.42,-0.73 -0.33,-0.78 -0.23,-0.81 -0.13,-0.83 -0.03,-0.84 0.06,-0.84 0.16,-0.82 0.26,-0.80 0.36,-0.76 0.45,-0.71 0.53,-0.65 0.61,-0.58 0.67,-0.50 0.73,-0.42 0.77,-0.33 0.81,-0.23 0.83,-0.13 0.84,-0.03 0.84,0.06 0.83,0.17 0.80,0.26 0.76,0.36 0.71,0.45 0.65,0.53 0.58,0.60 0.51,0.68 0.51,0.68 L 0.51,0.68 Z"/></g><g transform="translate(119 27.333343505859375) rotate(0 -2 2.3333282470703125)" stroke="none"><path fill="#1e1e1e" d="M 0.18,1.09 Q 0.18,1.09 -0.77,1.05 -1.73,1.02 -1.85,1.64 -1.96,2.26 -1.51,3.52 -1.05,4.79 -1.04,4.96 -1.03,5.13 -1.07,5.29 -1.12,5.45 -1.22,5.59 -1.31,5.73 -1.45,5.83 -1.58,5.93 -1.74,5.98 -1.90,6.04 -2.07,6.04 -2.24,6.04 -2.40,5.98 -2.56,5.93 -2.69,5.82 -2.82,5.72 -2.92,5.58 -3.01,5.44 -3.06,5.28 -3.10,5.12 -3.09,4.95 -3.08,4.78 -3.02,4.62 -2.95,4.47 -2.84,4.34 -2.73,4.21 -2.59,4.13 -2.44,4.04 -2.28,4.00 -2.11,3.97 -1.95,3.99 -1.78,4.01 -1.63,4.08 -1.48,4.15 -1.35,4.27 -1.23,4.38 -1.15,4.53 -1.08,4.68 -1.05,4.85 -1.02,5.01 -1.05,5.18 -1.08,5.35 -1.16,5.50 -1.24,5.64 -1.36,5.76 -1.48,5.87 -1.64,5.94 -1.79,6.01 -1.96,6.03 -2.13,6.05 -2.29,6.01 -2.45,5.97 -2.60,5.89 -2.74,5.80 -2.85,5.67 -2.96,5.54 -3.02,5.38 -3.08,5.23 -3.08,5.23 -3.08,5.23 -3.45,3.56 -3.81,1.89 -3.34,0.81 -2.86,-0.25 -1.52,-0.67 -0.18,-1.09 -0.04,-1.10 0.08,-1.10 0.21,-1.08 0.34,-1.05 0.46,-0.99 0.58,-0.94 0.69,-0.85 0.79,-0.77 0.87,-0.66 0.95,-0.55 1.01,-0.43 1.06,-0.31 1.08,-0.18 1.10,-0.04 1.09,0.08 1.08,0.21 1.04,0.34 1.00,0.47 0.93,0.58 0.86,0.69 0.76,0.79 0.67,0.88 0.55,0.95 0.43,1.01 0.31,1.05 0.18,1.09 0.18,1.09 L 0.18,1.09 Z"/></g><g transform="translate(128.33334350585938 44) rotate(0 2 2.3333358764648438)" stroke="none"><path fill="#1e1e1e" d="M 0.37,-0.75 Q 0.37,-0.75 1.14,-0.38 1.92,-0.02 2.53,0.07 3.14,0.16 3.83,0.04 4.53,-0.07 5.31,-0.59 6.08,-1.10 6.58,-1.98 7.07,-2.86 7.30,-3.94 7.53,-5.01 7.28,-6.32 7.03,-7.64 6.31,-8.46 5.59,-9.29 4.27,-9.26 2.94,-9.24 1.69,-8.54 0.43,-7.84 -1.02,-5.89 -2.48,-3.94 -3.48,-1.25 -4.48,1.44 -4.53,4.81 -4.57,8.18 -3.89,10.27 -3.20,12.37 -1.72,13.18 -0.23,13.99 2.20,13.41 4.65,12.83 6.99,11.91 9.34,11.00 9.46,10.98 9.58,10.95 9.70,10.97 9.83,10.99 9.94,11.04 10.05,11.10 10.14,11.18 10.22,11.27 10.28,11.38 10.33,11.49 10.35,11.62 10.37,11.74 10.34,11.86 10.32,11.98 10.26,12.09 10.20,12.20 10.10,12.28 10.01,12.36 9.90,12.41 9.78,12.46 9.66,12.47 9.54,12.48 9.42,12.45 9.30,12.42 9.19,12.35 9.09,12.29 9.01,12.19 8.93,12.09 8.89,11.98 8.85,11.86 8.85,11.74 8.84,11.61 8.88,11.49 8.92,11.38 8.99,11.28 9.06,11.17 9.16,11.10 9.26,11.03 9.38,10.99 9.50,10.96 9.62,10.96 9.75,10.97 9.86,11.01 9.98,11.05 10.07,11.13 10.17,11.21 10.24,11.31 10.30,11.42 10.33,11.54 10.36,11.66 10.35,11.78 10.34,11.90 10.29,12.02 10.24,12.13 10.16,12.22 10.08,12.31 9.97,12.37 9.86,12.44 9.86,12.44 9.86,12.44 7.39,13.28 4.92,14.13 2.13,14.65 -0.66,15.18 -2.48,14.08 -4.31,12.98 -5.11,10.58 -5.90,8.18 -5.83,4.58 -5.75,0.99 -4.66,-1.88 -3.57,-4.75 -1.91,-6.89 -0.25,-9.02 1.32,-9.82 2.89,-10.62 4.62,-10.50 6.34,-10.39 7.39,-9.20 8.44,-8.01 8.74,-6.38 9.04,-4.74 8.77,-3.41 8.49,-2.07 7.80,-0.89 7.10,0.28 5.99,1.03 4.87,1.77 3.81,1.89 2.76,2.01 1.95,1.78 1.14,1.55 0.38,1.15 -0.37,0.75 -0.46,0.69 -0.54,0.64 -0.61,0.56 -0.68,0.49 -0.73,0.40 -0.78,0.31 -0.80,0.21 -0.83,0.11 -0.83,0.01 -0.83,-0.08 -0.81,-0.18 -0.79,-0.28 -0.74,-0.37 -0.70,-0.46 -0.63,-0.54 -0.57,-0.61 -0.48,-0.67 -0.40,-0.73 -0.31,-0.77 -0.21,-0.81 -0.11,-0.82 -0.01,-0.84 0.08,-0.83 0.18,-0.82 0.28,-0.78 0.37,-0.75 0.37,-0.75 L 0.37,-0.75 Z"/></g><g transform="translate(157 45.333343505859375) rotate(0 -0.33331298828125 8)" stroke="none"><path fill="#1e1e1e" d="M 0.83,0.41 Q 0.83,0.41 0.22,1.54 -0.37,2.67 -0.80,4.59 -1.23,6.51 -1.62,8.50 -2.02,10.49 -1.85,11.92 -1.68,13.35 -0.14,12.30 1.40,11.24 1.52,11.16 1.64,11.08 1.79,11.05 1.93,11.01 2.08,11.03 2.22,11.04 2.36,11.10 2.49,11.16 2.60,11.25 2.71,11.35 2.78,11.48 2.85,11.61 2.88,11.75 2.91,11.90 2.89,12.04 2.87,12.19 2.80,12.32 2.74,12.45 2.63,12.55 2.53,12.66 2.40,12.72 2.27,12.79 2.12,12.80 1.97,12.82 1.83,12.80 1.69,12.77 1.56,12.70 1.43,12.62 1.33,12.51 1.24,12.40 1.18,12.27 1.12,12.13 1.11,11.99 1.10,11.84 1.13,11.70 1.17,11.56 1.25,11.43 1.33,11.31 1.44,11.22 1.56,11.13 1.69,11.08 1.83,11.03 1.98,11.02 2.13,11.02 2.27,11.06 2.41,11.11 2.53,11.19 2.64,11.28 2.73,11.40 2.81,11.52 2.86,11.66 2.90,11.80 2.90,11.94 2.89,12.09 2.84,12.23 2.79,12.37 2.70,12.48 2.60,12.59 2.60,12.59 2.61,12.59 0.97,13.90 -0.65,15.20 -1.81,14.52 -2.97,13.85 -3.24,12.04 -3.52,10.23 -3.16,8.20 -2.80,6.17 -2.36,4.04 -1.92,1.92 -1.37,0.75 -0.83,-0.41 -0.77,-0.51 -0.71,-0.60 -0.62,-0.68 -0.54,-0.75 -0.44,-0.81 -0.34,-0.86 -0.23,-0.89 -0.13,-0.92 -0.01,-0.92 0.09,-0.93 0.20,-0.90 0.31,-0.88 0.41,-0.83 0.51,-0.78 0.60,-0.70 0.68,-0.63 0.75,-0.54 0.81,-0.45 0.86,-0.34 0.90,-0.24 0.91,-0.13 0.93,-0.01 0.92,0.09 0.91,0.20 0.87,0.31 0.83,0.41 0.83,0.41 L 0.83,0.41 Z"/></g><g transform="translate(165 26.666671752929688) rotate(0 -2 3.6666641235351562)" stroke="none"><path fill="#1e1e1e" d="M 0.70,0.70 Q 0.70,0.70 -0.46,1.79 -1.62,2.89 -1.88,3.62 -2.14,4.35 -1.23,5.29 -0.32,6.23 -0.25,6.37 -0.17,6.50 -0.15,6.65 -0.12,6.80 -0.15,6.95 -0.17,7.10 -0.24,7.24 -0.31,7.37 -0.42,7.48 -0.53,7.58 -0.67,7.64 -0.81,7.71 -0.96,7.73 -1.11,7.74 -1.26,7.71 -1.41,7.68 -1.54,7.60 -1.67,7.52 -1.77,7.41 -1.87,7.29 -1.93,7.15 -1.98,7.01 -1.99,6.86 -2.00,6.71 -1.96,6.56 -1.92,6.41 -1.83,6.29 -1.75,6.16 -1.63,6.07 -1.51,5.97 -1.36,5.92 -1.22,5.88 -1.07,5.87 -0.92,5.87 -0.77,5.92 -0.63,5.97 -0.50,6.06 -0.38,6.15 -0.30,6.28 -0.21,6.41 -0.17,6.55 -0.13,6.70 -0.14,6.85 -0.14,7.00 -0.20,7.14 -0.26,7.29 -0.35,7.40 -0.45,7.52 -0.58,7.60 -0.71,7.68 -0.86,7.71 -1.01,7.74 -1.16,7.73 -1.31,7.71 -1.45,7.65 -1.59,7.58 -1.70,7.48 -1.81,7.38 -1.81,7.38 -1.81,7.38 -2.73,5.93 -3.64,4.49 -3.30,3.10 -2.97,1.70 -1.83,0.50 -0.70,-0.70 -0.61,-0.78 -0.51,-0.85 -0.40,-0.90 -0.29,-0.95 -0.17,-0.97 -0.06,-0.99 0.05,-0.99 0.18,-0.98 0.29,-0.94 0.41,-0.91 0.51,-0.84 0.61,-0.78 0.70,-0.70 0.78,-0.61 0.84,-0.51 0.91,-0.41 0.94,-0.29 0.98,-0.18 0.99,-0.05 0.99,0.06 0.97,0.17 0.95,0.29 0.90,0.40 0.85,0.51 0.78,0.61 0.70,0.70 0.70,0.70 L 0.70,0.70 Z"/></g><g transform="translate(189 38) rotate(0 1.333343505859375 31)" stroke="none"><path fill="#1e1e1e" d="M 0.75,0.18 Q 0.75,0.18 0.35,1.71 -0.04,3.24 -0.01,6.10 0.01,8.96 0.20,12.50 0.40,16.03 0.48,21.39 0.56,26.75 0.01,32.89 -0.52,39.03 -1.52,43.96 -2.53,48.90 -3.94,52.77 -5.35,56.64 -7.34,58.21 -9.32,59.79 -11.07,59.20 -12.81,58.61 -14.15,54.98 -15.49,51.36 -15.45,45.74 -15.41,40.12 -13.83,34.82 -12.26,29.51 -9.07,24.53 -5.88,19.55 -2.01,15.50 1.86,11.45 5.44,8.76 9.03,6.06 11.54,4.72 14.04,3.37 15.94,3.19 17.83,3.02 18.09,3.90 18.36,4.78 17.27,6.84 16.18,8.91 14.55,11.08 12.92,13.26 10.87,15.53 8.83,17.80 6.28,18.95 3.74,20.10 3.62,20.08 3.49,20.07 3.38,20.01 3.26,19.96 3.17,19.87 3.08,19.78 3.02,19.66 2.96,19.55 2.95,19.43 2.93,19.30 2.95,19.18 2.97,19.05 3.03,18.94 3.10,18.83 3.19,18.74 3.28,18.66 3.40,18.61 3.51,18.56 3.64,18.54 3.77,18.53 3.89,18.56 4.01,18.59 4.12,18.66 4.23,18.72 4.31,18.82 4.39,18.92 4.43,19.04 4.48,19.16 4.48,19.28 4.49,19.41 4.45,19.53 4.42,19.65 4.34,19.76 4.27,19.86 4.17,19.94 4.07,20.01 3.95,20.05 3.83,20.09 3.70,20.09 3.57,20.08 3.45,20.04 3.33,20.00 3.23,19.92 3.13,19.84 3.06,19.74 2.99,19.63 2.96,19.51 2.93,19.39 2.94,19.26 2.95,19.13 3.00,19.02 3.05,18.90 3.13,18.80 3.21,18.71 3.32,18.64 3.43,18.58 3.56,18.56 3.68,18.53 3.68,18.53 3.68,18.53 5.74,17.70 7.81,16.87 9.80,14.64 11.79,12.41 13.36,10.31 14.93,8.20 15.95,6.52 16.96,4.85 16.78,4.12 16.60,3.40 15.63,3.96 14.66,4.53 12.24,5.82 9.81,7.12 6.31,9.74 2.80,12.36 -0.98,16.31 -4.77,20.26 -7.89,25.08 -11.00,29.90 -12.55,35.03 -14.09,40.15 -14.16,45.55 -14.24,50.95 -13.15,54.30 -12.06,57.66 -10.80,58.16 -9.53,58.65 -8.04,57.38 -6.55,56.10 -5.20,52.36 -3.85,48.62 -2.86,43.77 -1.88,38.91 -1.35,32.84 -0.81,26.77 -0.91,21.44 -1.00,16.11 -1.21,12.54 -1.43,8.97 -1.46,5.93 -1.49,2.89 -1.12,1.35 -0.75,-0.18 -0.72,-0.27 -0.69,-0.36 -0.63,-0.44 -0.58,-0.51 -0.51,-0.58 -0.44,-0.64 -0.35,-0.68 -0.27,-0.73 -0.18,-0.75 -0.09,-0.77 0.00,-0.77 0.09,-0.77 0.18,-0.75 0.27,-0.72 0.36,-0.68 0.44,-0.64 0.51,-0.57 0.58,-0.51 0.63,-0.43 0.69,-0.36 0.72,-0.27 0.75,-0.18 0.77,-0.09 0.78,0.00 0.76,0.09 0.75,0.18 0.75,0.18 L 0.75,0.18 Z"/></g><g transform="translate(203.66668701171875 51.333343505859375) rotate(0 15.333328247070312 -1.6666717529296875)" stroke="none"><path fill="#1e1e1e" d="M -0.91,0 Q -0.91,0 -0.88,-1.53 -0.84,-3.07 -0.41,-4.42 0.01,-5.77 0.60,-6.61 1.20,-7.45 2.48,-7.97 3.77,-8.49 4.27,-7.92 4.76,-7.35 5.01,-5.75 5.25,-4.16 4.91,-1.92 4.58,0.30 4.62,1.88 4.66,3.46 5.11,4.19 5.56,4.91 5.55,5.02 5.54,5.12 5.51,5.21 5.48,5.31 5.42,5.39 5.37,5.48 5.30,5.55 5.22,5.62 5.14,5.67 5.05,5.72 4.95,5.75 4.85,5.78 4.75,5.78 4.65,5.78 4.55,5.76 4.45,5.74 4.36,5.70 4.27,5.65 4.19,5.59 4.12,5.53 4.05,5.45 3.99,5.36 3.95,5.27 3.92,5.18 3.90,5.08 3.88,4.98 5.25,3.99 6.61,2.99 8.40,1.60 10.19,0.21 11.95,-0.97 13.70,-2.16 15.05,-2.87 16.40,-3.58 17.61,-3.90 18.82,-4.22 19.71,-4.38 20.61,-4.55 19.96,-4.22 19.31,-3.89 18.61,-3.07 17.91,-2.24 17.61,-1.06 17.31,0.11 17.71,1.46 18.10,2.80 18.88,3.68 19.66,4.55 20.98,4.55 22.30,4.55 23.93,3.30 25.56,2.05 26.83,0.23 28.11,-1.58 28.64,-3.24 29.17,-4.91 29.12,-6.16 29.07,-7.41 28.27,-7.73 27.46,-8.06 26.27,-7.31 25.07,-6.57 24.01,-4.82 22.96,-3.08 22.85,0.11 22.74,3.31 22.73,3.44 22.72,3.56 22.66,3.68 22.61,3.79 22.52,3.89 22.44,3.98 22.32,4.04 22.21,4.10 22.09,4.12 21.96,4.14 21.84,4.12 21.71,4.11 21.60,4.05 21.48,3.99 21.40,3.90 21.31,3.80 21.25,3.69 21.20,3.57 21.18,3.45 21.17,3.32 21.20,3.19 21.22,3.07 21.29,2.96 21.35,2.85 21.45,2.77 21.54,2.68 21.66,2.64 21.78,2.59 21.91,2.58 22.04,2.57 22.16,2.61 22.28,2.64 22.39,2.71 22.49,2.78 22.57,2.88 22.65,2.98 22.69,3.10 22.73,3.22 22.73,3.35 22.73,3.48 22.69,3.60 22.65,3.72 22.58,3.82 22.50,3.92 22.40,4.00 22.29,4.07 22.17,4.10 22.05,4.14 21.92,4.13 21.79,4.13 21.67,4.08 21.55,4.03 21.46,3.95 21.36,3.87 21.29,3.76 21.23,3.65 21.20,3.53 21.17,3.40 21.17,3.40 21.17,3.40 21.49,-0.16 21.82,-3.74 23.09,-5.71 24.37,-7.68 25.95,-8.47 27.54,-9.26 28.77,-8.68 30.01,-8.10 30.24,-6.31 30.47,-4.53 29.86,-2.66 29.24,-0.79 27.83,1.18 26.41,3.17 24.42,4.55 22.44,5.94 20.65,5.82 18.86,5.70 17.75,4.50 16.63,3.29 16.17,1.55 15.71,-0.18 16.10,-1.75 16.50,-3.32 17.44,-4.46 18.38,-5.61 19.69,-6.21 20.99,-6.81 21.87,-6.46 22.74,-6.11 22.96,-5.28 23.17,-4.45 22.68,-3.84 22.19,-3.23 21.51,-3.15 20.82,-3.07 19.99,-2.98 19.16,-2.90 18.10,-2.63 17.04,-2.36 15.77,-1.68 14.49,-1.00 12.79,0.16 11.08,1.34 9.22,2.81 7.36,4.27 6.46,4.59 5.56,4.91 5.55,5.02 5.54,5.12 5.51,5.21 5.48,5.31 5.42,5.39 5.37,5.48 5.30,5.55 5.22,5.62 5.14,5.67 5.05,5.72 4.95,5.75 4.85,5.78 4.75,5.78 4.65,5.78 4.55,5.76 4.45,5.74 4.36,5.70 4.27,5.65 4.19,5.59 4.12,5.53 4.05,5.45 3.99,5.36 3.95,5.27 3.92,5.18 3.90,5.08 3.88,4.98 3.51,4.29 3.14,3.60 3.05,1.84 2.96,0.08 3.24,-1.92 3.51,-3.93 3.01,-5.18 2.51,-6.43 2.01,-5.85 1.51,-5.26 1.18,-4.16 0.84,-3.05 0.88,-1.52 0.91,0 0.90,0.10 0.89,0.21 0.85,0.32 0.81,0.42 0.74,0.51 0.68,0.60 0.60,0.68 0.52,0.75 0.42,0.80 0.32,0.85 0.21,0.88 0.11,0.91 -0.00,0.91 -0.11,0.91 -0.21,0.88 -0.32,0.85 -0.42,0.80 -0.52,0.75 -0.60,0.68 -0.68,0.60 -0.74,0.51 -0.81,0.42 -0.85,0.32 -0.89,0.21 -0.90,0.10 -0.91,-0.00 -0.91,-0.00 L -0.91,0 Z"/></g><g transform="translate(249.66668701171875 41.333343505859375) rotate(0 -3.66668701171875 9)" stroke="none"><path fill="#1e1e1e" d="M 0.19,0.78 Q 0.19,0.78 -0.56,1.00 -1.31,1.22 -2.13,1.64 -2.94,2.05 -3.85,2.76 -4.75,3.47 -5.89,4.69 -7.03,5.92 -7.86,7.89 -8.69,9.87 -9.06,11.58 -9.44,13.28 -8.77,14.40 -8.11,15.51 -6.81,15.61 -5.51,15.71 -2.04,13.94 1.43,12.18 1.53,12.15 1.64,12.12 1.75,12.12 1.85,12.12 1.96,12.16 2.06,12.20 2.15,12.27 2.23,12.34 2.29,12.43 2.35,12.52 2.37,12.63 2.40,12.73 2.39,12.84 2.38,12.95 2.34,13.05 2.30,13.15 2.22,13.23 2.15,13.31 2.05,13.37 1.96,13.42 1.85,13.44 1.74,13.46 1.64,13.45 1.53,13.43 1.43,13.38 1.33,13.33 1.25,13.26 1.18,13.18 1.13,13.08 1.08,12.98 1.07,12.88 1.05,12.77 1.07,12.66 1.09,12.55 1.15,12.46 1.20,12.36 1.28,12.29 1.36,12.22 1.46,12.17 1.56,12.13 1.67,12.12 1.78,12.11 1.89,12.14 1.99,12.17 2.09,12.22 2.18,12.28 2.25,12.37 2.32,12.45 2.35,12.56 2.39,12.66 2.39,12.77 2.40,12.88 2.36,12.98 2.33,13.09 2.27,13.18 2.20,13.27 2.11,13.33 2.03,13.39 2.03,13.39 2.03,13.39 -1.76,15.22 -5.55,17.04 -7.23,16.76 -8.91,16.47 -9.85,14.86 -10.78,13.26 -10.40,11.28 -10.03,9.31 -9.09,7.12 -8.16,4.93 -6.95,3.59 -5.74,2.24 -4.73,1.40 -3.72,0.56 -2.73,0.05 -1.74,-0.46 -0.97,-0.62 -0.19,-0.78 -0.09,-0.79 -0.00,-0.80 0.09,-0.79 0.19,-0.78 0.28,-0.74 0.37,-0.71 0.45,-0.66 0.53,-0.60 0.59,-0.53 0.66,-0.46 0.70,-0.37 0.75,-0.28 0.77,-0.19 0.79,-0.09 0.80,-0.00 0.80,0.09 0.77,0.18 0.75,0.28 0.70,0.36 0.66,0.45 0.60,0.52 0.53,0.60 0.45,0.65 0.37,0.71 0.28,0.74 0.19,0.78 0.19,0.78 L 0.19,0.78 Z"/></g><g transform="translate(264.3333740234375 39.333343505859375) rotate(0 3.666656494140625 10.666664123535156)" stroke="none"><path fill="#1e1e1e" d="M 0.82,0.35 Q 0.82,0.35 0.22,1.67 -0.37,2.99 -0.43,3.72 -0.48,4.44 0.50,4.71 1.49,4.98 2.61,4.50 3.72,4.02 4.75,3.13 5.77,2.24 6.17,1.20 6.57,0.16 5.87,-0.52 5.17,-1.21 3.83,-0.84 2.49,-0.47 0.62,0.94 -1.25,2.36 -2.79,4.81 -4.33,7.26 -5.18,9.98 -6.03,12.69 -5.65,15.43 -5.27,18.17 -3.69,19.62 -2.12,21.07 0.15,21.31 2.42,21.55 5.23,20.36 8.04,19.17 10.88,17.61 13.72,16.06 13.83,16.02 13.94,15.99 14.05,15.99 14.17,15.98 14.27,16.02 14.38,16.06 14.47,16.12 14.56,16.19 14.63,16.29 14.69,16.38 14.73,16.49 14.76,16.60 14.75,16.71 14.75,16.83 14.70,16.93 14.66,17.04 14.59,17.13 14.52,17.21 14.42,17.27 14.32,17.33 14.21,17.36 14.10,17.38 13.99,17.37 13.87,17.36 13.77,17.31 13.67,17.26 13.58,17.19 13.50,17.11 13.45,17.01 13.39,16.91 13.37,16.80 13.35,16.68 13.37,16.57 13.39,16.46 13.44,16.36 13.49,16.26 13.58,16.18 13.66,16.10 13.76,16.05 13.86,16.00 13.98,15.99 14.09,15.98 14.20,16.00 14.31,16.02 14.41,16.08 14.51,16.14 14.58,16.23 14.66,16.31 14.70,16.42 14.74,16.52 14.75,16.64 14.76,16.75 14.73,16.86 14.70,16.97 14.63,17.07 14.57,17.16 14.48,17.23 14.39,17.30 14.39,17.30 14.39,17.30 11.47,18.85 8.54,20.40 5.44,21.64 2.34,22.87 -0.28,22.50 -2.90,22.12 -4.72,20.32 -6.54,18.53 -6.95,15.43 -7.36,12.33 -6.45,9.42 -5.54,6.51 -3.85,3.86 -2.15,1.21 -0.02,-0.36 2.09,-1.94 3.87,-2.30 5.64,-2.67 6.77,-2.03 7.91,-1.38 7.95,-0.34 8.00,0.69 7.44,2.03 6.88,3.38 5.65,4.48 4.42,5.59 2.93,6.21 1.44,6.83 0.39,6.64 -0.64,6.46 -1.33,5.59 -2.02,4.73 -1.97,3.55 -1.92,2.37 -1.37,1.00 -0.82,-0.35 -0.77,-0.44 -0.71,-0.54 -0.64,-0.62 -0.56,-0.69 -0.47,-0.75 -0.38,-0.81 -0.28,-0.84 -0.17,-0.88 -0.07,-0.89 0.03,-0.90 0.14,-0.88 0.25,-0.86 0.35,-0.82 0.45,-0.77 0.53,-0.71 0.62,-0.64 0.69,-0.56 0.76,-0.48 0.80,-0.38 0.85,-0.28 0.87,-0.17 0.89,-0.07 0.89,0.03 0.88,0.14 0.85,0.25 0.82,0.35 0.82,0.35 L 0.82,0.35 Z"/></g><g transform="translate(289.66668701171875 41.333343505859375) rotate(0 18 -3.0000076293945312)" stroke="none"><path fill="#1e1e1e" d="M 0,0.78 Q 0,0.78 -0.94,0.79 -1.88,0.79 -2.90,1.31 -3.92,1.83 -5.12,2.78 -6.33,3.73 -7.76,5.81 -9.20,7.88 -10.57,11.03 -11.95,14.18 -12.53,16.81 -13.11,19.43 -12.60,21.18 -12.09,22.92 -12.12,23.00 -12.15,23.08 -12.19,23.15 -12.24,23.21 -12.30,23.27 -12.35,23.33 -12.43,23.36 -12.50,23.40 -12.58,23.43 -12.66,23.45 -12.74,23.45 -12.82,23.45 -12.90,23.43 -12.98,23.42 -13.05,23.38 -13.12,23.34 -13.19,23.29 -13.25,23.24 -13.30,23.17 -13.35,23.11 -13.38,23.03 -13.41,22.96 -13.42,22.87 -13.43,22.79 -13.42,22.71 -13.42,22.63 -11.25,21.78 -9.09,20.92 -6.65,18.81 -4.20,16.70 -1.44,12.96 1.30,9.22 4.01,4.38 6.72,-0.45 8.62,-5.35 10.53,-10.26 11.72,-14.25 12.92,-18.24 13.23,-21.42 13.53,-24.59 13.32,-26.26 13.10,-27.93 12.39,-27.98 11.68,-28.03 10.86,-26.61 10.03,-25.18 8.69,-20.98 7.34,-16.78 6.38,-12.69 5.42,-8.60 4.82,-4.01 4.22,0.58 4.15,4.42 4.09,8.26 4.80,11.14 5.51,14.02 7.01,15.32 8.51,16.62 10.36,16.43 12.22,16.23 14.48,14.69 16.74,13.14 18.65,10.80 20.56,8.47 21.74,5.98 22.92,3.49 23.42,1.51 23.92,-0.46 23.87,-1.83 23.82,-3.20 22.55,-2.29 21.28,-1.38 20.74,1.11 20.21,3.60 19.96,6.01 19.71,8.43 20.17,10.90 20.62,13.37 21.42,14.47 22.21,15.58 23.75,15.50 25.28,15.41 27.01,13.75 28.74,12.08 30.07,10.06 31.40,8.04 32.55,5.84 33.69,3.65 34.19,2.13 34.68,0.60 34.73,0.54 34.77,0.47 34.83,0.42 34.89,0.37 34.96,0.33 35.03,0.29 35.11,0.27 35.18,0.26 35.26,0.26 35.34,0.26 35.42,0.27 35.50,0.29 35.57,0.33 35.64,0.37 35.70,0.42 35.76,0.47 35.80,0.54 35.85,0.60 35.88,0.68 35.91,0.75 35.91,0.83 35.92,0.91 35.92,0.99 35.91,1.07 35.88,1.14 35.85,1.22 35.38,1.50 34.91,1.78 34.13,3.41 33.35,5.05 32.39,7.48 31.43,9.92 31.02,12.37 30.60,14.82 30.74,15.44 30.88,16.06 33.39,14.72 35.90,13.37 40.00,9.97 44.09,6.57 45.86,5.11 47.63,3.64 47.72,3.59 47.81,3.53 47.92,3.51 48.03,3.49 48.13,3.50 48.24,3.52 48.34,3.56 48.44,3.61 48.51,3.68 48.59,3.76 48.64,3.86 48.69,3.95 48.71,4.06 48.72,4.17 48.70,4.27 48.69,4.38 48.63,4.48 48.58,4.57 48.50,4.64 48.42,4.72 48.32,4.76 48.23,4.81 48.12,4.82 48.01,4.83 47.90,4.80 47.80,4.78 47.71,4.72 47.61,4.66 47.54,4.58 47.48,4.50 47.44,4.40 47.40,4.30 47.39,4.19 47.39,4.08 47.42,3.97 47.45,3.87 47.51,3.78 47.57,3.69 47.66,3.63 47.75,3.56 47.85,3.53 47.95,3.50 48.06,3.50 48.17,3.50 48.27,3.54 48.37,3.57 48.46,3.64 48.55,3.70 48.61,3.79 48.66,3.88 48.69,3.99 48.72,4.09 48.71,4.20 48.71,4.31 48.66,4.41 48.62,4.51 48.55,4.59 48.48,4.67 48.48,4.67 48.48,4.67 46.72,6.14 44.96,7.61 40.75,11.09 36.54,14.58 33.95,15.91 31.36,17.24 30.31,16.05 29.27,14.85 29.68,12.13 30.08,9.40 31.06,6.88 32.03,4.36 33.35,2.48 34.68,0.60 34.73,0.54 34.77,0.47 34.83,0.42 34.89,0.37 34.96,0.33 35.03,0.29 35.11,0.27 35.18,0.26 35.26,0.26 35.34,0.26 35.42,0.27 35.50,0.29 35.57,0.33 35.64,0.37 35.70,0.42 35.76,0.47 35.80,0.54 35.85,0.60 35.88,0.68 35.91,0.75 35.91,0.83 35.92,0.91 35.92,0.99 35.91,1.07 35.88,1.14 35.85,1.22 35.36,2.74 34.86,4.26 33.69,6.51 32.51,8.77 31.08,10.91 29.65,13.05 27.59,14.85 25.53,16.66 23.56,16.63 21.59,16.61 20.45,15.14 19.32,13.67 18.83,10.99 18.35,8.30 18.60,5.80 18.85,3.30 19.49,0.55 20.13,-2.19 21.18,-3.45 22.23,-4.71 23.44,-4.33 24.65,-3.95 24.92,-2.05 25.20,-0.16 24.65,1.94 24.11,4.05 22.85,6.67 21.58,9.30 19.53,11.76 17.48,14.23 14.94,15.88 12.39,17.52 10.16,17.62 7.92,17.71 6.11,16.08 4.29,14.46 3.53,11.35 2.76,8.25 2.82,4.33 2.89,0.40 3.49,-4.25 4.10,-8.91 5.07,-13.05 6.04,-17.20 7.45,-21.56 8.86,-25.93 9.99,-27.52 11.12,-29.11 12.32,-29.03 13.52,-28.95 14.19,-26.72 14.85,-24.48 14.52,-21.18 14.19,-17.87 12.98,-13.82 11.77,-9.78 9.82,-4.79 7.88,0.19 5.13,5.10 2.38,10.01 -0.47,13.86 -3.33,17.72 -5.99,19.96 -8.65,22.20 -10.37,22.56 -12.09,22.92 -12.12,23.00 -12.15,23.08 -12.19,23.15 -12.24,23.21 -12.29,23.27 -12.35,23.32 -12.43,23.36 -12.50,23.40 -12.58,23.43 -12.66,23.45 -12.74,23.45 -12.82,23.45 -12.90,23.43 -12.98,23.42 -13.05,23.38 -13.12,23.34 -13.19,23.29 -13.25,23.24 -13.30,23.17 -13.35,23.11 -13.38,23.03 -13.41,22.96 -13.42,22.87 -13.43,22.79 -13.42,22.71 -13.42,22.63 -13.93,20.93 -14.45,19.22 -13.84,16.43 -13.23,13.63 -11.80,10.35 -10.37,7.07 -8.81,4.84 -7.25,2.60 -5.93,1.53 -4.60,0.46 -3.27,-0.16 -1.95,-0.79 -0.97,-0.79 0,-0.78 0.09,-0.77 0.18,-0.76 0.27,-0.73 0.36,-0.69 0.44,-0.64 0.52,-0.59 0.58,-0.51 0.65,-0.44 0.69,-0.36 0.73,-0.28 0.76,-0.18 0.78,-0.09 0.78,0.00 0.78,0.09 0.76,0.18 0.73,0.28 0.69,0.36 0.65,0.44 0.58,0.52 0.52,0.59 0.44,0.64 0.36,0.69 0.27,0.73 0.18,0.76 0.09,0.77 -0.00,0.78 -0.00,0.78 L 0,0.78 Z"/></g><g transform="translate(339.66668701171875 48) rotate(0 14 13.666671752929688)" stroke="none"><path fill="#1e1e1e" d="M -0.86,-0.14 Q -0.86,-0.14 -0.64,-1.28 -0.42,-2.43 -0.11,-3.52 0.18,-4.62 0.73,-5.72 1.28,-6.83 2.18,-7.58 3.08,-8.34 4.16,-8.28 5.23,-8.23 5.55,-7.45 5.88,-6.68 5.96,-5.50 6.03,-4.33 5.86,-2.46 5.68,-0.59 5.40,1.33 5.13,3.26 4.98,4.14 4.84,5.02 6.65,3.82 8.46,2.62 10.66,0.39 12.85,-1.83 14.94,-4.12 17.03,-6.41 18.31,-7.77 19.60,-9.13 20.33,-9.90 21.07,-10.66 21.14,-10.72 21.20,-10.77 21.27,-10.81 21.35,-10.84 21.43,-10.86 21.51,-10.88 21.60,-10.88 21.68,-10.88 21.76,-10.85 21.84,-10.83 21.92,-10.79 21.99,-10.75 22.05,-10.69 22.11,-10.64 22.16,-10.57 22.20,-10.49 22.23,-10.42 22.26,-10.34 22.27,-10.25 22.27,-10.17 22.26,-10.09 22.25,-10.00 22.22,-9.93 22.19,-9.85 22.14,-9.78 22.09,-9.71 21.68,-8.72 21.27,-7.72 21.22,-6.89 21.17,-6.06 21.20,-5.29 21.24,-4.52 21.26,-4.17 21.28,-3.82 21.26,-3.66 21.23,-3.51 21.18,-3.37 21.12,-3.23 21.03,-3.10 20.94,-2.98 20.82,-2.88 20.70,-2.78 20.56,-2.71 20.42,-2.64 20.27,-2.61 20.12,-2.58 19.97,-2.58 19.82,-2.58 19.67,-2.62 19.52,-2.66 19.38,-2.74 19.25,-2.81 19.14,-2.92 19.02,-3.02 18.94,-3.15 18.85,-3.28 18.80,-3.43 18.75,-3.57 18.74,-3.73 18.72,-3.88 19.27,-4.71 19.83,-5.54 20.83,-6.45 21.83,-7.37 22.85,-8.31 23.86,-9.24 24.69,-10.01 25.52,-10.78 26.02,-11.15 26.52,-11.52 26.61,-11.59 26.70,-11.66 26.81,-11.71 26.92,-11.76 27.03,-11.78 27.15,-11.80 27.27,-11.80 27.39,-11.79 27.50,-11.76 27.61,-11.72 27.71,-11.66 27.81,-11.60 27.90,-11.52 27.98,-11.43 28.04,-11.33 28.10,-11.23 28.14,-11.12 28.18,-11.01 28.18,-10.89 28.19,-10.77 28.17,-10.65 28.15,-10.54 28.10,-10.43 28.05,-10.32 27.98,-10.23 27.91,-10.14 27.82,-9.41 27.74,-8.68 26.87,-5.90 25.99,-3.12 24.07,0.76 22.14,4.65 18.82,10.70 15.51,16.75 12.56,21.81 9.61,26.87 7.21,30.36 4.81,33.85 4.76,33.92 4.71,33.98 4.64,34.04 4.58,34.09 4.50,34.13 4.42,34.16 4.34,34.18 4.26,34.19 4.18,34.19 4.09,34.19 4.01,34.16 3.93,34.14 3.86,34.10 3.78,34.06 3.72,34.00 3.66,33.94 3.62,33.87 3.57,33.80 3.55,33.72 3.52,33.64 3.51,33.55 3.51,33.47 3.52,33.39 3.54,33.30 3.57,33.23 3.60,33.15 3.65,32.43 3.70,31.71 6.71,27.39 9.71,23.07 13.68,18.59 17.64,14.11 19.32,12.22 21.00,10.33 21.08,10.26 21.17,10.18 21.28,10.14 21.39,10.10 21.50,10.10 21.62,10.09 21.73,10.13 21.84,10.16 21.93,10.23 22.02,10.29 22.09,10.38 22.16,10.48 22.19,10.59 22.23,10.70 22.22,10.81 22.22,10.92 22.18,11.03 22.15,11.14 22.07,11.23 22.00,11.32 21.91,11.38 21.81,11.44 21.70,11.47 21.59,11.50 21.48,11.49 21.36,11.49 21.26,11.44 21.15,11.40 21.06,11.32 20.98,11.25 20.92,11.15 20.86,11.05 20.84,10.93 20.82,10.82 20.83,10.71 20.85,10.60 20.90,10.49 20.95,10.39 21.03,10.31 21.11,10.23 21.21,10.17 21.31,10.12 21.43,10.11 21.54,10.09 21.65,10.11 21.76,10.13 21.86,10.19 21.97,10.24 22.04,10.33 22.12,10.41 22.17,10.52 22.21,10.62 22.22,10.73 22.23,10.85 22.21,10.96 22.18,11.07 22.12,11.17 22.06,11.26 22.06,11.26 22.06,11.26 20.40,13.17 18.73,15.07 14.84,19.50 10.95,23.94 8.09,27.98 5.23,32.03 5.02,32.94 4.81,33.85 4.76,33.92 4.71,33.98 4.64,34.04 4.58,34.09 4.50,34.13 4.42,34.16 4.34,34.18 4.26,34.19 4.18,34.19 4.09,34.19 4.01,34.16 3.93,34.14 3.86,34.10 3.78,34.06 3.72,34.00 3.66,33.94 3.62,33.87 3.57,33.80 3.55,33.72 3.52,33.64 3.51,33.55 3.51,33.47 3.52,33.39 3.54,33.30 3.57,33.23 3.60,33.15 5.99,29.65 8.38,26.16 11.30,21.10 14.22,16.05 17.49,10.01 20.77,3.98 22.61,0.19 24.46,-3.60 25.26,-6.27 26.05,-8.95 26.28,-10.23 26.52,-11.52 26.61,-11.59 26.70,-11.66 26.81,-11.71 26.92,-11.76 27.03,-11.78 27.15,-11.80 27.27,-11.80 27.39,-11.79 27.50,-11.76 27.61,-11.72 27.71,-11.66 27.81,-11.60 27.90,-11.52 27.98,-11.43 28.04,-11.33 28.10,-11.23 28.14,-11.12 28.18,-11.01 28.18,-10.89 28.19,-10.77 28.17,-10.65 28.15,-10.54 28.10,-10.43 28.05,-10.32 27.98,-10.23 27.91,-10.14 27.35,-9.82 26.79,-9.51 26.02,-8.68 25.26,-7.85 24.34,-6.84 23.41,-5.82 22.34,-4.82 21.28,-3.82 21.26,-3.66 21.23,-3.51 21.18,-3.37 21.12,-3.23 21.03,-3.10 20.94,-2.98 20.82,-2.88 20.70,-2.78 20.56,-2.71 20.42,-2.64 20.27,-2.61 20.12,-2.58 19.97,-2.58 19.82,-2.58 19.67,-2.62 19.52,-2.66 19.38,-2.74 19.25,-2.81 19.14,-2.92 19.02,-3.02 18.94,-3.15 18.85,-3.28 18.80,-3.43 18.75,-3.57 18.74,-3.73 18.72,-3.88 18.75,-4.23 18.78,-4.58 18.88,-5.42 18.97,-6.26 19.07,-6.92 19.18,-7.57 19.37,-8.08 19.57,-8.58 19.90,-9.13 20.23,-9.68 20.65,-10.17 21.07,-10.66 21.14,-10.72 21.20,-10.77 21.27,-10.81 21.35,-10.84 21.43,-10.86 21.51,-10.88 21.60,-10.88 21.68,-10.88 21.76,-10.85 21.84,-10.83 21.92,-10.79 21.99,-10.75 22.05,-10.69 22.11,-10.64 22.16,-10.57 22.20,-10.50 22.23,-10.42 22.26,-10.34 22.27,-10.25 22.27,-10.17 22.26,-10.09 22.25,-10.00 22.22,-9.93 22.19,-9.85 22.14,-9.78 22.09,-9.71 21.36,-8.94 20.63,-8.16 19.37,-6.79 18.11,-5.43 16.02,-3.10 13.93,-0.78 11.69,1.53 9.46,3.85 7.65,5.21 5.84,6.57 5.04,6.33 4.24,6.10 3.93,4.58 3.62,3.07 3.86,1.17 4.09,-0.72 4.22,-2.45 4.34,-4.18 4.13,-5.66 3.91,-7.13 3.24,-6.63 2.57,-6.13 2.12,-5.18 1.67,-4.23 1.43,-3.19 1.18,-2.16 1.02,-1.01 0.86,0.14 0.83,0.24 0.80,0.34 0.74,0.43 0.69,0.52 0.62,0.60 0.54,0.67 0.46,0.73 0.37,0.79 0.27,0.82 0.17,0.85 0.06,0.86 -0.03,0.87 -0.14,0.85 -0.24,0.83 -0.34,0.79 -0.43,0.75 -0.52,0.69 -0.60,0.62 -0.67,0.54 -0.74,0.46 -0.78,0.36 -0.82,0.27 -0.85,0.16 -0.87,0.06 -0.86,-0.03 -0.86,-0.14 -0.86,-0.14 L -0.86,-0.14 Z"/></g><g transform="translate(22 116) rotate(0 -3 18.333343505859375)" stroke="none"><path fill="#1e1e1e" d="M 0.16,0.83 Q 0.16,0.83 -0.67,0.92 -1.50,1.01 -1.78,2.96 -2.06,4.91 -2.39,8.11 -2.73,11.30 -3.07,14.97 -3.42,18.63 -3.76,22.68 -4.11,26.73 -4.59,30.84 -5.08,34.94 -5.11,35.05 -5.14,35.16 -5.21,35.26 -5.27,35.35 -5.36,35.42 -5.46,35.49 -5.57,35.53 -5.68,35.56 -5.79,35.56 -5.91,35.56 -6.02,35.52 -6.13,35.49 -6.22,35.42 -6.31,35.35 -6.37,35.25 -6.44,35.15 -6.47,35.04 -6.50,34.93 -6.49,34.81 -6.48,34.70 -6.44,34.59 -6.40,34.48 -6.32,34.40 -6.25,34.31 -6.15,34.25 -6.05,34.19 -5.93,34.17 -5.82,34.14 -5.71,34.16 -5.59,34.17 -5.49,34.22 -5.38,34.27 -5.30,34.35 -5.21,34.43 -5.16,34.53 -5.11,34.63 -5.09,34.75 -5.07,34.86 -5.09,34.98 -5.11,35.09 -5.17,35.19 -5.22,35.29 -5.31,35.37 -5.39,35.45 -5.49,35.50 -5.60,35.55 -5.72,35.56 -5.83,35.57 -5.94,35.54 -6.06,35.52 -6.15,35.46 -6.25,35.40 -6.33,35.31 -6.40,35.22 -6.44,35.11 -6.49,35.01 -6.49,34.89 -6.50,34.78 -6.50,34.78 -6.50,34.78 -6.04,30.69 -5.58,26.61 -5.26,22.56 -4.95,18.50 -4.64,14.82 -4.34,11.15 -4.05,7.89 -3.76,4.63 -3.48,2.78 -3.20,0.92 -2.76,0.34 -2.32,-0.24 -1.24,-0.53 -0.16,-0.83 -0.06,-0.83 0.03,-0.84 0.13,-0.82 0.23,-0.81 0.33,-0.77 0.42,-0.73 0.50,-0.67 0.58,-0.60 0.65,-0.52 0.71,-0.45 0.76,-0.35 0.80,-0.26 0.82,-0.16 0.84,-0.06 0.84,0.03 0.83,0.13 0.80,0.23 0.77,0.33 0.72,0.42 0.67,0.51 0.60,0.58 0.53,0.65 0.44,0.71 0.36,0.76 0.26,0.79 0.16,0.83 0.16,0.83 L 0.16,0.83 Z"/></g><g transform="translate(10 123.33334350585938) rotate(0 15 -4)" stroke="none"><path fill="#1e1e1e" d="M -0.76,-0.15 Q -0.76,-0.15 -0.36,-2.06 0.03,-3.98 1.00,-6.02 1.97,-8.07 3.55,-10.47 5.12,-12.88 6.98,-14.89 8.84,-16.91 11.46,-18.01 14.08,-19.11 17.00,-18.99 19.93,-18.87 21.99,-18.01 24.06,-17.15 25.76,-15.38 27.47,-13.60 28.40,-11.04 29.34,-8.48 29.34,-5.99 29.34,-3.49 28.15,-0.81 26.97,1.85 24.89,4.16 22.81,6.47 20.55,8.05 18.29,9.62 16.55,10.48 14.80,11.35 13.20,11.93 11.60,12.52 11.47,12.54 11.35,12.56 11.22,12.54 11.10,12.51 10.98,12.45 10.87,12.39 10.79,12.30 10.70,12.20 10.65,12.09 10.60,11.97 10.58,11.84 10.57,11.72 10.60,11.59 10.63,11.47 10.70,11.36 10.76,11.25 10.86,11.17 10.96,11.09 11.08,11.05 11.20,11.00 11.33,11.00 11.45,10.99 11.57,11.03 11.70,11.06 11.80,11.13 11.91,11.21 11.98,11.31 12.06,11.41 12.10,11.53 12.14,11.65 12.13,11.78 12.13,11.91 12.09,12.03 12.05,12.15 11.97,12.25 11.89,12.35 11.78,12.42 11.68,12.49 11.55,12.52 11.43,12.55 11.30,12.55 11.18,12.54 11.06,12.49 10.94,12.44 10.85,12.36 10.75,12.27 10.69,12.16 10.62,12.05 10.60,11.93 10.57,11.80 10.59,11.68 10.60,11.55 10.66,11.44 10.71,11.32 10.80,11.23 10.89,11.14 11.00,11.08 11.12,11.02 11.12,11.02 11.12,11.02 12.67,10.59 14.22,10.16 15.88,9.35 17.54,8.53 19.69,7.06 21.84,5.58 23.81,3.43 25.77,1.28 26.90,-1.12 28.03,-3.54 28.05,-5.80 28.08,-8.07 27.28,-10.40 26.47,-12.73 24.99,-14.34 23.50,-15.95 21.66,-16.74 19.83,-17.53 17.19,-17.69 14.54,-17.84 12.18,-16.89 9.81,-15.94 8.06,-14.02 6.30,-12.11 4.79,-9.78 3.27,-7.45 2.38,-5.56 1.49,-3.68 1.13,-1.76 0.76,0.15 0.73,0.24 0.70,0.33 0.65,0.41 0.60,0.49 0.53,0.55 0.47,0.62 0.39,0.66 0.30,0.71 0.21,0.74 0.12,0.77 0.03,0.77 -0.05,0.77 -0.15,0.76 -0.24,0.74 -0.32,0.70 -0.41,0.66 -0.48,0.60 -0.56,0.54 -0.61,0.46 -0.67,0.39 -0.71,0.30 -0.74,0.22 -0.76,0.12 -0.78,0.03 -0.77,-0.05 -0.76,-0.15 -0.76,-0.15 L -0.76,-0.15 Z"/></g><g transform="translate(38 137.33334350585938) rotate(0 2.333343505859375 7.3333282470703125)" stroke="none"><path fill="#1e1e1e" d="M -0.15,0.78 Q -0.15,0.78 -1.10,0.59 -2.06,0.40 -2.91,0.50 -3.75,0.61 -4.60,1.16 -5.45,1.71 -6.17,2.64 -6.89,3.58 -7.38,4.87 -7.87,6.17 -7.90,7.98 -7.92,9.79 -7.20,11.63 -6.49,13.47 -4.93,14.76 -3.36,16.05 -1.66,16.59 0.02,17.14 2.17,16.25 4.31,15.37 6.18,13.89 8.04,12.41 9.57,10.30 11.09,8.19 11.53,6.06 11.97,3.94 11.24,2.19 10.52,0.45 9.15,-0.62 7.78,-1.69 6.36,-1.96 4.94,-2.22 3.62,-1.55 2.29,-0.88 2.17,-0.85 2.05,-0.82 1.92,-0.83 1.79,-0.84 1.68,-0.90 1.56,-0.95 1.47,-1.03 1.37,-1.12 1.31,-1.23 1.25,-1.34 1.23,-1.47 1.21,-1.59 1.22,-1.72 1.24,-1.84 1.30,-1.96 1.36,-2.07 1.45,-2.16 1.54,-2.25 1.66,-2.30 1.77,-2.36 1.90,-2.37 2.02,-2.39 2.15,-2.37 2.27,-2.34 2.38,-2.28 2.49,-2.21 2.58,-2.12 2.66,-2.02 2.71,-1.90 2.76,-1.79 2.77,-1.66 2.77,-1.53 2.74,-1.41 2.71,-1.29 2.64,-1.18 2.57,-1.07 2.47,-0.99 2.37,-0.92 2.25,-0.87 2.13,-0.83 2.00,-0.83 1.88,-0.83 1.76,-0.87 1.63,-0.90 1.53,-0.98 1.43,-1.06 1.36,-1.16 1.28,-1.26 1.25,-1.39 1.21,-1.51 1.22,-1.63 1.22,-1.76 1.27,-1.88 1.31,-2.00 1.39,-2.10 1.47,-2.20 1.58,-2.26 1.69,-2.33 1.69,-2.33 1.69,-2.33 3.38,-2.91 5.07,-3.50 6.81,-3.12 8.55,-2.75 10.12,-1.42 11.70,-0.09 12.47,1.99 13.25,4.09 12.72,6.51 12.18,8.92 10.53,11.18 8.87,13.44 6.84,15.02 4.81,16.60 2.31,17.51 -0.18,18.41 -2.19,17.75 -4.21,17.10 -5.96,15.56 -7.72,14.02 -8.51,11.92 -9.30,9.81 -9.25,7.75 -9.21,5.69 -8.63,4.19 -8.05,2.70 -7.16,1.57 -6.28,0.44 -5.14,-0.24 -4.00,-0.94 -2.88,-1.05 -1.77,-1.16 -0.80,-0.97 0.15,-0.78 0.24,-0.75 0.33,-0.72 0.41,-0.66 0.50,-0.61 0.56,-0.54 0.63,-0.48 0.68,-0.39 0.73,-0.31 0.75,-0.22 0.78,-0.13 0.78,-0.03 0.79,0.06 0.77,0.15 0.75,0.24 0.71,0.33 0.67,0.42 0.61,0.49 0.55,0.57 0.47,0.62 0.40,0.68 0.31,0.72 0.22,0.76 0.12,0.77 0.03,0.79 -0.06,0.78 -0.15,0.78 -0.15,0.78 L -0.15,0.78 Z"/></g><g transform="translate(62 138.6666717529297) rotate(0 5 7.666664123535156)" stroke="none"><path fill="#1e1e1e" d="M 0.47,0.63 Q 0.47,0.63 -0.28,1.21 -1.05,1.79 -1.97,2.40 -2.89,3.02 -3.78,4.16 -4.67,5.30 -5.23,6.51 -5.80,7.72 -6.23,9.36 -6.66,10.99 -6.68,12.33 -6.70,13.67 -5.82,14.50 -4.95,15.34 -3.93,15.70 -2.91,16.06 -1.62,15.66 -0.33,15.26 1.16,14.37 2.66,13.47 3.68,12.71 4.71,11.95 5.52,11.54 6.33,11.13 7.09,11.41 7.86,11.68 8.24,12.54 8.62,13.39 9.02,14.15 9.42,14.92 9.97,15.32 10.52,15.73 11.13,15.55 11.74,15.38 12.52,14.49 13.30,13.60 14.25,12.09 15.21,10.59 15.80,9.04 16.39,7.48 16.64,5.72 16.89,3.95 16.76,1.48 16.63,-0.98 16.62,-1.11 16.60,-1.23 16.63,-1.35 16.65,-1.47 16.72,-1.58 16.78,-1.68 16.87,-1.77 16.97,-1.85 17.08,-1.89 17.20,-1.94 17.32,-1.95 17.45,-1.95 17.56,-1.92 17.68,-1.89 17.79,-1.82 17.89,-1.75 17.97,-1.65 18.04,-1.56 18.08,-1.44 18.12,-1.32 18.12,-1.20 18.12,-1.07 18.09,-0.96 18.05,-0.84 17.97,-0.74 17.90,-0.64 17.80,-0.57 17.69,-0.50 17.57,-0.46 17.45,-0.43 17.33,-0.44 17.21,-0.44 17.09,-0.49 16.98,-0.53 16.88,-0.61 16.79,-0.69 16.72,-0.80 16.66,-0.90 16.63,-1.03 16.60,-1.15 16.61,-1.27 16.63,-1.39 16.68,-1.51 16.73,-1.62 16.81,-1.71 16.90,-1.80 17.01,-1.86 17.12,-1.92 17.24,-1.94 17.36,-1.96 17.49,-1.94 17.61,-1.92 17.72,-1.86 17.83,-1.81 17.91,-1.72 18.00,-1.63 18.05,-1.51 18.10,-1.40 18.10,-1.40 18.10,-1.40 18.22,1.37 18.33,4.15 18.07,6.08 17.80,8.00 17.17,9.71 16.55,11.42 15.53,13.08 14.52,14.74 13.38,15.89 12.24,17.05 11.05,17.16 9.85,17.28 8.86,16.57 7.86,15.85 7.32,14.89 6.79,13.93 6.61,13.22 6.43,12.51 5.97,12.76 5.50,13.01 4.42,13.81 3.33,14.61 1.68,15.58 0.02,16.55 -1.60,16.94 -3.22,17.32 -4.55,16.82 -5.88,16.31 -6.92,15.12 -7.97,13.92 -7.99,12.29 -8.01,10.65 -7.55,8.89 -7.09,7.13 -6.46,5.76 -5.83,4.40 -4.80,3.09 -3.77,1.78 -2.89,1.14 -2.01,0.50 -1.24,-0.06 -0.47,-0.63 -0.39,-0.67 -0.30,-0.72 -0.21,-0.75 -0.12,-0.77 -0.03,-0.78 0.06,-0.78 0.15,-0.76 0.25,-0.74 0.33,-0.70 0.42,-0.66 0.49,-0.60 0.57,-0.54 0.62,-0.47 0.68,-0.39 0.72,-0.30 0.75,-0.21 0.77,-0.12 0.78,-0.03 0.78,0.06 0.77,0.15 0.74,0.24 0.71,0.33 0.66,0.41 0.61,0.50 0.54,0.56 0.47,0.63 0.47,0.63 L 0.47,0.63 Z"/></g><g transform="translate(85.33334350585938 140.6666717529297) rotate(0 -1 9.333335876464844)" stroke="none"><path fill="#1e1e1e" d="M 0.32,0.80 Q 0.32,0.80 -0.60,1.13 -1.53,1.47 -1.99,2.25 -2.45,3.03 -2.87,4.65 -3.28,6.28 -3.47,8.49 -3.66,10.70 -3.56,12.37 -3.46,14.04 -3.06,15.12 -2.66,16.20 -1.80,16.11 -0.94,16.02 0.29,14.93 1.53,13.83 1.64,13.77 1.76,13.71 1.89,13.68 2.02,13.66 2.15,13.68 2.28,13.70 2.40,13.77 2.52,13.83 2.61,13.92 2.70,14.02 2.76,14.14 2.81,14.26 2.83,14.39 2.84,14.52 2.82,14.65 2.79,14.78 2.72,14.90 2.65,15.01 2.55,15.10 2.45,15.18 2.33,15.23 2.20,15.28 2.07,15.29 1.94,15.30 1.81,15.26 1.68,15.23 1.57,15.15 1.46,15.08 1.38,14.97 1.30,14.87 1.26,14.74 1.22,14.62 1.22,14.48 1.22,14.35 1.26,14.23 1.30,14.10 1.38,13.99 1.46,13.89 1.57,13.81 1.68,13.74 1.81,13.70 1.93,13.67 2.07,13.67 2.20,13.68 2.32,13.73 2.45,13.78 2.55,13.86 2.65,13.95 2.72,14.06 2.79,14.18 2.81,14.31 2.84,14.44 2.83,14.57 2.82,14.70 2.76,14.82 2.70,14.94 2.61,15.04 2.52,15.13 2.52,15.13 2.52,15.13 0.88,16.24 -0.76,17.36 -1.96,17.30 -3.17,17.25 -4.01,15.71 -4.86,14.16 -4.98,12.37 -5.10,10.58 -4.91,8.24 -4.72,5.91 -4.25,4.06 -3.77,2.21 -3.03,1.13 -2.29,0.06 -1.30,-0.37 -0.32,-0.80 -0.22,-0.82 -0.11,-0.85 -0.01,-0.85 0.08,-0.85 0.19,-0.83 0.29,-0.81 0.38,-0.76 0.47,-0.71 0.55,-0.65 0.63,-0.58 0.69,-0.49 0.75,-0.41 0.79,-0.31 0.83,-0.22 0.84,-0.11 0.86,-0.01 0.85,0.08 0.84,0.19 0.80,0.28 0.77,0.38 0.71,0.47 0.65,0.56 0.57,0.63 0.50,0.70 0.41,0.75 0.32,0.80 0.32,0.80 L 0.32,0.80 Z"/></g><g transform="translate(91.33334350585938 124.66667175292969) rotate(0 -1.3333282470703125 0.3333282470703125)" stroke="none"><path fill="#1e1e1e" d="M -0.91,0.39 Q -0.91,0.39 -1.44,-0.94 -1.96,-2.29 -2.44,-2.67 -2.93,-3.04 -2.96,-3.16 -3.00,-3.27 -3.00,-3.39 -3.01,-3.51 -2.98,-3.63 -2.96,-3.75 -2.91,-3.86 -2.86,-3.97 -2.78,-4.06 -2.71,-4.15 -2.61,-4.22 -2.52,-4.30 -2.41,-4.34 -2.30,-4.39 -2.18,-4.41 -2.06,-4.43 -1.94,-4.42 -1.82,-4.41 -1.71,-4.37 -1.59,-4.33 -1.49,-4.27 -1.39,-4.21 -1.31,-4.12 -1.22,-4.03 -1.16,-3.93 -1.10,-3.83 -1.11,-2.65 -1.13,-1.46 -0.83,1.27 -0.54,4.01 -0.55,4.16 -0.56,4.31 -0.61,4.44 -0.67,4.58 -0.77,4.69 -0.86,4.80 -0.99,4.88 -1.12,4.95 -1.26,4.98 -1.41,5.02 -1.56,5.00 -1.70,4.98 -1.84,4.92 -1.97,4.85 -2.08,4.75 -2.18,4.65 -2.25,4.52 -2.32,4.39 -2.34,4.24 -2.37,4.09 -2.34,3.95 -2.32,3.80 -2.24,3.67 -2.17,3.54 -2.07,3.44 -1.96,3.34 -1.82,3.28 -1.69,3.22 -1.54,3.20 -1.39,3.19 -1.25,3.22 -1.10,3.25 -0.98,3.33 -0.85,3.41 -0.76,3.52 -0.66,3.64 -0.61,3.77 -0.55,3.91 -0.55,4.06 -0.54,4.21 -0.58,4.35 -0.62,4.49 -0.71,4.61 -0.79,4.74 -0.91,4.83 -1.03,4.91 -1.17,4.96 -1.31,5.01 -1.46,5.00 -1.61,5.00 -1.75,4.95 -1.89,4.91 -2.00,4.81 -2.12,4.72 -2.20,4.60 -2.28,4.48 -2.32,4.33 -2.36,4.19 -2.36,4.19 -2.36,4.19 -2.62,1.37 -2.88,-1.45 -2.91,-2.25 -2.93,-3.04 -2.96,-3.16 -3.00,-3.27 -3.00,-3.39 -3.01,-3.51 -2.98,-3.63 -2.96,-3.75 -2.91,-3.86 -2.86,-3.97 -2.78,-4.06 -2.71,-4.15 -2.61,-4.22 -2.52,-4.30 -2.41,-4.34 -2.30,-4.39 -2.18,-4.41 -2.06,-4.43 -1.94,-4.42 -1.82,-4.41 -1.71,-4.37 -1.59,-4.33 -1.49,-4.27 -1.39,-4.21 -1.31,-4.12 -1.22,-4.03 -1.16,-3.93 -1.10,-3.83 -0.72,-3.45 -0.33,-3.07 0.29,-1.73 0.91,-0.39 0.95,-0.27 0.98,-0.16 0.99,-0.04 0.99,0.07 0.97,0.19 0.94,0.31 0.89,0.42 0.84,0.53 0.77,0.62 0.69,0.71 0.59,0.79 0.50,0.86 0.39,0.91 0.28,0.96 0.16,0.97 0.04,0.99 -0.07,0.98 -0.19,0.98 -0.31,0.94 -0.42,0.90 -0.52,0.84 -0.63,0.77 -0.71,0.68 -0.79,0.60 -0.85,0.49 -0.91,0.39 -0.91,0.39 L -0.91,0.39 Z"/></g><g transform="translate(107.33334350585938 144) rotate(0 0.6666717529296875 12.333343505859375)" stroke="none"><path fill="#1e1e1e" d="M -0.76,0.50 Q -0.76,0.50 -1.16,-0.04 -1.57,-0.59 -2.02,-0.89 -2.47,-1.20 -3.66,-1.33 -4.85,-1.47 -5.64,-1.35 -6.43,-1.22 -7.46,-0.68 -8.49,-0.14 -9.48,0.79 -10.47,1.72 -11.25,3.37 -12.03,5.03 -12.38,6.65 -12.72,8.26 -12.50,9.82 -12.29,11.38 -11.74,12.30 -11.19,13.23 -10.13,13.40 -9.06,13.57 -7.73,13.13 -6.40,12.69 -5.10,11.77 -3.79,10.86 -3.07,9.95 -2.35,9.04 -2.10,8.36 -1.85,7.69 -1.92,7.46 -2.00,7.24 -1.95,7.15 -1.90,7.07 -1.84,7.00 -1.77,6.93 -1.69,6.87 -1.61,6.82 -1.51,6.79 -1.42,6.76 -1.33,6.75 -1.23,6.74 -1.13,6.76 -1.04,6.77 -0.95,6.81 -0.86,6.85 -0.78,6.90 -0.70,6.96 -0.64,7.04 -0.58,7.11 -0.53,7.20 -0.49,7.29 -0.47,7.38 -0.45,7.48 -0.45,7.57 -0.46,7.67 -0.48,7.77 -0.51,7.86 -1.00,8.34 -1.50,8.82 -1.97,9.95 -2.43,11.08 -2.86,12.89 -3.28,14.71 -3.47,16.41 -3.66,18.11 -3.21,19.66 -2.75,21.21 -1.51,22.17 -0.27,23.13 0.92,23.35 2.12,23.58 3.34,23.31 4.55,23.05 5.46,22.75 6.37,22.44 6.97,22.26 7.56,22.08 7.64,21.99 7.72,21.91 7.83,21.90 7.93,21.89 8.03,21.90 8.13,21.92 8.23,21.96 8.32,22.00 8.40,22.06 8.49,22.12 8.55,22.20 8.62,22.28 8.66,22.37 8.71,22.46 8.73,22.56 8.75,22.66 8.75,22.77 8.75,22.87 8.72,22.97 8.69,23.07 8.64,23.16 8.59,23.25 8.52,23.32 8.45,23.40 8.37,23.45 8.28,23.51 8.18,23.54 8.08,23.58 8.43,24.22 8.78,24.86 9.94,25.44 11.10,26.02 12.65,25.35 14.19,24.67 14.35,24.63 14.52,24.60 14.68,24.63 14.84,24.65 14.99,24.72 15.13,24.79 15.25,24.91 15.36,25.03 15.44,25.17 15.51,25.32 15.53,25.48 15.55,25.65 15.52,25.81 15.49,25.97 15.41,26.11 15.33,26.25 15.21,26.36 15.09,26.47 14.93,26.53 14.78,26.60 14.62,26.61 14.46,26.63 14.30,26.59 14.14,26.55 14.00,26.46 13.86,26.37 13.76,26.24 13.66,26.11 13.60,25.96 13.55,25.81 13.54,25.64 13.54,25.48 13.59,25.32 13.64,25.17 13.73,25.03 13.83,24.90 13.96,24.80 14.09,24.71 14.25,24.66 14.41,24.61 14.57,24.62 14.73,24.62 14.89,24.68 15.04,24.74 15.17,24.84 15.30,24.94 15.38,25.08 15.47,25.22 15.51,25.38 15.55,25.54 15.54,25.70 15.52,25.86 15.46,26.01 15.39,26.16 15.28,26.28 15.17,26.41 15.03,26.49 14.89,26.57 14.89,26.57 14.89,26.57 12.87,27.19 10.84,27.82 9.42,27.44 7.99,27.06 7.42,26.18 6.85,25.30 6.77,24.47 6.69,23.63 7.21,22.77 7.72,21.91 7.83,21.90 7.93,21.89 8.03,21.90 8.13,21.92 8.23,21.96 8.32,22.00 8.40,22.06 8.49,22.12 8.55,22.20 8.62,22.28 8.66,22.37 8.71,22.46 8.73,22.56 8.75,22.66 8.75,22.77 8.75,22.87 8.72,22.97 8.69,23.07 8.64,23.16 8.59,23.25 8.52,23.32 8.45,23.40 8.37,23.45 8.28,23.51 8.18,23.54 8.08,23.58 8.04,23.60 8.00,23.63 7.40,23.71 6.80,23.78 5.81,24.08 4.82,24.39 3.35,24.65 1.89,24.92 0.40,24.58 -1.08,24.25 -2.56,22.99 -4.04,21.73 -4.58,19.87 -5.12,18.00 -4.95,16.19 -4.78,14.37 -4.35,12.41 -3.92,10.44 -2.96,8.84 -2.00,7.24 -1.95,7.15 -1.90,7.07 -1.84,7.00 -1.77,6.93 -1.69,6.87 -1.61,6.82 -1.51,6.79 -1.42,6.76 -1.33,6.75 -1.23,6.74 -1.13,6.76 -1.04,6.77 -0.95,6.81 -0.86,6.85 -0.78,6.90 -0.70,6.96 -0.64,7.04 -0.58,7.11 -0.53,7.20 -0.49,7.29 -0.47,7.38 -0.45,7.48 -0.45,7.57 -0.46,7.67 -0.48,7.77 -0.51,7.86 -0.49,7.93 -0.46,8.00 -0.88,8.93 -1.30,9.86 -2.15,10.92 -3.01,11.97 -4.49,12.98 -5.98,13.99 -7.63,14.46 -9.27,14.93 -10.70,14.55 -12.13,14.17 -12.92,12.90 -13.72,11.62 -13.97,9.80 -14.22,7.98 -13.85,6.17 -13.48,4.36 -12.59,2.44 -11.69,0.53 -10.54,-0.61 -9.40,-1.75 -8.10,-2.49 -6.81,-3.24 -5.74,-3.43 -4.67,-3.62 -3.72,-3.53 -2.78,-3.43 -2.00,-3.14 -1.23,-2.84 -0.59,-2.27 0.04,-1.70 0.40,-1.10 0.76,-0.50 0.81,-0.40 0.85,-0.31 0.88,-0.20 0.90,-0.09 0.90,0.01 0.90,0.12 0.87,0.23 0.84,0.33 0.79,0.43 0.74,0.53 0.66,0.61 0.59,0.69 0.50,0.75 0.41,0.81 0.30,0.85 0.20,0.89 0.09,0.90 -0.01,0.91 -0.12,0.89 -0.23,0.88 -0.33,0.84 -0.43,0.80 -0.52,0.73 -0.61,0.67 -0.68,0.59 -0.76,0.50 -0.76,0.50 L -0.76,0.50 Z"/></g><g transform="translate(133.33334350585938 142.6666717529297) rotate(0 2.3333282470703125 7.6666717529296875)" stroke="none"><path fill="#1e1e1e" d="M 0,1.06 Q 0,1.06 -0.90,1.01 -1.80,0.97 -2.36,1.44 -2.93,1.92 -3.62,2.51 -4.32,3.10 -5.21,3.90 -6.10,4.70 -6.62,5.53 -7.14,6.37 -7.56,7.01 -7.97,7.64 -7.74,8.14 -7.51,8.63 -6.56,8.04 -5.61,7.45 -3.99,6.11 -2.38,4.77 -1.09,3.62 0.20,2.47 1.12,1.44 2.03,0.41 3.09,-0.29 4.16,-0.99 5.25,-1.32 6.35,-1.64 7.47,-1.58 8.58,-1.52 9.52,-1.28 10.45,-1.04 11.02,-0.46 11.58,0.12 11.82,1.10 12.05,2.07 11.69,3.20 11.33,4.33 10.11,5.61 8.90,6.88 7.45,8.32 6.00,9.75 4.78,10.76 3.57,11.77 2.70,12.53 1.83,13.28 2.01,13.97 2.19,14.66 3.43,14.95 4.68,15.24 6.86,14.86 9.05,14.47 10.97,13.91 12.90,13.35 13.04,13.34 13.19,13.32 13.33,13.36 13.47,13.39 13.60,13.47 13.72,13.54 13.81,13.66 13.91,13.77 13.96,13.91 14.01,14.04 14.01,14.19 14.02,14.33 13.98,14.47 13.94,14.61 13.86,14.73 13.77,14.85 13.65,14.94 13.54,15.02 13.40,15.07 13.26,15.11 13.11,15.11 12.97,15.11 12.83,15.06 12.69,15.01 12.58,14.92 12.46,14.83 12.38,14.71 12.30,14.59 12.27,14.45 12.23,14.31 12.24,14.16 12.25,14.02 12.31,13.88 12.36,13.75 12.46,13.64 12.55,13.53 12.68,13.45 12.81,13.38 12.95,13.35 13.09,13.32 13.24,13.34 13.38,13.36 13.51,13.42 13.64,13.48 13.75,13.59 13.85,13.69 13.92,13.82 13.98,13.95 14.01,14.09 14.03,14.24 14.00,14.38 13.98,14.52 13.91,14.65 13.84,14.78 13.73,14.88 13.62,14.98 13.49,15.04 13.36,15.09 13.36,15.09 13.36,15.09 11.34,15.57 9.32,16.05 6.81,16.47 4.30,16.89 2.60,16.37 0.90,15.85 0.53,15.04 0.16,14.24 0.47,13.28 0.77,12.32 1.68,11.46 2.58,10.60 3.72,9.61 4.86,8.63 6.26,7.16 7.66,5.70 8.64,4.68 9.61,3.65 9.89,2.97 10.18,2.29 10.00,1.33 9.82,0.38 9.14,0.17 8.47,-0.02 7.59,-0.11 6.72,-0.20 5.84,0.02 4.97,0.25 4.09,0.84 3.21,1.44 2.27,2.56 1.33,3.69 0.05,4.91 -1.21,6.12 -2.94,7.65 -4.66,9.17 -6.16,9.90 -7.66,10.64 -8.61,10.18 -9.56,9.72 -9.77,8.72 -9.97,7.73 -9.69,7.17 -9.40,6.61 -8.96,6.07 -8.51,5.53 -7.90,4.50 -7.29,3.47 -6.42,2.59 -5.54,1.70 -4.80,1.04 -4.06,0.37 -3.04,-0.29 -2.02,-0.97 -1.01,-1.01 0,-1.06 0.12,-1.04 0.25,-1.02 0.37,-0.98 0.49,-0.93 0.59,-0.86 0.70,-0.79 0.78,-0.69 0.87,-0.60 0.93,-0.48 0.99,-0.37 1.02,-0.25 1.05,-0.12 1.05,0.00 1.05,0.12 1.02,0.25 0.99,0.37 0.93,0.48 0.87,0.60 0.78,0.69 0.70,0.79 0.59,0.86 0.49,0.93 0.37,0.98 0.25,1.02 0.12,1.04 -0.00,1.06 -0.00,1.06 L 0,1.06 Z"/></g><g transform="translate(160.66668701171875 142) rotate(0 -0.66668701171875 8.333343505859375)" stroke="none"><path fill="#1e1e1e" d="M -0.15,0.79 Q -0.15,0.79 -1.10,0.60 -2.06,0.41 -2.69,0.54 -3.33,0.68 -4.09,1.21 -4.85,1.74 -5.54,2.66 -6.23,3.58 -6.71,5.24 -7.18,6.90 -7.21,8.90 -7.24,10.90 -6.89,12.27 -6.54,13.64 -5.92,14.50 -5.29,15.37 -4.41,15.51 -3.53,15.66 -2.69,15.23 -1.85,14.80 -1.15,13.55 -0.45,12.31 0.06,11.03 0.57,9.74 0.59,8.51 0.61,7.29 0.72,6.30 0.82,5.32 0.51,5.06 0.19,4.80 0.20,4.71 0.22,4.62 0.25,4.54 0.28,4.46 0.33,4.39 0.39,4.31 0.45,4.25 0.52,4.20 0.60,4.15 0.68,4.11 0.77,4.09 0.86,4.07 0.95,4.07 1.03,4.08 1.12,4.10 1.21,4.12 1.29,4.16 1.37,4.21 1.43,4.27 1.50,4.33 1.55,4.40 1.60,4.48 1.63,4.56 1.66,4.65 1.67,4.73 1.68,4.82 1.59,5.76 1.50,6.70 1.65,8.37 1.79,10.04 2.23,11.67 2.66,13.31 3.15,14.30 3.64,15.29 5.12,15.02 6.60,14.75 6.72,14.73 6.85,14.71 6.98,14.72 7.10,14.74 7.22,14.80 7.33,14.86 7.42,14.95 7.51,15.04 7.57,15.15 7.62,15.27 7.64,15.39 7.66,15.52 7.63,15.65 7.61,15.77 7.55,15.88 7.48,15.99 7.39,16.08 7.29,16.16 7.17,16.21 7.06,16.26 6.93,16.27 6.80,16.28 6.68,16.25 6.55,16.22 6.45,16.15 6.34,16.08 6.26,15.98 6.18,15.88 6.14,15.76 6.09,15.64 6.09,15.51 6.09,15.39 6.12,15.26 6.16,15.14 6.24,15.04 6.31,14.93 6.42,14.86 6.52,14.79 6.64,14.75 6.77,14.71 6.89,14.72 7.02,14.72 7.14,14.76 7.26,14.81 7.36,14.89 7.46,14.97 7.53,15.08 7.60,15.19 7.63,15.31 7.66,15.43 7.65,15.56 7.63,15.69 7.58,15.81 7.53,15.92 7.45,16.02 7.36,16.11 7.25,16.18 7.14,16.24 7.14,16.24 7.14,16.24 4.89,16.17 2.65,16.10 1.99,14.89 1.33,13.67 0.86,11.92 0.39,10.17 0.23,8.38 0.06,6.58 0.12,5.69 0.19,4.80 0.20,4.71 0.22,4.62 0.25,4.54 0.28,4.46 0.33,4.39 0.39,4.31 0.45,4.25 0.52,4.20 0.60,4.15 0.68,4.11 0.77,4.09 0.86,4.07 0.95,4.07 1.03,4.08 1.12,4.10 1.21,4.12 1.29,4.16 1.37,4.21 1.43,4.27 1.50,4.33 1.55,4.40 1.60,4.48 1.63,4.56 1.66,4.65 1.67,4.73 1.68,4.82 1.73,4.77 1.79,4.72 1.86,6.02 1.93,7.32 1.87,8.77 1.82,10.21 1.25,11.61 0.68,13.01 -0.25,14.47 -1.19,15.93 -2.42,16.45 -3.65,16.97 -4.92,16.64 -6.20,16.31 -7.04,15.16 -7.88,14.02 -8.28,12.45 -8.67,10.89 -8.64,8.69 -8.61,6.50 -8.04,4.59 -7.48,2.69 -6.63,1.55 -5.78,0.41 -4.72,-0.29 -3.65,-1.01 -2.71,-1.09 -1.77,-1.17 -0.80,-0.98 0.15,-0.79 0.25,-0.76 0.34,-0.73 0.42,-0.68 0.51,-0.62 0.57,-0.55 0.64,-0.48 0.69,-0.40 0.74,-0.32 0.77,-0.22 0.79,-0.13 0.80,-0.03 0.80,0.06 0.78,0.15 0.76,0.25 0.72,0.34 0.68,0.43 0.62,0.50 0.56,0.58 0.48,0.64 0.40,0.70 0.31,0.73 0.22,0.77 0.13,0.79 0.03,0.80 -0.06,0.80 -0.15,0.79 -0.15,0.79 L -0.15,0.79 Z"/></g><g transform="translate(178.66668701171875 150) rotate(0 9 2)" stroke="none"><path fill="#1e1e1e" d="M -0.46,0.70 Q -0.46,0.70 -1.15,0.20 -1.83,-0.29 -1.96,-1.84 -2.10,-3.38 -1.50,-5.04 -0.90,-6.69 -0.06,-8.51 0.77,-10.32 1.90,-11.63 3.03,-12.93 3.94,-12.58 4.84,-12.24 5.25,-10.60 5.66,-8.96 5.39,-6.13 5.12,-3.29 4.61,-0.19 4.10,2.89 3.89,4.95 3.67,7.00 3.80,7.88 3.94,8.77 3.92,8.86 3.90,8.95 3.86,9.03 3.81,9.11 3.75,9.18 3.69,9.25 3.62,9.31 3.55,9.36 3.46,9.40 3.37,9.43 3.28,9.44 3.19,9.46 3.10,9.45 3.01,9.44 2.92,9.41 2.84,9.38 2.76,9.32 2.68,9.27 2.62,9.21 2.56,9.14 2.51,9.06 2.47,8.98 2.44,8.89 2.42,8.80 2.42,8.71 2.42,8.61 3.14,7.79 3.87,6.97 4.46,5.87 5.05,4.76 5.71,3.32 6.37,1.87 6.80,1.23 7.23,0.59 7.28,0.51 7.33,0.42 7.40,0.35 7.47,0.29 7.55,0.23 7.63,0.18 7.72,0.16 7.82,0.13 7.91,0.12 8.01,0.11 8.11,0.13 8.20,0.15 8.29,0.19 8.38,0.23 8.46,0.29 8.53,0.35 8.59,0.42 8.65,0.50 8.69,0.59 8.73,0.68 8.75,0.77 8.77,0.87 8.76,0.97 8.76,1.06 8.73,1.16 8.70,1.25 9.47,2.14 10.24,3.02 10.75,4.16 11.25,5.30 11.60,6.10 11.94,6.90 12.54,6.69 13.13,6.48 13.27,5.60 13.41,4.73 13.54,3.75 13.67,2.77 13.80,1.73 13.94,0.70 13.66,0.43 13.39,0.15 13.40,0.05 13.42,-0.04 13.46,-0.14 13.50,-0.23 13.56,-0.32 13.63,-0.40 13.71,-0.46 13.79,-0.53 13.88,-0.57 13.98,-0.62 14.08,-0.64 14.18,-0.66 14.28,-0.66 14.39,-0.65 14.49,-0.62 14.59,-0.59 14.68,-0.54 14.76,-0.49 14.84,-0.42 14.91,-0.35 14.97,-0.26 15.03,-0.17 15.06,-0.07 15.09,0.01 15.10,0.12 15.11,0.22 14.98,1.70 14.85,3.18 14.81,5.33 14.77,7.48 15.12,9.87 15.48,12.26 15.60,13.61 15.73,14.96 18.05,14.17 20.37,13.39 20.39,13.48 20.41,13.58 20.40,13.67 20.40,13.77 20.37,13.86 20.35,13.96 20.30,14.04 20.25,14.12 20.18,14.19 20.12,14.26 20.03,14.31 19.95,14.37 19.86,14.40 19.77,14.43 19.67,14.43 19.58,14.44 19.48,14.43 19.39,14.41 19.30,14.37 19.21,14.34 19.13,14.28 19.05,14.22 18.99,14.14 18.93,14.07 18.89,13.98 18.85,13.90 19.09,13.39 19.33,12.89 19.46,12.87 19.58,12.84 19.71,12.86 19.84,12.87 19.96,12.93 20.07,12.99 20.17,13.08 20.26,13.17 20.32,13.29 20.37,13.40 20.39,13.53 20.41,13.66 20.39,13.79 20.36,13.91 20.30,14.03 20.23,14.14 20.14,14.23 20.04,14.31 19.92,14.37 19.80,14.42 19.68,14.43 19.55,14.44 19.42,14.41 19.29,14.38 19.19,14.31 19.08,14.24 18.99,14.14 18.91,14.04 18.87,13.92 18.82,13.80 18.82,13.67 18.81,13.54 18.85,13.41 18.89,13.29 18.96,13.18 19.04,13.08 19.14,13.00 19.25,12.93 19.37,12.89 19.50,12.85 19.63,12.85 19.76,12.85 19.88,12.90 20.00,12.94 20.10,13.02 20.20,13.10 20.27,13.21 20.34,13.32 20.37,13.45 20.41,13.57 20.40,13.70 20.39,13.83 20.34,13.95 20.29,14.07 20.20,14.17 20.11,14.26 20.24,13.83 20.37,13.39 20.39,13.48 20.41,13.58 20.40,13.67 20.40,13.77 20.37,13.86 20.35,13.96 20.30,14.04 20.25,14.12 20.18,14.19 20.12,14.26 20.03,14.31 19.95,14.37 19.86,14.40 19.77,14.43 19.67,14.43 19.58,14.44 19.48,14.43 19.39,14.41 19.30,14.37 19.21,14.34 19.13,14.28 19.05,14.22 18.99,14.14 18.93,14.07 18.89,13.98 18.85,13.90 17.42,15.07 16.00,16.25 15.04,14.36 14.08,12.48 13.70,9.97 13.32,7.46 13.33,5.28 13.35,3.11 13.37,1.63 13.39,0.15 13.40,0.05 13.42,-0.04 13.46,-0.14 13.50,-0.23 13.56,-0.32 13.63,-0.40 13.71,-0.46 13.79,-0.53 13.88,-0.57 13.98,-0.62 14.08,-0.64 14.18,-0.66 14.28,-0.66 14.39,-0.65 14.49,-0.62 14.59,-0.60 14.67,-0.54 14.76,-0.49 14.84,-0.42 14.91,-0.35 14.97,-0.26 15.03,-0.17 15.06,-0.07 15.09,0.01 15.10,0.12 15.11,0.22 15.18,0.21 15.24,0.20 15.28,1.57 15.32,2.95 15.23,4.05 15.13,5.15 14.74,6.45 14.36,7.76 13.38,8.17 12.41,8.57 11.61,8.21 10.81,7.85 10.31,6.91 9.82,5.96 9.26,4.80 8.69,3.64 8.44,2.90 8.19,2.15 7.71,1.37 7.23,0.59 7.28,0.51 7.33,0.42 7.40,0.35 7.47,0.29 7.55,0.23 7.63,0.18 7.72,0.16 7.82,0.13 7.91,0.12 8.01,0.11 8.11,0.13 8.20,0.15 8.29,0.19 8.38,0.23 8.46,0.29 8.53,0.35 8.59,0.42 8.65,0.50 8.69,0.59 8.73,0.68 8.75,0.77 8.77,0.87 8.76,0.97 8.76,1.06 8.73,1.16 8.70,1.25 8.19,1.86 7.68,2.47 7.02,3.96 6.36,5.46 5.66,6.77 4.95,8.08 4.45,8.42 3.94,8.77 3.92,8.86 3.90,8.95 3.86,9.03 3.81,9.11 3.75,9.18 3.69,9.25 3.62,9.31 3.55,9.36 3.46,9.40 3.37,9.43 3.28,9.44 3.19,9.46 3.10,9.45 3.01,9.44 2.92,9.41 2.84,9.38 2.76,9.32 2.68,9.27 2.62,9.21 2.56,9.14 2.51,9.06 2.47,8.98 2.44,8.89 2.42,8.80 2.42,8.71 2.42,8.62 2.34,7.74 2.27,6.86 2.47,4.76 2.68,2.67 3.16,-0.38 3.63,-3.43 3.88,-6.05 4.13,-8.68 3.47,-10.17 2.81,-11.67 2.48,-10.68 2.16,-9.69 1.38,-7.92 0.60,-6.15 0.09,-4.77 -0.40,-3.40 -0.43,-2.31 -0.46,-1.23 0.00,-0.96 0.46,-0.70 0.54,-0.63 0.62,-0.57 0.68,-0.48 0.74,-0.40 0.78,-0.31 0.81,-0.21 0.83,-0.11 0.84,-0.01 0.83,0.08 0.82,0.18 0.79,0.28 0.75,0.38 0.69,0.46 0.64,0.55 0.56,0.62 0.49,0.68 0.40,0.73 0.31,0.78 0.21,0.81 0.11,0.83 0.01,0.84 -0.08,0.84 -0.18,0.81 -0.28,0.79 -0.37,0.75 -0.46,0.70 -0.46,0.70 L -0.46,0.70 Z"/></g><g transform="translate(196 130.6666717529297) rotate(0 -1.666656494140625 6.333335876464844)" stroke="none"><path fill="#1e1e1e" d="M 0.67,0.67 Q 0.67,0.67 -0.29,1.57 -1.25,2.47 -1.59,4.02 -1.93,5.56 -1.55,7.30 -1.16,9.03 -0.61,10.38 -0.06,11.73 -0.03,11.87 -0.00,12.01 -0.02,12.16 -0.04,12.30 -0.11,12.43 -0.17,12.55 -0.27,12.66 -0.38,12.76 -0.50,12.82 -0.63,12.88 -0.77,12.90 -0.92,12.92 -1.06,12.89 -1.20,12.87 -1.32,12.79 -1.45,12.72 -1.54,12.62 -1.64,12.51 -1.69,12.38 -1.75,12.25 -1.76,12.10 -1.77,11.96 -1.74,11.82 -1.70,11.68 -1.62,11.56 -1.55,11.44 -1.43,11.35 -1.32,11.26 -1.19,11.21 -1.05,11.17 -0.91,11.16 -0.77,11.16 -0.63,11.20 -0.49,11.24 -0.38,11.33 -0.26,11.41 -0.18,11.53 -0.10,11.65 -0.05,11.78 -0.01,11.92 -0.02,12.06 -0.02,12.21 -0.07,12.34 -0.12,12.47 -0.21,12.59 -0.30,12.70 -0.42,12.77 -0.54,12.85 -0.68,12.88 -0.82,12.92 -0.96,12.91 -1.11,12.89 -1.24,12.84 -1.37,12.78 -1.47,12.68 -1.58,12.59 -1.65,12.46 -1.72,12.34 -1.72,12.34 -1.72,12.34 -2.20,10.85 -2.68,9.36 -3.10,7.31 -3.52,5.26 -3.05,3.31 -2.57,1.35 -1.62,0.33 -0.67,-0.67 -0.58,-0.75 -0.49,-0.82 -0.39,-0.86 -0.28,-0.91 -0.17,-0.93 -0.05,-0.95 0.05,-0.95 0.17,-0.94 0.28,-0.91 0.39,-0.87 0.49,-0.81 0.59,-0.75 0.67,-0.67 0.75,-0.59 0.81,-0.49 0.87,-0.39 0.91,-0.28 0.94,-0.17 0.95,-0.05 0.95,0.05 0.93,0.17 0.91,0.28 0.86,0.39 0.82,0.49 0.75,0.58 0.67,0.67 0.67,0.67 L 0.67,0.67 Z"/></g><g transform="translate(209.33334350585938 155.33334350585938) rotate(0 -1.666656494140625 4.333343505859375)" stroke="none"><path fill="#1e1e1e" d="M -0.76,0.28 Q -0.76,0.28 -1.32,-1.25 -1.87,-2.79 -2.47,-4.19 -3.08,-5.59 -3.40,-6.23 -3.72,-6.87 -4.47,-5.20 -5.21,-3.53 -5.41,-1.56 -5.62,0.39 -5.52,2.73 -5.43,5.08 -4.84,6.95 -4.26,8.83 -3.65,9.50 -3.05,10.17 -2.40,9.98 -1.75,9.79 -1.30,8.49 -0.86,7.18 -0.62,5.51 -0.39,3.83 -0.47,2.01 -0.55,0.18 -1.09,-1.03 -1.62,-2.26 -2.18,-2.48 -2.73,-2.70 -2.76,-2.79 -2.79,-2.89 -2.79,-2.98 -2.80,-3.08 -2.78,-3.18 -2.76,-3.27 -2.72,-3.36 -2.68,-3.45 -2.62,-3.52 -2.56,-3.60 -2.48,-3.66 -2.41,-3.72 -2.32,-3.76 -2.23,-3.80 -2.13,-3.81 -2.04,-3.83 -1.94,-3.82 -1.84,-3.82 -1.75,-3.79 -1.66,-3.76 -1.58,-3.71 -1.49,-3.66 -1.43,-3.59 -1.36,-3.52 -1.31,-3.44 -1.26,-3.35 -1.49,-1.51 -1.71,0.32 -1.60,2.49 -1.49,4.66 -0.69,7.25 0.09,9.85 1.67,12.77 3.24,15.69 3.27,15.80 3.31,15.90 3.31,16.01 3.31,16.12 3.27,16.23 3.24,16.33 3.17,16.42 3.10,16.51 3.01,16.57 2.92,16.64 2.81,16.67 2.70,16.70 2.59,16.69 2.48,16.68 2.38,16.64 2.28,16.60 2.19,16.53 2.11,16.46 2.05,16.36 1.99,16.27 1.97,16.16 1.94,16.05 1.95,15.94 1.97,15.83 2.01,15.73 2.06,15.63 2.14,15.55 2.21,15.47 2.31,15.41 2.41,15.36 2.52,15.34 2.63,15.32 2.74,15.34 2.85,15.36 2.95,15.41 3.05,15.46 3.12,15.55 3.20,15.63 3.25,15.73 3.29,15.83 3.30,15.94 3.32,16.05 3.29,16.16 3.27,16.27 3.21,16.36 3.15,16.46 3.07,16.53 2.98,16.60 2.88,16.64 2.78,16.68 2.67,16.69 2.56,16.70 2.45,16.67 2.34,16.64 2.25,16.57 2.16,16.51 2.09,16.42 2.02,16.34 2.02,16.34 2.02,16.34 0.42,13.29 -1.17,10.24 -1.99,7.49 -2.82,4.74 -2.93,2.45 -3.05,0.16 -2.89,-1.26 -2.73,-2.70 -2.76,-2.79 -2.79,-2.89 -2.79,-2.98 -2.80,-3.08 -2.78,-3.18 -2.76,-3.27 -2.72,-3.36 -2.68,-3.45 -2.62,-3.52 -2.56,-3.60 -2.48,-3.66 -2.41,-3.72 -2.32,-3.76 -2.23,-3.80 -2.13,-3.81 -2.04,-3.83 -1.94,-3.82 -1.84,-3.82 -1.75,-3.79 -1.66,-3.76 -1.58,-3.71 -1.49,-3.66 -1.43,-3.59 -1.36,-3.52 -1.31,-3.44 -1.26,-3.35 -0.91,-3.17 -0.56,-2.98 0.12,-1.44 0.80,0.09 0.89,2.06 0.98,4.02 0.72,5.87 0.45,7.71 -0.26,9.28 -0.99,10.85 -2.20,11.09 -3.42,11.33 -4.49,10.32 -5.57,9.32 -6.22,7.23 -6.88,5.15 -7.00,2.70 -7.11,0.25 -6.92,-1.85 -6.72,-3.96 -6.12,-5.77 -5.52,-7.57 -4.60,-7.84 -3.68,-8.10 -2.70,-7.16 -1.72,-6.21 -1.07,-4.77 -0.42,-3.33 0.17,-1.81 0.76,-0.28 0.79,-0.19 0.81,-0.09 0.81,0.00 0.81,0.10 0.78,0.19 0.76,0.29 0.71,0.38 0.67,0.46 0.60,0.54 0.54,0.61 0.45,0.67 0.37,0.72 0.28,0.76 0.19,0.79 0.09,0.80 -0.00,0.81 -0.10,0.80 -0.19,0.79 -0.29,0.75 -0.38,0.72 -0.46,0.66 -0.54,0.61 -0.61,0.53 -0.67,0.46 -0.72,0.37 -0.76,0.28 -0.76,0.28 L -0.76,0.28 Z"/></g><g transform="translate(238.66668701171875 155.33334350585938) rotate(0 1 6.6666717529296875)" stroke="none"><path fill="#1e1e1e" d="M 0.78,0.52 Q 0.78,0.52 0.43,1.09 0.08,1.67 -0.04,2.49 -0.17,3.32 -0.46,5.07 -0.76,6.82 -0.53,8.39 -0.29,9.96 0.11,10.66 0.51,11.35 1.85,10.97 3.18,10.58 3.32,10.58 3.46,10.58 3.60,10.62 3.73,10.67 3.84,10.75 3.96,10.84 4.04,10.95 4.12,11.07 4.16,11.21 4.20,11.34 4.19,11.48 4.19,11.62 4.13,11.76 4.08,11.89 3.99,12.00 3.90,12.11 3.78,12.18 3.66,12.25 3.52,12.29 3.38,12.32 3.24,12.30 3.10,12.29 2.97,12.23 2.84,12.17 2.74,12.08 2.64,11.98 2.57,11.86 2.50,11.73 2.48,11.59 2.45,11.45 2.48,11.31 2.50,11.17 2.56,11.05 2.63,10.92 2.73,10.82 2.83,10.72 2.96,10.66 3.09,10.60 3.23,10.59 3.37,10.57 3.51,10.60 3.65,10.63 3.77,10.70 3.89,10.77 3.98,10.88 4.07,10.99 4.13,11.12 4.18,11.25 4.19,11.39 4.20,11.53 4.16,11.67 4.13,11.80 4.05,11.92 3.97,12.04 3.86,12.13 3.75,12.21 3.61,12.26 3.48,12.31 3.48,12.31 3.48,12.31 1.79,12.45 0.10,12.59 -0.86,11.44 -1.84,10.30 -2.15,8.45 -2.46,6.60 -2.23,4.81 -2.01,3.02 -1.81,1.82 -1.61,0.62 -1.19,0.05 -0.78,-0.52 -0.70,-0.60 -0.63,-0.69 -0.54,-0.75 -0.45,-0.82 -0.34,-0.86 -0.23,-0.90 -0.12,-0.92 -0.01,-0.94 0.09,-0.92 0.21,-0.91 0.31,-0.87 0.42,-0.83 0.51,-0.77 0.61,-0.71 0.68,-0.63 0.76,-0.54 0.81,-0.44 0.87,-0.34 0.90,-0.23 0.93,-0.12 0.93,-0.01 0.93,0.09 0.90,0.20 0.88,0.31 0.83,0.42 0.78,0.52 0.78,0.52 L 0.78,0.52 Z"/></g><g transform="translate(243.33334350585938 143.33334350585938) rotate(0 -1 1)" stroke="none"><path fill="#1e1e1e" d="M 0.28,1.15 Q 0.28,1.15 0.43,2.11 0.59,3.07 0.44,3.09 0.29,3.11 0.14,3.09 -0.00,3.08 -0.14,3.02 -0.28,2.97 -0.40,2.89 -0.52,2.80 -0.62,2.69 -0.72,2.58 -0.79,2.45 -0.86,2.31 -0.90,2.17 -0.94,2.02 -0.94,1.87 -0.94,1.73 -0.90,1.58 -0.87,1.43 -0.80,1.30 -0.73,1.17 -0.63,1.06 -0.53,0.95 -0.41,0.86 -0.28,0.77 -0.15,0.72 -0.01,0.67 0.51,0.77 1.03,0.88 1.17,1.02 1.31,1.17 1.39,1.35 1.48,1.53 1.50,1.73 1.52,1.93 1.48,2.13 1.44,2.32 1.34,2.50 1.24,2.67 1.08,2.80 0.93,2.93 0.75,3.01 0.56,3.08 0.36,3.09 0.16,3.10 -0.02,3.05 -0.22,3.00 -0.39,2.89 -0.55,2.78 -0.67,2.62 -0.80,2.46 -0.86,2.27 -0.93,2.08 -0.93,1.88 -0.93,1.68 -0.87,1.49 -0.80,1.30 -0.68,1.14 -0.56,0.98 -0.40,0.86 -0.23,0.75 -0.04,0.69 0.14,0.64 0.34,0.65 0.54,0.66 0.73,0.73 0.92,0.80 1.07,0.93 1.23,1.06 1.33,1.23 1.43,1.40 1.48,1.60 1.52,1.80 1.50,2.00 1.48,2.20 1.40,2.38 1.32,2.56 1.18,2.71 1.04,2.85 0.87,2.95 0.69,3.04 0.49,3.08 0.29,3.11 0.09,3.08 -0.09,3.05 0.24,3.06 0.59,3.07 0.44,3.09 0.29,3.11 0.14,3.09 -0.00,3.08 -0.14,3.02 -0.28,2.97 -0.40,2.89 -0.52,2.80 -0.62,2.69 -0.72,2.58 -0.79,2.45 -0.86,2.31 -0.90,2.17 -0.94,2.02 -0.94,1.88 -0.94,1.73 -0.90,1.58 -0.87,1.43 -0.80,1.30 -0.73,1.17 -0.63,1.06 -0.53,0.95 -0.41,0.86 -0.29,0.77 -0.15,0.72 -0.01,0.67 -0.14,-0.24 -0.28,-1.15 -0.14,-1.17 -0.00,-1.18 0.13,-1.17 0.28,-1.15 0.41,-1.10 0.54,-1.05 0.66,-0.97 0.78,-0.89 0.88,-0.78 0.97,-0.67 1.04,-0.55 1.11,-0.42 1.14,-0.28 1.17,-0.14 1.18,-0.00 1.18,0.13 1.14,0.27 1.11,0.41 1.04,0.54 0.98,0.67 0.88,0.77 0.79,0.88 0.67,0.96 0.55,1.05 0.42,1.10 0.28,1.15 0.28,1.15 L 0.28,1.15 Z"/></g><g transform="translate(288 148.66668701171875) rotate(0 20.000030517578125 -5.0000152587890625)" stroke="none"><path fill="#1e1e1e" d="M -0.81,0.40 Q -0.81,0.40 -1.21,-0.35 -1.60,-1.11 -1.94,-1.77 -2.28,-2.44 -3.15,-2.41 -4.02,-2.38 -4.53,-2.04 -5.05,-1.70 -6.02,-0.53 -7.00,0.63 -7.81,2.41 -8.62,4.19 -8.98,5.86 -9.34,7.53 -9.16,8.85 -8.99,10.17 -8.14,10.82 -7.30,11.46 -6.31,11.22 -5.32,10.98 -4.18,9.82 -3.05,8.66 -1.96,7.23 -0.88,5.81 -0.65,4.54 -0.42,3.27 -0.55,2.66 -0.68,2.05 -0.65,1.96 -0.62,1.86 -0.56,1.78 -0.51,1.70 -0.44,1.63 -0.37,1.57 -0.29,1.52 -0.21,1.47 -0.11,1.44 -0.02,1.41 0.07,1.41 0.16,1.41 0.26,1.43 0.35,1.45 0.44,1.49 0.53,1.53 0.60,1.59 0.68,1.65 0.74,1.73 0.79,1.80 0.83,1.89 0.87,1.98 0.89,2.08 0.90,2.17 0.89,2.27 0.89,2.37 0.15,3.08 -0.58,3.80 -1.15,5.04 -1.71,6.28 -1.96,7.72 -2.22,9.17 -1.96,10.86 -1.70,12.55 -1.09,13.75 -0.47,14.96 0.58,15.41 1.64,15.86 3.12,15.34 4.61,14.82 6.54,12.76 8.47,10.70 10.65,7.34 12.83,3.99 14.52,0.66 16.21,-2.66 17.30,-6.14 18.39,-9.63 18.85,-12.43 19.31,-15.23 19.52,-17.15 19.73,-19.06 19.21,-19.94 18.69,-20.82 18.71,-20.91 18.73,-20.99 18.77,-21.06 18.80,-21.14 18.86,-21.20 18.91,-21.27 18.98,-21.32 19.05,-21.37 19.13,-21.40 19.21,-21.43 19.29,-21.44 19.37,-21.45 19.46,-21.44 19.54,-21.44 19.62,-21.41 19.70,-21.38 19.77,-21.33 19.84,-21.29 19.90,-21.22 19.95,-21.16 19.99,-21.09 20.03,-21.01 20.06,-20.93 20.08,-20.85 20.08,-20.77 20.08,-20.68 19.02,-19.34 17.95,-17.99 17.01,-15.47 16.07,-12.95 14.89,-8.80 13.72,-4.65 13.22,-0.82 12.73,3.00 12.88,5.52 13.04,8.03 13.81,9.11 14.59,10.20 16.03,9.75 17.47,9.30 18.82,8.40 20.17,7.50 21.29,6.20 22.41,4.91 22.89,4.22 23.37,3.53 23.14,3.08 22.91,2.63 22.96,2.55 23.01,2.48 23.08,2.42 23.15,2.36 23.23,2.32 23.31,2.27 23.40,2.25 23.49,2.23 23.58,2.23 23.67,2.23 23.76,2.25 23.85,2.27 23.93,2.32 24.01,2.36 24.08,2.42 24.14,2.48 24.20,2.56 24.25,2.63 24.28,2.72 24.31,2.80 24.32,2.89 24.33,2.98 24.32,3.07 24.31,3.16 24.28,3.25 24.25,3.33 23.77,4.04 23.29,4.74 22.74,6.29 22.20,7.83 21.96,9.41 21.72,10.99 21.79,11.95 21.85,12.91 22.29,13.33 22.73,13.76 23.55,13.59 24.37,13.42 25.25,12.86 26.12,12.30 27.64,10.76 29.16,9.21 30.75,6.86 32.35,4.50 34.18,1.02 36.00,-2.45 37.74,-5.85 39.49,-9.26 41.38,-13.01 43.27,-16.75 45.04,-20.08 46.80,-23.40 47.75,-25.02 48.70,-26.63 49.05,-27.15 49.39,-27.67 49.45,-27.75 49.51,-27.82 49.58,-27.88 49.66,-27.94 49.74,-27.98 49.83,-28.02 49.92,-28.04 50.01,-28.06 50.11,-28.05 50.20,-28.05 50.29,-28.02 50.38,-27.99 50.47,-27.95 50.55,-27.90 50.62,-27.83 50.68,-27.77 50.73,-27.68 50.78,-27.60 50.81,-27.51 50.84,-27.42 50.85,-27.33 50.86,-27.23 50.84,-27.14 50.83,-27.05 50.79,-26.96 50.75,-26.87 50.13,-25.07 49.51,-23.27 48.49,-20.16 47.46,-17.05 45.88,-12.09 44.30,-7.13 43.25,-2.56 42.20,2.01 41.76,6.22 41.31,10.43 41.67,12.53 42.02,14.63 42.74,14.71 43.47,14.80 44.76,11.90 46.06,9.00 46.12,8.90 46.19,8.81 46.28,8.74 46.37,8.67 46.48,8.64 46.59,8.60 46.71,8.60 46.82,8.61 46.93,8.64 47.04,8.68 47.13,8.75 47.22,8.82 47.28,8.92 47.35,9.02 47.38,9.13 47.40,9.24 47.40,9.35 47.39,9.47 47.34,9.57 47.30,9.68 47.22,9.77 47.15,9.85 47.05,9.91 46.95,9.97 46.84,9.99 46.72,10.01 46.61,10.00 46.50,9.99 46.39,9.94 46.29,9.89 46.21,9.81 46.12,9.73 46.07,9.62 46.02,9.52 46.00,9.41 45.99,9.29 46.01,9.18 46.03,9.07 46.08,8.97 46.14,8.87 46.22,8.79 46.31,8.71 46.41,8.66 46.52,8.62 46.63,8.61 46.75,8.60 46.86,8.62 46.97,8.65 47.07,8.71 47.17,8.77 47.24,8.86 47.31,8.95 47.35,9.06 47.39,9.16 47.40,9.28 47.40,9.39 47.37,9.50 47.34,9.61 47.34,9.61 47.34,9.61 45.77,12.65 44.20,15.69 42.90,15.67 41.60,15.65 40.80,12.98 40.01,10.32 40.46,6.01 40.91,1.71 41.98,-2.90 43.04,-7.53 44.63,-12.50 46.21,-17.46 47.23,-20.57 48.25,-23.67 48.82,-25.67 49.39,-27.67 49.45,-27.75 49.51,-27.82 49.58,-27.88 49.66,-27.94 49.74,-27.98 49.83,-28.02 49.92,-28.04 50.01,-28.06 50.11,-28.05 50.20,-28.05 50.29,-28.02 50.38,-27.99 50.47,-27.95 50.55,-27.90 50.62,-27.83 50.68,-27.77 50.73,-27.68 50.78,-27.60 50.81,-27.51 50.84,-27.42 50.85,-27.33 50.86,-27.23 50.84,-27.14 50.83,-27.05 50.79,-26.96 50.75,-26.87 50.30,-26.42 49.84,-25.96 48.91,-24.37 47.98,-22.78 46.22,-19.46 44.47,-16.15 42.58,-12.40 40.69,-8.65 38.95,-5.23 37.21,-1.82 35.35,1.72 33.49,5.27 31.83,7.73 30.16,10.19 28.52,11.86 26.88,13.52 25.73,14.20 24.58,14.88 23.35,14.92 22.12,14.97 21.34,14.09 20.55,13.20 20.44,12.00 20.33,10.79 20.58,9.07 20.83,7.35 21.44,5.63 22.04,3.92 22.48,3.27 22.91,2.63 22.96,2.55 23.01,2.48 23.08,2.42 23.15,2.36 23.23,2.32 23.31,2.27 23.40,2.25 23.49,2.23 23.58,2.23 23.67,2.23 23.76,2.25 23.85,2.27 23.93,2.32 24.01,2.36 24.08,2.42 24.14,2.48 24.20,2.56 24.25,2.63 24.28,2.72 24.31,2.80 24.32,2.89 24.33,2.98 24.32,3.07 24.31,3.16 24.28,3.25 24.25,3.33 24.35,3.32 24.46,3.30 23.93,4.53 23.40,5.76 22.15,7.18 20.89,8.60 19.36,9.58 17.82,10.56 16.09,10.92 14.36,11.28 13.07,9.76 11.78,8.25 11.60,5.54 11.42,2.84 11.94,-1.08 12.45,-5.01 13.65,-9.21 14.84,-13.42 15.88,-16.11 16.92,-18.81 17.81,-19.82 18.69,-20.82 18.71,-20.91 18.73,-20.99 18.76,-21.06 18.80,-21.14 18.86,-21.20 18.91,-21.27 18.98,-21.32 19.05,-21.37 19.13,-21.40 19.21,-21.43 19.29,-21.44 19.37,-21.45 19.46,-21.44 19.54,-21.44 19.62,-21.41 19.70,-21.38 19.77,-21.33 19.84,-21.29 19.90,-21.22 19.95,-21.16 19.99,-21.09 20.03,-21.01 20.06,-20.93 20.08,-20.85 20.08,-20.77 20.08,-20.68 20.54,-19.88 21.00,-19.08 20.81,-17.05 20.62,-15.01 20.13,-12.13 19.65,-9.24 18.52,-5.65 17.39,-2.06 15.67,1.32 13.94,4.72 11.69,8.17 9.44,11.62 7.26,13.84 5.08,16.06 3.20,16.58 1.32,17.11 -0.11,16.42 -1.56,15.73 -2.32,14.25 -3.08,12.78 -3.36,10.86 -3.63,8.94 -3.34,7.30 -3.05,5.66 -2.34,4.17 -1.62,2.67 -1.15,2.36 -0.68,2.05 -0.65,1.96 -0.62,1.86 -0.56,1.78 -0.51,1.70 -0.44,1.63 -0.37,1.57 -0.29,1.52 -0.21,1.47 -0.11,1.44 -0.02,1.41 0.07,1.41 0.16,1.41 0.26,1.43 0.35,1.45 0.44,1.49 0.53,1.53 0.60,1.59 0.68,1.65 0.74,1.73 0.79,1.80 0.83,1.89 0.87,1.98 0.89,2.08 0.90,2.17 0.89,2.27 0.89,2.37 0.90,2.94 0.91,3.52 0.57,5.05 0.23,6.58 -0.91,8.12 -2.07,9.67 -3.50,11.00 -4.94,12.33 -6.38,12.52 -7.82,12.72 -9.09,11.69 -10.36,10.66 -10.64,8.95 -10.93,7.24 -10.57,5.37 -10.22,3.50 -9.35,1.47 -8.48,-0.54 -7.31,-2.02 -6.13,-3.50 -5.20,-3.98 -4.27,-4.46 -3.20,-4.47 -2.13,-4.48 -1.40,-3.97 -0.67,-3.45 -0.29,-2.70 0.07,-1.95 0.44,-1.18 0.81,-0.40 0.85,-0.30 0.89,-0.20 0.90,-0.09 0.91,0.01 0.90,0.12 0.88,0.23 0.84,0.33 0.80,0.44 0.73,0.53 0.67,0.62 0.58,0.69 0.50,0.76 0.40,0.81 0.30,0.86 0.20,0.88 0.09,0.91 -0.01,0.90 -0.12,0.90 -0.23,0.87 -0.34,0.85 -0.43,0.79 -0.53,0.74 -0.61,0.66 -0.69,0.59 -0.75,0.50 -0.81,0.40 -0.81,0.40 L -0.81,0.40 Z"/></g><g transform="translate(326 129.33334350585938) rotate(0 6 7.3333282470703125)" stroke="none"><path fill="#1e1e1e" d="M 0,0.84 Q 0,0.84 -0.86,0.59 -1.72,0.34 -1.95,1.33 -2.18,2.31 -1.01,4.13 0.15,5.95 2.30,7.69 4.46,9.42 7.82,10.92 11.19,12.42 12.65,13.08 14.11,13.74 14.20,13.80 14.30,13.86 14.36,13.95 14.43,14.03 14.47,14.14 14.51,14.24 14.51,14.35 14.51,14.46 14.47,14.57 14.44,14.67 14.37,14.76 14.31,14.85 14.22,14.92 14.13,14.98 14.02,15.01 13.91,15.04 13.80,15.04 13.69,15.03 13.59,14.99 13.49,14.95 13.40,14.88 13.31,14.81 13.26,14.72 13.20,14.62 13.17,14.52 13.15,14.41 13.16,14.30 13.17,14.19 13.21,14.09 13.26,13.98 13.33,13.90 13.41,13.82 13.51,13.77 13.60,13.71 13.71,13.70 13.82,13.68 13.93,13.69 14.04,13.71 14.14,13.76 14.24,13.81 14.32,13.89 14.39,13.97 14.44,14.07 14.49,14.17 14.50,14.28 14.52,14.39 14.49,14.50 14.47,14.61 14.41,14.70 14.36,14.80 14.28,14.87 14.19,14.94 14.09,14.99 13.99,15.03 13.88,15.04 13.77,15.04 13.66,15.01 13.55,14.99 13.55,14.99 13.55,14.99 12.09,14.34 10.62,13.69 7.10,12.11 3.57,10.53 1.24,8.63 -1.07,6.73 -2.34,4.50 -3.60,2.28 -3.24,0.96 -2.87,-0.34 -1.43,-0.59 0,-0.84 0.10,-0.83 0.20,-0.82 0.29,-0.78 0.39,-0.75 0.47,-0.69 0.56,-0.63 0.63,-0.55 0.69,-0.48 0.74,-0.39 0.79,-0.30 0.81,-0.20 0.84,-0.10 0.84,0.00 0.84,0.10 0.81,0.20 0.79,0.30 0.74,0.39 0.69,0.48 0.63,0.55 0.56,0.63 0.47,0.69 0.39,0.75 0.29,0.78 0.20,0.82 0.10,0.83 -0.00,0.84 -0.00,0.84 L 0,0.84 Z"/></g><g transform="translate(354.66668701171875 146.66668701171875) rotate(0 -9 26.333328247070312)" stroke="none"><path fill="#1e1e1e" d="M 0.10,0.83 Q 0.10,0.83 -1.42,1.00 -2.94,1.16 -4.04,1.75 -5.14,2.35 -5.95,3.29 -6.76,4.23 -7.17,5.26 -7.57,6.30 -6.95,6.72 -6.33,7.15 -4.84,6.61 -3.35,6.08 -1.73,5.31 -0.10,4.54 1.26,3.83 2.62,3.11 3.78,3.71 4.93,4.31 4.30,7.35 3.68,10.40 1.65,15.74 -0.37,21.09 -2.76,26.42 -5.16,31.76 -8.12,36.92 -11.07,42.08 -13.70,45.28 -16.34,48.47 -18.57,49.15 -20.80,49.82 -21.70,47.82 -22.61,45.82 -22.25,41.38 -21.89,36.94 -20.37,32.55 -18.84,28.15 -16.65,24.16 -14.45,20.17 -13.53,18.49 -12.60,16.82 -12.54,16.74 -12.47,16.65 -12.38,16.59 -12.29,16.53 -12.19,16.51 -12.09,16.48 -11.98,16.49 -11.87,16.50 -11.78,16.54 -11.68,16.58 -11.60,16.65 -11.52,16.72 -11.46,16.81 -11.41,16.90 -11.39,17.01 -11.37,17.11 -11.38,17.22 -11.39,17.33 -11.44,17.42 -11.49,17.52 -11.56,17.59 -11.64,17.67 -11.73,17.72 -11.83,17.77 -11.93,17.78 -12.04,17.80 -12.14,17.78 -12.25,17.76 -12.34,17.71 -12.43,17.66 -12.51,17.58 -12.58,17.50 -12.62,17.40 -12.67,17.30 -12.68,17.20 -12.69,17.09 -12.66,16.99 -12.64,16.88 -12.58,16.79 -12.52,16.70 -12.44,16.63 -12.36,16.57 -12.26,16.53 -12.16,16.49 -12.05,16.49 -11.94,16.48 -11.84,16.51 -11.74,16.54 -11.65,16.61 -11.56,16.67 -11.50,16.75 -11.44,16.84 -11.41,16.94 -11.37,17.04 -11.38,17.15 -11.38,17.26 -11.41,17.36 -11.45,17.46 -11.45,17.46 -11.45,17.46 -12.37,19.13 -13.29,20.81 -15.44,24.70 -17.59,28.59 -19.08,32.83 -20.57,37.07 -20.97,41.21 -21.38,45.35 -20.48,47.30 -19.58,49.26 -18.46,48.41 -17.34,47.57 -14.80,44.48 -12.26,41.39 -9.36,36.29 -6.45,31.18 -4.08,25.88 -1.71,20.58 0.25,15.33 2.22,10.08 2.56,7.21 2.90,4.34 1.69,5.07 0.49,5.79 -1.22,6.61 -2.94,7.43 -4.81,7.92 -6.67,8.41 -7.64,7.64 -8.61,6.88 -8.25,5.11 -7.89,3.33 -6.89,2.18 -5.89,1.04 -4.53,0.32 -3.18,-0.39 -1.64,-0.61 -0.10,-0.83 -0.00,-0.83 0.09,-0.83 0.19,-0.81 0.29,-0.79 0.38,-0.74 0.47,-0.69 0.55,-0.63 0.63,-0.56 0.68,-0.47 0.74,-0.39 0.78,-0.30 0.82,-0.20 0.83,-0.10 0.84,-0.00 0.83,0.09 0.82,0.19 0.78,0.29 0.74,0.39 0.69,0.47 0.63,0.55 0.55,0.62 0.48,0.69 0.39,0.74 0.30,0.78 0.20,0.81 0.10,0.83 0.10,0.83 L 0.10,0.83 Z"/></g><g transform="translate(372.66668701171875 142) rotate(0 15.66668701171875 14)" stroke="none"><path fill="#1e1e1e" d="M -0.48,0.64 Q -0.48,0.64 -1.24,0.07 -2.00,-0.49 -2.72,-0.66 -3.44,-0.84 -4.34,-0.45 -5.23,-0.06 -5.97,1.51 -6.70,3.10 -7.25,5.47 -7.79,7.85 -7.84,10.93 -7.89,14.00 -7.35,16.41 -6.81,18.81 -5.98,20.08 -5.14,21.35 -3.56,21.32 -1.98,21.28 -0.23,20.19 1.50,19.10 2.82,17.72 4.14,16.33 4.87,15.33 5.60,14.33 5.53,14.06 5.47,13.78 5.53,13.71 5.58,13.65 5.65,13.60 5.72,13.54 5.80,13.51 5.88,13.48 5.97,13.47 6.06,13.45 6.14,13.46 6.23,13.47 6.31,13.50 6.39,13.53 6.46,13.58 6.54,13.62 6.60,13.69 6.65,13.75 6.70,13.83 6.74,13.90 6.76,13.99 6.78,14.07 6.79,14.16 6.79,14.24 6.77,14.33 6.75,14.41 6.71,14.49 6.67,14.57 6.28,15.58 5.88,16.60 5.34,18.94 4.79,21.29 4.56,23.41 4.33,25.52 4.50,26.61 4.68,27.69 5.48,27.96 6.29,28.23 7.93,26.70 9.56,25.16 11.43,22.44 13.29,19.73 14.65,16.87 16.02,14.01 16.99,12.00 17.97,10.00 18.57,9.15 19.17,8.29 19.21,8.23 19.25,8.16 19.31,8.10 19.37,8.05 19.44,8.01 19.51,7.97 19.59,7.95 19.67,7.93 19.75,7.92 19.83,7.92 19.91,7.94 19.98,7.96 20.06,7.99 20.13,8.03 20.19,8.08 20.25,8.13 20.30,8.19 20.35,8.26 20.38,8.33 20.41,8.41 20.42,8.49 20.43,8.57 20.43,8.65 20.42,8.73 20.39,8.80 20.37,8.88 21.53,9.61 22.70,10.34 23.86,10.79 25.01,11.23 26.40,11.24 27.78,11.25 29.09,10.90 30.40,10.55 31.29,10.06 32.17,9.58 31.17,9.32 30.17,9.06 28.54,9.53 26.90,9.99 25.51,11.26 24.11,12.53 22.95,14.73 21.78,16.93 21.09,18.80 20.39,20.66 20.61,22.21 20.84,23.76 21.48,24.16 22.12,24.55 23.65,23.83 25.18,23.10 26.96,21.33 28.74,19.57 29.88,17.88 31.03,16.19 31.69,14.74 32.36,13.28 32.41,12.61 32.46,11.94 32.51,11.86 32.56,11.78 32.63,11.72 32.70,11.65 32.78,11.60 32.86,11.55 32.95,11.53 33.04,11.50 33.14,11.49 33.23,11.49 33.32,11.51 33.42,11.52 33.50,11.56 33.59,11.60 33.66,11.66 33.74,11.72 33.80,11.80 33.85,11.87 33.89,11.96 33.93,12.05 33.95,12.14 33.96,12.23 33.96,12.33 33.95,12.42 33.92,12.51 33.89,12.60 33.39,12.85 32.90,13.10 32.51,14.14 32.13,15.19 31.92,16.74 31.71,18.30 31.96,20.19 32.20,22.09 33.28,22.97 34.36,23.84 36.86,23.30 39.35,22.76 39.48,22.76 39.60,22.76 39.72,22.80 39.84,22.84 39.94,22.91 40.04,22.99 40.11,23.09 40.18,23.20 40.22,23.32 40.25,23.44 40.25,23.57 40.24,23.69 40.19,23.81 40.15,23.93 40.07,24.02 39.98,24.12 39.88,24.18 39.77,24.25 39.65,24.28 39.52,24.30 39.40,24.29 39.27,24.28 39.16,24.22 39.04,24.17 38.95,24.09 38.86,24.00 38.80,23.89 38.74,23.78 38.72,23.65 38.70,23.53 38.72,23.41 38.74,23.28 38.80,23.17 38.86,23.06 38.95,22.97 39.04,22.88 39.15,22.83 39.27,22.78 39.39,22.76 39.52,22.75 39.64,22.78 39.76,22.80 39.87,22.87 39.98,22.93 40.06,23.03 40.14,23.12 40.19,23.24 40.24,23.36 40.24,23.48 40.25,23.61 40.22,23.73 40.19,23.85 40.12,23.95 40.05,24.06 39.95,24.14 39.85,24.21 39.73,24.25 39.61,24.29 39.61,24.29 39.61,24.29 36.74,24.65 33.87,25.01 32.40,23.76 30.94,22.52 30.61,20.32 30.28,18.12 30.52,16.36 30.76,14.60 31.61,13.27 32.46,11.94 32.51,11.86 32.56,11.78 32.63,11.72 32.70,11.65 32.78,11.60 32.86,11.55 32.95,11.53 33.04,11.50 33.14,11.49 33.23,11.49 33.32,11.51 33.42,11.52 33.50,11.56 33.59,11.60 33.66,11.66 33.74,11.72 33.80,11.80 33.85,11.87 33.89,11.96 33.93,12.05 33.95,12.14 33.96,12.23 33.96,12.33 33.95,12.42 33.92,12.51 33.89,12.60 33.73,13.22 33.58,13.83 32.86,15.38 32.14,16.94 30.91,18.73 29.69,20.53 27.71,22.43 25.74,24.34 23.83,25.05 21.93,25.76 20.80,25.03 19.68,24.30 19.36,22.28 19.05,20.26 19.77,18.25 20.50,16.25 21.79,13.83 23.08,11.42 24.75,9.96 26.41,8.50 28.38,7.95 30.35,7.39 31.66,7.64 32.98,7.89 33.32,8.52 33.66,9.15 33.29,9.92 32.92,10.68 31.84,11.28 30.77,11.88 29.27,12.27 27.77,12.66 26.14,12.62 24.51,12.59 23.10,12.01 21.69,11.44 20.92,10.71 20.14,9.98 19.65,9.14 19.17,8.29 19.21,8.23 19.25,8.16 19.31,8.10 19.37,8.05 19.44,8.01 19.51,7.97 19.59,7.95 19.67,7.93 19.75,7.92 19.83,7.92 19.91,7.94 19.98,7.96 20.06,7.99 20.13,8.03 20.19,8.08 20.25,8.13 20.30,8.19 20.35,8.26 20.38,8.33 20.41,8.41 20.42,8.49 20.43,8.57 20.43,8.65 20.42,8.73 20.39,8.80 20.37,8.88 19.76,9.73 19.15,10.58 18.17,12.57 17.20,14.57 15.79,17.52 14.37,20.47 12.40,23.31 10.44,26.14 8.47,27.75 6.51,29.35 5.16,28.90 3.81,28.45 3.42,26.92 3.02,25.40 3.26,23.20 3.51,20.99 4.07,18.57 4.64,16.14 5.06,14.96 5.47,13.78 5.53,13.71 5.58,13.65 5.65,13.60 5.72,13.54 5.80,13.51 5.88,13.48 5.97,13.47 6.06,13.45 6.14,13.46 6.23,13.47 6.31,13.50 6.39,13.53 6.46,13.58 6.54,13.62 6.60,13.69 6.65,13.75 6.70,13.83 6.74,13.90 6.76,13.99 6.78,14.07 6.79,14.16 6.79,14.24 6.77,14.33 6.75,14.41 6.71,14.49 6.67,14.57 6.71,14.53 6.76,14.50 5.93,15.88 5.10,17.25 3.65,18.75 2.20,20.24 0.14,21.42 -1.90,22.60 -3.86,22.49 -5.81,22.37 -6.98,20.76 -8.15,19.15 -8.72,16.57 -9.30,13.99 -9.25,10.76 -9.20,7.53 -8.62,4.98 -8.04,2.43 -7.03,0.55 -6.02,-1.32 -4.62,-1.88 -3.22,-2.43 -2.14,-2.12 -1.06,-1.80 -0.29,-1.22 0.48,-0.64 0.55,-0.57 0.62,-0.50 0.67,-0.42 0.72,-0.34 0.75,-0.25 0.78,-0.16 0.79,-0.06 0.80,0.03 0.78,0.12 0.77,0.22 0.73,0.31 0.69,0.40 0.63,0.47 0.57,0.55 0.50,0.61 0.42,0.67 0.34,0.71 0.25,0.76 0.15,0.78 0.06,0.79 -0.03,0.79 -0.12,0.79 -0.22,0.76 -0.31,0.73 -0.39,0.68 -0.48,0.64 -0.48,0.64 L -0.48,0.64 Z"/></g><g transform="translate(422 151.33334350585938) rotate(0 -9.999969482421875 22.666656494140625)" stroke="none"><path fill="#1e1e1e" d="M -0.44,0.67 Q -0.44,0.67 -0.86,0.34 -1.28,0.01 -2.06,0.41 -2.84,0.81 -3.73,1.65 -4.63,2.50 -5.57,4.32 -6.51,6.14 -6.93,7.96 -7.34,9.77 -6.93,10.53 -6.52,11.29 -5.47,11.26 -4.43,11.22 -3.25,10.88 -2.07,10.54 -0.67,10.03 0.72,9.52 1.57,9.98 2.43,10.44 2.56,12.49 2.68,14.55 1.72,17.94 0.75,21.34 -0.81,25.07 -2.38,28.80 -4.80,32.91 -7.21,37.01 -9.82,39.95 -12.43,42.89 -14.97,43.58 -17.50,44.28 -19.20,42.75 -20.91,41.22 -21.63,37.57 -22.36,33.92 -21.28,29.80 -20.21,25.69 -17.61,21.56 -15.02,17.43 -14.94,17.35 -14.87,17.26 -14.78,17.21 -14.69,17.16 -14.58,17.14 -14.48,17.12 -14.37,17.13 -14.26,17.14 -14.17,17.19 -14.07,17.24 -14.00,17.31 -13.92,17.39 -13.87,17.49 -13.82,17.58 -13.81,17.69 -13.79,17.79 -13.81,17.90 -13.83,18.00 -13.89,18.10 -13.94,18.19 -14.02,18.26 -14.10,18.34 -14.19,18.38 -14.29,18.42 -14.40,18.43 -14.51,18.44 -14.61,18.41 -14.71,18.39 -14.81,18.33 -14.90,18.27 -14.96,18.19 -15.03,18.11 -15.07,18.01 -15.11,17.91 -15.11,17.80 -15.11,17.69 -15.08,17.59 -15.05,17.49 -14.99,17.40 -14.93,17.31 -14.84,17.25 -14.75,17.19 -14.65,17.16 -14.55,17.12 -14.44,17.13 -14.33,17.13 -14.23,17.16 -14.13,17.20 -14.05,17.27 -13.97,17.33 -13.91,17.42 -13.85,17.51 -13.82,17.62 -13.80,17.72 -13.80,17.83 -13.81,17.94 -13.85,18.03 -13.90,18.13 -13.90,18.13 -13.90,18.13 -16.41,22.09 -18.93,26.05 -19.99,29.89 -21.05,33.73 -20.48,37.06 -19.91,40.39 -18.57,41.76 -17.23,43.13 -15.29,42.53 -13.36,41.92 -10.88,39.11 -8.40,36.30 -6.05,32.28 -3.69,28.25 -2.17,24.59 -0.64,20.93 0.26,17.75 1.17,14.57 0.95,12.65 0.73,10.72 -0.48,11.29 -1.70,11.85 -3.08,12.23 -4.47,12.60 -5.83,12.46 -7.20,12.32 -7.96,11.02 -8.72,9.72 -8.28,7.59 -7.85,5.47 -6.78,3.42 -5.72,1.38 -4.61,0.34 -3.50,-0.70 -2.26,-1.12 -1.01,-1.54 -0.28,-1.10 0.44,-0.67 0.52,-0.60 0.59,-0.54 0.65,-0.46 0.70,-0.38 0.74,-0.29 0.77,-0.20 0.79,-0.10 0.80,-0.01 0.79,0.08 0.78,0.18 0.75,0.27 0.71,0.36 0.66,0.44 0.61,0.52 0.53,0.59 0.46,0.65 0.38,0.70 0.29,0.74 0.20,0.77 0.10,0.79 0.01,0.79 -0.08,0.80 -0.17,0.77 -0.27,0.75 -0.36,0.71 -0.44,0.67 -0.44,0.67 L -0.44,0.67 Z"/></g><g transform="translate(429.3333740234375 142) rotate(0 -3 5.000007629394531)" stroke="none"><path fill="#1e1e1e" d="M -0.73,0.59 Q -0.73,0.59 -1.47,-0.38 -2.20,-1.37 -2.67,-1.67 -3.13,-1.97 -3.68,-1.23 -4.24,-0.50 -4.30,1.47 -4.36,3.45 -3.67,5.79 -2.98,8.13 -2.22,10.13 -1.46,12.13 -1.44,12.28 -1.41,12.42 -1.44,12.56 -1.46,12.71 -1.52,12.83 -1.59,12.96 -1.69,13.06 -1.80,13.17 -1.93,13.23 -2.06,13.29 -2.20,13.31 -2.35,13.33 -2.49,13.30 -2.63,13.27 -2.76,13.19 -2.88,13.12 -2.98,13.01 -3.07,12.90 -3.13,12.77 -3.18,12.63 -3.19,12.49 -3.20,12.35 -3.17,12.20 -3.13,12.06 -3.05,11.94 -2.97,11.82 -2.86,11.73 -2.74,11.64 -2.60,11.60 -2.47,11.55 -2.32,11.55 -2.18,11.54 -2.04,11.59 -1.90,11.63 -1.78,11.72 -1.67,11.80 -1.58,11.92 -1.50,12.04 -1.46,12.18 -1.42,12.32 -1.43,12.47 -1.43,12.61 -1.48,12.75 -1.54,12.88 -1.63,12.99 -1.72,13.11 -1.84,13.18 -1.97,13.26 -2.11,13.29 -2.25,13.33 -2.40,13.31 -2.54,13.30 -2.67,13.24 -2.80,13.18 -2.91,13.08 -3.02,12.98 -3.09,12.86 -3.16,12.73 -3.16,12.73 -3.16,12.73 -3.83,10.66 -4.51,8.59 -5.29,6.00 -6.06,3.42 -5.96,1.03 -5.86,-1.34 -5.11,-2.53 -4.35,-3.71 -3.18,-3.60 -2.00,-3.49 -1.43,-2.97 -0.85,-2.46 -0.05,-1.52 0.73,-0.59 0.79,-0.49 0.85,-0.39 0.89,-0.28 0.92,-0.18 0.93,-0.06 0.94,0.04 0.92,0.16 0.90,0.27 0.86,0.37 0.81,0.48 0.74,0.57 0.67,0.66 0.58,0.73 0.49,0.80 0.39,0.85 0.29,0.90 0.17,0.92 0.06,0.94 -0.04,0.93 -0.16,0.93 -0.27,0.90 -0.37,0.86 -0.47,0.80 -0.57,0.75 -0.65,0.67 -0.73,0.59 -0.73,0.59 L -0.73,0.59 Z"/></g><g transform="translate(438.66668701171875 156.66668701171875) rotate(0 4.666656494140625 12.333328247070312)" stroke="none"><path fill="#1e1e1e" d="M -0.49,0.66 Q -0.49,0.66 -1.17,0.11 -1.84,-0.43 -2.38,-0.33 -2.92,-0.23 -3.53,1.20 -4.14,2.65 -4.45,4.55 -4.76,6.46 -4.74,8.16 -4.71,9.86 -4.08,10.61 -3.46,11.36 -2.84,11.33 -2.21,11.30 -1.43,10.26 -0.65,9.22 -0.10,7.70 0.44,6.17 0.49,5.01 0.54,3.85 0.31,3.30 0.09,2.75 0.10,2.65 0.12,2.56 0.16,2.47 0.20,2.38 0.26,2.30 0.32,2.22 0.40,2.16 0.47,2.10 0.56,2.05 0.65,2.01 0.75,1.99 0.85,1.98 0.95,1.98 1.04,1.99 1.14,2.01 1.23,2.04 1.32,2.09 1.40,2.14 1.47,2.21 1.54,2.28 1.60,2.36 1.65,2.45 1.68,2.54 1.71,2.64 1.72,2.74 1.72,2.83 1.40,3.35 1.07,3.86 1.19,5.91 1.31,7.96 2.28,11.13 3.24,14.29 4.76,17.13 6.27,19.98 10.12,22.45 13.97,24.93 14.05,25.01 14.14,25.09 14.19,25.19 14.24,25.29 14.27,25.40 14.29,25.51 14.27,25.62 14.25,25.73 14.20,25.84 14.15,25.94 14.07,26.02 13.99,26.10 13.89,26.14 13.78,26.19 13.67,26.21 13.56,26.22 13.45,26.20 13.34,26.18 13.24,26.12 13.14,26.06 13.06,25.98 12.99,25.89 12.95,25.79 12.90,25.68 12.89,25.57 12.89,25.46 12.91,25.35 12.94,25.24 13.00,25.14 13.07,25.05 13.16,24.98 13.25,24.91 13.35,24.87 13.46,24.83 13.57,24.83 13.69,24.83 13.79,24.86 13.90,24.90 13.99,24.96 14.09,25.03 14.15,25.12 14.22,25.22 14.25,25.33 14.28,25.43 14.28,25.55 14.27,25.66 14.23,25.77 14.19,25.87 14.12,25.96 14.05,26.05 13.95,26.11 13.85,26.17 13.74,26.19 13.63,26.22 13.52,26.21 13.41,26.20 13.30,26.15 13.20,26.11 13.20,26.11 13.20,26.11 9.13,23.41 5.07,20.72 3.44,17.73 1.82,14.73 0.80,11.38 -0.22,8.03 -0.06,5.39 0.09,2.75 0.10,2.65 0.12,2.56 0.16,2.47 0.20,2.38 0.26,2.30 0.32,2.22 0.40,2.16 0.47,2.10 0.56,2.05 0.65,2.01 0.75,1.99 0.85,1.98 0.95,1.98 1.04,1.99 1.14,2.01 1.23,2.04 1.32,2.09 1.40,2.14 1.47,2.21 1.54,2.28 1.60,2.36 1.65,2.45 1.68,2.54 1.71,2.64 1.72,2.73 1.72,2.83 1.83,3.36 1.93,3.89 1.85,5.27 1.78,6.65 1.13,8.39 0.47,10.14 -0.66,11.38 -1.80,12.62 -3.00,12.53 -4.20,12.44 -5.15,11.27 -6.10,10.09 -6.19,8.16 -6.27,6.23 -5.93,4.10 -5.59,1.97 -4.66,0.23 -3.74,-1.51 -2.48,-1.68 -1.22,-1.86 -0.36,-1.26 0.49,-0.66 0.57,-0.59 0.64,-0.52 0.69,-0.44 0.74,-0.35 0.78,-0.26 0.81,-0.16 0.82,-0.06 0.82,0.03 0.81,0.13 0.79,0.23 0.75,0.32 0.71,0.41 0.65,0.49 0.59,0.57 0.52,0.63 0.44,0.70 0.35,0.74 0.26,0.78 0.16,0.80 0.06,0.82 -0.03,0.82 -0.13,0.81 -0.22,0.79 -0.32,0.76 -0.41,0.71 -0.49,0.66 -0.49,0.66 L -0.49,0.66 Z"/></g></svg>