<svg version="1.1" xmlns="http://www.w3.org/2000/svg" viewBox="0 0 208.62828341283455 209.05161926949216" width="208.62828341283455" height="209.05161926949216" filter="invert(93%) hue-rotate(180deg)" class="excalidraw-svg">
  <!-- svg-source:excalidraw -->
  
  <defs>
    <style class="style-fonts">
      @font-face {
        font-family: "Virgil";
        src: url("https://excalidraw.com/Virgil.woff2");
      }
      @font-face {
        font-family: "Cascadia";
        src: url("https://excalidraw.com/Cascadia.woff2");
      }
      @font-face {
        font-family: "Assistant";
        src: url("https://excalidraw.com/Assistant-Regular.woff2");
      }
    </style>
    
  </defs>
  <rect x="0" y="0" width="208.62828341283455" height="209.05161926949216" fill="#ffffff"/><g transform="translate(91.45621403748606 120.41971645946634) rotate(1.0416296923077142 16.944435119628906 20.833358764648438)" stroke="none"><path fill="#1e1e1e" d="M -0.56,0.56 Q -0.56,0.56 -1.35,-0.24 -2.13,-1.05 -2.69,-1.73 -3.25,-2.41 -3.79,-3.38 -4.33,-4.36 -5.04,-6.08 -5.75,-7.79 -6.21,-9.34 -6.67,-10.89 -6.87,-12.72 -7.07,-14.54 -6.83,-17.12 -6.59,-19.69 -5.83,-22.57 -5.08,-25.45 -3.94,-27.67 -2.79,-29.90 -0.98,-31.85 0.83,-33.81 3.28,-34.84 5.74,-35.87 8.60,-35.98 11.47,-36.08 14.00,-35.47 16.54,-34.86 18.93,-33.62 21.32,-32.37 23.64,-30.54 25.95,-28.72 27.61,-26.62 29.26,-24.53 30.46,-22.00 31.66,-19.47 32.17,-16.58 32.69,-13.70 32.75,-11.50 32.80,-9.29 32.17,-6.85 31.54,-4.41 30.79,-2.42 30.03,-0.42 28.39,1.60 26.75,3.64 24.42,5.48 22.09,7.31 19.81,8.58 17.52,9.85 14.78,11.03 12.04,12.21 9.29,13.34 6.53,14.48 4.28,15.74 2.03,17.01 -0.34,18.65 -2.73,20.30 -4.67,22.10 -6.62,23.89 -8.38,26.22 -10.14,28.55 -11.35,31.40 -12.55,34.26 -13.39,36.91 -14.23,39.56 -14.57,42.72 -14.92,45.87 -14.91,49.12 -14.90,52.36 -14.58,54.83 -14.26,57.30 -13.50,59.59 -12.74,61.87 -11.80,63.62 -10.85,65.36 -10.44,66.35 -10.04,67.34 -8.97,66.09 -7.90,64.84 -6.92,63.19 -5.94,61.54 -4.38,59.52 -2.81,57.50 -0.50,55.64 1.81,53.78 3.98,52.97 6.16,52.15 8.79,52.30 11.41,52.44 13.72,53.83 16.03,55.23 17.51,56.98 18.99,58.74 20.41,61.10 21.83,63.45 23.39,66.03 24.94,68.62 26.37,70.48 27.81,72.34 29.64,73.89 31.48,75.44 33.24,75.91 35.00,76.37 37.23,75.34 39.46,74.31 41.81,71.08 44.16,67.85 45.65,64.58 47.14,61.31 47.79,59.89 48.44,58.48 48.50,58.39 48.56,58.30 48.64,58.24 48.73,58.17 48.83,58.14 48.93,58.11 49.03,58.10 49.14,58.10 49.24,58.14 49.34,58.17 49.43,58.24 49.51,58.30 49.57,58.39 49.63,58.48 49.66,58.58 49.69,58.68 49.68,58.79 49.68,58.89 49.64,58.99 49.60,59.09 49.53,59.17 49.46,59.25 49.37,59.31 49.28,59.36 49.18,59.39 49.07,59.41 48.97,59.40 48.86,59.39 48.77,59.34 48.67,59.30 48.59,59.23 48.51,59.15 48.46,59.06 48.41,58.97 48.40,58.86 48.38,58.76 48.40,58.65 48.41,58.55 48.46,58.45 48.51,58.36 48.59,58.28 48.67,58.21 48.76,58.17 48.86,58.12 48.96,58.11 49.07,58.10 49.17,58.12 49.28,58.14 49.37,58.20 49.46,58.25 49.53,58.33 49.60,58.41 49.64,58.51 49.68,58.61 49.68,58.72 49.69,58.82 49.66,58.92 49.63,59.03 49.63,59.03 49.63,59.03 48.98,60.44 48.34,61.86 46.78,65.24 45.22,68.63 42.64,72.05 40.06,75.46 37.45,76.55 34.85,77.63 32.76,77.05 30.68,76.47 28.72,74.81 26.76,73.15 25.28,71.23 23.80,69.30 22.25,66.72 20.70,64.14 19.33,61.86 17.97,59.59 16.64,57.97 15.31,56.35 13.28,55.05 11.25,53.76 8.92,53.60 6.59,53.43 4.62,54.15 2.65,54.87 0.46,56.61 -1.71,58.36 -3.21,60.31 -4.70,62.26 -5.67,63.94 -6.64,65.61 -7.58,67.01 -8.53,68.40 -9.53,68.37 -10.53,68.34 -11.27,67.16 -12.00,65.99 -13.00,64.14 -13.99,62.29 -14.78,59.88 -15.57,57.48 -15.89,54.92 -16.22,52.37 -16.22,49.04 -16.23,45.72 -15.85,42.45 -15.48,39.17 -14.62,36.46 -13.76,33.75 -12.48,30.75 -11.19,27.76 -9.35,25.34 -7.51,22.93 -5.49,21.07 -3.47,19.22 -1.04,17.54 1.39,15.86 3.71,14.56 6.03,13.27 8.78,12.13 11.52,11.00 14.20,9.85 16.88,8.70 19.09,7.49 21.29,6.28 23.51,4.54 25.73,2.81 27.27,0.94 28.82,-0.91 29.54,-2.83 30.27,-4.75 30.88,-7.01 31.49,-9.28 31.44,-11.37 31.40,-13.47 30.93,-16.20 30.46,-18.92 29.34,-21.32 28.22,-23.72 26.67,-25.70 25.13,-27.69 22.92,-29.45 20.70,-31.21 18.46,-32.39 16.21,-33.58 13.86,-34.17 11.50,-34.76 8.86,-34.69 6.22,-34.63 3.99,-33.74 1.76,-32.86 0.08,-31.07 -1.60,-29.27 -2.68,-27.18 -3.76,-25.09 -4.49,-22.33 -5.21,-19.56 -5.44,-17.13 -5.67,-14.69 -5.48,-13.00 -5.29,-11.31 -4.83,-9.84 -4.37,-8.38 -3.68,-6.76 -2.98,-5.14 -2.45,-4.27 -1.93,-3.41 -1.49,-2.77 -1.05,-2.13 -0.24,-1.35 0.56,-0.56 0.62,-0.49 0.68,-0.41 0.72,-0.32 0.76,-0.23 0.78,-0.14 0.79,-0.04 0.79,0.04 0.78,0.14 0.75,0.23 0.73,0.32 0.68,0.41 0.63,0.49 0.56,0.56 0.49,0.63 0.41,0.68 0.32,0.73 0.23,0.75 0.14,0.78 0.04,0.79 -0.04,0.79 -0.14,0.78 -0.23,0.76 -0.32,0.72 -0.41,0.68 -0.49,0.62 -0.56,0.56 -0.56,0.56 L -0.56,0.56 Z"/></g><g transform="translate(117.21880163544299 104.83386787505425) rotate(314.2880857742695 16.944435119628906 20.833358764648445)" stroke="none"><path fill="#1e1e1e" d="M -0.56,0.56 Q -0.56,0.56 -1.35,-0.24 -2.13,-1.05 -2.69,-1.73 -3.25,-2.41 -3.79,-3.38 -4.33,-4.36 -5.04,-6.08 -5.75,-7.79 -6.21,-9.34 -6.67,-10.89 -6.87,-12.72 -7.07,-14.54 -6.83,-17.12 -6.59,-19.69 -5.83,-22.57 -5.08,-25.45 -3.94,-27.67 -2.79,-29.90 -0.98,-31.85 0.83,-33.81 3.28,-34.84 5.74,-35.87 8.60,-35.98 11.47,-36.08 14.00,-35.47 16.54,-34.86 18.93,-33.62 21.32,-32.37 23.64,-30.54 25.95,-28.72 27.61,-26.62 29.26,-24.53 30.46,-22.00 31.66,-19.47 32.17,-16.58 32.69,-13.70 32.75,-11.50 32.80,-9.29 32.17,-6.85 31.54,-4.41 30.79,-2.42 30.03,-0.42 28.39,1.60 26.75,3.64 24.42,5.48 22.09,7.31 19.81,8.58 17.52,9.85 14.78,11.03 12.04,12.21 9.29,13.34 6.53,14.48 4.28,15.74 2.03,17.01 -0.34,18.65 -2.73,20.30 -4.67,22.10 -6.62,23.89 -8.38,26.22 -10.14,28.55 -11.35,31.40 -12.55,34.26 -13.39,36.91 -14.23,39.56 -14.57,42.72 -14.92,45.87 -14.91,49.12 -14.90,52.36 -14.58,54.83 -14.26,57.30 -13.50,59.59 -12.74,61.87 -11.80,63.62 -10.85,65.36 -10.44,66.35 -10.04,67.34 -8.97,66.09 -7.90,64.84 -6.92,63.19 -5.94,61.54 -4.38,59.52 -2.81,57.50 -0.50,55.64 1.81,53.78 3.98,52.97 6.16,52.15 8.79,52.30 11.41,52.44 13.72,53.83 16.03,55.23 17.51,56.98 18.99,58.74 20.41,61.10 21.83,63.45 23.39,66.03 24.94,68.62 26.37,70.48 27.81,72.34 29.64,73.89 31.48,75.44 33.24,75.91 35.00,76.37 37.23,75.34 39.46,74.31 41.81,71.08 44.16,67.85 45.65,64.58 47.14,61.31 47.79,59.89 48.44,58.48 48.50,58.39 48.56,58.30 48.64,58.24 48.73,58.17 48.83,58.14 48.93,58.11 49.03,58.10 49.14,58.10 49.24,58.14 49.34,58.17 49.43,58.24 49.51,58.30 49.57,58.39 49.63,58.48 49.66,58.58 49.69,58.68 49.68,58.79 49.68,58.89 49.64,58.99 49.60,59.09 49.53,59.17 49.46,59.25 49.37,59.31 49.28,59.36 49.18,59.39 49.07,59.41 48.97,59.40 48.86,59.39 48.77,59.34 48.67,59.30 48.59,59.23 48.51,59.15 48.46,59.06 48.41,58.97 48.40,58.86 48.38,58.76 48.40,58.65 48.41,58.55 48.46,58.45 48.51,58.36 48.59,58.28 48.67,58.21 48.76,58.17 48.86,58.12 48.96,58.11 49.07,58.10 49.17,58.12 49.28,58.14 49.37,58.20 49.46,58.25 49.53,58.33 49.60,58.41 49.64,58.51 49.68,58.61 49.68,58.72 49.69,58.82 49.66,58.92 49.63,59.03 49.63,59.03 49.63,59.03 48.98,60.44 48.34,61.86 46.78,65.24 45.22,68.63 42.64,72.05 40.06,75.46 37.45,76.55 34.85,77.63 32.76,77.05 30.68,76.47 28.72,74.81 26.76,73.15 25.28,71.23 23.80,69.30 22.25,66.72 20.70,64.14 19.33,61.86 17.97,59.59 16.64,57.97 15.31,56.35 13.28,55.05 11.25,53.76 8.92,53.60 6.59,53.43 4.62,54.15 2.65,54.87 0.46,56.61 -1.71,58.36 -3.21,60.31 -4.70,62.26 -5.67,63.94 -6.64,65.61 -7.58,67.01 -8.53,68.40 -9.53,68.37 -10.53,68.34 -11.27,67.16 -12.00,65.99 -13.00,64.14 -13.99,62.29 -14.78,59.88 -15.57,57.48 -15.89,54.92 -16.22,52.37 -16.22,49.04 -16.23,45.72 -15.85,42.45 -15.48,39.17 -14.62,36.46 -13.76,33.75 -12.48,30.75 -11.19,27.76 -9.35,25.34 -7.51,22.93 -5.49,21.07 -3.47,19.22 -1.04,17.54 1.39,15.86 3.71,14.56 6.03,13.27 8.78,12.13 11.52,11.00 14.20,9.85 16.88,8.70 19.09,7.49 21.29,6.28 23.51,4.54 25.73,2.81 27.27,0.94 28.82,-0.91 29.54,-2.83 30.27,-4.75 30.88,-7.01 31.49,-9.28 31.44,-11.37 31.40,-13.47 30.93,-16.20 30.46,-18.92 29.34,-21.32 28.22,-23.72 26.67,-25.70 25.13,-27.69 22.92,-29.45 20.70,-31.21 18.46,-32.39 16.21,-33.58 13.86,-34.17 11.50,-34.76 8.86,-34.69 6.22,-34.63 3.99,-33.74 1.76,-32.86 0.08,-31.07 -1.60,-29.27 -2.68,-27.18 -3.76,-25.09 -4.49,-22.33 -5.21,-19.56 -5.44,-17.13 -5.67,-14.69 -5.48,-13.00 -5.29,-11.31 -4.83,-9.84 -4.37,-8.38 -3.68,-6.76 -2.98,-5.14 -2.45,-4.27 -1.93,-3.41 -1.49,-2.77 -1.05,-2.13 -0.24,-1.35 0.56,-0.56 0.62,-0.49 0.68,-0.41 0.72,-0.32 0.76,-0.23 0.78,-0.14 0.79,-0.04 0.79,0.04 0.78,0.14 0.75,0.23 0.73,0.32 0.68,0.41 0.63,0.49 0.56,0.56 0.49,0.63 0.41,0.68 0.32,0.73 0.23,0.75 0.14,0.78 0.04,0.79 -0.04,0.79 -0.14,0.78 -0.23,0.76 -0.32,0.72 -0.41,0.68 -0.49,0.62 -0.56,0.56 -0.56,0.56 L -0.56,0.56 Z"/></g><g transform="translate(123.66233663744508 77.70010699292192) rotate(271.8669191728987 16.944435119628906 20.833358764648438)" stroke="none"><path fill="#1e1e1e" d="M -0.56,0.56 Q -0.56,0.56 -1.35,-0.24 -2.13,-1.05 -2.69,-1.73 -3.25,-2.41 -3.79,-3.38 -4.33,-4.36 -5.04,-6.08 -5.75,-7.79 -6.21,-9.34 -6.67,-10.89 -6.87,-12.72 -7.07,-14.54 -6.83,-17.12 -6.59,-19.69 -5.83,-22.57 -5.08,-25.45 -3.94,-27.67 -2.79,-29.90 -0.98,-31.85 0.83,-33.81 3.28,-34.84 5.74,-35.87 8.60,-35.98 11.47,-36.08 14.00,-35.47 16.54,-34.86 18.93,-33.62 21.32,-32.37 23.64,-30.54 25.95,-28.72 27.61,-26.62 29.26,-24.53 30.46,-22.00 31.66,-19.47 32.17,-16.58 32.69,-13.70 32.75,-11.50 32.80,-9.29 32.17,-6.85 31.54,-4.41 30.79,-2.42 30.03,-0.42 28.39,1.60 26.75,3.64 24.42,5.48 22.09,7.31 19.81,8.58 17.52,9.85 14.78,11.03 12.04,12.21 9.29,13.34 6.53,14.48 4.28,15.74 2.03,17.01 -0.34,18.65 -2.73,20.30 -4.67,22.10 -6.62,23.89 -8.38,26.22 -10.14,28.55 -11.35,31.40 -12.55,34.26 -13.39,36.91 -14.23,39.56 -14.57,42.72 -14.92,45.87 -14.91,49.12 -14.90,52.36 -14.58,54.83 -14.26,57.30 -13.50,59.59 -12.74,61.87 -11.80,63.62 -10.85,65.36 -10.44,66.35 -10.04,67.34 -8.97,66.09 -7.90,64.84 -6.92,63.19 -5.94,61.54 -4.38,59.52 -2.81,57.50 -0.50,55.64 1.81,53.78 3.98,52.97 6.16,52.15 8.79,52.30 11.41,52.44 13.72,53.83 16.03,55.23 17.51,56.98 18.99,58.74 20.41,61.10 21.83,63.45 23.39,66.03 24.94,68.62 26.37,70.48 27.81,72.34 29.64,73.89 31.48,75.44 33.24,75.91 35.00,76.37 37.23,75.34 39.46,74.31 41.81,71.08 44.16,67.85 45.65,64.58 47.14,61.31 47.79,59.89 48.44,58.48 48.50,58.39 48.56,58.30 48.64,58.24 48.73,58.17 48.83,58.14 48.93,58.11 49.03,58.10 49.14,58.10 49.24,58.14 49.34,58.17 49.43,58.24 49.51,58.30 49.57,58.39 49.63,58.48 49.66,58.58 49.69,58.68 49.68,58.79 49.68,58.89 49.64,58.99 49.60,59.09 49.53,59.17 49.46,59.25 49.37,59.31 49.28,59.36 49.18,59.39 49.07,59.41 48.97,59.40 48.86,59.39 48.77,59.34 48.67,59.30 48.59,59.23 48.51,59.15 48.46,59.06 48.41,58.97 48.40,58.86 48.38,58.76 48.40,58.65 48.41,58.55 48.46,58.45 48.51,58.36 48.59,58.28 48.67,58.21 48.76,58.17 48.86,58.12 48.96,58.11 49.07,58.10 49.17,58.12 49.28,58.14 49.37,58.20 49.46,58.25 49.53,58.33 49.60,58.41 49.64,58.51 49.68,58.61 49.68,58.72 49.69,58.82 49.66,58.92 49.63,59.03 49.63,59.03 49.63,59.03 48.98,60.44 48.34,61.86 46.78,65.24 45.22,68.63 42.64,72.05 40.06,75.46 37.45,76.55 34.85,77.63 32.76,77.05 30.68,76.47 28.72,74.81 26.76,73.15 25.28,71.23 23.80,69.30 22.25,66.72 20.70,64.14 19.33,61.86 17.97,59.59 16.64,57.97 15.31,56.35 13.28,55.05 11.25,53.76 8.92,53.60 6.59,53.43 4.62,54.15 2.65,54.87 0.46,56.61 -1.71,58.36 -3.21,60.31 -4.70,62.26 -5.67,63.94 -6.64,65.61 -7.58,67.01 -8.53,68.40 -9.53,68.37 -10.53,68.34 -11.27,67.16 -12.00,65.99 -13.00,64.14 -13.99,62.29 -14.78,59.88 -15.57,57.48 -15.89,54.92 -16.22,52.37 -16.22,49.04 -16.23,45.72 -15.85,42.45 -15.48,39.17 -14.62,36.46 -13.76,33.75 -12.48,30.75 -11.19,27.76 -9.35,25.34 -7.51,22.93 -5.49,21.07 -3.47,19.22 -1.04,17.54 1.39,15.86 3.71,14.56 6.03,13.27 8.78,12.13 11.52,11.00 14.20,9.85 16.88,8.70 19.09,7.49 21.29,6.28 23.51,4.54 25.73,2.81 27.27,0.94 28.82,-0.91 29.54,-2.83 30.27,-4.75 30.88,-7.01 31.49,-9.28 31.44,-11.37 31.40,-13.47 30.93,-16.20 30.46,-18.92 29.34,-21.32 28.22,-23.72 26.67,-25.70 25.13,-27.69 22.92,-29.45 20.70,-31.21 18.46,-32.39 16.21,-33.58 13.86,-34.17 11.50,-34.76 8.86,-34.69 6.22,-34.63 3.99,-33.74 1.76,-32.86 0.08,-31.07 -1.60,-29.27 -2.68,-27.18 -3.76,-25.09 -4.49,-22.33 -5.21,-19.56 -5.44,-17.13 -5.67,-14.69 -5.48,-13.00 -5.29,-11.31 -4.83,-9.84 -4.37,-8.38 -3.68,-6.76 -2.98,-5.14 -2.45,-4.27 -1.93,-3.41 -1.49,-2.77 -1.05,-2.13 -0.24,-1.35 0.56,-0.56 0.62,-0.49 0.68,-0.41 0.72,-0.32 0.76,-0.23 0.78,-0.14 0.79,-0.04 0.79,0.04 0.78,0.14 0.75,0.23 0.73,0.32 0.68,0.41 0.63,0.49 0.56,0.56 0.49,0.63 0.41,0.68 0.32,0.73 0.23,0.75 0.14,0.78 0.04,0.79 -0.04,0.79 -0.14,0.78 -0.23,0.76 -0.32,0.72 -0.41,0.68 -0.49,0.62 -0.56,0.56 -0.56,0.56 L -0.56,0.56 Z"/></g><g transform="translate(109.00471882239728 52.826815315050254) rotate(228.5478830750809 16.944435119628906 20.833358764648438)" stroke="none"><path fill="#1e1e1e" d="M -0.56,0.56 Q -0.56,0.56 -1.35,-0.24 -2.13,-1.05 -2.69,-1.73 -3.25,-2.41 -3.79,-3.38 -4.33,-4.36 -5.04,-6.08 -5.75,-7.79 -6.21,-9.34 -6.67,-10.89 -6.87,-12.72 -7.07,-14.54 -6.83,-17.12 -6.59,-19.69 -5.83,-22.57 -5.08,-25.45 -3.94,-27.67 -2.79,-29.90 -0.98,-31.85 0.83,-33.81 3.28,-34.84 5.74,-35.87 8.60,-35.98 11.47,-36.08 14.00,-35.47 16.54,-34.86 18.93,-33.62 21.32,-32.37 23.64,-30.54 25.95,-28.72 27.61,-26.62 29.26,-24.53 30.46,-22.00 31.66,-19.47 32.17,-16.58 32.69,-13.70 32.75,-11.50 32.80,-9.29 32.17,-6.85 31.54,-4.41 30.79,-2.42 30.03,-0.42 28.39,1.60 26.75,3.64 24.42,5.48 22.09,7.31 19.81,8.58 17.52,9.85 14.78,11.03 12.04,12.21 9.29,13.34 6.53,14.48 4.28,15.74 2.03,17.01 -0.34,18.65 -2.73,20.30 -4.67,22.10 -6.62,23.89 -8.38,26.22 -10.14,28.55 -11.35,31.40 -12.55,34.26 -13.39,36.91 -14.23,39.56 -14.57,42.72 -14.92,45.87 -14.91,49.12 -14.90,52.36 -14.58,54.83 -14.26,57.30 -13.50,59.59 -12.74,61.87 -11.80,63.62 -10.85,65.36 -10.44,66.35 -10.04,67.34 -8.97,66.09 -7.90,64.84 -6.92,63.19 -5.94,61.54 -4.38,59.52 -2.81,57.50 -0.50,55.64 1.81,53.78 3.98,52.97 6.16,52.15 8.79,52.30 11.41,52.44 13.72,53.83 16.03,55.23 17.51,56.98 18.99,58.74 20.41,61.10 21.83,63.45 23.39,66.03 24.94,68.62 26.37,70.48 27.81,72.34 29.64,73.89 31.48,75.44 33.24,75.91 35.00,76.37 37.23,75.34 39.46,74.31 41.81,71.08 44.16,67.85 45.65,64.58 47.14,61.31 47.79,59.89 48.44,58.48 48.50,58.39 48.56,58.30 48.64,58.24 48.73,58.17 48.83,58.14 48.93,58.11 49.03,58.10 49.14,58.10 49.24,58.14 49.34,58.17 49.43,58.24 49.51,58.30 49.57,58.39 49.63,58.48 49.66,58.58 49.69,58.68 49.68,58.79 49.68,58.89 49.64,58.99 49.60,59.09 49.53,59.17 49.46,59.25 49.37,59.31 49.28,59.36 49.18,59.39 49.07,59.41 48.97,59.40 48.86,59.39 48.77,59.34 48.67,59.30 48.59,59.23 48.51,59.15 48.46,59.06 48.41,58.97 48.40,58.86 48.38,58.76 48.40,58.65 48.41,58.55 48.46,58.45 48.51,58.36 48.59,58.28 48.67,58.21 48.76,58.17 48.86,58.12 48.96,58.11 49.07,58.10 49.17,58.12 49.28,58.14 49.37,58.20 49.46,58.25 49.53,58.33 49.60,58.41 49.64,58.51 49.68,58.61 49.68,58.72 49.69,58.82 49.66,58.92 49.63,59.03 49.63,59.03 49.63,59.03 48.98,60.44 48.34,61.86 46.78,65.24 45.22,68.63 42.64,72.05 40.06,75.46 37.45,76.55 34.85,77.63 32.76,77.05 30.68,76.47 28.72,74.81 26.76,73.15 25.28,71.23 23.80,69.30 22.25,66.72 20.70,64.14 19.33,61.86 17.97,59.59 16.64,57.97 15.31,56.35 13.28,55.05 11.25,53.76 8.92,53.60 6.59,53.43 4.62,54.15 2.65,54.87 0.46,56.61 -1.71,58.36 -3.21,60.31 -4.70,62.26 -5.67,63.94 -6.64,65.61 -7.58,67.01 -8.53,68.40 -9.53,68.37 -10.53,68.34 -11.27,67.16 -12.00,65.99 -13.00,64.14 -13.99,62.29 -14.78,59.88 -15.57,57.48 -15.89,54.92 -16.22,52.37 -16.22,49.04 -16.23,45.72 -15.85,42.45 -15.48,39.17 -14.62,36.46 -13.76,33.75 -12.48,30.75 -11.19,27.76 -9.35,25.34 -7.51,22.93 -5.49,21.07 -3.47,19.22 -1.04,17.54 1.39,15.86 3.71,14.56 6.03,13.27 8.78,12.13 11.52,11.00 14.20,9.85 16.88,8.70 19.09,7.49 21.29,6.28 23.51,4.54 25.73,2.81 27.27,0.94 28.82,-0.91 29.54,-2.83 30.27,-4.75 30.88,-7.01 31.49,-9.28 31.44,-11.37 31.40,-13.47 30.93,-16.20 30.46,-18.92 29.34,-21.32 28.22,-23.72 26.67,-25.70 25.13,-27.69 22.92,-29.45 20.70,-31.21 18.46,-32.39 16.21,-33.58 13.86,-34.17 11.50,-34.76 8.86,-34.69 6.22,-34.63 3.99,-33.74 1.76,-32.86 0.08,-31.07 -1.60,-29.27 -2.68,-27.18 -3.76,-25.09 -4.49,-22.33 -5.21,-19.56 -5.44,-17.13 -5.67,-14.69 -5.48,-13.00 -5.29,-11.31 -4.83,-9.84 -4.37,-8.38 -3.68,-6.76 -2.98,-5.14 -2.45,-4.27 -1.93,-3.41 -1.49,-2.77 -1.05,-2.13 -0.24,-1.35 0.56,-0.56 0.62,-0.49 0.68,-0.41 0.72,-0.32 0.76,-0.23 0.78,-0.14 0.79,-0.04 0.79,0.04 0.78,0.14 0.75,0.23 0.73,0.32 0.68,0.41 0.63,0.49 0.56,0.56 0.49,0.63 0.41,0.68 0.32,0.73 0.23,0.75 0.14,0.78 0.04,0.79 -0.04,0.79 -0.14,0.78 -0.23,0.76 -0.32,0.72 -0.41,0.68 -0.49,0.62 -0.56,0.56 -0.56,0.56 L -0.56,0.56 Z"/></g><g transform="translate(85.04283273851038 47.43320960898566) rotate(182.83034858694623 16.944435119628906 20.833358764648438)" stroke="none"><path fill="#1e1e1e" d="M -0.56,0.56 Q -0.56,0.56 -1.35,-0.24 -2.13,-1.05 -2.69,-1.73 -3.25,-2.41 -3.79,-3.38 -4.33,-4.36 -5.04,-6.08 -5.75,-7.79 -6.21,-9.34 -6.67,-10.89 -6.87,-12.72 -7.07,-14.54 -6.83,-17.12 -6.59,-19.69 -5.83,-22.57 -5.08,-25.45 -3.94,-27.67 -2.79,-29.90 -0.98,-31.85 0.83,-33.81 3.28,-34.84 5.74,-35.87 8.60,-35.98 11.47,-36.08 14.00,-35.47 16.54,-34.86 18.93,-33.62 21.32,-32.37 23.64,-30.54 25.95,-28.72 27.61,-26.62 29.26,-24.53 30.46,-22.00 31.66,-19.47 32.17,-16.58 32.69,-13.70 32.75,-11.50 32.80,-9.29 32.17,-6.85 31.54,-4.41 30.79,-2.42 30.03,-0.42 28.39,1.60 26.75,3.64 24.42,5.48 22.09,7.31 19.81,8.58 17.52,9.85 14.78,11.03 12.04,12.21 9.29,13.34 6.53,14.48 4.28,15.74 2.03,17.01 -0.34,18.65 -2.73,20.30 -4.67,22.10 -6.62,23.89 -8.38,26.22 -10.14,28.55 -11.35,31.40 -12.55,34.26 -13.39,36.91 -14.23,39.56 -14.57,42.72 -14.92,45.87 -14.91,49.12 -14.90,52.36 -14.58,54.83 -14.26,57.30 -13.50,59.59 -12.74,61.87 -11.80,63.62 -10.85,65.36 -10.44,66.35 -10.04,67.34 -8.97,66.09 -7.90,64.84 -6.92,63.19 -5.94,61.54 -4.38,59.52 -2.81,57.50 -0.50,55.64 1.81,53.78 3.98,52.97 6.16,52.15 8.79,52.30 11.41,52.44 13.72,53.83 16.03,55.23 17.51,56.98 18.99,58.74 20.41,61.10 21.83,63.45 23.39,66.03 24.94,68.62 26.37,70.48 27.81,72.34 29.64,73.89 31.48,75.44 33.24,75.91 35.00,76.37 37.23,75.34 39.46,74.31 41.81,71.08 44.16,67.85 45.65,64.58 47.14,61.31 47.79,59.89 48.44,58.48 48.50,58.39 48.56,58.30 48.64,58.24 48.73,58.17 48.83,58.14 48.93,58.11 49.03,58.10 49.14,58.10 49.24,58.14 49.34,58.17 49.43,58.24 49.51,58.30 49.57,58.39 49.63,58.48 49.66,58.58 49.69,58.68 49.68,58.79 49.68,58.89 49.64,58.99 49.60,59.09 49.53,59.17 49.46,59.25 49.37,59.31 49.28,59.36 49.18,59.39 49.07,59.41 48.97,59.40 48.86,59.39 48.77,59.34 48.67,59.30 48.59,59.23 48.51,59.15 48.46,59.06 48.41,58.97 48.40,58.86 48.38,58.76 48.40,58.65 48.41,58.55 48.46,58.45 48.51,58.36 48.59,58.28 48.67,58.21 48.76,58.17 48.86,58.12 48.96,58.11 49.07,58.10 49.17,58.12 49.28,58.14 49.37,58.20 49.46,58.25 49.53,58.33 49.60,58.41 49.64,58.51 49.68,58.61 49.68,58.72 49.69,58.82 49.66,58.92 49.63,59.03 49.63,59.03 49.63,59.03 48.98,60.44 48.34,61.86 46.78,65.24 45.22,68.63 42.64,72.05 40.06,75.46 37.45,76.55 34.85,77.63 32.76,77.05 30.68,76.47 28.72,74.81 26.76,73.15 25.28,71.23 23.80,69.30 22.25,66.72 20.70,64.14 19.33,61.86 17.97,59.59 16.64,57.97 15.31,56.35 13.28,55.05 11.25,53.76 8.92,53.60 6.59,53.43 4.62,54.15 2.65,54.87 0.46,56.61 -1.71,58.36 -3.21,60.31 -4.70,62.26 -5.67,63.94 -6.64,65.61 -7.58,67.01 -8.53,68.40 -9.53,68.37 -10.53,68.34 -11.27,67.16 -12.00,65.99 -13.00,64.14 -13.99,62.29 -14.78,59.88 -15.57,57.48 -15.89,54.92 -16.22,52.37 -16.22,49.04 -16.23,45.72 -15.85,42.45 -15.48,39.17 -14.62,36.46 -13.76,33.75 -12.48,30.75 -11.19,27.76 -9.35,25.34 -7.51,22.93 -5.49,21.07 -3.47,19.22 -1.04,17.54 1.39,15.86 3.71,14.56 6.03,13.27 8.78,12.13 11.52,11.00 14.20,9.85 16.88,8.70 19.09,7.49 21.29,6.28 23.51,4.54 25.73,2.81 27.27,0.94 28.82,-0.91 29.54,-2.83 30.27,-4.75 30.88,-7.01 31.49,-9.28 31.44,-11.37 31.40,-13.47 30.93,-16.20 30.46,-18.92 29.34,-21.32 28.22,-23.72 26.67,-25.70 25.13,-27.69 22.92,-29.45 20.70,-31.21 18.46,-32.39 16.21,-33.58 13.86,-34.17 11.50,-34.76 8.86,-34.69 6.22,-34.63 3.99,-33.74 1.76,-32.86 0.08,-31.07 -1.60,-29.27 -2.68,-27.18 -3.76,-25.09 -4.49,-22.33 -5.21,-19.56 -5.44,-17.13 -5.67,-14.69 -5.48,-13.00 -5.29,-11.31 -4.83,-9.84 -4.37,-8.38 -3.68,-6.76 -2.98,-5.14 -2.45,-4.27 -1.93,-3.41 -1.49,-2.77 -1.05,-2.13 -0.24,-1.35 0.56,-0.56 0.62,-0.49 0.68,-0.41 0.72,-0.32 0.76,-0.23 0.78,-0.14 0.79,-0.04 0.79,0.04 0.78,0.14 0.75,0.23 0.73,0.32 0.68,0.41 0.63,0.49 0.56,0.56 0.49,0.63 0.41,0.68 0.32,0.73 0.23,0.75 0.14,0.78 0.04,0.79 -0.04,0.79 -0.14,0.78 -0.23,0.76 -0.32,0.72 -0.41,0.68 -0.49,0.62 -0.56,0.56 -0.56,0.56 L -0.56,0.56 Z"/></g><g transform="translate(58.80630248765249 62.20731114628589) rotate(496.076804668908 16.944435119628906 20.833358764648438)" stroke="none"><path fill="#1e1e1e" d="M -0.56,0.56 Q -0.56,0.56 -1.35,-0.24 -2.13,-1.05 -2.69,-1.73 -3.25,-2.41 -3.79,-3.38 -4.33,-4.36 -5.04,-6.08 -5.75,-7.79 -6.21,-9.34 -6.67,-10.89 -6.87,-12.72 -7.07,-14.54 -6.83,-17.12 -6.59,-19.69 -5.83,-22.57 -5.08,-25.45 -3.94,-27.67 -2.79,-29.90 -0.98,-31.85 0.83,-33.81 3.28,-34.84 5.74,-35.87 8.60,-35.98 11.47,-36.08 14.00,-35.47 16.54,-34.86 18.93,-33.62 21.32,-32.37 23.64,-30.54 25.95,-28.72 27.61,-26.62 29.26,-24.53 30.46,-22.00 31.66,-19.47 32.17,-16.58 32.69,-13.70 32.75,-11.50 32.80,-9.29 32.17,-6.85 31.54,-4.41 30.79,-2.42 30.03,-0.42 28.39,1.60 26.75,3.64 24.42,5.48 22.09,7.31 19.81,8.58 17.52,9.85 14.78,11.03 12.04,12.21 9.29,13.34 6.53,14.48 4.28,15.74 2.03,17.01 -0.34,18.65 -2.73,20.30 -4.67,22.10 -6.62,23.89 -8.38,26.22 -10.14,28.55 -11.35,31.40 -12.55,34.26 -13.39,36.91 -14.23,39.56 -14.57,42.72 -14.92,45.87 -14.91,49.12 -14.90,52.36 -14.58,54.83 -14.26,57.30 -13.50,59.59 -12.74,61.87 -11.80,63.62 -10.85,65.36 -10.44,66.35 -10.04,67.34 -8.97,66.09 -7.90,64.84 -6.92,63.19 -5.94,61.54 -4.38,59.52 -2.81,57.50 -0.50,55.64 1.81,53.78 3.98,52.97 6.16,52.15 8.79,52.30 11.41,52.44 13.72,53.83 16.03,55.23 17.51,56.98 18.99,58.74 20.41,61.10 21.83,63.45 23.39,66.03 24.94,68.62 26.37,70.48 27.81,72.34 29.64,73.89 31.48,75.44 33.24,75.91 35.00,76.37 37.23,75.34 39.46,74.31 41.81,71.08 44.16,67.85 45.65,64.58 47.14,61.31 47.79,59.89 48.44,58.48 48.50,58.39 48.56,58.30 48.64,58.24 48.73,58.17 48.83,58.14 48.93,58.11 49.03,58.10 49.14,58.10 49.24,58.14 49.34,58.17 49.43,58.24 49.51,58.30 49.57,58.39 49.63,58.48 49.66,58.58 49.69,58.68 49.68,58.79 49.68,58.89 49.64,58.99 49.60,59.09 49.53,59.17 49.46,59.25 49.37,59.31 49.28,59.36 49.18,59.39 49.07,59.41 48.97,59.40 48.86,59.39 48.77,59.34 48.67,59.30 48.59,59.23 48.51,59.15 48.46,59.06 48.41,58.97 48.40,58.86 48.38,58.76 48.40,58.65 48.41,58.55 48.46,58.45 48.51,58.36 48.59,58.28 48.67,58.21 48.76,58.17 48.86,58.12 48.96,58.11 49.07,58.10 49.17,58.12 49.28,58.14 49.37,58.20 49.46,58.25 49.53,58.33 49.60,58.41 49.64,58.51 49.68,58.61 49.68,58.72 49.69,58.82 49.66,58.92 49.63,59.03 49.63,59.03 49.63,59.03 48.98,60.44 48.34,61.86 46.78,65.24 45.22,68.63 42.64,72.05 40.06,75.46 37.45,76.55 34.85,77.63 32.76,77.05 30.68,76.47 28.72,74.81 26.76,73.15 25.28,71.23 23.80,69.30 22.25,66.72 20.70,64.14 19.33,61.86 17.97,59.59 16.64,57.97 15.31,56.35 13.28,55.05 11.25,53.76 8.92,53.60 6.59,53.43 4.62,54.15 2.65,54.87 0.46,56.61 -1.71,58.36 -3.21,60.31 -4.70,62.26 -5.67,63.94 -6.64,65.61 -7.58,67.01 -8.53,68.40 -9.53,68.37 -10.53,68.34 -11.27,67.16 -12.00,65.99 -13.00,64.14 -13.99,62.29 -14.78,59.88 -15.57,57.48 -15.89,54.92 -16.22,52.37 -16.22,49.04 -16.23,45.72 -15.85,42.45 -15.48,39.17 -14.62,36.46 -13.76,33.75 -12.48,30.75 -11.19,27.76 -9.35,25.34 -7.51,22.93 -5.49,21.07 -3.47,19.22 -1.04,17.54 1.39,15.86 3.71,14.56 6.03,13.27 8.78,12.13 11.52,11.00 14.20,9.85 16.88,8.70 19.09,7.49 21.29,6.28 23.51,4.54 25.73,2.81 27.27,0.94 28.82,-0.91 29.54,-2.83 30.27,-4.75 30.88,-7.01 31.49,-9.28 31.44,-11.37 31.40,-13.47 30.93,-16.20 30.46,-18.92 29.34,-21.32 28.22,-23.72 26.67,-25.70 25.13,-27.69 22.92,-29.45 20.70,-31.21 18.46,-32.39 16.21,-33.58 13.86,-34.17 11.50,-34.76 8.86,-34.69 6.22,-34.63 3.99,-33.74 1.76,-32.86 0.08,-31.07 -1.60,-29.27 -2.68,-27.18 -3.76,-25.09 -4.49,-22.33 -5.21,-19.56 -5.44,-17.13 -5.67,-14.69 -5.48,-13.00 -5.29,-11.31 -4.83,-9.84 -4.37,-8.38 -3.68,-6.76 -2.98,-5.14 -2.45,-4.27 -1.93,-3.41 -1.49,-2.77 -1.05,-2.13 -0.24,-1.35 0.56,-0.56 0.62,-0.49 0.68,-0.41 0.72,-0.32 0.76,-0.23 0.78,-0.14 0.79,-0.04 0.79,0.04 0.78,0.14 0.75,0.23 0.73,0.32 0.68,0.41 0.63,0.49 0.56,0.56 0.49,0.63 0.41,0.68 0.32,0.73 0.23,0.75 0.14,0.78 0.04,0.79 -0.04,0.79 -0.14,0.78 -0.23,0.76 -0.32,0.72 -0.41,0.68 -0.49,0.62 -0.56,0.56 -0.56,0.56 L -0.56,0.56 Z"/></g><g transform="translate(51.51895504226735 89.12672217515113) rotate(453.65563806753715 16.944435119628906 20.83335876464843)" stroke="none"><path fill="#1e1e1e" d="M -0.56,0.56 Q -0.56,0.56 -1.35,-0.24 -2.13,-1.05 -2.69,-1.73 -3.25,-2.41 -3.79,-3.38 -4.33,-4.36 -5.04,-6.08 -5.75,-7.79 -6.21,-9.34 -6.67,-10.89 -6.87,-12.72 -7.07,-14.54 -6.83,-17.12 -6.59,-19.69 -5.83,-22.57 -5.08,-25.45 -3.94,-27.67 -2.79,-29.90 -0.98,-31.85 0.83,-33.81 3.28,-34.84 5.74,-35.87 8.60,-35.98 11.47,-36.08 14.00,-35.47 16.54,-34.86 18.93,-33.62 21.32,-32.37 23.64,-30.54 25.95,-28.72 27.61,-26.62 29.26,-24.53 30.46,-22.00 31.66,-19.47 32.17,-16.58 32.69,-13.70 32.75,-11.50 32.80,-9.29 32.17,-6.85 31.54,-4.41 30.79,-2.42 30.03,-0.42 28.39,1.60 26.75,3.64 24.42,5.48 22.09,7.31 19.81,8.58 17.52,9.85 14.78,11.03 12.04,12.21 9.29,13.34 6.53,14.48 4.28,15.74 2.03,17.01 -0.34,18.65 -2.73,20.30 -4.67,22.10 -6.62,23.89 -8.38,26.22 -10.14,28.55 -11.35,31.40 -12.55,34.26 -13.39,36.91 -14.23,39.56 -14.57,42.72 -14.92,45.87 -14.91,49.12 -14.90,52.36 -14.58,54.83 -14.26,57.30 -13.50,59.59 -12.74,61.87 -11.80,63.62 -10.85,65.36 -10.44,66.35 -10.04,67.34 -8.97,66.09 -7.90,64.84 -6.92,63.19 -5.94,61.54 -4.38,59.52 -2.81,57.50 -0.50,55.64 1.81,53.78 3.98,52.97 6.16,52.15 8.79,52.30 11.41,52.44 13.72,53.83 16.03,55.23 17.51,56.98 18.99,58.74 20.41,61.10 21.83,63.45 23.39,66.03 24.94,68.62 26.37,70.48 27.81,72.34 29.64,73.89 31.48,75.44 33.24,75.91 35.00,76.37 37.23,75.34 39.46,74.31 41.81,71.08 44.16,67.85 45.65,64.58 47.14,61.31 47.79,59.89 48.44,58.48 48.50,58.39 48.56,58.30 48.64,58.24 48.73,58.17 48.83,58.14 48.93,58.11 49.03,58.10 49.14,58.10 49.24,58.14 49.34,58.17 49.43,58.24 49.51,58.30 49.57,58.39 49.63,58.48 49.66,58.58 49.69,58.68 49.68,58.79 49.68,58.89 49.64,58.99 49.60,59.09 49.53,59.17 49.46,59.25 49.37,59.31 49.28,59.36 49.18,59.39 49.07,59.41 48.97,59.40 48.86,59.39 48.77,59.34 48.67,59.30 48.59,59.23 48.51,59.15 48.46,59.06 48.41,58.97 48.40,58.86 48.38,58.76 48.40,58.65 48.41,58.55 48.46,58.45 48.51,58.36 48.59,58.28 48.67,58.21 48.76,58.17 48.86,58.12 48.96,58.11 49.07,58.10 49.17,58.12 49.28,58.14 49.37,58.20 49.46,58.25 49.53,58.33 49.60,58.41 49.64,58.51 49.68,58.61 49.68,58.72 49.69,58.82 49.66,58.92 49.63,59.03 49.63,59.03 49.63,59.03 48.98,60.44 48.34,61.86 46.78,65.24 45.22,68.63 42.64,72.05 40.06,75.46 37.45,76.55 34.85,77.63 32.76,77.05 30.68,76.47 28.72,74.81 26.76,73.15 25.28,71.23 23.80,69.30 22.25,66.72 20.70,64.14 19.33,61.86 17.97,59.59 16.64,57.97 15.31,56.35 13.28,55.05 11.25,53.76 8.92,53.60 6.59,53.43 4.62,54.15 2.65,54.87 0.46,56.61 -1.71,58.36 -3.21,60.31 -4.70,62.26 -5.67,63.94 -6.64,65.61 -7.58,67.01 -8.53,68.40 -9.53,68.37 -10.53,68.34 -11.27,67.16 -12.00,65.99 -13.00,64.14 -13.99,62.29 -14.78,59.88 -15.57,57.48 -15.89,54.92 -16.22,52.37 -16.22,49.04 -16.23,45.72 -15.85,42.45 -15.48,39.17 -14.62,36.46 -13.76,33.75 -12.48,30.75 -11.19,27.76 -9.35,25.34 -7.51,22.93 -5.49,21.07 -3.47,19.22 -1.04,17.54 1.39,15.86 3.71,14.56 6.03,13.27 8.78,12.13 11.52,11.00 14.20,9.85 16.88,8.70 19.09,7.49 21.29,6.28 23.51,4.54 25.73,2.81 27.27,0.94 28.82,-0.91 29.54,-2.83 30.27,-4.75 30.88,-7.01 31.49,-9.28 31.44,-11.37 31.40,-13.47 30.93,-16.20 30.46,-18.92 29.34,-21.32 28.22,-23.72 26.67,-25.70 25.13,-27.69 22.92,-29.45 20.70,-31.21 18.46,-32.39 16.21,-33.58 13.86,-34.17 11.50,-34.76 8.86,-34.69 6.22,-34.63 3.99,-33.74 1.76,-32.86 0.08,-31.07 -1.60,-29.27 -2.68,-27.18 -3.76,-25.09 -4.49,-22.33 -5.21,-19.56 -5.44,-17.13 -5.67,-14.69 -5.48,-13.00 -5.29,-11.31 -4.83,-9.84 -4.37,-8.38 -3.68,-6.76 -2.98,-5.14 -2.45,-4.27 -1.93,-3.41 -1.49,-2.77 -1.05,-2.13 -0.24,-1.35 0.56,-0.56 0.62,-0.49 0.68,-0.41 0.72,-0.32 0.76,-0.23 0.78,-0.14 0.79,-0.04 0.79,0.04 0.78,0.14 0.75,0.23 0.73,0.32 0.68,0.41 0.63,0.49 0.56,0.56 0.49,0.63 0.41,0.68 0.32,0.73 0.23,0.75 0.14,0.78 0.04,0.79 -0.04,0.79 -0.14,0.78 -0.23,0.76 -0.32,0.72 -0.41,0.68 -0.49,0.62 -0.56,0.56 -0.56,0.56 L -0.56,0.56 Z"/></g><g transform="translate(65.39303656347454 114.4454160760494) rotate(410.33660196971937 16.944435119628906 20.833358764648438)" stroke="none"><path fill="#1e1e1e" d="M -0.56,0.56 Q -0.56,0.56 -1.35,-0.24 -2.13,-1.05 -2.69,-1.73 -3.25,-2.41 -3.79,-3.38 -4.33,-4.36 -5.04,-6.08 -5.75,-7.79 -6.21,-9.34 -6.67,-10.89 -6.87,-12.72 -7.07,-14.54 -6.83,-17.12 -6.59,-19.69 -5.83,-22.57 -5.08,-25.45 -3.94,-27.67 -2.79,-29.90 -0.98,-31.85 0.83,-33.81 3.28,-34.84 5.74,-35.87 8.60,-35.98 11.47,-36.08 14.00,-35.47 16.54,-34.86 18.93,-33.62 21.32,-32.37 23.64,-30.54 25.95,-28.72 27.61,-26.62 29.26,-24.53 30.46,-22.00 31.66,-19.47 32.17,-16.58 32.69,-13.70 32.75,-11.50 32.80,-9.29 32.17,-6.85 31.54,-4.41 30.79,-2.42 30.03,-0.42 28.39,1.60 26.75,3.64 24.42,5.48 22.09,7.31 19.81,8.58 17.52,9.85 14.78,11.03 12.04,12.21 9.29,13.34 6.53,14.48 4.28,15.74 2.03,17.01 -0.34,18.65 -2.73,20.30 -4.67,22.10 -6.62,23.89 -8.38,26.22 -10.14,28.55 -11.35,31.40 -12.55,34.26 -13.39,36.91 -14.23,39.56 -14.57,42.72 -14.92,45.87 -14.91,49.12 -14.90,52.36 -14.58,54.83 -14.26,57.30 -13.50,59.59 -12.74,61.87 -11.80,63.62 -10.85,65.36 -10.44,66.35 -10.04,67.34 -8.97,66.09 -7.90,64.84 -6.92,63.19 -5.94,61.54 -4.38,59.52 -2.81,57.50 -0.50,55.64 1.81,53.78 3.98,52.97 6.16,52.15 8.79,52.30 11.41,52.44 13.72,53.83 16.03,55.23 17.51,56.98 18.99,58.74 20.41,61.10 21.83,63.45 23.39,66.03 24.94,68.62 26.37,70.48 27.81,72.34 29.64,73.89 31.48,75.44 33.24,75.91 35.00,76.37 37.23,75.34 39.46,74.31 41.81,71.08 44.16,67.85 45.65,64.58 47.14,61.31 47.79,59.89 48.44,58.48 48.50,58.39 48.56,58.30 48.64,58.24 48.73,58.17 48.83,58.14 48.93,58.11 49.03,58.10 49.14,58.10 49.24,58.14 49.34,58.17 49.43,58.24 49.51,58.30 49.57,58.39 49.63,58.48 49.66,58.58 49.69,58.68 49.68,58.79 49.68,58.89 49.64,58.99 49.60,59.09 49.53,59.17 49.46,59.25 49.37,59.31 49.28,59.36 49.18,59.39 49.07,59.41 48.97,59.40 48.86,59.39 48.77,59.34 48.67,59.30 48.59,59.23 48.51,59.15 48.46,59.06 48.41,58.97 48.40,58.86 48.38,58.76 48.40,58.65 48.41,58.55 48.46,58.45 48.51,58.36 48.59,58.28 48.67,58.21 48.76,58.17 48.86,58.12 48.96,58.11 49.07,58.10 49.17,58.12 49.28,58.14 49.37,58.20 49.46,58.25 49.53,58.33 49.60,58.41 49.64,58.51 49.68,58.61 49.68,58.72 49.69,58.82 49.66,58.92 49.63,59.03 49.63,59.03 49.63,59.03 48.98,60.44 48.34,61.86 46.78,65.24 45.22,68.63 42.64,72.05 40.06,75.46 37.45,76.55 34.85,77.63 32.76,77.05 30.68,76.47 28.72,74.81 26.76,73.15 25.28,71.23 23.80,69.30 22.25,66.72 20.70,64.14 19.33,61.86 17.97,59.59 16.64,57.97 15.31,56.35 13.28,55.05 11.25,53.76 8.92,53.60 6.59,53.43 4.62,54.15 2.65,54.87 0.46,56.61 -1.71,58.36 -3.21,60.31 -4.70,62.26 -5.67,63.94 -6.64,65.61 -7.58,67.01 -8.53,68.40 -9.53,68.37 -10.53,68.34 -11.27,67.16 -12.00,65.99 -13.00,64.14 -13.99,62.29 -14.78,59.88 -15.57,57.48 -15.89,54.92 -16.22,52.37 -16.22,49.04 -16.23,45.72 -15.85,42.45 -15.48,39.17 -14.62,36.46 -13.76,33.75 -12.48,30.75 -11.19,27.76 -9.35,25.34 -7.51,22.93 -5.49,21.07 -3.47,19.22 -1.04,17.54 1.39,15.86 3.71,14.56 6.03,13.27 8.78,12.13 11.52,11.00 14.20,9.85 16.88,8.70 19.09,7.49 21.29,6.28 23.51,4.54 25.73,2.81 27.27,0.94 28.82,-0.91 29.54,-2.83 30.27,-4.75 30.88,-7.01 31.49,-9.28 31.44,-11.37 31.40,-13.47 30.93,-16.20 30.46,-18.92 29.34,-21.32 28.22,-23.72 26.67,-25.70 25.13,-27.69 22.92,-29.45 20.70,-31.21 18.46,-32.39 16.21,-33.58 13.86,-34.17 11.50,-34.76 8.86,-34.69 6.22,-34.63 3.99,-33.74 1.76,-32.86 0.08,-31.07 -1.60,-29.27 -2.68,-27.18 -3.76,-25.09 -4.49,-22.33 -5.21,-19.56 -5.44,-17.13 -5.67,-14.69 -5.48,-13.00 -5.29,-11.31 -4.83,-9.84 -4.37,-8.38 -3.68,-6.76 -2.98,-5.14 -2.45,-4.27 -1.93,-3.41 -1.49,-2.77 -1.05,-2.13 -0.24,-1.35 0.56,-0.56 0.62,-0.49 0.68,-0.41 0.72,-0.32 0.76,-0.23 0.78,-0.14 0.79,-0.04 0.79,0.04 0.78,0.14 0.75,0.23 0.73,0.32 0.68,0.41 0.63,0.49 0.56,0.56 0.49,0.63 0.41,0.68 0.32,0.73 0.23,0.75 0.14,0.78 0.04,0.79 -0.04,0.79 -0.14,0.78 -0.23,0.76 -0.32,0.72 -0.41,0.68 -0.49,0.62 -0.56,0.56 -0.56,0.56 L -0.56,0.56 Z"/></g></svg>